<?xml version="1.0" encoding="UTF-8" standalone="no"?>
<!-- Created with Inkscape (http://www.inkscape.org/) -->

<svg
   xmlns:dc="http://purl.org/dc/elements/1.1/"
   xmlns:cc="http://creativecommons.org/ns#"
   xmlns:rdf="http://www.w3.org/1999/02/22-rdf-syntax-ns#"
   xmlns:svg="http://www.w3.org/2000/svg"
   xmlns="http://www.w3.org/2000/svg"
   xmlns:xlink="http://www.w3.org/1999/xlink"
   xmlns:sodipodi="http://sodipodi.sourceforge.net/DTD/sodipodi-0.dtd"
   xmlns:inkscape="http://www.inkscape.org/namespaces/inkscape"
   width="411.68698"
   height="411.70221"
   id="svg2"
   version="1.1"
   inkscape:version="0.48.4 r9939"
   sodipodi:docname="icon.event.svg">
  <defs
     id="defs4">
    <linearGradient
       id="linearGradient4026">
      <stop
         style="stop-color:#5b4f4f;stop-opacity:1;"
         offset="0"
         id="stop4028" />
      <stop
         style="stop-color:#6c6c6c;stop-opacity:0;"
         offset="1"
         id="stop4030" />
    </linearGradient>
    <linearGradient
       id="linearGradient4018">
      <stop
         style="stop-color:#525252;stop-opacity:1;"
         offset="0"
         id="stop4020" />
      <stop
         id="stop3784"
         offset="1"
         style="stop-color:#e96d51;stop-opacity:0;" />
    </linearGradient>
    <linearGradient
       inkscape:collect="always"
       xlink:href="#linearGradient4018"
       id="linearGradient4024"
       x1="1823.0017"
       y1="736.64093"
       x2="1717.4949"
       y2="625.28955"
       gradientUnits="userSpaceOnUse" />
    <linearGradient
       inkscape:collect="always"
       xlink:href="#linearGradient4026"
       id="linearGradient4032"
       x1="1833.6667"
       y1="709.42181"
       x2="1611.0138"
       y2="706.99182"
       gradientUnits="userSpaceOnUse" />
    <linearGradient
       inkscape:collect="always"
       xlink:href="#linearGradient4026"
       id="linearGradient3787"
       gradientUnits="userSpaceOnUse"
       x1="1833.6667"
       y1="709.42181"
       x2="1611.0138"
       y2="706.99182" />
    <linearGradient
       inkscape:collect="always"
       xlink:href="#linearGradient4018"
       id="linearGradient3789"
       gradientUnits="userSpaceOnUse"
       x1="1823.0017"
       y1="736.64093"
       x2="1717.4949"
       y2="625.28955" />
    <linearGradient
       inkscape:collect="always"
       xlink:href="#linearGradient4018"
       id="linearGradient3792"
       gradientUnits="userSpaceOnUse"
       x1="1823.0017"
       y1="736.64093"
       x2="1717.4949"
       y2="625.28955"
       gradientTransform="translate(0,152.79011)" />
    <linearGradient
       inkscape:collect="always"
       xlink:href="#linearGradient4026"
       id="linearGradient3795"
       gradientUnits="userSpaceOnUse"
       x1="1833.6667"
       y1="709.42181"
       x2="1611.0138"
       y2="706.99182"
       gradientTransform="translate(0,152.79011)" />
    <linearGradient
       inkscape:collect="always"
       xlink:href="#linearGradient4026"
       id="linearGradient3804"
       gradientUnits="userSpaceOnUse"
       gradientTransform="translate(0,152.79011)"
       x1="1833.6667"
       y1="709.42181"
       x2="1611.0138"
       y2="706.99182" />
    <linearGradient
       inkscape:collect="always"
       xlink:href="#linearGradient4018"
       id="linearGradient3806"
       gradientUnits="userSpaceOnUse"
       gradientTransform="translate(0,152.79011)"
       x1="1823.0017"
       y1="736.64093"
       x2="1717.4949"
       y2="625.28955" />
    <linearGradient
       inkscape:collect="always"
       xlink:href="#linearGradient4018"
       id="linearGradient3809"
       gradientUnits="userSpaceOnUse"
       gradientTransform="translate(0,152.79011)"
       x1="1823.0017"
       y1="736.64093"
       x2="1717.4949"
       y2="625.28955" />
    <linearGradient
       inkscape:collect="always"
       xlink:href="#linearGradient4026"
       id="linearGradient3812"
       gradientUnits="userSpaceOnUse"
       gradientTransform="translate(0,152.79011)"
       x1="1833.6667"
       y1="709.42181"
       x2="1611.0138"
       y2="706.99182" />
  </defs>
  <sodipodi:namedview
     id="base"
     pagecolor="#ffffff"
     bordercolor="#666666"
     borderopacity="1.0"
     inkscape:pageopacity="0.0"
     inkscape:pageshadow="2"
     inkscape:zoom="0.35"
     inkscape:cx="-112.5814"
     inkscape:cy="130.41476"
     inkscape:document-units="px"
     inkscape:current-layer="layer1"
     showgrid="false"
     fit-margin-top="0"
     fit-margin-left="0"
     fit-margin-right="0"
     fit-margin-bottom="0"
     inkscape:window-width="1205"
     inkscape:window-height="817"
     inkscape:window-x="372"
     inkscape:window-y="433"
     inkscape:window-maximized="0" />
  <metadata
     id="metadata7">
    <rdf:RDF>
      <cc:Work
         rdf:about="">
        <dc:format>image/svg+xml</dc:format>
        <dc:type
           rdf:resource="http://purl.org/dc/dcmitype/StillImage" />
        <dc:title />
      </cc:Work>
    </rdf:RDF>
  </metadata>
  <g
     inkscape:label="Layer 1"
     inkscape:groupmode="layer"
     id="layer1"
     transform="translate(-1411.8777,-478.56204)">
    <path
       inkscape:connector-curvature="0"
       style="fill:#e96d51;fill-opacity:1"
       d="m 1672.9472,478.56258 c -16.5652,-0.003 -36.3176,0.005 -59.7187,0.0625 l -127,0.3125 -9,2.8125 c -36.793,11.48897 -60.8992,40.8889 -64.5313,78.71875 -0.7571,7.88664 -0.9707,48.99924 -0.7187,131.46875 0.3292,107.77777 0.5344,120.70565 2.0312,126.875 9.8954,40.78575 41.524,67.93425 82.7188,70.96875 9.9788,0.7351 219.455,0.58635 220.625,-0.15625 0.9899,-0.6288 0.2041,-11.0651 0,-48.75 -0.2633,-48.56098 0,-61.9375 0,-61.9375 l 60.375,0 45.5,0 0.2812,-108.5 c 0.183,-73.22437 -0.092,-110.75046 -0.8125,-115.46875 -2.9307,-19.191 -11.5159,-36.0783 -25.4687,-50.03125 -14.0662,-14.06613 -30.392,-22.44828 -49.5,-25.4375 -4.146,-0.64825 -25.0856,-0.92978 -74.7813,-0.9375 z m -167.4375,32.875 c 17.4892,0 24.6345,21.97067 10.625,32.65625 -2.7479,2.09598 -4.9439,2.81676 -9.25,3.0625 -6.816,0.38896 -10.5643,-1.12164 -14.875,-6.03125 -9.836,-11.20259 -1.435,-29.6875 13.5,-29.6875 z m 216,0 c 17.4892,0 24.6346,21.97067 10.625,32.65625 -2.7479,2.09598 -4.9439,2.81676 -9.25,3.0625 -6.816,0.38896 -10.5643,-1.12164 -14.875,-6.03125 -9.836,-11.20259 -1.435,-29.6875 13.5,-29.6875 z m -117.7812,66.40625 27.9687,0 0,92.59375 92.5938,0 0,27.96875 -92.5938,0 0,92.59375 -27.9687,0 0,-92.59375 -92.5938,0 0,-27.96875 92.5938,0 0,-92.59375 z"
       id="path3801-9" />
    <path
       style="fill:url(#linearGradient3812);fill-opacity:1;fill-rule:nonzero;stroke:none"
       d="m 1717.7311,779.32427 0,110.93997 -107.6967,0 z"
       id="rect3825-93"
       inkscape:connector-curvature="0"
       sodipodi:nodetypes="cccc" />
    <path
       style="fill:url(#linearGradient3809);fill-opacity:1;fill-rule:nonzero;stroke:none"
       d="m 1717.6499,890.1182 0,-110.93995 105.911,0 z"
       id="rect3825-9-7"
       inkscape:connector-curvature="0"
       sodipodi:nodetypes="cccc" />
  </g>
</svg>
