<?xml version="1.0" encoding="UTF-8" standalone="no"?>
<!-- Generator: Adobe Illustrator 15.0.2, SVG Export Plug-In . SVG Version: 6.00 Build 0)  -->

<svg
   xmlns:dc="http://purl.org/dc/elements/1.1/"
   xmlns:cc="http://creativecommons.org/ns#"
   xmlns:rdf="http://www.w3.org/1999/02/22-rdf-syntax-ns#"
   xmlns:svg="http://www.w3.org/2000/svg"
   xmlns="http://www.w3.org/2000/svg"
   xmlns:xlink="http://www.w3.org/1999/xlink"
   xmlns:sodipodi="http://sodipodi.sourceforge.net/DTD/sodipodi-0.dtd"
   xmlns:inkscape="http://www.inkscape.org/namespaces/inkscape"
   version="1.0"
   id="Layer_1"
   x="0px"
   y="0px"
   width="100"
   height="98.422806"
   viewBox="0 0 99.999996 98.422797"
   enable-background="new 0 0 2481 2073"
   xml:space="preserve"
   inkscape:version="0.48.4 r9939"
   sodipodi:docname="logo.sorbonne.marker.svg"><metadata
     id="metadata15"><rdf:RDF><cc:Work
         rdf:about=""><dc:format>image/svg+xml</dc:format><dc:type
           rdf:resource="http://purl.org/dc/dcmitype/StillImage" /><dc:title></dc:title></cc:Work></rdf:RDF></metadata><defs
     id="defs13"><linearGradient
       id="SVGID_1_"
       gradientUnits="userSpaceOnUse"
       x1="263.8389"
       y1="-344.77591"
       x2="331.28519"
       y2="-344.77591"
       gradientTransform="matrix(1,0,0,-1,-247.5,-270)"><stop
         offset="0.0023"
         style="stop-color:#217939"
         id="stop60" /><stop
         offset="1"
         style="stop-color:#8DC63F"
         id="stop62" /></linearGradient><linearGradient
       inkscape:collect="always"
       xlink:href="#SVGID_1_"
       id="linearGradient4139"
       gradientUnits="userSpaceOnUse"
       gradientTransform="matrix(1,0,0,-1,-247.5,-270)"
       x1="263.8389"
       y1="-344.77591"
       x2="331.28519"
       y2="-344.77591" /><linearGradient
       id="SVGID_1_-1"
       gradientUnits="userSpaceOnUse"
       x1="51.847698"
       y1="65.255898"
       x2="77.012001"
       y2="41.551998"><stop
         offset="0"
         style="stop-color:#F19824"
         id="stop6" /><stop
         offset="0.1612"
         style="stop-color:#EE6E25"
         id="stop8" /><stop
         offset="0.3395"
         style="stop-color:#EB4727"
         id="stop10" /><stop
         offset="0.5157"
         style="stop-color:#E82828"
         id="stop12" /><stop
         offset="0.687"
         style="stop-color:#E61228"
         id="stop14" /><stop
         offset="0.851"
         style="stop-color:#E50429"
         id="stop16" /><stop
         offset="1"
         style="stop-color:#E50029"
         id="stop18" /></linearGradient><linearGradient
       id="SVGID_2_"
       gradientUnits="userSpaceOnUse"
       x1="23.0205"
       y1="56.362301"
       x2="6.3035002"
       y2="32.675301"><stop
         offset="0"
         style="stop-color:#F19824"
         id="stop25" /><stop
         offset="0.0189"
         style="stop-color:#F08F24"
         id="stop27" /><stop
         offset="0.1136"
         style="stop-color:#ED6926"
         id="stop29" /><stop
         offset="0.2157"
         style="stop-color:#EB4927"
         id="stop31" /><stop
         offset="0.325"
         style="stop-color:#E92E27"
         id="stop33" /><stop
         offset="0.4441"
         style="stop-color:#E71A28"
         id="stop35" /><stop
         offset="0.5781"
         style="stop-color:#E60B29"
         id="stop37" /><stop
         offset="0.7391"
         style="stop-color:#E50329"
         id="stop39" /><stop
         offset="1"
         style="stop-color:#E50029"
         id="stop41" /></linearGradient></defs><sodipodi:namedview
     pagecolor="#ffffff"
     bordercolor="#666666"
     borderopacity="1"
     objecttolerance="10"
     gridtolerance="10"
     guidetolerance="10"
     inkscape:pageopacity="0"
     inkscape:pageshadow="2"
     inkscape:window-width="1002"
     inkscape:window-height="902"
     id="namedview11"
     showgrid="false"
     fit-margin-top="0"
     fit-margin-left="0"
     fit-margin-right="0"
     fit-margin-bottom="0"
     inkscape:zoom="1.8215147"
     inkscape:cx="117.17069"
     inkscape:cy="35.844593"
     inkscape:window-x="163"
     inkscape:window-y="119"
     inkscape:window-maximized="0"
     inkscape:current-layer="Layer_1" /><path
     style="opacity:0.36213995;fill:#000000;fill-opacity:0.57534246;fill-rule:evenodd;stroke:none"
     inkscape:connector-curvature="0"
     id="path7"
     d="m 30.209036,98.422796 c 5.626411,-5.553785 9.034218,-10.843153 11.506341,-16.105002 1.833744,-3.903077 1.567241,-6.021578 4.572524,-11.674019 6.681738,-11.369765 9.706537,-13.496243 21.51007,-17.373402 6.864565,-1.582623 14.718733,-1.713817 21.487151,0.716469 5.534065,1.987211 8.750351,5.213924 9.994611,8.218802 1.016807,2.455504 0.916107,4.971064 -0.04462,7.494512 -1.002761,2.63388 -2.974216,5.333232 -6.887658,8.151162 -2.005011,1.443608 -4.228229,2.588461 -6.259488,3.440189 -2.055894,0.862004 -4.129904,1.39643 -6.213154,2.036432 -4.066587,1.249335 -8.226449,2.166641 -12.393591,3.082183 -12.412046,2.726586 -24.678961,5.712499 -37.272126,12.012674 z"
     clip-rule="evenodd"
     sodipodi:nodetypes="cscccssccsccc" /><path
     style="fill:#f5f5f5;fill-opacity:0.78431374;stroke:#e86c52;stroke-width:2.93298769000000004;stroke-linecap:round;stroke-linejoin:miter;stroke-miterlimit:10;stroke-opacity:1;stroke-dasharray:none"
     inkscape:connector-curvature="0"
     id="path5"
     d="M 30.134416,91.679377 C 28.016291,81.541793 24.281731,73.10552 19.758352,65.286719 16.403154,59.486935 12.516319,54.133673 8.9199986,48.509538 7.719467,46.63206 6.6834123,44.648623 5.5298244,42.700104 3.2231948,38.804023 1.3530149,34.286734 1.4718619,28.427076 1.5879664,22.70181 3.2863003,18.10919 5.7353248,14.354231 9.7632348,8.1781947 16.510136,3.1145772 25.562847,1.7838334 c 7.401689,-1.08800819 14.341307,0.7501202 19.262511,3.5558198 4.021402,2.2926179 7.135594,5.3551178 9.502761,8.9644128 2.470769,3.767167 4.172163,8.217672 4.314883,14.022741 0.07305,2.974145 -0.426462,5.728351 -1.130155,8.012944 -0.712153,2.312443 -1.857497,4.245431 -2.876506,6.310253 -1.989168,4.030474 -4.48305,7.723246 -6.985838,11.418397 -7.45475,11.006267 -14.451733,22.230688 -17.516087,37.610976 z"
     stroke-miterlimit="10"
     clip-rule="evenodd" /><g
     transform="matrix(0.52274658,0,0,0.52274658,3.9208834,3.4643956)"
     id="g4"><path
       style="fill:#997c63"
       inkscape:connector-curvature="0"
       d="m 73.396,44.877 c 0,-5.175 -5.848,-8.376 -10.371,-6.384 -0.594,0.262 -1.142,0.621 -1.638,1.037 -0.529,0.443 -1.06,-0.28 -1.496,-0.558 -1.126,-0.715 -2.437,-1.062 -3.762,-1.108 -2.604,-0.092 -5.129,1.344 -6.477,3.552 -1.476,2.416 -1.041,5.474 -1.042,8.175 -0.002,3.268 10e-4,6.534 0.009,9.803 0,1.146 0.542,2.162 1.705,2.481 1.139,0.314 2.488,-0.263 2.855,-1.427 0.398,-1.264 0.16,-2.894 0.161,-4.202 10e-4,-1.687 0.003,-3.373 0.003,-5.06 0,-1.559 -0.001,-3.114 -0.003,-4.672 -0.002,-1.31 -0.037,-2.582 1.139,-3.425 0.849,-0.608 1.94,-0.677 2.828,-0.107 1.278,0.819 1.294,2.06 1.285,3.428 -0.024,3.3 -0.019,6.6 -0.008,9.897 0.006,2.085 -0.48,6.104 2.84,5.628 1.311,-0.188 1.894,-1.229 1.94,-2.46 0.066,-1.688 0.015,-3.386 0.015,-5.073 0.001,-1.569 0.001,-3.139 0.001,-4.708 0,-1.638 -0.129,-3.338 0.107,-4.962 0.379,-2.598 3.931,-2.755 4.947,-0.525 0.541,1.185 0.215,2.89 0.211,4.158 -0.005,1.694 -0.005,3.391 -0.003,5.084 0.002,1.304 0.005,2.607 0.009,3.911 0.003,1.078 -0.191,2.382 0.312,3.381 0.888,1.767 3.763,1.532 4.326,-0.371 0.317,-1.068 0.11,-2.403 0.11,-3.51 0,-1.426 -0.001,-2.851 -0.001,-4.276 0.003,-2.558 -0.002,-5.14 -0.002,-7.707 0,-0.903 0,2.44 0,0 z"
       id="path6" /><path
       style="fill:#997c63"
       inkscape:connector-curvature="0"
       d="m 43.376,39.718 c -2.277,-2.055 -5.008,-1.886 -7.886,-1.885 -3.246,0 -6.492,0.003 -9.738,0.007 -1.311,10e-4 -3.172,-0.333 -4.349,0.348 -1.059,0.611 -1.354,2.078 -0.799,3.129 0.706,1.337 2.169,1.183 3.461,1.184 1.706,0 3.412,0 5.118,0 1.575,0 3.149,0 4.724,0.002 1.603,0.003 3.394,-0.217 4.973,0.07 2.585,0.469 2.958,4.012 0.418,4.903 -1.253,0.438 -2.989,0.123 -4.304,0.12 -1.688,-0.004 -3.377,-0.003 -5.066,0.003 -2.985,0.011 -5.815,0.025 -7.937,2.458 -1.688,1.935 -1.768,4.08 -1.758,6.528 0.007,1.867 -0.558,5.259 2.255,5.299 5.164,0.073 -0.461,-9.227 4.902,-9.613 2.663,-0.191 5.403,-0.008 8.074,-0.012 2.425,-0.003 5.023,0.243 7.112,-1.218 3.714,-2.593 4.218,-8.243 0.8,-11.323 -1.342,-1.211 0.912,0.821 0,0 z"
       id="path8" /><path
       style="fill:#997c63"
       inkscape:connector-curvature="0"
       d="m 17.021,39.303 c -1.019,-2.368 -4.43,-1.513 -4.591,0.915 -0.218,3.277 -0.011,6.638 -0.014,9.924 -0.002,2.127 0.872,6.824 -2.341,7.094 C 6.706,57.519 7.181,53.433 7.182,51.295 7.183,47.965 7.183,44.635 7.179,41.304 7.178,40.033 7.245,38.846 5.975,38.161 4.829,37.544 3.305,37.953 2.681,39.108 2.069,40.241 2.395,42.026 2.395,43.27 c 0,1.713 0.007,3.427 0.009,5.141 10e-4,1.534 0.006,3.067 10e-4,4.602 -0.006,1.612 -0.005,3.092 0.661,4.597 2.292,5.185 9.745,5.869 12.942,1.122 1.688,-2.507 1.254,-5.802 1.262,-8.667 0.005,-1.823 -0.002,-3.646 -0.012,-5.471 -0.005,-0.911 -0.01,-1.823 -0.014,-2.735 -0.006,-0.84 0.115,-1.766 -0.223,-2.556 -0.322,-0.747 0.13,0.305 0,0 z"
       id="path10" /><path
       style="fill:#997c63"
       inkscape:connector-curvature="0"
       d="m 97.155,55.751 c -1.658,-2.183 -4.211,0.976 -5.729,1.606 -2.396,0.996 -5.253,0.753 -7.432,-0.736 -4.811,-3.291 -4.543,-10.494 0.453,-13.464 2.39,-1.42 5.685,-1.342 8.042,0.097 0.973,0.594 1.706,1.73 2.92,1.794 1.138,0.058 2.276,-0.844 2.283,-2.03 0.008,-1.265 -1.046,-2.067 -1.964,-2.758 -1.129,-0.851 -2.397,-1.52 -3.77,-1.875 -3.023,-0.784 -6.064,-0.709 -8.917,0.671 -7.165,3.467 -9.103,13.231 -3.74,19.161 2.571,2.845 6.5,4.392 10.325,3.95 2.027,-0.232 3.995,-0.896 5.683,-2.057 1.468,-1.011 3.252,-2.507 1.846,-4.359 -0.694,-0.915 0.382,0.503 0,0 z"
       id="path12" /></g></svg>