<?xml version="1.0" encoding="UTF-8" standalone="no"?>
<!-- Generator: Adobe Illustrator 15.0.2, SVG Export Plug-In . SVG Version: 6.00 Build 0)  -->

<svg
   xmlns:dc="http://purl.org/dc/elements/1.1/"
   xmlns:cc="http://creativecommons.org/ns#"
   xmlns:rdf="http://www.w3.org/1999/02/22-rdf-syntax-ns#"
   xmlns:svg="http://www.w3.org/2000/svg"
   xmlns="http://www.w3.org/2000/svg"
   xmlns:xlink="http://www.w3.org/1999/xlink"
   xmlns:sodipodi="http://sodipodi.sourceforge.net/DTD/sodipodi-0.dtd"
   xmlns:inkscape="http://www.inkscape.org/namespaces/inkscape"
   version="1.0"
   id="Layer_1"
   x="0px"
   y="0px"
   width="100"
   height="98.422806"
   viewBox="0 0 99.999996 98.422797"
   enable-background="new 0 0 2481 2073"
   xml:space="preserve"
   inkscape:version="0.48.4 r9939"
   sodipodi:docname="logo.p8.marker.svg"><metadata
     id="metadata15"><rdf:RDF><cc:Work
         rdf:about=""><dc:format>image/svg+xml</dc:format><dc:type
           rdf:resource="http://purl.org/dc/dcmitype/StillImage" /><dc:title></dc:title></cc:Work></rdf:RDF></metadata><defs
     id="defs13"><linearGradient
       id="SVGID_1_"
       gradientUnits="userSpaceOnUse"
       x1="263.8389"
       y1="-344.77591"
       x2="331.28519"
       y2="-344.77591"
       gradientTransform="matrix(1,0,0,-1,-247.5,-270)"><stop
         offset="0.0023"
         style="stop-color:#217939"
         id="stop60" /><stop
         offset="1"
         style="stop-color:#8DC63F"
         id="stop62" /></linearGradient><linearGradient
       inkscape:collect="always"
       xlink:href="#SVGID_1_"
       id="linearGradient4139"
       gradientUnits="userSpaceOnUse"
       gradientTransform="matrix(1,0,0,-1,-247.5,-270)"
       x1="263.8389"
       y1="-344.77591"
       x2="331.28519"
       y2="-344.77591" /><linearGradient
       id="SVGID_1_-1"
       gradientUnits="userSpaceOnUse"
       x1="51.847698"
       y1="65.255898"
       x2="77.012001"
       y2="41.551998"><stop
         offset="0"
         style="stop-color:#F19824"
         id="stop6" /><stop
         offset="0.1612"
         style="stop-color:#EE6E25"
         id="stop8" /><stop
         offset="0.3395"
         style="stop-color:#EB4727"
         id="stop10" /><stop
         offset="0.5157"
         style="stop-color:#E82828"
         id="stop12" /><stop
         offset="0.687"
         style="stop-color:#E61228"
         id="stop14" /><stop
         offset="0.851"
         style="stop-color:#E50429"
         id="stop16" /><stop
         offset="1"
         style="stop-color:#E50029"
         id="stop18" /></linearGradient><linearGradient
       id="SVGID_2_"
       gradientUnits="userSpaceOnUse"
       x1="23.0205"
       y1="56.362301"
       x2="6.3035002"
       y2="32.675301"><stop
         offset="0"
         style="stop-color:#F19824"
         id="stop25" /><stop
         offset="0.0189"
         style="stop-color:#F08F24"
         id="stop27" /><stop
         offset="0.1136"
         style="stop-color:#ED6926"
         id="stop29" /><stop
         offset="0.2157"
         style="stop-color:#EB4927"
         id="stop31" /><stop
         offset="0.325"
         style="stop-color:#E92E27"
         id="stop33" /><stop
         offset="0.4441"
         style="stop-color:#E71A28"
         id="stop35" /><stop
         offset="0.5781"
         style="stop-color:#E60B29"
         id="stop37" /><stop
         offset="0.7391"
         style="stop-color:#E50329"
         id="stop39" /><stop
         offset="1"
         style="stop-color:#E50029"
         id="stop41" /></linearGradient></defs><sodipodi:namedview
     pagecolor="#ffffff"
     bordercolor="#666666"
     borderopacity="1"
     objecttolerance="10"
     gridtolerance="10"
     guidetolerance="10"
     inkscape:pageopacity="0"
     inkscape:pageshadow="2"
     inkscape:window-width="1002"
     inkscape:window-height="902"
     id="namedview11"
     showgrid="false"
     fit-margin-top="0"
     fit-margin-left="0"
     fit-margin-right="0"
     fit-margin-bottom="0"
     inkscape:zoom="1.8215147"
     inkscape:cx="4.9287865"
     inkscape:cy="36.506737"
     inkscape:window-x="163"
     inkscape:window-y="119"
     inkscape:window-maximized="0"
     inkscape:current-layer="Layer_1" /><path
     style="opacity:0.36213995;fill:#000000;fill-opacity:0.57534246;fill-rule:evenodd;stroke:none"
     inkscape:connector-curvature="0"
     id="path7"
     d="m 30.209036,98.422796 c 5.626411,-5.553785 9.034218,-10.843153 11.506341,-16.105002 1.833744,-3.903077 1.567241,-6.021578 4.572524,-11.674019 6.681738,-11.369765 9.706537,-13.496243 21.51007,-17.373402 6.864565,-1.582623 14.718733,-1.713817 21.487151,0.716469 5.534065,1.987211 8.750351,5.213924 9.994611,8.218802 1.016807,2.455504 0.916107,4.971064 -0.04462,7.494512 -1.002761,2.63388 -2.974216,5.333232 -6.887658,8.151162 -2.005011,1.443608 -4.228229,2.588461 -6.259488,3.440189 -2.055894,0.862004 -4.129904,1.39643 -6.213154,2.036432 -4.066587,1.249335 -8.226449,2.166641 -12.393591,3.082183 -12.412046,2.726586 -24.678961,5.712499 -37.272126,12.012674 z"
     clip-rule="evenodd"
     sodipodi:nodetypes="cscccssccsccc" /><path
     style="fill:#f5f5f5;fill-opacity:0.78431374;stroke:#e86c52;stroke-width:2.93298769000000004;stroke-linecap:round;stroke-linejoin:miter;stroke-miterlimit:10;stroke-opacity:1;stroke-dasharray:none"
     inkscape:connector-curvature="0"
     id="path5"
     d="M 30.134416,91.679377 C 28.016291,81.541793 24.281731,73.10552 19.758352,65.286719 16.403154,59.486935 12.516319,54.133673 8.9199986,48.509538 7.719467,46.63206 6.6834123,44.648623 5.5298244,42.700104 3.2231948,38.804023 1.3530149,34.286734 1.4718619,28.427076 1.5879664,22.70181 3.2863003,18.10919 5.7353248,14.354231 9.7632348,8.1781947 16.510136,3.1145772 25.562847,1.7838334 c 7.401689,-1.08800819 14.341307,0.7501202 19.262511,3.5558198 4.021402,2.2926179 7.135594,5.3551178 9.502761,8.9644128 2.470769,3.767167 4.172163,8.217672 4.314883,14.022741 0.07305,2.974145 -0.426462,5.728351 -1.130155,8.012944 -0.712153,2.312443 -1.857497,4.245431 -2.876506,6.310253 -1.989168,4.030474 -4.48305,7.723246 -6.985838,11.418397 -7.45475,11.006267 -14.451733,22.230688 -17.516087,37.610976 z"
     stroke-miterlimit="10"
     clip-rule="evenodd" /><g
     id="g3037"
     transform="translate(0.28300516,-1.9999999)"><path
       id="path9"
       d="m 30.247676,22.213967 c -5.14e-4,0.03312 2.42e-4,0.06493 0,0.09836 l 0.01637,0.03279 c -0.119139,0.08928 -0.114066,0.205437 -0.114759,0.327883 -0.0042,0.694559 -0.0021,1.403883 0,2.098449 0.0021,0.625784 0.33358,0.991524 0.95086,1.082012 0.233982,0.03436 0.303142,0.08785 0.311488,0.327882 0.0071,0.201297 0.01285,0.422544 0,0.622978 -0.05037,0.787486 0.72131,1.367227 1.344319,1.344319 0.242633,-0.009 0.494929,-0.008 0.737736,0 0.253403,0.0081 0.320034,0.07239 0.327882,0.327882 0.0085,0.263657 -0.0083,0.539485 0,0.803312 0.0083,0.264866 0.04569,0.528751 0.163942,0.770524 0.384708,0.786263 1.051013,1.161995 1.901719,1.180378 0.937199,0.02043 1.865846,-0.0035 2.803396,0 0.308116,0.0014 0.389923,0.08743 0.393459,0.393459 0.0042,0.333301 1.74e-4,0.650347 0,0.983647 -3.46e-4,0.50404 -0.02839,0.541007 -0.524612,0.541007 -2.90313,3.46e-4 -5.802147,-1.77e-4 -8.705283,0 -0.118106,0 -0.24257,-0.0056 -0.360671,0 -0.04286,0.0021 -0.09349,0.0027 -0.131153,0.01639 0.0047,-0.158463 0,-0.317002 0,-0.47543 l 0,-9.639747 c 0,-0.152673 0.0071,-0.306541 0,-0.459036 -0.0042,-0.08996 -0.0083,-0.17733 -0.08197,-0.245912 -0.02497,-0.0064 -0.04843,-0.01831 -0.06558,-0.01639 l 0,21.886163 22.115681,0 c 0.02534,-0.04169 0.03278,-0.101877 0.03278,-0.180335 -0.0037,-7.155963 -0.01569,-14.287727 -0.01637,-21.443521 0,-0.0811 0.01737,-0.176976 -0.04916,-0.245913 -0.01243,0.01188 -0.0089,0.01936 -0.01637,0.03278 -7.8e-5,-0.01499 5.3e-5,-0.0178 0,-0.03278 l 0,-0.03279 c -5.24e-4,-0.03333 5.25e-4,-0.06496 0,-0.09836 l -0.770524,0 c -5.24e-4,0.03313 4.1e-4,0.06522 0,0.09836 l 0.01637,0.03279 c -0.100846,0.06788 -0.109812,0.158095 -0.114759,0.262307 -0.0063,0.134953 -0.03473,0.262651 -0.19673,0.262305 -0.159818,-5.16e-4 -0.204289,-0.127698 -0.213124,-0.262305 -0.0071,-0.103866 -0.01369,-0.194713 -0.114759,-0.262307 l 0.01637,-0.03279 c -1.21e-4,-0.03281 2.05e-4,-0.06555 0,-0.09836 l -0.721342,0 c -4.7e-5,0.03282 7.8e-5,0.06554 0,0.09836 -0.01265,0.0029 -0.03772,0.02643 -0.04916,0.03279 -0.158763,0.145723 -0.07031,0.334879 -0.08197,0.508218 -0.02466,0.36456 0.08995,0.632377 0.459036,0.754131 0.157351,0.0519 0.245213,0.163232 0.245912,0.327882 5.24e-4,0.22892 0.01096,0.459987 0,0.688553 -0.01133,0.237256 -0.119423,0.335227 -0.360671,0.344277 -0.387836,0.01442 -0.776149,0.01442 -1.163983,0 -0.23447,-0.0087 -0.34434,-0.109106 -0.36067,-0.344277 -0.01459,-0.207553 0.0092,-0.415424 0,-0.622977 -0.0094,-0.207376 0.06663,-0.34892 0.245911,-0.459035 0.203208,-0.124701 0.334004,-0.32484 0.377064,-0.557401 0.04029,-0.217451 0.112938,-0.439807 -0.06558,-0.639371 l 0.01636,-0.03279 c -1.1e-4,-0.03275 1.41e-4,-0.06561 0,-0.09836 l -0.770523,0 c -1.21e-4,0.03276 1.31e-4,0.06561 0,0.09836 l 0,0.03279 c -0.108426,0.0726 -0.07363,0.169979 -0.08197,0.2787 -0.0096,0.125748 -0.04459,0.250155 -0.19673,0.245912 -0.142973,-0.0043 -0.173972,-0.129539 -0.180336,-0.245912 -0.0063,-0.109245 -0.0099,-0.203668 -0.114759,-0.2787 -0.01117,-0.0063 -0.03667,-0.02996 -0.04916,-0.03279 -5.04e-4,-0.03421 -2.1e-5,-0.06473 0,-0.09836 l -0.704948,0 c -5.2e-5,0.03303 6.3e-5,0.0653 0,0.09836 -0.01238,0.0021 -0.02182,0.02713 -0.03278,0.03279 -0.08079,0.0608 -0.09819,0.152639 -0.09837,0.245913 -5.25e-4,0.405724 0.11607,0.742158 0.475429,0.967253 0.158927,0.09952 0.214535,0.227831 0.213124,0.409853 -0.0021,0.277551 0.0065,0.542163 0.01637,0.819707 0.01836,0.520881 0.309694,0.880612 0.803312,1.016436 0.454067,0.124878 0.446172,0.139966 0.442642,0.622977 -1.79e-4,0.02078 3.46e-4,0.0448 0,0.06558 -0.0079,0.343717 -0.120352,0.466653 -0.459036,0.491824 -0.05522,0.0035 -0.10851,0 -0.163942,0 -1.027347,3.47e-4 -2.071147,3.47e-4 -3.09849,0 -0.104209,0 -0.192795,-0.0086 -0.295094,-0.03279 -0.20547,-0.049 -0.291837,-0.132383 -0.311489,-0.344277 -0.01364,-0.145199 -0.0056,-0.297089 0,-0.442641 0.0087,-0.225965 0.0784,-0.289925 0.311489,-0.31149 0.607023,-0.05593 0.956855,-0.456336 0.967253,-1.065618 0.0074,-0.437165 0.01621,-0.858493 0,-1.295136 -0.01144,-0.309502 0.02948,-0.582184 0.327883,-0.75413 0.0637,-0.03684 0.09134,-0.114369 0.131153,-0.180336 0.04475,-0.07434 0.09532,-0.133058 0.03278,-0.213123 l 0,-0.03279 c 0.0042,-0.03415 0.0094,-0.06444 0.01637,-0.09836 l -0.803313,0 c -0.03421,0.04296 -0.07843,0.07528 -0.147547,0.09836 -0.06739,-6.82e-4 -0.129348,3.46e-4 -0.196729,0 -0.06984,-0.02635 -0.116632,-0.05318 -0.147547,-0.09836 l -0.737737,0 c 0.0031,0.03309 -0.0037,0.06541 0,0.09836 l 0,0.03279 c -0.0889,0.09362 -0.05346,0.167755 0.01637,0.245912 0.106465,0.118798 0.219634,0.246947 0.360671,0.327883 0.125906,0.07243 0.195313,0.184592 0.196729,0.327882 0.0037,0.458179 0.01322,0.919097 0,1.377107 -0.0073,0.248017 -0.130088,0.336145 -0.377065,0.344276 -0.381587,0.01252 -0.766007,0.01231 -1.147589,0 -0.252884,-0.0082 -0.355015,-0.09469 -0.360671,-0.344276 -0.0099,-0.45818 -1.79e-4,-0.918928 0,-1.377107 0,-0.169514 0.07878,-0.298908 0.229518,-0.377065 0.132517,-0.06858 0.241904,-0.159902 0.327883,-0.2787 0.05282,-0.07313 0.08337,-0.157857 0,-0.245912 l 0.01636,-0.03279 c 0.0042,-0.03422 0.01296,-0.06442 0.01637,-0.09836 l -0.786918,0 c -0.03583,0.04276 -0.07319,0.07435 -0.147548,0.09836 l -0.196729,0 c -0.05732,-0.02914 -0.09931,-0.05975 -0.131153,-0.09836 l -0.770524,0 c 0.0047,0.03457 0.0099,0.06354 0.01637,0.09836 l 0,0.03279 c -0.06583,0.09032 -0.03672,0.168625 0.01637,0.245912 0.05543,0.08076 0.114575,0.16257 0.19673,0.213124 0.202521,0.124709 0.265836,0.298994 0.262306,0.524612 -0.0071,0.493263 -5.24e-4,0.99878 0,1.491866 2.1e-4,0.13356 0.01836,0.251316 0.06558,0.377064 0.151099,0.401036 0.460206,0.594606 0.868889,0.655765 0.26622,0.03973 0.306536,0.08851 0.311489,0.360671 0.0042,0.21519 -0.0021,0.4404 0,0.655766 5.24e-4,0.09744 0.02246,0.200258 0.04916,0.295094 0.158396,0.559435 0.689603,0.964912 1.278743,0.983648 0.319399,0.0099 0.631627,-0.01131 0.950859,0 0.22179,0.0078 0.298121,0.0897 0.311488,0.311488 0.0078,0.124879 5.14e-4,0.252011 0,0.377066 -0.0026,0.6534 -0.167691,0.81936 -0.819706,0.819706 -2.681162,6.81e-4 -5.368178,3.46e-4 -8.049518,0 -0.111155,0 -0.218465,0.0085 -0.327883,-0.01639 -0.261398,-0.0589 -0.379388,-0.207954 -0.393458,-0.47543 -0.01133,-0.215019 -0.0037,-0.423997 0,-0.639371 0.0047,-0.294045 0.07763,-0.372822 0.377064,-0.377064 0.333476,-0.0043 0.683134,0.0091 1.016436,0 0.607197,-0.01647 1.12309,-0.503541 1.22956,-1.098407 0.05317,-0.297347 0.03478,-0.587589 0.04916,-0.885283 0.01038,-0.215897 0.06749,-0.286672 0.2787,-0.311489 0.636381,-0.07468 0.981303,-0.421244 1.000042,-1.065618 0.02094,-0.72895 0.0047,-1.451116 0,-2.180419 -5.25e-4,-0.0983 -0.0086,-0.196127 -0.09836,-0.262306 -0.01133,-0.0056 -0.02015,-0.03067 -0.03279,-0.03279 -4.67e-4,-0.03397 -3.83e-4,-0.06563 0,-0.09837 l -0.704948,0 c 0.0016,0.0335 5.25e-4,0.06317 0,0.09837 -0.0064,0.0035 -0.02676,-0.0035 -0.03279,0 -0.01254,0.0021 -0.0053,0.02713 -0.01637,0.03279 -0.116186,0.09066 -0.114056,0.205436 -0.114759,0.327882 -0.0047,0.63065 0.0072,1.271071 0,1.901719 -0.0037,0.300643 -0.09299,0.385612 -0.393459,0.393459 -0.304816,0.0085 -0.596856,0.0021 -0.901677,0 -0.425009,-0.0029 -0.539595,-0.08755 -0.541006,-0.508218 -0.0026,-0.603032 0.0047,-1.200492 0,-1.803354 -5.25e-4,-0.116019 0.01422,-0.22899 -0.09837,-0.311488 l 0.01637,-0.03279 c -5.25e-4,-0.03416 0.0011,-0.06527 0,-0.09837 l -0.770524,0 c -0.0031,0.03337 0.0011,0.06338 0,0.09837 l 0.01637,0.03279 c -0.120729,0.08858 -0.11424,0.205613 -0.114759,0.327882 -0.0037,0.722354 -0.0047,1.458236 0,2.180419 0.0037,0.505248 0.350893,0.887943 0.852495,0.983649 0.401097,0.07677 0.393805,0.09572 0.393459,0.508217 0,0.04186 0.0016,0.08944 0,0.131154 -0.01023,0.36977 -0.123441,0.504682 -0.491824,0.508217 -1.111061,0.01082 -2.216953,0.01146 -3.328008,0 -0.3795,-0.0043 -0.503271,-0.134276 -0.508219,-0.508217 -5.25e-4,-0.0625 -5.25e-4,-0.134227 0,-0.19673 0.0026,-0.349627 0.03421,-0.386441 0.377066,-0.426248 0.456439,-0.05296 0.877786,-0.45385 0.885283,-0.885283 0.01358,-0.79165 0.0047,-1.569097 0,-2.360754 -5.25e-4,-0.0983 -0.02251,-0.198248 -0.114759,-0.262306 l 0,-0.03279 c -2.58e-4,-0.034 -3.1e-5,-0.06477 0,-0.09837 l -0.704948,0 c 3.7e-5,0.0336 8.4e-5,0.06435 0,0.09837 -0.01254,0.0021 -0.03751,0.02713 -0.04916,0.03279 -0.116175,0.09083 -0.08126,0.205436 -0.08197,0.327882 -0.0047,0.630826 -0.02581,1.270901 -0.03279,1.901719 -0.0026,0.272686 -0.07892,0.381298 -0.311488,0.393459 -0.394613,0.02078 -0.785937,0.02051 -1.180378,0 -0.205994,-0.01061 -0.286674,-0.108799 -0.311488,-0.311488 -0.0106,-0.08268 -0.03263,-0.162714 -0.03279,-0.245912 -5.24e-4,-0.582188 0.0047,-1.171806 0,-1.754172 -5.24e-4,-0.115672 0.03195,-0.229506 -0.08197,-0.311488 l 0,-0.03279 c -3.56e-4,-0.03377 5.25e-4,-0.06502 0,-0.09837 l -0.770524,0 z m 20.984486,0.983647 c -0.0072,0.245727 -0.01631,0.491911 -0.01637,0.737737 -0.0016,6.534873 1.74e-4,13.0889 0,19.623772 0,0.584812 -0.04045,0.590189 -0.622976,0.590189 -5.757288,1.78e-4 -11.522303,0 -17.279413,0 -0.201472,0 -0.38889,0.0072 -0.590188,0.01639 -5.25e-4,-2.56123 -5.25e-4,-5.127611 0,-7.688847 1.72e-4,-0.457133 0.258403,-0.776554 0.704947,-0.885283 0.162047,-0.03938 0.323518,-0.03293 0.491824,-0.03278 2.528142,0.0021 5.062335,1.76e-4 7.590483,0 0.302706,-1.77e-4 0.295094,-0.01361 0.295094,-0.311489 3.46e-4,-1.257127 -1.78e-4,-2.49713 0,-3.754256 0,-0.348587 0.01889,-0.360671 0.377065,-0.360671 0.889086,0 1.750363,-0.0029 2.639455,0 0.160657,4.95e-4 0.33464,-0.01758 0.491824,-0.04918 0.871889,-0.175425 1.459591,-0.90065 1.459078,-1.78696 0,-0.34042 0.0106,-0.676361 0,-1.016435 -0.0056,-0.183026 0.06649,-0.249447 0.245911,-0.245912 0.37481,0.0083 0.756386,0.01075 1.131195,0 0.636548,-0.0186 1.155494,-0.545388 1.163983,-1.180378 0.0037,-0.270777 -5.25e-4,-0.54876 0,-0.819706 5.24e-4,-0.273825 0.0011,-0.292974 0.2787,-0.295095 0.02764,-1.76e-4 0.05425,3.47e-4 0.08197,0 0.539984,-0.0071 0.912411,-0.364818 0.918071,-0.901676 0.0037,-0.326352 0.01338,-0.674209 0,-1.000042 -0.008,-0.197648 0.06052,-0.287855 0.262307,-0.344277 0.230367,-0.06427 0.330185,-0.140967 0.377064,-0.295095 z"
       style="fill:#8a8d90;fill-opacity:1;fill-rule:evenodd"
       inkscape:connector-curvature="0" /><path
       id="path9-7"
       d="m 27.165579,14.738244 c -0.319042,0.08233 -0.353599,0.125212 -0.36067,0.459036 -5.25e-4,0.02779 0,0.03779 0,0.06558 -5.25e-4,1.667368 0.0073,3.349235 0,5.016604 -0.0021,0.425527 0.1506,0.767302 0.508218,1.000042 0.140522,0.09136 0.212426,0.212069 0.213123,0.377064 0.0042,0.986534 0.0091,1.964418 0,2.950944 -0.0021,0.254968 -0.105704,0.353176 -0.360671,0.36067 -0.374982,0.01131 -0.75638,0.01265 -1.131194,0 -0.26695,-0.0091 -0.390632,-0.10681 -0.39346,-0.377064 -0.0099,-0.972457 -0.0063,-1.945523 0,-2.918156 5.25e-4,-0.15649 0.05917,-0.294567 0.19673,-0.377065 0.396172,-0.237602 0.560228,-0.573604 0.5574,-1.03283 -0.0099,-1.625511 5.25e-4,-3.259762 0,-4.88545 0,-0.09708 -0.01637,-0.198703 -0.03279,-0.295094 -0.02255,-0.130791 -0.06873,-0.235642 -0.19673,-0.278701 -0.447242,-0.150239 -0.717805,0.04274 -0.721341,0.508218 -5.25e-4,0.125048 0,0.25201 0,0.377065 0,1.46572 5.24e-4,2.927731 0,4.393626 0,0.09708 0.0062,0.183172 -0.01637,0.278701 -0.02466,0.102295 -0.09501,0.215245 -0.213124,0.213124 -0.117235,-0.0021 -0.139756,-0.111345 -0.163941,-0.213124 -0.02282,-0.09553 -0.03279,-0.181609 -0.03279,-0.278701 -5.19e-4,-1.500632 3.47e-4,-3.007751 0,-4.508385 0,-0.110984 0.0021,-0.216721 0,-0.327883 -0.0026,-0.13894 -0.08071,-0.241702 -0.196729,-0.311488 -0.182544,-0.109754 -0.365996,-0.09657 -0.5574,0 -0.182198,0.09205 -0.147369,0.234883 -0.147548,0.39346 -0.0026,1.701928 -0.01364,3.429433 -0.01637,5.131362 -5.15e-4,0.309332 0.09539,0.548356 0.344276,0.721341 0.223548,0.155105 0.296506,0.369572 0.295094,0.622977 -0.0063,1.021264 -0.0071,2.028038 0,3.049308 0.0026,0.460089 0.279487,0.861697 0.721342,0.934466 0.552312,0.09119 0.506802,0.203565 0.508218,0.672159 0,0.01393 1.73e-4,0.01893 0,0.03279 -0.0083,0.347718 -0.11393,0.473309 -0.459036,0.475429 -1.125477,0.0078 -2.235498,0.0029 -3.360796,0 -0.03494,-6.9e-5 -0.08018,0.0043 -0.114759,0 -0.257396,-0.03281 -0.374511,-0.153669 -0.393459,-0.409853 -0.0085,-0.117758 -0.0037,-0.242735 0,-0.360671 0.0079,-0.256007 0.06467,-0.294076 0.311488,-0.344276 0.207212,-0.042 0.407404,-0.110782 0.573795,-0.245912 0.267998,-0.217452 0.377584,-0.528298 0.377064,-0.868889 -5.24e-4,-0.889089 -5.18e-4,-1.75019 0,-2.639455 1.74e-4,-0.172993 0.019,-0.342425 0.180336,-0.442642 0.422229,-0.261741 0.526737,-0.66364 0.524612,-1.131195 -0.0071,-1.507583 0,-3.017195 0,-4.524779 0,-0.145892 0.0021,-0.296744 0,-0.442641 -5.25e-4,-0.0625 -0.0042,-0.118823 -0.01637,-0.180336 -0.04962,-0.253752 -0.24789,-0.383225 -0.557401,-0.360671 -0.262956,0.01909 -0.366106,0.155647 -0.377064,0.426248 -0.0047,0.118105 -0.01637,0.226171 -0.01637,0.344276 -1.67e-4,1.549095 5.25e-4,3.10667 0,4.655933 -1.41e-4,0.104034 -0.0042,0.193316 -0.03279,0.295094 -0.02602,0.09414 -0.05782,0.178215 -0.163942,0.180336 -0.106643,0.0021 -0.15241,-0.08655 -0.180335,-0.180336 -0.03027,-0.101602 -0.04916,-0.19106 -0.04916,-0.295094 -5.25e-4,-1.514526 5.18e-4,-3.026647 0,-4.541174 0,-0.111161 0.01285,-0.217074 0,-0.327883 -0.01752,-0.151632 -0.105925,-0.267075 -0.245912,-0.327882 -0.372034,-0.161871 -0.702829,0.07582 -0.704948,0.524613 -0.0071,1.618737 -0.0037,3.250488 0,4.869055 5.25e-4,0.396695 0.117565,0.732437 0.459035,0.967255 0.12937,0.08892 0.212421,0.220574 0.213124,0.377064 0.0063,0.882146 0.01023,1.740747 0,2.623061 -0.0026,0.243337 -0.118557,0.35254 -0.360671,0.360671 -0.381933,0.01301 -0.749429,0.01357 -1.131195,0 -0.259305,-0.0092 -0.373529,-0.119319 -0.377065,-0.377065 -0.01133,-0.861301 -0.01993,-1.728794 -0.01637,-2.590273 5.25e-4,-0.164303 0.07123,-0.289179 0.213123,-0.377065 0.376546,-0.232907 0.50963,-0.589522 0.508219,-1.016435 -0.0047,-1.500634 -0.0159,-3.007753 -0.01637,-4.508386 0,-0.09032 0.0042,-0.171996 0,-0.262306 -0.0063,-0.132352 -0.07372,-0.22242 -0.180335,-0.2787 -0.326875,-0.172994 -0.810967,-0.05216 -0.770524,0.409853 0.0096,0.110116 0,0.21672 0,0.327883 -1.79e-4,1.375754 5.24e-4,2.772136 0,4.147714 0,0.104042 0.01201,0.193316 -0.01637,0.295094 -0.02639,0.09414 -0.073,0.164641 -0.180336,0.163942 -0.106286,-6.83e-4 -0.169082,-0.07051 -0.196729,-0.163942 -0.02985,-0.101426 -0.01637,-0.19106 -0.01637,-0.295094 -5.24e-4,-1.285268 5.25e-4,-2.583747 0,-3.869015 -1.41e-4,-0.111161 0.0094,-0.233292 0,-0.344277 -0.01144,-0.136685 -0.08963,-0.216903 -0.213123,-0.278699 -0.34424,-0.172123 -0.702829,0.04447 -0.704948,0.426247 -0.0078,1.46572 0.0083,2.927908 0,4.393626 -0.0021,0.336773 0.106465,0.588857 0.377065,0.770524 0.233285,0.156492 0.297219,0.360544 0.295094,0.622978 -0.0078,0.896038 -0.0063,1.792429 0,2.688637 0.0026,0.44845 0.224272,0.738767 0.639372,0.901677 0.110813,0.04349 0.211686,0.07878 0.327883,0.09836 0.246955,0.04186 0.304201,0.0914 0.311488,0.344276 0.0071,0.23621 -1.74e-4,0.468738 0,0.704948 0,0.149024 0.04722,0.294242 0.114759,0.426248 0.254793,0.498297 0.649386,0.793829 1.213165,0.819706 0.326005,0.01506 0.640903,-0.01025 0.967254,0 0.234302,0.0075 0.318125,0.08327 0.327882,0.311489 0.01002,0.23604 0.01375,0.46926 0,0.704947 -0.01721,0.296655 -0.163772,0.428491 -0.459035,0.459035 -0.07625,0.0085 -0.136709,0.03279 -0.213124,0.03279 -2.702356,3.46e-4 -5.412565,3.46e-4 -8.115094,0 -0.104214,0 -0.208151,-0.01498 -0.311488,-0.03279 -0.323748,-0.05522 -0.475,-0.198255 -0.491824,-0.524611 -0.0098,-0.194177 -0.0042,-0.379442 0,-0.573795 0.0063,-0.290051 0.11372,-0.372116 0.409853,-0.377065 0.28467,-0.0049 0.55143,0.01061 0.8361,0 0.694733,-0.02538 1.212253,-0.498318 1.327925,-1.180378 0.04338,-0.256013 0.0065,-0.514163 0.01637,-0.770524 0.0099,-0.254097 0.06536,-0.294925 0.311488,-0.344276 0.207553,-0.0415 0.404283,-0.114953 0.573795,-0.245912 0.285709,-0.220753 0.372118,-0.546255 0.377065,-0.885283 0.0071,-0.486313 -0.0016,-0.972765 0,-1.459077 3.47e-4,-0.166743 0.03388,-0.325339 0.180336,-0.426248 0.350844,-0.241767 0.444766,-0.573406 0.442641,-0.983648 -0.0078,-1.646524 5.25e-4,-3.288278 0,-4.934633 0,-0.09726 0.0071,-0.214227 0,-0.311488 -0.0077,-0.10682 -0.07326,-0.166954 -0.163942,-0.213124 -0.181504,-0.09255 -0.367034,-0.103275 -0.5574,-0.01639 -0.185492,0.08458 -0.198146,0.237907 -0.196729,0.409853 5.25e-4,0.118105 0,0.242566 0,0.360671 0,1.493512 3.51e-4,2.981907 0,4.475597 0,0.09708 0.0011,0.198873 -0.01637,0.295095 -0.02219,0.124531 -0.06722,0.24379 -0.213124,0.245912 -0.147106,0.0021 -0.207815,-0.120687 -0.229518,-0.245912 -0.01673,-0.09622 0,-0.197833 0,-0.295095 -3.47e-4,-1.410146 5.19e-4,-2.81937 0,-4.229685 0,-0.111154 0.0056,-0.233115 0,-0.344277 -0.0056,-0.104905 -0.05949,-0.185671 -0.147547,-0.245912 -0.187056,-0.128011 -0.360093,-0.09876 -0.5574,-0.01639 -0.184087,0.07677 -0.196552,0.227418 -0.19673,0.39346 -0.0021,1.611787 -5.25e-4,3.240874 0,4.852662 1.78e-4,0.366475 0.157,0.612439 0.459036,0.803313 0.155967,0.09865 0.245565,0.242486 0.245911,0.426247 0.0016,0.437682 -0.0074,0.873848 -0.01636,1.31153 -0.0056,0.282755 -0.123966,0.385612 -0.409853,0.393459 -0.361086,0.0099 -0.720918,0.01096 -1.082014,0 -0.282062,-0.0085 -0.371409,-0.106186 -0.377064,-0.393459 -0.0085,-0.430562 -5.25e-4,-0.864404 0,-1.295136 3.46e-4,-0.181852 0.07234,-0.311722 0.229518,-0.409853 0.332431,-0.207731 0.495359,-0.496293 0.491823,-0.901678 -0.01259,-1.354564 5.25e-4,-2.711003 0,-4.065744 -5.24e-4,-0.08337 -0.02932,-0.162721 -0.03279,-0.245911 -0.0056,-0.149547 -0.07324,-0.250541 -0.19673,-0.311489 -0.348935,-0.172469 -0.694203,0.02356 -0.704947,0.409853 -0.0021,0.104212 0,0.207277 0,0.311488 -1.73e-4,1.19495 3.46e-4,2.395373 0,3.590315 0,0.09015 0.01422,0.172858 0,0.262306 -0.01836,0.116019 -0.05868,0.24167 -0.19673,0.245913 -0.15337,0.0043 -0.179196,-0.122251 -0.196729,-0.245913 -0.0107,-0.07572 -0.03279,-0.169494 -0.03279,-0.245912 -3.56e-4,-0.715579 5.25e-4,-1.432052 0,-2.147631 -5.24e-4,-0.389052 0.0063,-0.758537 0,-1.147589 -0.0016,-0.103165 0.01186,-0.224473 -0.06558,-0.311489 -0.138078,-0.155295 -0.359112,-0.205322 -0.573795,-0.131152 -0.211718,0.07312 -0.309369,0.182917 -0.311488,0.426247 -0.0094,1.229509 -0.01112,2.45917 0,3.68868 0.0026,0.298564 0.123488,0.553213 0.377065,0.721341 0.225825,0.14954 0.300042,0.34953 0.295094,0.606583 -0.0098,0.513753 -0.0021,1.026948 0,1.541048 5.25e-4,0.235001 0.09557,0.42206 0.262307,0.590189 0.191047,0.192613 0.426986,0.304682 0.688552,0.344276 0.248887,0.03769 0.302298,0.09226 0.311489,0.344277 0.0047,0.118105 0.0063,0.242743 0,0.360671 -0.01443,0.263481 -0.118798,0.375137 -0.377065,0.409853 -0.08303,0.01117 -0.17894,0 -0.262306,0 -1.035159,5.24e-4 -2.063335,5.24e-4 -3.098491,0 -0.104211,0 -0.209017,0.0085 -0.311489,-0.01639 -0.158923,-0.03819 -0.269216,-0.116484 -0.295095,-0.278701 -0.01202,-0.0759 -6.81e-4,-0.169664 0,-0.245912 0.0043,-0.379323 -0.07476,-0.53058 0.442642,-0.622977 0.401737,-0.07173 0.788351,-0.437521 0.75413,-0.967253 -0.0164,-0.255837 0.01195,-0.513995 0,-0.770525 -0.01202,-0.254967 0.08744,-0.421931 0.311489,-0.5574 0.25098,-0.151803 0.391338,-0.405692 0.393458,-0.704948 0.01082,-1.299154 0.0035,-2.586425 0,-3.885409 -6.81e-4,-0.190188 -0.09053,-0.303188 -0.262305,-0.360671 -0.362997,-0.121407 -0.637251,0.06593 -0.639372,0.442642 -0.0056,1.097511 6.83e-4,2.197533 0,3.29522 0,0.09032 0.01025,0.172512 0,0.262306 -0.01477,0.129736 -0.05383,0.275165 -0.213123,0.278701 -0.164841,0.0043 -0.199549,-0.132387 -0.213124,-0.262307 -0.0078,-0.07607 0,-0.169664 0,-0.245912 -3.46e-4,-0.791997 5.24e-4,-1.568758 0,-2.360755 0,-0.09727 0.0076,-0.181608 0,-0.278699 -0.01478,-0.188619 -0.113765,-0.323048 -0.295094,-0.377066 -0.380885,-0.113247 -0.636543,0.07265 -0.639371,0.47543 -0.0071,0.916875 0.01251,1.853726 0,2.770608 -0.0056,0.423789 0.110971,0.75602 0.459036,1.000042 0.116039,0.08146 0.19178,0.186848 0.196729,0.327883 0.0086,0.249926 0.01647,0.50472 0,0.754129 -0.01428,0.21589 -0.111816,0.316783 -0.327882,0.327883 -0.402423,0.02072 -0.8107373,0.01647 -1.2131659,0 -0.2184983,-0.0089 -0.3267423,-0.109915 -0.3442768,-0.327883 -0.014917,-0.187062 0.010955,-0.370343 0,-0.5574 -0.015981,-0.266781 0.079244,-0.454235 0.3442768,-0.5574 0.2240484,-0.08719 0.330003,-0.265643 0.3278826,-0.524612 -0.00706,-0.80572 0.00206,-1.60404 0,-2.409937 -1.413e-4,-0.0695 -0.023028,-0.160369 -0.032785,-0.229518 -0.010606,-0.07468 -0.035262,-0.112479 -0.098365,-0.147548 -0.1867097,-0.10402 -0.3737144,-0.115945 -0.5737947,-0.01639 -0.178373,0.08858 -0.1965604,0.232526 -0.1967294,0.409854 -6.823e-4,0.59053 0.00143,1.180042 0,1.770566 -1.422e-4,0.08337 -0.017797,0.163583 -0.032785,0.245911 -0.022062,0.117412 -0.057611,0.216659 -0.1967294,0.213125 -0.1290588,-0.0035 -0.177781,-0.103709 -0.1967294,-0.213125 -0.012019,-0.0688 3.461e-4,-0.127227 0,-0.196729 -0.00143,-0.250103 0.0085,-0.504203 0,-0.75413 C 8.2219368,21.415053 8.1283359,21.302161 7.9027243,21.246729 7.679361,21.191869 7.54082,21.255329 7.4109,21.459852 l 0,1.786961 c 0.1132476,0.144328 0.2717341,0.22165 0.4426415,0.262306 0.1391259,0.03337 0.199558,0.104707 0.1967294,0.245911 -0.00563,0.326528 -0.00724,0.65729 0,0.983648 0.00635,0.282585 0.037891,0.541713 0.2623064,0.754131 0.2233678,0.211392 0.5078045,0.245395 0.7869183,0.245911 0.1849908,5.23e-4 0.2366588,0.06925 0.2295179,0.245912 -0.0099,0.242637 -0.00492,0.478359 0,0.721342 0.016831,0.819098 0.5391827,1.322976 1.3607125,1.327925 0.319578,0.0021 0.631628,0.01039 0.95086,0 0.185012,-0.0063 0.234467,0.06841 0.229517,0.245912 -0.0094,0.340243 -0.0049,0.676191 0,1.016435 0.0035,0.258793 0.04441,0.520176 0.163941,0.75413 0.365777,0.715403 0.992285,1.031336 1.770568,1.049225 0.916529,0.02114 1.820771,0.03215 2.73782,0.03279 0.289124,3.47e-4 0.2787,-0.0072 0.2787,0.2787 5.15e-4,1.25765 -1.73e-4,2.529564 0,3.787044 0,0.352738 0.01532,0.3441 0.377065,0.344277 2.480036,1.77e-4 4.962716,-1.7e-4 7.442935,0 0.111155,0 0.233809,-0.0091 0.344277,0 0.473462,0.0391 0.957223,0.309471 0.95086,1.000042 -0.02172,2.466139 -1.79e-4,4.944002 0,7.410147 0,0.344762 -0.02077,0.343753 0.327882,0.344277 1.000094,9.83e-4 1.998195,3.03e-4 3.000126,0 l 0,-21.918952 0.03279,0 c -0.0108,-0.01677 -0.01637,-0.03389 -0.03279,-0.04919 -0.123636,-0.03175 -0.134327,0.06489 -0.147547,0.147547 -0.01977,0.124008 0,0.235793 0,0.360671 -5.24e-4,3.257974 3.46e-4,6.529145 0,9.787295 0,0.482671 -0.06046,0.508218 -0.541007,0.508218 -2.848256,3.47e-4 -5.693264,1.77e-4 -8.541341,0 -0.08337,0 -0.162714,0.0081 -0.245912,0 -0.162216,-0.01562 -0.25736,-0.09939 -0.262307,-0.262306 -0.01468,-0.458356 -0.01548,-0.902533 0,-1.360713 0.0056,-0.16361 0.100086,-0.247175 0.262307,-0.262306 0.0832,-0.0078 0.179108,-0.03279 0.262306,-0.03279 0.868422,-6.82e-4 1.72185,0.0049 2.590272,0 0.422916,-0.0021 0.84652,-0.08727 1.213166,-0.311489 0.577325,-0.352928 0.924435,-0.819673 0.918071,-1.524654 -0.0021,-0.291791 -0.0079,-0.593669 0,-0.885282 0.0072,-0.26452 0.09493,-0.335934 0.360671,-0.344277 0.263822,-0.0082 0.524654,0.02361 0.786918,0 0.70394,-0.06321 1.329918,-0.588928 1.311531,-1.377107 -0.0042,-0.173686 -0.0021,-0.334532 0,-0.508218 0.0042,-0.318185 0.04926,-0.397108 0.360671,-0.442641 0.525221,-0.07677 0.912636,-0.496 0.901677,-1.082014 -0.01873,-0.999903 -0.02859,-1.999875 -0.03279,-3.000125 -5.25e-4,-0.224048 0.05469,-0.391744 0.245912,-0.524612 0.27442,-0.190705 0.410032,-0.475568 0.409853,-0.803313 -5.24e-4,-1.743615 0.0026,-3.48611 0,-5.229727 -3.46e-4,-0.340075 -0.0047,-0.346596 -0.311488,-0.442641 l -0.311488,0 c -0.304895,0.09587 -0.305834,0.09028 -0.311489,0.409853 -5.25e-4,0.07642 0,0.153094 0,0.229518 -1.68e-4,1.554821 5.24e-4,3.133893 0,4.68872 0,0.104036 0.0093,0.192969 -0.01637,0.295095 -0.02518,0.101432 -0.06395,0.178921 -0.180335,0.180335 -0.11828,6.83e-4 -0.173826,-0.07856 -0.196731,-0.180335 -0.02313,-0.102303 -0.03279,-0.191059 -0.03279,-0.295095 -5.25e-4,-1.617174 0.0042,-3.25188 0,-4.869055 -5.25e-4,-0.341292 -0.02518,-0.378094 -0.344276,-0.459036 l -0.245913,0 z m 2.672243,0 c -0.17245,0.09397 -0.213815,0.249497 -0.213123,0.442642 0.0063,1.73371 0.0047,3.446997 0,5.180544 -5.24e-4,0.377067 0.134316,0.685413 0.47543,0.852495 0.119286,0.05833 0.166768,0.137943 0.163941,0.262306 -0.0073,0.284147 -0.03069,0.551776 -0.03279,0.8361 l 0.03279,0.01639 c -0.01668,0.01252 -0.02077,0.03554 -0.03279,0.04919 l 0.819706,0 c -0.01264,-0.01729 -0.0278,-0.03381 -0.04916,-0.04919 l 0,-0.01639 c -0.0026,-0.270246 -0.0065,-0.51684 -0.01637,-0.786918 -0.0047,-0.143113 0.06314,-0.249975 0.19673,-0.311488 0.36491,-0.168644 0.541357,-0.468199 0.541006,-0.868889 -0.0016,-1.72659 -0.0042,-3.437553 0,-5.16415 5.25e-4,-0.202343 -0.08453,-0.362569 -0.2787,-0.442642 l -0.278701,0 c -0.30577,0.110122 -0.306541,0.120531 -0.311488,0.459036 -5.25e-4,0.0832 0,0.162714 0,0.245912 -1.79e-4,1.548217 5.14e-4,3.091321 0,4.639538 -1.41e-4,0.104041 0.01312,0.209886 -0.01637,0.311488 -0.02482,0.08528 -0.08325,0.141184 -0.180335,0.147547 -0.106989,0.0064 -0.147882,-0.03924 -0.180335,-0.131153 -0.03767,-0.10699 -0.04916,-0.217067 -0.04916,-0.327882 -5.24e-4,-1.631415 0.0026,-3.270252 0,-4.901844 -5.24e-4,-0.339729 0.0116,-0.34642 -0.295094,-0.442642 l -0.295094,0 z m 2.787003,0.08197 c -0.161419,0.03676 -0.287508,0.185553 -0.295095,0.39346 -0.0078,0.215019 0,0.440391 0,0.655765 -5.24e-4,1.472315 0.0047,2.937698 0,4.410021 -0.0016,0.462174 0.16966,0.796 0.622977,0.967253 0.112918,0.0427 0.13257,0.140307 0.131153,0.245912 -0.0037,0.27772 5.25e-4,0.541987 0,0.819706 -0.01248,0.0021 -0.03756,0.01074 -0.04916,0.01639 -0.01794,0.01403 -0.02109,0.03394 -0.03278,0.04919 l 0.836101,0 c -0.01243,-0.01445 -0.0319,-0.03718 -0.04916,-0.04919 l 0,-0.01639 c -0.0021,-0.277719 0.0071,-0.541986 0,-0.819706 -0.0037,-0.131998 0.05618,-0.21443 0.180335,-0.2787 0.316452,-0.16378 0.462572,-0.435282 0.459036,-0.803313 -0.0085,-0.965166 0,-1.920031 0,-2.885366 0,-0.743027 -0.0071,-1.50297 0,-2.245996 0.0021,-0.202342 -0.101712,-0.294863 -0.2787,-0.327882 -0.268344,-0.04999 -0.442468,0.09708 -0.442642,0.377065 -0.0016,1.673795 5.25e-4,3.359378 0,5.032997 -1.78e-4,0.257231 -0.104628,0.364913 -0.311488,0.360671 -0.232393,-0.0049 -0.311316,-0.09198 -0.311489,-0.360671 -5.24e-4,-0.986179 0,-1.964763 0,-2.950943 -1.73e-4,-0.743027 0.0016,-1.486574 0,-2.229602 -5.19e-4,-0.228913 -0.06454,-0.329914 -0.2787,-0.360671 -0.06661,-0.0096 -0.126525,-0.01223 -0.180335,0 z m 2.73782,0.295094 c -0.159362,0.04313 -0.229261,0.168865 -0.229518,0.409854 -0.0016,1.361515 0,2.737195 0,4.098532 0,0.347372 -0.0087,0.685812 0,1.03283 0.008,0.321148 0.06028,0.667042 0.377064,0.819707 0.289896,0.139648 0.388754,0.331362 0.344277,0.622977 -0.01164,0.07503 -0.03,0.136876 -0.03279,0.213123 l 0.03279,0.01639 c -0.0181,0.01329 -0.03651,0.03456 -0.04916,0.04919 l 0.819707,0 c -0.0138,-0.0173 -0.02806,-0.03372 -0.04916,-0.04919 l 0.01637,-0.01639 c -0.0026,-0.159615 -0.0059,-0.299589 -0.01637,-0.459035 -0.0096,-0.145022 0.06695,-0.247925 0.196729,-0.311489 0.275983,-0.1353 0.414003,-0.362827 0.442642,-0.672159 0.0096,-0.103511 0.03278,-0.191407 0.03278,-0.295094 0.0016,-1.597717 1.73e-4,-3.205932 0,-4.80348 0,-0.05543 0.0056,-0.125257 0,-0.180336 -0.01931,-0.180105 -0.117413,-0.247387 -0.295094,-0.262305 -0.316451,-0.02672 -0.442474,0.07562 -0.442642,0.393459 -0.0016,1.340494 0,2.692285 0,4.032955 0,0.340422 0.0037,0.676192 0,1.016436 -0.0026,0.224926 -0.138712,0.326266 -0.360671,0.311489 -0.203392,-0.01358 -0.278522,-0.115779 -0.2787,-0.360671 -5.25e-4,-1.625334 0,-3.260109 0,-4.88545 0,-0.138772 0.0056,-0.271075 0,-0.409853 -0.009,-0.22127 -0.09091,-0.299328 -0.311488,-0.31149 -0.07339,-0.0043 -0.143612,-0.01435 -0.19673,0 z m 2.983731,0.459036 c -0.229271,0.0021 -0.376886,0.113556 -0.377065,0.327883 -0.0021,1.617868 -0.0077,3.251188 0,4.869056 0.0016,0.295786 0.106707,0.582679 0.39346,0.704948 0.303068,0.129227 0.344156,0.348205 0.311488,0.622977 -0.0092,0.07556 0.0016,0.136876 0,0.213123 -0.0064,0.0035 -0.01038,-0.0035 -0.01637,0 -0.01254,0.0021 -0.02151,0.01074 -0.03278,0.01639 -0.01631,0.01272 -0.02098,0.03544 -0.03279,0.04919 l 0.868889,0 c -0.0108,-0.01393 -0.01658,-0.03727 -0.03278,-0.04919 -0.01133,-0.0056 -0.03651,-0.01427 -0.04916,-0.01639 -0.0021,-0.152841 0.0077,-0.290492 0,-0.442641 -0.0073,-0.149539 0.05451,-0.243046 0.19673,-0.311488 0.312107,-0.150064 0.47684,-0.409436 0.475429,-0.770525 -0.0042,-1.041591 0,-2.073131 0,-3.114883 0,-0.444287 -0.0042,-0.899857 0,-1.344319 0.0016,-0.19366 -0.08029,-0.292955 -0.262305,-0.327883 -0.269903,-0.05176 -0.442469,0.09587 -0.442642,0.377065 -0.0016,1.416565 1.73e-4,2.845908 0,4.262473 0,0.0695 0.0071,0.127935 0,0.19673 -0.01946,0.198361 -0.178237,0.244498 -0.344277,0.245912 -0.16795,0.0014 -0.271419,-0.06219 -0.2787,-0.245912 -0.0063,-0.152672 0,-0.322588 0,-0.47543 -5.24e-4,-1.472146 0.0021,-2.937874 0,-4.410021 -3.47e-4,-0.246285 -0.134086,-0.379186 -0.377065,-0.377065 z m 2.787003,0.836101 c -0.224051,0.0205 -0.327705,0.133458 -0.327883,0.393459 -0.0016,1.650697 0.0016,3.300331 0,4.951027 0,0.18741 -0.0016,0.3726 0.03278,0.5574 l 0,0.01639 c -0.01316,0.01807 -0.02702,0.03218 -0.03278,0.04919 l 2.06566,0 c -0.0083,-0.0171 -0.01611,-0.03157 -0.03279,-0.04919 l 0.01637,-0.01639 c 0.01144,-0.0964 0.01637,-0.182655 0.01637,-0.278699 0.0021,-1.610925 0.0016,-3.241745 0,-4.852663 -3.51e-4,-0.256883 -0.09278,-0.342863 -0.344276,-0.344277 -0.244549,-0.0014 -0.357135,0.08515 -0.360671,0.344277 -5.25e-4,0.0832 0,0.162544 0,0.245912 l 0,4.426415 c 0,0.201302 -0.0092,0.382611 -0.245913,0.459035 l -0.196729,0 c -0.192281,-0.09778 -0.21347,-0.25263 -0.213124,-0.442641 0.0026,-1.692207 5.24e-4,-3.389796 0,-5.08218 -1.68e-4,-0.285186 -0.106286,-0.401882 -0.377065,-0.377065 z m 2.688637,0.983648 c -0.180404,0.02058 -0.278569,0.156895 -0.278701,0.393459 -5.24e-4,1.403194 0.01432,2.793702 0.01637,4.196897 1.41e-4,0.110115 0.0047,0.217767 0.01637,0.327882 l 0,0.01639 c -0.01558,0.01638 -0.0082,0.03401 -0.01637,0.04919 l 2.06566,0 c -0.0053,-0.01511 -0.0203,-0.03317 -0.03279,-0.04919 l 0,-0.01639 c 0.01118,-0.09622 0.04889,-0.182477 0.04916,-0.278699 0.0021,-1.220651 0.0037,-2.435411 0,-3.655891 -5.25e-4,-0.200737 -0.128357,-0.349327 -0.295095,-0.377065 -0.05557,-0.0093 -0.114984,0.0178 -0.180335,0.03279 -0.220222,0.05126 -0.278533,0.115569 -0.2787,0.39346 -0.0016,1.178969 -0.0047,2.362338 0,3.541131 5.24e-4,0.172993 -0.05673,0.286582 -0.229518,0.344277 -0.06738,-6.82e-4 -0.129348,3.46e-4 -0.19673,0 -0.159608,-0.06024 -0.199557,-0.164096 -0.19673,-0.327883 0.0047,-0.28467 0,-0.584049 0,-0.868889 0,-1.118354 -0.0021,-2.242441 0,-3.360796 3.52e-4,-0.171946 -0.0077,-0.294783 -0.213123,-0.344276 -0.07651,-0.01839 -0.169387,-0.02332 -0.229518,-0.01639 z m 2.803397,1.22956 c -0.179355,0.02015 -0.278181,0.166405 -0.278701,0.393458 -0.0026,1.102369 0.0021,2.193022 0,3.29522 -0.01238,0.0021 -0.03824,0.01074 -0.04916,0.01639 -0.01805,0.01357 -0.02135,0.03308 -0.03278,0.04919 l 0.868889,0 c -0.0127,-0.01519 -0.0139,-0.03568 -0.03278,-0.04919 -0.01118,-0.0063 -0.03672,-0.01357 -0.04916,-0.01639 -0.0016,-0.09691 0,-0.181785 0,-0.278699 0,-1.012235 -0.0047,-2.02068 0,-3.032914 5.25e-4,-0.17264 -0.04501,-0.309622 -0.229518,-0.360671 -0.07277,-0.02022 -0.136945,-0.02318 -0.19673,-0.01639 z m 1.327924,0.770523 c -0.214655,0.04136 -0.278701,0.179587 -0.278701,0.377065 1.43e-4,0.846023 0.0037,1.695075 0,2.54109 l 0,0.01639 c -0.0203,0.01361 -0.03735,0.03343 -0.04916,0.04919 l 0.819705,0 c -0.01012,-0.01419 -0.0037,-0.03521 -0.01637,-0.04919 l 0.01637,-0.01639 c -0.0026,-0.846015 -0.01223,-1.694898 -0.01637,-2.54109 -0.0016,-0.302035 -0.177554,-0.434548 -0.475429,-0.377065 z m 1.557441,0.819707 c -0.220751,0.0049 -0.342861,0.126092 -0.344276,0.377065 -0.0026,0.574375 0.0016,1.147007 0,1.721383 -0.01265,0.0029 -0.02136,0.01003 -0.03278,0.01639 -0.01516,0.01392 -0.02172,0.03453 -0.03279,0.04919 l 0.819707,0 c -0.0127,-0.0144 -0.03022,-0.03651 -0.04916,-0.04919 l 0.03279,-0.01639 c -0.0021,-0.574199 -0.02927,-1.147015 -0.03279,-1.721383 -0.0016,-0.26435 -0.107441,-0.382722 -0.360671,-0.377065 z m 1.344318,1.131195 c -0.228568,0.01096 -0.320742,0.09855 -0.327882,0.311488 -0.0077,0.220923 -0.03,0.434665 -0.03278,0.655765 l 0.03278,0.01639 c -0.01889,0.01273 -0.03641,0.03478 -0.04916,0.04919 l 0.786919,0 c -7.9e-5,-0.01499 5.2e-5,-0.0342 0,-0.04919 l 0,-0.01639 c -0.0042,-0.227873 -0.0026,-0.461371 -0.01637,-0.688553 -0.01217,-0.199564 -0.173579,-0.289306 -0.39346,-0.2787 z m 0.409854,1.03283 0.06558,0 c -0.0071,-0.01543 -0.01946,-0.0354 -0.03279,-0.04919 -0.01243,0.01188 -0.02533,0.03575 -0.03278,0.04919 z"
       style="fill:#bdc4bf;fill-opacity:1;fill-rule:evenodd"
       inkscape:connector-curvature="0" /><path
       inkscape:connector-curvature="0"
       id="path31"
       d="m 42.852774,22.334905 c -0.08719,0.235517 -0.2594,0.398519 -0.488492,0.488483 -0.136342,0.05367 -0.186626,0.134954 -0.184539,0.282239 0.0073,0.519842 0.0037,1.037547 0.0056,1.557734 0.0016,0.314543 0.09131,0.413063 0.407073,0.417928 0.415975,0.0063 0.832386,0.0049 1.248352,0 0.311598,-0.0035 0.420057,-0.105251 0.423357,-0.412504 0.0056,-0.520011 -0.0042,-1.037717 0,-1.557728 0.0016,-0.135823 -0.0457,-0.215804 -0.173684,-0.271384 -0.228736,-0.09952 -0.409287,-0.25518 -0.488482,-0.504768 -0.250461,5.23e-4 -0.498392,-1.77e-4 -0.749015,0 z m 2.746381,0 c -0.08286,0.189666 -0.198345,0.358225 -0.390788,0.445064 -0.149541,0.06724 -0.197313,0.167259 -0.195402,0.325658 0.0071,0.569164 0.01164,1.140719 0.0056,1.709706 -0.0047,0.477461 -0.273245,0.818095 -0.721872,0.917272 -0.119842,0.02659 -0.250318,0.01909 -0.374505,0.01627 -0.144163,-0.0035 -0.199043,0.06067 -0.195391,0.200822 0.0047,0.201127 -0.0016,0.406594 0,0.607896 0.0021,0.378978 0.110546,0.49383 0.488482,0.526481 0.04832,0.0043 0.09792,0 0.14655,0 1.096812,1.7e-4 2.192501,0.0021 3.289145,0 0.09622,-1.77e-4 0.193351,-0.008 0.287661,-0.02715 0.233263,-0.04744 0.316629,-0.145673 0.325657,-0.385361 0.0081,-0.214843 -0.0042,-0.431736 0.01091,-0.645886 0.01422,-0.20686 -0.05756,-0.278025 -0.271376,-0.276808 -0.595565,0.0035 -0.972332,-0.378114 -0.982404,-0.976975 -0.0056,-0.326181 -0.0037,-0.650799 0,-0.976973 0.0016,-0.12297 -0.02812,-0.213507 -0.151975,-0.265956 -0.386272,-0.163957 -0.533993,-0.483449 -0.553623,-0.879274 -0.0047,-0.103865 -0.0037,-0.210771 -0.0056,-0.314805 -0.236208,1.7e-4 -0.474812,0 -0.711018,0 z m -16.331749,0.0056 0,10.90954 c 3.235735,0.0014 6.469041,6.82e-4 9.704608,0.0056 0.170729,1.7e-4 0.213065,-0.07564 0.211675,-0.227957 -0.0047,-0.534428 5.24e-4,-1.066557 0,-1.601155 -3.47e-4,-0.29179 -0.0037,-0.292921 -0.28766,-0.293091 -0.992787,-6.82e-4 -1.986823,-0.0021 -2.979772,0 -0.15389,3.47e-4 -0.306032,-0.01689 -0.455924,-0.04886 -0.835771,-0.177158 -1.440103,-0.806117 -1.50888,-1.568587 -0.03562,-0.395656 -0.01196,-0.788094 -0.02172,-1.183226 -0.0064,-0.262612 -0.01915,-0.280323 -0.287665,-0.282239 -0.312281,-0.0021 -0.621446,0.0035 -0.933558,-0.0056 -0.664684,-0.01944 -1.190251,-0.558785 -1.194081,-1.221215 -0.0016,-0.236217 1.78e-4,-0.474987 0,-0.711027 -3.46e-4,-0.352575 -0.0016,-0.350404 -0.347361,-0.358225 -0.525567,-0.01216 -0.905728,-0.394651 -0.90642,-0.917263 -0.0016,-0.833169 -3.46e-4,-1.663551 0,-2.496712 l -0.993259,0 z m 1.742264,0 c 5.24e-4,0.797208 0.0026,1.596374 0.0056,2.393582 5.24e-4,0.233085 0.08993,0.341814 0.320233,0.347371 0.471207,0.01146 0.940153,0.0071 1.411186,-0.0056 0.238294,-0.0063 0.309028,-0.09848 0.309375,-0.347364 5.24e-4,-0.797214 5.24e-4,-1.590773 0,-2.388159 -0.680323,5.16e-4 -1.365719,-6.82e-4 -2.046214,0 z m 2.795233,0 c 5.25e-4,0.861295 -0.0016,1.72225 0,2.583552 3.47e-4,0.212933 -0.07178,0.390444 -0.222535,0.542762 -0.191572,0.19366 -0.415577,0.289747 -0.689303,0.287662 -0.337122,-0.0029 -0.336513,0.0021 -0.336513,0.347371 0,0.166566 -5.25e-4,0.332609 0,0.499343 5.24e-4,0.318885 0.06815,0.406333 0.379929,0.466778 0.08771,0.01683 0.17616,0.01612 0.265958,0.01626 1.083617,0.0014 2.167529,-1.76e-4 3.251147,0 0.104393,0 0.205864,-0.0094 0.309374,-0.02715 0.203907,-0.03493 0.308945,-0.156011 0.320239,-0.352795 0.01144,-0.20095 0.01018,-0.401164 0.01091,-0.602466 0.0016,-0.341808 4.31e-4,-0.340422 -0.336517,-0.347372 -0.527823,-0.01075 -0.904852,-0.387836 -0.906415,-0.911841 -0.0021,-0.833508 -1.72e-4,-1.668627 0,-2.502135 -0.681187,-1.77e-4 -1.364857,0 -2.046218,0 z m 2.795233,0 c 5.25e-4,0.790088 -0.0021,1.576181 0,2.366446 5.25e-4,0.25028 0.07638,0.361265 0.320229,0.369077 0.477633,0.01527 0.960344,0.01061 1.438324,0 0.178893,-0.0043 0.289229,-0.09813 0.287666,-0.303945 -0.0063,-0.810931 -0.0042,-1.620647 -0.0056,-2.431578 -0.680317,1.7e-4 -1.360466,-3.54e-4 -2.040789,0 z m 2.833226,0 c -0.0021,0.770984 -0.0037,1.541359 -0.0056,2.312165 -3.46e-4,0.18828 -0.0056,0.380808 -0.08142,0.553624 -0.165342,0.378807 -0.473893,0.545238 -0.879272,0.548187 -0.329308,0.0021 -0.324965,0.0035 -0.325658,0.336518 -5.24e-4,0.215366 -3.88e-4,0.43069 -0.0056,0.645886 -0.01931,0.80746 -0.521103,1.29764 -1.329771,1.308063 -0.367869,0.0049 -0.73377,0.01082 -1.101811,0.0056 -0.169168,-0.0029 -0.237383,0.06335 -0.233385,0.233388 0.0075,0.319231 5.25e-4,0.63586 0.0056,0.955267 0.0037,0.24333 0.130917,0.405158 0.363645,0.4722 0.107693,0.03111 0.218889,0.04341 0.331088,0.04341 2.771138,-6.82e-4 5.538578,-0.0014 8.309704,0 0.141037,1.7e-4 0.280678,-0.0217 0.412509,-0.06512 0.191226,-0.06307 0.311541,-0.180678 0.341937,-0.396221 0.04685,-0.332778 0.01071,-0.666248 0.02712,-0.998679 0.0089,-0.17855 -0.05854,-0.252974 -0.238814,-0.249672 -0.367863,0.0071 -0.739373,0.01039 -1.107236,0 -0.703951,-0.0198 -1.227388,-0.561521 -1.232078,-1.259212 -0.0016,-0.250104 5.25e-4,-0.499083 0,-0.749017 -5.24e-4,-0.280152 -0.0042,-0.277719 -0.276806,-0.282237 -0.607376,-0.0099 -0.970161,-0.379713 -0.971551,-0.982398 -0.0016,-0.562391 -0.0047,-1.125609 0,-1.687993 0.0016,-0.140858 -0.03787,-0.23283 -0.173677,-0.293098 -0.200266,-0.08893 -0.327574,-0.252494 -0.412503,-0.450488 -0.472078,1.7e-4 -0.944885,-3.53e-4 -1.41661,0 z m 7.669248,0 c -0.0016,0.138426 5.25e-4,0.274072 0,0.412498 -0.0016,0.195045 0.116889,0.243894 0.282236,0.244241 0.166559,3.46e-4 0.289832,-0.05875 0.298515,-0.244241 0.0063,-0.138256 0.0042,-0.274072 0.0056,-0.412498 l -0.58618,0 z m 1.3352,0 c 1.68e-4,0.05543 -0.0047,0.107768 0,0.162825 0.04223,0.474506 -0.09922,0.851793 -0.569906,1.047537 -0.08458,0.03528 -0.09227,0.110767 -0.09227,0.189963 1.73e-4,0.326004 -0.0094,0.651316 0,0.976974 0.0071,0.241421 0.106947,0.352321 0.341937,0.358224 0.46426,0.0118 0.930818,0.01336 1.3949,0 0.252716,-0.0072 0.337777,-0.11172 0.341943,-0.374507 0.0042,-0.270423 -0.01076,-0.544587 0.0056,-0.814142 0.01265,-0.21311 -0.05063,-0.320015 -0.271376,-0.379938 -0.353967,-0.09622 -0.435995,-0.238811 -0.439641,-0.607896 -0.0021,-0.187226 -0.0042,-0.371814 -0.0056,-0.55904 -0.235688,-1.77e-4 -0.470426,1.7e-4 -0.705588,0 z m 1.454603,0 c 0.0026,0.137379 -0.0021,0.276158 0.0108,0.412498 0.01773,0.187233 0.14654,0.250669 0.320228,0.244241 0.172472,-0.0063 0.28945,-0.07264 0.293091,-0.265955 0.0021,-0.130436 0.0047,-0.260179 0.0056,-0.390784 -0.208769,3.46e-4 -0.420665,-1.77e-4 -0.629602,0 z m 1.378618,0 c -0.161177,0.135816 -0.09005,0.32331 -0.0977,0.488484 -0.01715,0.364736 -0.09292,0.484319 -0.434212,0.597043 -0.166044,0.05486 -0.231301,0.152446 -0.233389,0.320228 -0.0026,0.263996 -0.0149,0.529478 0,0.792435 0.04711,0.82969 -0.383014,1.135981 -1.025816,1.118094 -0.207908,-0.0056 -0.254327,0.05317 -0.265957,0.265955 -0.01385,0.256699 -0.0042,0.513844 -0.0056,0.770721 -0.0042,0.77307 -0.469387,1.241233 -1.248357,1.248352 -0.326528,0.0029 -0.656048,-0.0056 -0.982404,0.0056 -0.258964,0.0085 -0.301557,0.04956 -0.309374,0.309375 -0.01112,0.361088 0,0.724261 0,1.085526 0,0.233262 -0.04633,0.452014 -0.146545,0.66217 -0.328959,0.690401 -0.905675,0.997082 -1.639151,1.014971 -0.902632,0.02185 -1.810825,0.0077 -2.713814,0.01082 -0.442893,0.0014 -0.458915,0.01718 -0.461348,0.450493 -0.0026,0.527832 3.46e-4,1.05687 0,1.584872 -5.25e-4,0.673721 5.24e-4,1.345359 -0.0056,2.01908 -0.0021,0.27077 -0.08163,0.347456 -0.347362,0.358225 -0.09032,0.0035 -0.18107,0 -0.271387,0 -2.410388,5.24e-4 -4.819391,4.2e-5 -7.229606,0.0056 -0.844799,0.0021 -1.23733,0.399296 -1.237503,1.237499 -5.24e-4,2.347864 -1.73e-4,4.691776 0,7.03964 0,0.104381 -5.24e-4,0.210594 0.0056,0.314805 0.0047,0.08615 0.0276,0.16361 0.103122,0.217105 0.06236,0.0029 0.122188,0.01089 0.184538,0.01089 6.049948,3.47e-4 12.100064,-0.0049 18.150012,0 0.202515,1.7e-4 0.282021,-0.06215 0.255103,-0.260525 -0.0056,-0.04115 0,-0.08315 0,-0.124835 0,-6.813987 3.46e-4,-13.626489 0,-20.440477 0,-0.368031 -0.0026,-0.733771 -0.0056,-1.101803 -0.01338,-6.81e-4 -0.02518,-0.0029 -0.03798,0 z"
       style="fill:#963453;fill-opacity:1;fill-rule:evenodd" /></g></svg>