<?xml version="1.0" encoding="UTF-8" standalone="no"?>
<!-- Generator: Adobe Illustrator 15.0.2, SVG Export Plug-In . SVG Version: 6.00 Build 0)  -->

<svg
   xmlns:dc="http://purl.org/dc/elements/1.1/"
   xmlns:cc="http://creativecommons.org/ns#"
   xmlns:rdf="http://www.w3.org/1999/02/22-rdf-syntax-ns#"
   xmlns:svg="http://www.w3.org/2000/svg"
   xmlns="http://www.w3.org/2000/svg"
   xmlns:xlink="http://www.w3.org/1999/xlink"
   xmlns:sodipodi="http://sodipodi.sourceforge.net/DTD/sodipodi-0.dtd"
   xmlns:inkscape="http://www.inkscape.org/namespaces/inkscape"
   version="1.0"
   id="Layer_1"
   x="0px"
   y="0px"
   width="100"
   height="98.422806"
   viewBox="0 0 99.999996 98.422797"
   enable-background="new 0 0 2481 2073"
   xml:space="preserve"
   inkscape:version="0.48.4 r9939"
   sodipodi:docname="logo.cergy.marker.svg"><metadata
     id="metadata15"><rdf:RDF><cc:Work
         rdf:about=""><dc:format>image/svg+xml</dc:format><dc:type
           rdf:resource="http://purl.org/dc/dcmitype/StillImage" /><dc:title /></cc:Work></rdf:RDF></metadata><defs
     id="defs13"><linearGradient
       id="SVGID_1_"
       gradientUnits="userSpaceOnUse"
       x1="263.8389"
       y1="-344.77591"
       x2="331.28519"
       y2="-344.77591"
       gradientTransform="matrix(1,0,0,-1,-247.5,-270)"><stop
         offset="0.0023"
         style="stop-color:#217939"
         id="stop60" /><stop
         offset="1"
         style="stop-color:#8DC63F"
         id="stop62" /></linearGradient><linearGradient
       inkscape:collect="always"
       xlink:href="#SVGID_1_"
       id="linearGradient4139"
       gradientUnits="userSpaceOnUse"
       gradientTransform="matrix(1,0,0,-1,-247.5,-270)"
       x1="263.8389"
       y1="-344.77591"
       x2="331.28519"
       y2="-344.77591" /><linearGradient
       inkscape:collect="always"
       xlink:href="#SVGID_1_"
       id="linearGradient4175"
       gradientUnits="userSpaceOnUse"
       gradientTransform="matrix(1,0,0,-1,-247.5,-270)"
       x1="263.8389"
       y1="-344.77591"
       x2="331.28519"
       y2="-344.77591" /></defs><sodipodi:namedview
     pagecolor="#ffffff"
     bordercolor="#666666"
     borderopacity="1"
     objecttolerance="10"
     gridtolerance="10"
     guidetolerance="10"
     inkscape:pageopacity="0"
     inkscape:pageshadow="2"
     inkscape:window-width="1002"
     inkscape:window-height="902"
     id="namedview11"
     showgrid="false"
     fit-margin-top="0"
     fit-margin-left="0"
     fit-margin-right="0"
     fit-margin-bottom="0"
     inkscape:zoom="1.2880054"
     inkscape:cx="-163.48683"
     inkscape:cy="83.114714"
     inkscape:window-x="407"
     inkscape:window-y="89"
     inkscape:window-maximized="0"
     inkscape:current-layer="Layer_1" /><path
     style="opacity:0.36213995;fill:#000000;fill-opacity:0.57534246;fill-rule:evenodd;stroke:none"
     inkscape:connector-curvature="0"
     id="path7"
     d="m 30.209036,98.422796 c 5.626411,-5.553785 9.034218,-10.843153 11.506341,-16.105002 1.833744,-3.903077 1.567241,-6.021578 4.572524,-11.674019 6.681738,-11.369765 9.706537,-13.496243 21.51007,-17.373402 6.864565,-1.582623 14.718733,-1.713817 21.487151,0.716469 5.534065,1.987211 8.750351,5.213924 9.994611,8.218802 1.016807,2.455504 0.916107,4.971064 -0.04462,7.494512 -1.002761,2.63388 -2.974216,5.333232 -6.887658,8.151162 -2.005011,1.443608 -4.228229,2.588461 -6.259488,3.440189 -2.055894,0.862004 -4.129904,1.39643 -6.213154,2.036432 -4.066587,1.249335 -8.226449,2.166641 -12.393591,3.082183 -12.412046,2.726586 -24.678961,5.712499 -37.272126,12.012674 z"
     clip-rule="evenodd"
     sodipodi:nodetypes="cscccssccsccc" /><path
     style="fill:#f5f5f5;fill-opacity:0.78431374;stroke:#e86c52;stroke-width:2.93298769000000004;stroke-linecap:round;stroke-linejoin:miter;stroke-miterlimit:10;stroke-opacity:1;stroke-dasharray:none"
     inkscape:connector-curvature="0"
     id="path5"
     d="M 30.134416,91.679377 C 28.016291,81.541793 24.281731,73.10552 19.758352,65.286719 16.403154,59.486935 12.516319,54.133673 8.9199986,48.509538 7.719467,46.63206 6.6834123,44.648623 5.5298244,42.700104 3.2231948,38.804023 1.3530149,34.286734 1.4718619,28.427076 1.5879664,22.70181 3.2863003,18.10919 5.7353248,14.354231 9.7632348,8.1781947 16.510136,3.1145772 25.562847,1.7838334 c 7.401689,-1.08800819 14.341307,0.7501202 19.262511,3.5558198 4.021402,2.2926179 7.135594,5.3551178 9.502761,8.9644128 2.470769,3.767167 4.172163,8.217672 4.314883,14.022741 0.07305,2.974145 -0.426462,5.728351 -1.130155,8.012944 -0.712153,2.312443 -1.857497,4.245431 -2.876506,6.310253 -1.989168,4.030474 -4.48305,7.723246 -6.985838,11.418397 -7.45475,11.006267 -14.451733,22.230688 -17.516087,37.610976 z"
     stroke-miterlimit="10"
     clip-rule="evenodd" /><g
     transform="matrix(0.57130467,0,0,0.57130467,1.4827146,0.98789464)"
     id="g3"><path
       style="fill:#1ed000"
       inkscape:connector-curvature="0"
       d="m 23.092,85.395 c 0.025,-0.271 0.222,-0.264 0.259,-0.472 -0.013,0.072 -0.423,0.847 -0.521,0.772 0.053,0.213 0.149,0.209 0.107,0.445 0.069,-0.141 0.1,-0.325 0.296,-0.341 -0.19,-0.027 -0.17,-0.293 -0.141,-0.404 0.009,-0.102 -0.04,0.157 0,0 z"
       id="path5-2" /><path
       style="fill:#1ed000"
       inkscape:connector-curvature="0"
       d="m 23.093,86.568 c 0.083,-0.042 0.08,-0.099 -0.007,-0.17 0.002,0.057 0.004,0.114 0.007,0.17 0.016,-0.018 -0.033,-0.064 0,0 z"
       id="path7-3" /><path
       style="fill:#1ed000"
       inkscape:connector-curvature="0"
       d="m 23.579,85.693 c 0.026,-0.008 -0.003,0.001 0,0 l 0,0 z"
       id="path9" /><path
       style="fill:#1ed000"
       inkscape:connector-curvature="0"
       d="m 23.446,85.703 c -0.037,0.058 -0.096,0.093 -0.176,0.105 0.101,0.123 0.268,-0.002 0.176,-0.105 z"
       id="path11" /><path
       style="fill:#691f70"
       inkscape:connector-curvature="0"
       d="m 77.15,23.572 c -0.179,0 -0.801,0.285 -0.917,0.035 -0.151,-0.324 0.268,-0.934 0.429,-1.186 0.388,-0.608 1.521,-1.737 0.034,-1.355 -1.147,0.294 -2.365,0.153 -3.495,0.535 -1.312,0.441 -2.606,0.935 -3.874,1.49 -2.304,1.01 -4.495,2.253 -6.581,3.657 -0.985,0.664 -1.948,1.362 -2.892,2.085 -0.473,0.363 -0.94,0.731 -1.404,1.106 -0.324,0.261 -0.771,0.813 -1.229,0.82 1.37,-1.553 2.653,-3.2 3.43,-5.138 0.791,-1.975 1.617,-4.435 1.19,-6.569 -0.399,-1.995 -1.432,-3.738 -2.896,-5.14 -0.752,-0.72 -1.578,-1.374 -2.521,-1.826 -0.189,-0.091 -0.383,-0.173 -0.579,-0.247 -0.388,-0.145 -0.388,10e-4 -0.757,0.08 -0.213,0.046 -0.668,-0.092 -0.678,0.182 -0.035,0.946 0.819,1.643 0.848,2.65 0.033,1.182 -0.298,2.441 -0.536,3.592 -0.469,2.249 -1.649,4.244 -2.881,6.151 -1.151,1.783 -2.632,3.321 -4.213,4.725 -0.838,0.745 -1.705,1.456 -2.577,2.16 -0.332,0.268 -2.588,1.641 -2.486,1.953 -0.069,0 0.382,0.043 0.363,0.029 -0.446,0.311 0.082,0.022 -0.358,0.085 0.041,0.188 -0.313,0.514 -0.439,0.624 -0.652,0.055 -1.011,0.461 -1.518,0.822 -0.367,0.219 -0.735,0.717 -0.905,1.101 -0.146,0.331 -0.731,0.475 -0.65,0.858 0.219,-0.231 1.401,-1.093 1.679,-0.701 0.4,0.279 0.826,0.01 1.211,-0.155 0.265,-0.114 0.541,-0.211 0.833,-0.208 0.168,0.138 -0.073,0.338 -0.046,0.501 0.149,-0.178 1.006,-0.335 0.344,-0.674 0.403,-0.276 0.879,-0.452 1.347,-0.583 -0.243,0.139 -0.499,0.258 -0.717,0.436 -0.532,0.435 0.22,0.355 0.474,0.199 0.399,0.057 0.302,-0.314 0.528,-0.274 0.173,0.047 0.279,-0.016 0.317,-0.187 0.105,0.06 0.22,0.075 0.344,0.045 -0.089,0.021 -0.166,0.064 -0.229,0.131 0.366,0.386 1.333,-0.242 1.79,-0.32 -0.159,0.256 -0.294,0.301 0.035,0.442 -0.207,-0.738 2.044,-0.717 2.398,-0.699 0.392,0.019 0.941,-0.169 1.329,-0.29 0.413,-0.129 0.835,-0.228 1.246,-0.361 0.39,-0.126 0.815,-0.457 1.218,-0.5 -0.079,0.115 -0.32,0.311 -0.185,0.445 0.181,-0.153 0.423,-0.225 0.557,-0.432 0.181,-0.104 0.564,-0.049 0.703,-0.171 0.075,0.269 -1.002,1.088 -1.188,1.272 -0.558,0.552 -1.115,1.104 -1.673,1.657 -0.94,0.931 -1.788,1.842 -2.668,2.834 -2.113,2.386 -4.158,4.832 -6.136,7.33 -3.898,4.924 -7.333,10.052 -10.274,15.606 -2.884,5.446 -5.577,11.016 -7.614,16.84 -0.494,1.411 -0.948,2.836 -1.355,4.274 -0.203,0.721 -0.395,1.445 -0.573,2.173 -0.097,0.38 -0.367,1.024 -0.152,1.396 -0.059,0.131 -0.306,1.076 -0.201,1.181 -0.166,0.033 0.182,0.494 0.305,0.09 0.135,-0.404 0.637,-0.757 0.204,-0.994 0.095,-0.043 0.134,-0.117 0.117,-0.221 0.288,0.605 0.351,-0.585 0.362,-0.622 0.114,-0.375 0.259,-0.345 0.377,-0.526 -0.041,-0.051 -0.065,-0.107 -0.072,-0.172 0.473,0.044 0.797,-1.077 0.957,-1.393 0.344,-0.679 0.688,-1.357 1.04,-2.033 0.62,-1.193 1.204,-2.546 2.273,-3.375 1.649,-2.41 2.801,-5.145 4.217,-7.698 2.91,-5.248 6.191,-10.288 9.787,-15.093 6.733,-8.996 14.728,-16.956 24.234,-23.011 2.279,-1.451 4.745,-2.637 6.94,-4.212 1.142,-0.819 2.176,-1.745 3.065,-2.835 0.451,-0.553 0.88,-1.124 1.341,-1.668 0.171,-0.202 0.154,-0.482 0.079,-0.717 -0.064,-0.199 -0.36,-0.006 -0.476,-0.006 z M 23.093,86.568 c -0.002,-0.057 -0.004,-0.113 -0.007,-0.17 0.087,0.072 0.089,0.128 0.007,0.17 -0.033,-0.064 0.016,-0.017 0,0 z m -0.157,-0.427 c 0.042,-0.241 -0.057,-0.23 -0.107,-0.447 0.093,0.078 0.509,-0.701 0.521,-0.771 -0.022,0.125 -0.588,0.809 -0.119,0.876 -0.196,0.014 -0.226,0.2 -0.295,0.342 0.026,-0.147 0.069,-0.141 0,0 z m 0.513,-0.297 c -0.113,0 -0.088,0.081 -0.179,-0.035 0.08,-0.013 0.139,-0.048 0.176,-0.105 0.002,0.016 0.011,0.021 0.024,0.018 -0.007,0.04 -0.014,0.081 -0.021,0.122 -0.016,0 0.007,-0.041 0,0 z m 0.13,-0.151 c 0,-0.01 0.028,0 0,0 0,-0.002 0.004,0 0,0 z"
       id="path13" /></g></svg>