<?xml version="1.0" encoding="utf-8"?>
<!-- Generator: Adobe Illustrator 16.0.0, SVG Export Plug-In . SVG Version: 6.00 Build 0)  -->
<!DOCTYPE svg PUBLIC "-//W3C//DTD SVG 1.1//EN" "http://www.w3.org/Graphics/SVG/1.1/DTD/svg11.dtd">
<svg version="1.1"
	 id="Calque_1" sodipodi:docname="logo.vision.noir.svg" inkscape:version="0.48.3.1 r9886" xmlns:svg="http://www.w3.org/2000/svg" xmlns:rdf="http://www.w3.org/1999/02/22-rdf-syntax-ns#" xmlns:sodipodi="http://sodipodi.sourceforge.net/DTD/sodipodi-0.dtd" xmlns:inkscape="http://www.inkscape.org/namespaces/inkscape" xmlns:dc="http://purl.org/dc/elements/1.1/" xmlns:cc="http://creativecommons.org/ns#"
	 xmlns="http://www.w3.org/2000/svg" xmlns:xlink="http://www.w3.org/1999/xlink" x="0px" y="0px" width="100px" height="100px"
	 viewBox="0 0 100 100" enable-background="new 0 0 100 100" xml:space="preserve">
<sodipodi:namedview  inkscape:window-maximized="0" fit-margin-right="0" inkscape:window-width="1128" inkscape:window-x="49" inkscape:window-y="254" inkscape:pageshadow="2" inkscape:pageopacity="0" fit-margin-bottom="0" inkscape:window-height="643" inkscape:current-layer="Calque_1" bordercolor="#666666" inkscape:cx="635.49208" fit-margin-top="0" id="namedview73" pagecolor="#ffffff" gridtolerance="10" fit-margin-left="0" showgrid="false" inkscape:zoom="0.28032165" inkscape:cy="-138.59827" objecttolerance="10" borderopacity="1" guidetolerance="10">
	</sodipodi:namedview>
<g>
	<path fill="#798086" d="M98.235,43.052c-0.71-2.551-3.383-2.575-5.562-2.386c-2.987,0.259-5.897,1.083-8.642,2.279
		c-5.616,2.447-10.493,6.219-15.495,9.688c-4.994,3.463-10.326,6.935-16.232,8.596c-2.898,0.814-5.925,1.147-8.929,0.897
		c-1.459-0.121-2.906-0.377-4.32-0.753c-0.732-0.195-1.456-0.422-2.169-0.678c-0.501-0.181-1.411-0.799-1.95-0.497
		c5.028,3.006,10.182,5.293,16.17,5.126c6.129-0.17,11.946-2.691,17.289-5.507c5.387-2.839,10.473-6.235,15.938-8.929
		c2.576-1.27,5.253-2.354,8.047-3.041c2.216-0.544,5.42-0.363,5.936-3.229C98.408,44.099,98.377,43.56,98.235,43.052
		C97.79,41.452,98.778,45.001,98.235,43.052z"/>
	<path fill="#798086" d="M60.097,38.43c1.677,0.403,3.308,0.97,4.94,1.518c-4.771-3.546-10.8-5.582-16.761-5.239
		c-6.175,0.355-11.954,2.964-17.331,5.843c-5.348,2.863-10.418,6.259-15.896,8.875c-2.588,1.236-5.284,2.269-8.09,2.89
		c-2.235,0.496-5.184,0.554-5.324,3.546c-0.275,5.862,9.344,3.057,12.259,2.021c5.388-1.916,10.123-5.24,14.752-8.519
		C37.784,42.891,48.3,35.603,60.097,38.43C61.776,38.833,54.216,37.021,60.097,38.43z"/>
	<path fill="#005786" d="M46.414,49.194c0.015,3.599,3.04,6.517,6.622,6.487c3.554-0.027,6.498-2.986,6.467-6.548
		c-0.032-3.6-3.007-6.529-6.609-6.492C49.342,42.677,46.4,45.638,46.414,49.194C46.429,52.822,46.4,45.595,46.414,49.194z"/>
</g>
</svg>
