<?xml version="1.0" encoding="utf-8"?>
<!-- Generator: Adobe Illustrator 16.0.0, SVG Export Plug-In . SVG Version: 6.00 Build 0)  -->
<!DOCTYPE svg PUBLIC "-//W3C//DTD SVG 1.1//EN" "http://www.w3.org/Graphics/SVG/1.1/DTD/svg11.dtd">
<svg version="1.1" id="Calque_1" xmlns="http://www.w3.org/2000/svg" xmlns:xlink="http://www.w3.org/1999/xlink" x="0px" y="0px"
	 width="100px" height="100px" viewBox="0 0 100 100" enable-background="new 0 0 100 100" xml:space="preserve">
<g>
	<path d="M23.092,85.395c0.025-0.271,0.222-0.264,0.259-0.472c-0.013,0.072-0.423,0.847-0.521,0.772
		c0.053,0.213,0.149,0.209,0.107,0.445c0.069-0.141,0.1-0.325,0.296-0.341C23.043,85.772,23.063,85.506,23.092,85.395
		C23.101,85.293,23.052,85.552,23.092,85.395z"/>
	<path d="M23.093,86.568c0.083-0.042,0.08-0.099-0.007-0.17C23.088,86.455,23.09,86.512,23.093,86.568
		C23.109,86.55,23.06,86.504,23.093,86.568z"/>
	<path d="M23.579,85.693C23.605,85.685,23.576,85.694,23.579,85.693L23.579,85.693z"/>
	<path d="M23.446,85.703c-0.037,0.058-0.096,0.093-0.176,0.105C23.371,85.931,23.538,85.806,23.446,85.703z"/>
	<path d="M77.15,23.572c-0.179,0-0.801,0.285-0.917,0.035c-0.151-0.324,0.268-0.934,0.429-1.186
		c0.388-0.608,1.521-1.737,0.034-1.355c-1.147,0.294-2.365,0.153-3.495,0.535c-1.312,0.441-2.606,0.935-3.874,1.49
		c-2.304,1.01-4.495,2.253-6.581,3.657c-0.985,0.664-1.948,1.362-2.892,2.085c-0.473,0.363-0.94,0.731-1.404,1.106
		c-0.324,0.261-0.771,0.813-1.229,0.82c1.37-1.553,2.653-3.2,3.43-5.138c0.791-1.975,1.617-4.435,1.19-6.569
		c-0.399-1.995-1.432-3.738-2.896-5.14c-0.752-0.72-1.578-1.374-2.521-1.826c-0.189-0.091-0.383-0.173-0.579-0.247
		c-0.388-0.145-0.388,0.001-0.757,0.08c-0.213,0.046-0.668-0.092-0.678,0.182c-0.035,0.946,0.819,1.643,0.848,2.65
		c0.033,1.182-0.298,2.441-0.536,3.592c-0.469,2.249-1.649,4.244-2.881,6.151c-1.151,1.783-2.632,3.321-4.213,4.725
		c-0.838,0.745-1.705,1.456-2.577,2.16c-0.332,0.268-2.588,1.641-2.486,1.953c-0.069,0,0.382,0.043,0.363,0.029
		c-0.446,0.311,0.082,0.022-0.358,0.085c0.041,0.188-0.313,0.514-0.439,0.624c-0.652,0.055-1.011,0.461-1.518,0.822
		c-0.367,0.219-0.735,0.717-0.905,1.101c-0.146,0.331-0.731,0.475-0.65,0.858c0.219-0.231,1.401-1.093,1.679-0.701
		c0.4,0.279,0.826,0.01,1.211-0.155c0.265-0.114,0.541-0.211,0.833-0.208c0.168,0.138-0.073,0.338-0.046,0.501
		c0.149-0.178,1.006-0.335,0.344-0.674c0.403-0.276,0.879-0.452,1.347-0.583c-0.243,0.139-0.499,0.258-0.717,0.436
		c-0.532,0.435,0.22,0.355,0.474,0.199c0.399,0.057,0.302-0.314,0.528-0.274c0.173,0.047,0.279-0.016,0.317-0.187
		c0.105,0.06,0.22,0.075,0.344,0.045c-0.089,0.021-0.166,0.064-0.229,0.131c0.366,0.386,1.333-0.242,1.79-0.32
		c-0.159,0.256-0.294,0.301,0.035,0.442c-0.207-0.738,2.044-0.717,2.398-0.699c0.392,0.019,0.941-0.169,1.329-0.29
		c0.413-0.129,0.835-0.228,1.246-0.361c0.39-0.126,0.815-0.457,1.218-0.5c-0.079,0.115-0.32,0.311-0.185,0.445
		c0.181-0.153,0.423-0.225,0.557-0.432c0.181-0.104,0.564-0.049,0.703-0.171c0.075,0.269-1.002,1.088-1.188,1.272
		c-0.558,0.552-1.115,1.104-1.673,1.657c-0.94,0.931-1.788,1.842-2.668,2.834c-2.113,2.386-4.158,4.832-6.136,7.33
		c-3.898,4.924-7.333,10.052-10.274,15.606c-2.884,5.446-5.577,11.016-7.614,16.84c-0.494,1.411-0.948,2.836-1.355,4.274
		c-0.203,0.721-0.395,1.445-0.573,2.173c-0.097,0.38-0.367,1.024-0.152,1.396c-0.059,0.131-0.306,1.076-0.201,1.181
		c-0.166,0.033,0.182,0.494,0.305,0.09c0.135-0.404,0.637-0.757,0.204-0.994c0.095-0.043,0.134-0.117,0.117-0.221
		c0.288,0.605,0.351-0.585,0.362-0.622c0.114-0.375,0.259-0.345,0.377-0.526c-0.041-0.051-0.065-0.107-0.072-0.172
		c0.473,0.044,0.797-1.077,0.957-1.393c0.344-0.679,0.688-1.357,1.04-2.033c0.62-1.193,1.204-2.546,2.273-3.375
		c1.649-2.41,2.801-5.145,4.217-7.698c2.91-5.248,6.191-10.288,9.787-15.093C48.7,47.025,56.695,39.065,66.201,33.01
		c2.279-1.451,4.745-2.637,6.94-4.212c1.142-0.819,2.176-1.745,3.065-2.835c0.451-0.553,0.88-1.124,1.341-1.668
		c0.171-0.202,0.154-0.482,0.079-0.717C77.562,23.379,77.266,23.572,77.15,23.572z M23.093,86.568
		c-0.002-0.057-0.004-0.113-0.007-0.17C23.173,86.47,23.175,86.526,23.093,86.568C23.06,86.504,23.109,86.551,23.093,86.568z
		 M22.936,86.141c0.042-0.241-0.057-0.23-0.107-0.447c0.093,0.078,0.509-0.701,0.521-0.771c-0.022,0.125-0.588,0.809-0.119,0.876
		C23.035,85.813,23.005,85.999,22.936,86.141C22.962,85.994,23.005,86,22.936,86.141z M23.449,85.844
		c-0.113,0-0.088,0.081-0.179-0.035c0.08-0.013,0.139-0.048,0.176-0.105c0.002,0.016,0.011,0.021,0.024,0.018
		C23.463,85.762,23.456,85.803,23.449,85.844C23.433,85.844,23.456,85.803,23.449,85.844z M23.579,85.693
		C23.579,85.683,23.607,85.693,23.579,85.693C23.579,85.691,23.583,85.693,23.579,85.693z"/>
</g>
</svg>
