<?xml version="1.0" encoding="utf-8"?>
<!-- Generator: Adobe Illustrator 16.0.0, SVG Export Plug-In . SVG Version: 6.00 Build 0)  -->
<!DOCTYPE svg PUBLIC "-//W3C//DTD SVG 1.1//EN" "http://www.w3.org/Graphics/SVG/1.1/DTD/svg11.dtd">
<svg version="1.1"
	 id="Calque_1" sodipodi:docname="logo.ESPCI.noir.svg" inkscape:version="0.48.3.1 r9886" xmlns:svg="http://www.w3.org/2000/svg" xmlns:rdf="http://www.w3.org/1999/02/22-rdf-syntax-ns#" xmlns:sodipodi="http://sodipodi.sourceforge.net/DTD/sodipodi-0.dtd" xmlns:inkscape="http://www.inkscape.org/namespaces/inkscape" xmlns:dc="http://purl.org/dc/elements/1.1/" xmlns:cc="http://creativecommons.org/ns#"
	 xmlns="http://www.w3.org/2000/svg" xmlns:xlink="http://www.w3.org/1999/xlink" x="0px" y="0px" width="100px" height="100px"
	 viewBox="0 0 100 100" enable-background="new 0 0 100 100" xml:space="preserve">
<sodipodi:namedview  inkscape:window-maximized="0" fit-margin-right="0" inkscape:window-width="1411" inkscape:window-x="49" inkscape:window-y="254" inkscape:pageshadow="2" inkscape:pageopacity="0" fit-margin-bottom="0" inkscape:window-height="884" inkscape:current-layer="g3" bordercolor="#666666" inkscape:cx="293.13698" fit-margin-top="0" id="namedview65" pagecolor="#ffffff" gridtolerance="10" fit-margin-left="0" showgrid="false" inkscape:zoom="0.5606433" inkscape:cy="-191.03785" objecttolerance="10" borderopacity="1" guidetolerance="10">
	</sodipodi:namedview>
<g>
	<path fill="#FFFFFF" d="M23.486,58.625c-0.49-1.238-0.992-2.473-1.48-3.71c-0.279-0.705-0.559-1.41-0.837-2.116
		c-0.202-0.512-0.387-0.357-0.887-0.272c-0.37,0.062-0.734,0.149-1.104,0.217c-1.531,0.274-3.062,0.557-4.592,0.838
		c-0.681,0.124-1.387,0.32-2.075,0.358c-0.158,0.191,0.425,1.216,0.506,1.415c1.175,2.911,2.354,5.82,3.523,8.734
		c0.227,0.564,3.166-0.307,3.739-0.412c1.614-0.298,3.228-0.597,4.84-0.895C24.576,61.396,24.034,60.009,23.486,58.625z"/>
	<path fill="#FFFFFF" d="M18.437,30.912c0.498,2.73,1.001,5.462,1.502,8.192c3.137-1.153,6.211-2.503,9.315-3.743
		c0.429-0.172,1.107-0.25,0.999-0.84c-0.168-0.896-0.337-1.794-0.502-2.689c-0.333-1.795-0.663-3.59-0.995-5.386
		c-1.809,0.678-3.595,1.417-5.388,2.133c-0.938,0.374-1.878,0.749-2.817,1.119C20.006,29.914,18.312,30.252,18.437,30.912
		C18.935,33.643,18.413,30.791,18.437,30.912z"/>
	<path fill="#FFFFFF" d="M43.058,34.647c-0.424,0.655,0.387,1.878,0.651,2.549c0.19,0.483,0.189,1.096,0.767,0.993
		c0.584-0.103,1.168-0.204,1.753-0.307c2.144-0.378,4.351-0.666,6.462-1.196c-0.684-1.688-1.366-3.379-2.05-5.067
		c-0.697-1.723-1.26-3.625-2.167-5.247C46.764,29.182,44.86,31.893,43.058,34.647C42.97,34.783,44.84,31.924,43.058,34.647z"/>
	<g>
		<path d="M85.963,50.891c-0.625,0.001-0.494,0.353-0.494,0.902c0,0.918,0,1.837,0,2.755c0,1.836,0,3.673,0,5.51
			c0,1.836,0,3.673,0,5.51c0,0.918,0,1.836,0,2.756c0,0.84-0.338,1.695,0.686,1.69c0.902-0.006,1.806-0.008,2.708-0.009
			c0.527-0.001,0.773,0.218,0.773-0.4c0-0.531,0-1.062,0-1.593c0-1.859,0-3.718,0-5.577c0-3.85,0-7.7,0-11.55
			C88.411,50.887,87.187,50.889,85.963,50.891C85.47,50.892,87.188,50.889,85.963,50.891z"/>
		<path d="M19.938,39.105c-0.286-1.561-0.573-3.121-0.859-4.682c-0.143-0.78-0.285-1.562-0.429-2.341
			c-0.071-0.392-0.143-0.78-0.214-1.171c-0.077-0.425,0.092-0.231-0.297-0.499c-1.27-0.893-2.537-1.785-3.809-2.677
			c-1.273-0.893-2.565-2.054-3.967-2.731c0,1.397,0.485,2.959,0.714,4.347c0.127,0.774,0.254,1.549,0.381,2.324
			c0.097,0.594,0.03,1.687,0.589,2.062C14.677,35.531,17.301,37.328,19.938,39.105C19.438,36.375,18.79,38.332,19.938,39.105z"/>
		<path d="M28.297,26.617c0.151-0.061,0.304-0.116,0.458-0.171c-0.249-0.533-1.442-1.03-1.924-1.354
			c-0.751-0.504-1.503-1.008-2.253-1.513c-0.728-0.49-1.455-0.981-2.18-1.476c-0.484-0.328-1.647-1.459-2.214-1.459
			c0.475,2.878,0.948,5.757,1.422,8.636C23.836,28.392,26.066,27.505,28.297,26.617C28.448,26.554,26.066,27.505,28.297,26.617z"/>
		<path d="M52.446,70.002c1.116-0.007,2.223-0.279,3.178-0.862c0.471-0.286,0.897-0.64,1.276-1.039
			c0.204-0.214,0.65-1.066,0.932-1.104c0,0.445-0.266,3.04,0.244,3.07c0.71,0.044,1.435,0.005,2.146,0.005
			c0.384,0,1.616,0.22,1.9-0.074c-0.654,0.002-1.311,0.003-1.966,0.004c-0.553,0.002-1.647,0.223-2.146-0.021
			c-0.313-0.152-0.123-1.513-0.125-1.817c-0.005-0.771-0.012-1.541-0.018-2.312c0.008,1.155,0.019,2.312,0.023,3.467
			c0.003,0.651,0.033,0.693,0.691,0.689c0.655-0.004,1.311-0.006,1.966-0.007c0.523-0.002,1.048-0.002,1.571-0.004
			c0-0.637,0.001-1.271,0.002-1.907c0.002-1.271,0.003-2.542,0.002-3.813c0-0.509-0.002-1.017-0.004-1.524
			c-0.002-0.529,0.771-0.327,1.111-0.325c1.223,0.006,2.503,0.107,3.716-0.068c1.897-0.272,3.684-1.408,4.609-3.104
			c1.796-3.293-0.386-7.258-3.889-8.132c-2.115-0.527-4.538-0.237-6.701-0.23c-0.484,0.001-3.082-0.229-3.109,0.229
			c-0.073,1.213-0.012,2.448-0.017,3.664c0.003-0.638,0.005-1.273,0.008-1.91c0.002-0.546-0.181-1.47,0.06-1.974
			c-1.508-0.002-3.016-0.011-4.523-0.006c-1.445,0.005-2.844,0.055-4.137,0.782c-2.022,1.142-3.179,3.488-2.793,5.787
			c0.473,2.819,3.638,3.781,5.953,4.587c1.002,0.35,2.265,0.962,2.192,2.214c-0.081,1.41-1.576,1.892-2.753,1.896
			c-3.314,0.007-6.628,0.003-9.942,0.007c-0.335,0-1.776,0.216-1.932-0.155c-0.221-0.529-0.021-1.5-0.022-2.072
			c-0.001-0.309-0.223-1.406,0.21-1.518c0.707-0.18,1.66-0.01,2.391-0.011c0.372,0,1.583,0.215,1.816-0.142
			c0.335-0.508,0.313-1.573,0.425-2.17c0.045-0.247,0.471-1.434,0.085-1.533c-0.753-0.193-1.782-0.011-2.562-0.011
			c-0.659-0.001-1.532,0.155-2.168-0.014c-0.403-0.107-0.194-1.17-0.194-1.46c0-0.678-0.042-1.364,0-2.039
			c0.029-0.476,1.296-0.243,1.605-0.243c1.146,0,2.292,0.001,3.438-0.001c0.815,0,0.184-1.431,0.092-1.938
			c-0.094-0.506-0.184-1.013-0.267-1.521c-0.087-0.523-0.506-0.458-0.938-0.456c-1.175,0.006-2.351,0.007-3.524,0.008
			c-1.175,0-2.35-0.001-3.524-0.001c-0.317,0-0.848-0.105-1.148,0.031c-0.244,0.11-0.107,1.022-0.108,1.214
			c-0.013,2.445,0.012,4.893-0.011,7.337c-0.02,2.328-0.051,4.655-0.041,6.983c0.005,1.101-0.062,2.227,0.016,3.323
			c0.034,0.493,2.006,0.234,2.384,0.235C42.768,70.02,47.607,70.034,52.446,70.002C54.64,69.989,46.952,70.039,52.446,70.002z
			 M52.881,58.301c-1-0.364-2.946-1.199-2.062-2.622c0.706-1.134,2.941-0.73,4.042-0.732c0.867,0,1.734,0.005,2.602-0.005
			c0.311-0.004,0.313-0.089,0.586-0.011c0.335,0.097,0.797,0.013,1.14,0.014c1.897,0.007,3.795,0.005,5.692,0.004
			c1.251,0,3.348,0.228,2.98,2.044c-0.365,1.808-2.826,1.402-4.151,1.402c-1.772,0-3.545-0.014-5.316,0.006
			c-1.206,0.021-0.692,1.869-0.723,2.742C56.309,59.688,54.729,58.972,52.881,58.301C52.301,58.09,53.897,58.67,52.881,58.301z"/>
		<path d="M78.431,70.001c1.577,0.035,3.155,0.026,4.732,0.029c0.356,0.002,1.503,0.256,1.498-0.313
			c-0.008-0.93-0.012-1.859-0.002-2.789c0.009-0.732-0.046-0.801-0.778-0.796c-0.766,0.006-1.53,0.007-2.296,0.007
			c-1.292-0.001-3.293,0.354-4.36-0.573c-0.497-0.432-0.4-1.081-0.4-1.674c0-0.762,0-1.522,0-2.285c0-1.65-0.001-3.302,0.002-4.952
			c0.002-1.034,0.822-1.837,1.854-1.838c0.792-0.001,1.584-0.001,2.376-0.001c0.439,0,1.957,0.255,2.274-0.062
			c0.257-0.255,0.834-3.746,0.63-3.836c-0.508-0.22-1.511-0.021-2.063-0.021c-0.882-0.001-1.765-0.013-2.647,0.008
			c-2.288,0.054-4.598,0.678-5.818,2.785c-1.249,2.154-0.82,5.181-0.822,7.493c-0.003,2.404-0.618,5.605,1.465,7.354
			C75.269,69.539,76.896,69.969,78.431,70.001C80.401,70.045,77.141,69.974,78.431,70.001z"/>
		<path d="M42.876,35.084c-0.058-0.566,0.95-1.613,1.251-2.072c0.5-0.762,0.999-1.523,1.498-2.286
			c0.949-1.449,1.947-2.877,2.848-4.356c-0.991-0.092-2.232,0.372-3.209,0.55c-1.156,0.211-2.312,0.423-3.467,0.634
			c-0.515,0.094-1.027,0.188-1.541,0.281c-0.534,0.096-0.824,0.835-1.096,1.239c-0.719,1.072-1.438,2.146-2.159,3.217
			c-0.648,0.965-1.298,1.929-1.945,2.894c-0.108,0.161-0.85,1.008-0.749,1.191c0.098,0.18,1.252-0.147,1.435-0.178
			c1.171-0.19,2.343-0.384,3.515-0.572C40.408,35.437,41.704,35.035,42.876,35.084C42.857,34.906,42.307,35.06,42.876,35.084z"/>
		<path d="M26.596,44.415c-1.497,0.188-2.984,0.454-4.474,0.697c-0.778,0.128-1.558,0.257-2.336,0.384
			c-0.835,0.137-1.593,0.063-2.095,0.797c-0.903,1.318-1.81,2.636-2.712,3.956c-0.821,1.2-1.802,2.395-2.466,3.69
			c1.445-0.081,2.943-0.521,4.369-0.781c0.765-0.14,1.53-0.277,2.296-0.416c0.37-0.065,0.734-0.152,1.104-0.216
			c0.475-0.081,0.603,0.029,0.866-0.345C22.966,49.593,24.786,47.008,26.596,44.415C26.224,44.461,26.205,44.974,26.596,44.415z"/>
		<path d="M44.126,38.25c-1.249,2.111-2.828,4.082-4.237,6.092c-0.188,0.267-1.624,2.007-0.957,1.888
			c1.213-0.198,2.426-0.398,3.64-0.597c1.14-0.186,2.271-0.403,3.412-0.573c0.479-0.071,1.037-0.026,1.34-0.473
			c0.363-0.535,0.728-1.07,1.092-1.604c1.43-2.096,2.87-4.184,4.273-6.297C49.892,37.388,46.967,37.748,44.126,38.25
			C44.065,38.351,45.06,38.084,44.126,38.25z"/>
		<path d="M26.065,55.018c-1.26,0.206-2.521,0.401-3.781,0.604c0,0.373,0.396,0.984,0.536,1.336
			c0.271,0.671,0.538,1.343,0.803,2.015c0.5,1.271,0.998,2.54,1.497,3.811c0.496-0.179,1.026-1.422,1.314-1.85
			c0.5-0.744,1.001-1.488,1.501-2.232s1-1.489,1.5-2.234c0.246-0.366,1.531-1.792,1.4-2.208
			C29.247,54.366,27.639,54.763,26.065,55.018C24.806,55.224,27.561,54.775,26.065,55.018z"/>
		<path d="M85.038,78.858c-0.766,0.101-0.292-3.483-0.453-4.098c-0.37-1.406-2.398-0.981-3.138-0.198
			c0-0.72-0.005-1.438,0.003-2.158c0.007-0.561-1.153-0.327-1.52-0.322c-0.125,0.002-0.292-0.028-0.297,0.157
			c-0.007,0.26,0.326,0.142,0.471,0.183c0.375,0.106,0.158,1.892,0.158,2.23c0,0.91,0,1.82,0.001,2.73
			c0,0.514,0.275,1.437-0.404,1.473c-0.133,0.007-0.248,0.188-0.113,0.29c0.201,0.152,0.789,0.034,1.015,0.035
			c0.071,0,1.811,0.031,1.404-0.285c-0.485-0.379-0.719,0.224-0.718-0.744c0-0.808-0.059-1.639,0.059-2.439
			c0.208-1.424,1.922-2.124,1.99-0.299c0.032,0.842,0.009,1.685,0.009,2.525c0,0.564,0.115,0.866-0.508,0.919
			c-0.095,0.009-0.419,0.164-0.171,0.294c0.274,0.145,0.875,0.027,1.181,0.027c0.341,0,0.683-0.001,1.023-0.002
			C85.321,79.177,85.331,78.823,85.038,78.858C84.679,78.905,85.146,78.846,85.038,78.858z"/>
		<path d="M45.677,72.948c-0.128-0.875-0.947-1.215-1.736-1.322c-1.165-0.158-2.68-0.317-3.843-0.119
			c-0.363,0.062-0.153,3.048-0.153,3.459c0,0.655,0.001,1.312,0.001,1.967c0,0.584-0.213,1.634,0.02,2.17
			c0.072,0.168,0.878,0.144,1.031,0.096c0.278-0.084,0.118-1.092,0.118-1.311c-0.001-0.436-0.318-2.123,0.365-2.164
			C43.265,75.618,46.042,75.443,45.677,72.948C45.577,72.274,45.82,73.932,45.677,72.948z M43.914,74.675
			c-0.587,0.511-1.793,0.793-2.555,0.557c-0.535-0.166-0.246-1.953-0.245-2.339c0.003-0.65-0.141-0.931,0.591-0.938
			c0.624-0.007,1.326-0.053,1.923,0.168C44.726,72.527,44.706,73.982,43.914,74.675C43.388,75.134,44.438,74.218,43.914,74.675z"/>
		<path d="M69.685,72.071c-0.059-0.258,0.137-0.528-0.288-0.526c-0.784,0.004-1.567,0.008-2.352,0.009
			c-0.516,0.001-4.079-0.298-4.228,0.123c-0.375,1.07,1.905,0.513,2.45,0.492c0.559-0.021,0.43,0.34,0.43,0.812
			c0,0.769,0,1.535,0,2.305c0,0.488-0.302,3.684,0.093,3.864c0.18,0.082,0.942,0.116,1.083-0.036
			c0.291-0.312,0.07-1.474,0.071-1.879c0.001-1.563,0.017-3.129-0.001-4.692C66.936,71.632,69.816,72.659,69.685,72.071
			C69.641,71.878,69.74,72.321,69.685,72.071z"/>
		<path d="M50.52,78.984c-0.711,0.127-0.39-2.461-0.398-2.944c-0.021-1.304-0.322-2.008-1.742-2.138
			c-0.688-0.062-1.375,0.069-2.025,0.281c-0.35,0.112-0.244,1.289-0.184,1.572c0.103,0.492,0.759-0.984,0.785-1.047
			c0.176-0.396,0.454-0.639,0.901-0.625c0.806,0.022,1.713,0.995,1.138,1.814c-0.489,0.698-2.204,0.538-2.939,0.909
			c-0.955,0.481-0.96,1.796-0.001,2.276c1.041,0.521,2.208,0.198,2.925-0.677c0,0.61-0.067,0.777,0.595,0.771
			c0.315-0.004,0.631,0,0.946-0.002C50.77,79.175,50.763,78.939,50.52,78.984C50.164,79.048,50.593,78.971,50.52,78.984z
			 M49.055,76.969c0.019,0.727-0.224,1.449-0.872,1.847c-0.664,0.406-1.596,0.203-1.74-0.634c-0.139-0.809,0.438-1.294,1.134-1.505
			c0.415-0.125,0.833-0.238,1.248-0.361C49.188,76.216,49.055,76.766,49.055,76.969C49.067,77.469,49.055,76.762,49.055,76.969z"/>
		<path d="M70.07,76.105c0.432,0.012,3.046,0.292,3.244-0.149c0.404-0.901-0.915-1.952-1.624-2.138
			c-2.522-0.658-4.217,2.736-2.634,4.589c0.68,0.795,1.935,1.157,2.92,0.755c0.506-0.207,0.934-0.611,1.164-1.107
			c0.097-0.208,0.152-0.435,0.185-0.661c0.034-0.238-0.318-0.32-0.381-0.085c-0.272,1.037-1.012,2.002-2.222,1.547
			C70.002,78.584,69.214,76.081,70.07,76.105C70.558,76.118,69.83,76.099,70.07,76.105z M70.4,74.311
			c1.379-1.056,1.957,1.538,1.226,1.491c-0.529-0.035-1.06-0.021-1.59-0.026C69.419,75.771,70.184,74.477,70.4,74.311
			C70.608,74.151,69.985,74.627,70.4,74.311z"/>
		<path d="M78.691,77.168c-0.324-0.076-0.482,0.959-0.658,1.188c-0.381,0.499-0.997,0.663-1.593,0.497
			c-1.334-0.371-1.191-2.586-0.918-3.609c0.352-1.317,1.864-1.651,2.45-0.293c0.023,0.055,0.518,1.514,0.721,0.918
			c0.102-0.299,0.158-1.617-0.115-1.832c-1-0.786-2.967-0.302-3.766,0.544c-0.867,0.917-1.003,2.337-0.388,3.43
			c0.562,1.001,1.792,1.594,2.916,1.23c0.446-0.146,0.838-0.438,1.096-0.831C78.539,78.247,79.034,77.248,78.691,77.168
			C78.51,77.125,78.88,77.212,78.691,77.168z"/>
		<path d="M63.278,76.521c-0.475-0.251-4.231-1.105-2.516-2.142c0.518-0.312,1.428-0.438,1.911,0.006
			c0.135,0.123,0.791,1.705,0.926,1.338c0.086-0.231,0.009-0.638,0.01-0.882c0.003-0.546,0.006-0.636-0.522-0.782
			c-0.791-0.218-1.674-0.279-2.438,0.069c-0.561,0.255-1.099,0.742-0.998,1.416c0.116,0.777,0.93,1.082,1.583,1.291
			c0.632,0.201,1.567,0.281,2.023,0.824c0.555,0.656-0.354,1.241-0.908,1.354c-0.536,0.109-1.292,0.138-1.687-0.315
			c-0.238-0.274-0.326-0.666-0.446-1c0.012,0.032-0.312-0.866-0.446-0.404c-0.083,0.283-0.139,1.464,0.126,1.661
			c0.579,0.431,1.746,0.451,2.426,0.348C63.687,79.093,64.888,77.373,63.278,76.521C62.806,76.271,64.2,77.009,63.278,76.521z"/>
		<path d="M55.744,74.718c0-1.466-1.93-0.492-2.396,0.229c0-0.125,0.104-0.912-0.117-0.914c-0.173-0.002-1.563-0.095-1.563,0.1
			c0,0.213,0.505,0.038,0.613,0.176c0.194,0.245,0.062,0.851,0.062,1.127c-0.006,1.045,0.215,2.344-0.008,3.36
			c-0.023,0.104-1.031,0.378-0.371,0.386c0.261,0.002,2.255,0.161,2.27-0.116c0.009-0.179-0.55-0.07-0.658-0.1
			c-0.271-0.069-0.127-0.78-0.128-0.967c-0.006-0.927-0.219-2.214,0.26-3.056c0.6-1.054,1.116-0.446,1.438,0.346
			c0.078,0.191,0.175,0.803,0.482,0.762C55.891,76.013,55.744,74.912,55.744,74.718z"/>
		<path d="M58.421,78.982c-0.57,0.069-0.312-1.418-0.312-1.764c-0.003-0.843-0.012-1.686-0.002-2.528
			c0.01-0.949-0.636-0.679-1.446-0.664c-0.685,0.008,0.292,0.275,0.315,0.352c0.146,0.481,0.218,4.52-0.178,4.605
			c-0.892,0.196,0.043,0.198,0.526,0.199c0.408,0.001,0.856,0.049,1.261,0.003C58.812,79.159,58.57,78.964,58.421,78.982
			C58.149,79.016,58.508,78.972,58.421,78.982z"/>
		<path d="M56.744,72.836c-0.005,0.743,1.427,0.741,1.401-0.01C58.123,72.07,56.749,72.073,56.744,72.836z"/>
	</g>
</g>
</svg>
