<?xml version="1.0" encoding="UTF-8" standalone="no"?>
<!-- Generator: Adobe Illustrator 15.0.2, SVG Export Plug-In . SVG Version: 6.00 Build 0)  -->

<svg
   xmlns:dc="http://purl.org/dc/elements/1.1/"
   xmlns:cc="http://creativecommons.org/ns#"
   xmlns:rdf="http://www.w3.org/1999/02/22-rdf-syntax-ns#"
   xmlns:svg="http://www.w3.org/2000/svg"
   xmlns="http://www.w3.org/2000/svg"
   xmlns:xlink="http://www.w3.org/1999/xlink"
   xmlns:sodipodi="http://sodipodi.sourceforge.net/DTD/sodipodi-0.dtd"
   xmlns:inkscape="http://www.inkscape.org/namespaces/inkscape"
   version="1.0"
   id="Layer_1"
   x="0px"
   y="0px"
   width="100"
   height="98.422806"
   viewBox="0 0 99.999996 98.422797"
   enable-background="new 0 0 2481 2073"
   xml:space="preserve"
   inkscape:version="0.48.4 r9939"
   sodipodi:docname="logo.espci.marker.svg"><metadata
     id="metadata15"><rdf:RDF><cc:Work
         rdf:about=""><dc:format>image/svg+xml</dc:format><dc:type
           rdf:resource="http://purl.org/dc/dcmitype/StillImage" /><dc:title></dc:title></cc:Work></rdf:RDF></metadata><defs
     id="defs13"><linearGradient
       id="SVGID_1_"
       gradientUnits="userSpaceOnUse"
       x1="263.8389"
       y1="-344.77591"
       x2="331.28519"
       y2="-344.77591"
       gradientTransform="matrix(1,0,0,-1,-247.5,-270)"><stop
         offset="0.0023"
         style="stop-color:#217939"
         id="stop60" /><stop
         offset="1"
         style="stop-color:#8DC63F"
         id="stop62" /></linearGradient><linearGradient
       inkscape:collect="always"
       xlink:href="#SVGID_1_"
       id="linearGradient4139"
       gradientUnits="userSpaceOnUse"
       gradientTransform="matrix(1,0,0,-1,-247.5,-270)"
       x1="263.8389"
       y1="-344.77591"
       x2="331.28519"
       y2="-344.77591" /></defs><sodipodi:namedview
     pagecolor="#ffffff"
     bordercolor="#666666"
     borderopacity="1"
     objecttolerance="10"
     gridtolerance="10"
     guidetolerance="10"
     inkscape:pageopacity="0"
     inkscape:pageshadow="2"
     inkscape:window-width="1002"
     inkscape:window-height="902"
     id="namedview11"
     showgrid="false"
     fit-margin-top="0"
     fit-margin-left="0"
     fit-margin-right="0"
     fit-margin-bottom="0"
     inkscape:zoom="1.2880054"
     inkscape:cx="-24.954934"
     inkscape:cy="63.821164"
     inkscape:window-x="163"
     inkscape:window-y="120"
     inkscape:window-maximized="0"
     inkscape:current-layer="Layer_1" /><path
     style="opacity:0.36213995;fill:#000000;fill-opacity:0.57534246;fill-rule:evenodd;stroke:none"
     inkscape:connector-curvature="0"
     id="path7"
     d="m 30.209036,98.422796 c 5.626411,-5.553785 9.034218,-10.843153 11.506341,-16.105002 1.833744,-3.903077 1.567241,-6.021578 4.572524,-11.674019 6.681738,-11.369765 9.706537,-13.496243 21.51007,-17.373402 6.864565,-1.582623 14.718733,-1.713817 21.487151,0.716469 5.534065,1.987211 8.750351,5.213924 9.994611,8.218802 1.016807,2.455504 0.916107,4.971064 -0.04462,7.494512 -1.002761,2.63388 -2.974216,5.333232 -6.887658,8.151162 -2.005011,1.443608 -4.228229,2.588461 -6.259488,3.440189 -2.055894,0.862004 -4.129904,1.39643 -6.213154,2.036432 -4.066587,1.249335 -8.226449,2.166641 -12.393591,3.082183 -12.412046,2.726586 -24.678961,5.712499 -37.272126,12.012674 z"
     clip-rule="evenodd"
     sodipodi:nodetypes="cscccssccsccc" /><path
     style="fill:#f5f5f5;fill-opacity:0.78431374;stroke:#e86c52;stroke-width:2.93298769000000004;stroke-linecap:round;stroke-linejoin:miter;stroke-miterlimit:10;stroke-opacity:1;stroke-dasharray:none"
     inkscape:connector-curvature="0"
     id="path5"
     d="M 30.134416,91.679377 C 28.016291,81.541793 24.281731,73.10552 19.758352,65.286719 16.403154,59.486935 12.516319,54.133673 8.9199986,48.509538 7.719467,46.63206 6.6834123,44.648623 5.5298244,42.700104 3.2231948,38.804023 1.3530149,34.286734 1.4718619,28.427076 1.5879664,22.70181 3.2863003,18.10919 5.7353248,14.354231 9.7632348,8.1781947 16.510136,3.1145772 25.562847,1.7838334 c 7.401689,-1.08800819 14.341307,0.7501202 19.262511,3.5558198 4.021402,2.2926179 7.135594,5.3551178 9.502761,8.9644128 2.470769,3.767167 4.172163,8.217672 4.314883,14.022741 0.07305,2.974145 -0.426462,5.728351 -1.130155,8.012944 -0.712153,2.312443 -1.857497,4.245431 -2.876506,6.310253 -1.989168,4.030474 -4.48305,7.723246 -6.985838,11.418397 -7.45475,11.006267 -14.451733,22.230688 -17.516087,37.610976 z"
     stroke-miterlimit="10"
     clip-rule="evenodd" /><g
     transform="matrix(0.61562475,0,0,0.61562475,-0.7233718,-3.6321341)"
     id="g3"><path
       style="fill:#fadca4"
       inkscape:connector-curvature="0"
       d="m 84.013,41.098 c 0.01,0.011 0.017,0.02 0.037,0.035 -0.019,-0.014 -0.028,-0.033 -0.04,-0.051 0.002,0.005 0.002,0.01 0.003,0.016 z"
       id="path5-6" /><path
       style="fill:#fadca4"
       inkscape:connector-curvature="0"
       d="m 84.05,41.133 c 0,-0.116 0,-0.232 0,-0.348 -0.069,-0.037 -0.139,-0.076 -0.208,-0.113 0.008,0.016 0.008,0.021 -0.014,-0.007 0.091,0.12 0.143,0.253 0.178,0.393 0.019,0.005 0.044,0.024 0.044,0.075 z"
       id="path7-7" /><path
       style="fill:#d68d41"
       inkscape:connector-curvature="0"
       d="m 43.323,63.839 c -0.255,0.034 -0.628,-0.183 -0.7,0.201 -0.086,0.466 0.28,0.376 0.593,0.427 -0.281,-0.045 0.193,-0.109 0,0 0.193,-0.109 0.53,0.116 0.614,-0.189 0.038,-0.139 0.039,-0.381 -0.12,-0.45 -0.121,-0.054 -0.264,-0.006 -0.387,0.011 z m -0.136,0.462 c -0.163,0.01 -0.477,0.017 -0.375,-0.252 0.058,-0.148 0.282,-0.067 0.398,-0.109 0.162,0.045 0.482,-0.084 0.45,0.199 -0.023,0.216 -0.326,0.152 -0.473,0.162 z"
       id="path9" /><path
       style="fill:#d68d41"
       inkscape:connector-curvature="0"
       d="m 43.21,63.939 c -0.141,0.051 0.171,0.048 0,0 l 0,0 z"
       id="path11" /><path
       style="fill:#d69a55"
       inkscape:connector-curvature="0"
       d="m 50.486,81.004 c -0.019,-0.012 -0.039,-0.019 -0.053,-0.006 0.01,0.006 0.01,0.004 0.018,0.01 0.016,0.002 0.023,-0.004 0.035,-0.004 z"
       id="path13" /><path
       style="fill:#d69a55"
       inkscape:connector-curvature="0"
       d="m 49.288,80.267 c 0.008,0.007 0.015,0.007 0.023,0.014 0.391,0.114 -0.007,-0.019 -0.023,-0.014 z"
       id="path15" /><path
       style="fill:#d69a55"
       inkscape:connector-curvature="0"
       d="m 49.311,80.28 c -0.021,-0.009 -0.037,-0.009 -0.055,-0.011 -0.011,0.014 10e-4,0.04 0.055,0.011 z"
       id="path17" /><path
       style="fill:#d69a55"
       inkscape:connector-curvature="0"
       d="m 50.554,80.908 c -0.075,-0.133 -0.439,-0.278 -0.522,-0.322 -0.231,-0.121 -0.469,-0.232 -0.72,-0.306 -0.068,0.034 -0.136,0.071 -0.205,0.105 -0.015,0.008 -0.027,-0.003 -0.042,0 -0.009,0.012 -0.018,0.023 -0.026,0.036 0.257,0.146 0.529,0.268 0.807,0.373 0.078,0.029 0.424,0.189 0.604,0.213 -0.006,-0.004 -0.01,-0.006 -0.016,-0.01 0.058,-0.051 0.088,-0.079 0.12,-0.089 z"
       id="path19" /><path
       style="fill:#d99045"
       inkscape:connector-curvature="0"
       d="m 77.092,43.928 c -0.045,0.08 -0.114,0.168 -0.217,0.155 -0.098,-0.012 -0.177,-0.087 -0.26,-0.133 -0.107,-0.06 -0.148,0.051 -0.269,-0.001 -0.002,-10e-4 -0.004,-0.003 -0.006,-0.004 0.157,0.08 0.272,0.232 0.432,0.311 0.239,0.119 0.378,-0.158 0.45,-0.341 -0.002,0 -0.004,0 -0.006,0 -0.04,0.025 -0.082,0.039 -0.124,0.013 z"
       id="path21" /><path
       style="fill:#d68f3f"
       inkscape:connector-curvature="0"
       d="m 34.582,65.688 c -0.009,0 -0.011,-0.008 -0.019,-0.008 -0.001,0.013 0.002,0.021 0.019,0.008 z"
       id="path23" /><path
       style="fill:#d68f3f"
       inkscape:connector-curvature="0"
       d="m 34.26,65.431 c -0.036,-0.055 -0.071,-0.11 -0.106,-0.166 -0.039,-0.019 -0.071,-0.044 -0.136,-0.04 0.036,-0.002 0.068,0.176 0,0 0.086,0.221 0.159,0.451 0.26,0.666 0.122,0.262 0.258,-0.113 0.305,-0.203 -0.228,0.177 -0.246,-0.136 -0.323,-0.257 z"
       id="path25" /><path
       style="fill:#f5cd93"
       inkscape:connector-curvature="0"
       d="m 40.459,39.326 c 0.266,-0.033 0.488,0.049 0.633,0.282 -0.248,-0.597 -0.666,-0.313 -1.05,-0.203 0.016,0.002 0.034,0 0.05,10e-4 0.004,-0.002 0.005,-0.011 0.01,-0.012 0.12,-0.023 0.237,-0.054 0.357,-0.068 z"
       id="path27" /><path
       style="fill:#d0ab78"
       inkscape:connector-curvature="0"
       d="m 50.554,80.908 c -0.031,0.01 -0.062,0.038 -0.12,0.09 0.014,-0.013 0.034,-0.006 0.053,0.006 0.037,0.023 0.053,0.059 -0.035,0.004 -0.008,-0.006 -0.008,-0.004 -0.018,-0.01 0.006,0.004 0.01,0.006 0.016,0.01 0.182,0.121 0.357,0.211 0.564,0.074 -0.1,-0.046 -0.199,-0.092 -0.299,-0.137 -0.084,-0.039 -0.123,-0.05 -0.161,-0.037 z"
       id="path29" /><path
       style="fill:#df9a56"
       inkscape:connector-curvature="0"
       d="m 59.768,43.368 c 0.035,-0.023 0.059,0.036 -0.041,0.084 0.136,-0.066 0.265,-0.175 0.215,-0.342 -0.043,-0.143 -0.18,-0.137 -0.301,-0.12 0.07,0.015 0.201,0.062 -0.033,0.004 0.273,0.068 0.267,0.216 0.16,0.374 z"
       id="path31" /><path
       style="fill:#df9a56"
       inkscape:connector-curvature="0"
       d="m 59.731,43.42 c -0.002,0.011 -0.003,0.021 -0.005,0.032 0.006,-0.032 0.017,-0.046 0.025,-0.061 -0.006,0.01 -0.011,0.02 -0.02,0.029 z"
       id="path33" /><path
       style="fill:#d5b68a"
       inkscape:connector-curvature="0"
       d="m 51.195,81.262 c 0.115,0.195 0.29,0.211 0.598,0.227 -0.25,-0.184 -0.391,-0.289 -0.598,-0.227 z"
       id="path35" /><path
       style="fill:#da994a"
       inkscape:connector-curvature="0"
       d="m 49.311,80.28 c -0.054,0.028 -0.066,0.003 -0.055,-0.011 0.008,-0.009 0.025,-0.014 0.055,0.011 -0.008,-0.007 -0.015,-0.007 -0.023,-0.014 -0.09,-0.068 -0.167,-0.081 -0.247,-0.062 0.025,0.035 0.031,0.072 -0.023,0.115 -0.037,0.029 -0.105,0.021 -0.178,0.002 0.075,0.043 0.147,0.078 0.224,0.063 0.014,-0.003 0.027,0.008 0.042,0 0.069,-0.032 0.137,-0.07 0.205,-0.104 z"
       id="path37" /><path
       style="fill:#fbcd84"
       inkscape:connector-curvature="0"
       d="m 23.497,59.809 c -0.092,-0.041 -0.195,-0.088 -0.209,-0.08 -0.003,0.045 0.007,0.092 0.02,0.139 0.046,-0.049 0.114,-0.056 0.189,-0.059 z"
       id="path39" /><polygon
       style="fill:#fbdfa5"
       points="24.644,45.092 24.646,45.092 24.648,45.089 "
       id="polygon41" /><path
       style="fill:#fbdfa5"
       inkscape:connector-curvature="0"
       d="m 24.648,45.089 c -0.073,-0.04 -0.187,-0.131 -0.27,-0.119 0,0.015 -0.003,0.03 -0.003,0.045 -0.004,0.139 0.092,0.14 0.2,0.105 -0.003,-0.02 0.024,-0.057 0.073,-0.031 z"
       id="path43" /><path
       style="fill:#0c528d"
       inkscape:connector-curvature="0"
       d="m 19.144,23.307 c -0.093,0.173 -0.191,0.324 -0.136,0.583 0.184,-0.206 0.229,-0.371 0.136,-0.583 z"
       id="path45" /><path
       style="fill:#0c528d"
       inkscape:connector-curvature="0"
       d="m 60.219,46.63 c 0.002,0 0.003,0 0.004,0 0.027,0 0.038,0 -0.004,0 z"
       id="path47" /><path
       style="fill:#0c528d"
       inkscape:connector-curvature="0"
       d="m 60.223,46.63 c -0.12,0 -0.728,10e-4 -0.004,0 -0.475,10e-4 -0.947,0.003 -1.422,0.003 -0.252,0 -0.506,0 -0.758,-0.002 -0.207,-10e-4 -0.455,-0.044 -0.656,0.016 -0.146,0.045 -0.226,0.173 -0.273,0.311 -0.084,0.237 -0.169,0.472 -0.256,0.707 -0.173,0.469 -0.344,0.939 -0.527,1.403 -0.711,1.804 -1.424,3.608 -2.137,5.413 -0.212,-0.339 -0.339,-0.792 -0.495,-1.168 -0.187,-0.445 -0.371,-0.891 -0.557,-1.336 -0.304,-0.988 -0.689,-1.949 -1.103,-2.895 -0.199,-0.456 -0.35,-0.938 -0.521,-1.404 -0.086,-0.234 -0.172,-0.469 -0.258,-0.703 -0.067,-0.183 -0.145,-0.348 -0.367,-0.347 -1.038,0.006 -2.076,0.002 -3.114,0.002 2.13,4.747 4.303,9.472 6.399,14.235 1.104,-2.453 2.201,-4.905 3.299,-7.359 0.572,-1.279 1.141,-2.56 1.721,-3.834 0.284,-0.625 0.567,-1.252 0.855,-1.877 0.141,-0.305 0.309,-0.606 0.428,-0.919 0.085,-0.223 -0.072,-0.246 -0.254,-0.246 z m -6.092,13.845 c -0.01,-0.025 -0.019,-0.051 -0.027,-0.075 0.07,-0.007 0.079,0.017 0.027,0.075 z"
       id="path49" /><path
       style="fill:none;stroke:#0c528d;stroke-width:0;stroke-linecap:round;stroke-linejoin:round"
       inkscape:connector-curvature="0"
       d="M 68.902,46.386 C 68.824,46.373 68.731,46.358 68.674,46.348"
       id="path51" /><path
       style="fill:#0c528d"
       inkscape:connector-curvature="0"
       d="m 69.465,46.828 c 0.005,-0.292 -0.287,-0.39 -0.559,-0.441 -0.061,-0.01 -0.143,-0.024 -0.275,-0.046 -0.608,-0.103 -1.298,-0.097 -1.871,0.163 -0.71,0.323 -1.127,0.959 -1.572,1.566 -0.044,-0.293 -0.017,-0.535 0.008,-0.825 0.012,-0.133 0.004,-0.269 -0.055,-0.39 -0.086,-0.18 -0.144,-0.186 -0.326,-0.204 -0.381,-0.036 -0.762,-0.026 -1.143,-0.019 -0.191,0.003 -0.382,0.006 -0.572,0.002 -0.165,-0.002 -0.344,-0.035 -0.507,0 -0.21,0.044 -0.231,0.252 -0.231,0.434 0,0.417 0.002,0.831 0.003,1.248 0.002,0.799 0.003,1.599 0.005,2.397 0.001,1.6 0.001,3.199 0,4.797 0,0.801 -0.002,1.6 -0.004,2.398 0,0.385 -10e-4,0.768 -0.002,1.152 -10e-4,0.365 -0.057,0.778 0.012,1.139 0.038,0.207 0.199,0.266 0.393,0.266 0.395,0.003 0.789,-0.023 1.186,-0.021 0.336,0.002 0.688,0.057 1.023,0.028 0.201,-0.019 0.328,-0.124 0.365,-0.324 0.053,-0.303 0.014,-0.634 0.013,-0.94 -0.002,-0.414 -0.003,-0.831 -0.004,-1.246 -0.002,-0.799 -0.002,-1.6 -0.001,-2.398 0,-0.799 0,-1.599 0,-2.397 -0.001,-0.69 -0.062,-1.407 0.043,-2.092 0.133,-0.858 0.641,-1.604 1.547,-1.733 0.41,-0.059 0.963,-0.031 1.342,0.147 0.161,0.125 0.272,0.133 0.307,-0.079 0.047,-0.297 0.203,-0.59 0.31,-0.871 0.134,-0.355 0.268,-0.711 0.398,-1.068 0.071,-0.202 0.163,-0.423 0.167,-0.643 z"
       id="path53" /><path
       style="fill:#0c528d"
       inkscape:connector-curvature="0"
       d="m 68.902,46.386 c 0.002,0 0.003,10e-4 0.004,10e-4 0.165,0.027 0.106,0.017 -0.004,-10e-4 z"
       id="path55" /><path
       style="fill:#0c528d"
       inkscape:connector-curvature="0"
       d="m 68.631,46.341 c 0.013,0.002 0.031,0.005 0.044,0.007 -0.036,-0.006 -0.06,-0.01 -0.044,-0.007 z"
       id="path57" /><path
       style="fill:none;stroke:#0c528d;stroke-width:0;stroke-linecap:round;stroke-linejoin:round"
       inkscape:connector-curvature="0"
       d="m 46.444,51.354 c 0,-0.002 0,0.004 0.003,0.017"
       id="path59" /><path
       style="fill:#0c528d"
       inkscape:connector-curvature="0"
       d="m 35.413,52.121 c 2.613,-0.002 0.172,-1.227 0,0 l 0,0 z"
       id="path61" /><path
       style="fill:#0c528d"
       inkscape:connector-curvature="0"
       d="m 28.116,68.117 c 0.092,-0.141 0.189,-0.279 0.291,-0.414 0.191,-0.251 0.402,-0.487 0.623,-0.713 0.057,-0.109 0.115,-0.217 0.189,-0.309 0.675,-0.837 1.283,-1.727 1.83,-2.651 0.255,-0.429 0.55,-0.833 0.798,-1.267 0.262,-0.457 0.498,-0.93 0.754,-1.39 0.518,-0.927 0.877,-1.929 1.328,-2.888 1.607,1.626 3.884,2.469 6.163,2.303 1.076,-0.078 2.137,-0.379 3.088,-0.89 0.486,-0.263 0.896,-0.599 1.339,-0.921 0.539,-0.393 1.007,-0.862 1.389,-1.406 0.149,-0.212 -0.078,-0.297 -0.251,-0.346 -0.161,-0.047 -0.315,-0.168 -0.46,-0.252 -0.19,-0.108 -0.38,-0.219 -0.569,-0.327 -0.294,-0.171 -0.613,-0.436 -0.936,-0.538 -0.284,-0.091 -0.492,0.328 -0.65,0.498 -0.415,0.445 -0.911,0.811 -1.457,1.078 -0.263,0.131 -0.537,0.238 -0.817,0.325 -0.143,0.046 -0.289,0.085 -0.435,0.12 -0.196,0.047 -0.423,0.018 -0.625,0.018 -0.355,0 -0.711,0.035 -1.053,-0.069 -0.292,-0.09 -0.581,-0.176 -0.861,-0.298 -0.489,-0.212 -0.946,-0.502 -1.324,-0.881 -0.386,-0.386 -0.679,-0.855 -0.875,-1.364 -0.068,-0.179 -0.41,-0.858 -0.071,-0.94 0.421,-0.102 0.927,-0.024 1.355,-0.025 0.641,0 1.282,-0.002 1.923,-0.002 1.25,-10e-4 2.5,-0.002 3.75,0 1.25,0.002 2.5,0.006 3.75,0.016 0.356,0.003 0.549,-0.123 0.515,-0.496 -0.055,-0.589 -0.049,-1.197 -0.172,-1.779 0,-0.002 0,-0.002 0,-0.004 l 0,0 c -0.231,-1.094 -0.646,-2.156 -1.306,-3.063 -0.659,-0.906 -1.543,-1.618 -2.543,-2.117 -0.269,-0.134 -0.473,-0.303 -0.78,-0.358 0,-0.083 -0.856,-0.286 -0.956,-0.311 -0.702,-0.175 -1.429,-0.236 -2.149,-0.178 -0.727,0.059 -1.439,0.235 -2.119,0.496 -0.635,0.245 -1.28,0.505 -1.824,0.92 -0.125,0.096 -0.244,0.196 -0.358,0.304 -0.043,0.041 -0.229,0.283 -0.277,0.283 -0.221,0.021 -0.261,0.303 -0.462,0.358 -0.149,0.042 -0.358,-0.608 -0.447,-0.725 -0.193,-0.256 -0.315,-0.563 -0.478,-0.843 -0.18,-0.311 -0.379,-0.611 -0.593,-0.898 -0.199,-0.268 -0.411,-0.524 -0.634,-0.771 -0.107,-0.118 -0.177,-0.252 -0.275,-0.378 -0.112,-0.144 -0.263,-0.244 -0.377,-0.381 -0.458,-0.549 -0.964,-1.057 -1.5,-1.53 -0.255,-0.225 -0.538,-0.426 -0.783,-0.661 -0.25,-0.239 -0.496,-0.482 -0.767,-0.696 -0.125,-0.099 -0.256,-0.191 -0.393,-0.272 -0.132,-0.079 -0.303,-0.133 -0.341,-0.285 -0.023,-0.094 -0.076,-0.089 -0.13,-0.053 -0.005,0.009 0.001,0.018 -0.005,0.029 -0.317,0.527 -0.825,0.925 -1.061,1.503 -0.006,0.008 -0.011,0.017 -0.017,0.025 0.047,0.039 0.107,0.047 0.138,0.112 0.075,0.159 0.184,0.217 0.328,0.302 0.132,0.077 0.229,0.226 0.347,0.327 0.106,0.088 0.196,0.182 0.268,0.298 0.018,0.028 0.041,0.051 0.059,0.078 0.055,0.041 0.109,0.083 0.162,0.125 0.118,0.097 0.231,0.201 0.335,0.312 0.135,0.146 0.383,0.412 0.34,0.627 10e-4,0.002 0.002,0.003 0.003,0.005 0.065,0.055 0.216,0.061 0.252,0.098 -0.121,0.249 0.213,0.537 0.341,0.718 0.217,0.304 0.422,0.618 0.651,0.913 0.091,0.117 0.239,0.232 0.253,0.367 0.007,0.069 0.041,0.124 0.076,0.178 0.135,0.014 0.193,0.073 0.283,0.195 0.171,0.233 0.315,0.485 0.414,0.757 0.034,0.095 0.062,0.192 0.084,0.29 0.065,0.104 0.131,0.208 0.198,0.312 0.019,0.15 0.088,0.275 0.15,0.411 0.057,0.166 0.144,0.328 0.185,0.499 0.045,0.184 0.036,0.371 0.078,0.556 0.074,0.329 0.154,0.66 0.297,0.966 0.07,0.151 0.175,0.283 0.241,0.435 0.08,0.185 0.092,0.398 0.105,0.597 0.02,0.301 0.127,0.627 0.072,0.929 0.014,0.013 0.025,0.033 0.032,0.073 0.015,0.086 0.033,0.17 0.049,0.256 0.032,0.172 0.062,0.343 0.072,0.516 0.013,0.206 -0.006,0.413 -0.073,0.607 -0.039,0.04 -0.085,0.064 -0.132,0.088 -0.001,0.012 -0.005,0.023 -0.006,0.035 -0.007,0.186 -0.018,0.37 -0.033,0.556 -0.032,0.399 -0.082,0.796 -0.144,1.192 -0.12,0.761 -0.287,1.514 -0.473,2.261 -0.053,0.214 -0.099,0.429 -0.146,0.644 0.117,0.119 0.08,0.254 0.034,0.432 -0.043,0.162 -0.102,0.321 -0.17,0.476 -0.035,0.079 -0.139,0.429 -0.252,0.254 -0.001,10e-4 -0.002,10e-4 -0.003,10e-4 -0.028,0.051 -0.059,0.1 -0.082,0.152 -0.153,0.355 -0.28,0.721 -0.43,1.077 -0.073,0.173 -0.394,0.676 -0.136,0.83 -0.166,-0.093 -0.47,0.494 -0.522,0.62 -0.068,0.164 -0.103,0.338 -0.139,0.51 0.011,0.016 0.028,0.023 0.037,0.039 0.042,0.393 -0.114,0.723 -0.474,0.883 -0.055,0.09 -0.101,0.18 -0.141,0.297 -0.132,0.377 -0.416,0.739 -0.62,1.082 -0.776,1.312 -1.644,2.561 -2.539,3.793 -0.891,1.227 -1.819,2.428 -2.801,3.584 -1.02,1.2 -2.037,2.406 -3.139,3.529 -0.354,0.363 -0.709,0.725 -1.063,1.086 -0.341,0.348 -0.669,0.763 -1.055,1.062 -0.156,0.12 -0.307,0.256 -0.398,0.435 -0.095,0.076 -0.236,0.093 -0.31,0.197 -0.061,0.086 -0.007,0.129 -0.108,0.183 -0.085,0.047 -0.163,0.104 -0.234,0.17 -0.159,0.147 -0.279,0.33 -0.391,0.515 0.2,-0.105 0.432,-0.188 0.577,-0.369 0.078,-0.1 0.117,-0.219 0.125,-0.343 0.139,0.003 0.285,-0.021 0.383,-0.128 0.061,-0.064 0.062,-0.098 0.143,-0.143 0.066,-0.035 0.127,-0.081 0.183,-0.131 0.116,-0.104 0.209,-0.229 0.318,-0.337 0.267,-0.267 0.548,-0.502 0.836,-0.743 0.56,-0.471 1.096,-0.967 1.606,-1.49 0.124,-0.123 0.244,-0.252 0.364,-0.379 0,-0.016 0.183,-0.125 0.201,-0.184 0.039,-0.137 0.237,-0.23 0.35,-0.325 0.153,-0.13 0.3,-0.266 0.443,-0.405 1.055,-1.036 2.098,-2.104 3.086,-3.205 0.239,-0.265 0.474,-0.537 0.702,-0.814 0.245,-0.299 0.516,-0.566 0.777,-0.85 0.499,-0.541 0.963,-1.112 1.396,-1.707 0.182,-0.205 0.364,-0.41 0.546,-0.613 0.003,-0.014 0.001,-0.024 0.011,-0.041 0.038,-0.078 0.083,-0.15 0.129,-0.221 z M 45.222,57.219 c 0.042,0.018 0.031,0.027 -0.033,0.027 0.01,-0.01 0.021,-0.017 0.033,-0.027 z m -7.651,3.113 c -0.164,0.039 -0.32,0.021 -0.469,-0.028 0.15,0.022 0.307,0.033 0.469,0.028 z m 9.073,-6.971 c -0.021,-0.152 -0.042,-0.302 -0.064,-0.451 0.065,0.141 0.072,0.294 0.064,0.451 z m -9.913,-3.55 c 0.161,-0.141 0.33,-0.272 0.503,-0.397 0.216,-0.155 0.534,-0.229 0.787,-0.306 0.533,-0.162 1.086,-0.236 1.642,-0.18 1.751,0.177 3.19,1.484 3.592,3.189 -2.614,0.001 -5.228,0.002 -7.842,0.004 0.129,-0.922 0.628,-1.703 1.318,-2.31 z"
       id="path63" /><path
       style="fill:#0c528d"
       inkscape:connector-curvature="0"
       d="m 46.552,51.866 c -0.062,-0.296 -0.095,-0.45 -0.104,-0.496 0.011,0.055 0.057,0.273 0.104,0.496 z"
       id="path65" /><path
       style="fill:#0c528d"
       inkscape:connector-curvature="0"
       d="m 46.552,51.866 c 0.026,0.122 0.055,0.261 0.093,0.438 l 0,0 c -0.02,-0.095 -0.056,-0.267 -0.093,-0.438 z"
       id="path67" /><path
       style="fill:#0c528d"
       inkscape:connector-curvature="0"
       d="m 46.646,52.307 c 0,10e-4 0,0.002 0,0.002 0.018,0.086 0.022,0.107 0,-0.002 z"
       id="path69" /><polygon
       style="fill:#0c528d"
       points="46.646,52.307 46.645,52.305 46.645,52.305 "
       id="polygon71" /><path
       style="fill:#0c528d"
       inkscape:connector-curvature="0"
       d="m 83.939,48.529 c 0,-0.386 0,-0.772 0,-1.159 0,-0.192 0,-0.386 0,-0.579 0,-0.241 -0.264,-0.116 -0.421,-0.11 -0.378,-0.043 -0.757,-0.063 -1.136,-0.061 -0.189,0.001 -0.379,0.007 -0.568,0.019 -0.176,0.012 -0.376,0.066 -0.546,0.02 -0.188,-0.052 -0.318,0.002 -0.329,0.206 -0.016,0.305 0.001,0.616 -10e-4,0.922 -0.008,1.594 -0.015,3.188 -0.022,4.784 -0.004,0.797 -0.008,1.594 -0.012,2.391 -0.004,0.582 -0.191,1.131 -0.496,1.628 -0.666,1.089 -1.834,1.397 -3.045,1.405 -0.336,0.001 -0.699,-0.014 -1.008,-0.15 -0.344,-0.152 -0.711,-0.273 -1,-0.518 -0.432,-0.371 -0.738,-0.857 -0.9,-1.402 -0.2,-0.668 -0.154,-1.361 -0.152,-2.05 0.002,-0.806 0.004,-1.608 0.006,-2.413 0.002,-0.805 0.004,-1.608 0.006,-2.413 0.002,-0.385 0.002,-0.771 0.002,-1.158 0.001,-0.192 0.002,-0.386 0.002,-0.579 10e-4,-0.163 0.047,-0.397 -0.016,-0.551 -0.061,-0.148 -0.328,-0.09 -0.455,-0.092 -0.189,-0.002 -0.378,-0.003 -0.566,-0.006 -0.409,-0.005 -0.818,-0.012 -1.227,-0.03 -0.189,-0.009 -0.471,-0.062 -0.624,0.088 -0.175,0.17 -0.114,0.519 -0.112,0.732 0.012,1.591 0.008,3.181 0.008,4.772 0,0.795 0.001,1.591 0.004,2.387 0.004,0.731 0.057,1.45 0.271,2.154 0.102,0.33 0.248,0.637 0.376,0.955 0.13,0.321 0.329,0.582 0.514,0.87 0.358,0.558 0.824,0.904 1.347,1.29 1.809,1.334 4.471,1.219 6.281,-0.047 0.186,-0.129 0.362,-0.271 0.528,-0.425 0.149,-0.14 0.28,-0.371 0.489,-0.423 -0.025,0.627 -0.012,1.264 -0.191,1.869 -0.15,0.513 -0.422,0.981 -0.795,1.363 -0.188,0.191 -0.396,0.361 -0.62,0.508 -0.309,0.205 -0.667,0.301 -1.022,0.393 -0.178,0.045 -0.356,0.082 -0.537,0.109 -0.082,0.014 -0.19,0 -0.27,0.029 -0.102,0.035 -0.036,0.202 -0.043,0.276 -0.021,0.215 -0.035,0.432 -0.045,0.647 -0.014,0.37 -0.011,0.74 0.01,1.111 0.008,0.141 -0.041,0.73 0.148,0.773 0.141,0.034 0.352,-0.021 0.494,-0.034 0.222,-0.021 0.441,-0.055 0.66,-0.099 0.941,-0.195 1.849,-0.592 2.627,-1.156 0.625,-0.453 1.166,-1.02 1.562,-1.684 0.203,-0.341 0.366,-0.704 0.487,-1.082 0.066,-0.217 0.129,-0.438 0.186,-0.656 0.035,-0.13 0.059,-0.264 0.055,-0.398 -0.006,-0.132 0.052,-0.242 0.098,-0.364 -0.035,0.094 0,-4.633 0,0 0,-3.217 0,-6.435 0,-9.651 -0.002,-0.802 -0.002,-1.607 -0.002,-2.411 z"
       id="path73" /><path
       style="fill:none;stroke:#0c528d;stroke-width:0;stroke-linecap:round;stroke-linejoin:round"
       inkscape:connector-curvature="0"
       d="m 27.149,36.106 c 0,0 -0.009,0.01 -0.024,0.026"
       id="path75" /><path
       style="fill:#0c528d"
       inkscape:connector-curvature="0"
       d="m 27.125,36.132 c -0.03,0.033 -0.088,0.096 -0.188,0.204 l 0,0 c 0.08,-0.087 0.151,-0.164 0.188,-0.204 z"
       id="path77" /><path
       style="fill:#0c528d"
       inkscape:connector-curvature="0"
       d="m 26.936,36.337 c 0,0 0,0 0,0 -0.277,0.3 -0.646,0.701 0,0 z"
       id="path79" /><polygon
       style="fill:#0c528d"
       points="26.936,36.337 26.937,36.336 26.937,36.336 "
       id="polygon81" /><path
       style="fill:#0c528d"
       inkscape:connector-curvature="0"
       d="m 24.555,36.941 c 0.846,0.403 1.775,0.052 2.38,-0.604 0,0 0.001,0 0.001,-0.001 l 0,0 c 0.884,-0.959 1.257,-2.29 1.178,-3.579 -0.067,-1.089 -0.609,-2.438 -1.78,-2.729 -1.053,-0.263 -2.008,0.514 -2.523,1.363 -0.588,0.969 -0.812,2.186 -0.652,3.306 0.126,0.886 0.545,1.839 1.396,2.244 z"
       id="path83" /><path
       style="fill:#0c528d"
       inkscape:connector-curvature="0"
       d="m 20.341,37.196 c 0.419,0.573 0.897,1.103 1.435,1.567 0.524,0.454 0.96,0.966 1.5,1.404 0.221,0.18 0.426,0.388 0.659,0.551 0.133,0.095 0.274,0.145 0.42,0.048 0.195,-0.131 0.341,-0.352 0.486,-0.532 0.112,-0.139 0.193,-0.307 0.334,-0.417 0.091,-0.071 0.151,-0.168 0.063,-0.268 -0.169,-0.19 -0.424,-0.338 -0.62,-0.5 -0.285,-0.234 -0.568,-0.474 -0.847,-0.718 -0.534,-0.466 -1.053,-0.95 -1.548,-1.458 -0.497,-0.509 -0.969,-1.041 -1.407,-1.601 -0.458,-0.585 -0.812,-1.258 -1.158,-1.915 -0.38,-0.72 -0.642,-1.497 -0.826,-2.288 -0.181,-0.78 -0.333,-1.583 -0.318,-2.381 0.007,-0.441 0.015,-0.882 0.022,-1.324 0.004,-0.219 0.034,-0.414 0.06,-0.629 0.024,-0.204 -0.003,-0.404 0.026,-0.608 0.062,-0.427 0.123,-0.854 0.184,-1.281 0.013,-0.091 0.026,-0.183 0.04,-0.274 0.055,-0.038 0.104,-0.087 0.123,-0.152 0.039,-0.129 -0.03,-0.277 -0.08,-0.394 -0.033,0.113 -0.093,0.212 -0.137,0.321 -0.043,0.106 -0.008,0.201 -0.053,0.304 -0.114,0.271 -0.199,0.551 -0.269,0.835 -0.144,0.581 -0.253,1.174 -0.36,1.763 -0.228,1.257 -0.355,2.538 -0.256,3.814 0.178,2.272 1.016,4.419 2.527,6.133 z"
       id="path85" /><path
       style="fill:#0c528d"
       inkscape:connector-curvature="0"
       d="m 20.341,37.196 c -1.181,-1.34 0.438,0.598 0,0 l 0,0 z"
       id="path87" /><path
       style="fill:#e88018"
       inkscape:connector-curvature="0"
       d="m 83.842,40.672 c -0.031,-0.062 -0.221,-0.359 -0.014,-0.007 0.022,0.028 0.022,0.023 0.014,0.007 z"
       id="path89" /><path
       style="fill:#e88018"
       inkscape:connector-curvature="0"
       d="M 84.01,41.082 C 84.008,41.074 84.008,41.066 84.006,41.059 83.971,40.92 83.919,40.786 83.828,40.666 83.496,40.1 83.105,39.714 82.506,39.437 c -0.547,-0.252 -1.252,-0.234 -1.819,-0.058 -1.083,0.338 -1.81,1.365 -1.759,2.5 0.052,1.171 0.908,2.153 2.059,2.371 0.553,0.104 1.139,0.048 1.662,-0.163 0.238,-0.097 0.465,-0.226 0.664,-0.391 0.111,-0.092 0.51,-0.417 0.436,-0.583 -0.117,-0.267 -0.517,-0.361 -0.774,-0.316 -0.319,0.056 -0.55,0.34 -0.854,0.452 -0.569,0.211 -1.251,0.102 -1.668,-0.36 -0.105,-0.117 -0.379,-0.45 -0.278,-0.628 0.05,-0.09 0.188,-0.098 0.278,-0.101 0.246,-0.008 0.494,0.007 0.74,0.009 0.953,0.01 1.905,0.004 2.858,0.007 0,-0.346 0.04,-0.731 -0.037,-1.078 -0.002,-0.006 -0.002,-0.011 -0.004,-0.016 z m -1.852,0.014 c -0.067,-10e-4 -0.553,-0.002 0,0 -0.635,-0.002 -1.271,0.021 -1.905,-0.012 0.083,-0.067 0.167,-0.158 0.153,-0.274 -0.001,-0.012 -0.033,-0.146 -0.055,-0.129 0.154,0.029 0.282,-0.052 0.413,-0.137 0.239,-0.154 0.546,-0.21 0.825,-0.18 0.25,0.028 0.492,0.129 0.671,0.308 0.201,0.2 0.252,0.423 -0.102,0.424 z"
       id="path91" /><path
       style="fill:#e88018"
       inkscape:connector-curvature="0"
       d="m 49.879,40.602 c 0.184,0.407 0.368,0.812 0.55,1.219 0.379,0.838 0.758,1.677 1.137,2.515 l 1.141,-2.515 c 0.184,-0.407 0.368,-0.813 0.551,-1.22 0.086,-0.188 0.171,-0.376 0.256,-0.564 0.064,-0.142 0.209,-0.344 0.186,-0.509 -0.031,-0.23 -0.53,-0.175 -0.689,-0.156 -0.262,0.031 -0.469,0.167 -0.585,0.407 -0.16,0.335 -0.224,0.729 -0.359,1.077 -0.159,0.409 -0.337,0.811 -0.495,1.22 -0.156,-0.401 -0.327,-0.795 -0.486,-1.195 -0.138,-0.344 -0.222,-0.715 -0.369,-1.054 -0.11,-0.252 -0.308,-0.423 -0.582,-0.461 -0.147,-0.021 -0.662,-0.062 -0.701,0.148 -0.027,0.143 0.099,0.322 0.155,0.445 0.096,0.213 0.193,0.429 0.29,0.643 z"
       id="path93" /><path
       style="fill:#e88018"
       inkscape:connector-curvature="0"
       d="m 41.186,39.587 c 0.114,-0.082 -0.334,-0.365 -0.093,0.021 -0.145,-0.233 -0.368,-0.315 -0.633,-0.282 -0.12,0.015 -0.238,0.045 -0.357,0.068 -0.004,0.001 -0.005,0.01 -0.01,0.012 -0.108,0.049 -0.084,0.445 -0.091,0.564 -0.041,0.789 -0.024,1.577 -0.014,2.365 0.005,0.378 0.007,0.757 10e-4,1.135 -0.003,0.2 -0.104,0.629 0.175,0.693 0.16,0.036 0.351,0.004 0.516,0.011 0.257,0.009 0.386,-0.122 0.38,-0.383 -0.021,-0.79 -0.015,-1.58 0.005,-2.371 0.013,-0.498 0.283,-0.927 0.777,-1.06 0.436,-0.117 1.004,-0.054 1.272,0.349 0.139,0.21 0.171,0.457 0.183,0.703 0.019,0.411 0.025,0.821 0.025,1.232 0,0.285 -0.002,0.569 -0.005,0.853 -0.002,0.174 -0.031,0.395 0.087,0.542 0.16,0.199 0.623,0.178 0.831,0.078 0.135,-0.065 0.168,-0.212 0.17,-0.351 0.005,-0.271 -0.014,-0.544 -0.014,-0.816 0,-0.56 0.013,-1.121 -0.002,-1.68 -0.021,-0.721 -0.34,-1.441 -0.994,-1.797 -0.309,-0.167 -0.662,-0.238 -1.012,-0.223 -0.207,0.008 -0.407,0.043 -0.599,0.127 -0.193,0.084 -0.387,0.183 -0.598,0.21 z"
       id="path95" /><path
       style="fill:#e88018"
       inkscape:connector-curvature="0"
       d="m 63.994,39.286 c 10e-4,0 10e-4,0 0.002,0 -0.05,-0.001 -0.033,-0.001 -0.002,0 z"
       id="path97" /><path
       style="fill:#e88018"
       inkscape:connector-curvature="0"
       d="m 62.332,44.059 c 0.141,0.155 0.433,0.126 0.618,0.108 0.19,-0.019 0.335,-0.098 0.367,-0.3 0.056,-0.336 -0.007,-0.715 -0.008,-1.055 -0.003,-0.385 0.003,-0.77 0.007,-1.155 0.004,-0.31 -0.053,-0.683 0.081,-0.974 0.091,-0.195 0.271,-0.309 0.478,-0.348 0.305,-0.059 0.545,-0.071 0.73,-0.361 0.117,-0.183 0.184,-0.53 -0.029,-0.678 -0.166,-0.115 -0.398,-0.01 -0.58,-0.011 0.165,0 0.057,0 -0.002,0 -0.242,0 -0.475,0.326 -0.698,0.244 -0.229,-0.084 -0.403,-0.271 -0.67,-0.202 -0.206,0.054 -0.317,0.251 -0.353,0.448 -0.068,0.364 -0.02,0.771 -0.02,1.14 0,0.791 0.021,1.583 0.005,2.373 -0.004,0.22 -0.092,0.585 0.074,0.771 z"
       id="path99" /><path
       style="fill:#e88018"
       inkscape:connector-curvature="0"
       d="m 73.025,41.5 c 0,-0.564 0.068,-1.177 -0.021,-1.735 -0.05,-0.305 -0.229,-0.492 -0.55,-0.416 -0.091,0.02 -0.179,0.055 -0.265,0.093 -0.168,0.077 -0.188,0.097 -0.204,0.285 -0.027,0.317 -0.044,0.635 -0.054,0.953 -0.019,0.635 -0.008,1.271 0.004,1.908 0.006,0.317 0.012,0.635 0.016,0.953 0.001,0.159 0.002,0.318 0.001,0.477 -0.001,0.125 0.146,0.116 0.231,0.124 0.195,0.018 0.583,0.111 0.745,-0.054 0.167,-0.171 0.101,-0.571 0.1,-0.781 0,-0.003 0,-0.007 0,-0.01 -0.003,-0.6 -0.003,-1.198 -0.003,-1.797 z"
       id="path101" /><path
       style="fill:none;stroke:#e88018;stroke-width:0;stroke-linecap:round;stroke-linejoin:round"
       inkscape:connector-curvature="0"
       d="m 37.708,42.606 c 0,0.019 0,0.027 0,0.027"
       id="path103" /><path
       style="fill:none;stroke:#e88018;stroke-width:0;stroke-linecap:round;stroke-linejoin:round"
       inkscape:connector-curvature="0"
       d="m 37.722,42.05 c 0,-0.002 0,0.014 -0.001,0.053"
       id="path105" /><path
       style="fill:#e88018"
       inkscape:connector-curvature="0"
       d="m 37.711,42.513 c -10e-4,0.038 -0.002,0.071 -0.002,0.093 0,-0.019 10e-4,-0.05 0.002,-0.093 z"
       id="path107" /><path
       style="fill:#e88018"
       inkscape:connector-curvature="0"
       d="m 37.721,42.103 c -10e-4,0.036 -0.002,0.085 -0.003,0.14 l 0,0 c 10e-4,-0.067 0.002,-0.109 0.003,-0.14 z"
       id="path109" /><path
       style="fill:#e88018"
       inkscape:connector-curvature="0"
       d="m 37.714,42.361 c -10e-4,0.062 -0.002,0.112 -0.003,0.152 0.001,-0.045 0.002,-0.096 0.003,-0.152 z"
       id="path111" /><path
       style="fill:#e88018"
       inkscape:connector-curvature="0"
       d="m 37.714,42.361 c 0.001,-0.038 0.002,-0.072 0.003,-0.119 l 0,0 c -10e-4,0.039 -0.002,0.078 -0.003,0.119 z"
       id="path113" /><path
       style="fill:#e88018"
       inkscape:connector-curvature="0"
       d="m 37.505,39.387 c -0.187,-0.054 -0.466,-0.054 -0.652,0.01 -0.234,0.079 -0.221,0.338 -0.212,0.543 0.016,0.413 0.019,0.828 0.015,1.24 -0.006,0.583 0.083,1.301 -0.369,1.752 -0.344,0.343 -0.913,0.396 -1.334,0.167 -0.524,-0.286 -0.571,-0.894 -0.586,-1.425 -0.012,-0.379 -0.018,-0.757 -0.013,-1.136 0.003,-0.287 0.109,-0.715 -0.025,-0.983 -0.139,-0.277 -0.881,-0.306 -0.992,0.002 -0.056,0.154 -0.025,0.333 -0.021,0.492 0.007,0.28 10e-4,0.56 -0.002,0.841 -0.004,0.502 -0.037,1.034 0.017,1.539 0.076,0.718 0.501,1.355 1.153,1.672 1.407,0.686 3.196,-0.24 3.234,-1.857 l 0,0 c 0.019,-0.777 -0.016,-1.556 0.008,-2.333 0.005,-0.203 0.016,-0.457 -0.221,-0.524 z"
       id="path115" /><path
       style="fill:#e88018"
       inkscape:connector-curvature="0"
       d="m 35.241,63.172 c -0.158,0.014 -0.272,0.127 -0.336,0.267 -0.188,0.405 -0.255,0.833 -0.535,1.198 -0.101,-0.249 -0.202,-0.496 -0.303,-0.744 -0.079,-0.195 -0.139,-0.485 -0.3,-0.631 -0.129,-0.117 -0.316,-0.11 -0.472,-0.057 -0.199,0.068 -0.175,0.195 -0.073,0.34 0.129,0.183 0.201,0.408 0.294,0.611 0.114,0.247 0.23,0.494 0.347,0.74 0.052,0.108 0.103,0.219 0.154,0.328 0.037,0.027 0.076,0.031 0.117,0.01 0.006,0.01 0.013,0.02 0.019,0.03 0.035,0.056 0.071,0.111 0.106,0.166 0.077,0.121 0.095,0.435 0.322,0.257 -0.017,0.014 -0.021,0.006 -0.019,-0.008 0.01,-0.09 0.28,-0.559 0.019,0.008 0.211,-0.46 0.427,-0.918 0.636,-1.379 0.096,-0.211 0.174,-0.443 0.29,-0.646 0.052,-0.091 0.178,-0.219 0.129,-0.335 -0.053,-0.124 -0.275,-0.165 -0.395,-0.155 z"
       id="path117" /><path
       style="fill:#e88018"
       inkscape:connector-curvature="0"
       d="m 71.613,63.552 c -0.282,-0.404 -0.778,-0.528 -1.238,-0.382 -0.061,0.02 -0.046,0.014 -0.002,0 -0.275,0.088 -0.461,0.091 -0.738,0.014 -0.203,-0.058 -0.363,0.049 -0.398,0.258 -0.051,0.312 0.002,0.668 0.002,0.986 0.002,0.346 0,0.691 -0.002,1.037 0,0.16 -0.047,0.441 0.133,0.53 0.157,0.079 0.434,0.044 0.509,-0.134 0.103,-0.24 0.036,-0.6 0.042,-0.857 0.002,-0.137 0.095,-0.89 -0.013,-0.938 0.005,-0.009 0.03,0.018 0.034,0.022 0.084,-0.068 0.168,-0.136 0.258,-0.194 0.107,-0.071 0.227,-0.137 0.357,-0.145 0.121,-0.007 0.232,0.043 0.332,0.107 0.062,0.043 0.267,0.263 0.312,0.205 -0.027,-0.027 -0.027,0.279 -0.027,0.312 0.005,0.189 0.01,0.379 0.014,0.568 0.007,0.278 -0.055,0.66 0.043,0.922 0.07,0.189 0.331,0.188 0.491,0.124 0.235,-0.093 0.147,-0.493 0.153,-0.691 0.021,-0.568 0.081,-1.249 -0.262,-1.744 z"
       id="path119" /><path
       style="fill:#e88018"
       inkscape:connector-curvature="0"
       d="m 70.373,63.17 h 0.002 c 0.493,-0.158 0.123,-0.04 -0.002,0 z"
       id="path121" /><path
       style="fill:#e88018"
       inkscape:connector-curvature="0"
       d="m 37.494,66.073 c 0.38,0.083 0.71,-0.054 1.081,-0.104 0.25,-0.034 0.695,0.211 0.836,-0.104 0.083,-0.185 0.037,-0.43 0.034,-0.626 -0.003,-0.251 -0.003,-0.502 -0.002,-0.755 0.001,-0.22 0.003,-0.439 0.005,-0.661 10e-4,-0.173 0.038,-0.396 -0.056,-0.555 -0.084,-0.142 -0.215,-0.085 -0.343,-0.05 -0.207,0.055 -0.417,0.023 -0.622,-0.02 -0.689,-0.145 -1.423,-0.09 -1.769,0.615 0,0.002 0,0.002 0,0.002 0,0.001 -0.002,0.004 -0.002,0.002 10e-4,-10e-4 10e-4,-0.002 0.002,-0.004 -0.036,-0.033 -0.271,0.602 -0.279,0.682 -0.04,0.367 0.103,0.725 0.312,1.023 0.191,0.279 0.471,0.484 0.803,0.555 z m -0.216,-2.028 c 0.273,-0.34 0.673,-0.363 1.065,-0.242 0.104,0.033 0.164,0.123 0.237,0.201 0.121,0.128 0.17,0.172 0.179,0.351 0.011,0.242 -10e-4,0.487 -0.093,0.714 0.031,-0.066 0.078,-0.146 -0.012,0.047 -0.169,0.205 -0.355,0.319 -0.628,0.347 -0.218,0.021 -0.555,-0.024 -0.695,-0.21 -0.288,-0.383 -0.373,-0.812 -0.053,-1.208 z"
       id="path123" /><path
       style="fill:#e88018"
       inkscape:connector-curvature="0"
       d="m 36.69,65.52 c -0.378,-0.543 0.335,0.482 0,0 l 0,0 z"
       id="path125" /><path
       style="fill:#e88018"
       inkscape:connector-curvature="0"
       d="m 38.655,65.115 c 0.007,-0.016 0.006,-0.031 0.012,-0.047 -0.017,0.036 -0.029,0.069 -0.012,0.047 z"
       id="path127" /><path
       style="fill:#e88018"
       inkscape:connector-curvature="0"
       d="m 80.795,38.796 0,0 c 0.07,0.05 0.034,0.024 0,0 z"
       id="path129" /><path
       style="fill:#e88018"
       inkscape:connector-curvature="0"
       d="m 80.795,38.796 c 0.066,0.046 0.219,0.004 0.289,-0.007 0.197,-0.031 0.393,-0.078 0.586,-0.128 0.294,-0.076 0.701,-0.144 0.947,-0.336 0.107,-0.083 0.078,-0.397 0.053,-0.516 -0.062,-0.294 -0.569,-0.044 -0.739,0.001 -0.181,0.049 -0.362,0.097 -0.543,0.145 -0.173,0.047 -0.417,0.067 -0.565,0.172 -0.164,0.115 -0.198,0.546 -0.028,0.669 l 0,0 z"
       id="path131" /><path
       style="fill:#e88018"
       inkscape:connector-curvature="0"
       d="m 80.795,38.796 0,0 c -0.032,-0.024 -0.063,-0.045 0,0 z"
       id="path133" /><path
       style="fill:#e88018"
       inkscape:connector-curvature="0"
       d="m 41.794,65.52 c -0.128,-0.098 -0.263,-0.138 -0.353,-0.283 -0.08,-0.133 -0.101,-0.291 -0.106,-0.444 -0.014,-0.419 -10e-4,-0.839 -10e-4,-1.258 0,-0.214 -0.001,-0.43 -0.001,-0.646 0,-0.143 0.032,-0.349 -0.081,-0.465 -0.089,-0.092 -0.26,-0.1 -0.375,-0.064 -0.141,0.043 -0.168,0.18 -0.172,0.309 -0.012,0.434 0.006,0.881 0.007,1.304 0,0.224 0.002,0.448 10e-4,0.673 0,0.215 -0.028,0.444 0.029,0.654 0.09,0.334 0.375,0.541 0.666,0.693 0.264,0.139 0.618,-0.296 0.386,-0.473 z"
       id="path135" /><path
       style="fill:#e88018"
       inkscape:connector-curvature="0"
       d="m 41.407,65.992 c -0.392,-0.207 0.175,0.092 0,0 l 0,0 z"
       id="path137" /><path
       style="fill:#e88018"
       inkscape:connector-curvature="0"
       d="m 47.241,39.352 c 0.404,-0.018 -0.355,0.016 0,0 l 0,0 z"
       id="path139" /><path
       style="fill:#e88018"
       inkscape:connector-curvature="0"
       d="m 47.241,39.352 c -0.323,0.015 -0.599,0.037 -0.611,0.428 -0.021,0.625 0.021,1.259 0.021,1.886 0,0.637 -0.008,1.273 -0.021,1.91 -0.008,0.391 0.082,0.68 0.528,0.582 0.147,-0.032 0.302,0.051 0.447,10e-4 0.143,-0.049 0.152,-0.229 0.155,-0.354 0.016,-0.607 -0.005,-1.217 -0.006,-1.826 -10e-4,-0.636 0.002,-1.272 0.011,-1.91 0.007,-0.423 -0.024,-0.738 -0.524,-0.717 z"
       id="path141" /><path
       style="fill:#e88018"
       inkscape:connector-curvature="0"
       d="m 72.494,38.984 c -0.355,0.014 0.348,-0.013 0,0 l 0,0 z"
       id="path143" /><path
       style="fill:#e88018"
       inkscape:connector-curvature="0"
       d="m 72.494,38.984 c 0.713,-0.029 0.756,-1.131 0.029,-1.157 -0.33,-0.011 -0.618,0.177 -0.63,0.526 -0.014,0.366 0.225,0.647 0.601,0.631 z"
       id="path145" /><path
       style="fill:#e88018"
       inkscape:connector-curvature="0"
       d="m 46.751,79.02 c 0.615,0.195 -0.154,-0.081 0,0 l 0,0 z"
       id="path147" /><path
       style="fill:#e88018"
       inkscape:connector-curvature="0"
       d="m 49.019,80.32 c 0.054,-0.043 0.048,-0.08 0.023,-0.115 -0.061,-0.082 -0.27,-0.141 -0.332,-0.169 -0.22,-0.098 -0.406,-0.25 -0.608,-0.378 C 47.68,79.391 47.228,79.17 46.751,79.019 46.597,78.939 46.442,78.858 46.289,78.778 46.2,78.66 46.082,78.568 45.953,78.497 45.662,78.34 45.357,78.225 45.067,78.06 44.371,77.665 43.675,77.271 42.979,76.877 42.645,76.687 42.311,76.497 41.976,76.309 41.644,76.121 41.352,75.874 41.013,75.692 40.327,75.326 39.679,74.904 39.021,74.486 38.355,74.064 37.664,73.665 37.023,73.206 36.374,72.74 35.725,72.275 35.076,71.81 34.428,71.345 33.779,70.879 33.13,70.414 32.858,70.22 32.628,69.973 32.357,69.773 32.226,69.677 32.09,69.586 31.951,69.503 31.798,69.361 31.644,69.222 31.489,69.085 31.09,68.73 30.683,68.386 30.259,68.062 c -0.439,-0.336 -0.806,-0.719 -1.187,-1.12 -0.015,0.015 -0.027,0.032 -0.042,0.048 -0.221,0.226 -0.432,0.462 -0.623,0.713 -0.102,0.135 -0.199,0.273 -0.291,0.414 -0.046,0.07 -0.091,0.143 -0.134,0.215 -0.01,0.017 -0.008,0.027 -0.011,0.041 -0.019,0.08 0.075,0.111 0.154,0.177 0.244,0.198 0.476,0.414 0.749,0.573 0.301,0.177 0.56,0.422 0.837,0.637 0.588,0.457 1.196,0.889 1.816,1.301 0.298,0.197 0.599,0.393 0.901,0.582 0.312,0.196 0.591,0.438 0.912,0.619 0.591,0.338 1.179,0.705 1.742,1.089 0.247,0.169 0.491,0.354 0.78,0.444 0.335,0.205 0.673,0.408 1.011,0.609 1.301,0.772 2.628,1.505 3.998,2.148 0.828,0.389 1.613,0.874 2.44,1.271 0.413,0.198 0.831,0.39 1.253,0.57 0.157,0.066 0.348,0.113 0.476,0.225 0.12,0.104 0.274,0.15 0.427,0.181 0,-0.001 0,10e-4 0,-0.001 0.082,0.059 1.015,0.544 1.032,0.477 0.422,0.23 0.855,0.443 1.296,0.638 0.248,0.108 0.5,0.21 0.754,0.302 0.05,0.018 0.177,0.078 0.291,0.107 0.074,0.019 0.142,0.028 0.179,-0.002 z M 35.286,73.104 c -0.066,-0.022 -0.073,-0.046 -0.021,-0.069 0.007,-0.02 0.02,-0.033 0.039,-0.042 -0.01,0.037 -0.015,0.074 -0.018,0.111 z"
       id="path149" /><path
       style="fill:#e88018"
       inkscape:connector-curvature="0"
       d="m 67.822,63.728 c -0.031,-0.04 -0.066,-0.079 -0.104,-0.113 -0.026,-0.053 -0.062,-0.019 -0.103,-0.083 -0.033,-0.05 -0.066,-0.1 -0.105,-0.146 -0.062,-0.076 -0.135,-0.147 -0.222,-0.196 -0.202,-0.114 -0.44,-0.078 -0.653,-0.016 -0.133,0.04 -0.248,0.077 -0.379,0.114 -0.086,0.025 -0.171,0.052 -0.257,0.077 -0.042,-0.063 -0.089,-0.127 -0.149,-0.173 -0.095,-0.074 -0.202,-0.074 -0.295,0.002 -0.184,0.148 -0.148,0.337 -0.151,0.553 -0.007,0.373 -0.013,0.747 -0.019,1.12 -0.006,0.297 -0.096,0.722 0.017,1.003 0.074,0.188 0.423,0.227 0.546,0.067 0.136,-0.177 0.061,-0.607 0.061,-0.81 0.001,-0.298 -0.052,-0.621 0.053,-0.908 0.042,-0.114 0.109,-0.219 0.195,-0.306 0.164,-0.164 0.271,-0.157 0.494,-0.136 0.199,0.018 0.306,0.014 0.428,0.185 0.08,0.112 0.131,0.243 0.154,0.378 0.062,0.355 0.014,0.746 0.016,1.106 0.002,0.224 -0.053,0.553 0.252,0.577 0.358,0.03 0.371,-0.209 0.378,-0.497 0.008,-0.32 -0.021,-0.64 -0.001,-0.96 0.016,-0.289 0.029,-0.594 -0.156,-0.838 z"
       id="path151" /><path
       style="fill:#e88018"
       inkscape:connector-curvature="0"
       d="m 67.718,63.614 c 0.423,0.386 -0.015,-0.03 0,0 l 0,0 z"
       id="path153" /><path
       style="fill:none;stroke:#e88018;stroke-width:0;stroke-linecap:round;stroke-linejoin:round"
       inkscape:connector-curvature="0"
       d="m 46.829,38.864 c 10e-4,0 0.011,0.007 0.028,0.017 10e-4,10e-4 0.004,0.002 0.006,0.003 0.014,0.008 0.025,0.015 0.051,0.031"
       id="path155" /><path
       style="fill:#e88018"
       inkscape:connector-curvature="0"
       d="m 46.914,38.915 c 0.43,0.258 1.008,-0.167 0.872,-0.663 -0.137,-0.5 -0.799,-0.586 -1.049,-0.148 0.002,0.002 0,10e-4 0,0.005 -0.008,-0.011 -0.104,0.173 -0.112,0.194 -0.026,0.077 -0.035,0.158 -0.019,0.238 0.035,0.165 0.168,0.29 0.308,0.374 z"
       id="path157" /><path
       style="fill:#e88018"
       inkscape:connector-curvature="0"
       d="m 46.914,38.915 c 0.148,0.089 0.074,0.044 0,0 l 0,0 z"
       id="path159" /><polygon
       style="fill:#e88018"
       points="46.734,38.107 46.737,38.104 46.737,38.104 "
       id="polygon161" /><path
       style="fill:#e88018"
       inkscape:connector-curvature="0"
       d="m 61.442,63.818 c 0.63,-0.957 -0.305,0.413 0,0 l 0,0 z"
       id="path163" /><path
       style="fill:#e88018"
       inkscape:connector-curvature="0"
       d="m 63.418,63.246 c -0.702,-0.338 -1.553,-0.07 -1.976,0.572 -0.547,0.739 -0.104,1.835 0.703,2.177 0.722,0.306 1.704,-0.018 2.026,-0.752 0.323,-0.731 -0.038,-1.654 -0.753,-1.997 z m 0.055,1.387 c -0.018,0.179 -0.093,0.35 -0.225,0.473 -0.25,0.236 -0.725,0.279 -0.984,0.032 -0.345,-0.325 -0.112,-0.771 -0.076,-1.155 0.012,-0.113 -0.056,-0.118 0.081,-0.115 0.142,0.003 0.283,0.012 0.425,0.027 0.281,0.031 0.561,0.093 0.823,0.199 0,0.001 -0.428,-0.172 0,0 10e-4,0.001 -0.058,0.146 -0.06,0.172 -0.006,0.123 0.027,0.244 0.016,0.367 z"
       id="path165" /><path
       style="fill:#e88018"
       inkscape:connector-curvature="0"
       d="m 75.844,64.047 c -0.339,-1.081 -1.928,-1.244 -2.572,-0.354 -0.396,0.547 -0.435,1.232 0.002,1.766 0.119,0.237 0.305,0.426 0.582,0.445 0.189,0.018 0.299,0.008 0.436,0.146 0.17,0.074 0.355,0.086 0.535,0.043 0.279,-0.068 0.586,-0.24 0.807,-0.422 0.227,-0.188 0.078,-0.346 -0.122,-0.476 -0.093,-0.06 -0.119,-0.116 -0.208,-0.033 -0.061,0.056 -0.119,0.11 -0.18,0.167 -0.144,0.133 -0.278,0.147 -0.474,0.159 -0.343,0.021 -0.7,-0.048 -0.833,-0.406 -0.09,-0.249 0.135,-0.272 0.324,-0.28 0.344,-0.012 0.688,0.012 1.033,-0.007 0.283,-0.005 0.76,0.087 0.775,-0.309 0.006,-0.126 0.044,-0.425 -0.105,-0.439 z m -0.78,0.209 c -0.165,0.055 -0.338,0.024 -0.506,0.02 -0.155,-0.004 -0.311,0.021 -0.467,0.021 -0.11,0 -0.236,-0.063 -0.289,-0.164 -0.06,-0.116 0.078,-0.219 0.159,-0.282 -0.07,0.054 0.397,-0.314 0,0 0.195,-0.155 0.449,-0.213 0.688,-0.129 0.12,0.041 0.228,0.115 0.319,0.203 0.112,0.106 0.231,0.204 0.096,0.331 z"
       id="path167" /><path
       style="fill:#e88018"
       inkscape:connector-curvature="0"
       d="m 75.844,64.047 c 0.031,0.002 -0.19,-0.603 0,0 l 0,0 z"
       id="path169" /><path
       style="fill:#e88018"
       inkscape:connector-curvature="0"
       d="m 49.116,62.456 c 0,-0.001 0,-0.003 10e-4,-0.003 -0.059,0.169 -0.026,0.072 -10e-4,0.003 z"
       id="path171" /><path
       style="fill:#e88018"
       inkscape:connector-curvature="0"
       d="m 49.191,63.389 c 0.139,-0.121 0.321,-0.16 0.442,-0.302 0.114,-0.133 0.153,-0.31 0.103,-0.479 -0.044,-0.148 -0.134,-0.271 -0.293,-0.298 -0.122,-0.021 -0.28,0.012 -0.326,0.142 0,0.001 -10e-4,0.003 -10e-4,0.004 -0.108,0.311 -0.15,0.661 0.075,0.933 z"
       id="path173" /><path
       style="fill:#e88018"
       inkscape:connector-curvature="0"
       d="m 49.117,62.453 c 0,0 0,0 0,0 0.017,-0.049 0.028,-0.08 0,0 z"
       id="path175" /><path
       style="fill:#e88018"
       inkscape:connector-curvature="0"
       d="m 75.408,40.485 c 0.084,0.141 0.053,0.325 0.049,0.48 -0.008,0.336 0.004,0.672 0.004,1.008 -0.003,0.543 -0.049,1.094 0.32,1.541 0.145,0.174 0.352,0.339 0.56,0.432 0.002,0.001 0.004,0.003 0.006,0.004 0.12,0.052 0.161,-0.059 0.269,10e-4 0.083,0.045 0.162,0.121 0.26,0.133 0.103,0.013 0.172,-0.075 0.217,-0.155 0.042,0.025 0.084,0.012 0.125,-0.012 0.079,-0.048 0.148,-0.155 0.178,-0.216 0.112,-0.239 -0.127,-0.398 -0.314,-0.486 -0.042,-0.02 -0.03,-0.014 -0.002,-0.001 -0.15,-0.07 -0.284,-0.173 -0.425,-0.26 -0.069,-0.164 -0.111,-0.337 -0.134,-0.514 -0.047,-0.377 -0.006,-0.757 -0.004,-1.135 0.002,-0.446 -0.143,-1.064 0.523,-0.959 0.301,0.048 0.279,-0.189 0.28,-0.398 0,-0.135 0.103,-0.47 -0.079,-0.533 -0.202,-0.072 -0.426,0.044 -0.61,-0.121 -0.131,-0.116 -0.135,-0.31 -0.132,-0.473 0.006,-0.256 0.092,-0.911 -0.29,-0.95 -0.192,-0.02 -0.439,0.09 -0.594,0.195 -0.239,0.164 -0.136,0.433 -0.153,0.672 -0.013,0.165 0.035,0.377 -0.069,0.521 -0.137,0.19 -0.488,0.045 -0.518,0.318 -0.019,0.169 -0.036,0.428 -0.002,0.593 0.048,0.226 0.412,0.111 0.535,0.315 z"
       id="path177" /><path
       style="fill:#e88018"
       inkscape:connector-curvature="0"
       d="m 77.078,43.213 c 0,0 10e-4,0 0.002,10e-4 0.27,0.125 0.072,0.033 -0.002,-10e-4 z"
       id="path179" /><path
       style="fill:#e88018"
       inkscape:connector-curvature="0"
       d="m 59.963,64.516 c 0,0 0.082,0.039 0.15,0.07 -0.036,-0.017 -0.085,-0.039 -0.15,-0.07 z"
       id="path181" /><path
       style="fill:#e88018"
       inkscape:connector-curvature="0"
       d="m 60.113,64.586 c 0.147,0.068 0.086,0.04 0,0 l 0,0 z"
       id="path183" /><path
       style="fill:#e88018"
       inkscape:connector-curvature="0"
       d="m 59.963,64.516 c -0.252,-0.251 -0.73,-0.189 -1.049,-0.312 -0.105,-0.039 -0.218,-0.107 -0.21,-0.236 0.019,-0.278 0.301,-0.312 0.53,-0.309 0.116,0.002 0.205,0.037 0.309,0.068 0.085,0.025 0.129,0.084 0.21,0.129 0.159,0.089 0.31,0.025 0.387,-0.134 0.18,-0.368 -0.139,-0.397 -0.401,-0.487 0.02,0.025 0.04,0.051 0.061,0.077 -0.021,-0.016 -0.057,-0.065 -0.059,-0.071 -0.236,-0.151 -0.514,-0.145 -0.783,-0.109 -0.262,0.033 -0.508,0.215 -0.696,0.399 -0.286,0.278 -0.267,0.599 -0.043,0.913 0.259,0.363 0.728,0.408 1.142,0.487 0.45,0.085 0.381,0.56 -0.054,0.608 -0.231,0.027 -0.524,0.059 -0.687,-0.139 -0.156,-0.189 -0.352,-0.241 -0.517,-0.029 -0.047,0.059 -0.188,0.162 -0.137,0.25 0.055,0.094 0.228,0.17 0.319,0.223 0.238,0.14 0.505,0.238 0.781,0.264 0.218,0.02 0.439,-0.012 0.639,-0.102 0.117,-0.053 0.5,-0.273 0.5,-0.42 0.282,-0.426 0.25,-0.84 -0.242,-1.07 z"
       id="path185" /><path
       style="fill:#e88018"
       inkscape:connector-curvature="0"
       d="m 56.824,64.545 c 0.001,0.001 0.003,0.001 0.004,0.002 -0.137,-0.093 -0.076,-0.051 -0.004,-0.002 z"
       id="path187" /><path
       style="fill:#e88018"
       inkscape:connector-curvature="0"
       d="m 56.824,64.545 c -0.246,-0.166 -0.545,-0.203 -0.829,-0.255 -0.183,-0.034 -0.55,-0.065 -0.521,-0.33 0.033,-0.276 0.325,-0.351 0.559,-0.308 0.224,0.042 0.583,0.362 0.785,0.164 0.133,-0.129 0.25,-0.346 0.037,-0.447 -0.27,-0.126 -0.543,-0.243 -0.843,-0.261 -0.522,-0.03 -1.235,0.28 -1.188,0.899 0.05,0.633 0.63,0.785 1.15,0.88 0.138,0.025 0.276,0.056 0.405,0.108 0.124,0.053 0.106,0.238 0.059,0.349 -0.063,0.146 -0.225,0.218 -0.352,0.303 -0.127,0.087 -0.261,-0.046 -0.398,-0.084 -0.046,-0.013 -0.094,-0.019 -0.141,-0.016 -0.117,0.01 -0.071,-0.005 -0.116,-0.102 -0.046,-0.101 -0.126,-0.181 -0.237,-0.204 -0.209,-0.046 -0.576,0.207 -0.416,0.443 0.072,0.109 0.389,0.268 0.512,0.248 0.249,0.107 0.471,0.324 0.747,0.148 0.062,0 0.139,-0.01 0.187,-0.053 0.027,-0.025 0.045,-0.057 0.053,-0.094 0.068,-0.008 0.137,-0.017 0.203,-0.025 0.191,0.027 0.363,-0.032 0.469,-0.195 0.257,-0.398 0.302,-0.873 -0.119,-1.165 -0.002,0.001 -0.004,-0.001 -0.006,-0.003 z"
       id="path189" /><path
       style="fill:#e88018"
       inkscape:connector-curvature="0"
       d="m 56.828,64.547 c 10e-4,0.001 0.002,0.002 0.002,0.003 0.086,0.057 0.18,0.122 -0.002,-0.003 z"
       id="path191" /><path
       style="fill:#e88018"
       inkscape:connector-curvature="0"
       d="m 45.699,65.945 c -0.296,-0.021 0.528,0.352 0,0 l 0,0 z"
       id="path193" /><path
       style="fill:#e88018"
       inkscape:connector-curvature="0"
       d="m 47.093,64.127 c -0.569,-0.273 0.205,0.48 0,0 l 0,0 z"
       id="path195" /><path
       style="fill:#e88018"
       inkscape:connector-curvature="0"
       d="m 47.708,62.391 c -0.141,-0.085 -0.42,-0.08 -0.491,0.096 -0.119,0.297 0.186,0.984 -0.373,0.773 -0.46,-0.172 -0.979,-0.195 -1.395,0.099 -0.423,0.302 -0.705,0.839 -0.642,1.362 0.051,0.427 0.389,1.188 0.892,1.225 0.229,0.152 0.493,0.198 0.761,0.144 0.126,-0.025 0.248,-0.067 0.367,-0.114 0.118,-0.045 0.323,-0.188 0.409,-0.088 0.106,0.124 0.339,0.275 0.478,0.107 0.159,-0.193 0.095,-0.631 0.102,-0.865 0.019,-0.654 0.005,-1.309 -0.001,-1.962 -0.003,-0.192 0.091,-0.659 -0.107,-0.777 z m -0.756,2.818 c -0.382,0.367 -0.854,0.33 -1.238,-0.004 -0.223,-0.195 -0.221,-0.422 -0.229,-0.697 -0.005,-0.175 0.004,-0.188 0.128,-0.311 0.083,-0.083 0.179,-0.154 0.286,-0.207 0.391,-0.188 0.827,-0.04 1.193,0.137 0.158,0.369 0.167,0.787 -0.14,1.082 z"
       id="path197" /><path
       style="fill:#e88018"
       inkscape:connector-curvature="0"
       d="M 66.443,43.792 C 66.41,43.78 66.369,43.768 66.33,43.757 c 0.03,0.015 0.157,0.064 0.113,0.035 z"
       id="path199" /><path
       style="fill:#e88018"
       inkscape:connector-curvature="0"
       d="m 68.637,43.339 c -0.149,0.047 -0.304,0.076 -0.46,0.081 -0.271,0.008 -0.538,-0.057 -0.782,-0.169 -0.234,-0.106 -0.423,-0.258 -0.627,-0.408 -0.229,-0.167 -0.371,0.145 -0.516,0.286 -0.096,0.093 -0.38,0.31 -0.24,0.47 0.075,0.087 0.2,0.124 0.318,0.157 -0.02,-0.01 -0.002,-0.007 0.113,0.035 0.586,0.397 1.256,0.623 1.97,0.512 0.563,-0.087 1.268,-0.319 1.493,-0.895 0.122,-0.312 0.285,-0.544 0.221,-0.899 -0.053,-0.294 -0.229,-0.641 -0.47,-0.826 -0.204,-0.154 -0.458,-0.221 -0.704,-0.277 -0.381,-0.09 -0.766,-0.154 -1.149,-0.233 -0.212,-0.043 -0.458,-0.109 -0.543,-0.335 -0.12,-0.319 0.099,-0.517 0.376,-0.63 0.284,-0.115 0.596,-0.092 0.885,-0.008 0.147,0.043 0.289,0.104 0.42,0.185 0.119,0.074 0.236,0.199 0.387,0.204 0.174,0.006 0.259,-0.189 0.334,-0.313 0.113,-0.183 0.34,-0.34 0.081,-0.512 -0.552,-0.366 -1.149,-0.551 -1.813,-0.519 -0.503,0.025 -0.988,0.133 -1.354,0.501 -0.324,0.328 -0.499,0.796 -0.447,1.257 0.124,1.092 1.565,1.114 2.369,1.331 0.405,0.11 0.654,0.359 0.392,0.758 -0.07,0.102 -0.136,0.209 -0.254,0.247 z"
       id="path201" /><path
       style="fill:#e88018"
       inkscape:connector-curvature="0"
       d="m 25.689,63.504 c 0.546,0.598 0.208,0 0,0 l 0,0 z"
       id="path203" /><path
       style="fill:#e88018"
       inkscape:connector-curvature="0"
       d="M 29.209,63.725 C 29.2,63.709 29.183,63.702 29.172,63.686 29.062,63.529 28.895,63.432 28.72,63.356 28.451,63.241 28.185,63.121 27.923,62.995 27.41,62.751 26.905,62.492 26.389,62.255 25.923,62.041 25.43,61.884 24.975,61.644 24.594,61.443 24.243,61.183 23.953,60.864 23.814,60.71 23.689,60.543 23.58,60.367 c -0.088,-0.142 -0.226,-0.322 -0.273,-0.498 -0.012,-0.047 -0.023,-0.094 -0.02,-0.139 0.014,-0.008 0.117,0.039 0.209,0.08 0.061,0.028 0.119,0.055 0.14,0.061 0.169,0.049 0.337,0.076 0.513,0.1 0.406,0.057 0.812,0.109 1.218,0.155 0.782,0.091 1.565,0.167 2.349,0.241 0.783,0.074 1.567,0.15 2.349,0.238 0.148,0.018 0.307,0.004 0.417,-0.107 0.001,0 0.002,0 0.003,-10e-4 0.113,0.175 0.217,-0.175 0.252,-0.254 0.068,-0.154 0.127,-0.313 0.17,-0.476 0.046,-0.178 0.083,-0.312 -0.034,-0.432 -0.018,-0.018 -0.028,-0.035 -0.054,-0.053 -0.254,-0.17 -0.633,-0.169 -0.924,-0.215 -0.409,-0.062 -0.818,-0.125 -1.226,-0.188 -0.79,-0.12 -1.578,-0.243 -2.368,-0.364 -0.789,-0.123 -1.579,-0.244 -2.369,-0.367 -0.509,-0.078 -1.315,-0.059 -1.616,-0.57 -0.167,-0.287 -0.235,-0.664 -0.325,-0.982 -0.099,-0.354 -0.231,-0.742 -0.253,-1.111 -0.013,-0.209 0.09,-0.359 0.305,-0.384 0.379,-0.042 0.774,-0.003 1.157,-0.032 1.578,-0.117 3.16,-0.111 4.74,-0.202 0.793,-0.044 1.586,-0.093 2.381,-0.114 0.363,-0.012 0.737,0.014 1.098,-0.021 0.092,-0.01 0.177,-0.039 0.256,-0.082 0.047,-0.023 0.094,-0.048 0.132,-0.088 0.067,-0.194 0.086,-0.401 0.073,-0.607 -0.01,-0.173 -0.04,-0.344 -0.072,-0.516 -0.016,-0.086 -0.034,-0.17 -0.049,-0.256 -0.007,-0.04 -0.019,-0.061 -0.032,-0.073 -0.033,-0.032 -0.086,-0.007 -0.171,-10e-4 -0.388,0.021 -0.767,0 -1.153,0.01 -0.164,0.006 -0.315,0.043 -0.473,0.076 -0.176,0.035 -0.362,0.033 -0.542,0.044 -0.405,0.024 -0.812,0.049 -1.217,0.073 -0.773,0.047 -1.542,0.031 -2.314,0.059 -0.777,0.027 -1.554,0.136 -2.33,0.194 -0.375,0.028 -0.767,0.084 -1.143,0.059 -0.183,-0.013 -0.365,-0.039 -0.542,-0.085 -0.221,-0.059 -0.288,-0.186 -0.285,-0.414 0.004,-0.346 0.076,-0.703 0.121,-1.046 0.053,-0.403 0.114,-0.806 0.191,-1.203 0.043,-0.224 0.052,-0.306 0.263,-0.409 0.177,-0.038 0.354,-0.079 0.53,-0.121 0.385,-0.092 0.767,-0.198 1.153,-0.288 0.776,-0.18 1.551,-0.368 2.325,-0.56 0.773,-0.191 1.546,-0.386 2.319,-0.581 0.371,-0.095 0.742,-0.188 1.113,-0.281 0.185,-0.048 0.371,-0.094 0.556,-0.141 0.093,-0.023 0.186,-0.047 0.279,-0.069 -0.001,-0.006 -0.004,-0.012 -0.005,-0.018 -0.022,-0.098 -0.05,-0.195 -0.084,-0.29 -0.099,-0.271 -0.243,-0.523 -0.414,-0.757 -0.09,-0.122 -0.148,-0.181 -0.283,-0.195 -0.018,-0.002 -0.024,-0.012 -0.046,-0.012 -0.184,10e-4 -0.36,0.055 -0.534,0.105 -0.707,0.201 -1.412,0.402 -2.118,0.605 -0.675,0.193 -1.35,0.386 -2.025,0.582 -0.195,0.055 -1.795,0.392 -1.662,0.673 -0.123,-0.024 -0.183,-0.096 -0.324,-0.074 -0.126,0.019 -0.252,0.064 -0.382,0.042 -0.13,-0.024 0.01,-0.32 0.044,-0.419 0.063,-0.182 0.141,-0.358 0.222,-0.532 0.141,-0.298 0.295,-0.588 0.417,-0.895 0.022,-0.079 0.047,-0.158 0.052,-0.241 0.006,-0.115 -0.008,-0.123 0.107,-0.092 0.209,0.056 0.399,-0.067 0.584,-0.146 0.727,-0.311 1.456,-0.617 2.184,-0.923 0.35,-0.147 0.7,-0.294 1.049,-0.441 0.242,-0.102 0.647,-0.189 0.823,-0.403 0.027,-0.032 0.023,-0.071 0.03,-0.107 0.043,-0.216 -0.206,-0.481 -0.34,-0.627 -0.104,-0.111 -0.217,-0.215 -0.335,-0.312 -0.053,-0.043 -0.107,-0.085 -0.162,-0.125 -0.007,-0.005 -0.014,-0.011 -0.021,-0.017 -0.106,0.06 -0.213,0.12 -0.32,0.179 -0.672,0.377 -1.351,0.71 -2.05,1.032 -0.037,0.017 -0.102,0.049 -0.169,0.079 0,0 -0.001,0 -0.002,0 -0.023,0.01 -0.046,0.021 -0.069,0.028 -0.107,0.035 -0.204,0.034 -0.2,-0.105 0,-0.015 0.003,-0.03 0.003,-0.045 0.004,-0.072 0.012,-0.145 0.018,-0.217 0.011,-0.015 0.11,-0.012 0.133,-0.017 0.13,-0.031 0.221,-0.13 0.294,-0.235 0.413,-0.601 0.823,-1.202 1.243,-1.799 0.006,-0.008 0.011,-0.017 0.017,-0.025 0.236,-0.578 0.744,-0.976 1.061,-1.503 0.006,-0.011 0,-0.02 0.005,-0.029 0.022,-0.042 0.042,-0.073 0.023,-0.128 0.06,-0.073 0.121,-0.146 0.182,-0.219 0.122,-0.146 0.243,-0.293 0.364,-0.438 0.263,-0.317 0.527,-0.634 0.79,-0.95 0.451,-0.542 0.999,-0.995 1.403,-1.578 0.102,-0.146 0.17,-0.274 0.311,-0.385 0.108,-0.085 0.234,-0.134 0.327,-0.24 0.098,-0.112 0.136,-0.234 0.245,-0.341 0.135,-0.13 0.269,-0.262 0.393,-0.403 0.106,-0.122 0.205,-0.251 0.288,-0.39 0.126,-0.13 0.253,-0.26 0.379,-0.391 0.272,-0.282 0.542,-0.568 0.809,-0.856 0.513,-0.553 1.016,-1.116 1.508,-1.688 0.491,-0.574 0.97,-1.157 1.437,-1.751 0.441,-0.562 0.942,-1.092 1.333,-1.691 0.089,-0.136 0.158,-0.3 0.274,-0.415 0.114,-0.111 0.216,-0.233 0.311,-0.361 0.208,-0.283 0.357,-0.6 0.558,-0.885 0.419,-0.599 0.811,-1.207 1.178,-1.839 0.728,-1.25 1.384,-2.549 1.834,-3.927 0.233,-0.711 0.51,-1.391 0.67,-2.127 0.164,-0.755 0.294,-1.519 0.374,-2.286 0.082,-0.783 0.109,-1.573 0.069,-2.36 -0.02,-0.379 -0.055,-0.757 -0.107,-1.134 -0.025,-0.189 -0.056,-0.379 -0.091,-0.567 0.009,-0.184 0.013,-0.375 -0.069,-0.545 -0.051,-0.106 -0.086,-0.826 -0.216,-0.728 -0.087,0.064 -0.073,0.137 -0.08,0.232 -0.004,0.066 -0.008,0.131 -0.011,0.197 -0.04,0.117 -0.093,-0.072 -0.097,0.13 -0.005,0.37 10e-4,0.737 -0.053,1.102 -0.059,0.394 -0.117,0.786 -0.177,1.179 -0.118,0.753 -0.25,1.507 -0.439,2.246 -0.193,0.753 -0.441,1.493 -0.678,2.233 -0.115,0.358 -0.229,0.714 -0.343,1.072 -0.121,0.379 -0.317,0.738 -0.484,1.099 -0.319,0.688 -0.639,1.376 -0.998,2.045 -0.704,1.313 -1.523,2.561 -2.361,3.792 -0.421,0.617 -0.878,1.187 -1.355,1.76 -0.489,0.591 -0.952,1.2 -1.438,1.792 -0.471,0.573 -0.968,1.125 -1.461,1.68 -0.233,0.261 -0.452,0.546 -0.704,0.788 -0.243,0.234 -0.5,0.464 -0.664,0.763 -0.528,0.542 -1.058,1.083 -1.562,1.647 -0.242,0.271 -0.478,0.548 -0.705,0.831 -0.211,0.266 -0.477,0.485 -0.71,0.732 -0.511,0.537 -0.945,1.135 -1.437,1.688 -0.491,0.551 -0.968,1.117 -1.421,1.701 -0.432,0.558 -0.82,1.146 -1.247,1.706 -0.429,0.564 -0.84,1.145 -1.222,1.741 -0.774,1.208 -1.394,2.49 -1.946,3.812 -1.119,2.675 -1.482,5.606 -0.803,8.444 0.655,2.736 2.269,5.178 4.127,7.253 0.486,0.542 1,1.065 1.507,1.586 0.245,0.253 0.5,0.494 0.765,0.725 0.133,0.114 0.269,0.228 0.406,0.337 0.129,0.102 0.226,0.24 0.356,0.332 0.237,0.167 0.409,-0.259 0.511,-0.406 0.085,-0.121 0.171,-0.244 0.236,-0.38 0.033,-0.067 0.059,-0.14 0.077,-0.214 0.079,-0.069 0.152,-0.148 0.199,-0.242 0.132,-0.27 -0.065,-0.521 -0.248,-0.704 -0.27,-0.271 -0.529,-0.552 -0.785,-0.835 -0.265,-0.291 -0.526,-0.587 -0.792,-0.879 0.242,0 0.454,-0.029 0.668,0.088 0.258,0.14 0.524,0.264 0.793,0.383 0.511,0.223 1.033,0.42 1.538,0.66 0.018,-0.008 0.029,-0.02 0.047,-0.027 0.361,-0.169 0.518,-0.499 0.475,-0.891 z"
       id="path205" /><path
       style="fill:#e88018"
       inkscape:connector-curvature="0"
       d="m 28.267,28.708 c 0.231,0.346 0.443,0.68 0.749,0.969 0.292,0.277 0.626,0.508 0.983,0.695 0.002,0.001 0.004,0.002 0.006,0.003 0.987,0.516 2.171,0.459 2.945,-0.401 0.898,-0.999 1.064,-2.459 0.827,-3.734 -0.063,-0.333 -0.151,-0.661 -0.258,-0.984 -0.103,-0.311 -0.2,-0.723 -0.385,-0.996 -0.055,-0.081 -0.078,-0.027 -0.101,-0.139 -0.014,-0.07 -0.037,-0.14 -0.067,-0.207 -0.058,-0.128 -0.141,-0.244 -0.234,-0.35 -0.216,-0.247 -0.459,-0.478 -0.699,-0.701 -0.915,-0.853 -2.247,-1.482 -3.425,-0.743 -0.15,0.093 -0.288,0.205 -0.414,0.328 -0.14,0.138 -0.305,0.245 -0.422,0.406 -0.241,0.333 -0.355,0.772 -0.452,1.165 -0.194,0.792 -0.217,1.618 -0.048,2.417 0.171,0.815 0.533,1.581 0.995,2.272 z"
       id="path207" /><path
       style="fill:#e88018"
       inkscape:connector-curvature="0"
       d="m 30.005,30.375 c -10e-4,0 -0.002,-0.001 -0.003,-0.001 0.941,0.493 0.317,0.166 0.003,0.001 z"
       id="path209" /><path
       style="fill:#e88018"
       inkscape:connector-curvature="0"
       d="m 30.002,30.374 c -10e-4,0 -0.002,-10e-4 -0.003,-0.002 -0.153,-0.08 -0.229,-0.12 0.003,0.002 z"
       id="path211" /><path
       style="fill:#e88018"
       inkscape:connector-curvature="0"
       d="m 52.1,64.913 c -0.174,0.015 -0.067,0.005 0.021,-0.002 -0.009,0.001 -0.01,0.001 -0.021,0.002 0.332,-0.028 0.674,0.04 0.999,-0.062 0.277,-0.086 0.417,-0.4 0.468,-0.667 0.068,-0.345 -0.25,-0.724 -0.522,-0.887 -1.015,-0.608 -2.427,0.292 -2.254,1.471 0.043,0.293 0.181,0.562 0.361,0.793 0.073,0.094 0.197,0.293 0.303,0.343 0.05,0.022 0.108,0.017 0.161,0.015 0.059,0.041 0.118,0.077 0.184,0.103 0.122,0.05 0.239,0.021 0.354,0.056 0.148,0.043 0.306,0.052 0.457,0.02 0.263,-0.057 0.504,-0.229 0.732,-0.365 0.172,-0.099 0.289,-0.256 0.123,-0.424 -0.095,-0.096 -0.217,-0.206 -0.348,-0.132 -0.123,0.068 -0.248,0.102 -0.379,0.164 -0.264,0.104 -0.627,0.177 -0.832,-0.081 -0.168,-0.211 -0.044,-0.328 0.193,-0.347 z m -0.481,-0.467 c 0.068,-0.015 0.365,-0.081 -0.002,0 -0.157,0.035 -0.101,-0.249 -0.084,-0.325 0.035,-0.174 0.15,-0.318 0.303,-0.405 0.239,-0.138 0.719,-0.173 0.963,-0.011 0.102,0.066 0.16,0.188 0.216,0.292 0.028,0.052 -0.003,0.311 -0.019,0.295 -0.424,0.259 -0.922,0.054 -1.377,0.154 z"
       id="path213" /><path
       style="fill:#e88018"
       inkscape:connector-curvature="0"
       d="m 43.21,63.939 c 0.171,0.048 -0.141,0.051 0,0 -0.116,0.042 -0.34,-0.039 -0.398,0.109 -0.103,0.269 0.211,0.262 0.375,0.252 0.147,-0.01 0.45,0.055 0.474,-0.162 0.031,-0.283 -0.289,-0.154 -0.451,-0.199 z"
       id="path215" /><path
       style="fill:#e88018"
       inkscape:connector-curvature="0"
       d="m 56.598,40.568 c -0.036,0.087 0.18,0.114 0,0 l 0,0 z"
       id="path217" /><path
       style="fill:#e88018"
       inkscape:connector-curvature="0"
       d="m 56.258,43.918 c 0.433,0.247 1.015,0.397 1.513,0.398 0.501,10e-4 0.982,-0.161 1.402,-0.43 0.116,-0.073 0.401,-0.271 0.559,-0.467 0.009,-0.01 0.014,-0.02 0.021,-0.029 0.006,-0.008 0.012,-0.015 0.016,-0.023 0.107,-0.158 0.113,-0.306 -0.16,-0.374 -0.205,-0.183 -0.342,-0.436 -0.623,-0.222 -0.244,0.186 -0.446,0.378 -0.742,0.481 -0.502,0.176 -1.078,0.093 -1.483,-0.261 -0.177,-0.154 -0.468,-0.461 -0.354,-0.718 0.049,-0.11 0.155,-0.123 0.262,-0.112 0.178,0.017 0.355,0.011 0.535,0.008 0.765,-0.006 1.529,0.005 2.295,-0.002 0.219,-0.002 0.703,0.043 0.789,-0.238 0.109,-0.348 -0.144,-0.838 -0.253,-1.15 -0.19,-0.542 -0.601,-0.902 -1.077,-1.197 -0.405,-0.25 -0.879,-0.377 -1.354,-0.362 -1.78,0.052 -3.121,2.126 -2.203,3.734 0.202,0.358 0.494,0.757 0.857,0.964 z m 0.34,-3.35 c 0.146,0.092 0.293,0.025 0.43,-0.044 0.148,-0.076 0.305,-0.128 0.471,-0.147 0.166,-0.019 0.334,-0.005 0.497,0.034 0.167,0.04 0.332,0.14 0.509,0.083 0.017,0.142 0.278,0.409 0.13,0.548 -0.161,0.15 -0.558,0.052 -0.747,0.049 -0.332,-0.006 -0.695,0.059 -1.021,0.003 -0.105,-0.017 -0.207,-0.061 -0.285,-0.136 -0.074,-0.07 -0.102,-0.2 -0.174,-0.258 0.088,10e-4 0.156,-0.049 0.19,-0.132 z"
       id="path219" /><path
       style="fill:#e88018"
       inkscape:connector-curvature="0"
       d="m 59.641,42.99 c -0.026,-0.005 -0.045,-0.007 -0.033,0.004 0.234,0.059 0.103,0.011 0.033,-0.004 z"
       id="path221" /></g></svg>