<?xml version="1.0" encoding="utf-8"?>
<!-- Generator: Adobe Illustrator 16.0.0, SVG Export Plug-In . SVG Version: 6.00 Build 0)  -->
<!DOCTYPE svg PUBLIC "-//W3C//DTD SVG 1.1//EN" "http://www.w3.org/Graphics/SVG/1.1/DTD/svg11.dtd">
<svg version="1.1"
	 id="Calque_1" sodipodi:docname="logo.upmc.noir.svg" inkscape:version="0.48.3.1 r9886" xmlns:svg="http://www.w3.org/2000/svg" xmlns:rdf="http://www.w3.org/1999/02/22-rdf-syntax-ns#" xmlns:sodipodi="http://sodipodi.sourceforge.net/DTD/sodipodi-0.dtd" xmlns:inkscape="http://www.inkscape.org/namespaces/inkscape" xmlns:dc="http://purl.org/dc/elements/1.1/" xmlns:cc="http://creativecommons.org/ns#"
	 xmlns="http://www.w3.org/2000/svg" xmlns:xlink="http://www.w3.org/1999/xlink" x="0px" y="0px" width="100px" height="100px"
	 viewBox="0 0 100 100" enable-background="new 0 0 100 100" xml:space="preserve">
<sodipodi:namedview  inkscape:window-maximized="0" fit-margin-right="0" inkscape:window-width="1128" inkscape:window-x="49" inkscape:window-y="254" inkscape:pageshadow="2" inkscape:pageopacity="0" fit-margin-bottom="0" inkscape:window-height="643" inkscape:current-layer="Calque_1" bordercolor="#666666" inkscape:cx="239.21648" fit-margin-top="0" id="namedview73" pagecolor="#ffffff" gridtolerance="10" fit-margin-left="0" showgrid="false" inkscape:zoom="0.39643468" inkscape:cy="-181.13934" objecttolerance="10" borderopacity="1" guidetolerance="10">
	</sodipodi:namedview>
<g>
	<path fill="#997C63" d="M73.396,44.877c0-5.175-5.848-8.376-10.371-6.384c-0.594,0.262-1.142,0.621-1.638,1.037
		c-0.529,0.443-1.06-0.28-1.496-0.558c-1.126-0.715-2.437-1.062-3.762-1.108c-2.604-0.092-5.129,1.344-6.477,3.552
		c-1.476,2.416-1.041,5.474-1.042,8.175c-0.002,3.268,0.001,6.534,0.009,9.803c0,1.146,0.542,2.162,1.705,2.481
		c1.139,0.314,2.488-0.263,2.855-1.427c0.398-1.264,0.16-2.894,0.161-4.202c0.001-1.687,0.003-3.373,0.003-5.06
		c0-1.559-0.001-3.114-0.003-4.672c-0.002-1.31-0.037-2.582,1.139-3.425c0.849-0.608,1.94-0.677,2.828-0.107
		c1.278,0.819,1.294,2.06,1.285,3.428c-0.024,3.3-0.019,6.6-0.008,9.897c0.006,2.085-0.48,6.104,2.84,5.628
		c1.311-0.188,1.894-1.229,1.94-2.46c0.066-1.688,0.015-3.386,0.015-5.073c0.001-1.569,0.001-3.139,0.001-4.708
		c0-1.638-0.129-3.338,0.107-4.962c0.379-2.598,3.931-2.755,4.947-0.525c0.541,1.185,0.215,2.89,0.211,4.158
		c-0.005,1.694-0.005,3.391-0.003,5.084c0.002,1.304,0.005,2.607,0.009,3.911c0.003,1.078-0.191,2.382,0.312,3.381
		c0.888,1.767,3.763,1.532,4.326-0.371c0.317-1.068,0.11-2.403,0.11-3.51c0-1.426-0.001-2.851-0.001-4.276
		C73.401,50.026,73.396,47.444,73.396,44.877C73.396,43.974,73.396,47.317,73.396,44.877z"/>
	<path fill="#997C63" d="M43.376,39.718c-2.277-2.055-5.008-1.886-7.886-1.885c-3.246,0-6.492,0.003-9.738,0.007
		c-1.311,0.001-3.172-0.333-4.349,0.348c-1.059,0.611-1.354,2.078-0.799,3.129c0.706,1.337,2.169,1.183,3.461,1.184
		c1.706,0,3.412,0,5.118,0c1.575,0,3.149,0,4.724,0.002c1.603,0.003,3.394-0.217,4.973,0.07c2.585,0.469,2.958,4.012,0.418,4.903
		c-1.253,0.438-2.989,0.123-4.304,0.12c-1.688-0.004-3.377-0.003-5.066,0.003c-2.985,0.011-5.815,0.025-7.937,2.458
		c-1.688,1.935-1.768,4.08-1.758,6.528c0.007,1.867-0.558,5.259,2.255,5.299c5.164,0.073-0.461-9.227,4.902-9.613
		c2.663-0.191,5.403-0.008,8.074-0.012c2.425-0.003,5.023,0.243,7.112-1.218C46.29,48.448,46.794,42.798,43.376,39.718
		C42.034,38.507,44.288,40.539,43.376,39.718z"/>
	<path fill="#997C63" d="M17.021,39.303c-1.019-2.368-4.43-1.513-4.591,0.915c-0.218,3.277-0.011,6.638-0.014,9.924
		c-0.002,2.127,0.872,6.824-2.341,7.094c-3.369,0.283-2.894-3.803-2.893-5.941c0.001-3.33,0.001-6.66-0.003-9.991
		c-0.001-1.271,0.066-2.458-1.204-3.143c-1.146-0.617-2.67-0.208-3.294,0.947c-0.612,1.133-0.286,2.918-0.286,4.162
		c0,1.713,0.007,3.427,0.009,5.141c0.001,1.534,0.006,3.067,0.001,4.602c-0.006,1.612-0.005,3.092,0.661,4.597
		c2.292,5.185,9.745,5.869,12.942,1.122c1.688-2.507,1.254-5.802,1.262-8.667c0.005-1.823-0.002-3.646-0.012-5.471
		c-0.005-0.911-0.01-1.823-0.014-2.735C17.238,41.019,17.359,40.093,17.021,39.303C16.699,38.556,17.151,39.608,17.021,39.303z"/>
	<path fill="#997C63" d="M97.155,55.751c-1.658-2.183-4.211,0.976-5.729,1.606c-2.396,0.996-5.253,0.753-7.432-0.736
		c-4.811-3.291-4.543-10.494,0.453-13.464c2.39-1.42,5.685-1.342,8.042,0.097c0.973,0.594,1.706,1.73,2.92,1.794
		c1.138,0.058,2.276-0.844,2.283-2.03c0.008-1.265-1.046-2.067-1.964-2.758c-1.129-0.851-2.397-1.52-3.77-1.875
		c-3.023-0.784-6.064-0.709-8.917,0.671c-7.165,3.467-9.103,13.231-3.74,19.161c2.571,2.845,6.5,4.392,10.325,3.95
		c2.027-0.232,3.995-0.896,5.683-2.057C96.777,59.099,98.561,57.603,97.155,55.751C96.461,54.836,97.537,56.254,97.155,55.751z"/>
</g>
</svg>
