<?xml version="1.0" encoding="UTF-8" standalone="no"?>
<!-- Generator: Adobe Illustrator 15.0.2, SVG Export Plug-In . SVG Version: 6.00 Build 0)  -->

<svg
   xmlns:dc="http://purl.org/dc/elements/1.1/"
   xmlns:cc="http://creativecommons.org/ns#"
   xmlns:rdf="http://www.w3.org/1999/02/22-rdf-syntax-ns#"
   xmlns:svg="http://www.w3.org/2000/svg"
   xmlns="http://www.w3.org/2000/svg"
   xmlns:xlink="http://www.w3.org/1999/xlink"
   xmlns:sodipodi="http://sodipodi.sourceforge.net/DTD/sodipodi-0.dtd"
   xmlns:inkscape="http://www.inkscape.org/namespaces/inkscape"
   version="1.0"
   id="Layer_1"
   x="0px"
   y="0px"
   width="100"
   height="98.422806"
   viewBox="0 0 99.999996 98.422797"
   enable-background="new 0 0 2481 2073"
   xml:space="preserve"
   inkscape:version="0.48.4 r9939"
   sodipodi:docname="logo.paris7.marker.svg"><metadata
     id="metadata15"><rdf:RDF><cc:Work
         rdf:about=""><dc:format>image/svg+xml</dc:format><dc:type
           rdf:resource="http://purl.org/dc/dcmitype/StillImage" /><dc:title></dc:title></cc:Work></rdf:RDF></metadata><defs
     id="defs13"><linearGradient
       id="SVGID_1_"
       gradientUnits="userSpaceOnUse"
       x1="263.8389"
       y1="-344.77591"
       x2="331.28519"
       y2="-344.77591"
       gradientTransform="matrix(1,0,0,-1,-247.5,-270)"><stop
         offset="0.0023"
         style="stop-color:#217939"
         id="stop60" /><stop
         offset="1"
         style="stop-color:#8DC63F"
         id="stop62" /></linearGradient><linearGradient
       inkscape:collect="always"
       xlink:href="#SVGID_1_"
       id="linearGradient4139"
       gradientUnits="userSpaceOnUse"
       gradientTransform="matrix(1,0,0,-1,-247.5,-270)"
       x1="263.8389"
       y1="-344.77591"
       x2="331.28519"
       y2="-344.77591" /><linearGradient
       id="SVGID_1_-1"
       gradientUnits="userSpaceOnUse"
       x1="51.847698"
       y1="65.255898"
       x2="77.012001"
       y2="41.551998"><stop
         offset="0"
         style="stop-color:#F19824"
         id="stop6" /><stop
         offset="0.1612"
         style="stop-color:#EE6E25"
         id="stop8" /><stop
         offset="0.3395"
         style="stop-color:#EB4727"
         id="stop10" /><stop
         offset="0.5157"
         style="stop-color:#E82828"
         id="stop12" /><stop
         offset="0.687"
         style="stop-color:#E61228"
         id="stop14" /><stop
         offset="0.851"
         style="stop-color:#E50429"
         id="stop16" /><stop
         offset="1"
         style="stop-color:#E50029"
         id="stop18" /></linearGradient><linearGradient
       id="SVGID_2_"
       gradientUnits="userSpaceOnUse"
       x1="23.0205"
       y1="56.362301"
       x2="6.3035002"
       y2="32.675301"><stop
         offset="0"
         style="stop-color:#F19824"
         id="stop25" /><stop
         offset="0.0189"
         style="stop-color:#F08F24"
         id="stop27" /><stop
         offset="0.1136"
         style="stop-color:#ED6926"
         id="stop29" /><stop
         offset="0.2157"
         style="stop-color:#EB4927"
         id="stop31" /><stop
         offset="0.325"
         style="stop-color:#E92E27"
         id="stop33" /><stop
         offset="0.4441"
         style="stop-color:#E71A28"
         id="stop35" /><stop
         offset="0.5781"
         style="stop-color:#E60B29"
         id="stop37" /><stop
         offset="0.7391"
         style="stop-color:#E50329"
         id="stop39" /><stop
         offset="1"
         style="stop-color:#E50029"
         id="stop41" /></linearGradient></defs><sodipodi:namedview
     pagecolor="#ffffff"
     bordercolor="#666666"
     borderopacity="1"
     objecttolerance="10"
     gridtolerance="10"
     guidetolerance="10"
     inkscape:pageopacity="0"
     inkscape:pageshadow="2"
     inkscape:window-width="1002"
     inkscape:window-height="902"
     id="namedview11"
     showgrid="false"
     fit-margin-top="0"
     fit-margin-left="0"
     fit-margin-right="0"
     fit-margin-bottom="0"
     inkscape:zoom="1.2880054"
     inkscape:cx="-13.888153"
     inkscape:cy="-1.982292"
     inkscape:window-x="163"
     inkscape:window-y="119"
     inkscape:window-maximized="0"
     inkscape:current-layer="Layer_1" /><path
     style="opacity:0.36213995;fill:#000000;fill-opacity:0.57534246;fill-rule:evenodd;stroke:none"
     inkscape:connector-curvature="0"
     id="path7"
     d="m 30.209036,98.422796 c 5.626411,-5.553785 9.034218,-10.843153 11.506341,-16.105002 1.833744,-3.903077 1.567241,-6.021578 4.572524,-11.674019 6.681738,-11.369765 9.706537,-13.496243 21.51007,-17.373402 6.864565,-1.582623 14.718733,-1.713817 21.487151,0.716469 5.534065,1.987211 8.750351,5.213924 9.994611,8.218802 1.016807,2.455504 0.916107,4.971064 -0.04462,7.494512 -1.002761,2.63388 -2.974216,5.333232 -6.887658,8.151162 -2.005011,1.443608 -4.228229,2.588461 -6.259488,3.440189 -2.055894,0.862004 -4.129904,1.39643 -6.213154,2.036432 -4.066587,1.249335 -8.226449,2.166641 -12.393591,3.082183 -12.412046,2.726586 -24.678961,5.712499 -37.272126,12.012674 z"
     clip-rule="evenodd"
     sodipodi:nodetypes="cscccssccsccc" /><path
     style="fill:#f5f5f5;fill-opacity:0.78431374;stroke:#e86c52;stroke-width:2.93298769000000004;stroke-linecap:round;stroke-linejoin:miter;stroke-miterlimit:10;stroke-opacity:1;stroke-dasharray:none"
     inkscape:connector-curvature="0"
     id="path5"
     d="M 30.134416,91.679377 C 28.016291,81.541793 24.281731,73.10552 19.758352,65.286719 16.403154,59.486935 12.516319,54.133673 8.9199986,48.509538 7.719467,46.63206 6.6834123,44.648623 5.5298244,42.700104 3.2231948,38.804023 1.3530149,34.286734 1.4718619,28.427076 1.5879664,22.70181 3.2863003,18.10919 5.7353248,14.354231 9.7632348,8.1781947 16.510136,3.1145772 25.562847,1.7838334 c 7.401689,-1.08800819 14.341307,0.7501202 19.262511,3.5558198 4.021402,2.2926179 7.135594,5.3551178 9.502761,8.9644128 2.470769,3.767167 4.172163,8.217672 4.314883,14.022741 0.07305,2.974145 -0.426462,5.728351 -1.130155,8.012944 -0.712153,2.312443 -1.857497,4.245431 -2.876506,6.310253 -1.989168,4.030474 -4.48305,7.723246 -6.985838,11.418397 -7.45475,11.006267 -14.451733,22.230688 -17.516087,37.610976 z"
     stroke-miterlimit="10"
     clip-rule="evenodd" /><g
     transform="matrix(0.54711569,0,0,0.54711569,2.7028335,2.2554177)"
     id="g3"><path
       style="fill:#101073"
       inkscape:connector-curvature="0"
       d="m 64.882,52.095 c 11.569,-2.337 17.887,-19.801 10.479,-28.978 -2.098,-2.6 -4.801,-3.609 -8.031,-2.978 -2.971,0.582 -4.512,2.662 -5.395,5.453 -1.492,4.729 -0.898,9.578 -1.035,14.388 0.008,3.02 0.268,6.067 -0.061,9.052 -0.403,3.664 1.506,3.575 4.043,3.063 z"
       id="path5-6" /><path
       style="fill:#27146c"
       inkscape:connector-curvature="0"
       d="M 69.091,16.21 C 64.509,14.129 60.183,12.677 55.433,12.856 53.613,12.848 51.79,12.84 49.97,12.835 36.487,13.288 26.522,19.928 18.817,30.544 c 0.685,3.327 -0.454,5.689 -3.681,6.944 h -0.002 c -4.431,13.036 -3.672,25.548 3.973,37.263 7.225,11.069 16.314,14.681 27.352,11.057 0.002,0.002 0.006,0.002 0.01,0.003 2.72,-0.695 2.768,-2.922 2.789,-5.059 0.053,-5.609 -0.127,-11.226 0.092,-16.828 0.107,-2.787 -0.898,-3.925 -3.516,-4.761 -9.092,-2.9 -16.938,-8.022 -23.923,-14.452 -1.248,-1.149 -3.978,-2.217 -3.003,-3.984 1.145,-2.077 3.876,-2.798 6.477,-2.219 2.695,0.601 5.092,1.909 7.383,3.408 2.789,1.824 5.494,3.792 8.371,5.468 2.308,1.344 4.978,3.901 7.285,2.728 1.707,-0.869 0.364,-4.46 0.569,-6.829 0.091,-1.053 0.013,-2.12 0.019,-3.183 0.073,-14.095 5.968,-21.24 20.079,-23.89 z"
       id="path7-3" /><path
       style="fill:#27146c"
       inkscape:connector-curvature="0"
       d="m 84.646,28.991 c -1.234,-1.244 -1.896,-1.47 -2.975,-2.045 1.537,3.726 1.016,7.561 0.994,11.371 0.002,-0.002 0.002,-0.003 0.004,-0.005 -0.002,0.002 -0.002,0.004 -0.004,0.005 -1.035,8.212 -8.451,18.364 -19.361,21.506 -1.551,0.446 -2.209,1.287 -2.196,2.928 0.051,7.131 0.024,14.264 0.019,21.396 0,1.286 0.102,2.569 1.774,2.591 5.453,0.067 10.817,0.315 15.517,-3.6 15.824,-13.191 18.725,-37.609 6.228,-54.147 z"
       id="path9" /><path
       style="fill:#ca8616"
       inkscape:connector-curvature="0"
       d="m 18.816,30.544 c -0.489,-0.563 -0.947,-1.157 -1.474,-1.684 -2.901,-2.907 -6.664,-3.338 -8.67,-1.013 -2.08,2.411 -1.145,5.688 2.25,8.333 1.281,1.001 2.742,1.089 4.211,1.308 0,0 0,0 0.002,0 3.227,-1.254 4.364,-3.616 3.681,-6.944 z"
       id="path11" /></g></svg>