<?xml version="1.0" encoding="UTF-8" standalone="no"?>
<!-- Generator: Adobe Illustrator 15.0.2, SVG Export Plug-In . SVG Version: 6.00 Build 0)  -->

<svg
   xmlns:dc="http://purl.org/dc/elements/1.1/"
   xmlns:cc="http://creativecommons.org/ns#"
   xmlns:rdf="http://www.w3.org/1999/02/22-rdf-syntax-ns#"
   xmlns:svg="http://www.w3.org/2000/svg"
   xmlns="http://www.w3.org/2000/svg"
   xmlns:xlink="http://www.w3.org/1999/xlink"
   xmlns:sodipodi="http://sodipodi.sourceforge.net/DTD/sodipodi-0.dtd"
   xmlns:inkscape="http://www.inkscape.org/namespaces/inkscape"
   version="1.0"
   id="Layer_1"
   x="0px"
   y="0px"
   width="100"
   height="98.422806"
   viewBox="0 0 99.999996 98.422797"
   enable-background="new 0 0 2481 2073"
   xml:space="preserve"
   inkscape:version="0.48.4 r9939"
   sodipodi:docname="logo.ens.marker.svg"><metadata
     id="metadata15"><rdf:RDF><cc:Work
         rdf:about=""><dc:format>image/svg+xml</dc:format><dc:type
           rdf:resource="http://purl.org/dc/dcmitype/StillImage" /><dc:title></dc:title></cc:Work></rdf:RDF></metadata><defs
     id="defs13"><linearGradient
       id="SVGID_1_"
       gradientUnits="userSpaceOnUse"
       x1="263.8389"
       y1="-344.77591"
       x2="331.28519"
       y2="-344.77591"
       gradientTransform="matrix(1,0,0,-1,-247.5,-270)"><stop
         offset="0.0023"
         style="stop-color:#217939"
         id="stop60" /><stop
         offset="1"
         style="stop-color:#8DC63F"
         id="stop62" /></linearGradient><linearGradient
       inkscape:collect="always"
       xlink:href="#SVGID_1_"
       id="linearGradient4139"
       gradientUnits="userSpaceOnUse"
       gradientTransform="matrix(1,0,0,-1,-247.5,-270)"
       x1="263.8389"
       y1="-344.77591"
       x2="331.28519"
       y2="-344.77591" /></defs><sodipodi:namedview
     pagecolor="#ffffff"
     bordercolor="#666666"
     borderopacity="1"
     objecttolerance="10"
     gridtolerance="10"
     guidetolerance="10"
     inkscape:pageopacity="0"
     inkscape:pageshadow="2"
     inkscape:window-width="1002"
     inkscape:window-height="902"
     id="namedview11"
     showgrid="false"
     fit-margin-top="0"
     fit-margin-left="0"
     fit-margin-right="0"
     fit-margin-bottom="0"
     inkscape:zoom="1.2880054"
     inkscape:cx="61.799172"
     inkscape:cy="-12.441306"
     inkscape:window-x="163"
     inkscape:window-y="120"
     inkscape:window-maximized="0"
     inkscape:current-layer="Layer_1" /><path
     style="opacity:0.36213995;fill:#000000;fill-opacity:0.57534246;fill-rule:evenodd;stroke:none"
     inkscape:connector-curvature="0"
     id="path7"
     d="m 30.209036,98.422796 c 5.626411,-5.553785 9.034218,-10.843153 11.506341,-16.105002 1.833744,-3.903077 1.567241,-6.021578 4.572524,-11.674019 6.681738,-11.369765 9.706537,-13.496243 21.51007,-17.373402 6.864565,-1.582623 14.718733,-1.713817 21.487151,0.716469 5.534065,1.987211 8.750351,5.213924 9.994611,8.218802 1.016807,2.455504 0.916107,4.971064 -0.04462,7.494512 -1.002761,2.63388 -2.974216,5.333232 -6.887658,8.151162 -2.005011,1.443608 -4.228229,2.588461 -6.259488,3.440189 -2.055894,0.862004 -4.129904,1.39643 -6.213154,2.036432 -4.066587,1.249335 -8.226449,2.166641 -12.393591,3.082183 -12.412046,2.726586 -24.678961,5.712499 -37.272126,12.012674 z"
     clip-rule="evenodd"
     sodipodi:nodetypes="cscccssccsccc" /><path
     style="fill:#f5f5f5;fill-opacity:0.78431374;stroke:#e86c52;stroke-width:2.93298769000000004;stroke-linecap:round;stroke-linejoin:miter;stroke-miterlimit:10;stroke-opacity:1;stroke-dasharray:none"
     inkscape:connector-curvature="0"
     id="path5"
     d="M 30.134416,91.679377 C 28.016291,81.541793 24.281731,73.10552 19.758352,65.286719 16.403154,59.486935 12.516319,54.133673 8.9199986,48.509538 7.719467,46.63206 6.6834123,44.648623 5.5298244,42.700104 3.2231948,38.804023 1.3530149,34.286734 1.4718619,28.427076 1.5879664,22.70181 3.2863003,18.10919 5.7353248,14.354231 9.7632348,8.1781947 16.510136,3.1145772 25.562847,1.7838334 c 7.401689,-1.08800819 14.341307,0.7501202 19.262511,3.5558198 4.021402,2.2926179 7.135594,5.3551178 9.502761,8.9644128 2.470769,3.767167 4.172163,8.217672 4.314883,14.022741 0.07305,2.974145 -0.426462,5.728351 -1.130155,8.012944 -0.712153,2.312443 -1.857497,4.245431 -2.876506,6.310253 -1.989168,4.030474 -4.48305,7.723246 -6.985838,11.418397 -7.45475,11.006267 -14.451733,22.230688 -17.516087,37.610976 z"
     stroke-miterlimit="10"
     clip-rule="evenodd" /><g
     transform="matrix(0.57443798,0,0,0.57443798,1.3366805,0.99219758)"
     id="g4"><path
       style="fill:#6cb0dc"
       inkscape:connector-curvature="0"
       d="m 85.963,50.891 c -0.625,0.001 -0.494,0.353 -0.494,0.902 0,0.918 0,1.837 0,2.755 0,1.836 0,3.673 0,5.51 0,1.836 0,3.673 0,5.51 0,0.918 0,1.836 0,2.756 0,0.84 -0.338,1.695 0.686,1.69 0.902,-0.006 1.806,-0.008 2.708,-0.009 0.527,-10e-4 0.773,0.218 0.773,-0.4 0,-0.531 0,-1.062 0,-1.593 0,-1.859 0,-3.718 0,-5.577 0,-3.85 0,-7.7 0,-11.55 -1.225,0.002 -2.449,0.004 -3.673,0.006 -0.493,0.001 1.225,-0.002 0,0 z"
       id="path6" /><path
       style="fill:#cce1f2"
       inkscape:connector-curvature="0"
       d="m 19.938,39.104 c -0.286,-1.561 -0.573,-3.121 -0.859,-4.682 -0.143,-0.78 -0.285,-1.562 -0.429,-2.341 -0.071,-0.392 -0.143,-0.78 -0.214,-1.171 -0.077,-0.425 0.092,-0.231 -0.297,-0.499 -1.27,-0.893 -2.537,-1.785 -3.809,-2.677 -1.273,-0.893 -2.565,-2.054 -3.967,-2.731 0,1.397 0.485,2.959 0.714,4.347 0.127,0.774 0.254,1.549 0.381,2.324 0.097,0.594 0.03,1.687 0.589,2.062 2.63,1.794 5.254,3.591 7.891,5.368 -0.5,-2.73 -1.148,-0.773 0,0 z"
       id="path8" /><path
       style="fill:#6cb0dc"
       inkscape:connector-curvature="0"
       d="m 28.755,26.446 c -0.249,-0.533 -1.442,-1.03 -1.924,-1.354 -0.751,-0.504 -1.503,-1.008 -2.253,-1.513 -0.728,-0.49 -1.455,-0.981 -2.18,-1.476 -0.484,-0.328 -1.647,-1.459 -2.214,-1.459 0.475,2.878 0.948,5.757 1.422,8.636 2.379,-0.948 4.748,-1.935 7.149,-2.834 -0.065,-0.137 -0.151,0.057 0,0 z"
       id="path10" /><path
       style="fill:#6cb0dc"
       inkscape:connector-curvature="0"
       d="m 52.446,70.002 c 1.116,-0.007 2.223,-0.279 3.178,-0.862 0.471,-0.286 0.897,-0.64 1.276,-1.039 0.204,-0.214 0.65,-1.066 0.932,-1.104 0,0.445 -0.266,3.04 0.244,3.07 0.71,0.044 1.435,0.005 2.146,0.005 0.384,0 1.616,0.22 1.9,-0.074 -1.311,0.004 -2.62,0.003 -3.932,0.014 -0.567,0.007 -0.312,-2.894 -0.314,-3.389 -0.021,-2.68 -0.046,-5.363 0.025,-8.041 -0.356,-0.098 -0.217,2.21 -0.229,2.562 -1.363,-1.455 -2.942,-2.171 -4.791,-2.842 -0.978,-0.354 -3.448,-1.71 -1.756,-2.943 0.639,-0.466 1.562,-0.423 2.312,-0.414 0.97,0.012 1.94,0.005 2.911,0.003 0.433,0 0.916,0.057 1.344,-0.013 0.332,-0.053 0.153,-0.661 0.154,-0.917 0.002,-0.51 0.004,-1.019 0.006,-1.527 0.002,-0.448 -0.142,-1.175 0.059,-1.592 -1.508,-0.002 -3.016,-0.011 -4.523,-0.006 -1.445,0.005 -2.844,0.055 -4.136,0.782 -2.023,1.142 -3.18,3.488 -2.793,5.787 0.472,2.818 3.637,3.781 5.952,4.587 1.002,0.35 2.265,0.962 2.192,2.214 -0.081,1.41 -1.576,1.892 -2.753,1.896 -3.314,0.007 -6.628,0.003 -9.942,0.007 -0.335,0 -1.776,0.216 -1.932,-0.155 -0.221,-0.529 -0.021,-1.5 -0.022,-2.072 -10e-4,-0.309 -0.223,-1.407 0.21,-1.518 0.707,-0.18 1.66,-0.01 2.391,-0.012 0.372,0 1.583,0.216 1.816,-0.141 0.335,-0.508 0.313,-1.573 0.425,-2.17 0.045,-0.247 0.471,-1.434 0.085,-1.533 -0.753,-0.193 -1.782,-0.011 -2.562,-0.011 -0.659,-0.001 -1.532,0.155 -2.168,-0.014 -0.403,-0.107 -0.193,-1.17 -0.193,-1.46 0,-0.678 -0.043,-1.364 0,-2.039 0.028,-0.476 1.295,-0.243 1.604,-0.243 1.146,0 2.292,10e-4 3.438,-0.001 0.814,0 0.183,-1.432 0.091,-1.938 -0.094,-0.506 -0.184,-1.013 -0.267,-1.521 -0.087,-0.523 -0.506,-0.458 -0.938,-0.456 -1.175,0.006 -2.351,0.007 -3.524,0.008 -1.175,0 -2.35,-10e-4 -3.524,-10e-4 -0.317,0 -0.848,-0.105 -1.148,0.031 -0.244,0.11 -0.106,1.022 -0.108,1.214 -0.013,2.445 0.012,4.892 -0.011,7.337 -0.02,2.328 -0.051,4.655 -0.041,6.983 0.005,1.101 -0.062,2.227 0.016,3.323 0.034,0.493 2.006,0.234 2.384,0.235 4.838,0.008 9.677,0.022 14.516,-0.01 2.194,-0.013 -5.494,0.037 0,0 z"
       id="path12" /><path
       style="fill:#003572"
       inkscape:connector-curvature="0"
       d="m 57.843,54.78 c 0.187,0.327 1.067,0.163 1.346,0.164 0.759,0.002 1.518,0.004 2.277,0.005 1.545,0.001 3.283,-0.226 4.806,0.051 1.126,0.205 2.047,1.314 1.422,2.444 -0.732,1.327 -2.739,0.95 -3.983,0.95 -1.528,0 -3.058,-0.005 -4.586,0.001 -0.137,0 -1.224,-0.13 -1.224,0.185 -0.022,0.887 -0.021,1.772 -0.024,2.66 -0.007,1.536 -0.017,3.072 -0.007,4.609 0.003,0.562 -0.239,4.166 0.321,4.159 0.787,-0.007 1.573,-0.009 2.359,-0.01 0.393,-0.001 0.786,-0.002 1.179,-0.003 0.61,-0.001 0.393,-0.243 0.394,-0.765 0.002,-1.651 0.005,-3.306 0.002,-4.958 0,-0.3 -0.197,-1.688 0.124,-1.827 0.536,-0.231 1.581,-0.021 2.166,-0.021 1.508,-10e-4 2.949,0.039 4.348,-0.612 4.58,-2.133 4.463,-8.561 -0.296,-10.44 -2.168,-0.856 -4.833,-0.492 -7.114,-0.485 -0.637,10e-4 -1.274,0.004 -1.911,0.005 -0.257,10e-4 -1.351,-0.151 -1.529,0.004 -0.199,0.419 -0.057,1.144 -0.059,1.594 -0.005,0.762 -0.008,1.527 -0.011,2.29 0.011,0.021 0.005,-1.146 0,0 z"
       id="path14" /><path
       style="fill:#003572"
       inkscape:connector-curvature="0"
       d="m 78.431,70.001 c 1.577,0.035 3.155,0.026 4.732,0.029 0.356,0.002 1.503,0.256 1.498,-0.313 -0.008,-0.93 -0.012,-1.859 -0.002,-2.789 0.009,-0.732 -0.046,-0.801 -0.778,-0.796 -0.766,0.006 -1.53,0.007 -2.296,0.007 -1.292,-10e-4 -3.293,0.354 -4.36,-0.573 -0.497,-0.432 -0.4,-1.081 -0.4,-1.674 0,-0.762 0,-1.522 0,-2.285 0,-1.65 -0.001,-3.302 0.002,-4.952 0.002,-1.034 0.822,-1.837 1.854,-1.838 0.792,-10e-4 1.584,-10e-4 2.376,-10e-4 0.439,0 1.957,0.255 2.274,-0.062 0.257,-0.255 0.834,-3.746 0.63,-3.836 -0.508,-0.22 -1.511,-0.021 -2.063,-0.021 -0.882,-10e-4 -1.765,-0.013 -2.647,0.008 -2.288,0.054 -4.598,0.678 -5.818,2.785 -1.249,2.154 -0.82,5.181 -0.822,7.493 -0.003,2.404 -0.618,5.605 1.465,7.354 1.193,1.002 2.82,1.432 4.355,1.464 1.97,0.044 -1.29,-0.027 0,0 z"
       id="path16" /><path
       style="fill:#003572"
       inkscape:connector-curvature="0"
       d="m 23.486,58.625 c -0.49,-1.238 -0.992,-2.473 -1.48,-3.71 -0.279,-0.705 -0.559,-1.41 -0.837,-2.116 -0.202,-0.512 -0.387,-0.357 -0.887,-0.272 -0.37,0.062 -0.734,0.149 -1.104,0.217 -1.531,0.274 -3.062,0.557 -4.592,0.838 -0.681,0.124 -1.387,0.32 -2.075,0.358 -0.158,0.191 0.425,1.216 0.506,1.415 1.175,2.911 2.354,5.82 3.523,8.734 0.227,0.564 3.166,-0.307 3.739,-0.412 1.614,-0.298 3.228,-0.597 4.84,-0.895 -0.543,-1.386 -1.085,-2.773 -1.633,-4.157 z"
       id="path18" /><path
       style="fill:#003572"
       inkscape:connector-curvature="0"
       d="m 18.437,30.911 c 0.498,2.73 1.001,5.462 1.502,8.192 3.137,-1.153 6.211,-2.503 9.315,-3.743 0.429,-0.172 1.107,-0.25 0.999,-0.84 -0.168,-0.896 -0.337,-1.794 -0.502,-2.689 -0.333,-1.795 -0.663,-3.59 -0.995,-5.386 -1.809,0.678 -3.595,1.417 -5.388,2.133 -0.938,0.374 -1.878,0.749 -2.817,1.119 -0.545,0.216 -2.239,0.555 -2.114,1.214 0.498,2.732 -0.024,-0.121 0,0 z"
       id="path20" /><path
       style="fill:#6cb0dc"
       inkscape:connector-curvature="0"
       d="m 42.876,35.084 c -0.058,-0.566 0.95,-1.613 1.251,-2.072 0.5,-0.762 0.999,-1.523 1.498,-2.286 0.949,-1.449 1.947,-2.877 2.848,-4.356 -0.991,-0.092 -2.232,0.372 -3.209,0.55 -1.156,0.211 -2.312,0.423 -3.467,0.634 -0.515,0.094 -1.027,0.188 -1.541,0.281 -0.534,0.096 -0.824,0.835 -1.096,1.239 -0.719,1.072 -1.438,2.146 -2.159,3.217 -0.648,0.965 -1.298,1.929 -1.945,2.894 -0.108,0.161 -0.85,1.008 -0.749,1.191 0.098,0.18 1.252,-0.147 1.435,-0.178 1.171,-0.19 2.343,-0.384 3.515,-0.572 1.151,-0.189 2.447,-0.592 3.619,-0.542 -0.019,-0.179 -0.569,-0.024 0,0 z"
       id="path22" /><path
       style="fill:#003572"
       inkscape:connector-curvature="0"
       d="m 43.058,34.646 c -0.424,0.655 0.387,1.878 0.651,2.549 0.19,0.483 0.189,1.096 0.767,0.993 0.584,-0.103 1.168,-0.204 1.753,-0.307 2.144,-0.378 4.351,-0.666 6.462,-1.196 -0.684,-1.688 -1.366,-3.379 -2.05,-5.067 -0.697,-1.723 -1.26,-3.625 -2.167,-5.247 -1.71,2.811 -3.614,5.522 -5.416,8.275 -0.088,0.136 1.782,-2.722 0,0 z"
       id="path24" /><path
       style="fill:#cce1f2"
       inkscape:connector-curvature="0"
       d="m 12.673,53.931 c 1.53,-0.28 3.061,-0.562 4.591,-0.842 0.76,-0.139 1.523,-0.264 2.282,-0.418 0.367,-0.075 0.734,-0.156 1.107,-0.197 0.523,-0.059 0.424,-0.189 0.725,-0.618 1.739,-2.479 3.484,-4.956 5.218,-7.44 -1.497,0.188 -2.984,0.454 -4.474,0.697 -0.778,0.129 -1.558,0.257 -2.336,0.384 -0.835,0.137 -1.593,0.063 -2.095,0.797 -0.903,1.318 -1.81,2.636 -2.712,3.956 -0.821,1.201 -1.802,2.396 -2.466,3.69 0.052,-0.003 0.106,-0.006 0.16,-0.009 2.168,-0.397 -0.053,0.008 0,0 z"
       id="path26" /><path
       style="fill:#cce1f2"
       inkscape:connector-curvature="0"
       d="m 46.93,37.756 c -0.584,0.104 -1.168,0.207 -1.752,0.309 -0.234,0.041 -0.467,0.082 -0.701,0.123 -0.479,0.084 -0.484,0.302 -0.755,0.688 -0.827,1.179 -1.653,2.356 -2.479,3.536 -0.751,1.07 -1.502,2.143 -2.254,3.215 -0.129,0.185 -0.601,0.699 -0.055,0.602 0.728,-0.119 1.456,-0.239 2.184,-0.357 1.243,-0.204 2.484,-0.411 3.726,-0.625 0.634,-0.11 1.27,-0.213 1.909,-0.291 0.604,-0.077 0.929,-0.891 1.229,-1.331 1.573,-2.312 3.164,-4.61 4.711,-6.938 -1.887,0.47 -3.851,0.722 -5.763,1.069 -0.935,0.168 1.815,-0.329 0,0 z"
       id="path28" /><path
       style="fill:#6cb0dc"
       inkscape:connector-curvature="0"
       d="m 26.065,55.018 c -1.26,0.206 -2.521,0.401 -3.781,0.604 0,0.373 0.396,0.984 0.536,1.336 0.271,0.671 0.538,1.343 0.803,2.015 0.5,1.271 0.998,2.54 1.497,3.811 0.55,-0.437 0.922,-1.268 1.314,-1.85 0.5,-0.744 1.001,-1.488 1.501,-2.232 0.5,-0.744 1,-1.489 1.5,-2.234 0.246,-0.366 1.531,-1.792 1.4,-2.208 -1.588,0.106 -3.196,0.503 -4.77,0.758 -1.259,0.206 1.496,-0.243 0,0 z"
       id="path30" /><path
       style="fill:#6cb0dc"
       inkscape:connector-curvature="0"
       d="m 85.038,78.858 c -0.766,0.101 -0.292,-3.483 -0.453,-4.098 -0.37,-1.406 -2.398,-0.981 -3.138,-0.198 0,-0.72 -0.005,-1.438 0.003,-2.158 0.007,-0.561 -1.153,-0.327 -1.52,-0.322 -0.125,0.002 -0.292,-0.028 -0.297,0.157 -0.007,0.26 0.326,0.142 0.471,0.183 0.375,0.106 0.158,1.892 0.158,2.23 0,0.91 0,1.82 0.001,2.73 0,0.514 0.275,1.437 -0.404,1.473 -0.133,0.007 -0.248,0.188 -0.113,0.29 0.201,0.152 0.789,0.034 1.015,0.035 0.071,0 1.811,0.031 1.404,-0.285 -0.485,-0.379 -0.719,0.224 -0.718,-0.744 0,-0.808 -0.059,-1.639 0.059,-2.439 0.208,-1.424 1.922,-2.124 1.99,-0.299 0.032,0.842 0.009,1.685 0.009,2.525 0,0.564 0.115,0.866 -0.508,0.919 -0.095,0.009 -0.419,0.164 -0.171,0.294 0.274,0.145 0.875,0.027 1.181,0.027 0.341,0 0.683,-10e-4 1.023,-0.002 0.291,0.001 0.301,-0.353 0.008,-0.318 -0.359,0.047 0.108,-0.012 0,0 z"
       id="path32" /><path
       style="fill:#003572"
       inkscape:connector-curvature="0"
       d="m 45.677,72.948 c -0.128,-0.875 -0.947,-1.215 -1.736,-1.322 -1.165,-0.158 -2.68,-0.317 -3.843,-0.119 -0.401,0.374 -0.152,1.731 -0.152,2.279 0,1.049 0,2.098 0,3.146 0,0.404 -0.285,2.351 0.321,2.262 0.174,-0.023 0.73,0.126 0.828,-0.08 0.143,-0.305 0.02,-0.896 0.02,-1.227 -0.001,-0.508 -0.222,-1.594 0.067,-2.046 0.203,-0.315 1.383,-0.128 1.7,-0.168 1.544,-0.194 3.054,-0.955 2.795,-2.725 -0.1,-0.674 0.143,0.984 0,0 z m -1.763,1.727 c -0.587,0.511 -1.793,0.793 -2.555,0.557 -0.535,-0.166 -0.246,-1.953 -0.245,-2.339 0.003,-0.65 -0.141,-0.931 0.591,-0.938 0.624,-0.007 1.326,-0.053 1.923,0.168 1.098,0.404 1.078,1.859 0.286,2.552 -0.526,0.459 0.524,-0.457 0,0 z"
       id="path34" /><path
       style="fill:#6cb0dc"
       inkscape:connector-curvature="0"
       d="m 69.685,72.071 c -0.059,-0.258 0.137,-0.528 -0.288,-0.526 -0.784,0.004 -1.567,0.008 -2.352,0.009 -0.516,0.001 -4.079,-0.298 -4.228,0.123 -0.375,1.07 1.905,0.513 2.45,0.492 0.559,-0.021 0.43,0.34 0.43,0.812 0,0.769 0,1.535 0,2.305 0,0.488 -0.302,3.684 0.093,3.864 0.18,0.082 0.942,0.116 1.083,-0.036 0.291,-0.312 0.07,-1.474 0.071,-1.879 10e-4,-1.563 0.017,-3.129 -0.001,-4.692 -0.007,-0.911 2.873,0.116 2.742,-0.472 -0.044,-0.193 0.055,0.25 0,0 z"
       id="path36" /><path
       style="fill:#003572"
       inkscape:connector-curvature="0"
       d="M 50.52,78.984 C 49.809,79.111 50.13,76.523 50.122,76.04 50.101,74.736 49.8,74.032 48.38,73.902 c -0.688,-0.062 -1.375,0.069 -2.025,0.281 -0.35,0.112 -0.244,1.289 -0.184,1.572 0.103,0.492 0.759,-0.984 0.785,-1.047 0.176,-0.396 0.454,-0.639 0.901,-0.625 0.806,0.022 1.713,0.995 1.138,1.814 -0.489,0.698 -2.204,0.538 -2.939,0.909 -0.955,0.481 -0.96,1.796 -10e-4,2.276 1.041,0.521 2.208,0.198 2.925,-0.677 0,0.61 -0.067,0.777 0.595,0.771 0.315,-0.004 0.631,0 0.946,-0.002 0.249,10e-4 0.242,-0.235 -10e-4,-0.19 -0.356,0.064 0.073,-0.013 0,0 z m -1.465,-2.015 c 0.019,0.727 -0.224,1.449 -0.872,1.847 -0.664,0.406 -1.596,0.203 -1.74,-0.634 -0.139,-0.809 0.438,-1.294 1.134,-1.505 0.415,-0.125 0.833,-0.238 1.248,-0.361 0.363,-0.1 0.23,0.45 0.23,0.653 0.012,0.5 0,-0.207 0,0 z"
       id="path38" /><path
       style="fill:#6cb0dc"
       inkscape:connector-curvature="0"
       d="m 70.07,76.105 c 0.432,0.012 3.046,0.292 3.244,-0.149 0.404,-0.901 -0.915,-1.952 -1.624,-2.138 -2.522,-0.658 -4.217,2.736 -2.634,4.589 0.68,0.795 1.935,1.157 2.92,0.755 0.506,-0.207 0.934,-0.611 1.164,-1.107 0.097,-0.208 0.152,-0.435 0.185,-0.661 0.034,-0.238 -0.318,-0.32 -0.381,-0.085 -0.272,1.037 -1.012,2.002 -2.222,1.547 -0.72,-0.272 -1.508,-2.775 -0.652,-2.751 0.488,0.013 -0.24,-0.006 0,0 z m 0.33,-1.794 c 1.379,-1.056 1.957,1.538 1.226,1.491 -0.529,-0.035 -1.06,-0.021 -1.59,-0.026 -0.617,-0.005 0.148,-1.299 0.364,-1.465 0.208,-0.16 -0.415,0.316 0,0 z"
       id="path40" /><path
       style="fill:#6cb0dc"
       inkscape:connector-curvature="0"
       d="m 78.691,77.168 c -0.324,-0.076 -0.482,0.959 -0.658,1.188 -0.381,0.499 -0.997,0.663 -1.593,0.497 -1.334,-0.371 -1.191,-2.586 -0.918,-3.609 0.352,-1.317 1.864,-1.651 2.45,-0.293 0.023,0.055 0.518,1.514 0.721,0.918 0.102,-0.299 0.158,-1.617 -0.115,-1.832 -1,-0.786 -2.967,-0.302 -3.766,0.544 -0.867,0.917 -1.003,2.337 -0.388,3.43 0.562,1.001 1.792,1.594 2.916,1.23 0.446,-0.146 0.838,-0.438 1.096,-0.831 0.103,-0.163 0.598,-1.162 0.255,-1.242 -0.181,-0.043 0.189,0.044 0,0 z"
       id="path42" /><path
       style="fill:#003572"
       inkscape:connector-curvature="0"
       d="m 63.278,76.521 c -0.475,-0.251 -4.231,-1.105 -2.516,-2.142 0.518,-0.312 1.428,-0.438 1.911,0.006 0.135,0.123 0.791,1.705 0.926,1.338 0.086,-0.231 0.009,-0.638 0.01,-0.882 0.003,-0.546 0.006,-0.636 -0.522,-0.782 -0.791,-0.218 -1.674,-0.279 -2.438,0.069 -0.561,0.255 -1.099,0.742 -0.998,1.416 0.116,0.777 0.93,1.082 1.583,1.291 0.632,0.201 1.567,0.281 2.023,0.824 0.555,0.656 -0.354,1.241 -0.908,1.354 -0.536,0.109 -1.292,0.138 -1.687,-0.315 -0.238,-0.274 -0.326,-0.666 -0.446,-1 0.012,0.032 -0.312,-0.866 -0.446,-0.404 -0.083,0.283 -0.139,1.464 0.126,1.661 0.579,0.431 1.746,0.451 2.426,0.348 1.365,-0.21 2.566,-1.93 0.956,-2.782 -0.472,-0.25 0.922,0.488 0,0 z"
       id="path44" /><path
       style="fill:#003572"
       inkscape:connector-curvature="0"
       d="m 55.744,74.718 c 0,-1.466 -1.93,-0.492 -2.396,0.229 0,-0.125 0.104,-0.912 -0.117,-0.914 -0.173,-0.002 -1.563,-0.095 -1.563,0.1 0,0.213 0.505,0.038 0.613,0.176 0.194,0.245 0.062,0.851 0.062,1.127 -0.006,1.045 0.215,2.344 -0.008,3.36 -0.023,0.104 -1.031,0.378 -0.371,0.386 0.261,0.002 2.255,0.161 2.27,-0.116 0.009,-0.179 -0.55,-0.07 -0.658,-0.1 -0.271,-0.069 -0.127,-0.78 -0.128,-0.967 -0.006,-0.927 -0.219,-2.214 0.26,-3.056 0.6,-1.054 1.116,-0.446 1.438,0.346 0.078,0.191 0.175,0.803 0.482,0.762 0.263,-0.038 0.116,-1.139 0.116,-1.333 z"
       id="path46" /><path
       style="fill:#003572"
       inkscape:connector-curvature="0"
       d="m 58.421,78.982 c -0.57,0.069 -0.312,-1.418 -0.312,-1.764 -0.003,-0.843 -0.012,-1.686 -0.002,-2.528 0.01,-0.949 -0.636,-0.679 -1.446,-0.664 -0.685,0.008 0.292,0.275 0.315,0.352 0.146,0.481 0.218,4.52 -0.178,4.605 -0.892,0.196 0.043,0.198 0.526,0.199 0.408,0.001 0.856,0.049 1.261,0.003 0.227,-0.026 -0.015,-0.221 -0.164,-0.203 -0.272,0.034 0.087,-0.01 0,0 z"
       id="path48" /><path
       style="fill:#003572"
       inkscape:connector-curvature="0"
       d="m 56.744,72.836 c -0.005,0.743 1.427,0.741 1.401,-0.01 -0.022,-0.756 -1.396,-0.753 -1.401,0.01 z"
       id="path50" /></g></svg>