<?xml version="1.0" encoding="utf-8"?>
<!-- Generator: Adobe Illustrator 16.0.0, SVG Export Plug-In . SVG Version: 6.00 Build 0)  -->
<!DOCTYPE svg PUBLIC "-//W3C//DTD SVG 1.1//EN" "http://www.w3.org/Graphics/SVG/1.1/DTD/svg11.dtd">
<svg version="1.1" id="Calque_1" xmlns="http://www.w3.org/2000/svg" xmlns:xlink="http://www.w3.org/1999/xlink" x="0px" y="0px"
	 width="100px" height="100px" viewBox="0 0 100 100" enable-background="new 0 0 100 100" xml:space="preserve">
<g>
	<path fill-rule="evenodd" clip-rule="evenodd" fill="#B9B7B8" d="M51.043,51.604c-2.075,1.062-4.084,2.368-6.347,3.059
		c-8.153,2.49-15.555,1.082-22.101-4.353c-4.839-4.02-7.339-9.289-7.719-15.562c-0.398-6.581,1.856-12.228,6.413-16.856
		c3.694-3.753,8.279-5.896,13.589-6.48c4.806-0.53,9.29,0.343,13.527,2.614c0.169,0.091,0.557,0.236,0.708,0.361
		c0.073,0.324-0.368,0.548-0.584,0.727c-1.699,1.398-3.203,2.98-4.52,4.74c-0.071,0.095-0.186,0.131-0.296,0.181
		c-0.121,0.032-0.242,0.059-0.367,0.045c-3.843-0.995-7.732-1.644-11.718-1.574c-1.572,0.026-3.143,0.012-4.696,0.351
		c-3.503,0.766-5.101,2.677-5.165,6.286c-0.094,5.201,1.043,10.168,2.859,15.008c1.157,3.081,2.707,5.94,4.614,8.62
		c2.627,3.688,5.7,4.354,9.624,2.072c2.103-1.222,4.033-2.675,5.896-4.228c0.103-0.067,0.094-0.1,0.217-0.102
		c0.938,1.102,1.83,2.032,2.923,2.894c0.91,0.718,1.938,1.244,2.888,1.9C50.869,51.404,51.106,51.497,51.043,51.604z"/>
	<path fill-rule="evenodd" clip-rule="evenodd" fill="#FE8400" d="M51.043,51.604c0-0.063-0.011-0.124-0.032-0.184
		c1.187-1.449,2.618-2.64,4.045-3.836c0.582-0.19,0.645-0.107,1.79-0.252c4.547-0.183,8.963-1.051,13.255-2.55
		c2.979-1.041,5.869-2.277,8.427-4.174c2.929-2.173,3.519-4.483,2.01-7.828c-0.917-2.032-2.093-3.914-3.419-5.696
		c-3.957-5.319-8.764-9.663-14.707-12.686c-0.688-0.351-1.407-0.599-2.155-0.782c-1.833-0.452-3.417-0.024-4.811,1.248
		c-0.747,0.683-1.314,1.527-2.072,2.195c-0.109,0.061-0.227,0.094-0.352,0.103c-1.464-0.672-2.991-1.469-3.907-2.849
		c4.176-3.124,9.129-4.431,14.263-4.292c9.828,0.269,18.358,6.989,21.024,16.448c3.592,12.739-5.296,26.159-18.401,27.893
		C60.687,55.066,55.731,54.141,51.043,51.604z"/>
	<path fill-rule="evenodd" clip-rule="evenodd" fill="#FE8500" d="M13.253,72.577c0.011-6.833,4.327-10.797,11.224-10.384
		c1.538,0.093,3.04,0.283,4.509,0.786c0.784,0.269,1.119,0.689,1.026,1.507c-0.095,0.836,0.369,1.944-0.201,2.45
		c-0.625,0.555-1.367-0.473-2.114-0.666c-1.457-0.38-2.905-0.656-4.418-0.41c-2.603,0.422-4.202,1.915-4.776,4.477
		c-0.367,1.639-0.357,3.295,0.127,4.908c0.992,3.301,4.499,4.856,8.303,3.696c0.652-0.199,1.285-0.478,1.898-0.78
		c0.781-0.384,1.163-0.333,1.191,0.687c0.081,2.889-0.08,3.16-2.935,3.723c-2.446,0.481-4.898,0.437-7.316-0.188
		c-3.838-0.991-6.245-4.098-6.513-8.352C13.227,73.548,13.253,73.062,13.253,72.577z"/>
	<path fill-rule="evenodd" clip-rule="evenodd" fill="#FE8500" d="M46.976,74.936c0,2.14-0.065,4.281,0.026,6.417
		c0.047,1.114-0.347,1.438-1.382,1.316c-0.597-0.07-1.209-0.011-1.814-0.014c-0.202-0.002-0.517,0.06-0.586-0.042
		c-0.841-1.223-1.746-0.281-2.591-0.066c-1.396,0.355-2.78,0.444-4.185,0.122c-1.977-0.453-3.388-1.989-3.57-4.081
		c-0.305-3.501-0.076-7.017-0.131-10.525c-0.01-0.601,0.244-0.876,0.875-0.854c0.886,0.035,1.779,0.062,2.662-0.004
		c0.866-0.064,1.123,0.282,1.11,1.108c-0.04,2.501-0.014,5.005-0.029,7.506c-0.005,0.772,0.024,1.535,0.329,2.254
		c0.467,1.099,1.607,1.658,2.898,1.443c1.184-0.196,1.799-0.844,1.822-2.182c0.05-2.945,0.061-5.893,0.006-8.838
		c-0.019-0.994,0.259-1.315,1.282-1.302c3.277,0.042,3.278,0.001,3.278,3.261C46.976,71.95,46.976,73.443,46.976,74.936z"/>
	<path fill-rule="evenodd" clip-rule="evenodd" fill="#FE8501" d="M51.407,74.897c0-2.22,0.025-4.439-0.015-6.658
		c-0.014-0.793,0.251-1.092,1.048-1.032c0.763,0.057,1.533,0.005,2.299,0.016c0.236,0.005,0.646,0.004,0.681,0.104
		c0.44,1.318,1.208,0.423,1.851,0.296c0.354-0.07,0.695-0.198,1.049-0.268c2.856-0.561,3.574,0.146,3.127,3.03
		c-0.091,0.59-0.349,0.751-0.904,0.596c-0.895-0.25-1.802-0.359-2.74-0.29c-1.104,0.081-1.734,0.614-1.771,1.732
		c-0.05,1.529-0.068,3.062-0.081,4.594c-0.014,1.572-0.026,3.147,0.006,4.719c0.014,0.664-0.192,0.964-0.896,0.931
		c-0.886-0.042-1.778-0.048-2.662,0.002c-0.755,0.041-0.993-0.287-0.987-0.992c0.02-2.26,0.008-4.52,0.008-6.778
		C51.416,74.897,51.412,74.897,51.407,74.897z"/>
	<path fill-rule="evenodd" clip-rule="evenodd" fill="#FE8500" d="M63.948,74.935c0-2.177,0.03-4.353-0.015-6.527
		c-0.018-0.866,0.218-1.278,1.154-1.201c0.801,0.064,1.616,0.067,2.416-0.001c0.885-0.072,1.071,0.311,1.065,1.12
		c-0.032,4.392-0.038,8.784,0.003,13.177c0.009,0.911-0.288,1.169-1.177,1.174c-3.447,0.018-3.447,0.046-3.447-3.389
		C63.948,77.836,63.948,76.386,63.948,74.935z"/>
	<path fill-rule="evenodd" clip-rule="evenodd" fill="#C85001" d="M49.115,14.314c1.229,0.936,2.647,1.832,3.875,2.768
		c0.235,0.268,0.122,0.547-0.021,0.784c-0.89,1.486-1.631,3.059-2.586,4.509c-0.113,0.057-0.251-0.034-0.376-0.048
		c-1.863-0.68-3.631-1.453-5.559-1.961c-0.271-0.071-0.716-0.05-0.836-0.333c1.058-1.937,2.893-3.513,4.501-4.956
		c0.265-0.235,0.526-0.479,0.789-0.718C49.037,14.331,48.981,14.344,49.115,14.314z"/>
	<path fill-rule="evenodd" clip-rule="evenodd" fill="#FE8502" d="M66.28,65.241c-1.668,0.003-2.591-0.716-2.597-2.023
		c-0.005-1.244,1-2.036,2.616-2.061c1.571-0.023,2.592,0.792,2.589,2.07C68.885,64.512,67.945,65.237,66.28,65.241z"/>
	<path fill-rule="evenodd" clip-rule="evenodd" fill="#FE8500" d="M45.042,46.599c-3.742-4.659-5.53-9.95-5.131-15.938
		c0.26-3.907,1.518-7.292,3.601-10.575c0.072-0.003,0.197-0.086,0.3-0.036c1.807,0.433,3.516,0.973,5.233,1.659
		c0.402,0.16,0.978,0.358,1.339,0.667c-0.119,0.755-0.331,1.272-0.559,1.844c-1.742,4.374-2.68,8.925-3.01,13.605
		c-0.151,2.144,0.097,4.255,0.766,6.305c0.024,0.127,0.024,0.254,0.003,0.381c-0.617,0.887-1.185,1.831-2.349,2.113
		C45.172,46.606,45.108,46.598,45.042,46.599z"/>
	<path fill-rule="evenodd" clip-rule="evenodd" fill="#C85001" d="M44.978,46.513c0.733-0.66,1.866-1.788,2.599-2.447
		c0.112,0.198,0.307,0.515,0.483,0.718c1.427,1.639,3.08,2.317,5.124,2.479c0.493,0.039,0.748-0.01,2.062,0.202
		c-1.088,1.451-2.747,3.08-4.203,4.14C48.753,50.443,46.519,48.573,44.978,46.513z"/>
	<path fill-rule="evenodd" clip-rule="evenodd" fill="#B9B7B8" d="M55.154,47.526c-0.991-0.136-2.071-0.296-3.061-0.435
		c-1.886-0.267-3.314-1.123-4.405-2.718c-0.005-0.077-0.125-0.231-0.112-0.309c0.517-0.651,0.601-0.698,1.035-1.167
		c2.707-2.919,5.051-6.105,6.726-9.722c2.142-4.625,1.427-7.029-3.369-9.706c-0.578-0.322-1.339-0.415-1.618-1.16
		c0.609-1.881,1.859-3.343,2.668-5.12c0.061-0.033,0.06-0.047,0.129-0.038c0.501,1.032,1.466,1.613,2.16,2.491
		c2.667,3.37,4.274,7.166,4.728,11.441c0.641,6.049-1.013,11.445-4.789,16.38"/>
	<path fill-rule="evenodd" clip-rule="evenodd" fill="#FE8500" d="M81.008,67.079c-4.526-0.855-8.132,1.273-9,5.379
		c-0.397,1.875-0.406,3.781,0.155,5.635c0.767,2.531,2.425,4.139,5.081,4.599c2.057,0.357,4.103,0.214,6.128-0.244
		c2.338-0.527,2.407-0.667,2.369-3.075c-0.016-0.927-0.247-1.2-1.124-0.684c-1.426,0.84-2.986,1.204-4.643,1.082
		c-2.041-0.15-3.224-1.184-3.579-2.987c-0.137-0.696-0.004-0.949,0.738-0.928c1.413,0.042,2.828,0.012,4.242,0.012
		s2.828-0.002,4.243,0.003c0.515,0.001,0.935-0.035,1.046-0.709C87.286,71.43,84.75,67.786,81.008,67.079z M81.386,73.006
		c-0.762-0.032-1.527-0.007-2.292-0.007c-0.483,0-0.965,0-1.448,0c-1.431-0.003-1.655-0.347-1.102-1.686
		c0.472-1.142,1.877-1.745,3.38-1.455c1.198,0.233,2.076,1.268,2.131,2.443C82.08,72.819,81.919,73.028,81.386,73.006z"/>
</g>
</svg>
