<?xml version="1.0" encoding="utf-8"?>
<!-- Generator: Adobe Illustrator 16.0.0, SVG Export Plug-In . SVG Version: 6.00 Build 0)  -->
<!DOCTYPE svg PUBLIC "-//W3C//DTD SVG 1.1//EN" "http://www.w3.org/Graphics/SVG/1.1/DTD/svg11.dtd">
<svg version="1.1" id="Calque_1" xmlns="http://www.w3.org/2000/svg" xmlns:xlink="http://www.w3.org/1999/xlink" x="0px" y="0px"
	 width="100px" height="100px" viewBox="0 0 100 100" enable-background="new 0 0 100 100" xml:space="preserve">
<g>
	<path fill="#E9F900" d="M61.796,18.175C61.797,18.188,61.796,18.18,61.796,18.175L61.796,18.175z"/>
	<path fill="#E9F900" d="M68.945,31.726C68.954,31.721,68.948,31.724,68.945,31.726L68.945,31.726z"/>
	<path fill="#E9F900" d="M57.04,45.061C57.082,45.031,57.044,45.032,57.04,45.061C57.05,45.054,57.041,45.054,57.04,45.061z"/>
	<path fill="#E9F900" d="M48.571,33.065C48.48,33.18,48.556,33.119,48.571,33.065C48.554,33.086,48.566,33.083,48.571,33.065z"/>
	<path fill="#E9F900" d="M18.218,23.566c-0.059,0.015-0.042-0.615-0.042-0.648C18.176,23.114,18.138,23.585,18.218,23.566
		C18.195,23.572,18.336,23.537,18.218,23.566z"/>
	<path fill="#E9F900" d="M39.49,44.526C39.477,44.709,39.578,44.576,39.49,44.526C39.488,44.56,39.51,44.537,39.49,44.526z"/>
	<path fill="#E9F900" d="M38.224,49.457C38.284,49.421,38.147,49.457,38.224,49.457C38.229,49.454,38.22,49.457,38.224,49.457z"/>
	<path fill="#E9F900" d="M49.838,45.627C49.838,45.637,49.85,45.67,49.838,45.627C49.838,45.628,49.84,45.634,49.838,45.627z"/>
	<path fill="#E9F900" d="M37.842,47.439C37.835,47.439,37.695,47.572,37.842,47.439C37.84,47.439,37.822,47.457,37.842,47.439z"/>
	<path fill="#E9F900" d="M53.801,31.714c0.004,0.042,0.016,0.083,0.033,0.121C53.839,31.765,53.786,31.537,53.801,31.714
		C53.803,31.724,53.799,31.691,53.801,31.714z"/>
	<path fill="#E9F900" d="M57.689,27.264C57.69,27.259,57.657,27.459,57.689,27.264C57.684,27.285,57.686,27.288,57.689,27.264z"/>
	<path fill="#E9F900" d="M55.666,37.098C55.621,37.042,55.635,37.199,55.666,37.098C55.66,37.091,55.662,37.111,55.666,37.098z"/>
	<path fill="#E9F900" d="M53.734,32.819C53.771,32.727,53.674,32.884,53.734,32.819C53.738,32.809,53.729,32.825,53.734,32.819z"/>
	<path fill="#E9F900" d="M73.881,17.26C73.861,17.269,73.874,17.263,73.881,17.26L73.881,17.26z"/>
	<path fill="#E9F900" d="M53.748,31.645c-0.035,0.015-0.053,0.041,0,0.023C53.748,31.66,53.748,31.653,53.748,31.645z"/>
	<path fill="#E9F900" d="M51.779,24.82c-0.021-0.068-0.042-0.136-0.063-0.204C51.639,24.89,51.613,24.778,51.779,24.82
		C51.759,24.756,51.771,24.818,51.779,24.82z"/>
	<path fill="#E9F900" d="M68.945,31.732C68.943,31.726,68.941,31.721,68.945,31.732L68.945,31.732z"/>
	<path fill="#E9F900" d="M76.473,22.369C76.471,22.382,76.472,22.372,76.473,22.369L76.473,22.369z"/>
	<path fill="#E9F900" d="M51.285,28.503c-0.018,0.083-0.035,0.167-0.053,0.25C51.537,28.682,51.555,28.599,51.285,28.503
		C51.258,28.586,51.383,28.527,51.285,28.503z"/>
	<path fill="#E9F900" d="M46.746,48.18c0.043,0.049,0.086,0.098,0.128,0.145C46.857,48.258,46.824,48.2,46.746,48.18z"/>
	<path fill="#E9F900" d="M69.115,80.542C69.115,80.542,69.106,80.539,69.115,80.542L69.115,80.542z"/>
	<path fill="#E9F900" d="M18.814,74.535C18.855,74.518,18.814,74.479,18.814,74.535C18.823,74.531,18.814,74.525,18.814,74.535z"/>
	<path fill="#E9F900" d="M78.805,67.561C78.804,67.558,78.799,67.548,78.805,67.561L78.805,67.561z"/>
	<path fill="#E9F900" d="M23.204,67.752C23.204,67.739,23.193,67.725,23.204,67.752C23.204,67.747,23.202,67.747,23.204,67.752z"/>
	<path fill="#E9F900" d="M24.663,67.938C24.668,67.924,24.652,67.906,24.663,67.938C24.665,67.932,24.661,67.932,24.663,67.938z"/>
	<path fill="#E9F900" d="M81.548,70.314C81.553,70.306,81.559,70.294,81.548,70.314L81.548,70.314z"/>
	<path fill="#E9F900" d="M79.109,61.006C79.23,60.934,79.1,60.919,79.109,61.006C79.129,60.994,79.107,60.988,79.109,61.006z"/>
	<path fill="#E9F900" d="M75.771,43.775C75.79,43.691,75.66,43.714,75.771,43.775C75.775,43.757,75.752,43.764,75.771,43.775z"/>
	<path fill="#E9F900" d="M77.312,39.381c0.095-0.055,0.19-0.11,0.285-0.165C77.421,38.956,77.362,39.222,77.312,39.381
		C77.407,39.328,77.34,39.293,77.312,39.381z"/>
	<path fill="#E9F900" d="M77.262,34.652h0.002H77.262z"/>
	<path fill="#E9F900" d="M68.948,31.732C68.945,31.732,68.943,31.733,68.948,31.732L68.948,31.732z"/>
	<path fill="#E9F900" d="M23.799,47.144C23.84,47.148,23.81,47.133,23.799,47.144C23.808,47.145,23.802,47.141,23.799,47.144z"/>
	<path fill="#E9F900" d="M19.559,55.415c-0.054-0.08-0.128-0.118-0.223-0.113C19.307,55.511,19.381,55.548,19.559,55.415
		C19.5,55.32,19.5,55.456,19.559,55.415z"/>
	<path fill="#E9F900" d="M23.225,56.098C23.038,56.215,23.316,56.243,23.225,56.098C23.194,56.117,23.242,56.125,23.225,56.098z"/>
	<path fill="#E9F900" d="M30.363,50.389C30.372,50.367,30.364,50.386,30.363,50.389L30.363,50.389z"/>
	<path fill="#E9F900" d="M71.553,40.949C71.593,40.861,71.524,40.909,71.553,40.949C71.561,40.932,71.547,40.941,71.553,40.949z"/>
	<path fill="#E9F900" d="M75.786,40.551C75.898,40.585,75.817,40.528,75.786,40.551C75.807,40.557,75.793,40.546,75.786,40.551z"/>
	<path fill="#63AFDE" d="M59.602,26.418c-1.001,4.674-1.953,9.361-3.006,14.023c-0.495,2.187-0.896,4.382-1.399,6.565
		c-0.265,1.144-0.492,2.296-0.706,3.45c-0.189,1.029-0.871,2.377-0.555,3.417c1.374-2.992,2.493-6.156,3.723-9.216
		c0.137-0.342,0.266-0.687,0.392-1.033c0.153-0.422,0.48-0.623,0.671-1.038c0.376-0.814,0.676-1.67,1.009-2.502
		c0.741-1.852,1.482-3.704,2.222-5.557c0.69-1.729,1.378-3.459,2.062-5.19c0.119-0.303,0.271-0.594,0.356-0.909
		c0.11-0.406-0.014-0.678,0.138-1.057c0.354-0.889,0.748-1.756,1.11-2.64c0.642-1.564,1.251-3.145,1.821-4.736
		c0.277-0.656,0.675-1.278,0.756-2.001c0.419-0.791,0.718-0.034,1.242,0.056c-0.438,0.442-0.633,1.033-0.797,1.617
		c-0.219,0.775-0.558,1.487-0.848,2.236c-0.567,1.462-1.227,2.975-1.611,4.495c-1.266,2.966-2.312,6.008-3.438,9.005
		c-1.216,3.237-2.431,6.473-3.641,9.712c-0.601,1.61-1.18,3.229-1.758,4.847c-0.501,1.401-1.563,2.96-1.586,4.478
		c0.669-0.827,1.207-1.751,1.681-2.701c0.543-1.088,1.168-2.084,1.812-3.122c1.257-2.027,2.448-4.093,3.625-6.167
		c1.191-2.097,2.415-4.166,3.648-6.238c0.592-0.994,1.166-1.999,1.706-3.022c0.211-0.4,0.699-1.037,0.717-1.457
		c-0.005,0.004-0.004-0.005-0.007-0.007c0.005,0.001,0.006-0.001,0.004-0.006c0.092,0.08,3.069-5.062,3.312-5.406
		c0.659-0.938,1.141-1.987,1.751-2.956c0.267-0.423,1.162-2.699,1.728-2.343c0.545,0.343,0.362,0.437,0.08,1.004
		c-0.123,0.247-0.98,1.59-0.872,1.793c-0.404,0.204-0.721,0.527-0.918,0.933c-0.087,0.177-0.372,1.25-0.395,1.243
		c-0.778,0.771-0.978,1.65-1.471,2.492c-0.191,0.326-0.218,1.026-0.643,1.168c-0.328,0.385-0.762,0.737-0.586,1.304
		c-0.524-0.141-1.504,2.19-1.736,2.604c-0.285,0.509-0.6,1.017-0.844,1.548c-0.165,0.358,0.059,0.426-0.269,0.637
		c-0.183,0.118-0.292,0.309-0.391,0.495c-1.263,2.384-2.622,4.721-3.927,7.083c-1.334,2.415-2.666,4.83-4.008,7.24
		c-0.571,1.025-1.192,2.029-1.746,3.063c-0.232,0.435-0.266,0.908-0.56,1.231c-0.15,0.166-0.418,0.985-0.418,1.202
		c0.435-0.191,0.747-0.711,0.93-1.111c0.448-0.544,0.901-1.084,1.349-1.629c1.067-1.302,2.116-2.619,3.173-3.93
		c2.032-2.522,4.062-5.048,6.06-7.597c0.895-1.141,1.791-2.265,2.741-3.359c0.428-0.492,0.831-1.012,1.123-1.599
		c0.617-0.519,1.128-1.147,1.607-1.792c0.824-1.105,1.748-2.119,2.582-3.215c0.825-1.087,1.821-2.08,2.542-3.24
		c0.862-1.061,1.716-2.128,2.61-3.16c0.478-0.552,0.307-1.326,0.307-2.012c-0.001-0.885-0.001-1.77-0.001-2.655
		c0-2.492-1.759-4.296-4.164-4.793c-1.373-0.283-2.854-0.136-4.246-0.136c-1.715,0-3.43,0-5.145,0c-1.583,0-3.166,0-4.749,0
		c-0.319,0-1.726-0.201-1.909,0.078c-0.208,0.317-0.226,1.145-0.25,1.507c-0.186,0.217-0.164,0.494-0.169,0.757
		c-0.128,0.353-0.229,0.716-0.31,1.083c-0.19,0.868-0.314,1.732-0.528,2.597C60.212,23.359,59.912,24.903,59.602,26.418
		C58.782,30.242,59.631,26.275,59.602,26.418z M57.04,45.061C57.044,45.034,57.087,45.028,57.04,45.061
		C57.041,45.054,57.05,45.054,57.04,45.061z M76.473,22.369C76.473,22.375,76.466,22.38,76.473,22.369
		C76.473,22.371,76.471,22.372,76.473,22.369z M73.881,17.26C73.877,17.273,73.855,17.26,73.881,17.26
		C73.88,17.263,73.877,17.26,73.881,17.26z M61.796,18.175C61.799,18.175,61.796,18.193,61.796,18.175
		C61.797,18.175,61.796,18.178,61.796,18.175z"/>
	<path fill="#63AFDE" d="M81.896,45.195c-0.693,0.221-1.377,0.963-1.98,1.373c-0.76,0.515-1.47,1.066-2.217,1.592
		c-1.808,1.275-3.656,2.515-5.466,3.799c-3.619,2.568-7.237,5.138-10.854,7.711c0.847,0.091,1.668-0.546,2.396-0.893
		c1.193-0.568,2.386-1.138,3.577-1.709c2.385-1.141,4.767-2.286,7.149-3.432c2.162-1.039,4.32-2.085,6.493-3.09
		c0.355-0.182,0.81-0.182,1.047-0.551c0.008-0.644,0.017-1.288,0.024-1.931c0.007-0.645,0.015-1.289,0.021-1.933
		C82.09,46.01,82.249,45.026,81.896,45.195C81.534,45.31,82.078,45.108,81.896,45.195z"/>
	<path fill="#63AFDE" d="M47.004,17.624c0.1,3.167,0.504,6.354,0.764,9.513c0.266,3.243,0.521,6.486,0.775,9.73
		c0.124,1.578,0.25,3.156,0.385,4.733c0.066,0.77,0.17,1.545,0.193,2.317c0.025,0.832,0.211,1.624,0.251,2.435
		c0.037,0.725,0.073,1.45,0.11,2.175c0.026,0.516,0.253,1.449,0.082,1.93c-0.069,0.483,0.053,1.174,0.17,1.646
		c0,0.453,0.032,1.635,0.342,1.885c0.577-7.861,1.3-15.653,1.927-23.518c0.322-4.04,0.659-8.078,0.995-12.115
		c0.037-0.442,0.33-2.077,0.086-2.408c-0.333-0.453-2.027-0.146-2.525-0.143c-1.062,0.006-2.123,0.012-3.184,0.018
		C46.415,15.829,46.965,16.975,47.004,17.624C47.008,17.748,46.993,17.443,47.004,17.624z M51.716,24.616
		c0.021,0.068,0.042,0.136,0.063,0.204c-0.037-0.016-0.077-0.02-0.119-0.012C51.679,24.744,51.697,24.68,51.716,24.616
		C51.74,24.687,51.697,24.683,51.716,24.616z M51.285,28.503c0.27,0.096,0.252,0.179-0.053,0.25
		C51.25,28.669,51.268,28.586,51.285,28.503C51.383,28.527,51.258,28.586,51.285,28.503z M49.838,45.627
		C49.85,45.67,49.838,45.637,49.838,45.627C49.84,45.634,49.838,45.628,49.838,45.627z M48.571,33.065
		C48.557,33.118,48.481,33.185,48.571,33.065C48.566,33.083,48.555,33.086,48.571,33.065z"/>
	<path fill="#63AFDE" d="M82.068,37.386c-0.314-0.339-1.585,1.1-1.84,1.419c-0.787,0.985-1.849,1.871-2.77,2.756
		c-1.991,1.913-4.229,3.681-6.004,5.806c-1.002,0.69-1.783,1.635-2.654,2.473c-1.124,1.075-2.244,2.154-3.363,3.234
		s-2.236,2.162-3.354,3.243c-0.532,0.516-1.045,1.124-1.668,1.526c-0.41,0.265-0.979,1.161-0.141,0.509
		c2.27-1.766,4.784-3.286,7.183-4.875c2.469-1.635,4.935-3.286,7.37-4.961c1.017-0.699,2.105-1.351,3.062-2.122
		c0.525-0.424,1.142-0.68,1.652-1.145c0.425-0.28,0.854-0.596,1.292-0.82c1.181-0.602,1.267-1.282,1.26-2.537
		C82.083,40.39,82.076,38.888,82.068,37.386C81.721,37.011,82.078,39.262,82.068,37.386z M75.771,43.775
		C75.668,43.713,75.78,43.695,75.771,43.775C75.752,43.763,75.773,43.758,75.771,43.775z"/>
	<path fill="#63AFDE" d="M64.98,65.566c3.711-0.043,7.438-0.187,11.145-0.187c0.914-0.011,1.828-0.021,2.741-0.032
		c0.814-0.01,2,0.206,2.765-0.107c0.661-0.188,0.656-2.938,0.26-2.996c-0.597-0.088-1.435,0.235-2.026,0.342
		c-0.988,0.178-1.986,0.305-2.979,0.462c-1.896,0.3-3.769,0.718-5.668,0.98c-1.872,0.259-3.711,0.662-5.585,0.919
		c-0.567,0.25-1.417-0.067-1.961,0.273c-0.475,0.297-0.914-0.321-1.288,0.479C63.246,65.577,64.131,65.804,64.98,65.566z"/>
	<path fill="#63AFDE" d="M52.354,45.082c-0.191,0.614-0.087,1.486-0.125,2.13c-0.053,0.886-0.104,1.771-0.157,2.658
		c-0.03,0.511-0.501,3.53,0.012,3.577c0.651-3.121,1.35-6.253,2.154-9.338c0.787-3.018,1.321-6.108,2.14-9.112
		c0.828-3.035,1.419-6.126,2.164-9.182c0.357-1.467,0.688-2.937,1.071-4.398c0.196-0.752,0.381-1.509,0.532-2.271
		c0.138-0.693,0.189-1.502,0.415-2.15c0.048-0.136,0.577-1.179,0.128-1.179c-0.774-0.006-1.549-0.01-2.324-0.013
		c-0.596-0.002-4.263-0.312-4.25,0.333c0.012,0.626-0.133,1.206-0.173,1.829c-0.047,0.726,0.004,1.453-0.028,2.178
		c-0.188,1.676-0.316,3.36-0.355,5.046c-0.072,3.183-0.427,6.382-0.612,9.57c-0.192,3.308-0.38,6.617-0.568,9.925
		C52.368,44.817,52.361,44.95,52.354,45.082C52.318,45.195,52.58,41.111,52.354,45.082z M57.689,27.264
		C57.657,27.459,57.69,27.259,57.689,27.264C57.686,27.288,57.684,27.285,57.689,27.264z M55.666,37.098
		C55.637,37.201,55.62,37.042,55.666,37.098C55.662,37.112,55.66,37.091,55.666,37.098z M53.748,32.793
		C53.709,32.872,53.748,32.823,53.748,32.793C53.744,32.801,53.748,32.791,53.748,32.793z M53.846,31.717
		C53.763,32.12,53.819,31.396,53.846,31.717C53.838,31.755,53.84,31.646,53.846,31.717z M53.748,31.645c0,0.009,0,0.016,0,0.023
		C53.695,31.686,53.713,31.659,53.748,31.645z"/>
	<path fill="#63AFDE" d="M39.345,16.881c1.319,5.276,2.336,10.714,3.742,15.997c0.674,2.534,1.157,5.116,1.827,7.656
		c0.352,1.333,0.612,2.675,0.916,4.021c0.287,1.271,0.734,2.543,1.045,3.77c-0.042-0.048-0.085-0.097-0.128-0.145
		c0.471,2.069,0.959,4.135,1.381,6.215c0.18-0.903-0.026-1.669-0.01-2.569c-0.032-0.907-0.162-1.789-0.205-2.683
		c-0.096-1.977-0.265-3.954-0.322-5.931c-0.055-1.89-0.269-3.789-0.383-5.683c-0.128-2.117-0.329-4.242-0.374-6.362
		c-0.042-1.965-0.236-3.932-0.334-5.901c-0.107-2.164-0.471-4.375-0.444-6.537c0.009-0.741-0.145-1.483-0.145-2.207
		c-0.035-0.343,0.069-0.733-0.388-0.733c-0.502,0.001-1.005,0.001-1.508,0.002c-1.005,0.001-2.01,0.001-3.016,0.001
		c-0.502,0-1.005,0-1.507,0C38.887,15.792,39.261,16.536,39.345,16.881C39.407,17.129,39.287,16.643,39.345,16.881z"/>
	<path fill="#63AFDE" d="M81.521,57.297c-0.216-0.052-0.791,0.224-1.017,0.276c-0.408,0.094-0.799,0.25-1.178,0.425
		c-0.722,0.243-1.724,0.348-2.353,0.775c-2.092,0.623-4.173,1.281-6.243,1.971c-1.903,0.634-3.805,1.251-5.713,1.856
		c-0.887,0.281-1.752,0.642-2.659,0.857c-0.36,0.086-0.672,0.258-0.055,0.263c0.416,0.003,0.903-0.19,1.339-0.232
		c1.848-0.175,3.683-0.518,5.524-0.769c1.978-0.269,3.957-0.556,5.932-0.854c0.999-0.151,1.994-0.328,2.986-0.52
		c0.915-0.058,1.797-0.316,2.688-0.362c0.399-0.021,0.76-0.152,1.14-0.261c0.159-0.481,0.208-0.988,0.206-1.493
		C82.118,58.782,82.345,56.659,81.521,57.297C81.464,57.283,81.721,57.143,81.521,57.297z M79.109,61.006
		C79.1,60.918,79.229,60.935,79.109,61.006C79.107,60.988,79.129,60.994,79.109,61.006z"/>
	<path fill="#63AFDE" d="M81.38,51.865c-0.65,0.217-1.518,0.593-2.037,1.039c-0.398,0.069-0.674,0.334-1.039,0.479
		c-0.509,0.201-0.996,0.455-1.473,0.724c-1.903,1.074-3.899,2-5.853,2.98c-1.996,1.001-3.992,2.003-5.988,3.004
		c-0.988,0.496-1.965,1.057-3.004,1.438c-0.111,0.425,0.691,0.029,0.878,0.005c0.608-0.082,1.193-0.322,1.776-0.511
		c4.292-1.389,8.615-2.677,12.928-4c0.33-0.102,1.621-0.265,1.787-0.605c0.465-0.001,0.918-0.127,1.322-0.355
		c0.381-0.021,0.986-0.14,1.272-0.42c0.434-0.424,0.107-2.174,0.112-2.745C82.066,52.277,82.231,51.271,81.38,51.865
		C81.04,51.979,81.773,51.591,81.38,51.865z"/>
	<path fill="#63AFDE" d="M19.318,56.062c0.351,0.186,0.718,0.372,1.128,0.342c0.462,0.271,0.976,0.444,1.505,0.52
		c0.929,0.131,1.967,0.531,2.863,0.841c2.167,0.748,4.392,1.296,6.582,1.968c1.102,0.338,2.204,0.677,3.306,1.015
		c0.49,0.15,0.979,0.3,1.469,0.45c0.501,0.153,1.131,0.514,1.64,0.533c0.184,0.053,0.249-0.012,0.195-0.195
		c-0.177-0.068-0.354-0.136-0.531-0.204c-0.552-0.294-1.104-0.587-1.658-0.876c-1.107-0.58-2.22-1.149-3.342-1.701
		c-3.891-1.915-7.836-3.809-11.648-5.839c-0.375-0.199-0.76-0.338-1.117-0.564c-0.261-0.165-0.915-0.562-1.213-0.55
		c-0.835-0.657-0.577,0.73-0.575,1.249c0.002,0.745-0.132,1.618,0.045,2.35C18.101,55.948,18.872,55.976,19.318,56.062
		C19.672,56.25,17.912,55.789,19.318,56.062z M23.225,56.098C23.324,56.247,23.029,56.211,23.225,56.098
		C23.243,56.125,23.193,56.116,23.225,56.098z M19.559,55.415c-0.177,0.131-0.251,0.093-0.222-0.114
		C19.432,55.297,19.506,55.335,19.559,55.415C19.5,55.456,19.5,55.32,19.559,55.415z"/>
	<path fill="#63AFDE" d="M18.823,26.033c0.055,0.25,0.351,0.455,0.487,0.667c0.23,0.356,0.502,0.685,0.811,0.976
		c0.427,0.607,0.866,1.215,1.418,1.717c0.287,0.646,0.805,1.094,1.286,1.607c0.454,0.543,0.871,1.144,1.32,1.703
		c2.195,2.729,4.33,5.51,6.582,8.2c2.084,2.491,3.991,5.109,6.13,7.568c1.163,1.336,2.166,2.825,3.297,4.193
		c0.556,0.673,1.165,1.313,1.684,2.016c0.239,0.323,0.729,1.354,1.135,1.359c-0.035-0.58-0.634-1.223-0.919-1.713
		c-0.375-0.645-0.71-1.312-1.061-1.97c-0.759-1.43-1.528-2.854-2.355-4.247c-1.549-2.607-2.997-5.311-4.467-7.965
		c-2.801-5.335-5.766-10.543-8.712-15.803c-0.297-0.529-2.006-2.728-1.355-3.251c0.72-0.579,1.952,2.365,2.237,2.857
		c1.659,2.868,3.368,5.708,5.052,8.56c3.053,5.17,5.928,10.517,9.097,15.658c0.594,0.963,1.184,1.948,1.747,2.926
		c0.475,1.225,1.424,2.207,1.825,3.466c0.651-0.304-0.766-3.148-0.968-3.69c-0.554-1.484-1.131-2.941-1.668-4.435
		c-1.073-2.982-2.207-5.875-3.313-8.855c-1.191-3.212-2.42-6.411-3.624-9.618c-0.637-1.694-1.28-3.386-1.925-5.077
		c-0.322-0.846-0.645-1.691-0.967-2.537c-0.166-0.436-0.455-1.927-0.847-2.149c0.227-0.115,0.361-0.297,0.322-0.562
		c0.342,0,0.337,0.381,0.707,0.364c-0.37,0.413,0.338,1.578,0.497,1.983c0.336,0.855,0.669,1.711,1.004,2.567
		c0.709,1.812,1.462,3.607,2.178,5.417c0.661,1.669,1.225,3.384,2.084,4.967c0.01,0.009,0.123,0.58,0.144,0.634
		c0.195,0.492,0.39,0.983,0.585,1.475c0.39,0.983,0.78,1.967,1.171,2.95c0.684,1.721,1.369,3.441,2.058,5.16
		c0.231,0.577,0.716,1.247,0.763,1.774c0.075,0.851,0.689,1.895,1.013,2.685c0.316,0.771,0.82,1.451,1.11,2.215
		c0.268,0.706,0.33,1.487,0.643,2.172c0.111,0.244,0.276,0.455,0.497,0.608c-0.078,0,0.03,0.712,0.053,0.784
		c0.178,0.556,0.634,0.751,0.676,1.354c0.382-0.308-0.081-1.39-0.158-1.836c-0.128-0.742-0.293-1.479-0.547-2.189
		c-0.459-1.339-0.524-2.876-0.829-4.269c-0.656-2.999-1.295-6.001-1.945-9.002c-1.333-6.17-2.535-12.372-3.999-18.513
		c-0.245-1.025-0.325-2.106-0.777-2.988c-0.184-0.359-1.34-0.148-1.648-0.147c-0.796,0.003-1.591,0.006-2.387,0.008
		c-3.184,0.011-6.368,0.021-9.552,0.032c-2.249,0.007-4.973,0.479-6.021,2.794c-0.532,1.177-0.494,2.583-0.458,3.844
		C17.971,23.806,17.627,25.108,18.823,26.033C18.864,26.219,18.13,25.497,18.823,26.033z M38.202,49.434
		C38.271,49.474,38.202,49.458,38.202,49.434C38.214,49.441,38.202,49.438,38.202,49.434z M37.84,47.439
		C37.729,47.538,37.805,47.48,37.84,47.439C37.84,47.439,37.822,47.46,37.84,47.439z M39.49,44.526
		C39.58,44.577,39.478,44.705,39.49,44.526C39.51,44.537,39.488,44.561,39.49,44.526z M18.176,22.918
		c0,0.027,0.008,0.73,0.081,0.653C18.112,23.725,18.176,22.939,18.176,22.918z"/>
	<path fill="#63AFDE" d="M81.779,26.963C74.691,35.988,67.581,45.25,60.581,54.47c-0.386,0.508-0.871,0.938-1.216,1.474
		c-0.065,0.101-1.002,1.04-0.609,1.068c0.254,0.019,1.052-0.888,1.271-1.104c0.509-0.502,1.048-0.962,1.582-1.463
		c2.34-2.189,4.68-4.379,7.024-6.564c2.281-2.125,4.567-4.353,6.96-6.346c0.506-0.421,0.985-0.876,1.411-1.379
		c-0.005,0.021,0.739-0.693,0.787-0.725c0.956-0.646,1.985-1.638,2.817-2.483c0.323-0.329,0.625-0.666,0.964-0.981
		c0.155-0.136,0.421-0.187,0.486-0.411c0.113-0.389,0.008-0.968,0.01-1.374c0.003-0.653,0.006-1.307,0.009-1.96
		c0.005-1.177,0.01-2.353,0.015-3.53C82.094,28.384,82.258,26.255,81.779,26.963C81.695,27.07,81.848,26.862,81.779,26.963z
		 M71.553,40.949C71.524,40.909,71.594,40.864,71.553,40.949C71.547,40.941,71.561,40.933,71.553,40.949z M75.786,40.551
		C75.819,40.527,75.896,40.585,75.786,40.551C75.793,40.546,75.807,40.557,75.786,40.551z M77.262,34.652L77.262,34.652
		L77.262,34.652L77.262,34.652z M77.312,39.381c0.05-0.159,0.108-0.426,0.285-0.165C77.503,39.271,77.407,39.326,77.312,39.381
		C77.34,39.293,77.406,39.328,77.312,39.381z"/>
	<path fill="#63AFDE" d="M62.377,65.701C62.387,65.705,62.39,65.706,62.377,65.701L62.377,65.701z"/>
	<path fill="#63AFDE" d="M19.124,65.354c3.278,0.035,6.556,0.082,9.834,0.126c1.718,0.022,3.435,0.036,5.153,0.051
		c0.691,0.006,1.354,0.011,2.028,0.143c0.328,0.064,1.665,0.261,1.888-0.023c0.12-0.154-0.861-0.294-0.943-0.271
		c-0.655-0.114-1.309-0.229-1.964-0.345c-1.179-0.206-2.372-0.313-3.552-0.524c-2.572-0.459-5.143-0.916-7.722-1.335
		c-1.243-0.202-2.488-0.399-3.732-0.599c-0.392-0.063-1.636-0.569-2.019-0.284c-0.418,0.312-0.09,1.366-0.174,1.787
		C17.738,64.983,18.284,65.346,19.124,65.354C22.928,65.395,18.253,65.346,19.124,65.354z"/>
	<path fill="#63AFDE" d="M41.299,57.146c0.084,0.071,0.165,0.066,0.24-0.015c-0.791-1.354-2.009-2.581-2.983-3.824
		c-0.908-1.158-1.8-2.312-2.67-3.495c-2.104-2.863-4.324-5.655-6.502-8.461c-1.111-1.435-2.227-2.867-3.344-4.298
		c-0.558-0.715-1.117-1.431-1.676-2.146c-0.319-0.409-0.638-0.818-0.958-1.227c-0.146-0.267-0.281-0.557-0.56-0.711
		c-0.241-0.556-0.733-0.922-1.058-1.422c-0.272-0.419-0.423-0.898-0.932-0.997c-0.015-0.342-0.21-0.608-0.438-0.846
		c-0.447-0.465-0.786-0.989-1.159-1.51c-0.293-0.408-0.832-1.319-1.333-1.479c0,1.781,0.002,3.562,0,5.343
		c-0.001,0.88-0.003,1.76-0.006,2.64c-0.003,0.843,0.184,0.903,0.693,1.481c1.003,1.139,2.303,2.184,3.433,3.208
		c1.275,1.155,2.553,2.307,3.808,3.498c2.457,2.332,4.976,4.628,7.496,6.898c1.339,1.206,2.685,2.401,4.005,3.627
		C38.656,54.62,39.913,56.066,41.299,57.146C41.382,57.218,41.091,56.984,41.299,57.146z"/>
	<path fill="#63AFDE" d="M34.911,63.346c0.604,0.061,1.208,0.12,1.812,0.179c0.23,0.023,1.141,0.481,1.326,0.107
		c-0.069,0.141-9.573-3.128-10.468-3.412c-1.856-0.591-3.692-1.248-5.538-1.853c-0.822-0.27-1.703-0.443-2.501-0.753
		c-0.281-0.109-1.327-0.73-1.558-0.326c-0.291,0.508-0.03,1.542-0.042,2.108c-0.012,0.572-0.226,1.527,0.65,1.416
		c0.316,0.263,0.901,0.185,1.282,0.278c0.487,0.12,0.986,0.19,1.486,0.221c0.925,0.056,1.818,0.357,2.753,0.402
		c1.924,0.092,3.915,0.604,5.825,0.894C31.606,62.86,33.287,63.319,34.911,63.346C35.635,63.418,34.422,63.338,34.911,63.346z"/>
	<path fill="#63AFDE" d="M39.263,60.152c-0.114-0.149-0.228-0.298-0.341-0.447c-0.554,0.025-1.367-0.753-1.782-1.076
		c-0.982-0.766-1.999-1.485-3.031-2.181c-2.016-1.356-3.942-2.831-5.932-4.227c-0.95-0.666-1.908-1.322-2.869-1.974
		c-0.779-0.528-1.782-1.08-2.462-1.729c-0.772-0.692-1.729-1.369-2.628-1.896c-0.684-0.401-1.469-1.397-2.302-1.443
		c0,1.222-0.002,2.445,0,3.667c0.001,0.266-0.144,1.059,0.123,1.26c0.39,0.293,0.995,0.508,1.462,0.652
		c0.903,0.592,1.973,0.871,2.856,1.418c0.816,0.504,1.934,1.017,2.845,1.303c2.359,1.214,4.795,2.257,7.153,3.462
		c1.233,0.63,2.489,1.214,3.748,1.791c0.572,0.263,1.145,0.523,1.716,0.788C38.19,59.719,38.826,60.273,39.263,60.152
		C39.137,59.986,38.938,60.242,39.263,60.152z"/>
	<path fill="#63AFDE" d="M39.969,58.336c-0.09-0.316-0.471-0.523-0.689-0.754c-0.456-0.479-0.899-0.98-1.446-1.361
		c-0.748-0.738-1.5-1.407-2.247-2.157c-2.078-2.086-4.346-4.01-6.366-6.14c-1.007-1.062-2.071-2.068-3.144-3.063
		c-1.048-0.972-2.02-2.046-3.082-2.992c-1.022-0.911-1.956-1.907-2.956-2.833c-0.354-0.327-0.783-0.89-1.233-1.077
		c-0.374-0.178-0.406-0.654-0.881-0.71c0,1.396-0.004,2.793-0.002,4.19c0,0.588-0.184,1.559,0.047,2.104
		c0.134,0.314,0.868,0.683,1.138,0.863c2.176,1.454,4.36,2.916,6.551,4.375c2.512,1.672,4.965,3.425,7.475,5.099
		c1.226,0.816,2.458,1.604,3.652,2.463c0.579,0.416,1.181,0.798,1.783,1.179C38.846,57.696,39.637,58.461,39.969,58.336
		C39.896,58.08,39.71,58.434,39.969,58.336z M23.799,47.144C23.81,47.133,23.842,47.148,23.799,47.144
		C23.802,47.141,23.808,47.145,23.799,47.144z M30.363,50.389C30.359,50.382,30.377,50.37,30.363,50.389
		C30.362,50.387,30.366,50.385,30.363,50.389z"/>
	<path fill="#8BB239" d="M81.564,66.744c-3.231,0.389-6.572,0.17-9.822,0.166c-3.325-0.003-6.649-0.014-9.975-0.021
		c-6.657-0.017-13.315,0.004-19.973,0.012c-6.658,0.009-13.316,0.004-19.974-0.062c-0.799-0.008-1.598-0.017-2.396-0.027
		c-0.334-0.004-1.185-0.18-1.418,0.191c-0.262,0.414-0.084,1.231-0.083,1.688c0.004,0.921,0.006,1.841,0.007,2.762
		c0.001,1.578,0,3.157,0.001,4.735c0,1.114,0.538,2.215,1.44,2.884c2.209,1.639,5.422,2.046,8.043,2.649
		c0.63,0.146,1.236,0.223,1.866,0.367c0.766,0.175,1.532,0.35,2.299,0.522c1.661,0.375,3.323,0.745,4.987,1.105
		c3.179,0.689,6.374,1.299,9.559,1.957c1.449,0.299,2.918,0.599,4.406,0.527c1.619-0.079,3.245-0.384,4.833-0.699
		c6.31-1.253,12.571-2.741,18.846-4.154c2.269-0.511,5.521-1.037,7.085-2.975c0.801-0.992,0.761-2.176,0.766-3.387
		c0.008-1.686,0.016-3.371,0.025-5.058C82.09,69.291,82.56,66.621,81.564,66.744C80.688,66.85,81.99,66.691,81.564,66.744z
		 M18.814,74.535C18.814,74.481,18.855,74.518,18.814,74.535C18.814,74.525,18.823,74.531,18.814,74.535z M23.204,67.752
		C23.193,67.725,23.204,67.739,23.204,67.752C23.202,67.747,23.204,67.747,23.204,67.752z M24.663,67.938
		C24.652,67.906,24.668,67.924,24.663,67.938C24.661,67.932,24.665,67.932,24.663,67.938z M69.115,80.542
		C69.106,80.542,69.115,80.538,69.115,80.542C69.113,80.542,69.115,80.54,69.115,80.542z M78.805,67.561
		C78.805,67.551,78.805,67.555,78.805,67.561C78.805,67.559,78.805,67.559,78.805,67.561z M81.548,70.314
		C81.548,70.288,81.562,70.305,81.548,70.314C81.548,70.309,81.551,70.312,81.548,70.314z"/>
</g>
</svg>
