<?xml version="1.0" encoding="utf-8"?>
<!-- Generator: Adobe Illustrator 16.0.0, SVG Export Plug-In . SVG Version: 6.00 Build 0)  -->
<!DOCTYPE svg PUBLIC "-//W3C//DTD SVG 1.1//EN" "http://www.w3.org/Graphics/SVG/1.1/DTD/svg11.dtd">
<svg version="1.1" id="Calque_1" xmlns="http://www.w3.org/2000/svg" xmlns:xlink="http://www.w3.org/1999/xlink" x="0px" y="0px"
	 width="100px" height="100px" viewBox="0 0 100 100" enable-background="new 0 0 100 100" xml:space="preserve">
<g>
	<path d="M96.219,53.488c-1.83-0.003-3.656,0.021-5.485,0.021c-0.802,0-1.594-0.008-2.394,0.013
		c-0.307,0.008-1.053-0.18-1.161,0.184c-0.1,0.333,0.054,0.748,0.022,1.094c-0.128,1.491,3.364-0.239,3.449,0.937
		c0.104,1.967,0.001,3.969,0.001,5.938c0,0.472-0.214,1.79,0.688,1.312c0.428,0.002,0.855,0.002,1.283,0.002
		c0.496,0,0.402-0.036,0.402-0.463c0-1.908,0-3.816,0-5.724c0-0.39-0.268-1.452,0.297-1.444c0.873,0.02,1.809-0.07,2.699-0.07
		c0.562,0,0.354-0.389,0.354-0.894C96.375,54.153,96.521,53.488,96.219,53.488C95.107,53.486,96.271,53.488,96.219,53.488z"/>
	<path d="M20.061,68.512c0-0.297,0.193-1.283-0.169-1.283c-0.443-0.062-0.221,0.501-0.223,0.787
		c-0.155,0.378-0.461,0.034-0.677-0.055c-0.166-0.068-0.883-0.27-0.932-0.373c-0.018-0.045-0.375-0.208-0.434-0.177
		c-0.494,0.255,0.161,0.46,0.296,0.563c0.318,0.242,0.802,0.374,1.165,0.557C19.127,68.553,20.514,69.031,20.061,68.512
		C20.061,68.124,20.141,68.604,20.061,68.512z"/>
	<path d="M17.626,67.409c0,0,0.001-0.001,0.002-0.001L17.626,67.409z"/>
	<path d="M61.016,53.512c-2.089,0-4.172,0-6.256,0c-0.921-0.353-0.551,1.149-0.551,1.618c0,1.303,0,2.605,0,3.908
		c0,1.173-0.001,2.346-0.001,3.519c0,0.689,0.504,0.426,1.086,0.423c0.638-0.003,1.275,0,1.913,0.001
		c1.306,0.002,2.612,0.005,3.918,0.008c0.107,0.011,0.064-1.217,0.064-1.349c0-0.633-0.521-0.403-1.045-0.403
		c-1.093-0.001-2.206,0.06-3.297-0.005c-0.473-0.028-0.277-1.023-0.272-1.422c0.007-0.671-0.159-0.831,0.552-0.826
		c1.185,0.007,2.37,0.009,3.555,0.013c0.18,0.07,0.578-1.775-0.111-1.775c-0.907,0-1.825-0.028-2.737-0.024
		c-0.359,0.001-1.034,0.155-1.247-0.251c-0.002-0.275-0.18-1.461,0.02-1.643c0.228-0.209,1.37-0.025,1.683-0.023
		c0.648,0.003,1.297,0.005,1.945,0.008c0.673,0.002,0.87,0.173,0.862-0.526C61.094,54.593,61.222,53.523,61.016,53.512
		C60.204,53.512,61.119,53.518,61.016,53.512z"/>
	<path d="M48.064,38.587c-1.601-0.363-3.408-0.998-4.984-0.129c-1.439,0.437-2.159,2.829-1.061,3.938
		c0.989,1,2.231,1.499,3.578,1.96c0.272,0.093,0.392,0.311,0.628,0.414c0.125,0.031,0.026,0.593,0.007,0.652
		c-0.134,0.409-0.365,0.333-0.665,0.473c-0.924,0.43-1.623-0.35-2.484-0.35c-0.241-0.121-1.492-0.888-1.336-0.557
		c0,0.256-0.151,1.863,0.09,1.946c0.252,0.087,0.464,0.216,0.702,0.314c0.24,0.248,0.836,0.327,1.166,0.385
		c0.627,0.299,1.946,0.281,2.587,0.024c1.013-0.146,1.947-0.72,2.308-1.69c0.86-2.319-1.035-3.772-3.081-4.293
		c-0.254,0.042-1.209-0.498-1.327-0.675c-0.737-1.003,0.987-1.233,1.546-1.161c0.037,0.091,0.932,0.193,1.059,0.22
		c0.35,0.214,0.825,0.297,1.21,0.453C48.628,40.992,48.559,38.701,48.064,38.587C47.465,38.451,48.29,38.639,48.064,38.587z"/>
	<path d="M35.889,50.193c-0.288,1.376,1.32,2.366,2.32,1.279c0.718-0.781-0.079-2.654-1.208-2.21
		C36.623,49.56,35.927,49.494,35.889,50.193C35.839,50.433,35.892,50.138,35.889,50.193z"/>
	<path d="M20.064,64.086c-0.241-0.454-0.572-0.71-1.072-0.391c-0.375,0.213-0.344,0.823-0.812,0.87
		c-0.496,0.049-0.319-0.438-0.201-0.653c0.374-0.68-0.5-0.279-0.531,0.145c-0.014,0.196,0.253,0.684,0.237,0.776
		c0.077,0.283,0.965,0.223,1.036-0.056c-0.012-0.076,0.431-0.568,0.496-0.651c0.454-0.569,0.352,0.521,0.352,0.627
		c-0.027,0.053,0.671-1.13-0.082,0.058c-0.074,0.117,0.447,0.134,0.523-0.063C20.088,64.547,20.145,64.305,20.064,64.086
		C20.006,63.977,20.132,64.27,20.064,64.086z"/>
	<path d="M20.004,62.031c-0.398-0.041-0.817-0.004-1.217-0.004c-0.205,0-1.669-0.192-1.311,0.353
		c0.156,0.237,1.521,0.08,1.766,0.075c0.201-0.005,0.491,0.047,0.68,0.041C20.158,62.488,20.217,62.131,20.004,62.031
		C19.985,62.029,20.188,62.117,20.004,62.031z"/>
	<path d="M8.039,43.889c0.733,0.072,1.721-0.394,2.251-0.898c0.857-0.815,0.638-1.801,0.638-2.811
		c-0.056-0.949-1.728-2.275-2.657-1.999c-1.129,0-2.266-0.004-3.399-0.001c-0.266,0-0.532,0.001-0.797,0.002
		c-0.623,0.001-0.399,0.259-0.399,0.79c0,0.657,0,1.314,0,1.972c0,1.314,0,2.629,0,3.943c0,0.657,0,1.314,0,1.971
		c0,0.263,0,0.526,0,0.789c0.354,0,0.708,0.001,1.063,0.001c0.323,0,0.894,0.106,1.211-0.017c0.242-0.094,0.097-1.168,0.098-1.379
		c0.004-0.658,0.009-1.316,0.014-1.974c0.004-0.605,0.266-0.423,0.793-0.432C7.25,43.84,7.646,43.852,8.039,43.889
		C8.361,43.921,7.383,43.827,8.039,43.889z M6.047,41.93c-0.002-0.394-0.194-1.634,0.022-1.96c0.216-0.328,1.887,0.028,2.166,0.22
		c0.485,0.334,0.501,1.239,0.054,1.611C7.99,42.051,6.047,42.387,6.047,41.93C6.045,41.617,6.047,42.005,6.047,41.93z"/>
	<path d="M83.871,54.455C83.855,54.474,83.855,54.474,83.871,54.455L83.871,54.455z"/>
	<line fill="none" x1="75.85" y1="55.51" x2="75.852" y2="55.509"/>
	<path d="M75.174,56.834c-0.183,0.156-0.311,0.951-0.289,1.167c0.047,0.465,0.114,0.918,0.193,1.366
		c0.104,0.782,0.573,1.511,1.109,2.057c0.61,0.945,2.128,1.53,3.201,1.618c0.311,0.287,1.769,0.119,2.194,0.002
		c0.543-0.15,1.079-0.317,1.602-0.537c1.534-0.644,2.364-2.3,2.581-3.846c0.23-1.405-0.604-3.521-1.906-4.19
		c-0.061-0.086-0.216-0.227-0.326-0.227l-0.004-0.004c0-0.146-1.378-0.714-1.545-0.657c-0.622-0.038-1.176-0.175-1.809-0.172
		c-0.288,0.001-1.108-0.031-1.344,0.153c-0.193,0.039-0.855,0.14-0.945,0.324c-0.263,0.11-0.554,0.203-0.787,0.37
		c0.036-0.025-0.312,0.312-0.357,0.314C76.104,54.726,75.154,56.216,75.174,56.834C75.068,56.924,75.17,56.709,75.174,56.834z
		 M77.693,56.902c0.705-1.512,2.516-1.82,3.965-1.261c1.354,0.522,1.934,2.036,1.597,3.401c-0.382,1.553-1.909,2.231-3.403,2.042
		C77.825,60.828,76.854,58.701,77.693,56.902C78.211,55.793,77.188,57.986,77.693,56.902z"/>
	<path d="M50.424,55.244c0.02-0.484-1.503-1.231-1.872-1.33c-0.904-0.636-2.612-0.404-3.636-0.404c-0.862,0-1.723-0.005-2.583-0.031
		c-0.618-0.02-0.331,1.228-0.331,1.686c0,1.925,0,3.851,0,5.776c0,0.271-0.2,1.892,0.03,2.048c0.199,0.136,0.895-0.001,1.125-0.001
		c0.531-0.001,1.062-0.003,1.594-0.003c2.093-0.004,5.24,0.006,6.201-2.383c0.441-1.097,0.548-2.126,0.382-3.298
		C51.25,56.709,50.967,55.436,50.424,55.244z M47.931,60.652c-0.574,0.447-1.296,0.57-2.005,0.588
		c-0.433,0.011-0.866-0.008-1.299,0.005c-0.41,0.011-0.228-0.791-0.227-1.032c0.003-0.924,0-1.847,0.001-2.77
		c0-0.517,0.001-1.033-0.001-1.55c-0.003-0.573-0.026-0.618,0.547-0.616c1.358,0.002,2.896-0.008,3.668,1.331
		C49.337,57.858,49.088,59.753,47.931,60.652C47.342,61.111,48.773,59.998,47.931,60.652z"/>
	<path d="M23.656,62.988c1.461-0.002,2.98,0.062,4.416-0.014c0.401-0.061,0.794-0.088,1.204-0.174
		c0.297-0.094,0.606-0.18,0.907-0.279c0.203-0.021,0.542-0.324,0.666-0.324c0.12-0.015,0.21-0.072,0.271-0.174h0.002
		c0.253-0.145,0.451-0.341,0.65-0.555c0.463-0.493,0.585-0.979,0.897-1.545c0.413-0.643,0.457-2.401,0.064-3.092
		c-0.262-0.48-0.393-1.03-0.72-1.519c-0.245-0.364-0.759-0.737-1.096-0.997c-1.213-0.932-3.138-0.812-4.577-0.812
		c-0.479,0-0.959,0-1.438,0c-0.247,0-1.159-0.156-1.339-0.011c-0.349,0.281-0.044,2.536-0.044,3.007
		c0.001,1.176,0,2.351-0.001,3.526C23.518,60.336,23.455,63.033,23.656,62.988C24.838,62.986,23.509,63.021,23.656,62.988z
		 M25.995,55.277c1.405,0.036,3.021-0.186,3.96,1.117c0.756,1.049,0.721,2.82-0.095,3.829c-0.506,0.626-1.269,0.932-2.055,0.998
		c-0.451,0.039-0.905,0.019-1.357,0.02c-0.586,0.002-0.574-0.041-0.57-0.629C25.88,60.085,25.789,55.271,25.995,55.277
		C26.785,55.298,25.821,55.271,25.995,55.277z"/>
	<path d="M71.459,54.523L71.459,54.523c-0.526-0.712-1.333-0.813-2.16-1.004c-0.221,0.221-1.746-0.039-2.089-0.039
		c-0.646,0-1.478-0.102-2.104,0.029c-0.606,0-0.338,0.537-0.336,1.082c0.001,0.871,0.003,1.742,0.004,2.612
		c0.003,1.712,0.002,3.424-0.005,5.136c0,0.093-0.087,0.528,0.011,0.633c0.467,0.003,0.934,0.006,1.399,0.01
		c0.604,0.005,0.982,0.244,0.982-0.421c0-0.84,0-1.679,0-2.519c0-1.048,0.155-0.751,0.993-0.832c1.01,0.531,1.384,1.797,1.832,2.768
		c0.015,0.196,0.395,1.134,0.66,1.008c0.805-0.006,1.609-0.012,2.414-0.02c0.027-0.111-0.006-0.199-0.1-0.265
		c-0.179-0.594-0.544-1.344-0.868-1.886c-0.355-0.614-0.51-1.504-1.12-1.928c-0.575-0.4,0.243-0.68,0.541-0.993
		c0.248-0.262,0.553-0.709,0.556-1.093c0.004-0.571-0.058-1.005-0.157-1.57C71.902,54.957,71.459,54.731,71.459,54.523z
		 M68.71,57.371c-0.477,0.051-0.956,0.02-1.435,0.029c-0.266,0.004-0.127-0.74-0.127-0.885c0-0.201-0.129-1.089,0.035-1.218
		c0.083-0.065,0.787-0.002,0.787-0.009c0.637,0,1.474-0.031,1.656,0.753C69.781,56.705,69.392,57.3,68.71,57.371
		C68.236,57.422,69.344,57.305,68.71,57.371z"/>
	<path d="M71.459,54.523L71.459,54.523C71.465,54.52,71.485,54.503,71.459,54.523z"/>
	<path d="M24.983,47.205c-0.456,0.619,1.839,0.488,2.163,0.46c0.472-0.041,0.23-2.635,0.232-3.052
		c0.001-0.26,0.003-0.521,0.004-0.781c0.291-0.08,0.628-0.019,0.922,0.008c0.21,0.242,0.624,0.349,0.837,0.64
		c0.333,0.648,0.776,1.316,0.992,2.003c0.081,0.193,0.16,0.387,0.224,0.597c0.227,0.748,0.864,0.555,1.52,0.556
		c0.347,0,0.694,0.001,1.042,0.003c0.485,0.001,0.366,0.024,0.26-0.268c0.009-0.221-0.317-0.834-0.459-0.984
		c-0.277-0.566-0.459-1.832-1.038-2.171c-0.18-0.268-0.324-0.528-0.538-0.771c-0.346-0.394-0.027-0.28,0.261-0.613
		c-0.001-0.008-0.004-0.013-0.01-0.012c0.42,0,0.794-0.952,0.906-1.286c0.157-0.466-0.261-1.142-0.125-1.518
		c-0.481-1.471-1.939-1.841-3.324-1.841c-1.178,0-2.357,0-3.535,0c-0.531-0.382-0.323,1.815-0.323,2.048
		C24.995,42.545,25.073,44.884,24.983,47.205C24.887,47.335,24.987,47.104,24.983,47.205z M27.539,39.918
		c0.626,0.028,1.483-0.156,2.011,0.283c0.476,0.396,0.445,1.241-0.053,1.603c-0.305,0.222-2.13,0.513-2.13,0.08
		C27.363,41.602,27.215,39.904,27.539,39.918C28,39.939,27.381,39.911,27.539,39.918z"/>
	<path d="M14.703,40.024C14.702,40.02,14.691,39.988,14.703,40.024L14.703,40.024z"/>
	<path d="M13.257,43.61c-0.285,0.409-0.738,1.406-0.784,1.917c-0.302,0.249-0.25,1.245-0.554,1.401
		c-0.277,0.37-0.429,0.72,0.153,0.717c0.606-0.003,1.212-0.005,1.818-0.009c0.466,0,0.609-0.803,0.792-1.184
		c0.104-0.217,0.026-0.724,0.375-0.686c0.409,0.037,0.829,0.031,1.238,0.031c0.782,0,1.661,0.084,2.434-0.022
		c0.53,0.007,0.62,0.729,0.754,1.151c0.363,1.145,1.917,0.711,2.911,0.711c-0.363-1.047-0.853-2.062-1.297-3.095
		c-0.186-0.431-0.377-0.859-0.559-1.292c-0.118-0.282-0.358-0.948-0.58-1.135c-0.203-0.487-0.341-1.025-0.607-1.483
		c-0.138-0.238-0.341-0.977-0.551-1.119c-0.057-0.048-0.544-1.032-0.511-1.162c-0.188-0.341-2.323-0.32-2.78-0.212
		c-0.396,0.093-0.661,1.499-0.804,1.887c-0.135,0.052-0.401,0.82-0.445,0.968c-0.066,0.227-0.188,0.814-0.335,0.961
		c0.03-0.079-0.146,0.355-0.111,0.278C13.736,42.351,13.219,43.61,13.257,43.61z M16.865,40.467c0.503,1.213,1.007,2.426,1.51,3.639
		c-0.96,0-1.921,0-2.882,0C15.95,42.893,16.408,41.68,16.865,40.467C17.38,41.708,16.396,41.713,16.865,40.467z"/>
	<path d="M36.109,46.85c0,0.78,1.027,0.557,1.634,0.576c0.688,0.021,0.457-0.237,0.472-0.889c0.013-0.562-0.104-1.129-0.022-1.684
		c0.173-1.164,0.019-2.455,0.02-3.631c0-0.625,0.001-1.25,0.002-1.875c0-0.06,0.087-1.124,0.104-1.102
		c-0.368,0.001-0.736,0.002-1.104,0.002c-0.245,0-0.491,0.001-0.736,0.001c-0.376-0.122-0.499,0.009-0.368,0.392
		c0,0.912,0,1.824,0,2.737C36.109,43.201,36.109,45.026,36.109,46.85z"/>
	<path d="M35.982,38.305c-0.001,1.852-0.001,3.704-0.002,5.556c0,0.926-0.001,1.853-0.002,2.778c0,0.173-0.113,0.839,0.057,0.966
		c0.23,0.173,0.99,0.026,1.27,0.026c1.072,0.002,1.032-0.009,1.029-1.093c-0.002-0.933-0.003-1.866-0.004-2.799
		c-0.001-1.81,0.074-3.637-0.012-5.445c-0.38,0.108-0.105,4.258-0.105,4.801c0.001,0.888-0.062,1.776-0.005,2.657
		c0.034,0.522-0.017,1.044,0.003,1.566c0.011,0.268-0.659,0.102-0.82,0.104c-0.567,0.007-0.894,0.066-1.235-0.25
		c-0.331-0.308-0.046-2.207-0.046-2.668c0-2.085,0-4.17,0-6.255C36.019,38.248,35.982,38.214,35.982,38.305
		C35.98,41.347,35.982,38.287,35.982,38.305z"/>
	<path d="M38.212,62.482c0,0.506-0.177,0.147-0.495,0.289c-0.184,0.082-1.453,0.142-1.582-0.008
		c-0.222-0.258-0.027-1.578-0.027-1.913c0-0.77,0-1.538,0-2.308c0-1.443-0.048-2.896-0.002-4.339
		c0.006-0.183,0.182-0.184,0.142-0.402c-0.066-0.362-0.271-0.191-0.271,0.132c0,0.797,0,1.595,0,2.392
		c0,1.44-0.001,2.881,0.003,4.322c0.003,0.755,0.007,1.51,0.01,2.265c0.775,0.002,1.551,0.004,2.327,0.005
		c0.083-3.092,0.011-6.195,0-9.288C38.121,53.629,38.212,61.62,38.212,62.482z"/>
	<path d="M38.148,53.527c-0.241-0.001-2.169-0.094-2.153,0.104c0.774-0.021,1.55-0.003,2.324-0.003
		C38.304,53.521,38.247,53.488,38.148,53.527C37.486,53.523,38.217,53.527,38.148,53.527z"/>
	<path d="M19.559,60.537C19.558,60.538,19.553,60.541,19.559,60.537L19.559,60.537z"/>
	<path d="M19.778,60.424C19.776,60.425,19.769,60.427,19.778,60.424L19.778,60.424z"/>
	<path d="M18.574,59.717c-0.167,0.156-0.329,0.358-0.504,0.498c-0.177,0.046-0.407,0.16-0.506,0.326
		c-0.093,0.111-0.206,0.719,0.135,0.455c0.274-0.213,0.879-0.831,1.208-0.568c0.209-0.042,0.366,0.341,0.649,0.109
		c0.459-0.098,0.499-0.662,0.501-1.021c0.005-0.787-1.25-0.503-1.847-0.501c-0.183,0-0.536-0.056-0.699,0.087
		c-0.062,0.1-0.108,0.317,0.054,0.353C17.931,59.534,18.574,59.242,18.574,59.717z M19.193,59.441
		c0.109,0.015,0.415-0.062,0.492,0.022c0.147,0.162,0.015,0.577-0.169,0.662C18.943,60.392,18.755,59.384,19.193,59.441
		C19.238,59.447,19.009,59.417,19.193,59.441z"/>
	<path d="M17.729,57.994c0.297-0.128,0.569-0.244,0.879-0.344c0.281-0.092,0.714-0.508,0.998-0.488
		c1.377-0.371-0.853-1.137-1.325-1.266c-0.114-0.048-0.535-0.321-0.657-0.281c-0.175-0.106-0.168,0.321-0.102,0.369
		c0.642,0,1.078,0.963,0.604,1.402C17.825,57.58,17.055,57.839,17.729,57.994C17.843,57.945,17.661,57.979,17.729,57.994z
		 M18.584,56.436c0.299,0.122,0.599,0.245,0.898,0.367c-0.124,0.056-0.737,0.43-0.865,0.354
		C18.514,57.098,18.584,56.522,18.584,56.436C18.886,56.559,18.584,56.664,18.584,56.436z"/>
	<path d="M19.838,53.512c-0.36,0.038-0.759-0.092-1.106,0c-0.265,0.015-1.523-0.201-1.226,0.336c0.097,0.16,0.48,0.064,0.645,0.064
		c0.647,0,0.268,0.312,0.475,0.711c-0.204,0.63,1.075,0.551,1.323,0.271C20.165,54.648,20.278,53.459,19.838,53.512
		C19.616,53.535,20.13,53.477,19.838,53.512z M19.332,54.739c-0.517-0.002-0.561-0.789-0.005-0.841
		c0.212,0.061,0.429-0.101,0.399,0.264C19.706,54.419,19.657,54.74,19.332,54.739z"/>
	<path d="M36.131,54.127c-0.233,0.148-0.021,2.171-0.021,2.493c0,1.025,0,2.051,0,3.077c0,0.513,0,1.025,0,1.538
		c0,0.379,0.128,0.974,0.008,1.337c-0.152,0.458,1.525,0.114,1.754,0.176c0.654,0.165,0.342-1.38,0.342-1.806
		c0-1.026,0-2.053,0-3.079c0-1.027,0-2.054,0-3.08c0-0.257,0-0.514,0-0.771c0.128-0.389-0.004-0.518-0.398-0.386
		c-0.531,0-1.062-0.001-1.593-0.002C36.23,53.812,36.335,53.993,36.131,54.127C36.097,54.148,36.346,53.986,36.131,54.127z"/>
</g>
</svg>
