<?xml version="1.0" encoding="utf-8"?>
<!-- Generator: Adobe Illustrator 16.0.0, SVG Export Plug-In . SVG Version: 6.00 Build 0)  -->
<!DOCTYPE svg PUBLIC "-//W3C//DTD SVG 1.1//EN" "http://www.w3.org/Graphics/SVG/1.1/DTD/svg11.dtd">
<svg version="1.1" id="Calque_1" xmlns="http://www.w3.org/2000/svg" xmlns:xlink="http://www.w3.org/1999/xlink" x="0px" y="0px"
	 width="100px" height="100px" viewBox="0 0 100 100" enable-background="new 0 0 100 100" xml:space="preserve">
<g>
	<path d="M64.882,52.095c11.569-2.337,17.887-19.801,10.479-28.978c-2.098-2.6-4.801-3.609-8.031-2.978
		c-2.971,0.582-4.512,2.662-5.395,5.453c-1.492,4.729-0.898,9.578-1.035,14.388c0.008,3.02,0.268,6.067-0.061,9.052
		C60.436,52.696,62.345,52.607,64.882,52.095z"/>
	<path d="M69.091,16.209c-4.582-2.081-8.908-3.533-13.658-3.354c-1.82-0.008-3.643-0.016-5.462-0.021
		c-13.483,0.453-23.448,7.093-31.153,17.709c0.685,3.327-0.454,5.689-3.681,6.944h-0.002c-4.431,13.037-3.672,25.548,3.973,37.263
		c7.225,11.069,16.314,14.681,27.352,11.057c0.002,0.002,0.006,0.002,0.01,0.003c2.72-0.695,2.768-2.922,2.789-5.059
		c0.053-5.609-0.127-11.226,0.092-16.828c0.107-2.787-0.898-3.925-3.516-4.761c-9.092-2.9-16.938-8.022-23.923-14.453
		c-1.248-1.149-3.978-2.217-3.003-3.984c1.145-2.077,3.876-2.798,6.477-2.219c2.695,0.601,5.092,1.909,7.383,3.408
		c2.789,1.824,5.494,3.792,8.371,5.468c2.308,1.344,4.978,3.902,7.285,2.728c1.707-0.869,0.364-4.46,0.569-6.829
		c0.091-1.053,0.013-2.12,0.019-3.183C49.085,26.004,54.98,18.86,69.091,16.209z"/>
	<path d="M84.646,28.991c-1.234-1.244-1.896-1.47-2.975-2.045c1.537,3.726,1.016,7.561,0.994,11.371
		c0.002-0.002,0.002-0.003,0.004-0.005c-0.002,0.002-0.002,0.004-0.004,0.005c-1.035,8.212-8.451,18.365-19.361,21.506
		c-1.551,0.446-2.209,1.287-2.196,2.928c0.051,7.131,0.024,14.264,0.019,21.396c0,1.286,0.102,2.569,1.774,2.591
		c5.453,0.067,10.817,0.315,15.517-3.6C94.242,69.947,97.143,45.529,84.646,28.991z"/>
	<path fill="#FFFFFF" d="M18.817,30.543c-0.489-0.563-0.947-1.157-1.474-1.684c-2.901-2.907-6.664-3.338-8.67-1.013
		c-2.08,2.411-1.145,5.688,2.25,8.333c1.281,1.001,2.742,1.089,4.211,1.308c0,0,0,0,0.002,0
		C18.363,36.234,19.5,33.872,18.817,30.543z"/>
</g>
</svg>
