<?xml version="1.0" encoding="utf-8"?>
<!-- Generator: Adobe Illustrator 16.0.0, SVG Export Plug-In . SVG Version: 6.00 Build 0)  -->
<!DOCTYPE svg PUBLIC "-//W3C//DTD SVG 1.1//EN" "http://www.w3.org/Graphics/SVG/1.1/DTD/svg11.dtd">
<svg version="1.1" id="Calque_1" xmlns="http://www.w3.org/2000/svg" xmlns:xlink="http://www.w3.org/1999/xlink" x="0px" y="0px"
	 width="100px" height="100px" viewBox="0 0 100 100" enable-background="new 0 0 100 100" xml:space="preserve">
<g>
	<path fill="#FAFAFA" d="M83.633,29.715c0.001,0,0.001-0.001,0.002-0.002L83.633,29.715z"/>
	<path fill="#FAFAFA" d="M40.944,54.857c-1.12-0.168-2.254-0.095-3.382-0.087c-0.17,0.002-0.952-0.15-0.944,0.155
		c0.015,0.561,0.006,1.122,0.007,1.682c0.001,1.161,0.009,2.323,0,3.484c-0.002,0.303-0.109,0.735,0.322,0.73
		c0.664-0.011,1.327-0.003,1.991-0.002c1.845,0.003,4.047-0.183,4.521-2.386C43.844,56.646,42.697,55.116,40.944,54.857
		C39.573,54.652,42.041,55.02,40.944,54.857z"/>
	<path fill="#FAFAFA" d="M27.083,66.326C27.083,66.324,27.085,66.318,27.083,66.326L27.083,66.326z"/>
	<path fill="#FFFFFF" d="M83.631,29.715c0.001,0,0.001,0,0.002-0.001c0.631-0.085,0.285-2.969,0.283-3.531
		c-0.005-1.678-0.001-3.356,0.003-5.034c0.002-0.774,0.004-1.548,0.005-2.323c0-0.286,0.097-0.878-0.374-0.681
		c-0.071,0.03-0.146,0.054-0.22,0.08c-1.076,0.377-2.158,0.737-3.239,1.103c-4.871,1.644-9.746,3.277-14.62,4.913
		c-11.229,3.768-22.467,7.513-33.679,11.333c-1.227,0.418-2.465,0.817-3.679,1.274c-0.155,0.059-0.348,0.116-0.402,0.288
		c-0.205,0.651-0.03,1.592-0.03,2.271c0,0.907-0.003,1.814-0.003,2.722c0.001,1.839,0.018,3.677-0.005,5.516
		c-0.01,0.772,0.162,1.133,0.16,1.936c0,0.185,0.047,2.066,0.044,2.067c-0.004-0.753-0.005-1.506-0.01-2.26
		c-0.004-0.632-0.17-0.884,0.412-1.06c0.091-0.027,0.198-0.097,0.296-0.129c0.337-0.112,0.674-0.224,1.011-0.336
		c1.54-0.512,3.08-1.025,4.619-1.538c5.369-1.789,10.737-3.579,16.104-5.371c10.499-3.506,21.012-6.971,31.476-10.578
		C82.336,30.185,83.146,30.055,83.631,29.715z"/>
	<path d="M64.898,66.729c-0.37-0.365-1.64-0.119-2.118-0.118c-0.796,0.002-1.593,0.002-2.39,0.002
		c-1.726-0.001-3.452-0.006-5.178-0.001c-0.667,0-0.868,0.007-0.871-0.698c-0.004-0.717-0.002-1.434-0.001-2.15
		c0.001-0.567-0.148-1.039,0.535-1.049c0.833-0.013,1.667-0.002,2.5-0.002c1.521-0.001,3.043,0,4.564-0.001
		c0.344,0,1.47,0.187,1.651-0.248c0.254-0.61,0.033-1.754,0.029-2.415c-0.002-0.367,0.196-1.382-0.333-1.346
		c-0.729,0.05-1.473,0.01-2.203,0.01c-1.721,0.001-3.442,0.001-5.163,0c-0.374-0.001-1.303,0.176-1.529-0.259
		c-0.257-0.495-0.062-1.416-0.063-1.959c0-0.329-0.216-1.602,0.22-1.759c0.614-0.221,1.659-0.01,2.313-0.011
		c1.585-0.001,3.17-0.001,4.755-0.001c0.792,0,1.585,0,2.377-0.001c0.182,0,0.637,0.071,0.822-0.039c0-0.49,0-0.98,0.001-1.471
		c0-0.688,0.025-1.383-0.002-2.072c-0.019-0.476-0.602-0.324-0.938-0.324c-1.712,0-3.423,0-5.134,0c-1.58,0-3.159,0-4.739-0.002
		c-0.79,0-1.579-0.001-2.369-0.002c-0.199,0-1.876-0.042-1.814,0.123c0.21,3.216,0.018,6.508,0.018,9.731
		c0,3.273-0.138,6.599-0.061,9.854c0.005,0.231,8.927,0.113,9.819,0.113c1.69,0.001,3.38,0.002,5.07,0.003
		c0.543,0,0.3-1.014,0.299-1.396C64.965,68.856,65.206,66.943,64.898,66.729C64.749,66.581,64.96,66.771,64.898,66.729z"/>
	<path d="M27.828,51.102c-0.019-0.76,0.027-1.52-0.01-2.28c-0.028-0.58-0.595-0.358-0.935-0.208
		c-0.994,0.441-2.082,0.628-3.067,1.085c-0.981,0.455-0.617,2.022-0.546,2.908c0.122,1.534,0.09,3.08,0.086,4.618
		c-0.004,1.382-0.026,2.763-0.021,4.145c0.005,1.311-0.062,2.636-0.744,3.791c-1.315,2.226-4.927,2.22-6.643,0.44
		c-0.655-0.68-0.803-2.048-0.924-2.921c-0.265-1.556-0.023-3.311-0.023-4.888c0-1.564,0-3.13-0.001-4.694
		c0-0.607,0.135-1.405-0.034-1.993c-0.146-0.508-0.85-0.328-1.226-0.296c-0.637,0.055-1.335,0.06-1.972,0
		c-0.349-0.033-0.958-0.201-1.269,0.031c0.022,1.696,0.013,3.394,0.014,5.09c0,1.528,0,3.058-0.001,4.586
		c0,1.463-0.216,2.98,0.24,4.401c0.42,1.311,0.729,2.619,1.78,3.618c0.905,0.86,1.921,1.837,3.216,2.081
		c1.607,0.303,3.105,0.486,4.745,0.285c1.504-0.185,3.42-0.63,4.573-1.69c1.965-1.807,2.659-4.284,2.729-6.894
		c0.104-3.849,0.112-7.717,0.023-11.565C27.822,50.854,27.827,51.045,27.828,51.102C27.809,50.342,27.833,51.273,27.828,51.102z"/>
	<path d="M81.816,64.736c-0.357-0.35-0.875,0.274-1.103,0.496c-0.455,0.443-1.069,0.664-1.54,1.086
		c-1.203,0.494-2.506,0.786-3.794,0.491c-2.412-0.552-4.234-2.464-4.634-4.928c-0.341-2.1,0.259-4.752,2.058-6.118
		c2.153-1.635,4.729-1.329,7.015-0.14c0.256,0.133,1.469,1.282,1.707,1.019c0.473-0.524,0.948-1.046,1.41-1.58
		c0.402-0.464,0.921-0.961,1.185-1.523c0.126-0.269-2.236-1.899-2.605-2.091c-1.011-0.523-2.099-0.605-3.162-0.911
		c-0.455-0.131-0.951-0.07-1.418-0.066c-0.676,0.007-1.599-0.097-2.216,0.165c-0.419,0.178-0.915,0.14-1.359,0.183
		c-0.523,0.05-0.813,0.294-1.271,0.493c-1.308,0.568-2.425,1.392-3.425,2.402c-4.744,4.797-3.014,14.193,3.499,16.566
		c3.156,1.149,6.979,1.105,9.914-0.743c0.731-0.46,1.926-1.066,2.263-1.913c0.2-0.503-0.552-1.005-0.866-1.272
		c-0.59-0.502-1.121-1.083-1.67-1.629c0.113,0.113,0.229,0.225,0.343,0.337C82.036,64.952,81.926,64.844,81.816,64.736
		C81.478,64.404,82.631,65.537,81.816,64.736z"/>
	<path d="M47.897,56.605c-0.635-1.962-1.157-3.686-3.097-4.681c-0.476-0.245-0.896-0.615-1.418-0.733
		c-0.902-0.203-1.847-0.369-2.77-0.394c-2.287-0.06-4.611,0.186-6.893,0.003c-0.236-0.019-1.525-0.209-1.494,0.245
		c0.098,1.383,0.015,2.789,0.014,4.174c-0.001,2.665-0.001,5.33-0.002,7.995c0,1.332,0,2.665,0,3.998
		c0,0.633,0.005,1.265-0.019,1.897c-0.013,0.332-0.169,1.056-0.049,1.35c0.16,0.39,1.551,0.175,1.837,0.175
		c0.485-0.001,2.105,0.301,2.48-0.123c0.269-0.304,0.135-0.981,0.135-1.338c0-0.599,0.023-1.203-0.006-1.802
		c-0.035-0.718-0.324-1.921,0.004-2.548c0.092-0.176,1.102-0.13,1.277-0.133c0.972-0.017,1.949,0.072,2.918-0.016
		c1.648-0.149,3.121-0.463,4.457-1.471c0.914-0.688,1.723-1.469,2.143-2.564C47.89,59.402,47.977,57.726,47.897,56.605
		C47.594,55.671,47.906,56.736,47.897,56.605z M42.753,59.773c-0.861,0.955-2.213,1.11-3.427,1.109c-0.637,0-2.537,0.302-2.71-0.483
		c-0.186-0.841,0.007-1.75,0.009-2.603c0.002-0.838,0.014-1.675,0-2.513c-0.007-0.442,0.002-0.5,0.432-0.555
		c1.527-0.192,3.432,0.005,4.906,0.443c2.102,0.626,1.737,3.547,0.606,4.806c0.146-0.162,0.294-0.322,0.438-0.485
		C42.923,59.587,42.837,59.68,42.753,59.773C41.366,61.312,43.578,58.857,42.753,59.773z"/>
</g>
</svg>
