<?xml version="1.0" encoding="UTF-8" standalone="no"?>
<!-- Generator: Adobe Illustrator 15.0.2, SVG Export Plug-In . SVG Version: 6.00 Build 0)  -->

<svg
   xmlns:dc="http://purl.org/dc/elements/1.1/"
   xmlns:cc="http://creativecommons.org/ns#"
   xmlns:rdf="http://www.w3.org/1999/02/22-rdf-syntax-ns#"
   xmlns:svg="http://www.w3.org/2000/svg"
   xmlns="http://www.w3.org/2000/svg"
   xmlns:xlink="http://www.w3.org/1999/xlink"
   xmlns:sodipodi="http://sodipodi.sourceforge.net/DTD/sodipodi-0.dtd"
   xmlns:inkscape="http://www.inkscape.org/namespaces/inkscape"
   version="1.0"
   id="Layer_1"
   x="0px"
   y="0px"
   width="100"
   height="98.422806"
   viewBox="0 0 99.999996 98.422797"
   enable-background="new 0 0 2481 2073"
   xml:space="preserve"
   inkscape:version="0.48.4 r9939"
   sodipodi:docname="logo.versailles.marker.svg"><metadata
     id="metadata15"><rdf:RDF><cc:Work
         rdf:about=""><dc:format>image/svg+xml</dc:format><dc:type
           rdf:resource="http://purl.org/dc/dcmitype/StillImage" /><dc:title></dc:title></cc:Work></rdf:RDF></metadata><defs
     id="defs13"><linearGradient
       id="SVGID_1_"
       gradientUnits="userSpaceOnUse"
       x1="263.8389"
       y1="-344.77591"
       x2="331.28519"
       y2="-344.77591"
       gradientTransform="matrix(1,0,0,-1,-247.5,-270)"><stop
         offset="0.0023"
         style="stop-color:#217939"
         id="stop60" /><stop
         offset="1"
         style="stop-color:#8DC63F"
         id="stop62" /></linearGradient><linearGradient
       inkscape:collect="always"
       xlink:href="#SVGID_1_"
       id="linearGradient4139"
       gradientUnits="userSpaceOnUse"
       gradientTransform="matrix(1,0,0,-1,-247.5,-270)"
       x1="263.8389"
       y1="-344.77591"
       x2="331.28519"
       y2="-344.77591" /><linearGradient
       id="SVGID_1_-1"
       gradientUnits="userSpaceOnUse"
       x1="51.847698"
       y1="65.255898"
       x2="77.012001"
       y2="41.551998"><stop
         offset="0"
         style="stop-color:#F19824"
         id="stop6" /><stop
         offset="0.1612"
         style="stop-color:#EE6E25"
         id="stop8" /><stop
         offset="0.3395"
         style="stop-color:#EB4727"
         id="stop10" /><stop
         offset="0.5157"
         style="stop-color:#E82828"
         id="stop12" /><stop
         offset="0.687"
         style="stop-color:#E61228"
         id="stop14" /><stop
         offset="0.851"
         style="stop-color:#E50429"
         id="stop16" /><stop
         offset="1"
         style="stop-color:#E50029"
         id="stop18" /></linearGradient><linearGradient
       id="SVGID_2_"
       gradientUnits="userSpaceOnUse"
       x1="23.0205"
       y1="56.362301"
       x2="6.3035002"
       y2="32.675301"><stop
         offset="0"
         style="stop-color:#F19824"
         id="stop25" /><stop
         offset="0.0189"
         style="stop-color:#F08F24"
         id="stop27" /><stop
         offset="0.1136"
         style="stop-color:#ED6926"
         id="stop29" /><stop
         offset="0.2157"
         style="stop-color:#EB4927"
         id="stop31" /><stop
         offset="0.325"
         style="stop-color:#E92E27"
         id="stop33" /><stop
         offset="0.4441"
         style="stop-color:#E71A28"
         id="stop35" /><stop
         offset="0.5781"
         style="stop-color:#E60B29"
         id="stop37" /><stop
         offset="0.7391"
         style="stop-color:#E50329"
         id="stop39" /><stop
         offset="1"
         style="stop-color:#E50029"
         id="stop41" /></linearGradient></defs><sodipodi:namedview
     pagecolor="#ffffff"
     bordercolor="#666666"
     borderopacity="1"
     objecttolerance="10"
     gridtolerance="10"
     guidetolerance="10"
     inkscape:pageopacity="0"
     inkscape:pageshadow="2"
     inkscape:window-width="1002"
     inkscape:window-height="902"
     id="namedview11"
     showgrid="false"
     fit-margin-top="0"
     fit-margin-left="0"
     fit-margin-right="0"
     fit-margin-bottom="0"
     inkscape:zoom="1.8215147"
     inkscape:cx="117.17069"
     inkscape:cy="35.844593"
     inkscape:window-x="163"
     inkscape:window-y="119"
     inkscape:window-maximized="0"
     inkscape:current-layer="Layer_1" /><path
     style="opacity:0.36213995;fill:#000000;fill-opacity:0.57534246;fill-rule:evenodd;stroke:none"
     inkscape:connector-curvature="0"
     id="path7"
     d="m 30.209036,98.422796 c 5.626411,-5.553785 9.034218,-10.843153 11.506341,-16.105002 1.833744,-3.903077 1.567241,-6.021578 4.572524,-11.674019 6.681738,-11.369765 9.706537,-13.496243 21.51007,-17.373402 6.864565,-1.582623 14.718733,-1.713817 21.487151,0.716469 5.534065,1.987211 8.750351,5.213924 9.994611,8.218802 1.016807,2.455504 0.916107,4.971064 -0.04462,7.494512 -1.002761,2.63388 -2.974216,5.333232 -6.887658,8.151162 -2.005011,1.443608 -4.228229,2.588461 -6.259488,3.440189 -2.055894,0.862004 -4.129904,1.39643 -6.213154,2.036432 -4.066587,1.249335 -8.226449,2.166641 -12.393591,3.082183 -12.412046,2.726586 -24.678961,5.712499 -37.272126,12.012674 z"
     clip-rule="evenodd"
     sodipodi:nodetypes="cscccssccsccc" /><path
     style="fill:#f5f5f5;fill-opacity:0.78431374;stroke:#e86c52;stroke-width:2.93298769000000004;stroke-linecap:round;stroke-linejoin:miter;stroke-miterlimit:10;stroke-opacity:1;stroke-dasharray:none"
     inkscape:connector-curvature="0"
     id="path5"
     d="M 30.134416,91.679377 C 28.016291,81.541793 24.281731,73.10552 19.758352,65.286719 16.403154,59.486935 12.516319,54.133673 8.9199986,48.509538 7.719467,46.63206 6.6834123,44.648623 5.5298244,42.700104 3.2231948,38.804023 1.3530149,34.286734 1.4718619,28.427076 1.5879664,22.70181 3.2863003,18.10919 5.7353248,14.354231 9.7632348,8.1781947 16.510136,3.1145772 25.562847,1.7838334 c 7.401689,-1.08800819 14.341307,0.7501202 19.262511,3.5558198 4.021402,2.2926179 7.135594,5.3551178 9.502761,8.9644128 2.470769,3.767167 4.172163,8.217672 4.314883,14.022741 0.07305,2.974145 -0.426462,5.728351 -1.130155,8.012944 -0.712153,2.312443 -1.857497,4.245431 -2.876506,6.310253 -1.989168,4.030474 -4.48305,7.723246 -6.985838,11.418397 -7.45475,11.006267 -14.451733,22.230688 -17.516087,37.610976 z"
     stroke-miterlimit="10"
     clip-rule="evenodd" /><g
     transform="matrix(0.5620873,0,0,0.5620873,1.9409701,2.1264678)"
     id="g3"><path
       style="fill:#e9f900"
       inkscape:connector-curvature="0"
       d="m 61.796,18.175 c 10e-4,0.013 0,0.005 0,0 l 0,0 z"
       id="path5-7" /><path
       style="fill:#e9f900"
       inkscape:connector-curvature="0"
       d="m 68.945,31.726 c 0.009,-0.005 0.003,-0.002 0,0 l 0,0 z"
       id="path7-9" /><path
       style="fill:#e9f900"
       inkscape:connector-curvature="0"
       d="m 57.04,45.061 c 0.042,-0.03 0.004,-0.029 0,0 0.01,-0.007 10e-4,-0.007 0,0 z"
       id="path9" /><path
       style="fill:#e9f900"
       inkscape:connector-curvature="0"
       d="m 48.571,33.065 c -0.091,0.115 -0.015,0.054 0,0 -0.017,0.021 -0.005,0.018 0,0 z"
       id="path11" /><path
       style="fill:#e9f900"
       inkscape:connector-curvature="0"
       d="m 18.218,23.566 c -0.059,0.015 -0.042,-0.615 -0.042,-0.648 0,0.196 -0.038,0.667 0.042,0.648 -0.023,0.006 0.118,-0.029 0,0 z"
       id="path13" /><path
       style="fill:#e9f900"
       inkscape:connector-curvature="0"
       d="m 39.49,44.526 c -0.013,0.183 0.088,0.05 0,0 -0.002,0.034 0.02,0.011 0,0 z"
       id="path15" /><path
       style="fill:#e9f900"
       inkscape:connector-curvature="0"
       d="m 38.224,49.457 c 0.06,-0.036 -0.077,0 0,0 0.005,-0.003 -0.004,0 0,0 z"
       id="path17" /><path
       style="fill:#e9f900"
       inkscape:connector-curvature="0"
       d="m 49.838,45.627 c 0,0.01 0.012,0.043 0,0 0,10e-4 0.002,0.007 0,0 z"
       id="path19" /><path
       style="fill:#e9f900"
       inkscape:connector-curvature="0"
       d="m 37.842,47.439 c -0.007,0 -0.147,0.133 0,0 -0.002,0 -0.02,0.018 0,0 z"
       id="path21" /><path
       style="fill:#e9f900"
       inkscape:connector-curvature="0"
       d="m 53.801,31.714 c 0.004,0.042 0.016,0.083 0.033,0.121 0.005,-0.07 -0.048,-0.298 -0.033,-0.121 0.002,0.01 -0.002,-0.023 0,0 z"
       id="path23" /><path
       style="fill:#e9f900"
       inkscape:connector-curvature="0"
       d="m 57.689,27.264 c 10e-4,-0.005 -0.032,0.195 0,0 -0.005,0.021 -0.003,0.024 0,0 z"
       id="path25" /><path
       style="fill:#e9f900"
       inkscape:connector-curvature="0"
       d="m 55.666,37.098 c -0.045,-0.056 -0.031,0.101 0,0 -0.006,-0.007 -0.004,0.013 0,0 z"
       id="path27" /><path
       style="fill:#e9f900"
       inkscape:connector-curvature="0"
       d="m 53.734,32.819 c 0.037,-0.092 -0.06,0.065 0,0 0.004,-0.01 -0.005,0.006 0,0 z"
       id="path29" /><path
       style="fill:#e9f900"
       inkscape:connector-curvature="0"
       d="m 73.881,17.26 c -0.02,0.009 -0.007,0.003 0,0 l 0,0 z"
       id="path31" /><path
       style="fill:#e9f900"
       inkscape:connector-curvature="0"
       d="m 53.748,31.645 c -0.035,0.015 -0.053,0.041 0,0.023 0,-0.008 0,-0.015 0,-0.023 z"
       id="path33" /><path
       style="fill:#e9f900"
       inkscape:connector-curvature="0"
       d="m 51.779,24.82 c -0.021,-0.068 -0.042,-0.136 -0.063,-0.204 -0.077,0.274 -0.103,0.162 0.063,0.204 -0.02,-0.064 -0.008,-0.002 0,0 z"
       id="path35" /><path
       style="fill:#e9f900"
       inkscape:connector-curvature="0"
       d="m 68.945,31.732 c -0.002,-0.006 -0.004,-0.011 0,0 l 0,0 z"
       id="path37" /><path
       style="fill:#e9f900"
       inkscape:connector-curvature="0"
       d="m 76.473,22.369 c -0.002,0.013 -0.001,0.003 0,0 l 0,0 z"
       id="path39" /><path
       style="fill:#e9f900"
       inkscape:connector-curvature="0"
       d="m 51.285,28.503 c -0.018,0.083 -0.035,0.167 -0.053,0.25 0.305,-0.071 0.323,-0.154 0.053,-0.25 -0.027,0.083 0.098,0.024 0,0 z"
       id="path41" /><path
       style="fill:#e9f900"
       inkscape:connector-curvature="0"
       d="m 46.746,48.18 c 0.043,0.049 0.086,0.098 0.128,0.145 -0.017,-0.067 -0.05,-0.125 -0.128,-0.145 z"
       id="path43" /><path
       style="fill:#e9f900"
       inkscape:connector-curvature="0"
       d="m 69.115,80.542 c 0,0 -0.009,-0.003 0,0 l 0,0 z"
       id="path45" /><path
       style="fill:#e9f900"
       inkscape:connector-curvature="0"
       d="m 18.814,74.535 c 0.041,-0.017 0,-0.056 0,0 0.009,-0.004 0,-0.01 0,0 z"
       id="path47" /><path
       style="fill:#e9f900"
       inkscape:connector-curvature="0"
       d="m 78.805,67.561 c -0.001,-0.003 -0.006,-0.013 0,0 l 0,0 z"
       id="path49" /><path
       style="fill:#e9f900"
       inkscape:connector-curvature="0"
       d="m 23.204,67.752 c 0,-0.013 -0.011,-0.027 0,0 0,-0.005 -0.002,-0.005 0,0 z"
       id="path51" /><path
       style="fill:#e9f900"
       inkscape:connector-curvature="0"
       d="m 24.663,67.938 c 0.005,-0.014 -0.011,-0.032 0,0 0.002,-0.006 -0.002,-0.006 0,0 z"
       id="path53" /><path
       style="fill:#e9f900"
       inkscape:connector-curvature="0"
       d="m 81.548,70.314 c 0.005,-0.008 0.011,-0.02 0,0 l 0,0 z"
       id="path55" /><path
       style="fill:#e9f900"
       inkscape:connector-curvature="0"
       d="m 79.109,61.006 c 0.121,-0.072 -0.009,-0.087 0,0 0.02,-0.012 -0.002,-0.018 0,0 z"
       id="path57" /><path
       style="fill:#e9f900"
       inkscape:connector-curvature="0"
       d="m 75.771,43.775 c 0.019,-0.084 -0.111,-0.061 0,0 0.004,-0.018 -0.019,-0.011 0,0 z"
       id="path59" /><path
       style="fill:#e9f900"
       inkscape:connector-curvature="0"
       d="m 77.312,39.381 c 0.095,-0.055 0.19,-0.11 0.285,-0.165 -0.176,-0.26 -0.235,0.006 -0.285,0.165 0.095,-0.053 0.028,-0.088 0,0 z"
       id="path61" /><path
       style="fill:#e9f900"
       inkscape:connector-curvature="0"
       d="m 77.262,34.652 h 0.002 -0.002 z"
       id="path63" /><path
       style="fill:#e9f900"
       inkscape:connector-curvature="0"
       d="m 68.948,31.732 c -0.003,0 -0.005,0.001 0,0 l 0,0 z"
       id="path65" /><path
       style="fill:#e9f900"
       inkscape:connector-curvature="0"
       d="m 23.799,47.144 c 0.041,0.004 0.011,-0.011 0,0 0.009,0.001 0.003,-0.003 0,0 z"
       id="path67" /><path
       style="fill:#e9f900"
       inkscape:connector-curvature="0"
       d="m 19.559,55.415 c -0.054,-0.08 -0.128,-0.118 -0.223,-0.113 -0.029,0.209 0.045,0.246 0.223,0.113 -0.059,-0.095 -0.059,0.041 0,0 z"
       id="path69" /><path
       style="fill:#e9f900"
       inkscape:connector-curvature="0"
       d="m 23.225,56.098 c -0.187,0.117 0.091,0.145 0,0 -0.031,0.019 0.017,0.027 0,0 z"
       id="path71" /><path
       style="fill:#e9f900"
       inkscape:connector-curvature="0"
       d="m 30.363,50.389 c 0.009,-0.022 0.001,-0.003 0,0 l 0,0 z"
       id="path73" /><path
       style="fill:#e9f900"
       inkscape:connector-curvature="0"
       d="m 71.553,40.949 c 0.04,-0.088 -0.029,-0.04 0,0 0.008,-0.017 -0.006,-0.008 0,0 z"
       id="path75" /><path
       style="fill:#e9f900"
       inkscape:connector-curvature="0"
       d="m 75.786,40.551 c 0.112,0.034 0.031,-0.023 0,0 0.021,0.006 0.007,-0.005 0,0 z"
       id="path77" /><path
       style="fill:#63afde"
       inkscape:connector-curvature="0"
       d="m 59.602,26.418 c -1.001,4.674 -1.953,9.361 -3.006,14.023 -0.495,2.187 -0.896,4.382 -1.399,6.565 -0.265,1.144 -0.492,2.296 -0.706,3.45 -0.189,1.029 -0.871,2.377 -0.555,3.417 1.374,-2.992 2.493,-6.156 3.723,-9.216 0.137,-0.342 0.266,-0.687 0.392,-1.033 0.153,-0.422 0.48,-0.623 0.671,-1.038 0.376,-0.814 0.676,-1.67 1.009,-2.502 0.741,-1.852 1.482,-3.704 2.222,-5.557 0.69,-1.729 1.378,-3.459 2.062,-5.19 0.119,-0.303 0.271,-0.594 0.356,-0.909 0.11,-0.406 -0.014,-0.678 0.138,-1.057 0.354,-0.889 0.748,-1.756 1.11,-2.64 0.642,-1.564 1.251,-3.145 1.821,-4.736 0.277,-0.656 0.675,-1.278 0.756,-2.001 0.419,-0.791 0.718,-0.034 1.242,0.056 -0.438,0.442 -0.633,1.033 -0.797,1.617 -0.219,0.775 -0.558,1.487 -0.848,2.236 -0.567,1.462 -1.227,2.975 -1.611,4.495 -1.266,2.966 -2.312,6.008 -3.438,9.005 -1.216,3.237 -2.431,6.473 -3.641,9.712 -0.601,1.61 -1.18,3.229 -1.758,4.847 -0.501,1.401 -1.563,2.96 -1.586,4.478 0.669,-0.827 1.207,-1.751 1.681,-2.701 0.543,-1.088 1.168,-2.084 1.812,-3.122 1.257,-2.027 2.448,-4.093 3.625,-6.167 1.191,-2.097 2.415,-4.166 3.648,-6.238 0.592,-0.994 1.166,-1.999 1.706,-3.022 0.211,-0.4 0.699,-1.037 0.717,-1.457 -0.005,0.004 -0.004,-0.005 -0.007,-0.007 0.005,0.001 0.006,-10e-4 0.004,-0.006 0.092,0.08 3.069,-5.062 3.312,-5.406 0.659,-0.938 1.141,-1.987 1.751,-2.956 0.267,-0.423 1.162,-2.699 1.728,-2.343 0.545,0.343 0.362,0.437 0.08,1.004 -0.123,0.247 -0.98,1.59 -0.872,1.793 -0.404,0.204 -0.721,0.527 -0.918,0.933 -0.087,0.177 -0.372,1.25 -0.395,1.243 -0.778,0.771 -0.978,1.65 -1.471,2.492 -0.191,0.326 -0.218,1.026 -0.643,1.168 -0.328,0.385 -0.762,0.737 -0.586,1.304 -0.524,-0.141 -1.504,2.19 -1.736,2.604 -0.285,0.509 -0.6,1.017 -0.844,1.548 -0.165,0.358 0.059,0.426 -0.269,0.637 -0.183,0.118 -0.292,0.309 -0.391,0.495 -1.263,2.384 -2.622,4.721 -3.927,7.083 -1.334,2.415 -2.666,4.83 -4.008,7.24 -0.571,1.025 -1.192,2.029 -1.746,3.063 -0.232,0.435 -0.266,0.908 -0.56,1.231 -0.15,0.166 -0.418,0.985 -0.418,1.202 0.435,-0.191 0.747,-0.711 0.93,-1.111 0.448,-0.544 0.901,-1.084 1.349,-1.629 1.067,-1.302 2.116,-2.619 3.173,-3.93 2.032,-2.522 4.062,-5.048 6.06,-7.597 0.895,-1.141 1.791,-2.265 2.741,-3.359 0.428,-0.492 0.831,-1.012 1.123,-1.599 0.617,-0.519 1.128,-1.147 1.607,-1.792 0.824,-1.105 1.748,-2.119 2.582,-3.215 0.825,-1.087 1.821,-2.08 2.542,-3.24 0.862,-1.061 1.716,-2.128 2.61,-3.16 0.478,-0.552 0.307,-1.326 0.307,-2.012 -10e-4,-0.885 -10e-4,-1.77 -10e-4,-2.655 0,-2.492 -1.759,-4.296 -4.164,-4.793 -1.373,-0.283 -2.854,-0.136 -4.246,-0.136 -1.715,0 -3.43,0 -5.145,0 -1.583,0 -3.166,0 -4.749,0 -0.319,0 -1.726,-0.201 -1.909,0.078 -0.208,0.317 -0.226,1.145 -0.25,1.507 -0.186,0.217 -0.164,0.494 -0.169,0.757 -0.128,0.353 -0.229,0.716 -0.31,1.083 -0.19,0.868 -0.314,1.732 -0.528,2.597 -0.373,1.51 -0.673,3.054 -0.983,4.569 -0.82,3.824 0.029,-0.143 0,0 z M 57.04,45.061 c 0.004,-0.027 0.047,-0.033 0,0 10e-4,-0.007 0.01,-0.007 0,0 z M 76.473,22.369 c 0,0.006 -0.007,0.011 0,0 0,0.002 -0.002,0.003 0,0 z M 73.881,17.26 c -0.004,0.013 -0.026,0 0,0 -0.001,0.003 -0.004,0 0,0 z m -12.085,0.915 c 0.003,0 0,0.018 0,0 10e-4,0 0,0.003 0,0 z"
       id="path79" /><path
       style="fill:#63afde"
       inkscape:connector-curvature="0"
       d="m 81.896,45.195 c -0.693,0.221 -1.377,0.963 -1.98,1.373 -0.76,0.515 -1.47,1.066 -2.217,1.592 -1.808,1.275 -3.656,2.515 -5.466,3.799 -3.619,2.568 -7.237,5.138 -10.854,7.711 0.847,0.091 1.668,-0.546 2.396,-0.893 1.193,-0.568 2.386,-1.138 3.577,-1.709 2.385,-1.141 4.767,-2.286 7.149,-3.432 2.162,-1.039 4.32,-2.085 6.493,-3.09 0.355,-0.182 0.81,-0.182 1.047,-0.551 0.008,-0.644 0.017,-1.288 0.024,-1.931 0.007,-0.645 0.015,-1.289 0.021,-1.933 0.004,-0.121 0.163,-1.105 -0.19,-0.936 -0.362,0.115 0.182,-0.087 0,0 z"
       id="path81" /><path
       style="fill:#63afde"
       inkscape:connector-curvature="0"
       d="m 47.004,17.624 c 0.1,3.167 0.504,6.354 0.764,9.513 0.266,3.243 0.521,6.486 0.775,9.73 0.124,1.578 0.25,3.156 0.385,4.733 0.066,0.77 0.17,1.545 0.193,2.317 0.025,0.832 0.211,1.624 0.251,2.435 0.037,0.725 0.073,1.45 0.11,2.175 0.026,0.516 0.253,1.449 0.082,1.93 -0.069,0.483 0.053,1.174 0.17,1.646 0,0.453 0.032,1.635 0.342,1.885 0.577,-7.861 1.3,-15.653 1.927,-23.518 0.322,-4.04 0.659,-8.078 0.995,-12.115 0.037,-0.442 0.33,-2.077 0.086,-2.408 -0.333,-0.453 -2.027,-0.146 -2.525,-0.143 -1.062,0.006 -2.123,0.012 -3.184,0.018 -0.96,0.007 -0.41,1.153 -0.371,1.802 0.004,0.124 -0.011,-0.181 0,0 z m 4.712,6.992 c 0.021,0.068 0.042,0.136 0.063,0.204 -0.037,-0.016 -0.077,-0.02 -0.119,-0.012 0.019,-0.064 0.037,-0.128 0.056,-0.192 0.024,0.071 -0.019,0.067 0,0 z m -0.431,3.887 c 0.27,0.096 0.252,0.179 -0.053,0.25 0.018,-0.084 0.036,-0.167 0.053,-0.25 0.098,0.024 -0.027,0.083 0,0 z m -1.447,17.124 c 0.012,0.043 0,0.01 0,0 0.002,0.007 0,10e-4 0,0 z M 48.571,33.065 c -0.014,0.053 -0.09,0.12 0,0 -0.005,0.018 -0.016,0.021 0,0 z"
       id="path83" /><path
       style="fill:#63afde"
       inkscape:connector-curvature="0"
       d="m 82.068,37.386 c -0.314,-0.339 -1.585,1.1 -1.84,1.419 -0.787,0.985 -1.849,1.871 -2.77,2.756 -1.991,1.913 -4.229,3.681 -6.004,5.806 -1.002,0.69 -1.783,1.635 -2.654,2.473 -1.124,1.075 -2.244,2.154 -3.363,3.234 -1.119,1.08 -2.236,2.162 -3.354,3.243 -0.532,0.516 -1.045,1.124 -1.668,1.526 -0.41,0.265 -0.979,1.161 -0.141,0.509 2.27,-1.766 4.784,-3.286 7.183,-4.875 2.469,-1.635 4.935,-3.286 7.37,-4.961 1.017,-0.699 2.105,-1.351 3.062,-2.122 0.525,-0.424 1.142,-0.68 1.652,-1.145 0.425,-0.28 0.854,-0.596 1.292,-0.82 1.181,-0.602 1.267,-1.282 1.26,-2.537 -0.01,-1.502 -0.017,-3.004 -0.025,-4.506 -0.347,-0.375 0.01,1.876 0,0 z m -6.297,6.389 c -0.103,-0.062 0.009,-0.08 0,0 -0.019,-0.012 0.002,-0.017 0,0 z"
       id="path85" /><path
       style="fill:#63afde"
       inkscape:connector-curvature="0"
       d="m 64.98,65.566 c 3.711,-0.043 7.438,-0.187 11.145,-0.187 0.914,-0.011 1.828,-0.021 2.741,-0.032 0.814,-0.01 2,0.206 2.765,-0.107 0.661,-0.188 0.656,-2.938 0.26,-2.996 -0.597,-0.088 -1.435,0.235 -2.026,0.342 -0.988,0.178 -1.986,0.305 -2.979,0.462 -1.896,0.3 -3.769,0.718 -5.668,0.98 -1.872,0.259 -3.711,0.662 -5.585,0.919 -0.567,0.25 -1.417,-0.067 -1.961,0.273 -0.475,0.297 -0.914,-0.321 -1.288,0.479 0.862,-0.122 1.747,0.105 2.596,-0.133 z"
       id="path87" /><path
       style="fill:#63afde"
       inkscape:connector-curvature="0"
       d="m 52.354,45.082 c -0.191,0.614 -0.087,1.486 -0.125,2.13 -0.053,0.886 -0.104,1.771 -0.157,2.658 -0.03,0.511 -0.501,3.53 0.012,3.577 0.651,-3.121 1.35,-6.253 2.154,-9.338 0.787,-3.018 1.321,-6.108 2.14,-9.112 0.828,-3.035 1.419,-6.126 2.164,-9.182 0.357,-1.467 0.688,-2.937 1.071,-4.398 0.196,-0.752 0.381,-1.509 0.532,-2.271 0.138,-0.693 0.189,-1.502 0.415,-2.15 0.048,-0.136 0.577,-1.179 0.128,-1.179 -0.774,-0.006 -1.549,-0.01 -2.324,-0.013 -0.596,-0.002 -4.263,-0.312 -4.25,0.333 0.012,0.626 -0.133,1.206 -0.173,1.829 -0.047,0.726 0.004,1.453 -0.028,2.178 -0.188,1.676 -0.316,3.36 -0.355,5.046 -0.072,3.183 -0.427,6.382 -0.612,9.57 -0.192,3.308 -0.38,6.617 -0.568,9.925 -0.01,0.132 -0.017,0.265 -0.024,0.397 -0.036,0.113 0.226,-3.971 0,0 z m 5.335,-17.818 c -0.032,0.195 10e-4,-0.005 0,0 -0.003,0.024 -0.005,0.021 0,0 z m -2.023,9.834 c -0.029,0.103 -0.046,-0.056 0,0 -0.004,0.014 -0.006,-0.007 0,0 z m -1.918,-4.305 c -0.039,0.079 0,0.03 0,0 -0.004,0.008 0,-0.002 0,0 z m 0.098,-1.076 c -0.083,0.403 -0.027,-0.321 0,0 -0.008,0.038 -0.006,-0.071 0,0 z m -0.098,-0.072 c 0,0.009 0,0.016 0,0.023 -0.053,0.018 -0.035,-0.009 0,-0.023 z"
       id="path89" /><path
       style="fill:#63afde"
       inkscape:connector-curvature="0"
       d="m 39.345,16.881 c 1.319,5.276 2.336,10.714 3.742,15.997 0.674,2.534 1.157,5.116 1.827,7.656 0.352,1.333 0.612,2.675 0.916,4.021 0.287,1.271 0.734,2.543 1.045,3.77 -0.042,-0.048 -0.085,-0.097 -0.128,-0.145 0.471,2.069 0.959,4.135 1.381,6.215 0.18,-0.903 -0.026,-1.669 -0.01,-2.569 -0.032,-0.907 -0.162,-1.789 -0.205,-2.683 -0.096,-1.977 -0.265,-3.954 -0.322,-5.931 -0.055,-1.89 -0.269,-3.789 -0.383,-5.683 -0.128,-2.117 -0.329,-4.242 -0.374,-6.362 -0.042,-1.965 -0.236,-3.932 -0.334,-5.901 -0.107,-2.164 -0.471,-4.375 -0.444,-6.537 0.009,-0.741 -0.145,-1.483 -0.145,-2.207 -0.035,-0.343 0.069,-0.733 -0.388,-0.733 -0.502,10e-4 -1.005,10e-4 -1.508,0.002 -1.005,10e-4 -2.01,10e-4 -3.016,10e-4 -0.502,0 -1.005,0 -1.507,0 -0.605,0 -0.231,0.744 -0.147,1.089 0.062,0.248 -0.058,-0.238 0,0 z"
       id="path91" /><path
       style="fill:#63afde"
       inkscape:connector-curvature="0"
       d="m 81.521,57.297 c -0.216,-0.052 -0.791,0.224 -1.017,0.276 -0.408,0.094 -0.799,0.25 -1.178,0.425 -0.722,0.243 -1.724,0.348 -2.353,0.775 -2.092,0.623 -4.173,1.281 -6.243,1.971 -1.903,0.634 -3.805,1.251 -5.713,1.856 -0.887,0.281 -1.752,0.642 -2.659,0.857 -0.36,0.086 -0.672,0.258 -0.055,0.263 0.416,0.003 0.903,-0.19 1.339,-0.232 1.848,-0.175 3.683,-0.518 5.524,-0.769 1.978,-0.269 3.957,-0.556 5.932,-0.854 0.999,-0.151 1.994,-0.328 2.986,-0.52 0.915,-0.058 1.797,-0.316 2.688,-0.362 0.399,-0.021 0.76,-0.152 1.14,-0.261 0.159,-0.481 0.208,-0.988 0.206,-1.493 0,-0.447 0.227,-2.57 -0.597,-1.932 -0.057,-0.014 0.2,-0.154 0,0 z m -2.412,3.709 c -0.009,-0.088 0.12,-0.071 0,0 -0.002,-0.018 0.02,-0.012 0,0 z"
       id="path93" /><path
       style="fill:#63afde"
       inkscape:connector-curvature="0"
       d="m 81.38,51.865 c -0.65,0.217 -1.518,0.593 -2.037,1.039 -0.398,0.069 -0.674,0.334 -1.039,0.479 -0.509,0.201 -0.996,0.455 -1.473,0.724 -1.903,1.074 -3.899,2 -5.853,2.98 -1.996,1.001 -3.992,2.003 -5.988,3.004 -0.988,0.496 -1.965,1.057 -3.004,1.438 -0.111,0.425 0.691,0.029 0.878,0.005 0.608,-0.082 1.193,-0.322 1.776,-0.511 4.292,-1.389 8.615,-2.677 12.928,-4 0.33,-0.102 1.621,-0.265 1.787,-0.605 0.465,-10e-4 0.918,-0.127 1.322,-0.355 0.381,-0.021 0.986,-0.14 1.272,-0.42 0.434,-0.424 0.107,-2.174 0.112,-2.745 0.005,-0.621 0.17,-1.627 -0.681,-1.033 -0.34,0.114 0.393,-0.274 0,0 z"
       id="path95" /><path
       style="fill:#63afde"
       inkscape:connector-curvature="0"
       d="m 19.318,56.062 c 0.351,0.186 0.718,0.372 1.128,0.342 0.462,0.271 0.976,0.444 1.505,0.52 0.929,0.131 1.967,0.531 2.863,0.841 2.167,0.748 4.392,1.296 6.582,1.968 1.102,0.338 2.204,0.677 3.306,1.015 0.49,0.15 0.979,0.3 1.469,0.45 0.501,0.153 1.131,0.514 1.64,0.533 0.184,0.053 0.249,-0.012 0.195,-0.195 -0.177,-0.068 -0.354,-0.136 -0.531,-0.204 -0.552,-0.294 -1.104,-0.587 -1.658,-0.876 -1.107,-0.58 -2.22,-1.149 -3.342,-1.701 -3.891,-1.915 -7.836,-3.809 -11.648,-5.839 -0.375,-0.199 -0.76,-0.338 -1.117,-0.564 -0.261,-0.165 -0.915,-0.562 -1.213,-0.55 -0.835,-0.657 -0.577,0.73 -0.575,1.249 0.002,0.745 -0.132,1.618 0.045,2.35 0.134,0.547 0.905,0.575 1.351,0.661 0.354,0.188 -1.406,-0.273 0,0 z m 3.907,0.036 c 0.099,0.149 -0.196,0.113 0,0 0.018,0.027 -0.032,0.018 0,0 z m -3.666,-0.683 c -0.177,0.131 -0.251,0.093 -0.222,-0.114 0.095,-0.004 0.169,0.034 0.222,0.114 -0.059,0.041 -0.059,-0.095 0,0 z"
       id="path97" /><path
       style="fill:#63afde"
       inkscape:connector-curvature="0"
       d="m 18.823,26.033 c 0.055,0.25 0.351,0.455 0.487,0.667 0.23,0.356 0.502,0.685 0.811,0.976 0.427,0.607 0.866,1.215 1.418,1.717 0.287,0.646 0.805,1.094 1.286,1.607 0.454,0.543 0.871,1.144 1.32,1.703 2.195,2.729 4.33,5.51 6.582,8.2 2.084,2.491 3.991,5.109 6.13,7.568 1.163,1.336 2.166,2.825 3.297,4.193 0.556,0.673 1.165,1.313 1.684,2.016 0.239,0.323 0.729,1.354 1.135,1.359 -0.035,-0.58 -0.634,-1.223 -0.919,-1.713 -0.375,-0.645 -0.71,-1.312 -1.061,-1.97 -0.759,-1.43 -1.528,-2.854 -2.355,-4.247 -1.549,-2.607 -2.997,-5.311 -4.467,-7.965 -2.801,-5.335 -5.766,-10.543 -8.712,-15.803 -0.297,-0.529 -2.006,-2.728 -1.355,-3.251 0.72,-0.579 1.952,2.365 2.237,2.857 1.659,2.868 3.368,5.708 5.052,8.56 3.053,5.17 5.928,10.517 9.097,15.658 0.594,0.963 1.184,1.948 1.747,2.926 0.475,1.225 1.424,2.207 1.825,3.466 0.651,-0.304 -0.766,-3.148 -0.968,-3.69 -0.554,-1.484 -1.131,-2.941 -1.668,-4.435 -1.073,-2.982 -2.207,-5.875 -3.313,-8.855 -1.191,-3.212 -2.42,-6.411 -3.624,-9.618 -0.637,-1.694 -1.28,-3.386 -1.925,-5.077 -0.322,-0.846 -0.645,-1.691 -0.967,-2.537 -0.166,-0.436 -0.455,-1.927 -0.847,-2.149 0.227,-0.115 0.361,-0.297 0.322,-0.562 0.342,0 0.337,0.381 0.707,0.364 -0.37,0.413 0.338,1.578 0.497,1.983 0.336,0.855 0.669,1.711 1.004,2.567 0.709,1.812 1.462,3.607 2.178,5.417 0.661,1.669 1.225,3.384 2.084,4.967 0.01,0.009 0.123,0.58 0.144,0.634 0.195,0.492 0.39,0.983 0.585,1.475 0.39,0.983 0.78,1.967 1.171,2.95 0.684,1.721 1.369,3.441 2.058,5.16 0.231,0.577 0.716,1.247 0.763,1.774 0.075,0.851 0.689,1.895 1.013,2.685 0.316,0.771 0.82,1.451 1.11,2.215 0.268,0.706 0.33,1.487 0.643,2.172 0.111,0.244 0.276,0.455 0.497,0.608 -0.078,0 0.03,0.712 0.053,0.784 0.178,0.556 0.634,0.751 0.676,1.354 0.382,-0.308 -0.081,-1.39 -0.158,-1.836 C 45.969,52.165 45.804,51.428 45.55,50.718 45.091,49.379 45.026,47.842 44.721,46.449 44.065,43.45 43.426,40.448 42.776,37.447 41.443,31.277 40.241,25.075 38.777,18.934 38.532,17.909 38.452,16.828 38,15.946 c -0.184,-0.359 -1.34,-0.148 -1.648,-0.147 -0.796,0.003 -1.591,0.006 -2.387,0.008 -3.184,0.011 -6.368,0.021 -9.552,0.032 -2.249,0.007 -4.973,0.479 -6.021,2.794 -0.532,1.177 -0.494,2.583 -0.458,3.844 0.037,1.329 -0.307,2.631 0.889,3.556 0.041,0.186 -0.693,-0.536 0,0 z m 19.379,23.401 c 0.069,0.04 0,0.024 0,0 0.012,0.007 0,0.004 0,0 z M 37.84,47.439 c -0.111,0.099 -0.035,0.041 0,0 0,0 -0.018,0.021 0,0 z m 1.65,-2.913 c 0.09,0.051 -0.012,0.179 0,0 0.02,0.011 -0.002,0.035 0,0 z M 18.176,22.918 c 0,0.027 0.008,0.73 0.081,0.653 -0.145,0.154 -0.081,-0.632 -0.081,-0.653 z"
       id="path99" /><path
       style="fill:#63afde"
       inkscape:connector-curvature="0"
       d="M 81.779,26.963 C 74.691,35.988 67.581,45.25 60.581,54.47 c -0.386,0.508 -0.871,0.938 -1.216,1.474 -0.065,0.101 -1.002,1.04 -0.609,1.068 0.254,0.019 1.052,-0.888 1.271,-1.104 0.509,-0.502 1.048,-0.962 1.582,-1.463 2.34,-2.189 4.68,-4.379 7.024,-6.564 2.281,-2.125 4.567,-4.353 6.96,-6.346 0.506,-0.421 0.985,-0.876 1.411,-1.379 -0.005,0.021 0.739,-0.693 0.787,-0.725 0.956,-0.646 1.985,-1.638 2.817,-2.483 0.323,-0.329 0.625,-0.666 0.964,-0.981 0.155,-0.136 0.421,-0.187 0.486,-0.411 0.113,-0.389 0.008,-0.968 0.01,-1.374 0.003,-0.653 0.006,-1.307 0.009,-1.96 0.005,-1.177 0.01,-2.353 0.015,-3.53 0.002,-0.308 0.166,-2.437 -0.313,-1.729 -0.084,0.107 0.069,-0.101 0,0 z M 71.553,40.949 c -0.029,-0.04 0.041,-0.085 0,0 -0.006,-0.008 0.008,-0.016 0,0 z m 4.233,-0.398 c 0.033,-0.024 0.11,0.034 0,0 0.007,-0.005 0.021,0.006 0,0 z m 1.476,-5.899 0,0 0,0 0,0 z m 0.05,4.729 c 0.05,-0.159 0.108,-0.426 0.285,-0.165 -0.094,0.055 -0.19,0.11 -0.285,0.165 0.028,-0.088 0.094,-0.053 0,0 z"
       id="path101" /><path
       style="fill:#63afde"
       inkscape:connector-curvature="0"
       d="m 62.377,65.701 c 0.01,0.004 0.013,0.005 0,0 l 0,0 z"
       id="path103" /><path
       style="fill:#63afde"
       inkscape:connector-curvature="0"
       d="m 19.124,65.354 c 3.278,0.035 6.556,0.082 9.834,0.126 1.718,0.022 3.435,0.036 5.153,0.051 0.691,0.006 1.354,0.011 2.028,0.143 0.328,0.064 1.665,0.261 1.888,-0.023 0.12,-0.154 -0.861,-0.294 -0.943,-0.271 -0.655,-0.114 -1.309,-0.229 -1.964,-0.345 -1.179,-0.206 -2.372,-0.313 -3.552,-0.524 -2.572,-0.459 -5.143,-0.916 -7.722,-1.335 -1.243,-0.202 -2.488,-0.399 -3.732,-0.599 -0.392,-0.063 -1.636,-0.569 -2.019,-0.284 -0.418,0.312 -0.09,1.366 -0.174,1.787 -0.183,0.903 0.363,1.266 1.203,1.274 3.804,0.041 -0.871,-0.008 0,0 z"
       id="path105" /><path
       style="fill:#63afde"
       inkscape:connector-curvature="0"
       d="m 41.299,57.146 c 0.084,0.071 0.165,0.066 0.24,-0.015 -0.791,-1.354 -2.009,-2.581 -2.983,-3.824 -0.908,-1.158 -1.8,-2.312 -2.67,-3.495 -2.104,-2.863 -4.324,-5.655 -6.502,-8.461 -1.111,-1.435 -2.227,-2.867 -3.344,-4.298 -0.558,-0.715 -1.117,-1.431 -1.676,-2.146 -0.319,-0.409 -0.638,-0.818 -0.958,-1.227 -0.146,-0.267 -0.281,-0.557 -0.56,-0.711 -0.241,-0.556 -0.733,-0.922 -1.058,-1.422 -0.272,-0.419 -0.423,-0.898 -0.932,-0.997 -0.015,-0.342 -0.21,-0.608 -0.438,-0.846 -0.447,-0.465 -0.786,-0.989 -1.159,-1.51 -0.293,-0.408 -0.832,-1.319 -1.333,-1.479 0,1.781 0.002,3.562 0,5.343 -10e-4,0.88 -0.003,1.76 -0.006,2.64 -0.003,0.843 0.184,0.903 0.693,1.481 1.003,1.139 2.303,2.184 3.433,3.208 1.275,1.155 2.553,2.307 3.808,3.498 2.457,2.332 4.976,4.628 7.496,6.898 1.339,1.206 2.685,2.401 4.005,3.627 1.301,1.21 2.558,2.656 3.944,3.736 0.083,0.072 -0.208,-0.162 0,0 z"
       id="path107" /><path
       style="fill:#63afde"
       inkscape:connector-curvature="0"
       d="m 34.911,63.346 c 0.604,0.061 1.208,0.12 1.812,0.179 0.23,0.023 1.141,0.481 1.326,0.107 -0.069,0.141 -9.573,-3.128 -10.468,-3.412 -1.856,-0.591 -3.692,-1.248 -5.538,-1.853 -0.822,-0.27 -1.703,-0.443 -2.501,-0.753 -0.281,-0.109 -1.327,-0.73 -1.558,-0.326 -0.291,0.508 -0.03,1.542 -0.042,2.108 -0.012,0.572 -0.226,1.527 0.65,1.416 0.316,0.263 0.901,0.185 1.282,0.278 0.487,0.12 0.986,0.19 1.486,0.221 0.925,0.056 1.818,0.357 2.753,0.402 1.924,0.092 3.915,0.604 5.825,0.894 1.668,0.253 3.349,0.712 4.973,0.739 0.724,0.072 -0.489,-0.008 0,0 z"
       id="path109" /><path
       style="fill:#63afde"
       inkscape:connector-curvature="0"
       d="m 39.263,60.152 c -0.114,-0.149 -0.228,-0.298 -0.341,-0.447 -0.554,0.025 -1.367,-0.753 -1.782,-1.076 -0.982,-0.766 -1.999,-1.485 -3.031,-2.181 -2.016,-1.356 -3.942,-2.831 -5.932,-4.227 -0.95,-0.666 -1.908,-1.322 -2.869,-1.974 -0.779,-0.528 -1.782,-1.08 -2.462,-1.729 -0.772,-0.692 -1.729,-1.369 -2.628,-1.896 -0.684,-0.401 -1.469,-1.397 -2.302,-1.443 0,1.222 -0.002,2.445 0,3.667 0.001,0.266 -0.144,1.059 0.123,1.26 0.39,0.293 0.995,0.508 1.462,0.652 0.903,0.592 1.973,0.871 2.856,1.418 0.816,0.504 1.934,1.017 2.845,1.303 2.359,1.214 4.795,2.257 7.153,3.462 1.233,0.63 2.489,1.214 3.748,1.791 0.572,0.263 1.145,0.523 1.716,0.788 0.371,0.199 1.007,0.753 1.444,0.632 -0.126,-0.166 -0.325,0.09 0,0 z"
       id="path111" /><path
       style="fill:#63afde"
       inkscape:connector-curvature="0"
       d="m 39.969,58.336 c -0.09,-0.316 -0.471,-0.523 -0.689,-0.754 -0.456,-0.479 -0.899,-0.98 -1.446,-1.361 -0.748,-0.738 -1.5,-1.407 -2.247,-2.157 -2.078,-2.086 -4.346,-4.01 -6.366,-6.14 -1.007,-1.062 -2.071,-2.068 -3.144,-3.063 -1.048,-0.972 -2.02,-2.046 -3.082,-2.992 -1.022,-0.911 -1.956,-1.907 -2.956,-2.833 -0.354,-0.327 -0.783,-0.89 -1.233,-1.077 -0.374,-0.178 -0.406,-0.654 -0.881,-0.71 0,1.396 -0.004,2.793 -0.002,4.19 0,0.588 -0.184,1.559 0.047,2.104 0.134,0.314 0.868,0.683 1.138,0.863 2.176,1.454 4.36,2.916 6.551,4.375 2.512,1.672 4.965,3.425 7.475,5.099 1.226,0.816 2.458,1.604 3.652,2.463 0.579,0.416 1.181,0.798 1.783,1.179 0.277,0.174 1.068,0.939 1.4,0.814 -0.073,-0.256 -0.259,0.098 0,0 z M 23.799,47.144 c 0.011,-0.011 0.043,0.004 0,0 0.003,-0.003 0.009,0.001 0,0 z m 6.564,3.245 c -0.004,-0.007 0.014,-0.019 0,0 -0.001,-0.002 0.003,-0.004 0,0 z"
       id="path113" /><path
       style="fill:#8bb239"
       inkscape:connector-curvature="0"
       d="m 81.564,66.744 c -3.231,0.389 -6.572,0.17 -9.822,0.166 -3.325,-0.003 -6.649,-0.014 -9.975,-0.021 -6.657,-0.017 -13.315,0.004 -19.973,0.012 -6.658,0.009 -13.316,0.004 -19.974,-0.062 -0.799,-0.008 -1.598,-0.017 -2.396,-0.027 -0.334,-0.004 -1.185,-0.18 -1.418,0.191 -0.262,0.414 -0.084,1.231 -0.083,1.688 0.004,0.921 0.006,1.841 0.007,2.762 0.001,1.578 0,3.157 0.001,4.735 0,1.114 0.538,2.215 1.44,2.884 2.209,1.639 5.422,2.046 8.043,2.649 0.63,0.146 1.236,0.223 1.866,0.367 0.766,0.175 1.532,0.35 2.299,0.522 1.661,0.375 3.323,0.745 4.987,1.105 3.179,0.689 6.374,1.299 9.559,1.957 1.449,0.299 2.918,0.599 4.406,0.527 1.619,-0.079 3.245,-0.384 4.833,-0.699 6.31,-1.253 12.571,-2.741 18.846,-4.154 2.269,-0.511 5.521,-1.037 7.085,-2.975 0.801,-0.992 0.761,-2.176 0.766,-3.387 0.008,-1.686 0.016,-3.371 0.025,-5.058 0.004,-0.635 0.474,-3.305 -0.522,-3.182 -0.876,0.106 0.426,-0.053 0,0 z m -62.75,7.791 c 0,-0.054 0.041,-0.017 0,0 0,-0.01 0.009,-0.004 0,0 z m 4.39,-6.783 c -0.011,-0.027 0,-0.013 0,0 -0.002,-0.005 0,-0.005 0,0 z m 1.459,0.186 c -0.011,-0.032 0.005,-0.014 0,0 -0.002,-0.006 0.002,-0.006 0,0 z m 44.452,12.604 c -0.009,0 0,-0.004 0,0 -0.002,0 0,-0.002 0,0 z m 9.69,-12.981 c 0,-0.01 0,-0.006 0,0 0,-0.002 0,-0.002 0,0 z m 2.743,2.753 c 0,-0.026 0.014,-0.009 0,0 0,-0.005 0.003,-0.002 0,0 z"
       id="path115" /></g></svg>