<?xml version="1.0" encoding="utf-8"?>
<!-- Generator: Adobe Illustrator 16.0.0, SVG Export Plug-In . SVG Version: 6.00 Build 0)  -->
<!DOCTYPE svg PUBLIC "-//W3C//DTD SVG 1.1//EN" "http://www.w3.org/Graphics/SVG/1.1/DTD/svg11.dtd">
<svg version="1.1" id="Calque_1" xmlns="http://www.w3.org/2000/svg" xmlns:xlink="http://www.w3.org/1999/xlink" x="0px" y="0px"
	 width="100px" height="100px" viewBox="0 0 100 100" enable-background="new 0 0 100 100" xml:space="preserve">
<g>
	<path d="M66.459,56.832c-0.422-4.754-3.02-8.418-6.847-11.119c-3.825-2.7-8.274-4.423-12.592-6.206
		c-4.519-1.866-9.175-3.812-13.054-6.815c-1.706-1.321-3.305-2.922-4.497-4.727c-0.564-0.855-1.027-1.791-1.462-2.716
		c-0.239-0.508-0.432-1.038-0.591-1.576c-0.079-0.264-0.14-1.335-0.402-1.417c-0.346,0.341-0.212,1.367-0.173,1.801
		c0.054,0.597,0.079,1.187,0.141,1.782c0.062,0.598,0.037,1.235,0.404,1.749c0.052,0.744,0.074,1.416,0.307,2.137
		c0.183,0.568,0.47,1.004,0.524,1.566c0.058,0.598,0.434,1.26,0.67,1.804c0.536,1.237,1.155,2.718,2.062,3.737
		c0.749,0.84,1.367,1.837,2.159,2.704c1.018,1.115,2.14,2.105,3.349,3.009c1.195,0.893,2.431,1.73,3.702,2.512
		c1.155,0.71,2.482,1.246,3.588,1.969c0.299,0.447,1.251,0.728,1.715,0.968c0.674,0.35,1.352,0.694,2.028,1.04
		c1.4,0.715,2.798,1.431,4.141,2.248c0.552,0.335,0.778,0.473,1.182,0.936c0.411,0.472,0.78,0.967,1.061,1.529
		c0.602,1.206,0.748,2.573,0.491,3.892c-0.202,1.033-0.664,2.002-1.47,2.7c-0.387,0.336-0.835,0.597-1.311,0.786
		c-0.504,0.2-1.267,0.537-1.789,0.604c-1.513,0.19-3.16,0.012-4.686,0.013c-1.726,0-3.452,0.001-5.178,0.001
		c-3.319,0.001-6.638,0.002-9.958,0.003c-0.796,0-1.593,0.001-2.39,0.001c-0.774,0-0.662,0.528-0.662,1.187c0,1.714,0,3.427,0,5.141
		c0,6.591,0,13.182,0,19.772c0,0.791,0,1.581,0,2.372c0,0.456-0.149,1.265,0.122,1.678c0.346,0.527,3.346-1.138,3.858-1.358
		c0.607-0.261,1.395-0.455,1.922-0.862c0.449-0.346,0.878-0.377,1.409-0.597c0.697-0.288,1.389-0.591,2.081-0.894
		c0.551-0.241,1.792-0.457,1.705-1.219c-0.169-1.474-0.052-3.01-0.051-4.493c0.001-1.714,0.001-3.427,0.001-5.141
		c0-1.582,0.001-3.163,0.002-4.745c0-0.78,0.738-0.521,1.382-0.521c0.901-0.001,1.802-0.001,2.703-0.002
		c2.934,0,5.866,0.019,8.794-0.093c1.42-0.054,2.884-0.316,4.278-0.59c0.693-0.136,1.371-0.311,2.044-0.53
		c0.316-0.103,1.553-0.285,1.707-0.6c2.52-1.264,4.728-2.755,6.095-5.304C66.213,62.636,66.861,59.446,66.459,56.832
		C66.357,55.688,66.561,57.492,66.459,56.832z"/>
	<path fill="#FFFFFF" d="M73.18,52.062c-0.173-0.447-0.154-1.218-0.189-1.7c-0.055-0.708-0.166-1.412-0.332-2.103
		c-0.348-1.456-0.933-2.855-1.7-4.139c-1.351-2.258-3.277-4.094-5.406-5.614c-4.957-3.538-10.878-5.365-15.916-8.749
		c-2.259-1.517-3.668-3.313-3.892-6.092c-0.198-2.455,1.239-4.538,3.642-5.118c1.246-0.301,2.564-0.258,3.837-0.258
		c1.733,0,3.466-0.001,5.198-0.001c1.6,0,3.199,0.001,4.799,0.004c0.799,0.001,1.599,0.003,2.398,0.006
		c0.915,0.003,1.261,0.049,1.719-0.771c1.542-2.756,2.886-5.622,4.424-8.38c0.183-0.328,0.366-0.656,0.546-0.986
		c-0.044-0.237-0.25-0.079-0.377-0.186c-0.681,0.149-1.48,0.041-2.177,0.041c-1.718-0.001-3.436-0.002-5.152-0.003
		c-6.204-0.004-12.577-0.462-18.722,0.509c-5.457,0.862-11.062,3.655-12.095,9.608c-1.027,5.921,1.8,11.093,6.644,14.325
		c6.037,4.027,13.215,5.913,19.479,9.531c1.562,0.902,3.085,1.888,4.497,3.013c1.374,1.094,2.495,2.352,3.696,3.609
		c2.235,2.341,3.668,5.709,4.545,8.78c0.166-1.049,0.406-2.116,0.45-3.178C73.123,53.532,73.049,52.722,73.18,52.062z"/>
</g>
</svg>
