<?xml version="1.0" encoding="UTF-8" standalone="no"?>
<!-- Generator: Adobe Illustrator 15.0.2, SVG Export Plug-In . SVG Version: 6.00 Build 0)  -->

<svg
   xmlns:dc="http://purl.org/dc/elements/1.1/"
   xmlns:cc="http://creativecommons.org/ns#"
   xmlns:rdf="http://www.w3.org/1999/02/22-rdf-syntax-ns#"
   xmlns:svg="http://www.w3.org/2000/svg"
   xmlns="http://www.w3.org/2000/svg"
   xmlns:xlink="http://www.w3.org/1999/xlink"
   xmlns:sodipodi="http://sodipodi.sourceforge.net/DTD/sodipodi-0.dtd"
   xmlns:inkscape="http://www.inkscape.org/namespaces/inkscape"
   version="1.0"
   id="Layer_1"
   x="0px"
   y="0px"
   width="100"
   height="98.422806"
   viewBox="0 0 99.999996 98.422797"
   enable-background="new 0 0 2481 2073"
   xml:space="preserve"
   inkscape:version="0.48.4 r9939"
   sodipodi:docname="logo.ehess.marker.svg"><metadata
     id="metadata15"><rdf:RDF><cc:Work
         rdf:about=""><dc:format>image/svg+xml</dc:format><dc:type
           rdf:resource="http://purl.org/dc/dcmitype/StillImage" /><dc:title></dc:title></cc:Work></rdf:RDF></metadata><defs
     id="defs13"><linearGradient
       id="SVGID_1_"
       gradientUnits="userSpaceOnUse"
       x1="263.8389"
       y1="-344.77591"
       x2="331.28519"
       y2="-344.77591"
       gradientTransform="matrix(1,0,0,-1,-247.5,-270)"><stop
         offset="0.0023"
         style="stop-color:#217939"
         id="stop60" /><stop
         offset="1"
         style="stop-color:#8DC63F"
         id="stop62" /></linearGradient><linearGradient
       inkscape:collect="always"
       xlink:href="#SVGID_1_"
       id="linearGradient4139"
       gradientUnits="userSpaceOnUse"
       gradientTransform="matrix(1,0,0,-1,-247.5,-270)"
       x1="263.8389"
       y1="-344.77591"
       x2="331.28519"
       y2="-344.77591" /></defs><sodipodi:namedview
     pagecolor="#ffffff"
     bordercolor="#666666"
     borderopacity="1"
     objecttolerance="10"
     gridtolerance="10"
     guidetolerance="10"
     inkscape:pageopacity="0"
     inkscape:pageshadow="2"
     inkscape:window-width="1002"
     inkscape:window-height="902"
     id="namedview11"
     showgrid="false"
     fit-margin-top="0"
     fit-margin-left="0"
     fit-margin-right="0"
     fit-margin-bottom="0"
     inkscape:zoom="0.91075735"
     inkscape:cx="-146.46393"
     inkscape:cy="-71.393859"
     inkscape:window-x="163"
     inkscape:window-y="120"
     inkscape:window-maximized="0"
     inkscape:current-layer="Layer_1" /><path
     style="opacity:0.36213995;fill:#000000;fill-opacity:0.57534246;fill-rule:evenodd;stroke:none"
     inkscape:connector-curvature="0"
     id="path7"
     d="m 30.209036,98.422796 c 5.626411,-5.553785 9.034218,-10.843153 11.506341,-16.105002 1.833744,-3.903077 1.567241,-6.021578 4.572524,-11.674019 6.681738,-11.369765 9.706537,-13.496243 21.51007,-17.373402 6.864565,-1.582623 14.718733,-1.713817 21.487151,0.716469 5.534065,1.987211 8.750351,5.213924 9.994611,8.218802 1.016807,2.455504 0.916107,4.971064 -0.04462,7.494512 -1.002761,2.63388 -2.974216,5.333232 -6.887658,8.151162 -2.005011,1.443608 -4.228229,2.588461 -6.259488,3.440189 -2.055894,0.862004 -4.129904,1.39643 -6.213154,2.036432 -4.066587,1.249335 -8.226449,2.166641 -12.393591,3.082183 -12.412046,2.726586 -24.678961,5.712499 -37.272126,12.012674 z"
     clip-rule="evenodd"
     sodipodi:nodetypes="cscccssccsccc" /><path
     style="fill:#f5f5f5;fill-opacity:0.78431374;stroke:#e86c52;stroke-width:2.93298769000000004;stroke-linecap:round;stroke-linejoin:miter;stroke-miterlimit:10;stroke-opacity:1;stroke-dasharray:none"
     inkscape:connector-curvature="0"
     id="path5"
     d="M 30.134416,91.679377 C 28.016291,81.541793 24.281731,73.10552 19.758352,65.286719 16.403154,59.486935 12.516319,54.133673 8.9199986,48.509538 7.719467,46.63206 6.6834123,44.648623 5.5298244,42.700104 3.2231948,38.804023 1.3530149,34.286734 1.4718619,28.427076 1.5879664,22.70181 3.2863003,18.10919 5.7353248,14.354231 9.7632348,8.1781947 16.510136,3.1145772 25.562847,1.7838334 c 7.401689,-1.08800819 14.341307,0.7501202 19.262511,3.5558198 4.021402,2.2926179 7.135594,5.3551178 9.502761,8.9644128 2.470769,3.767167 4.172163,8.217672 4.314883,14.022741 0.07305,2.974145 -0.426462,5.728351 -1.130155,8.012944 -0.712153,2.312443 -1.857497,4.245431 -2.876506,6.310253 -1.989168,4.030474 -4.48305,7.723246 -6.985838,11.418397 -7.45475,11.006267 -14.451733,22.230688 -17.516087,37.610976 z"
     stroke-miterlimit="10"
     clip-rule="evenodd" /><g
     id="g3014"
     transform="matrix(0.06797103,0,0,0.06797103,11.34164,7.6992098)"><path
       clip-rule="evenodd"
       d="m 402.27548,206.65855 c 3.816,-4.2 4.611,-9.858 7.077,-14.716 2.407,-4.741 4.398,-9.693 6.803,-14.437 5.789,-11.423 22.885,-17.647 34.799,-12.776 1.23,0.504 2.43,1.087 3.62,1.681 9.512,4.74 12.879,14.35 8.292,24.099 -0.764,1.621 -0.733,3.187 -0.866,4.822 -0.164,2.02 -0.533,3.471 -2.943,4.521 -4.785,2.085 -6.392,10.874 -3.266,15.174 1.662,2.286 3.309,4.589 4.837,6.964 1.089,1.692 1.877,3.473 1.07,5.637 -1.606,4.312 -0.601,8.059 2.526,11.426 3.165,3.406 5.986,7.14 9.244,10.448 3.748,3.804 8.224,3.937 12.578,0.805 3.239,-2.33 6.53,-4.595 9.681,-7.039 2.026,-1.572 3.827,-3.097 6.667,-1.725 1.546,0.747 2.796,-0.405 3.96,-1.437 2.239,-1.983 4.831,-3.642 6.774,-5.872 3.816,-4.381 8.228,-3.169 12.77,-1.99 1.78,0.462 2.187,1.562 1.031,2.849 -6.121,6.818 -4.885,16.357 -9.259,23.834 1.762,1.176 3.446,0.626 5.014,0.64 8.836,0.08 13.497,5.883 11.923,14.483 -1.373,7.504 -2.37,15.073 -2.455,22.74 -0.042,3.856 1.1,6.956 4.826,8.484 11.155,4.575 14.781,12.738 13.501,24.566 -1.034,9.548 -0.47,19.296 -0.19,28.943 0.105,3.639 -1.143,5.95 -4.349,6.806 -3.557,0.948 -4.369,3.093 -3.925,6.281 0.023,0.163 0.004,0.333 0.003,0.499 -0.032,12.625 -0.03,12.645 -12.539,14.368 -1.991,0.274 -4.181,0.051 -4.313,2.951 -1.826,1.938 -4.262,1.686 -6.551,1.689 -35.96,0.05 -71.919,0.064 -107.878,0 -6.997,-0.013 -7.77,-1.215 -8.304,-8.132 -4.312,-55.824 -0.866,-111.733 -1.924,-167.591 -0.057,-3.053 -0.829,-6.397 1.766,-8.995 z"
       id="path7-0"
       inkscape:connector-curvature="0"
       style="fill:#b0b2b3;fill-rule:evenodd" /><path
       clip-rule="evenodd"
       d="m 38.022475,389.65255 c -5.96,-5.158 -13.269,-9.08 -15.345,-17.714 -0.488,-2.029 -2.514,-0.948 -3.846,-0.46 -4.213,1.544 -8.375,3.232 -12.6009999,4.738 -1.881,0.671 -4.325,1.422 -5.629,-0.271 -1.606,-2.083 0.369,-4.067 1.673,-5.719 1.015,-1.286 2.195,-2.878 3.62,-3.331 7.4249999,-2.359 11.8779999,-8.001 11.7549999,-14.969 -0.104,-5.938 3.62,-8.97 5.632,-13.28 3.727,-7.983 2.85,-16.646 3.622,-25.014 1.124,-12.187 3.79,-23.894 8.358,-35.217 1.411,-3.498 0.676,-7.119 0.038,-10.661 -0.579,-3.215 0.15,-5.506 2.901,-7.752 7.611,-6.217 16.053,-7.328 25.626,-6.858 8.637,0.424 16.528,5.521 26.115,3.114 -3.275,-6.307 -5.779,-13.16 -10.051,-18.634 -2.815,-3.606 -7.924,-5.973 -12.474,-7.518 -4.245,-1.44 -5.027,-4.954 -7.024,-7.798 -0.722,-1.027 -0.156,-2.302 0.901,-3.06 1.068,-0.765 1.919,-0.063 2.57,0.702 1.162,1.365 2.619,2.006 4.463,2.055 0.846,-0.796 -0.074,-1.371 -0.455,-1.978 -0.661,-1.054 -1.257,-2.194 0.038,-3.042 1.082,-0.707 2.263,-0.222 3.208,0.587 4.281,3.666 9.05,6.788 12.698,11.163 3.758,4.507 8.144002,8.334 12.785002,11.871 1.231,0.938 2.571,2.649 4.315003,1.582 1.576,-0.964 1.791,-3.261 1.159,-4.547 -1.538,-3.13 0.15,-5.067 1.878,-7.031 5.449,-6.19 10.033,-13.479 19.194,-14.994 3.406,-0.563 2.049,-3.265 1.768,-5.17 -0.351,-2.381 -1.992,-1.52 -3.44,-1.016 -3.901,1.357 -6.634,0.071 -8.756,-3.479 -1.382,-2.313 -2.195,-5.743 -6.474,-4.486 -1.402,0.412 -1.306,-1.634 -1.401,-2.689 -0.493,-5.477 -1.995,-10.706 -3.446,-15.982 -0.946,-3.438 -0.357,-6.693 2.373,-9.659 11.113,-12.075 20.355,-13.536 32.222,-4.896 0.403,0.293 0.746,0.865 1.164,0.915 10.661,1.269 10.416,9.223 9.956,16.828 -0.631,10.43 4.679,18.127 10.719,25.636 2.166,1.694 1.872,4.166 1.875,6.439 0.059,49.466 0.141,98.933 -0.078,148.398 -0.03,6.75 -2.349,13.379 -2.195,20.254 0.06,2.688 -1.772,4.159 -4.458,4.484 -1.826,0.221 -3.657,0.211 -5.488,0.211 -33.644,0.006 -67.287005,0.024 -100.931005,-0.031 -2.912,-0.002 -6.067,0.703 -8.534,-1.721 z"
       id="path9"
       inkscape:connector-curvature="0"
       style="fill:#b0b2b3;fill-rule:evenodd" /><path
       id="path11"
       transform="translate(-8.2558792e-6,0)"
       d="m 278.8125,0 c -4.33122,0.05224558 -8.71209,0.27699999 -13.125,0.625 -34.183,2.696 -65.59,14.002253 -93.5,34.15625 -13.256,9.572 -24.43075,21.11525 -30.34375,36.90625 -1.158,3.089 -0.7485,5.20675 1.4375,7.59375 4.087,4.463 7.87675,9.17525 12.21875,14.28125 -10.886,-0.445 -16.5415,4.892 -15.1875,13.625 0.453,2.921 1.392,5.84325 2.625,8.53125 2.703,5.89 5.80375,11.5845 8.59375,17.4375 1.691,3.546 3.748,7.06475 3.375,11.71875 -2.659,-2.279 -5.468,-3.31025 -7.625,-0.40625 -2.091,2.815 -1.04325,5.7175 1.34375,8.0625 0.573,0.562 1.71475,1.024 1.21875,1.875 -2.529,4.334 1.43425,5.735 3.40625,8.125 1.809,2.192 4.84625,3.30375 4.78125,7.09375 -0.241,13.991 -0.1425,28.006 -0.1875,42 0.059,0.996 0.17525,2.006 0.15625,3 -1.08,57.089 2.366,114.22425 -2,171.28125 -0.267,3.486 -1.52925,4.04825 -4.53125,4.03125 -17.826,-0.099 -35.673,-0.0265 -53.5,-0.0625 -19.987002,-0.041 -39.9505,-0.14475 -59.9375,-0.21875 -2.981,0.178 -5.9925,0.15775 -8.9375,0.59375 -3.52,0.518 -6.26925,2.9295 -5.90625,6.3125 0.323,3.008 3.8075,1.53025 5.8125,1.53125 167.44001,0.077 334.90475,0.0625 502.34375,0.0625 0.667,0 1.32175,0.0797 1.96875,-0.0312 1.349,-0.23 3.243,0.8155 3.875,-1.1875 0.49,-1.557 -0.5345,-2.8505 -1.4375,-4.0625 -2.74,-3.68 -6.93675,-2.5595 -10.59375,-3.1875 -19.325,0.063 -38.64475,0.1565 -57.96875,0.1875 -19.328,0.031 -38.64075,0.0457 -57.96875,-0.0312 -1.743,-0.006 -4.811,1.081 -4.75,-2 0.137,-7.056 -2.005,-13.919 -2.125,-20.75 -0.55,-31.316 -0.24675,-62.64375 -0.21875,-93.96875 0.02,-22.158 0.0992,-44.31175 0.15625,-66.46875 -0.056,-12.327 -0.033,-24.64375 -0.25,-36.96875 -0.046,-2.601 1.59725,-3.7695 2.90625,-5.4375 2.401,-3.064 8.1145,-4.4935 5.3125,-10.3125 -0.098,-0.201 0.812,-0.89075 1.25,-1.34375 2.3,-2.381 3.452,-5.1835 1.375,-8.0625 -2.169,-3.005 -4.9445,-1.70275 -7.4375,0.0312 -0.933,-2.637 0.1215,-4.85825 1.0625,-6.90625 2.289,-4.977 4.86975,-9.82775 7.34375,-14.71875 2.556,-5.053 5.17475,-10.1205 5.96875,-15.8125 1.113,-7.965 -4.61025,-14.405 -12.28125,-14 -1.09,0.057 -2.16425,0.80675 -3.65625,-0.28125 4.295,-5.094 8.353,-10.319 12.875,-15.125 2.349,-2.497 2.459,-4.6285 1.25,-7.5625 -5.357,-12.999 -14.10425,-23.44 -25.15625,-31.75 C 358.71709,12.743971 320.68094,-0.50504059 278.8125,0 z m -58.5625,122.125 118.84375,0 c -0.056,2.019 -1.977,2.0055 -3.125,2.5625 -9.727,4.71 -19.4515,9.42675 -29.3125,13.84375 -2.845,1.274 -3.91125,2.74025 -3.90625,5.90625 0.092,66.47099 0.108,132.93625 0,199.40625 -0.006,3.27 1.248,4.6285 4,5.8125 10.834,4.661 21.58375,9.52325 33.71875,14.90625 l -119.875,0 c 0.996,-1.601 2.90025,-1.85125 4.40625,-2.53125 9.551,-4.307 19.111,-8.5855 28.75,-12.6875 2.518,-1.071 3.40825,-2.43975 3.40625,-5.21875 -0.084,-66.638 -0.092,-133.26926 0,-199.90625 0.004,-2.995 -1.0875,-4.33825 -3.6875,-5.53125 -11.172,-5.126 -22.2085,-10.476 -33.3125,-15.75 0.036,-0.271 0.0577,-0.5425 0.0937,-0.8125 z"
       style="fill:#58585a;fill-rule:evenodd"
       inkscape:connector-curvature="0" /><path
       clip-rule="evenodd"
       d="m 242.14648,476.11355 c -0.113,1.586 -0.194,2.185 -0.193,2.784 0.046,32.326 0.056,64.652 0.207,96.978 0.019,3.972 0.669,7.96 1.264,11.904 1.5,9.945 6.838,16.33 17.077,18.17 3.266,0.587 6.426,1.792 9.699,2.301 2.527,0.394 2.972,1.545 3.186,3.908 0.402,4.448 -0.924,5.798 -5.599,5.733 -20.992,-0.285 -41.99,-0.102 -62.987,-0.166 -1.69,-0.005 -4.532,1.141 -4.189,-2.377 0.264,-2.712 -1.828,-6.478 3.344,-7.251 3.921,-0.586 7.717,-1.972 11.598,-2.873 7.713,-1.791 11.152,-7.211 12.537,-14.462 1.479,-7.739 1.37,-15.593 1.41,-23.4 0.143,-27.495 0.056,-54.99 0.056,-82.485 -0.001,-20.907 -6.963,-29.595 -27.408,-34.204 -4.118,-0.929 -6.112,-4.881 -4.528,-8.713 0.637,-1.541 1.836,-1.171 2.907,-1.173 15.164,-0.024 30.329,0.063 45.492,-0.088 2.85,-0.028 3.667,1.956 4.875,3.592 28.089,38.035 56.138,76.1 84.198,114.156 3.728,5.056 7.476,10.097 11.179,15.096 1.352,-0.522 0.976,-1.481 0.975,-2.207 -0.026,-30.16 0.704,-60.348 -0.373,-90.471 -0.874,-24.445 -4.875,-25.092 -25.837,-30.204 -2.194,-0.535 -4.804,0.023 -4.938,-3.986 -0.156,-4.71 0.945,-6.119 5.916,-6.041 20.657,0.323 41.324,0.12 61.987,0.162 1.91,0.004 4.743,-1.017 4.274,2.782 -0.341,2.765 1.588,6.538 -3.66,6.99 -3.112,0.268 -6.13,1.487 -9.232,2.054 -9.077,1.657 -13.12,7.585 -14.254,16.231 -0.738,5.625 -1.195,11.249 -1.193,16.924 0.021,42.492 0.037,84.985 -0.068,127.478 -0.006,2.052 1.576,5.741 -1.331,6.003 -3.879,0.35 -8.467,2.384 -11.84,-2.285 -9.067,-12.549 -18.387,-24.916 -27.602,-37.358 -24.97,-33.716 -49.937,-67.434 -74.911,-101.146 -0.396,-0.534 -0.868,-1.009 -2.038,-2.356 z"
       id="path13"
       inkscape:connector-curvature="0"
       style="fill:#7e0046;fill-rule:evenodd" /><path
       clip-rule="evenodd"
       d="m 97.810477,617.76755 c -22.996002,0 -45.991002,0.013 -68.987002,-0.021 -2.107,-0.003 -4.967,0.998 -4.598,-3.07 0.267,-2.94 -1.129,-6.436 4.203,-6.324 3.606,0.075 7.265,-0.822 10.85,-1.535 6.606,-1.313 9.821,-5.063 9.948,-11.743 0.139,-7.329 0.039,-14.663 0.039,-21.995 10e-4,-34.826 0.002,-69.653 0,-104.479 0,-10.442 -2.166,-13.357 -12.384,-16.235 -3.192,-0.899 -6.467,-1.581 -9.749,-2.058 -2.297,-0.334 -2.749,-1.35 -2.974,-3.567 -0.468,-4.616 0.73,-6.134 5.794,-6.105 42.157,0.241 84.317005,0.188 126.475005,0.051 3.816,-0.013 5.069,0.81 4.958,4.839 -0.304,10.99 -0.025,21.994 -0.186,32.99 -0.025,1.76 1.571,5.043 -1.765,5.071 -3.065,0.026 -7.221,2.437 -8.927,-3.199 -2.396,-7.916 -7.601,-14.287 -12.759,-20.651 -6.447,-7.956 -15.394,-8.569 -24.445,-8.739 -11.161,-0.21 -22.329005,0.021 -33.492005,-0.104 -2.672,-0.03 -3.791,0.493 -3.773,3.509 0.126,20.995 0.119,41.991 0.005,62.987 -0.015,2.837 0.798,3.694 3.622,3.601 6.991,-0.232 13.996002,-0.02 20.986005,-0.249 11.164,-0.366 17.113,-4.702 20.922,-15.222 1.182,-3.264 1.995,-6.687 2.68,-10.096 0.495,-2.469 1.4,-3.413 4.166,-3.628 4.904,-0.381 6.48,0.915 6.383,6.177 -0.364,19.656 -0.129,39.323 -0.169,58.986 -0.004,2.126 0.931,5.109 -3.09,4.647 -2.921,-0.335 -7.124,1.673 -7.208,-3.917 -0.01,-0.662 -0.141,-1.326 -0.265,-1.98 -3.479,-18.277 -9.752,-23.75 -28.173003,-24.353 -5.493002,-0.18 -10.997002,-0.035 -16.496002,-0.029 -1.638,10e-4 -3.375,-0.336 -3.316,2.338 0.437,19.977 -0.989,39.989 0.849,59.932 0.761,8.249 4.377,12.087 12.636,12.893 15.083005,1.47 30.209005,1.887 45.288005,-0.625 6.301,-1.049 11.009,-4.039 14.613,-9.344 5.827,-8.575 10.406,-17.776 14.549,-27.228 1.354,-3.09 6.979,-5.143 9.735,-3.532 1.224,0.715 0.646,1.68 0.588,2.615 -0.945,15.116 -1.976,30.229 -2.751,45.354 -0.18,3.506 -1.51,4.149 -4.795,4.126 -22.995,-0.164 -45.991,-0.088 -68.987003,-0.088 z"
       id="path15"
       inkscape:connector-curvature="0"
       style="fill:#7e0046;fill-rule:evenodd" /><path
       clip-rule="evenodd"
       d="m 416.53248,587.31255 c 0,-8.986 0.128,-17.976 -0.082,-26.956 -0.059,-2.501 0.685,-2.926 2.963,-3.225 5.19,-0.681 7.843,0.769 9.415,6.312 4.249,14.976 11.355,28.436 24.16,38.09 12.549,9.461 26.657,10.938 41.261,6.727 14.517,-4.186 21.835,-18.841 18.42,-35.308 -2.807,-13.527 -11.074,-22.314 -23.782,-27.312 -12.523,-4.925 -25.365,-9.08 -37.48,-14.998 -13.626,-6.656 -24.675,-15.74 -28.4,-31.426 -7.109,-29.938 11.416,-56.934 41.937,-61.549 16.222,-2.452 31.118,0.899 45.019,9.106 3.443,2.033 5.251,2.127 7.099,-1.757 1.862,-3.911 7.215,-5.569 11.206,-4.249 1.898,0.628 1.349,2.074 1.372,3.267 0.247,12.32 0.426,24.642 0.647,36.963 0.093,5.158 0.134,10.322 0.415,15.472 0.146,2.675 -0.928,3.061 -3.394,3.424 -5.498,0.812 -7.712,-1.298 -9.105,-6.583 -3.495,-13.262 -8.209,-26.027 -18.682,-35.762 -13.144,-12.217 -34.869,-12.935 -46.893,-1.407 -11.23,10.768 -10.192,30.641 2.327,41.923 8.361,7.534 18.939,10.882 29.153,14.839 9.148,3.545 18.24,7.169 26.971,11.704 17.879,9.288 27.603,23.397 27.054,44.019 -0.548,20.596 -10.315,35.61 -28.129,45.062 -22.851,12.125 -45.926,9.399 -68.731,-0.747 -1.063,-0.473 -2.225,-0.843 -3.129,-1.536 -3.31,-2.538 -5.302,-1.779 -7.124,1.953 -2.087,4.274 -7.142,5.901 -11.525,4.583 -2.005,-0.603 -1.298,-2.038 -1.359,-3.196 -0.25,-4.649 -0.464,-9.304 -0.559,-13.959 -0.091,-4.491 -0.02,-8.985 -0.02,-13.478 -0.343,10e-4 -0.684,0.003 -1.025,0.004 z"
       id="path17"
       inkscape:connector-curvature="0"
       style="fill:#7e0046;fill-rule:evenodd" /><path
       id="path19"
       transform="translate(-8.2558792e-6,0)"
       d="M 368.09375,96.71875 C 309.43875,96.93075 250.78,96.874 192.125,96.875 c -1.167,0 -2.334,0.012 -3.5,0 -1.535,-0.016 -2.8685,0.531 -2.5625,2.25 1.846,10.373 -2.93925,20.038 -2.90625,30.25 0.123,38.659 0.0312,77.32525 0.0312,124.65625 1.953,37.724 -3.185,84.274 2.625,130.625 0.583,4.657 1.38025,6.014 6.15625,6 58.488,-0.164 116.98075,-0.0928 175.46875,-0.0937 6.766,0 6.63675,-0.0202 6.84375,-6.65625 0.11,-3.577 -1.61025,-7.85425 0.96875,-10.53125 1.736,-1.804 1.84275,-3.282 1.84375,-5.125 0.029,-81.984 0.011,-163.9535 0,-245.9375 0,-1.158 0.27775,-3.052 -0.28125,-3.375 -4.277,-2.474 -2.1645,-6.4705 -2.5625,-9.8125 -0.235,-1.971 -0.28,-4.00975 0,-5.96875 0.705,-4.924 -0.91825,-6.4565 -6.15625,-6.4375 z M 220.375,122 l 118.84375,0 c -0.056,2.019 -1.977,2.0055 -3.125,2.5625 -9.727,4.71 -19.4515,9.42675 -29.3125,13.84375 -2.845,1.274 -3.91125,2.74025 -3.90625,5.90625 0.092,66.471 0.0768,132.93625 -0.0312,199.40625 -0.006,3.27 1.27925,4.65975 4.03125,5.84375 10.834,4.661 21.58375,9.492 33.71875,14.875 l -119.875,0 c 0.996,-1.601 2.90025,-1.85125 4.40625,-2.53125 9.551,-4.307 19.111,-8.5855 28.75,-12.6875 2.518,-1.071 3.40825,-2.43975 3.40625,-5.21875 -0.084,-66.638 -0.092,-133.26925 0,-199.90625 0.004,-2.995 -1.0875,-4.33825 -3.6875,-5.53125 -11.172,-5.126 -22.23975,-10.476 -33.34375,-15.75 0.036,-0.271 0.089,-0.5425 0.125,-0.8125 z"
       style="fill:#b0b2b3;fill-rule:evenodd"
       inkscape:connector-curvature="0" /><path
       clip-rule="evenodd"
       d="m 279.61848,89.62355 c -37.476,0 -74.951,-0.054 -112.427,0.084 -3.728,0.014 -6.428,-1.037 -8.533,-3.968 -0.679,-0.944 -1.382,-1.871 -2.105,-2.782 -8.46,-10.676 -8.441,-11.891 -0.061,-23.014 10.029,-13.312 23.132,-22.914 37.673,-30.555 23.814,-12.512997 49.153,-19.781997 76.083,-21.767997 27.827,-2.051 54.117,4.07 79.651,14.186997 18.891,7.485 36.088,17.777 49.897,33.08 4.056,4.494 7.18,9.542 9.9,14.912 1.061,2.094 0.87,3.663 -0.65,5.399 -3.611,4.126 -7.181,8.295 -10.613,12.569 -1.784,2.222 -4.1,1.848 -6.39,1.849 -37.474,0.01 -74.95,0.007 -112.425,0.007 z"
       id="path21"
       inkscape:connector-curvature="0"
       style="fill:#9b9c9e;fill-rule:evenodd" /><path
       clip-rule="evenodd"
       d="m 165.16948,271.56755 c 0,-31.663 0.078,-63.327 -0.09,-94.989 -0.023,-4.377 0.854,-6.047 5.672,-6.002 4.54,0.043 5.456,1.425 5.447,5.702 -0.135,63.66 -0.092,127.319 -0.096,190.979 0,4.895 -5.424,7.854 -9.767,5.319 -1.865,-1.089 -1.129,-2.977 -1.134,-4.52 -0.052,-17.998 -0.033,-35.996 -0.033,-53.994 0.001,-14.165 0.001,-28.33 0.001,-42.495 z"
       id="path23"
       inkscape:connector-curvature="0"
       style="fill:#9b9c9e;fill-rule:evenodd" /><path
       clip-rule="evenodd"
       d="m 384.16748,271.25855 c 0,-31.802 0.084,-63.604 -0.1,-95.405 -0.024,-4.314 1.38,-5.301 5.398,-5.211 3.722,0.082 5.612,0.424 5.601,5.025 -0.154,64.104 -0.155,128.207 10e-4,192.311 0.012,4.68 -2.023,4.857 -5.667,4.988 -4.137,0.147 -5.348,-1.11 -5.326,-5.304 0.17,-32.133 0.093,-64.269 0.093,-96.404 z"
       id="path25"
       inkscape:connector-curvature="0"
       style="fill:#9b9c9e;fill-rule:evenodd" /><path
       clip-rule="evenodd"
       d="m 394.10348,141.23955 c 0,6.643 -0.157,13.289 0.062,19.924 0.122,3.701 -2.107,3.463 -4.512,3.392 -2.257,-0.066 -4.735,0.591 -4.7,-3.229 0.126,-13.449 0.113,-26.9 0.011,-40.35 -0.03,-3.887 2.603,-2.981 4.779,-3.111 2.481,-0.148 4.555,-0.181 4.427,3.452 -0.234,6.633 -0.067,13.28 -0.067,19.922 z"
       id="path27"
       inkscape:connector-curvature="0"
       style="fill:#b0b2b3;fill-rule:evenodd" /><path
       clip-rule="evenodd"
       d="m 175.21148,141.24255 c 0.001,6.476 -0.186,12.959 0.073,19.424 0.147,3.681 -1.695,4.002 -4.57,3.938 -2.683,-0.06 -4.75,0.085 -4.688,-3.779 0.208,-13.114 0.181,-26.235 0.011,-39.351 -0.044,-3.425 1.605,-3.798 4.276,-3.634 2.412,0.148 5.097,-0.655 4.957,3.479 -0.223,6.634 -0.06,13.281 -0.059,19.923 z"
       id="path29"
       inkscape:connector-curvature="0"
       style="fill:#b0b2b3;fill-rule:evenodd" /><path
       clip-rule="evenodd"
       d="m 389.20248,111.65955 c -0.331,0 -0.661,0 -0.991,0 -7.01,-0.002 -9.173,-3.069 -7.239,-9.978 0.501,-1.79 1.659,-1.786 2.996,-1.794 2.479,-0.015 4.958,-0.033 7.438,-0.005 7.504,0.088 6.721,-0.949 6.672,6.491 -0.042,6.301 1.116,5.173 -8.876,5.286 z"
       id="path31"
       inkscape:connector-curvature="0"
       style="fill:#c4c5c7;fill-rule:evenodd" /><path
       clip-rule="evenodd"
       d="m 170.69748,99.87855 c 0.33,0 0.661,0 0.991,0 7.65,10e-4 9.17,2.022 7.576,9.666 -0.36,1.729 -1.241,2.109 -2.711,2.105 -3.801,-0.01 -7.606,-0.098 -11.402,0.041 -2.44,0.088 -2.986,-0.984 -3.104,-3.237 -0.443,-8.579 -0.525,-8.575 8.65,-8.575 z"
       id="path33"
       inkscape:connector-curvature="0"
       style="fill:#c4c5c7;fill-rule:evenodd" /><path
       clip-rule="evenodd"
       d="m 170.88048,379.66555 c 0.498,-0.005 0.995,-0.005 1.492,-0.005 6.525,0.003 8.729,3.141 6.801,9.462 -0.444,1.457 -1.336,1.721 -2.56,1.729 -2.485,0.019 -4.972,0.023 -7.457,0.024 -7.035,0.001 -8.636,-2.185 -7.062,-9.214 0.401,-1.791 1.411,-1.994 2.82,-1.993 1.99,0.002 3.978,0.002 5.966,-0.003 z"
       id="path35"
       inkscape:connector-curvature="0"
       style="fill:#b0b2b3;fill-rule:evenodd" /><path
       clip-rule="evenodd"
       d="m 389.34448,390.87255 c -0.497,0.005 -0.995,0.005 -1.492,0.005 -6.552,-0.003 -8.717,-3.089 -6.822,-9.449 0.531,-1.785 1.737,-1.731 3.05,-1.751 2.319,-0.033 4.64,-0.016 6.96,-0.016 7.061,0 8.638,2.146 7.075,9.201 -0.395,1.785 -1.39,2.009 -2.805,2.007 -1.989,-0.004 -3.977,-10e-4 -5.966,0.003 z"
       id="path37"
       inkscape:connector-curvature="0"
       style="fill:#b0b2b3;fill-rule:evenodd" /><path
       id="path39"
       transform="translate(-8.2558792e-6,0)"
       d="m 208.28125,114.5625 c -4.509,-0.016 -5.47575,1.315 -5.46875,5.625 0.125,82.131 0.10975,164.27525 -0.0312,246.40625 -0.008,4.526 1.36225,5.48275 5.65625,5.46875 47.979,-0.145 95.9585,-0.15375 143.9375,0.0312 4.764,0.018 5.73575,-1.47325 5.71875,-5.90625 C 357.93675,325.2065 358,284.20075 358,243.21875 c 0,-40.981 -0.0453,-81.9545 0.0937,-122.9375 0.015,-4.127 -0.677,-5.73675 -5.375,-5.71875 -48.145,0.191 -96.2925,0.171 -144.4375,0 z m 12.125,7.46875 118.84375,0 c -0.056,2.019 -1.977,2.0055 -3.125,2.5625 -9.727,4.71 -19.4515,9.42675 -29.3125,13.84375 -2.845,1.274 -3.91125,2.74025 -3.90625,5.90625 0.092,66.471 0.0768,132.93625 -0.0312,199.40625 -0.006,3.27 1.27925,4.65975 4.03125,5.84375 10.834,4.661 21.58375,9.52325 33.71875,14.90625 l -119.875,0 c 0.996,-1.601 2.90025,-1.85125 4.40625,-2.53125 9.551,-4.307 19.111,-8.61675 28.75,-12.71875 2.518,-1.071 3.40825,-2.4085 3.40625,-5.1875 -0.084,-66.638 -0.092,-133.3005 0,-199.9375 0.004,-2.995 -1.0875,-4.33825 -3.6875,-5.53125 -11.172,-5.126 -22.23975,-10.476 -33.34375,-15.75 0.036,-0.271 0.089,-0.5425 0.125,-0.8125 z"
       style="fill:#58585a;fill-rule:evenodd"
       inkscape:connector-curvature="0" /><path
       clip-rule="evenodd"
       d="m 280.64048,79.83455 c -36.817,0 -73.636,-0.074 -110.453,0.096 -4.492,0.021 -5.319,-1.062 -4.16,-5.313 3.646,-13.36 12.649,-22.466 23.508,-29.983 21.067,-14.586 44.728,-22.453 69.935,-25.923 43.303,-5.960997 81.85,6.345 116.804,31.301 8.562,6.113 15.593,13.995 18.859,24.548 1.253,4.049 0.612,5.399 -4.038,5.376 -36.818,-0.183 -73.636,-0.102 -110.455,-0.102 z"
       id="path41"
       inkscape:connector-curvature="0"
       style="fill:#58585a;fill-rule:evenodd" /><path
       clip-rule="evenodd"
       d="m 350.10548,203.56155 c 0,3.115 0,5.728 0,8.34 0,23.966 -0.057,47.932 0.062,71.896 0.018,3.523 -0.466,4.711 -4.356,3.425 -10.718,-3.543 -21.544,-6.767 -32.386,-9.912 -2.815,-0.816 -4.041,-1.93 -4.012,-5.095 0.161,-17.474 0.087,-34.949 0.064,-52.424 -0.003,-2.049 -0.109,-3.896 2.501,-4.674 12.545,-3.735 25.058,-7.582 38.127,-11.556 z"
       id="path45"
       inkscape:connector-curvature="0"
       style="fill:#fefefe;fill-rule:evenodd" /><path
       clip-rule="evenodd"
       d="m 210.24448,245.62255 c 0,-12.667 0.112,-25.335 -0.072,-37.998 -0.052,-3.599 0.823,-4.148 4.195,-3.051 10.747,3.497 21.555,6.824 32.433,9.885 3.263,0.918 4.011,2.485 3.985,5.611 -0.135,17.166 -0.138,34.333 0.006,51.498 0.025,2.983 -0.83,4.393 -3.754,5.244 -10.693,3.117 -21.354,6.364 -31.938,9.838 -3.768,1.237 -5.062,0.921 -4.958,-3.531 0.292,-12.493 0.103,-24.997 0.103,-37.496 z"
       id="path47"
       inkscape:connector-curvature="0"
       style="fill:#fefefe;fill-rule:evenodd" /><path
       clip-rule="evenodd"
       d="m 350.10548,125.73955 c 0,8.011 0,15.271 0,22.531 0,14.973 -0.086,29.946 0.071,44.917 0.032,3.025 -0.86,4.315 -3.823,5.166 -11,3.156 -21.929,6.567 -32.832,10.045 -3.061,0.977 -4.107,0.444 -4.087,-2.955 0.117,-19.13 0.051,-38.262 0.066,-57.394 0.001,-1.607 -0.356,-3.322 1.677,-4.259 12.772,-5.884 25.518,-11.825 38.928,-18.051 z"
       id="path49"
       inkscape:connector-curvature="0"
       style="fill:#fefefe;fill-rule:evenodd" /><path
       clip-rule="evenodd"
       d="m 210.24448,161.29555 c 0,-10.493 0.054,-20.986 -0.037,-31.479 -0.023,-2.745 0.107,-4.109 3.447,-2.503 11.381,5.472 22.851,10.765 34.365,15.949 2.265,1.02 2.74,2.412 2.733,4.624 -0.056,19.153 -0.091,38.307 0.021,57.46 0.02,3.444 -0.998,3.841 -4.093,2.838 -10.91,-3.533 -21.873,-6.918 -32.894,-10.087 -2.791,-0.803 -3.645,-2.013 -3.604,-4.826 0.152,-10.656 0.062,-21.316 0.062,-31.976 z"
       id="path51"
       inkscape:connector-curvature="0"
       style="fill:#fefefe;fill-rule:evenodd" /><path
       clip-rule="evenodd"
       d="m 210.24748,359.99855 c 0,-21.536 0.021,-42.32 -0.032,-63.104 -0.005,-2.111 1.006,-2.795 2.84,-3.348 11.453,-3.449 22.882,-6.984 34.294,-10.569 2.865,-0.899 3.413,0.306 3.404,2.871 -0.062,17.82 -0.033,35.641 -0.035,53.461 0,1.507 0.048,2.907 -1.768,3.697 -12.749,5.545 -25.465,11.168 -38.703,16.992 z"
       id="path53"
       inkscape:connector-curvature="0"
       style="fill:#fefefe;fill-rule:evenodd" /><path
       clip-rule="evenodd"
       d="m 350.10548,360.01355 c -13.178,-5.757 -25.611,-11.227 -38.087,-16.597 -2.021,-0.87 -2.566,-2.174 -2.56,-4.241 0.058,-17.806 0.059,-35.612 0.002,-53.418 -0.009,-2.446 0.491,-3.243 3.144,-2.405 11.554,3.648 23.157,7.141 34.771,10.592 2.105,0.626 2.788,1.674 2.779,3.879 -0.084,20.463 -0.049,40.925 -0.049,62.19 z"
       id="path55"
       inkscape:connector-curvature="0"
       style="fill:#fefefe;fill-rule:evenodd" /><path
       clip-rule="evenodd"
       d="m 181.58648,72.63555 c 3.291,-9.9 9.899,-16.863 17.535,-22.815 21.87,-17.051 46.812,-26.666 74.445,-28.034 36.687,-1.816 68.401,10.815 95.47,35.39 3.839,3.485 6.789,7.742 9.13,12.404 1.104,2.199 0.99,3.488 -1.902,3.298 -0.663,-0.043 -1.332,-0.002 -1.998,-0.002 -62.796,0 -125.593,0.001 -188.389,-0.009 -1.292,0 -2.584,-0.136 -4.291,-0.232 z"
       id="path57"
       inkscape:connector-curvature="0"
       style="fill:#b0b2b3;fill-rule:evenodd" /><path
       clip-rule="evenodd"
       d="m 292.67448,51.58655 c -4.472,1.978 -8.242,3.487 -11.583,-0.472 -2.679,-3.175 -2.851,-9.336 -0.455,-13.7 2.128,-3.874 5.453,-5.217 9.636,-4.654 4.342,0.585 6.545,3.662 7.998,7.394 4.302,11.041 -4.695,24.358 -17.814,24.893 6.074,-3.102 11.141,-6.108 12.218,-13.461 z"
       id="path59"
       inkscape:connector-curvature="0"
       style="fill:#59595b;fill-rule:evenodd" /><path
       clip-rule="evenodd"
       d="m 314.32048,64.98955 c 0.69,-7.885 0.69,-7.885 -6.746,-8.116 -5.253,-0.163 -5.732,-0.874 -2.728,-5.257 3.474,-5.067 7.25,-9.929 10.971,-14.823 0.637,-0.839 1.336,-2.23 2.743,-1.529 1.033,0.515 0.617,1.771 0.627,2.71 0.042,3.994 -0.039,7.991 0.055,11.983 0.03,1.3 -0.62,3.367 1.987,2.995 0.878,-0.126 2.005,-1.155 1.992,0.71 -0.008,1.124 -0.173,3.127 -0.621,3.232 -4.554,1.071 -3.363,4.604 -3.376,7.522 -0.012,2.804 -2.192,2.742 -3.813,2.803 -1.801,0.068 -0.954,-1.638 -1.091,-2.23 z"
       id="path61"
       inkscape:connector-curvature="0"
       style="fill:#59595b;fill-rule:evenodd" /><path
       clip-rule="evenodd"
       d="m 256.54848,42.18855 c -0.535,-8.028 -0.263,-8.314 7.487,-8.53 10.396,-0.288 10.585,0.002 6.73,9.909 -2.582,6.636 -5.56,13.177 -4.703,20.613 0.276,2.396 -1.436,2.615 -3.227,2.67 -1.917,0.059 -2.674,-0.963 -2.712,-2.746 -0.106,-4.874 2.127,-8.944 4.39,-13.028 1.767,-3.188 3.495,-6.402 5.075,-9.685 1.005,-2.086 0.587,-3.672 -2.188,-3.446 -3.959,0.323 -8.606,-1.099 -10.852,4.243 z"
       id="path63"
       inkscape:connector-curvature="0"
       style="fill:#59595b;fill-rule:evenodd" /><path
       clip-rule="evenodd"
       d="m 238.18448,64.46955 c 2.781,-1.347 3.188,-3.696 3.069,-6.566 -0.187,-4.473 -0.03,-8.958 -0.058,-13.438 -0.015,-2.525 0.745,-5.71 -3.847,-5.026 2.667,-1.461 5.333,-2.921 8.132,-4.455 2.862,9.588 -2.965,20.433 3.72,29.485 -3.054,0 -7.035,0 -11.016,0 z"
       id="path65"
       inkscape:connector-curvature="0"
       style="fill:#59595b;fill-rule:evenodd" /><path
       clip-rule="evenodd"
       d="m 294.20448,44.13855 c 0.022,3.147 -1.104,5.844 -4.385,6.327 -3.153,0.464 -4.649,-2.048 -5.597,-4.703 -1.293,-3.624 -1.529,-7.211 1.125,-10.352 1.052,-1.244 2.641,-1.442 4.103,-0.563 3.488,2.099 4.779,5.366 4.754,9.291 z"
       id="path67"
       inkscape:connector-curvature="0"
       style="fill:#afb1b2;fill-rule:evenodd" /><path
       clip-rule="evenodd"
       d="m 313.92948,42.48255 c 1.28,11.031 1.28,11.031 -6.634,9.869 1.384,-3.783 3.822,-6.676 6.634,-9.869 z"
       id="path69"
       inkscape:connector-curvature="0"
       style="fill:#aeb0b1;fill-rule:evenodd" /></g></svg>