<?xml version="1.0" encoding="UTF-8" standalone="no"?>
<!-- Generator: Adobe Illustrator 15.0.2, SVG Export Plug-In . SVG Version: 6.00 Build 0)  -->

<svg
   xmlns:dc="http://purl.org/dc/elements/1.1/"
   xmlns:cc="http://creativecommons.org/ns#"
   xmlns:rdf="http://www.w3.org/1999/02/22-rdf-syntax-ns#"
   xmlns:svg="http://www.w3.org/2000/svg"
   xmlns="http://www.w3.org/2000/svg"
   xmlns:xlink="http://www.w3.org/1999/xlink"
   xmlns:sodipodi="http://sodipodi.sourceforge.net/DTD/sodipodi-0.dtd"
   xmlns:inkscape="http://www.inkscape.org/namespaces/inkscape"
   version="1.0"
   id="Layer_1"
   x="0px"
   y="0px"
   width="100"
   height="98.422806"
   viewBox="0 0 99.999996 98.422797"
   enable-background="new 0 0 2481 2073"
   xml:space="preserve"
   inkscape:version="0.48.4 r9939"
   sodipodi:docname="logo.college.marker.svg"><metadata
     id="metadata15"><rdf:RDF><cc:Work
         rdf:about=""><dc:format>image/svg+xml</dc:format><dc:type
           rdf:resource="http://purl.org/dc/dcmitype/StillImage" /><dc:title></dc:title></cc:Work></rdf:RDF></metadata><defs
     id="defs13"><linearGradient
       id="SVGID_1_"
       gradientUnits="userSpaceOnUse"
       x1="263.8389"
       y1="-344.77591"
       x2="331.28519"
       y2="-344.77591"
       gradientTransform="matrix(1,0,0,-1,-247.5,-270)"><stop
         offset="0.0023"
         style="stop-color:#217939"
         id="stop60" /><stop
         offset="1"
         style="stop-color:#8DC63F"
         id="stop62" /></linearGradient><linearGradient
       inkscape:collect="always"
       xlink:href="#SVGID_1_"
       id="linearGradient4139"
       gradientUnits="userSpaceOnUse"
       gradientTransform="matrix(1,0,0,-1,-247.5,-270)"
       x1="263.8389"
       y1="-344.77591"
       x2="331.28519"
       y2="-344.77591" /></defs><sodipodi:namedview
     pagecolor="#ffffff"
     bordercolor="#666666"
     borderopacity="1"
     objecttolerance="10"
     gridtolerance="10"
     guidetolerance="10"
     inkscape:pageopacity="0"
     inkscape:pageshadow="2"
     inkscape:window-width="1002"
     inkscape:window-height="902"
     id="namedview11"
     showgrid="false"
     fit-margin-top="0"
     fit-margin-left="0"
     fit-margin-right="0"
     fit-margin-bottom="0"
     inkscape:zoom="1.8215147"
     inkscape:cx="16.505208"
     inkscape:cy="111.86864"
     inkscape:window-x="163"
     inkscape:window-y="120"
     inkscape:window-maximized="0"
     inkscape:current-layer="Layer_1" /><path
     style="opacity:0.36213995;fill:#000000;fill-opacity:0.57534246;fill-rule:evenodd;stroke:none"
     inkscape:connector-curvature="0"
     id="path7"
     d="m 30.209036,98.422796 c 5.626411,-5.553785 9.034218,-10.843153 11.506341,-16.105002 1.833744,-3.903077 1.567241,-6.021578 4.572524,-11.674019 6.681738,-11.369765 9.706537,-13.496243 21.51007,-17.373402 6.864565,-1.582623 14.718733,-1.713817 21.487151,0.716469 5.534065,1.987211 8.750351,5.213924 9.994611,8.218802 1.016807,2.455504 0.916107,4.971064 -0.04462,7.494512 -1.002761,2.63388 -2.974216,5.333232 -6.887658,8.151162 -2.005011,1.443608 -4.228229,2.588461 -6.259488,3.440189 -2.055894,0.862004 -4.129904,1.39643 -6.213154,2.036432 -4.066587,1.249335 -8.226449,2.166641 -12.393591,3.082183 -12.412046,2.726586 -24.678961,5.712499 -37.272126,12.012674 z"
     clip-rule="evenodd"
     sodipodi:nodetypes="cscccssccsccc" /><path
     style="fill:#f5f5f5;fill-opacity:0.78431374;stroke:#e86c52;stroke-width:2.93298769000000004;stroke-linecap:round;stroke-linejoin:miter;stroke-miterlimit:10;stroke-opacity:1;stroke-dasharray:none"
     inkscape:connector-curvature="0"
     id="path5"
     d="M 30.134416,91.679377 C 28.016291,81.541793 24.281731,73.10552 19.758352,65.286719 16.403154,59.486935 12.516319,54.133673 8.9199986,48.509538 7.719467,46.63206 6.6834123,44.648623 5.5298244,42.700104 3.2231948,38.804023 1.3530149,34.286734 1.4718619,28.427076 1.5879664,22.70181 3.2863003,18.10919 5.7353248,14.354231 9.7632348,8.1781947 16.510136,3.1145772 25.562847,1.7838334 c 7.401689,-1.08800819 14.341307,0.7501202 19.262511,3.5558198 4.021402,2.2926179 7.135594,5.3551178 9.502761,8.9644128 2.470769,3.767167 4.172163,8.217672 4.314883,14.022741 0.07305,2.974145 -0.426462,5.728351 -1.130155,8.012944 -0.712153,2.312443 -1.857497,4.245431 -2.876506,6.310253 -1.989168,4.030474 -4.48305,7.723246 -6.985838,11.418397 -7.45475,11.006267 -14.451733,22.230688 -17.516087,37.610976 z"
     stroke-miterlimit="10"
     clip-rule="evenodd" /><g
     transform="matrix(0.53609477,0,0,0.53609477,3.2533845,3.1210722)"
     id="g3"><path
       style="fill:#b9b7b8;fill-rule:evenodd"
       inkscape:connector-curvature="0"
       clip-rule="evenodd"
       d="m 51.043,51.604 c -2.075,1.062 -4.084,2.368 -6.347,3.059 -8.153,2.49 -15.555,1.082 -22.101,-4.353 -4.839,-4.02 -7.339,-9.289 -7.719,-15.562 -0.398,-6.581 1.856,-12.228 6.413,-16.856 3.694,-3.753 8.279,-5.896 13.589,-6.48 4.806,-0.53 9.29,0.343 13.527,2.614 0.169,0.091 0.557,0.236 0.708,0.361 0.073,0.324 -0.368,0.548 -0.584,0.727 -1.699,1.398 -3.203,2.98 -4.52,4.74 -0.071,0.095 -0.186,0.131 -0.296,0.181 -0.121,0.032 -0.242,0.059 -0.367,0.045 -3.843,-0.995 -7.732,-1.644 -11.718,-1.574 -1.572,0.026 -3.143,0.012 -4.696,0.351 -3.503,0.766 -5.101,2.677 -5.165,6.286 -0.094,5.201 1.043,10.168 2.859,15.008 1.157,3.081 2.707,5.94 4.614,8.62 2.627,3.688 5.7,4.354 9.624,2.072 2.103,-1.222 4.033,-2.675 5.896,-4.228 0.103,-0.067 0.094,-0.1 0.217,-0.102 0.938,1.102 1.83,2.032 2.923,2.894 0.91,0.718 1.938,1.244 2.888,1.9 0.081,0.097 0.318,0.19 0.255,0.297 z"
       id="path5-5" /><path
       style="fill:#fe8400;fill-rule:evenodd"
       inkscape:connector-curvature="0"
       clip-rule="evenodd"
       d="m 51.043,51.604 c 0,-0.063 -0.011,-0.124 -0.032,-0.184 1.187,-1.449 2.618,-2.64 4.045,-3.836 0.582,-0.19 0.645,-0.107 1.79,-0.252 4.547,-0.183 8.963,-1.051 13.255,-2.55 2.979,-1.041 5.869,-2.277 8.427,-4.174 2.929,-2.173 3.519,-4.483 2.01,-7.828 -0.917,-2.032 -2.093,-3.914 -3.419,-5.696 -3.957,-5.319 -8.764,-9.663 -14.707,-12.686 -0.688,-0.351 -1.407,-0.599 -2.155,-0.782 -1.833,-0.452 -3.417,-0.024 -4.811,1.248 -0.747,0.683 -1.314,1.527 -2.072,2.195 -0.109,0.061 -0.227,0.094 -0.352,0.103 -1.464,-0.672 -2.991,-1.469 -3.907,-2.849 4.176,-3.124 9.129,-4.431 14.263,-4.292 9.828,0.269 18.358,6.989 21.024,16.448 3.592,12.739 -5.296,26.159 -18.401,27.893 -5.314,0.704 -10.27,-0.221 -14.958,-2.758 z"
       id="path7-1" /><path
       style="fill:#fe8500;fill-rule:evenodd"
       inkscape:connector-curvature="0"
       clip-rule="evenodd"
       d="m 13.253,72.577 c 0.011,-6.833 4.327,-10.797 11.224,-10.384 1.538,0.093 3.04,0.283 4.509,0.786 0.784,0.269 1.119,0.689 1.026,1.507 -0.095,0.836 0.369,1.944 -0.201,2.45 -0.625,0.555 -1.367,-0.473 -2.114,-0.666 -1.457,-0.38 -2.905,-0.656 -4.418,-0.41 -2.603,0.422 -4.202,1.915 -4.776,4.477 -0.367,1.639 -0.357,3.295 0.127,4.908 0.992,3.301 4.499,4.856 8.303,3.696 0.652,-0.199 1.285,-0.478 1.898,-0.78 0.781,-0.384 1.163,-0.333 1.191,0.687 0.081,2.889 -0.08,3.16 -2.935,3.723 -2.446,0.481 -4.898,0.437 -7.316,-0.188 -3.838,-0.991 -6.245,-4.098 -6.513,-8.352 -0.031,-0.483 -0.005,-0.969 -0.005,-1.454 z"
       id="path9" /><path
       style="fill:#fe8500;fill-rule:evenodd"
       inkscape:connector-curvature="0"
       clip-rule="evenodd"
       d="m 46.976,74.936 c 0,2.14 -0.065,4.281 0.026,6.417 0.047,1.114 -0.347,1.438 -1.382,1.316 -0.597,-0.07 -1.209,-0.011 -1.814,-0.014 -0.202,-0.002 -0.517,0.06 -0.586,-0.042 -0.841,-1.223 -1.746,-0.281 -2.591,-0.066 -1.396,0.355 -2.78,0.444 -4.185,0.122 -1.977,-0.453 -3.388,-1.989 -3.57,-4.081 -0.305,-3.501 -0.076,-7.017 -0.131,-10.525 -0.01,-0.601 0.244,-0.876 0.875,-0.854 0.886,0.035 1.779,0.062 2.662,-0.004 0.866,-0.064 1.123,0.282 1.11,1.108 -0.04,2.501 -0.014,5.005 -0.029,7.506 -0.005,0.772 0.024,1.535 0.329,2.254 0.467,1.099 1.607,1.658 2.898,1.443 1.184,-0.196 1.799,-0.844 1.822,-2.182 0.05,-2.945 0.061,-5.893 0.006,-8.838 -0.019,-0.994 0.259,-1.315 1.282,-1.302 3.277,0.042 3.278,10e-4 3.278,3.261 0,1.495 0,2.988 0,4.481 z"
       id="path11" /><path
       style="fill:#fe8501;fill-rule:evenodd"
       inkscape:connector-curvature="0"
       clip-rule="evenodd"
       d="m 51.407,74.897 c 0,-2.22 0.025,-4.439 -0.015,-6.658 -0.014,-0.793 0.251,-1.092 1.048,-1.032 0.763,0.057 1.533,0.005 2.299,0.016 0.236,0.005 0.646,0.004 0.681,0.104 0.44,1.318 1.208,0.423 1.851,0.296 0.354,-0.07 0.695,-0.198 1.049,-0.268 2.856,-0.561 3.574,0.146 3.127,3.03 -0.091,0.59 -0.349,0.751 -0.904,0.596 -0.895,-0.25 -1.802,-0.359 -2.74,-0.29 -1.104,0.081 -1.734,0.614 -1.771,1.732 -0.05,1.529 -0.068,3.062 -0.081,4.594 -0.014,1.572 -0.026,3.147 0.006,4.719 0.014,0.664 -0.192,0.964 -0.896,0.931 -0.886,-0.042 -1.778,-0.048 -2.662,0.002 -0.755,0.041 -0.993,-0.287 -0.987,-0.992 0.02,-2.26 0.008,-4.52 0.008,-6.778 -0.004,-0.002 -0.008,-0.002 -0.013,-0.002 z"
       id="path13" /><path
       style="fill:#fe8500;fill-rule:evenodd"
       inkscape:connector-curvature="0"
       clip-rule="evenodd"
       d="m 63.948,74.935 c 0,-2.177 0.03,-4.353 -0.015,-6.527 -0.018,-0.866 0.218,-1.278 1.154,-1.201 0.801,0.064 1.616,0.067 2.416,-10e-4 0.885,-0.072 1.071,0.311 1.065,1.12 -0.032,4.392 -0.038,8.784 0.003,13.177 0.009,0.911 -0.288,1.169 -1.177,1.174 -3.447,0.018 -3.447,0.046 -3.447,-3.389 10e-4,-1.452 10e-4,-2.902 10e-4,-4.353 z"
       id="path15" /><path
       style="fill:#c85001;fill-rule:evenodd"
       inkscape:connector-curvature="0"
       clip-rule="evenodd"
       d="m 49.115,14.314 c 1.229,0.936 2.647,1.832 3.875,2.768 0.235,0.268 0.122,0.547 -0.021,0.784 -0.89,1.486 -1.631,3.059 -2.586,4.509 -0.113,0.057 -0.251,-0.034 -0.376,-0.048 -1.863,-0.68 -3.631,-1.453 -5.559,-1.961 -0.271,-0.071 -0.716,-0.05 -0.836,-0.333 1.058,-1.937 2.893,-3.513 4.501,-4.956 0.265,-0.235 0.526,-0.479 0.789,-0.718 0.135,-0.028 0.079,-0.015 0.213,-0.045 z"
       id="path17" /><path
       style="fill:#fe8502;fill-rule:evenodd"
       inkscape:connector-curvature="0"
       clip-rule="evenodd"
       d="m 66.28,65.241 c -1.668,0.003 -2.591,-0.716 -2.597,-2.023 -0.005,-1.244 1,-2.036 2.616,-2.061 1.571,-0.023 2.592,0.792 2.589,2.07 -0.003,1.285 -0.943,2.01 -2.608,2.014 z"
       id="path19" /><path
       style="fill:#fe8500;fill-rule:evenodd"
       inkscape:connector-curvature="0"
       clip-rule="evenodd"
       d="m 45.042,46.599 c -3.742,-4.659 -5.53,-9.95 -5.131,-15.938 0.26,-3.907 1.518,-7.292 3.601,-10.575 0.072,-0.003 0.197,-0.086 0.3,-0.036 1.807,0.433 3.516,0.973 5.233,1.659 0.402,0.16 0.978,0.358 1.339,0.667 -0.119,0.755 -0.331,1.272 -0.559,1.844 -1.742,4.374 -2.68,8.925 -3.01,13.605 -0.151,2.144 0.097,4.255 0.766,6.305 0.024,0.127 0.024,0.254 0.003,0.381 -0.617,0.887 -1.185,1.831 -2.349,2.113 -0.063,-0.018 -0.127,-0.026 -0.193,-0.025 z"
       id="path21" /><path
       style="fill:#c85001;fill-rule:evenodd"
       inkscape:connector-curvature="0"
       clip-rule="evenodd"
       d="m 44.978,46.513 c 0.733,-0.66 1.866,-1.788 2.599,-2.447 0.112,0.198 0.307,0.515 0.483,0.718 1.427,1.639 3.08,2.317 5.124,2.479 0.493,0.039 0.748,-0.01 2.062,0.202 -1.088,1.451 -2.747,3.08 -4.203,4.14 -2.29,-1.162 -4.524,-3.032 -6.065,-5.092 z"
       id="path23" /><path
       style="fill:#b9b7b8;fill-rule:evenodd"
       inkscape:connector-curvature="0"
       clip-rule="evenodd"
       d="m 55.154,47.526 c -0.991,-0.136 -2.071,-0.296 -3.061,-0.435 -1.886,-0.267 -3.314,-1.123 -4.405,-2.718 -0.005,-0.077 -0.125,-0.231 -0.112,-0.309 0.517,-0.651 0.601,-0.698 1.035,-1.167 2.707,-2.919 5.051,-6.105 6.726,-9.722 2.142,-4.625 1.427,-7.029 -3.369,-9.706 -0.578,-0.322 -1.339,-0.415 -1.618,-1.16 0.609,-1.881 1.859,-3.343 2.668,-5.12 0.061,-0.033 0.06,-0.047 0.129,-0.038 0.501,1.032 1.466,1.613 2.16,2.491 2.667,3.37 4.274,7.166 4.728,11.441 0.641,6.049 -1.013,11.445 -4.789,16.38"
       id="path25" /><path
       style="fill:#fe8500;fill-rule:evenodd"
       inkscape:connector-curvature="0"
       clip-rule="evenodd"
       d="m 81.008,67.079 c -4.526,-0.855 -8.132,1.273 -9,5.379 -0.397,1.875 -0.406,3.781 0.155,5.635 0.767,2.531 2.425,4.139 5.081,4.599 2.057,0.357 4.103,0.214 6.128,-0.244 2.338,-0.527 2.407,-0.667 2.369,-3.075 -0.016,-0.927 -0.247,-1.2 -1.124,-0.684 -1.426,0.84 -2.986,1.204 -4.643,1.082 -2.041,-0.15 -3.224,-1.184 -3.579,-2.987 -0.137,-0.696 -0.004,-0.949 0.738,-0.928 1.413,0.042 2.828,0.012 4.242,0.012 1.414,0 2.828,-0.002 4.243,0.003 0.515,0.001 0.935,-0.035 1.046,-0.709 0.622,-3.732 -1.914,-7.376 -5.656,-8.083 z m 0.378,5.927 c -0.762,-0.032 -1.527,-0.007 -2.292,-0.007 -0.483,0 -0.965,0 -1.448,0 -1.431,-0.003 -1.655,-0.347 -1.102,-1.686 0.472,-1.142 1.877,-1.745 3.38,-1.455 1.198,0.233 2.076,1.268 2.131,2.443 0.025,0.518 -0.136,0.727 -0.669,0.705 z"
       id="path27" /></g></svg>