<?xml version="1.0" encoding="UTF-8" standalone="no"?>
<!-- Generator: Adobe Illustrator 15.0.2, SVG Export Plug-In . SVG Version: 6.00 Build 0)  -->

<svg
   xmlns:dc="http://purl.org/dc/elements/1.1/"
   xmlns:cc="http://creativecommons.org/ns#"
   xmlns:rdf="http://www.w3.org/1999/02/22-rdf-syntax-ns#"
   xmlns:svg="http://www.w3.org/2000/svg"
   xmlns="http://www.w3.org/2000/svg"
   xmlns:xlink="http://www.w3.org/1999/xlink"
   xmlns:sodipodi="http://sodipodi.sourceforge.net/DTD/sodipodi-0.dtd"
   xmlns:inkscape="http://www.inkscape.org/namespaces/inkscape"
   version="1.0"
   id="Layer_1"
   x="0px"
   y="0px"
   width="100"
   height="98.422806"
   viewBox="0 0 99.999996 98.422797"
   enable-background="new 0 0 2481 2073"
   xml:space="preserve"
   inkscape:version="0.48.4 r9939"
   sodipodi:docname="logo.icm.marker.svg"><metadata
     id="metadata15"><rdf:RDF><cc:Work
         rdf:about=""><dc:format>image/svg+xml</dc:format><dc:type
           rdf:resource="http://purl.org/dc/dcmitype/StillImage" /><dc:title></dc:title></cc:Work></rdf:RDF></metadata><defs
     id="defs13"><linearGradient
       id="SVGID_1_"
       gradientUnits="userSpaceOnUse"
       x1="263.8389"
       y1="-344.77591"
       x2="331.28519"
       y2="-344.77591"
       gradientTransform="matrix(1,0,0,-1,-247.5,-270)"><stop
         offset="0.0023"
         style="stop-color:#217939"
         id="stop60" /><stop
         offset="1"
         style="stop-color:#8DC63F"
         id="stop62" /></linearGradient><linearGradient
       inkscape:collect="always"
       xlink:href="#SVGID_1_"
       id="linearGradient4139"
       gradientUnits="userSpaceOnUse"
       gradientTransform="matrix(1,0,0,-1,-247.5,-270)"
       x1="263.8389"
       y1="-344.77591"
       x2="331.28519"
       y2="-344.77591" /></defs><sodipodi:namedview
     pagecolor="#ffffff"
     bordercolor="#666666"
     borderopacity="1"
     objecttolerance="10"
     gridtolerance="10"
     guidetolerance="10"
     inkscape:pageopacity="0"
     inkscape:pageshadow="2"
     inkscape:window-width="1002"
     inkscape:window-height="902"
     id="namedview11"
     showgrid="false"
     fit-margin-top="0"
     fit-margin-left="0"
     fit-margin-right="0"
     fit-margin-bottom="0"
     inkscape:zoom="0.91075735"
     inkscape:cx="9.8627236"
     inkscape:cy="40.946426"
     inkscape:window-x="163"
     inkscape:window-y="119"
     inkscape:window-maximized="0"
     inkscape:current-layer="Layer_1" /><path
     style="opacity:0.36213995;fill:#000000;fill-opacity:0.57534246;fill-rule:evenodd;stroke:none"
     inkscape:connector-curvature="0"
     id="path7"
     d="m 30.209036,98.422796 c 5.626411,-5.553785 9.034218,-10.843153 11.506341,-16.105002 1.833744,-3.903077 1.567241,-6.021578 4.572524,-11.674019 6.681738,-11.369765 9.706537,-13.496243 21.51007,-17.373402 6.864565,-1.582623 14.718733,-1.713817 21.487151,0.716469 5.534065,1.987211 8.750351,5.213924 9.994611,8.218802 1.016807,2.455504 0.916107,4.971064 -0.04462,7.494512 -1.002761,2.63388 -2.974216,5.333232 -6.887658,8.151162 -2.005011,1.443608 -4.228229,2.588461 -6.259488,3.440189 -2.055894,0.862004 -4.129904,1.39643 -6.213154,2.036432 -4.066587,1.249335 -8.226449,2.166641 -12.393591,3.082183 -12.412046,2.726586 -24.678961,5.712499 -37.272126,12.012674 z"
     clip-rule="evenodd"
     sodipodi:nodetypes="cscccssccsccc" /><path
     style="fill:#f5f5f5;fill-opacity:0.78431374;stroke:#e86c52;stroke-width:2.93298769000000004;stroke-linecap:round;stroke-linejoin:miter;stroke-miterlimit:10;stroke-opacity:1;stroke-dasharray:none"
     inkscape:connector-curvature="0"
     id="path5"
     d="M 30.134416,91.679377 C 28.016291,81.541793 24.281731,73.10552 19.758352,65.286719 16.403154,59.486935 12.516319,54.133673 8.9199986,48.509538 7.719467,46.63206 6.6834123,44.648623 5.5298244,42.700104 3.2231948,38.804023 1.3530149,34.286734 1.4718619,28.427076 1.5879664,22.70181 3.2863003,18.10919 5.7353248,14.354231 9.7632348,8.1781947 16.510136,3.1145772 25.562847,1.7838334 c 7.401689,-1.08800819 14.341307,0.7501202 19.262511,3.5558198 4.021402,2.2926179 7.135594,5.3551178 9.502761,8.9644128 2.470769,3.767167 4.172163,8.217672 4.314883,14.022741 0.07305,2.974145 -0.426462,5.728351 -1.130155,8.012944 -0.712153,2.312443 -1.857497,4.245431 -2.876506,6.310253 -1.989168,4.030474 -4.48305,7.723246 -6.985838,11.418397 -7.45475,11.006267 -14.451733,22.230688 -17.516087,37.610976 z"
     stroke-miterlimit="10"
     clip-rule="evenodd" /><g
     transform="matrix(0.60265619,0,0,0.60265619,1.08978,-1.8554592)"
     id="g3"><path
       style="fill:#a9fff9"
       inkscape:connector-curvature="0"
       d="m 35.384,28.205 10e-4,-0.007 -10e-4,0.007 z"
       id="path5-6" /><path
       style="fill:#a9fff9"
       inkscape:connector-curvature="0"
       d="m 41.574,38.465 c 0.001,0.004 0.002,0.008 0.002,0.012 0.002,-0.004 0.004,-0.006 0.006,-0.008 -0.002,-0.008 -0.005,-0.014 -0.008,-0.021 0,0.007 0,0.011 0,0.017 z"
       id="path7-6" /><path
       style="fill:#a9fff9"
       inkscape:connector-curvature="0"
       d="m 35.599,60.981 c 0.003,-0.016 0.004,-0.031 0.006,-0.047 -0.027,0.002 -0.052,0.004 -0.073,0.002 0.019,0.019 0.04,0.033 0.067,0.045 z"
       id="path9" /><polygon
       style="fill:#a9fff9"
       points="35.6,45.418 35.602,45.42 35.602,45.418 "
       id="polygon11" /><path
       style="fill:#a9fff9"
       inkscape:connector-curvature="0"
       d="m 39.28,37.391 c 0.022,0.01 0.045,0.02 0.068,0.029 -0.018,-0.021 -0.032,-0.039 -0.047,-0.06 -0.006,0.013 -0.013,0.023 -0.021,0.031 z"
       id="path13" /><polygon
       style="fill:#a9fff9"
       points="35.774,43.414 35.771,43.409 35.771,43.414 "
       id="polygon15" /><path
       style="fill:#a9fff9"
       inkscape:connector-curvature="0"
       d="m 35.768,51.776 h 0.003 -0.003 z"
       id="path17" /><path
       style="fill:#a9fff9"
       inkscape:connector-curvature="0"
       d="m 29.997,30.961 c 0.003,-0.002 0.007,-0.002 0.011,-0.004 -0.003,-0.005 -0.006,-0.009 -0.01,-0.013 0,0.006 -0.001,0.011 -0.001,0.017 z"
       id="path19" /><path
       style="fill:#a9fff9"
       inkscape:connector-curvature="0"
       d="m 30.879,29.379 c 0.008,-0.004 0.016,-0.011 0.023,-0.015 0.005,-0.004 0.008,-0.01 0.012,-0.014 h -0.001 c -0.012,0.008 -0.023,0.018 -0.034,0.029 z"
       id="path21" /><rect
       style="fill:#a9fff9"
       x="30.243999"
       y="33.366001"
       width="0.0049999999"
       height="0.0049999999"
       id="rect23" /><polygon
       style="fill:#a9fff9"
       points="30.921,28.85 30.916,28.853 30.917,28.853 "
       id="polygon25" /><polygon
       style="fill:#a9fff9"
       points="32.336,57.635 32.332,57.635 32.332,57.637 "
       id="polygon27" /><path
       style="fill:#a9fff9"
       inkscape:connector-curvature="0"
       d="m 34.75,45.991 c 0.005,-0.012 0.008,-0.026 0.011,-0.043 H 34.76 c -0.002,0.017 -0.006,0.03 -0.01,0.043 z"
       id="path29" /><path
       style="fill:#a9fff9"
       inkscape:connector-curvature="0"
       d="m 34.718,52.356 c 0.007,0.002 0.012,0.004 0.019,0.006 0,-0.002 -0.001,-0.002 -0.002,-0.004 -0.006,0 -0.011,-0.002 -0.017,-0.002 z"
       id="path31" /><path
       style="fill:#a9fff9"
       inkscape:connector-curvature="0"
       d="m 35.598,61.094 c 10e-4,-0.008 0.002,-0.019 0.002,-0.025 -0.002,0 -0.005,0 -0.008,0 0.002,0.006 0.005,0.017 0.006,0.025 z"
       id="path33" /><path
       style="fill:#a9fff9"
       inkscape:connector-curvature="0"
       d="m 49.12,60.243 c 0.006,-0.002 0.011,-0.004 0.017,-0.006 -0.003,-0.004 -0.007,-0.008 -0.011,-0.012 -0.002,0.006 -0.004,0.012 -0.006,0.018 z"
       id="path35" /><path
       style="fill:#a9fff9"
       inkscape:connector-curvature="0"
       d="m 48.96,50.428 c 0,-0.008 10e-4,-0.017 0.003,-0.021 -0.013,0.002 -0.023,0.004 -0.035,0.006 0.01,0.005 0.022,0.009 0.032,0.015 z"
       id="path37" /><path
       style="fill:#a9fff9"
       inkscape:connector-curvature="0"
       d="m 48.734,45.243 c 0.008,0.007 0.016,0.013 0.023,0.019 -0.004,-0.01 -0.009,-0.019 -0.013,-0.025 -10e-4,0.002 -0.005,0.004 -0.01,0.006 z"
       id="path39" /><path
       style="fill:#a9fff9"
       inkscape:connector-curvature="0"
       d="m 48.407,48.284 c -0.04,0 -0.078,-0.008 -0.117,-0.021 0.022,0.036 0.076,0.058 0.117,0.021 z"
       id="path41" /><path
       style="fill:#a9fff9"
       inkscape:connector-curvature="0"
       d="m 50.592,41.299 c 0.005,-0.023 0.009,-0.047 0.013,-0.07 -0.003,0.006 -0.005,0.012 -0.007,0.018 -0.008,0.013 -0.008,0.031 -0.006,0.052 z"
       id="path43" /><path
       style="fill:#a9fff9"
       inkscape:connector-curvature="0"
       d="m 49.49,60.057 c 0.004,0.002 0.008,0.006 0.012,0.008 h 10e-4 c -0.006,-0.006 -0.012,-0.012 -0.018,-0.02 0,0.004 0.002,0.008 0.005,0.012 z"
       id="path45" /><polygon
       style="fill:#a9fff9"
       points="49.239,42.077 49.241,42.073 49.242,42.073 49.243,42.071 49.241,42.073 49.234,42.073 "
       id="polygon47" /><polygon
       style="fill:#a9fff9"
       points="70.146,61.897 70.159,61.903 70.147,61.893 70.147,61.897 "
       id="polygon49" /><path
       style="fill:#a9fff9"
       inkscape:connector-curvature="0"
       d="m 46.657,45.467 c 0.018,-0.015 0.033,-0.025 0.05,-0.039 -0.017,-0.002 -0.032,-0.004 -0.05,-0.008 0,0.015 0,0.03 0,0.047 z"
       id="path51" /><polygon
       style="fill:#a9fff9"
       points="46.657,48.264 46.652,48.26 46.652,48.266 "
       id="polygon53" /><path
       style="fill:#a9fff9"
       inkscape:connector-curvature="0"
       d="m 60.461,40.055 c -0.005,0.006 -0.01,0.014 -0.017,0.02 l 0.017,-0.018 v -0.002 z"
       id="path55" /><path
       style="fill:#a9fff9"
       inkscape:connector-curvature="0"
       d="m 47.976,46.942 c 0.012,0.006 0.023,0.013 0.035,0.019 -0.004,-0.011 -0.008,-0.021 -0.014,-0.029 -0.007,0.003 -0.014,0.006 -0.021,0.01 z"
       id="path57" /><path
       style="fill:#a9fff9"
       inkscape:connector-curvature="0"
       d="m 47.968,61.95 c -0.02,0.027 -0.046,0.062 -0.077,0.101 0.046,-0.012 0.082,-0.035 0.077,-0.101 z"
       id="path59" /><polygon
       style="fill:#a9fff9"
       points="48.048,60.43 48.046,60.428 48.043,60.43 "
       id="polygon61" /><path
       style="fill:#a9fff9"
       inkscape:connector-curvature="0"
       d="m 16.528,58.85 c -0.041,0.006 -0.077,0.006 -0.111,0.004 0.013,0.021 0.027,0.043 0.039,0.068 0.026,-0.025 0.052,-0.045 0.072,-0.072 z"
       id="path63" /><polygon
       style="fill:#a9fff9"
       points="28.387,35.34 28.384,35.336 28.384,35.342 "
       id="polygon65" /><polygon
       style="fill:#a9fff9"
       points="15.855,48.346 15.859,48.35 15.861,48.35 "
       id="polygon67" /><polygon
       style="fill:#a9fff9"
       points="15.153,39.34 15.162,39.34 15.162,39.338 "
       id="polygon69" /><path
       style="fill:#a9fff9"
       inkscape:connector-curvature="0"
       d="m 13.689,43.989 c -0.008,0 -0.016,-0.002 -0.023,-0.002 0.008,0.002 0.016,0.004 0.024,0.006 0,-0.002 -10e-4,-0.002 -10e-4,-0.004 z"
       id="path71" /><path
       style="fill:#a9fff9"
       inkscape:connector-curvature="0"
       d="m 13.598,36.217 c 0,0.016 0,0.031 0,0.049 0.021,0 0.037,-0.002 0.05,-0.008 -0.018,-0.017 -0.036,-0.03 -0.05,-0.041 z"
       id="path73" /><path
       style="fill:#a9fff9"
       inkscape:connector-curvature="0"
       d="m 13.95,47.411 c -0.006,0 -0.014,-0.002 -0.021,-0.002 0.002,0.007 0.003,0.015 0.004,0.019 0.005,-0.004 0.01,-0.012 0.017,-0.017 z"
       id="path75" /><path
       style="fill:#a9fff9"
       inkscape:connector-curvature="0"
       d="m 15.884,41.393 c -0.003,-0.002 -0.006,-0.002 -0.01,-0.002 -0.001,0 -0.002,-0.002 -0.002,-0.002 10e-4,0.008 0.002,0.014 0.004,0.021 0.003,-0.007 0.005,-0.013 0.008,-0.017 z"
       id="path77" /><polygon
       style="fill:#a9fff9"
       points="15.939,43.077 15.94,43.08 15.941,43.077 "
       id="polygon79" /><polygon
       style="fill:#a9fff9"
       points="13.595,40.569 13.597,40.571 13.597,40.567 "
       id="polygon81" /><path
       style="fill:#a9fff9"
       inkscape:connector-curvature="0"
       d="m 19.206,60.965 c -0.001,0.006 -0.001,0.012 -0.002,0.018 0.004,-0.002 0.009,-0.006 0.013,-0.008 -0.005,-0.004 -0.008,-0.006 -0.011,-0.01 z"
       id="path83" /><path
       style="fill:#a9fff9"
       inkscape:connector-curvature="0"
       d="M 19.454,44.627 C 19.42,44.61 19.398,44.6 19.383,44.575 c 0.011,0.035 0.031,0.066 0.071,0.093 0,-0.015 0,-0.027 0,-0.041 z"
       id="path85" /><path
       style="fill:#a9fff9"
       inkscape:connector-curvature="0"
       d="m 18.689,61.565 c -0.062,0.027 -0.076,0.06 -0.051,0.09 0.01,-0.022 0.028,-0.052 0.051,-0.09 z"
       id="path87" /><polygon
       style="fill:#a9fff9"
       points="18.451,62.237 18.452,62.237 18.453,62.237 "
       id="polygon89" /><path
       style="fill:#a9fff9"
       inkscape:connector-curvature="0"
       d="m 50.644,50.769 c 0.004,0.012 0.007,0.021 0.012,0.033 0.002,0 0.004,0.002 0.006,0.002 -0.007,-0.011 -0.014,-0.024 -0.018,-0.035 z"
       id="path91" /><rect
       style="fill:#a9fff9"
       x="15.345"
       y="44.741001"
       width="0.0040000002"
       height="0.014"
       id="rect93" /><path
       style="fill:#a9fff9"
       inkscape:connector-curvature="0"
       d="m 40.357,30.678 c 0,0.002 0,0.002 0,0.002 0,0 0.013,0.014 0.015,0.018 -0.004,-0.008 -0.01,-0.014 -0.015,-0.02 z"
       id="path95" /><path
       style="fill:#a9fff9"
       inkscape:connector-curvature="0"
       d="m 40.28,24.685 0.017,-0.031 c -0.009,0.011 -0.018,0.021 -0.026,0.031 10e-4,0 0.004,0 0.009,0 z"
       id="path97" /><path
       style="fill:#a9fff9"
       inkscape:connector-curvature="0"
       d="m 25.962,36.043 c 0.005,0.002 0.011,0.004 0.017,0.006 h 0.001 c -0.004,-0.008 -0.007,-0.017 -0.01,-0.023 -0.002,0.004 -0.006,0.01 -0.008,0.017 z"
       id="path99" /><polygon
       style="fill:#a9fff9"
       points="18.198,68.699 18.188,68.693 18.195,68.701 "
       id="polygon101" /><polygon
       style="fill:#a9fff9"
       points="26.566,39.983 26.563,39.981 26.565,39.983 "
       id="polygon103" /><polygon
       style="fill:#a9fff9"
       points="26.57,39.981 26.567,39.979 26.567,39.981 "
       id="polygon105" /><polygon
       style="fill:#a9fff9"
       points="15.604,73.533 15.604,73.533 15.604,73.533 "
       id="polygon107" /><polygon
       style="fill:#a9fff9"
       points="15.607,73.533 15.604,73.531 15.604,73.533 "
       id="polygon109" /><path
       style="fill:#a9fff9"
       inkscape:connector-curvature="0"
       d="m 13.345,38.719 c -0.016,0.006 -0.032,0.008 -0.051,0.008 0.017,0 0.033,0.002 0.05,0.002 0.001,-0.004 0.001,-0.008 0.001,-0.01 z"
       id="path111" /><polygon
       style="fill:#a9fff9"
       points="13.59,61.657 13.598,61.664 13.597,61.651 "
       id="polygon113" /><polygon
       style="fill:#a9fff9"
       points="13.046,69.529 13.045,69.525 13.038,69.525 "
       id="polygon115" /><polygon
       style="fill:#a9fff9"
       points="15.595,68.099 15.605,68.104 15.605,68.097 "
       id="polygon117" /><polygon
       style="fill:#a9fff9"
       points="13.597,61.651 13.609,61.653 13.603,61.644 "
       id="polygon119" /><path
       style="fill:#a9fff9"
       inkscape:connector-curvature="0"
       d="m 19.374,71.479 c 0.002,0 0.003,0.002 0.004,0.002 0.002,-0.012 0.003,-0.025 0.004,-0.037 -0.02,0.011 -0.033,0.024 -0.008,0.035 z"
       id="path121" /><polygon
       style="fill:#a9fff9"
       points="82.025,48.764 82.013,48.766 82.024,48.768 "
       id="polygon123" /><path
       style="fill:#a9fff9"
       inkscape:connector-curvature="0"
       d="m 82.072,57.623 c 0.01,-0.005 0.019,-0.007 0.024,-0.007 -0.006,-0.012 -0.013,-0.022 -0.019,-0.034 -0.014,0.014 -0.011,0.026 -0.005,0.041 z"
       id="path125" /><path
       style="fill:#a9fff9"
       inkscape:connector-curvature="0"
       d="m 81.629,35.496 c 10e-4,-0.005 0.003,-0.009 0.004,-0.011 -0.004,-0.006 -0.008,-0.014 -0.012,-0.02 0.002,0.011 0.005,0.02 0.008,0.031 z"
       id="path127" /><path
       style="fill:#a9fff9"
       inkscape:connector-curvature="0"
       d="m 84.199,49.942 c 0.002,0.004 0.003,0.008 0.005,0.013 0.004,-0.007 0.007,-0.013 0.011,-0.017 0,-0.002 0,-0.002 0,-0.002 0,0 0,-0.002 -0.001,-0.004 -0.005,0.005 -0.01,0.008 -0.015,0.01 z"
       id="path129" /><polygon
       style="fill:#a9fff9"
       points="83.459,44.993 83.453,44.998 83.455,45 "
       id="polygon131" /><path
       style="fill:#a9fff9"
       inkscape:connector-curvature="0"
       d="m 84.121,58.123 c 0.002,0.008 0.002,0.018 0.004,0.024 0.002,-0.004 0.004,-0.006 0.007,-0.01 0.002,-0.002 0.004,-0.004 0.007,-0.008 -0.009,-0.006 -0.016,-0.017 -0.021,-0.025 0,0.006 0.002,0.012 0.003,0.019 z"
       id="path133" /><path
       style="fill:#a9fff9"
       inkscape:connector-curvature="0"
       d="m 81.469,35.327 c 0.026,0.011 0.05,0.021 0.069,0.035 -0.042,-0.069 -0.094,-0.125 -0.149,-0.168 0.03,0.037 0.055,0.082 0.08,0.133 z"
       id="path135" /><path
       style="fill:#a9fff9"
       inkscape:connector-curvature="0"
       d="m 84.128,60.985 c -0.003,0.004 -0.007,0.008 -0.01,0.013 0.006,-0.005 0.013,-0.007 0.019,-0.009 -0.001,-0.002 -0.002,-0.004 -0.005,-0.006 -0.001,0 -0.002,0.002 -0.004,0.002 z"
       id="path137" /><path
       style="fill:#a9fff9"
       inkscape:connector-curvature="0"
       d="m 79.457,39.567 c 0.009,-0.008 0.017,-0.016 0.024,-0.022 -0.012,0.006 -0.023,0.012 -0.037,0.02 0.005,0 0.009,0.002 0.013,0.002 z"
       id="path139" /><path
       style="fill:#a9fff9"
       inkscape:connector-curvature="0"
       d="m 77.747,38.315 c 0.02,-0.02 0.035,-0.041 0.049,-0.063 -0.021,0.01 -0.04,0.018 -0.061,0.021 0.005,0.013 0.01,0.028 0.012,0.042 z"
       id="path141" /><rect
       style="fill:#a9fff9"
       x="72.250999"
       y="38.055"
       width="0.0060000001"
       height="0.003"
       id="rect143" /><path
       style="fill:#a9fff9"
       inkscape:connector-curvature="0"
       d="m 81.183,40.812 c 0.007,0.002 0.012,0.004 0.021,0.008 -10e-4,-0.006 -10e-4,-0.01 -10e-4,-0.014 -0.009,0.003 -0.015,0.004 -0.02,0.006 z"
       id="path145" /><path
       style="fill:#a9fff9"
       inkscape:connector-curvature="0"
       d="m 79.586,35.166 c 0.034,0.073 0.072,0.159 0.104,0.239 0.012,-0.129 0.014,-0.258 -0.019,-0.393 -0.029,0.051 -0.057,0.102 -0.085,0.154 z"
       id="path147" /><path
       style="fill:#a9fff9"
       inkscape:connector-curvature="0"
       d="m 81.463,40.084 c 0.01,0.021 0.021,0.045 0.033,0.067 -0.007,-0.022 -0.019,-0.045 -0.031,-0.067 -0.001,0 -0.002,0 -0.002,0 z"
       id="path149" /><path
       style="fill:#a9fff9"
       inkscape:connector-curvature="0"
       d="m 79.697,39.729 c 0.008,0 0.016,-0.002 0.022,-0.004 -0.002,-0.016 -0.007,-0.029 -0.013,-0.041 -0.001,0.014 -0.005,0.031 -0.009,0.045 z"
       id="path151" /><path
       style="fill:#a9fff9"
       inkscape:connector-curvature="0"
       d="m 85.961,45.021 c 0.004,-0.006 0.008,-0.012 0.012,-0.02 -0.003,0.002 -0.006,0.002 -0.01,0.002 0,0.007 -10e-4,0.013 -0.002,0.018 z"
       id="path153" /><path
       style="fill:#a9fff9"
       inkscape:connector-curvature="0"
       d="m 87.645,57.481 c 0.008,0.002 0.016,0.004 0.021,0.006 -0.006,-0.006 -0.013,-0.014 -0.021,-0.02 0.001,0.006 0.001,0.011 0,0.014 z"
       id="path155" /><path
       style="fill:#a9fff9"
       inkscape:connector-curvature="0"
       d="m 87.646,57.364 c 0,0.009 0,0.015 0,0.021 0.007,-0.004 0.014,-0.01 0.02,-0.014 -0.007,-0.003 -0.014,-0.005 -0.02,-0.007 z"
       id="path157" /><polygon
       style="fill:#a9fff9"
       points="86.976,62.67 86.975,62.655 86.968,62.655 "
       id="polygon159" /><path
       style="fill:#a9fff9"
       inkscape:connector-curvature="0"
       d="m 87.719,42.758 0.024,-0.029 c -0.011,0.01 -0.02,0.021 -0.026,0.027 0.001,0.002 0.001,0.002 0.002,0.002 z"
       id="path161" /><path
       style="fill:#a9fff9"
       inkscape:connector-curvature="0"
       d="m 50.661,53.899 c 0.003,-0.008 0.005,-0.018 0.007,-0.026 -0.002,-0.002 -0.003,-0.002 -0.004,-0.002 -0.002,0.01 -0.002,0.02 -0.003,0.028 z"
       id="path163" /><path
       style="fill:#a9fff9"
       inkscape:connector-curvature="0"
       d="m 87.906,45.562 c 0.008,0.029 0.014,0.062 0.019,0.092 0.003,-0.022 0.003,-0.047 0.002,-0.067 -0.004,-0.017 -0.009,-0.029 -0.015,-0.045 -0.005,-0.034 -0.056,0.046 -0.006,0.02 z"
       id="path165" /><path
       style="fill:#a9fff9"
       inkscape:connector-curvature="0"
       d="m 86.778,50.819 c 0.005,-0.008 0.009,-0.014 0.013,-0.02 -0.004,0.007 -0.009,0.014 -0.013,0.02 0,0.002 0,0 0,0 z"
       id="path167" /><polygon
       style="fill:#a9fff9"
       points="85.842,54.791 85.837,54.784 85.835,54.791 "
       id="polygon169" /><path
       style="fill:#a9fff9"
       inkscape:connector-curvature="0"
       d="m 85.459,57.131 c 0.007,0.002 0.013,0.002 0.02,0.004 -0.004,-0.006 -0.008,-0.012 -0.012,-0.019 -0.002,0.007 -0.005,0.011 -0.008,0.015 z"
       id="path171" /><polygon
       style="fill:#a9fff9"
       points="69.573,62.403 69.572,62.403 69.573,62.403 "
       id="polygon173" /><polygon
       style="fill:#a9fff9"
       points="86.809,62.405 86.808,62.403 86.808,62.405 "
       id="polygon175" /><polygon
       style="fill:#a9fff9"
       points="86.811,49.271 86.808,49.269 86.808,49.271 "
       id="polygon177" /><polygon
       style="fill:#a9fff9"
       points="86.481,48.922 86.475,48.914 86.473,48.928 "
       id="polygon179" /><polygon
       style="fill:#a9fff9"
       points="85.042,52.041 85.041,52.039 85.03,52.039 "
       id="polygon181" /><path
       style="fill:#a9fff9"
       inkscape:connector-curvature="0"
       d="m 68.059,56.979 c 0.005,0.008 0.01,0.014 0.016,0.021 -0.002,-0.011 -0.006,-0.021 -0.009,-0.033 -0.003,0.004 -0.004,0.008 -0.007,0.012 z"
       id="path183" /><path
       style="fill:#a9fff9"
       inkscape:connector-curvature="0"
       d="m 57.426,39.53 c -0.012,0.006 -0.01,0.017 -0.003,0.023 0.012,0.002 0.025,0.002 0.038,0.002 0.001,0 0.001,-0.002 0.002,-0.002 -0.005,-0.006 -0.009,-0.012 -0.011,-0.019 -0.01,0 -0.018,-0.002 -0.026,-0.004 z"
       id="path185" /><polygon
       style="fill:#a9fff9"
       points="56.603,37.221 56.599,37.221 56.603,37.223 "
       id="polygon187" /><polygon
       style="fill:#a9fff9"
       points="55.185,40.067 55.182,40.065 55.182,40.069 "
       id="polygon189" /><polygon
       style="fill:#a9fff9"
       points="57.703,34.041 57.692,34.041 57.691,34.041 57.693,34.047 "
       id="polygon191" /><polygon
       style="fill:#a9fff9"
       points="59.369,36.051 59.367,36.047 59.365,36.049 "
       id="polygon193" /><path
       style="fill:#a9fff9"
       inkscape:connector-curvature="0"
       d="m 57.672,34.041 c 0.007,0 0.014,0 0.021,0 l 0,0 0,0 c 0,0 0,0 0.001,0 0.007,-0.002 0.014,-0.005 0.02,-0.007 0.019,-0.012 0.04,-0.021 0.063,-0.028 -0.009,0 -0.019,0 -0.026,0 -0.029,0.012 -0.054,0.022 -0.079,0.035 z"
       id="path195" /><polygon
       style="fill:#a9fff9"
       points="55.181,40.065 55.182,40.062 55.179,40.063 "
       id="polygon197" /><path
       style="fill:#a9fff9"
       inkscape:connector-curvature="0"
       d="m 54.149,39.545 c 0.014,-0.021 0.023,-0.043 0.027,-0.064 -0.006,0 -0.011,0 -0.016,0 -0.003,0.021 -0.008,0.041 -0.011,0.064 z"
       id="path199" /><path
       style="fill:#a9fff9"
       inkscape:connector-curvature="0"
       d="m 51.334,51.226 c 10e-4,-0.002 0.002,-0.002 0.003,-0.004 -0.009,-0.002 -0.018,-0.004 -0.025,-0.006 0.005,0.005 0.014,0.009 0.022,0.01 z"
       id="path201" /><polygon
       style="fill:#a9fff9"
       points="51.165,48.851 51.162,48.844 51.162,48.851 "
       id="polygon203" /><path
       style="fill:#a9fff9"
       inkscape:connector-curvature="0"
       d="m 52.253,47.346 0,0 0,0 z"
       id="path205" /><path
       style="fill:#a9fff9"
       inkscape:connector-curvature="0"
       d="m 52.237,37.053 c 0.006,0 0.011,0.002 0.017,0.002 -0.005,-0.006 -0.01,-0.01 -0.015,-0.014 0,0.004 -0.002,0.008 -0.002,0.012 z"
       id="path207" /><path
       style="fill:#a9fff9"
       inkscape:connector-curvature="0"
       d="m 55.015,39.741 c 0.005,-0.004 0.01,-0.01 0.016,-0.016 -0.007,0.002 -0.011,0.004 -0.017,0.004 0,0.004 0,0.01 10e-4,0.012 z"
       id="path209" /><path
       style="fill:#a9fff9"
       inkscape:connector-curvature="0"
       d="m 60.778,39.211 c 0.017,-0.004 0.029,-0.004 0.044,-0.004 -0.006,-0.021 -0.011,-0.044 -0.014,-0.066 -0.008,0.025 -0.018,0.047 -0.03,0.07 z"
       id="path211" /><polygon
       style="fill:#a9fff9"
       points="52.325,40.379 52.316,40.381 52.325,40.381 "
       id="polygon213" /><path
       style="fill:#a9fff9"
       inkscape:connector-curvature="0"
       d="m 68.066,44.668 c 0.002,-0.004 0.003,-0.006 0.004,-0.011 0.019,-0.022 0.038,-0.039 0.061,-0.051 -0.027,0.002 -0.055,0.002 -0.083,0.002 0.002,0.019 0.001,0.039 -0.001,0.062 0.006,0 0.013,-0.002 0.019,-0.002 l 0,0 z"
       id="path215" /><path
       style="fill:#a9fff9"
       inkscape:connector-curvature="0"
       d="m 68.722,50.571 c 0.003,-0.039 0.003,-0.078 0.001,-0.119 -0.032,0.031 -0.064,0.062 -0.097,0.087 0.041,0.008 0.073,0.018 0.096,0.032 z"
       id="path217" /><rect
       style="fill:#a9fff9"
       x="68.151001"
       y="60.812"
       width="0.0089999996"
       height="0.0070000002"
       id="rect219" /><polygon
       style="fill:#a9fff9"
       points="67.396,45.735 67.388,45.735 67.396,45.737 "
       id="polygon221" /><path
       style="fill:#a9fff9"
       inkscape:connector-curvature="0"
       d="m 67.952,61.284 c -0.039,0.005 -0.079,0.003 -0.118,0 -0.021,0.009 -0.038,0.017 -0.058,0.023 0.264,0.012 0.484,-0.055 0.609,-0.299 -0.055,0.028 -0.105,0.055 -0.154,0.08 -0.015,0.11 -0.11,0.183 -0.279,0.196 z"
       id="path223" /><path
       style="fill:#a9fff9"
       inkscape:connector-curvature="0"
       d="m 66.418,37.131 c 0.057,0.042 0.087,0.109 0.126,0.246 0.029,-0.009 0.045,-0.025 0.023,-0.072 -0.028,-0.07 -0.086,-0.129 -0.149,-0.174 z"
       id="path225" /><path
       style="fill:#a9fff9"
       inkscape:connector-curvature="0"
       d="m 68.062,50.524 c 0.001,0 0.002,0 0.003,0 0,-0.002 0,-0.004 0,-0.006 -0.017,0.002 -0.031,0.004 -0.047,0.004 0.001,0.002 0.003,0.006 0.004,0.008 0.015,-0.002 0.029,-0.004 0.04,-0.006 z"
       id="path227" /><path
       style="fill:#a9fff9"
       inkscape:connector-curvature="0"
       d="m 65.375,57.557 c 0.001,-0.008 0.002,-0.016 0.005,-0.023 -0.01,-0.004 -0.021,-0.006 -0.031,-0.006 0.007,0.008 0.017,0.019 0.026,0.029 z"
       id="path229" /><path
       style="fill:#a9fff9"
       inkscape:connector-curvature="0"
       d="m 62.716,39.897 c 0.004,-0.008 0.007,-0.016 0.009,-0.022 -0.004,0.006 -0.009,0.014 -0.013,0.022 10e-4,0 0.003,0 0.004,0 z"
       id="path231" /><polygon
       style="fill:#a9fff9"
       points="61.298,36.356 61.283,36.353 61.283,36.358 "
       id="polygon233" /><path
       style="fill:#a9fff9"
       inkscape:connector-curvature="0"
       d="m 64.134,36.219 c 0.022,-0.025 0.051,-0.047 0.08,-0.064 -0.016,-0.004 -0.031,-0.012 -0.049,-0.021 -0.008,0.027 -0.017,0.06 -0.031,0.085 z"
       id="path235" /><path
       style="fill:#a9fff9"
       inkscape:connector-curvature="0"
       d="m 64.655,61.563 c 0.021,-0.004 0.037,-0.006 0.057,-0.008 -0.022,-0.012 -0.046,-0.023 -0.07,-0.035 -0.014,0.012 0.009,0.043 0.013,0.043 z"
       id="path237" /><path
       style="fill:#a9fff9"
       inkscape:connector-curvature="0"
       d="m 64.969,61.483 0,0 0,0 z"
       id="path239" /><line
       style="fill:none"
       x1="29.66"
       y1="57.471001"
       x2="29.66"
       y2="57.471001"
       id="line241" /><path
       style="fill:#9f276c"
       inkscape:connector-curvature="0"
       d="m 41.717,35.971 c 0.02,-0.031 0.028,-0.062 0.029,-0.09 0.042,-0.228 -0.172,-0.396 -0.191,-0.609 -0.074,-0.107 -0.02,-0.311 -0.232,-0.32 -0.057,-0.086 -0.068,-0.203 -0.182,-0.248 -0.045,-0.086 -0.076,-0.184 -0.184,-0.217 -0.125,-0.047 -0.267,-0.062 -0.346,-0.192 -0.64,-0.146 -1.29,-0.027 -1.934,-0.072 -0.835,-0.058 -1.699,0.158 -2.497,-0.26 0,0 0,0 -10e-4,0 -0.044,-0.091 -0.113,-0.168 -0.151,-0.263 -0.011,-0.057 -0.02,-0.11 -0.027,-0.168 0.016,-0.531 -0.031,-1.061 0.022,-1.59 0.002,-0.023 0.005,-0.049 0.008,-0.072 0.158,-0.168 0.259,-0.367 0.312,-0.592 0.094,-0.098 0.187,-0.197 0.28,-0.297 0.108,-0.064 0.218,-0.129 0.327,-0.191 0.188,-0.014 0.376,-0.026 0.564,-0.041 0,0.002 0,0.002 0,0.002 0.063,-0.002 0.127,-0.002 0.189,-0.002 10e-4,0 10e-4,0 10e-4,0 0.385,0.011 0.774,0.058 1.155,0.021 0.504,-0.051 1.017,0.104 1.513,-0.07 0.382,-0.117 0.817,-0.162 0.907,-0.672 0.06,-0.059 0.118,-0.117 0.177,-0.176 0.271,-0.23 0.183,-0.539 0.175,-0.828 10e-4,-0.084 10e-4,-0.168 0.002,-0.252 0.014,-0.654 0.031,-1.312 0.04,-1.965 0.016,-0.172 0.028,-0.347 0.022,-0.521 0.013,-0.149 0.016,-0.301 -0.073,-0.44 0,-0.002 0,-0.002 0,-0.002 -0.027,-0.056 -0.055,-0.111 -0.082,-0.166 -10e-4,-0.136 -0.071,-0.242 -0.146,-0.349 0.007,-0.119 -0.022,-0.215 -0.154,-0.25 0,0 -0.001,0 -0.002,0 C 41.112,25.007 40.986,24.934 40.86,24.862 40.797,24.684 40.642,24.8 40.535,24.76 40.478,24.672 40.398,24.637 40.295,24.655 l -0.017,0.031 c -0.004,0 -0.007,0 -0.01,0 0.009,-0.01 0.018,-0.021 0.026,-0.031 -0.109,-0.016 -0.218,-0.043 -0.327,-0.043 -1.319,-0.006 -2.64,0.016 -3.958,-0.023 -0.503,-0.014 -0.95,0.171 -1.428,0.232 -0.154,0.09 -0.35,-0.037 -0.497,0.092 -0.163,0.084 -0.327,0.168 -0.491,0.254 -0.239,-0.071 -0.407,0.07 -0.583,0.191 -0.029,0.02 -0.059,0.039 -0.089,0.061 -0.51,0.322 -1.032,0.627 -1.44,1.084 -0.024,0.029 -0.049,0.058 -0.072,0.084 l 0,0 c -0.271,0.396 -0.637,0.726 -0.814,1.183 -0.024,0.016 -0.032,0.037 -0.025,0.062 -0.001,0 -0.001,0 -0.001,0.002 -0.109,0.16 -0.218,0.32 -0.254,0.517 -0.112,0.146 -0.113,0.328 -0.165,0.496 -0.055,0.139 -0.109,0.276 -0.164,0.416 -0.126,0.055 -0.025,0.112 -0.005,0.172 -0.235,0.629 -0.177,1.28 -0.153,1.932 -0.041,0.66 -0.039,1.322 -0.013,1.982 -0.167,0.455 -0.474,0.756 -0.965,0.821 -0.257,0.035 -0.519,0.029 -0.778,0.041 -0.335,0 -0.67,-0.002 -1.004,-0.002 -0.14,0 -0.28,0 -0.42,0 -0.027,0 -0.056,0.002 -0.083,0.002 -0.141,-0.016 -0.282,-0.057 -0.421,0.011 0,0 0,0 -10e-4,0 -0.392,0.159 -0.695,0.414 -0.85,0.821 -0.154,0.326 -0.077,0.668 -0.066,1.006 0.002,0.673 0.004,1.343 0.005,2.015 0.001,0 0.001,0 0.001,0 -0.032,0.447 -0.111,0.897 0.054,1.338 v 0.002 c 0.13,0.385 0.409,0.615 0.78,0.75 0.038,0.07 0.102,0.086 0.175,0.086 0.758,-0.002 1.518,0 2.276,-0.004 0.49,-0.004 0.896,0.139 1.133,0.604 0.055,0.127 0.096,0.246 0.093,0.396 -0.014,0.609 -0.004,1.219 -0.003,1.828 0.001,1.149 0.001,2.299 0.002,3.447 v 0.002 c -0.046,0.803 -0.05,1.604 -0.011,2.409 -0.016,0.08 -0.045,0.162 -0.045,0.242 -0.008,2.351 -0.013,4.701 -0.018,7.051 0.023,0.197 -0.068,0.396 0.003,0.591 -0.004,0.223 -0.01,0.444 -0.014,0.668 -0.002,0.151 -0.006,0.303 -0.006,0.453 0.002,1.188 0.005,2.373 0.008,3.559 0,0 0,0 -0.001,0 0.102,0.273 0.135,0.586 0.419,0.76 0.038,0.117 0.121,0.172 0.244,0.172 0.086,0.048 0.172,0.097 0.258,0.146 1.227,0.055 2.453,0.043 3.681,0.02 h 10e-4 c 0.277,0.062 0.531,0.021 0.757,-0.157 0.003,-0.002 0.005,-0.002 0.008,-0.002 0.14,-0.029 0.241,-0.101 0.268,-0.25 0,0 0,0 0,-0.003 0.078,-0.024 0.124,-0.081 0.151,-0.155 0.117,-0.088 0.137,-0.22 0.147,-0.353 -0.011,-0.242 0.225,-0.396 0.22,-0.645 -0.017,-0.955 -0.022,-1.912 -0.032,-2.867 0.09,-0.271 0.028,-0.553 0.029,-0.826 0.012,-1.848 0.012,-3.695 0.015,-5.543 0.008,-1.004 0.015,-2.006 0.022,-3.01 10e-4,-0.055 0.003,-0.111 0.004,-0.166 0,0 0,0 0,-0.002 -10e-4,-0.418 -0.003,-0.836 -0.004,-1.254 l 0,0 c 0.002,-0.058 0.006,-0.111 0.009,-0.168 0.067,-0.361 0.029,-0.726 -0.002,-1.086 0.052,-0.187 0.044,-0.371 0.009,-0.558 0.064,-0.115 0.046,-0.242 0.046,-0.365 0.008,-1.291 0.012,-2.579 0.024,-3.87 0.008,-0.736 0.014,-0.736 0.662,-0.984 0.144,-0.035 0.286,-0.068 0.43,-0.104 0.472,0.062 0.945,0.048 1.418,0.023 0.643,0.043 1.285,0.037 1.928,0.01 0.341,0.08 0.519,-0.227 0.781,-0.332 0.127,-0.039 0.175,-0.127 0.159,-0.256 0.208,-0.274 0.301,-0.6 0.387,-0.928 0.059,-0.81 0.061,-1.619 0.013,-2.428 0.065,-0.115 0.048,-0.223 0.006,-0.334 z m -1.36,-5.293 c 0.005,0.006 0.01,0.014 0.015,0.02 -0.002,-0.004 -0.015,-0.018 -0.015,-0.018 0,0 0,0 0,-0.002 z m -14.378,5.371 c -0.006,-0.002 -0.012,-0.004 -0.017,-0.006 0.002,-0.006 0.005,-0.013 0.008,-0.019 0.003,0.008 0.006,0.017 0.009,0.025 l 0,0 z m 0.586,3.934 c -0.001,0 -0.002,-0.002 -0.002,-0.002 0.001,0 0.002,0 0.002,0.002 l 0,0 z m 0.002,-0.002 c 0,0 0,0 0,-0.002 0.001,0.002 0.002,0.002 0.003,0.002 -0.001,0 -0.002,0 -0.003,0 z m 1.817,-4.639 c 0,-0.002 -0.001,-0.004 -0.001,-0.006 0.001,0.002 0.002,0.002 0.004,0.004 -0.001,0 -0.002,0.002 -0.003,0.002 z m 1.613,-4.381 c 0,-0.006 0.001,-0.011 0.001,-0.017 0.004,0.004 0.007,0.008 0.01,0.013 -0.005,0.002 -0.008,0.002 -0.011,0.004 z m 0.251,2.407 c -0.001,0 -0.002,0.003 -0.003,0.005 -0.001,0 -0.002,0 -0.003,0 0.002,-0.002 0.004,-0.005 0.006,-0.009 0,0.002 0,0.002 0,0.004 z m 0.654,-4.004 c -0.008,0.004 -0.016,0.011 -0.023,0.015 0.011,-0.011 0.022,-0.021 0.034,-0.027 h 0.001 c -0.003,0.002 -0.006,0.008 -0.012,0.012 z m 0.015,-0.511 0,0 c 0,0 0.003,-0.002 0.005,-0.004 -0.003,0.002 -0.004,0.004 -0.005,0.004 z m 1.415,28.784 v -0.002 c 0.002,0 0.003,0 0.005,0 -0.002,0.002 -0.004,0.002 -0.005,0.002 z m 2.386,-5.281 c 0.006,0 0.011,0.002 0.017,0.002 10e-4,0.002 0.002,0.002 0.002,0.004 -0.008,-0.002 -0.012,-0.004 -0.019,-0.006 z m 0.032,-6.365 c 0.004,-0.014 0.007,-0.026 0.01,-0.043 h 0.001 c -0.002,0.017 -0.006,0.031 -0.011,0.043 z m 0.634,-17.786 0,0 c 0,-0.003 0,-0.005 10e-4,-0.007 -10e-4,0.002 0,0.004 -10e-4,0.007 z m 0.218,17.213 c 0,0.002 0,0.002 0,0.002 -10e-4,0 -10e-4,-0.002 -0.002,-0.002 10e-4,0 10e-4,0 0.002,0 z m -0.004,15.676 c -10e-4,-0.008 -0.004,-0.019 -0.006,-0.025 0.003,0 0.006,0 0.008,0 0,0.006 -0.001,0.017 -0.002,0.025 z m 10e-4,-0.113 c -0.027,-0.014 -0.048,-0.026 -0.067,-0.045 0.021,0.002 0.046,0 0.073,-0.002 -0.002,0.016 -0.003,0.033 -0.006,0.047 z m 0.169,-9.205 0,0 h 0.003 c 0,0 -0.002,0 -0.003,0 z m 0.003,-8.362 c 0,-0.003 0,-0.003 0,-0.005 10e-4,0.002 0.002,0.002 0.003,0.005 -10e-4,0 -0.002,0 -0.003,0 z m 3.509,-6.023 c 0.008,-0.008 0.016,-0.018 0.021,-0.029 0.015,0.021 0.029,0.037 0.047,0.06 -0.023,-0.013 -0.046,-0.023 -0.068,-0.031 z m 2.296,1.085 c 0,-0.004 -10e-4,-0.008 -0.002,-0.012 0,-0.006 0,-0.011 0,-0.017 0.003,0.006 0.006,0.013 0.008,0.021 -0.002,0.003 -0.004,0.005 -0.006,0.008 z"
       id="path243" /><line
       style="fill:none"
       x1="19.208"
       y1="73.616997"
       x2="19.208"
       y2="73.619003"
       id="line245" /><path
       style="fill:#d92739"
       inkscape:connector-curvature="0"
       d="m 18.371,68.583 c -0.243,-0.226 -0.482,-0.453 -0.835,-0.49 -0.327,-0.123 -0.648,-0.277 -1.014,-0.181 -0.024,-0.018 -0.049,-0.018 -0.074,0 -0.507,-0.293 -1.011,-0.024 -1.517,0.013 -0.069,-0.015 -0.136,-0.017 -0.177,0.059 -0.402,0.049 -0.805,0.097 -1.09,0.438 -0.138,0.08 -0.274,0.162 -0.412,0.244 -0.443,0.295 -0.769,0.69 -1.001,1.166 -0.308,0.369 -0.257,0.856 -0.421,1.272 -0.01,0.338 -0.143,0.681 0.048,1.008 0.071,0.382 0.11,0.771 0.367,1.091 -0.017,0.11 0.026,0.19 0.122,0.245 0.073,0.115 0.146,0.232 0.219,0.349 0.024,0.026 0.049,0.053 0.074,0.08 0.417,0.545 0.967,0.908 1.593,1.17 0.336,0.227 0.737,0.156 1.104,0.242 0.001,-0.002 0.003,-0.002 0.004,-0.004 l -0.003,0.004 c 0.389,0.225 0.757,0.104 1.122,-0.05 0.02,-0.006 0.038,-0.014 0.056,-0.024 h 10e-4 l 0.037,0.016 0.037,-0.016 c 0.838,-0.004 1.493,-0.373 2.022,-1 0.027,0.004 0.047,-0.006 0.061,-0.029 0.2,-0.162 0.43,-0.299 0.515,-0.565 0.014,-0.111 0.081,-0.189 0.162,-0.261 0.226,-0.098 0.145,-0.334 0.228,-0.498 0.106,-0.121 -0.04,-0.307 0.107,-0.418 0.031,-0.043 0.083,-0.08 0.09,-0.125 0.13,-0.852 0.079,-1.698 -0.312,-2.467 -0.255,-0.501 -0.526,-1.04 -1.113,-1.269 z m -5.333,0.942 c 0.003,0 0.005,0 0.008,0 0.001,0 0.001,0.002 0.001,0.004 -0.004,-0.002 -0.006,-0.002 -0.009,-0.004 z m 2.567,-1.428 c 0,0.002 0,0.004 0,0.008 -0.003,-0.002 -0.007,-0.004 -0.011,-0.006 0.005,0 0.008,0 0.011,-0.002 z m -0.001,5.436 0,0 0,0 0,0 c 0,-0.002 0,-0.002 0,-0.002 0.001,0 0.002,0.002 0.003,0.002 -10e-4,0 -0.002,0 -0.003,0 z m 2.591,-4.832 c -0.002,-0.004 -0.005,-0.006 -0.007,-0.008 0.003,0.002 0.006,0.004 0.009,0.006 0,0 0,0 -0.002,0.002 z m 1.182,2.779 c -10e-4,0 -0.002,-0.002 -0.004,-0.002 -0.024,-0.012 -0.011,-0.023 0.008,-0.035 -0.001,0.012 -0.002,0.027 -0.004,0.037 z"
       id="path247" /><line
       style="fill:none"
       x1="19.444"
       y1="60.817001"
       x2="19.444"
       y2="60.817001"
       id="line249" /><path
       style="fill:#d92739"
       inkscape:connector-curvature="0"
       d="m 13.502,61.836 c 0.032,0.297 0.291,0.371 0.493,0.5 0.182,0.153 0.383,0.268 0.63,0.266 0.577,-0.006 1.155,-0.018 1.733,-0.027 0.498,0.08 0.995,-0.006 1.493,0.004 0.554,0.078 1.156,-0.348 1.434,-1.01 0.021,-0.018 0.025,-0.037 0.014,-0.062 0.048,-0.229 0.097,-0.459 0.146,-0.688 0.001,-0.36 0.004,-0.721 0.004,-1.08 0.003,-1.428 0.005,-2.854 0.007,-4.28 0.037,-0.748 0.001,-1.5 0.032,-2.248 0.073,-1.765 0.034,-3.527 0.072,-5.291 0.014,-0.609 -0.02,-1.22 -0.032,-1.828 0.001,-0.027 0.001,-0.058 0.002,-0.084 0.021,-0.021 0.025,-0.045 0.014,-0.07 0,-0.002 0,-0.002 0,-0.002 0.015,-0.088 0.024,-0.176 0.03,-0.266 0.06,-0.595 0.049,-1.188 0.01,-1.783 0.004,-0.164 -0.005,-0.326 -0.037,-0.49 -0.001,-0.162 -0.001,-0.324 -0.002,-0.484 0.019,-0.192 0.052,-0.387 0.053,-0.579 0.011,-1.349 0.026,-2.697 0.017,-4.048 -0.007,-0.969 0.104,-1.944 -0.151,-2.899 0.081,-0.162 0.057,-0.308 -0.079,-0.428 -0.03,-0.123 -0.028,-0.265 -0.179,-0.318 -0.012,-0.021 -0.029,-0.027 -0.054,-0.019 -0.112,-0.395 -0.422,-0.526 -0.78,-0.534 -0.923,-0.021 -1.847,-0.015 -2.77,-0.019 -0.479,-0.012 -0.962,-0.09 -1.421,0.121 -0.599,0.178 -0.826,0.68 -0.868,1.205 -0.088,1.107 -0.062,2.223 -0.019,3.334 -0.039,1.229 -0.084,2.457 -0.029,3.686 -0.128,0.773 0.007,1.55 -0.011,2.324 -0.098,0.738 -0.068,1.479 0,2.217 0.001,0.093 0.002,0.185 0.002,0.275 -0.088,0.166 -0.079,0.348 -0.08,0.527 -0.008,1.639 -0.023,3.274 -0.024,4.911 -10e-4,1.681 0.014,3.357 0.021,5.037 -0.062,0.082 -0.068,0.177 -0.068,0.275 -0.003,0.998 -0.008,1.996 -0.011,2.994 -10e-4,0.35 0.12,0.646 0.408,0.861 z m 5.952,-17.209 c 0,0.014 0,0.026 0,0.041 -0.04,-0.025 -0.061,-0.058 -0.071,-0.093 0.014,0.025 0.036,0.035 0.071,0.052 z m -0.248,16.338 c 0.004,0.004 0.007,0.006 0.011,0.01 -0.004,0.002 -0.009,0.006 -0.013,0.008 10e-4,-0.007 10e-4,-0.012 0.002,-0.018 z m -0.517,0.6 c -0.024,0.037 -0.041,0.066 -0.051,0.09 -0.024,-0.03 -0.01,-0.061 0.051,-0.09 z m -0.236,0.672 0,0 h -0.002 c 0,0 0.001,0 0.002,0 z M 16.528,58.85 c -0.021,0.027 -0.046,0.049 -0.072,0.072 -0.012,-0.025 -0.026,-0.047 -0.039,-0.068 0.035,0 0.07,0 0.111,-0.004 z M 15.941,43.077 c -0.001,0 -0.001,0.003 -0.001,0.003 0,-0.003 -10e-4,-0.003 -10e-4,-0.003 10e-4,0 10e-4,0 0.002,0 z m -0.066,-1.686 c 0.004,0 0.007,0 0.01,0.002 -0.003,0.006 -0.005,0.012 -0.008,0.018 -0.002,-0.008 -0.003,-0.014 -0.004,-0.021 0,-10e-4 0.001,10e-4 0.002,10e-4 z m -0.014,6.959 c -0.001,0 -0.001,0 -0.002,0 -10e-4,-0.002 -0.002,-0.004 -0.004,-0.004 l 0.006,0.004 z M 15.35,44.741 c 0.001,0 0.001,0.002 0.002,0.005 -0.002,0.002 -0.004,0.004 -0.006,0.006 -10e-4,0 -0.003,0 -0.005,0 0.003,-0.004 0.006,-0.009 0.009,-0.011 z m -0.188,-5.403 v 0.002 c -0.003,0 -0.005,0 -0.008,0 0.003,0 0.005,-0.002 0.008,-0.002 z m -1.212,8.073 c -0.006,0.005 -0.012,0.013 -0.018,0.017 -0.001,-0.004 -0.002,-0.012 -0.004,-0.019 0.008,0 0.015,0.002 0.022,0.002 z m -0.261,-3.422 c 0,0.002 10e-4,0.002 10e-4,0.004 -0.009,-0.002 -0.017,-0.004 -0.024,-0.006 0.009,0 0.016,0.002 0.023,0.002 z m -0.091,-7.772 c 0.015,0.012 0.032,0.024 0.05,0.041 -0.013,0.006 -0.029,0.008 -0.05,0.008 0,-0.018 0,-0.035 0,-0.049 z m -0.001,4.35 c 0,0.002 0,0.002 0,0.004 -10e-4,0 -10e-4,-0.002 -0.002,-0.002 10e-4,0 10e-4,0 0.002,-0.002 z m 0,21.084 c 0.002,-0.002 0.004,-0.006 0.006,-0.008 0.002,0.004 0.005,0.008 0.007,0.01 -0.006,0 -0.008,0 -0.013,-0.002 0.001,0.004 0.001,0.008 0.001,0.013 -0.003,-0.003 -0.005,-0.005 -0.008,-0.007 0.003,-0.002 0.004,-0.004 0.007,-0.006 z M 13.345,38.719 c 0,0.002 0,0.006 -0.001,0.01 -0.017,0 -0.033,-0.002 -0.05,-0.002 0.018,-10e-4 0.036,-0.002 0.051,-0.008 z"
       id="path251" /><path
       style="fill:#db682f"
       inkscape:connector-curvature="0"
       d="m 88.216,45.104 c 0.029,-0.4 -0.006,-0.799 -0.157,-1.178 -0.067,-0.41 -0.14,-0.818 -0.313,-1.201 -0.207,-0.869 -0.432,-1.734 -0.936,-2.492 -0.061,-0.145 -0.081,-0.313 -0.252,-0.387 -0.086,-0.041 -0.079,-0.123 -0.085,-0.199 h -0.001 c -0.006,-0.254 -0.12,-0.447 -0.337,-0.58 -0.182,-0.311 -0.402,-0.594 -0.65,-0.856 v 0.002 c -0.407,-0.492 -0.8,-0.998 -1.344,-1.355 -0.031,-0.045 -0.062,-0.092 -0.093,-0.139 l 0,0 c -0.099,-0.281 -0.345,-0.389 -0.591,-0.494 -0.148,-0.098 -0.306,-0.186 -0.446,-0.293 -0.798,-0.611 -1.681,-1.047 -2.626,-1.389 -1.052,-0.381 -2.134,-0.582 -3.237,-0.66 -0.574,-0.041 -1.163,-0.107 -1.735,0.059 -1.405,0.056 -2.739,0.396 -4.005,1.008 -0.256,0.052 -0.47,0.181 -0.662,0.349 -0.41,0.219 -0.896,0.317 -1.177,0.74 -0.433,0.086 -0.712,0.424 -1.014,0.684 -0.78,0.676 -1.015,0.736 -1.953,0.275 -0.037,-0.021 -0.077,-0.029 -0.116,-0.043 -0.121,-0.154 -0.191,-0.359 -0.406,-0.425 -0.177,-0.192 -0.39,-0.34 -0.605,-0.479 -0.224,-0.254 -0.532,-0.392 -0.812,-0.56 -0.818,-0.493 -1.65,-0.965 -2.612,-1.129 -1.354,-0.561 -2.782,-0.588 -4.206,-0.514 -0.379,0.021 -0.798,0 -1.166,0.18 -0.751,0.203 -1.541,0.256 -2.257,0.59 -0.965,0.337 -1.858,0.808 -2.666,1.435 -0.114,0.008 -0.186,0.078 -0.238,0.17 -0.746,0.473 -1.377,1.072 -1.943,1.744 H 49.57 c -0.305,0.396 -0.609,0.791 -0.914,1.186 -0.181,0.271 -0.471,0.474 -0.503,0.832 h -10e-4 c -0.132,0.07 -0.175,0.189 -0.181,0.328 l 0,0 c -0.184,0.326 -0.392,0.642 -0.493,1.008 -0.058,0.16 -0.114,0.32 -0.172,0.48 v 0.002 c -0.214,0.151 -0.153,0.406 -0.212,0.611 -0.253,0.879 -0.486,1.772 -0.521,2.686 -0.048,1.277 -0.01,2.559 -0.009,3.838 -0.038,0.166 -0.026,0.334 0.004,0.5 -0.058,0.726 -0.057,1.449 -0.005,2.174 10e-4,0.086 0.002,0.17 0.003,0.256 -0.001,0.669 -0.002,1.337 -0.002,2.005 -0.006,1.139 -0.017,2.274 -0.017,3.411 0,0.732 -0.057,1.466 0.006,2.199 -0.019,0.023 -0.02,0.049 -0.004,0.074 -0.082,0.506 -0.043,1.018 -0.052,1.525 -0.011,0.62 0.312,1.059 0.818,1.381 0.222,0.137 0.438,0.272 0.721,0.271 1.023,-0.014 2.048,-0.016 3.071,-0.014 0.245,0 0.469,-0.039 0.642,-0.229 0.14,-0.082 0.279,-0.166 0.42,-0.25 0,0 0,0 0.001,0 l 0,0 c 0.005,0 0.008,-0.004 0.013,-0.008 0.152,-0.1 0.192,-0.287 0.309,-0.414 0.021,-0.018 0.028,-0.039 0.021,-0.063 0.132,-0.234 0.218,-0.484 0.219,-0.752 0.002,-1.402 -0.007,-2.808 -0.011,-4.211 0.003,-0.722 0.006,-1.445 0.008,-2.166 0,-0.002 10e-4,0 10e-4,-0.002 0.052,-0.693 0.024,-1.39 0.047,-2.084 0.053,-1.658 0.041,-3.314 0.04,-4.974 0,-0.932 0.022,-1.865 0.035,-2.799 0.222,-0.488 0.386,-0.994 0.482,-1.523 10e-4,0 10e-4,-0.002 0.002,-0.002 0.225,-0.418 0.45,-0.834 0.676,-1.25 0.022,-0.02 0.049,-0.039 0.069,-0.059 0.209,-0.164 0.461,-0.281 0.593,-0.531 0,-0.002 10e-4,-0.002 10e-4,-0.002 0.144,-0.16 0.288,-0.318 0.432,-0.479 1.023,-0.841 2.198,-1.238 3.521,-1.218 0.632,0.011 1.214,0.24 1.817,0.369 0.007,-0.006 0.012,-0.014 0.017,-0.02 v 0.002 l -0.017,0.018 c 0.473,0.24 0.934,0.498 1.354,0.822 0.041,0.119 0.132,0.162 0.25,0.166 0,0 0,0 10e-4,0 0.078,0.064 0.157,0.129 0.235,0.193 0.223,0.274 0.512,0.496 0.679,0.817 0.022,0.172 0.12,0.31 0.226,0.439 0.029,0.125 0.064,0.246 0.191,0.312 0.257,0.396 0.4,0.84 0.554,1.279 0.003,0.025 0.011,0.051 0.025,0.074 0.034,0.373 0.214,0.713 0.206,1.102 -0.022,1.086 -0.034,2.17 -0.021,3.256 0.028,2.086 -0.095,4.172 -0.015,6.256 -0.014,2.106 -0.03,4.211 -0.042,6.316 -10e-4,0.135 -0.002,0.281 0.123,0.379 0.278,0.783 0.765,1.297 1.658,1.289 0.83,-0.01 1.658,-0.025 2.488,-0.02 0.431,0.002 0.853,0.01 1.21,-0.279 0.002,0 0.005,-0.002 0.007,-0.002 0.266,-0.117 0.502,-0.267 0.584,-0.572 l -0.013,-0.006 c 0,0 0,0 0.001,0 0,-0.002 0,-0.004 0,-0.006 0.004,0.004 0.007,0.008 0.012,0.012 0.149,-0.178 0.21,-0.373 0.197,-0.611 -0.028,-0.606 -0.045,-1.217 -0.041,-1.823 0.026,-4.029 0.062,-8.058 0.087,-12.084 0.008,-1.175 0.014,-2.347 0.426,-3.472 0.193,-0.475 0.389,-0.948 0.584,-1.424 0.016,-0.014 0.02,-0.033 0.012,-0.053 0.253,-0.34 0.507,-0.68 0.759,-1.021 0.056,-0.034 0.115,-0.063 0.165,-0.106 0.726,-0.607 1.484,-1.16 2.419,-1.398 0.672,-0.17 1.359,-0.268 2.052,-0.149 0.434,0.075 0.856,0.198 1.284,0.301 l 0.002,0.016 c 0.149,0.121 0.311,0.22 0.509,0.229 l 0.03,0.018 0.036,-0.002 c 0.211,0.213 0.469,0.344 0.757,0.42 0.046,0.246 0.278,0.338 0.419,0.506 0.191,0.166 0.385,0.334 0.575,0.5 0.319,0.351 0.561,0.752 0.769,1.175 0,0 0,0 0,0.002 0.364,0.541 0.44,1.186 0.618,1.789 0.11,0.375 0.211,0.766 0.204,1.18 -0.018,0.957 -0.103,1.916 -0.009,2.873 -0.014,0.149 -0.038,0.301 -0.038,0.451 -0.005,1.27 -0.004,2.539 -0.005,3.809 -10e-4,0.062 -0.003,0.121 -0.004,0.182 -0.003,1.197 -0.006,2.396 -0.008,3.593 h 0.001 c -0.001,0.307 -0.001,0.612 -0.002,0.92 -0.034,0.143 -0.029,0.283 0.007,0.424 -0.019,1.084 -0.038,2.17 -0.048,3.252 -0.001,0.088 0.067,0.176 0.104,0.264 0.153,0.392 0.325,0.767 0.775,0.898 0.016,0.043 0.039,0.072 0.09,0.055 v 0.002 c 0.117,0.084 0.248,0.129 0.393,0.137 0.475,0.113 0.959,0.027 1.438,0.078 0.028,-0.006 0.056,-0.012 0.084,-0.018 0.725,-0.062 1.457,0.088 2.179,-0.064 0.322,-0.104 0.588,-0.282 0.75,-0.594 0.255,-0.106 0.276,-0.346 0.331,-0.574 0.103,-0.428 0.003,-0.854 -10e-4,-1.28 -0.029,-3.062 0.024,-6.123 0.078,-9.185 0.035,-2.006 -0.071,-4.01 0.08,-6.012 z m -41.564,3.162 c 0,-0.002 0,-0.004 0,-0.006 0.002,0.002 0.003,0.002 0.004,0.004 0,0 -0.003,0.002 -0.004,0.002 z m 0.005,-2.799 c 0,-0.017 0,-0.031 0,-0.047 0.018,0.004 0.033,0.006 0.05,0.008 -0.018,0.012 -0.032,0.024 -0.05,0.039 z m 1.233,16.584 c 0.031,-0.039 0.058,-0.072 0.077,-0.101 0.006,0.066 -0.03,0.089 -0.077,0.101 z m 0.086,-15.109 c 0.008,-0.004 0.014,-0.008 0.021,-0.012 0.006,0.01 0.01,0.02 0.014,0.029 C 48,46.955 47.987,46.948 47.976,46.942 z m 0.067,13.488 c 10e-4,-0.002 0.002,-0.002 0.003,-0.002 10e-4,0 0.002,0.002 0.002,0.002 -0.002,0 -0.003,0 -0.005,0 z M 48.29,48.264 c 0.039,0.014 0.077,0.021 0.117,0.021 -0.041,0.036 -0.095,0.014 -0.117,-0.021 z m 0.444,-3.021 c 0.004,-0.002 0.008,-0.004 0.011,-0.008 0.004,0.008 0.009,0.017 0.013,0.025 -0.008,-0.004 -0.015,-0.01 -0.024,-0.017 z m 0.226,5.185 c -0.011,-0.006 -0.021,-0.01 -0.032,-0.017 0.012,-0.002 0.022,-0.004 0.035,-0.006 -0.002,0.006 -0.003,0.015 -0.003,0.023 z m 0.16,9.815 c 0.002,-0.006 0.004,-0.012 0.006,-0.018 0.004,0.004 0.008,0.008 0.011,0.012 -0.007,0.002 -0.012,0.004 -0.017,0.006 z m 0.122,-18.17 0,0 c -10e-4,0.002 -0.002,0.002 -0.003,0.005 -10e-4,-0.003 -0.003,-0.003 -0.004,-0.005 0,0 0.004,0 0.007,0 0,0 0,-0.002 0.001,-0.002 0,0 0,0.002 -0.001,0.002 z m 0.259,17.99 c -0.004,-0.002 -0.008,-0.006 -0.012,-0.008 -0.002,-0.004 -0.004,-0.008 -0.005,-0.012 0.007,0.01 0.013,0.016 0.017,0.02 l 0,0 z m 1.091,-18.764 c -0.002,-0.021 -0.002,-0.039 0.006,-0.053 0.002,-0.007 0.004,-0.013 0.007,-0.019 -0.005,0.025 -0.009,0.047 -0.013,0.072 z m 0.052,9.47 c 0.005,0.012 0.012,0.023 0.018,0.035 -0.002,0 -0.004,-0.002 -0.006,-0.002 -0.006,-0.011 -0.009,-0.022 -0.012,-0.033 z m 0.017,3.13 c 10e-4,-0.01 10e-4,-0.02 0.003,-0.028 10e-4,0 0.002,0 0.004,0.002 -0.002,0.01 -0.004,0.02 -0.007,0.026 z m 0.501,-5.048 c 0,-0.002 0,-0.006 0,-0.008 10e-4,0.002 0.002,0.004 0.003,0.008 -10e-4,0 -0.002,0 -0.003,0 z m 0.172,2.375 c -0.008,-0.002 -0.017,-0.006 -0.022,-0.01 0.009,0.002 0.018,0.004 0.025,0.006 -0.001,0.003 -0.002,0.003 -0.003,0.004 z m 0.919,-3.88 0,0 0,0 0,0 z M 52.237,37.053 c 0,-0.004 0.002,-0.008 0.002,-0.012 0.005,0.004 0.01,0.008 0.015,0.014 -0.006,0 -0.011,-0.002 -0.017,-0.002 z m 0.088,3.328 c -0.003,0 -0.006,0 -0.009,0 0.003,-0.002 0.006,-0.002 0.009,-0.002 v 0.002 z m 1.824,-0.836 c 0.003,-0.021 0.008,-0.043 0.013,-0.064 0.005,0 0.01,0 0.016,0 -0.004,0.021 -0.015,0.041 -0.029,0.064 z m 0.866,0.196 c -10e-4,-0.002 -10e-4,-0.008 -10e-4,-0.012 0.006,0 0.01,-0.002 0.017,-0.004 -0.007,0.006 -0.011,0.012 -0.016,0.016 z m 0.164,0.322 c 10e-4,0 0.002,0 0.003,-0.002 0,0.002 -0.001,0.002 -0.001,0.004 -10e-4,0 -10e-4,-0.002 -0.002,-0.002 z m 0.003,0.006 c 0,-0.002 0,-0.002 0,-0.004 10e-4,0 0.002,0 0.003,0.002 -0.001,0 -0.002,0 -0.003,0.002 z m 1.421,-2.846 c -0.002,0 -0.002,0 -0.004,-0.002 0.002,0 0.003,0 0.004,0 0,0.002 0,0.002 0,0.002 z m 0.858,2.334 c -0.013,0 -0.026,0 -0.038,-0.002 -0.007,-0.008 -0.009,-0.019 0.003,-0.023 0.009,0.002 0.018,0.004 0.026,0.006 0.002,0.007 0.006,0.013 0.011,0.019 -10e-4,-0.002 -10e-4,0 -0.002,0 z m 0.251,-5.523 c -0.006,0.003 -0.013,0.005 -0.02,0.007 0.003,0 0.008,0 0.011,0 -0.003,0.002 -0.006,0.004 -0.01,0.006 -10e-4,-0.002 -10e-4,-0.004 -0.002,-0.006 -0.007,0 -0.014,0 -0.021,0 0.024,-0.013 0.051,-0.023 0.077,-0.035 0.009,0 0.019,0 0.026,0 -0.021,0.008 -0.044,0.016 -0.061,0.028 z m 1.653,2.015 c 10e-4,0 10e-4,-0.002 0.002,-0.002 0.001,0 0.002,0.002 0.002,0.004 -10e-4,0 -0.002,-0.002 -0.004,-0.002 z m 1.413,3.162 c 0.012,-0.021 0.021,-0.045 0.03,-0.07 0.003,0.023 0.008,0.045 0.014,0.066 -0.014,0 -0.027,0 -0.044,0.004 z m 0.505,-2.853 c 0,-0.002 0,-0.004 0,-0.006 0.005,0.002 0.01,0.002 0.015,0.004 -0.005,0 -0.01,0 -0.015,0.002 z m 1.433,3.539 c -10e-4,0 -0.003,0 -0.004,0 0.004,-0.01 0.009,-0.018 0.013,-0.022 -0.003,0.008 -0.006,0.016 -0.009,0.022 z m 1.418,-3.678 c 0.015,-0.023 0.022,-0.058 0.031,-0.086 0.018,0.01 0.033,0.018 0.049,0.021 -0.029,0.018 -0.057,0.038 -0.08,0.065 z m 0.521,25.344 c -0.004,0 -0.027,-0.031 -0.015,-0.043 0.024,0.012 0.048,0.023 0.07,0.035 -0.018,0.004 -0.034,0.005 -0.055,0.008 z m 0.314,-0.08 0,0 c 0.001,0 0.001,0 0,0 l 0,0 z m 0.406,-3.926 c -0.009,-0.01 -0.019,-0.021 -0.026,-0.029 0.011,0 0.021,0.002 0.031,0.006 -0.003,0.007 -0.004,0.015 -0.005,0.023 z m 1.169,-20.18 c -0.039,-0.137 -0.069,-0.204 -0.126,-0.246 0.063,0.045 0.121,0.104 0.149,0.174 0.022,0.046 0.006,0.063 -0.023,0.072 z m 0.852,8.36 c -0.002,0 -0.005,0 -0.008,-0.002 0.003,0 0.006,0 0.008,0 0,0.002 0,0.002 0,0.002 z m 0.762,15.073 c 0.001,0 0.002,0.004 0.003,0.006 -0.003,0 -0.006,0 -0.01,0 -10e-4,0 -10e-4,-0.002 -10e-4,-0.002 0.002,-0.002 0.006,-0.004 0.008,-0.004 z m -0.11,-16.202 c 0.028,0 0.056,0 0.083,-0.002 -0.021,0.012 -0.042,0.027 -0.061,0.051 -10e-4,0.005 -0.002,0.007 -0.004,0.011 0,0 0,0 -0.001,0 -0.006,0 -0.013,0.002 -0.02,0.002 0.004,-0.023 0.005,-0.043 0.003,-0.062 z M 68.074,57 c -0.006,-0.007 -0.011,-0.013 -0.016,-0.021 0.003,-0.006 0.005,-0.01 0.007,-0.014 0.003,0.014 0.007,0.024 0.009,0.035 z m -0.009,-6.481 c 0,0.002 0,0.004 0,0.006 -0.001,0 -0.002,0 -0.003,0 -0.013,0.002 -0.025,0.004 -0.04,0.006 -0.001,-0.002 -0.003,-0.006 -0.004,-0.008 0.016,-0.001 0.032,-0.002 0.047,-0.004 z m -0.289,10.79 c 0.02,-0.008 0.037,-0.016 0.058,-0.023 0.039,0.002 0.079,0.005 0.118,0 0.169,-0.014 0.264,-0.086 0.279,-0.194 0.049,-0.025 0.101,-0.052 0.154,-0.08 -0.124,0.242 -0.345,0.307 -0.609,0.297 z m 0.946,-10.738 c -0.022,-0.016 -0.056,-0.024 -0.096,-0.032 0.031,-0.025 0.063,-0.056 0.097,-0.087 0.002,0.041 0.002,0.08 -0.001,0.119 z m 0.851,11.832 0,0 0,0 0,0 z m 2.682,-24.344 c -0.002,-0.002 -0.003,-0.002 -0.004,-0.004 h 10e-4 c 0.001,0.002 0.004,0.002 0.006,0.004 -10e-4,0 -0.002,0 -0.003,0 z m 5.492,0.256 c -0.002,-0.016 -0.007,-0.029 -0.012,-0.043 0.021,-0.004 0.039,-0.012 0.061,-0.021 -0.014,0.023 -0.03,0.046 -0.049,0.064 z m 1.71,1.252 c -0.004,0 -0.008,-0.002 -0.013,-0.004 0.014,-0.008 0.025,-0.014 0.037,-0.02 -0.008,0.01 -0.015,0.017 -0.024,0.024 z m 0.129,-4.401 c 0.028,-0.052 0.057,-0.103 0.085,-0.152 0.031,0.135 0.029,0.264 0.019,0.393 -0.032,-0.082 -0.07,-0.168 -0.104,-0.241 z m 0.111,4.563 c 0.004,-0.016 0.008,-0.031 0.011,-0.045 0.006,0.012 0.011,0.025 0.013,0.041 -0.008,0.003 -0.016,0.004 -0.024,0.004 z m 1.486,1.083 c 0.006,-0.002 0.012,-0.004 0.02,-0.006 0,0.004 0,0.008 10e-4,0.014 -0.01,-0.005 -0.015,-0.007 -0.021,-0.008 z m 0.28,-0.728 c 0,0 0.001,0 0.002,0 0.014,0.022 0.024,0.045 0.031,0.067 -0.013,-0.022 -0.024,-0.047 -0.033,-0.067 z m 0.006,-4.757 c -0.024,-0.051 -0.051,-0.096 -0.08,-0.133 0.057,0.043 0.107,0.099 0.149,0.168 -0.019,-0.012 -0.042,-0.024 -0.069,-0.035 z m 0.16,0.169 c -0.003,-0.011 -0.006,-0.021 -0.008,-0.029 0.004,0.006 0.008,0.014 0.012,0.02 -10e-4,0 -0.003,0.004 -0.004,0.009 z m 0.395,13.272 -0.012,-0.002 c 0.004,0 0.009,-0.002 0.013,-0.002 0,0.002 0,0.002 -0.001,0.004 z m 0.048,8.855 c -0.006,-0.015 -0.009,-0.027 0.007,-0.041 0.006,0.012 0.013,0.022 0.019,0.034 -0.007,0 -0.016,0.002 -0.026,0.007 z M 83.455,45 c -0.001,-0.002 -0.001,-0.002 -0.002,-0.002 0.002,0 0.004,-0.003 0.006,-0.005 -0.001,0.003 -0.003,0.005 -0.004,0.007 z m 0.663,15.998 c 0.003,-0.005 0.007,-0.009 0.01,-0.013 0.002,0 0.003,-0.002 0.004,-0.002 0.003,0.002 0.004,0.004 0.005,0.006 -0.006,0.002 -0.013,0.004 -0.019,0.009 z m 0.014,-2.859 c -0.003,0.004 -0.005,0.006 -0.007,0.01 -0.002,-0.008 -0.002,-0.018 -0.004,-0.025 -10e-4,-0.006 -0.003,-0.012 -0.005,-0.018 0.007,0.01 0.014,0.021 0.021,0.025 -0.002,0.004 -0.003,0.006 -0.005,0.008 z m 0.083,-8.201 c -0.004,0.004 -0.007,0.01 -0.011,0.017 -0.002,-0.005 -0.003,-0.009 -0.005,-0.013 0.005,-0.002 0.01,-0.006 0.015,-0.01 0.001,0.002 0.001,0.004 0.001,0.004 0,0 0,10e-4 0,0.002 z m 0.815,2.101 c 0.003,0 0.007,0 0.011,0 l 0.001,0.002 c -0.004,0 -0.008,-0.002 -0.012,-0.002 z m 0.429,5.092 c 0.003,-0.004 0.006,-0.008 0.008,-0.015 0.004,0.007 0.008,0.013 0.012,0.019 -0.008,-0.002 -0.013,-0.002 -0.02,-0.004 z m 0.376,-2.34 c 0.001,-0.002 0.002,-0.005 0.002,-0.007 10e-4,0.003 0.003,0.005 0.005,0.007 -0.003,0 -0.005,0 -0.007,0 z m 0.126,-9.77 c 0.001,-0.006 0.002,-0.012 0.002,-0.018 0.004,0 0.007,0 0.01,-0.002 -0.005,0.009 -0.008,0.015 -0.012,0.02 z m 0.512,3.907 c 0.001,-0.004 0.001,-0.01 0.002,-0.014 0.002,0.004 0.005,0.006 0.007,0.008 -0.003,0.002 -0.006,0.004 -0.009,0.006 z m 0.305,1.891 c 0,0 0,0.002 -0.001,0.002 0.005,-0.008 0.01,-0.016 0.014,-0.021 -0.004,0.007 -0.008,0.012 -0.013,0.019 z m 0.03,11.586 v -0.002 c 10e-4,0.002 10e-4,0.002 0,0.002 l 0,0 z m 0,-13.134 c 0,0 0,0 0,-0.002 10e-4,0 0.002,0 0.003,0.002 -0.001,0 -0.002,0 -0.003,0 z m 0.16,13.384 c 0.002,0 0.005,0 0.007,0 0.001,0.004 0.001,0.011 0.001,0.015 -0.003,-0.004 -0.005,-0.011 -0.008,-0.015 z m 0.678,-5.291 c 0.007,0.002 0.014,0.004 0.02,0.006 -0.006,0.005 -0.013,0.011 -0.02,0.015 0,-0.006 0,-0.012 0,-0.021 z m -0.001,0.117 c 0.001,-0.004 0.001,-0.01 0.002,-0.014 0.009,0.006 0.015,0.014 0.021,0.02 -0.008,-0.002 -0.016,-0.004 -0.023,-0.006 z m 0.074,-14.723 c -10e-4,0 -0.002,0 -0.002,-0.002 0.008,-0.008 0.017,-0.019 0.026,-0.027 l -0.024,0.029 z m 0.206,2.895 c -0.005,-0.03 -0.011,-0.062 -0.019,-0.092 -0.05,0.025 10e-4,-0.055 0.006,-0.021 0.006,0.016 0.011,0.028 0.015,0.045 0,0.021 0,0.046 -0.002,0.068 z"
       id="path253" /><line
       style="fill:none"
       x1="57.691002"
       y1="34.041"
       x2="57.691002"
       y2="34.041"
       id="line255" /><line
       style="fill:none"
       x1="57.692001"
       y1="34.041"
       x2="57.691002"
       y2="34.041"
       id="line257" /></g></svg>