<?xml version="1.0" encoding="utf-8"?>
<!-- Generator: Adobe Illustrator 16.0.0, SVG Export Plug-In . SVG Version: 6.00 Build 0)  -->
<!DOCTYPE svg PUBLIC "-//W3C//DTD SVG 1.1//EN" "http://www.w3.org/Graphics/SVG/1.1/DTD/svg11.dtd">
<svg version="1.1" id="Calque_1" xmlns="http://www.w3.org/2000/svg" xmlns:xlink="http://www.w3.org/1999/xlink" x="0px" y="0px"
	 width="100px" height="100px" viewBox="0 0 100 100" enable-background="new 0 0 100 100" xml:space="preserve">
<g>
	<path d="M84.013,41.098c0.01,0.011,0.017,0.02,0.037,0.035c-0.019-0.014-0.028-0.033-0.04-0.051
		C84.012,41.087,84.012,41.092,84.013,41.098z"/>
	<path d="M84.05,41.133c0-0.116,0-0.232,0-0.348c-0.069-0.037-0.139-0.076-0.208-0.113c0.008,0.016,0.008,0.021-0.014-0.007
		c0.091,0.12,0.143,0.253,0.178,0.393C84.025,41.063,84.05,41.082,84.05,41.133z"/>
	<path d="M43.323,63.839c-0.255,0.034-0.628-0.183-0.7,0.201c-0.086,0.466,0.28,0.376,0.593,0.427c-0.281-0.045,0.193-0.109,0,0
		c0.193-0.109,0.53,0.116,0.614-0.189c0.038-0.139,0.039-0.381-0.12-0.45C43.589,63.774,43.446,63.822,43.323,63.839z
		 M43.187,64.301c-0.163,0.01-0.477,0.017-0.375-0.252c0.058-0.148,0.282-0.067,0.398-0.109c0.162,0.045,0.482-0.084,0.45,0.199
		C43.637,64.355,43.334,64.291,43.187,64.301z"/>
	<path d="M43.21,63.939C43.069,63.99,43.381,63.987,43.21,63.939L43.21,63.939z"/>
	<path d="M50.486,81.004c-0.019-0.012-0.039-0.019-0.053-0.006c0.01,0.006,0.01,0.004,0.018,0.01
		C50.467,81.01,50.474,81.004,50.486,81.004z"/>
	<path d="M49.288,80.267c0.008,0.007,0.015,0.007,0.023,0.014C49.702,80.395,49.304,80.262,49.288,80.267z"/>
	<path d="M49.311,80.28c-0.021-0.009-0.037-0.009-0.055-0.011C49.245,80.283,49.257,80.309,49.311,80.28z"/>
	<path d="M50.554,80.908c-0.075-0.133-0.439-0.278-0.522-0.322c-0.231-0.121-0.469-0.232-0.72-0.306
		c-0.068,0.034-0.136,0.071-0.205,0.105c-0.015,0.008-0.027-0.003-0.042,0c-0.009,0.012-0.018,0.023-0.026,0.036
		c0.257,0.146,0.529,0.268,0.807,0.373c0.078,0.029,0.424,0.189,0.604,0.213c-0.006-0.004-0.01-0.006-0.016-0.01
		C50.492,80.946,50.522,80.918,50.554,80.908z"/>
	<path d="M77.092,43.928c-0.045,0.08-0.114,0.168-0.217,0.155c-0.098-0.012-0.177-0.087-0.26-0.133
		c-0.107-0.06-0.148,0.051-0.269-0.001c-0.002-0.001-0.004-0.003-0.006-0.004c0.157,0.08,0.272,0.232,0.432,0.311
		c0.239,0.119,0.378-0.158,0.45-0.341c-0.002,0-0.004,0-0.006,0C77.176,43.94,77.134,43.954,77.092,43.928z"/>
	<path d="M34.582,65.688c-0.009,0-0.011-0.008-0.019-0.008C34.562,65.693,34.565,65.701,34.582,65.688z"/>
	<path d="M34.26,65.431c-0.036-0.055-0.071-0.11-0.106-0.166c-0.039-0.019-0.071-0.044-0.136-0.04c0.036-0.002,0.068,0.176,0,0
		c0.086,0.221,0.159,0.451,0.26,0.666c0.122,0.262,0.258-0.113,0.305-0.203C34.355,65.865,34.337,65.552,34.26,65.431z"/>
	<path d="M40.459,39.326c0.266-0.033,0.488,0.049,0.633,0.282c-0.248-0.597-0.666-0.313-1.05-0.203c0.016,0.002,0.034,0,0.05,0.001
		c0.004-0.002,0.005-0.011,0.01-0.012C40.222,39.371,40.339,39.34,40.459,39.326z"/>
	<path d="M50.554,80.908c-0.031,0.01-0.062,0.038-0.12,0.09c0.014-0.013,0.034-0.006,0.053,0.006
		c0.037,0.023,0.053,0.059-0.035,0.004c-0.008-0.006-0.008-0.004-0.018-0.01c0.006,0.004,0.01,0.006,0.016,0.01
		c0.182,0.121,0.357,0.211,0.564,0.074c-0.1-0.046-0.199-0.092-0.299-0.137C50.631,80.906,50.592,80.895,50.554,80.908z"/>
	<path d="M59.768,43.368c0.035-0.023,0.059,0.036-0.041,0.084c0.136-0.066,0.265-0.175,0.215-0.342
		c-0.043-0.143-0.18-0.137-0.301-0.12c0.07,0.015,0.201,0.062-0.033,0.004C59.881,43.062,59.875,43.21,59.768,43.368z"/>
	<path d="M59.731,43.42c-0.002,0.011-0.003,0.021-0.005,0.032c0.006-0.032,0.017-0.046,0.025-0.061
		C59.745,43.401,59.74,43.411,59.731,43.42z"/>
	<path d="M51.195,81.262c0.115,0.195,0.29,0.211,0.598,0.227C51.543,81.305,51.402,81.2,51.195,81.262z"/>
	<path d="M49.311,80.28c-0.054,0.028-0.066,0.003-0.055-0.011C49.264,80.26,49.281,80.255,49.311,80.28
		c-0.008-0.007-0.015-0.007-0.023-0.014c-0.09-0.068-0.167-0.081-0.247-0.062c0.025,0.035,0.031,0.072-0.023,0.115
		c-0.037,0.029-0.105,0.021-0.178,0.002c0.075,0.043,0.147,0.078,0.224,0.063c0.014-0.003,0.027,0.008,0.042,0
		C49.175,80.352,49.243,80.314,49.311,80.28z"/>
	<path d="M23.497,59.809c-0.092-0.041-0.195-0.088-0.209-0.08c-0.003,0.045,0.007,0.092,0.02,0.139
		C23.354,59.819,23.422,59.812,23.497,59.809z"/>
	<polygon points="24.644,45.092 24.646,45.092 24.648,45.089 	"/>
	<path d="M24.648,45.089c-0.073-0.04-0.187-0.131-0.27-0.119c0,0.015-0.003,0.03-0.003,0.045c-0.004,0.139,0.092,0.14,0.2,0.105
		C24.572,45.1,24.599,45.063,24.648,45.089z"/>
	<path d="M19.144,23.307c-0.093,0.173-0.191,0.324-0.136,0.583C19.192,23.684,19.237,23.519,19.144,23.307z"/>
	<path d="M60.219,46.63c0.002,0,0.003,0,0.004,0C60.25,46.63,60.261,46.63,60.219,46.63z"/>
	<path d="M60.223,46.63c-0.12,0-0.728,0.001-0.004,0c-0.475,0.001-0.947,0.003-1.422,0.003c-0.252,0-0.506,0-0.758-0.002
		c-0.207-0.001-0.455-0.044-0.656,0.016c-0.146,0.045-0.226,0.173-0.273,0.311c-0.084,0.237-0.169,0.472-0.256,0.707
		c-0.173,0.469-0.344,0.939-0.527,1.403c-0.711,1.804-1.424,3.608-2.137,5.413c-0.212-0.339-0.339-0.792-0.495-1.168
		c-0.187-0.445-0.371-0.891-0.557-1.336c-0.304-0.988-0.689-1.949-1.103-2.895c-0.199-0.456-0.35-0.938-0.521-1.404
		c-0.086-0.234-0.172-0.469-0.258-0.703c-0.067-0.183-0.145-0.348-0.367-0.347c-1.038,0.006-2.076,0.002-3.114,0.002
		c2.13,4.747,4.303,9.472,6.399,14.235c1.104-2.453,2.201-4.905,3.299-7.359c0.572-1.279,1.141-2.56,1.721-3.834
		c0.284-0.625,0.567-1.252,0.855-1.877c0.141-0.305,0.309-0.606,0.428-0.919C60.562,46.653,60.405,46.63,60.223,46.63z
		 M54.131,60.475c-0.01-0.025-0.019-0.051-0.027-0.075C54.174,60.393,54.183,60.417,54.131,60.475z"/>
	<path stroke="#0C528D" stroke-width="0" stroke-linecap="round" stroke-linejoin="round" d="M68.902,46.386
		c-0.078-0.013-0.171-0.028-0.228-0.038"/>
	<path d="M69.465,46.828c0.005-0.292-0.287-0.39-0.559-0.441c-0.061-0.01-0.143-0.024-0.275-0.046
		c-0.608-0.103-1.298-0.097-1.871,0.163c-0.71,0.323-1.127,0.959-1.572,1.566c-0.044-0.293-0.017-0.535,0.008-0.825
		c0.012-0.133,0.004-0.269-0.055-0.39c-0.086-0.18-0.144-0.186-0.326-0.204c-0.381-0.036-0.762-0.026-1.143-0.019
		c-0.191,0.003-0.382,0.006-0.572,0.002c-0.165-0.002-0.344-0.035-0.507,0c-0.21,0.044-0.231,0.252-0.231,0.434
		c0,0.417,0.002,0.831,0.003,1.248c0.002,0.799,0.003,1.599,0.005,2.397c0.001,1.6,0.001,3.199,0,4.797
		c0,0.801-0.002,1.6-0.004,2.398c0,0.385-0.001,0.768-0.002,1.152c-0.001,0.365-0.057,0.778,0.012,1.139
		c0.038,0.207,0.199,0.266,0.393,0.266c0.395,0.003,0.789-0.023,1.186-0.021c0.336,0.002,0.688,0.057,1.023,0.028
		c0.201-0.019,0.328-0.124,0.365-0.324c0.053-0.303,0.014-0.634,0.013-0.94c-0.002-0.414-0.003-0.831-0.004-1.246
		c-0.002-0.799-0.002-1.6-0.001-2.398c0-0.799,0-1.599,0-2.397c-0.001-0.69-0.062-1.407,0.043-2.092
		c0.133-0.858,0.641-1.604,1.547-1.733c0.41-0.059,0.963-0.031,1.342,0.147c0.161,0.125,0.272,0.133,0.307-0.079
		c0.047-0.297,0.203-0.59,0.31-0.871c0.134-0.355,0.268-0.711,0.398-1.068C69.369,47.269,69.461,47.048,69.465,46.828z"/>
	<path d="M68.902,46.386c0.002,0,0.003,0.001,0.004,0.001C69.071,46.414,69.012,46.404,68.902,46.386z"/>
	<path d="M68.631,46.341c0.013,0.002,0.031,0.005,0.044,0.007C68.639,46.342,68.615,46.338,68.631,46.341z"/>
	<path stroke="#0C528D" stroke-width="0" stroke-linecap="round" stroke-linejoin="round" d="M46.444,51.354
		c0-0.002,0,0.004,0.003,0.017"/>
	<path d="M35.413,52.121C38.026,52.119,35.585,50.894,35.413,52.121L35.413,52.121z"/>
	<path d="M28.116,68.117c0.092-0.141,0.189-0.279,0.291-0.414c0.191-0.251,0.402-0.487,0.623-0.713
		c0.057-0.109,0.115-0.217,0.189-0.309c0.675-0.837,1.283-1.727,1.83-2.651c0.255-0.429,0.55-0.833,0.798-1.267
		c0.262-0.457,0.498-0.93,0.754-1.39c0.518-0.927,0.877-1.929,1.328-2.888c1.607,1.626,3.884,2.469,6.163,2.303
		c1.076-0.078,2.137-0.379,3.088-0.89c0.486-0.263,0.896-0.599,1.339-0.921c0.539-0.393,1.007-0.862,1.389-1.406
		c0.149-0.212-0.078-0.297-0.251-0.346c-0.161-0.047-0.315-0.168-0.46-0.252c-0.19-0.108-0.38-0.219-0.569-0.327
		c-0.294-0.171-0.613-0.436-0.936-0.538c-0.284-0.091-0.492,0.328-0.65,0.498c-0.415,0.445-0.911,0.811-1.457,1.078
		c-0.263,0.131-0.537,0.238-0.817,0.325c-0.143,0.046-0.289,0.085-0.435,0.12c-0.196,0.047-0.423,0.018-0.625,0.018
		c-0.355,0-0.711,0.035-1.053-0.069c-0.292-0.09-0.581-0.176-0.861-0.298c-0.489-0.212-0.946-0.502-1.324-0.881
		c-0.386-0.386-0.679-0.855-0.875-1.364c-0.068-0.179-0.41-0.858-0.071-0.94c0.421-0.102,0.927-0.024,1.355-0.025
		c0.641,0,1.282-0.002,1.923-0.002c1.25-0.001,2.5-0.002,3.75,0c1.25,0.002,2.5,0.006,3.75,0.016
		c0.356,0.003,0.549-0.123,0.515-0.496c-0.055-0.589-0.049-1.197-0.172-1.779c0-0.002,0-0.002,0-0.004l0,0
		c-0.231-1.094-0.646-2.156-1.306-3.063c-0.659-0.906-1.543-1.618-2.543-2.117c-0.269-0.134-0.473-0.303-0.78-0.358
		c0-0.083-0.856-0.286-0.956-0.311c-0.702-0.175-1.429-0.236-2.149-0.178c-0.727,0.059-1.439,0.235-2.119,0.496
		c-0.635,0.245-1.28,0.505-1.824,0.92c-0.125,0.096-0.244,0.196-0.358,0.304c-0.043,0.041-0.229,0.283-0.277,0.283
		c-0.221,0.021-0.261,0.303-0.462,0.358c-0.149,0.042-0.358-0.608-0.447-0.725c-0.193-0.256-0.315-0.563-0.478-0.843
		c-0.18-0.311-0.379-0.611-0.593-0.898c-0.199-0.268-0.411-0.524-0.634-0.771c-0.107-0.118-0.177-0.252-0.275-0.378
		c-0.112-0.144-0.263-0.244-0.377-0.381c-0.458-0.549-0.964-1.057-1.5-1.53c-0.255-0.225-0.538-0.426-0.783-0.661
		c-0.25-0.239-0.496-0.482-0.767-0.696c-0.125-0.099-0.256-0.191-0.393-0.272c-0.132-0.079-0.303-0.133-0.341-0.285
		c-0.023-0.094-0.076-0.089-0.13-0.053c-0.005,0.009,0.001,0.018-0.005,0.029c-0.317,0.527-0.825,0.925-1.061,1.503
		c-0.006,0.008-0.011,0.017-0.017,0.025c0.047,0.039,0.107,0.047,0.138,0.112c0.075,0.159,0.184,0.217,0.328,0.302
		c0.132,0.077,0.229,0.226,0.347,0.327c0.106,0.088,0.196,0.182,0.268,0.298c0.018,0.028,0.041,0.051,0.059,0.078
		c0.055,0.041,0.109,0.083,0.162,0.125c0.118,0.097,0.231,0.201,0.335,0.312c0.135,0.146,0.383,0.412,0.34,0.627
		c0.001,0.002,0.002,0.003,0.003,0.005c0.065,0.055,0.216,0.061,0.252,0.098c-0.121,0.249,0.213,0.537,0.341,0.718
		c0.217,0.304,0.422,0.618,0.651,0.913c0.091,0.117,0.239,0.232,0.253,0.367c0.007,0.069,0.041,0.124,0.076,0.178
		c0.135,0.014,0.193,0.073,0.283,0.195c0.171,0.233,0.315,0.485,0.414,0.757c0.034,0.095,0.062,0.192,0.084,0.29
		c0.065,0.104,0.131,0.208,0.198,0.312c0.019,0.15,0.088,0.275,0.15,0.411c0.057,0.166,0.144,0.328,0.185,0.499
		c0.045,0.184,0.036,0.371,0.078,0.556c0.074,0.329,0.154,0.66,0.297,0.966c0.07,0.151,0.175,0.283,0.241,0.435
		c0.08,0.185,0.092,0.398,0.105,0.597c0.02,0.301,0.127,0.627,0.072,0.929c0.014,0.013,0.025,0.033,0.032,0.073
		c0.015,0.086,0.033,0.17,0.049,0.256c0.032,0.172,0.062,0.343,0.072,0.516c0.013,0.206-0.006,0.413-0.073,0.607
		c-0.039,0.04-0.085,0.064-0.132,0.088c-0.001,0.012-0.005,0.023-0.006,0.035c-0.007,0.186-0.018,0.37-0.033,0.556
		c-0.032,0.399-0.082,0.796-0.144,1.192c-0.12,0.761-0.287,1.514-0.473,2.261c-0.053,0.214-0.099,0.429-0.146,0.644
		c0.117,0.119,0.08,0.254,0.034,0.432c-0.043,0.162-0.102,0.321-0.17,0.476c-0.035,0.079-0.139,0.429-0.252,0.254
		c-0.001,0.001-0.002,0.001-0.003,0.001c-0.028,0.051-0.059,0.1-0.082,0.152c-0.153,0.355-0.28,0.721-0.43,1.077
		c-0.073,0.173-0.394,0.676-0.136,0.83c-0.166-0.093-0.47,0.494-0.522,0.62c-0.068,0.164-0.103,0.338-0.139,0.51
		c0.011,0.016,0.028,0.023,0.037,0.039c0.042,0.393-0.114,0.723-0.474,0.883c-0.055,0.09-0.101,0.18-0.141,0.297
		c-0.132,0.377-0.416,0.739-0.62,1.082c-0.776,1.312-1.644,2.561-2.539,3.793c-0.891,1.227-1.819,2.428-2.801,3.584
		c-1.02,1.2-2.037,2.406-3.139,3.529c-0.354,0.363-0.709,0.725-1.063,1.086c-0.341,0.348-0.669,0.763-1.055,1.062
		c-0.156,0.12-0.307,0.256-0.398,0.435c-0.095,0.076-0.236,0.093-0.31,0.197c-0.061,0.086-0.007,0.129-0.108,0.183
		c-0.085,0.047-0.163,0.104-0.234,0.17c-0.159,0.147-0.279,0.33-0.391,0.515c0.2-0.105,0.432-0.188,0.577-0.369
		c0.078-0.1,0.117-0.219,0.125-0.343c0.139,0.003,0.285-0.021,0.383-0.128c0.061-0.064,0.062-0.098,0.143-0.143
		c0.066-0.035,0.127-0.081,0.183-0.131c0.116-0.104,0.209-0.229,0.318-0.337c0.267-0.267,0.548-0.502,0.836-0.743
		c0.56-0.471,1.096-0.967,1.606-1.49c0.124-0.123,0.244-0.252,0.364-0.379c0-0.016,0.183-0.125,0.201-0.184
		c0.039-0.137,0.237-0.23,0.35-0.325c0.153-0.13,0.3-0.266,0.443-0.405c1.055-1.036,2.098-2.104,3.086-3.205
		c0.239-0.265,0.474-0.537,0.702-0.814c0.245-0.299,0.516-0.566,0.777-0.85c0.499-0.541,0.963-1.112,1.396-1.707
		c0.182-0.205,0.364-0.41,0.546-0.613c0.003-0.014,0.001-0.024,0.011-0.041C28.025,68.26,28.07,68.188,28.116,68.117z
		 M45.222,57.219c0.042,0.018,0.031,0.027-0.033,0.027C45.199,57.236,45.21,57.229,45.222,57.219z M37.571,60.332
		c-0.164,0.039-0.32,0.021-0.469-0.028C37.252,60.326,37.409,60.337,37.571,60.332z M46.644,53.361
		c-0.021-0.152-0.042-0.302-0.064-0.451C46.645,53.051,46.652,53.204,46.644,53.361z M36.731,49.811
		c0.161-0.141,0.33-0.272,0.503-0.397c0.216-0.155,0.534-0.229,0.787-0.306c0.533-0.162,1.086-0.236,1.642-0.18
		c1.751,0.177,3.19,1.484,3.592,3.189c-2.614,0.001-5.228,0.002-7.842,0.004C35.542,51.199,36.041,50.418,36.731,49.811z"/>
	<path d="M46.552,51.866c-0.062-0.296-0.095-0.45-0.104-0.496C46.459,51.425,46.505,51.643,46.552,51.866z"/>
	<path d="M46.552,51.866c0.026,0.122,0.055,0.261,0.093,0.438l0,0C46.625,52.209,46.589,52.037,46.552,51.866z"/>
	<path d="M46.646,52.307c0,0.001,0,0.002,0,0.002C46.664,52.395,46.668,52.416,46.646,52.307z"/>
	<polygon points="46.646,52.307 46.645,52.305 46.645,52.305 	"/>
	<path d="M83.939,48.529c0-0.386,0-0.772,0-1.159c0-0.192,0-0.386,0-0.579c0-0.241-0.264-0.116-0.421-0.11
		c-0.378-0.043-0.757-0.063-1.136-0.061c-0.189,0.001-0.379,0.007-0.568,0.019c-0.176,0.012-0.376,0.066-0.546,0.02
		c-0.188-0.052-0.318,0.002-0.329,0.206c-0.016,0.305,0.001,0.616-0.001,0.922c-0.008,1.594-0.015,3.188-0.022,4.784
		c-0.004,0.797-0.008,1.594-0.012,2.391c-0.004,0.582-0.191,1.131-0.496,1.628c-0.666,1.089-1.834,1.397-3.045,1.405
		c-0.336,0.001-0.699-0.014-1.008-0.15c-0.344-0.152-0.711-0.273-1-0.518c-0.432-0.371-0.738-0.857-0.9-1.402
		c-0.2-0.668-0.154-1.361-0.152-2.05c0.002-0.806,0.004-1.608,0.006-2.413s0.004-1.608,0.006-2.413
		c0.002-0.385,0.002-0.771,0.002-1.158c0.001-0.192,0.002-0.386,0.002-0.579c0.001-0.163,0.047-0.397-0.016-0.551
		c-0.061-0.148-0.328-0.09-0.455-0.092c-0.189-0.002-0.378-0.003-0.566-0.006c-0.409-0.005-0.818-0.012-1.227-0.03
		c-0.189-0.009-0.471-0.062-0.624,0.088c-0.175,0.17-0.114,0.519-0.112,0.732c0.012,1.591,0.008,3.181,0.008,4.772
		c0,0.795,0.001,1.591,0.004,2.387c0.004,0.731,0.057,1.45,0.271,2.154c0.102,0.33,0.248,0.637,0.376,0.955
		c0.13,0.321,0.329,0.582,0.514,0.87c0.358,0.558,0.824,0.904,1.347,1.29c1.809,1.334,4.471,1.219,6.281-0.047
		c0.186-0.129,0.362-0.271,0.528-0.425c0.149-0.14,0.28-0.371,0.489-0.423c-0.025,0.627-0.012,1.264-0.191,1.869
		c-0.15,0.513-0.422,0.981-0.795,1.363c-0.188,0.191-0.396,0.361-0.62,0.508c-0.309,0.205-0.667,0.301-1.022,0.393
		c-0.178,0.045-0.356,0.082-0.537,0.109c-0.082,0.014-0.19,0-0.27,0.029c-0.102,0.035-0.036,0.202-0.043,0.276
		c-0.021,0.215-0.035,0.432-0.045,0.647c-0.014,0.37-0.011,0.74,0.01,1.111c0.008,0.141-0.041,0.73,0.148,0.773
		c0.141,0.034,0.352-0.021,0.494-0.034c0.222-0.021,0.441-0.055,0.66-0.099c0.941-0.195,1.849-0.592,2.627-1.156
		c0.625-0.453,1.166-1.02,1.562-1.684c0.203-0.341,0.366-0.704,0.487-1.082c0.066-0.217,0.129-0.438,0.186-0.656
		c0.035-0.13,0.059-0.264,0.055-0.398c-0.006-0.132,0.052-0.242,0.098-0.364c-0.035,0.094,0-4.633,0,0c0-3.217,0-6.435,0-9.651
		C83.939,50.138,83.939,49.333,83.939,48.529z"/>
	<path stroke="#0C528D" stroke-width="0" stroke-linecap="round" stroke-linejoin="round" d="M27.149,36.106
		c0,0-0.009,0.01-0.024,0.026"/>
	<path d="M27.125,36.132c-0.03,0.033-0.088,0.096-0.188,0.204l0,0C27.017,36.249,27.088,36.172,27.125,36.132z"/>
	<path d="M26.936,36.337C26.936,36.337,26.936,36.337,26.936,36.337C26.659,36.637,26.29,37.038,26.936,36.337z"/>
	<polygon points="26.936,36.337 26.937,36.336 26.937,36.336 	"/>
	<path d="M24.555,36.941c0.846,0.403,1.775,0.052,2.38-0.604c0,0,0.001,0,0.001-0.001l0,0c0.884-0.959,1.257-2.29,1.178-3.579
		c-0.067-1.089-0.609-2.438-1.78-2.729c-1.053-0.263-2.008,0.514-2.523,1.363c-0.588,0.969-0.812,2.186-0.652,3.306
		C23.285,35.583,23.704,36.536,24.555,36.941z"/>
	<path d="M20.341,37.196c0.419,0.573,0.897,1.103,1.435,1.567c0.524,0.454,0.96,0.966,1.5,1.404c0.221,0.18,0.426,0.388,0.659,0.551
		c0.133,0.095,0.274,0.145,0.42,0.048c0.195-0.131,0.341-0.352,0.486-0.532c0.112-0.139,0.193-0.307,0.334-0.417
		c0.091-0.071,0.151-0.168,0.063-0.268c-0.169-0.19-0.424-0.338-0.62-0.5c-0.285-0.234-0.568-0.474-0.847-0.718
		c-0.534-0.466-1.053-0.95-1.548-1.458c-0.497-0.509-0.969-1.041-1.407-1.601c-0.458-0.585-0.812-1.258-1.158-1.915
		c-0.38-0.72-0.642-1.497-0.826-2.288c-0.181-0.78-0.333-1.583-0.318-2.381c0.007-0.441,0.015-0.882,0.022-1.324
		c0.004-0.219,0.034-0.414,0.06-0.629c0.024-0.204-0.003-0.404,0.026-0.608c0.062-0.427,0.123-0.854,0.184-1.281
		c0.013-0.091,0.026-0.183,0.04-0.274c0.055-0.038,0.104-0.087,0.123-0.152c0.039-0.129-0.03-0.277-0.08-0.394
		c-0.033,0.113-0.093,0.212-0.137,0.321c-0.043,0.106-0.008,0.201-0.053,0.304c-0.114,0.271-0.199,0.551-0.269,0.835
		c-0.144,0.581-0.253,1.174-0.36,1.763c-0.228,1.257-0.355,2.538-0.256,3.814C17.992,33.335,18.83,35.482,20.341,37.196z"/>
	<path d="M20.341,37.196C19.16,35.856,20.779,37.794,20.341,37.196L20.341,37.196z"/>
	<path d="M83.842,40.672c-0.031-0.062-0.221-0.359-0.014-0.007C83.85,40.693,83.85,40.688,83.842,40.672z"/>
	<path d="M84.01,41.082c-0.002-0.008-0.002-0.016-0.004-0.023c-0.035-0.139-0.087-0.273-0.178-0.393
		c-0.332-0.566-0.723-0.952-1.322-1.229c-0.547-0.252-1.252-0.234-1.819-0.058c-1.083,0.338-1.81,1.365-1.759,2.5
		c0.052,1.171,0.908,2.153,2.059,2.371c0.553,0.104,1.139,0.048,1.662-0.163c0.238-0.097,0.465-0.226,0.664-0.391
		c0.111-0.092,0.51-0.417,0.436-0.583c-0.117-0.267-0.517-0.361-0.774-0.316c-0.319,0.056-0.55,0.34-0.854,0.452
		c-0.569,0.211-1.251,0.102-1.668-0.36c-0.105-0.117-0.379-0.45-0.278-0.628c0.05-0.09,0.188-0.098,0.278-0.101
		c0.246-0.008,0.494,0.007,0.74,0.009c0.953,0.01,1.905,0.004,2.858,0.007c0-0.346,0.04-0.731-0.037-1.078
		C84.012,41.092,84.012,41.087,84.01,41.082z M82.158,41.096C82.091,41.095,81.605,41.094,82.158,41.096
		c-0.635-0.002-1.271,0.021-1.905-0.012c0.083-0.067,0.167-0.158,0.153-0.274c-0.001-0.012-0.033-0.146-0.055-0.129
		c0.154,0.029,0.282-0.052,0.413-0.137c0.239-0.154,0.546-0.21,0.825-0.18c0.25,0.028,0.492,0.129,0.671,0.308
		C82.461,40.872,82.512,41.095,82.158,41.096z"/>
	<path d="M49.879,40.602c0.184,0.407,0.368,0.812,0.55,1.219c0.379,0.838,0.758,1.677,1.137,2.515l1.141-2.515
		c0.184-0.407,0.368-0.813,0.551-1.22c0.086-0.188,0.171-0.376,0.256-0.564c0.064-0.142,0.209-0.344,0.186-0.509
		c-0.031-0.23-0.53-0.175-0.689-0.156c-0.262,0.031-0.469,0.167-0.585,0.407c-0.16,0.335-0.224,0.729-0.359,1.077
		c-0.159,0.409-0.337,0.811-0.495,1.22c-0.156-0.401-0.327-0.795-0.486-1.195c-0.138-0.344-0.222-0.715-0.369-1.054
		c-0.11-0.252-0.308-0.423-0.582-0.461c-0.147-0.021-0.662-0.062-0.701,0.148c-0.027,0.143,0.099,0.322,0.155,0.445
		C49.685,40.172,49.782,40.388,49.879,40.602z"/>
	<path d="M41.186,39.587c0.114-0.082-0.334-0.365-0.093,0.021c-0.145-0.233-0.368-0.315-0.633-0.282
		c-0.12,0.015-0.238,0.045-0.357,0.068c-0.004,0.001-0.005,0.01-0.01,0.012c-0.108,0.049-0.084,0.445-0.091,0.564
		c-0.041,0.789-0.024,1.577-0.014,2.365c0.005,0.378,0.007,0.757,0.001,1.135c-0.003,0.2-0.104,0.629,0.175,0.693
		c0.16,0.036,0.351,0.004,0.516,0.011c0.257,0.009,0.386-0.122,0.38-0.383c-0.021-0.79-0.015-1.58,0.005-2.371
		c0.013-0.498,0.283-0.927,0.777-1.06c0.436-0.117,1.004-0.054,1.272,0.349c0.139,0.21,0.171,0.457,0.183,0.703
		c0.019,0.411,0.025,0.821,0.025,1.232c0,0.285-0.002,0.569-0.005,0.853c-0.002,0.174-0.031,0.395,0.087,0.542
		c0.16,0.199,0.623,0.178,0.831,0.078c0.135-0.065,0.168-0.212,0.17-0.351c0.005-0.271-0.014-0.544-0.014-0.816
		c0-0.56,0.013-1.121-0.002-1.68c-0.021-0.721-0.34-1.441-0.994-1.797c-0.309-0.167-0.662-0.238-1.012-0.223
		c-0.207,0.008-0.407,0.043-0.599,0.127C41.591,39.461,41.397,39.56,41.186,39.587z"/>
	<path d="M63.994,39.286c0.001,0,0.001,0,0.002,0C63.946,39.285,63.963,39.285,63.994,39.286z"/>
	<path d="M62.332,44.059c0.141,0.155,0.433,0.126,0.618,0.108c0.19-0.019,0.335-0.098,0.367-0.3
		c0.056-0.336-0.007-0.715-0.008-1.055c-0.003-0.385,0.003-0.77,0.007-1.155c0.004-0.31-0.053-0.683,0.081-0.974
		c0.091-0.195,0.271-0.309,0.478-0.348c0.305-0.059,0.545-0.071,0.73-0.361c0.117-0.183,0.184-0.53-0.029-0.678
		c-0.166-0.115-0.398-0.01-0.58-0.011c0.165,0,0.057,0-0.002,0c-0.242,0-0.475,0.326-0.698,0.244
		c-0.229-0.084-0.403-0.271-0.67-0.202c-0.206,0.054-0.317,0.251-0.353,0.448c-0.068,0.364-0.02,0.771-0.02,1.14
		c0,0.791,0.021,1.583,0.005,2.373C62.254,43.508,62.166,43.873,62.332,44.059z"/>
	<path d="M73.025,41.5c0-0.564,0.068-1.177-0.021-1.735c-0.05-0.305-0.229-0.492-0.55-0.416c-0.091,0.02-0.179,0.055-0.265,0.093
		c-0.168,0.077-0.188,0.097-0.204,0.285c-0.027,0.317-0.044,0.635-0.054,0.953c-0.019,0.635-0.008,1.271,0.004,1.908
		c0.006,0.317,0.012,0.635,0.016,0.953c0.001,0.159,0.002,0.318,0.001,0.477c-0.001,0.125,0.146,0.116,0.231,0.124
		c0.195,0.018,0.583,0.111,0.745-0.054c0.167-0.171,0.101-0.571,0.1-0.781c0-0.003,0-0.007,0-0.01
		C73.025,42.697,73.025,42.099,73.025,41.5z"/>
	<path stroke="#E88018" stroke-width="0" stroke-linecap="round" stroke-linejoin="round" d="M37.708,42.606
		c0,0.019,0,0.027,0,0.027"/>
	<path stroke="#E88018" stroke-width="0" stroke-linecap="round" stroke-linejoin="round" d="M37.722,42.05
		c0-0.002,0,0.014-0.001,0.053"/>
	<path d="M37.711,42.513c-0.001,0.038-0.002,0.071-0.002,0.093C37.709,42.587,37.71,42.556,37.711,42.513z"/>
	<path d="M37.721,42.103c-0.001,0.036-0.002,0.085-0.003,0.14l0,0C37.719,42.176,37.72,42.134,37.721,42.103z"/>
	<path d="M37.714,42.361c-0.001,0.062-0.002,0.112-0.003,0.152C37.712,42.468,37.713,42.417,37.714,42.361z"/>
	<path d="M37.714,42.361c0.001-0.038,0.002-0.072,0.003-0.119l0,0C37.716,42.281,37.715,42.32,37.714,42.361z"/>
	<path d="M37.505,39.387c-0.187-0.054-0.466-0.054-0.652,0.01c-0.234,0.079-0.221,0.338-0.212,0.543
		c0.016,0.413,0.019,0.828,0.015,1.24c-0.006,0.583,0.083,1.301-0.369,1.752c-0.344,0.343-0.913,0.396-1.334,0.167
		c-0.524-0.286-0.571-0.894-0.586-1.425c-0.012-0.379-0.018-0.757-0.013-1.136c0.003-0.287,0.109-0.715-0.025-0.983
		c-0.139-0.277-0.881-0.306-0.992,0.002c-0.056,0.154-0.025,0.333-0.021,0.492c0.007,0.28,0.001,0.56-0.002,0.841
		c-0.004,0.502-0.037,1.034,0.017,1.539c0.076,0.718,0.501,1.355,1.153,1.672c1.407,0.686,3.196-0.24,3.234-1.857l0,0
		c0.019-0.777-0.016-1.556,0.008-2.333C37.731,39.708,37.742,39.454,37.505,39.387z"/>
	<path d="M35.241,63.172c-0.158,0.014-0.272,0.127-0.336,0.267c-0.188,0.405-0.255,0.833-0.535,1.198
		c-0.101-0.249-0.202-0.496-0.303-0.744c-0.079-0.195-0.139-0.485-0.3-0.631c-0.129-0.117-0.316-0.11-0.472-0.057
		c-0.199,0.068-0.175,0.195-0.073,0.34c0.129,0.183,0.201,0.408,0.294,0.611c0.114,0.247,0.23,0.494,0.347,0.74
		c0.052,0.108,0.103,0.219,0.154,0.328c0.037,0.027,0.076,0.031,0.117,0.01c0.006,0.01,0.013,0.02,0.019,0.03
		c0.035,0.056,0.071,0.111,0.106,0.166c0.077,0.121,0.095,0.435,0.322,0.257c-0.017,0.014-0.021,0.006-0.019-0.008
		c0.01-0.09,0.28-0.559,0.019,0.008c0.211-0.46,0.427-0.918,0.636-1.379c0.096-0.211,0.174-0.443,0.29-0.646
		c0.052-0.091,0.178-0.219,0.129-0.335C35.583,63.203,35.361,63.162,35.241,63.172z"/>
	<path d="M71.613,63.552c-0.282-0.404-0.778-0.528-1.238-0.382c-0.061,0.02-0.046,0.014-0.002,0
		c-0.275,0.088-0.461,0.091-0.738,0.014c-0.203-0.058-0.363,0.049-0.398,0.258c-0.051,0.312,0.002,0.668,0.002,0.986
		c0.002,0.346,0,0.691-0.002,1.037c0,0.16-0.047,0.441,0.133,0.53c0.157,0.079,0.434,0.044,0.509-0.134
		c0.103-0.24,0.036-0.6,0.042-0.857c0.002-0.137,0.095-0.89-0.013-0.938c0.005-0.009,0.03,0.018,0.034,0.022
		c0.084-0.068,0.168-0.136,0.258-0.194c0.107-0.071,0.227-0.137,0.357-0.145c0.121-0.007,0.232,0.043,0.332,0.107
		c0.062,0.043,0.267,0.263,0.312,0.205c-0.027-0.027-0.027,0.279-0.027,0.312c0.005,0.189,0.01,0.379,0.014,0.568
		c0.007,0.278-0.055,0.66,0.043,0.922c0.07,0.189,0.331,0.188,0.491,0.124c0.235-0.093,0.147-0.493,0.153-0.691
		C71.896,64.728,71.956,64.047,71.613,63.552z"/>
	<path d="M70.373,63.17h0.002C70.868,63.012,70.498,63.13,70.373,63.17z"/>
	<path d="M37.494,66.073c0.38,0.083,0.71-0.054,1.081-0.104c0.25-0.034,0.695,0.211,0.836-0.104c0.083-0.185,0.037-0.43,0.034-0.626
		c-0.003-0.251-0.003-0.502-0.002-0.755c0.001-0.22,0.003-0.439,0.005-0.661c0.001-0.173,0.038-0.396-0.056-0.555
		c-0.084-0.142-0.215-0.085-0.343-0.05c-0.207,0.055-0.417,0.023-0.622-0.02c-0.689-0.145-1.423-0.09-1.769,0.615
		c0,0.002,0,0.002,0,0.002c0,0.001-0.002,0.004-0.002,0.002c0.001-0.001,0.001-0.002,0.002-0.004
		c-0.036-0.033-0.271,0.602-0.279,0.682c-0.04,0.367,0.103,0.725,0.312,1.023C36.882,65.797,37.162,66.002,37.494,66.073z
		 M37.278,64.045c0.273-0.34,0.673-0.363,1.065-0.242c0.104,0.033,0.164,0.123,0.237,0.201c0.121,0.128,0.17,0.172,0.179,0.351
		c0.011,0.242-0.001,0.487-0.093,0.714c0.031-0.066,0.078-0.146-0.012,0.047c-0.169,0.205-0.355,0.319-0.628,0.347
		c-0.218,0.021-0.555-0.024-0.695-0.21C37.043,64.87,36.958,64.441,37.278,64.045z"/>
	<path d="M36.69,65.52C36.312,64.977,37.025,66.002,36.69,65.52L36.69,65.52z"/>
	<path d="M38.655,65.115c0.007-0.016,0.006-0.031,0.012-0.047C38.65,65.104,38.638,65.137,38.655,65.115z"/>
	<path d="M80.795,38.796L80.795,38.796C80.865,38.846,80.829,38.82,80.795,38.796z"/>
	<path d="M80.795,38.796c0.066,0.046,0.219,0.004,0.289-0.007c0.197-0.031,0.393-0.078,0.586-0.128
		c0.294-0.076,0.701-0.144,0.947-0.336c0.107-0.083,0.078-0.397,0.053-0.516c-0.062-0.294-0.569-0.044-0.739,0.001
		c-0.181,0.049-0.362,0.097-0.543,0.145c-0.173,0.047-0.417,0.067-0.565,0.172C80.659,38.242,80.625,38.673,80.795,38.796
		L80.795,38.796z"/>
	<path d="M80.795,38.796L80.795,38.796C80.763,38.772,80.732,38.751,80.795,38.796z"/>
	<path d="M41.794,65.52c-0.128-0.098-0.263-0.138-0.353-0.283c-0.08-0.133-0.101-0.291-0.106-0.444
		c-0.014-0.419-0.001-0.839-0.001-1.258c0-0.214-0.001-0.43-0.001-0.646c0-0.143,0.032-0.349-0.081-0.465
		c-0.089-0.092-0.26-0.1-0.375-0.064c-0.141,0.043-0.168,0.18-0.172,0.309c-0.012,0.434,0.006,0.881,0.007,1.304
		c0,0.224,0.002,0.448,0.001,0.673c0,0.215-0.028,0.444,0.029,0.654c0.09,0.334,0.375,0.541,0.666,0.693
		C41.672,66.132,42.026,65.697,41.794,65.52z"/>
	<path d="M41.407,65.992C41.015,65.785,41.582,66.084,41.407,65.992L41.407,65.992z"/>
	<path d="M47.241,39.352C47.645,39.334,46.886,39.368,47.241,39.352L47.241,39.352z"/>
	<path d="M47.241,39.352c-0.323,0.015-0.599,0.037-0.611,0.428c-0.021,0.625,0.021,1.259,0.021,1.886
		c0,0.637-0.008,1.273-0.021,1.91c-0.008,0.391,0.082,0.68,0.528,0.582c0.147-0.032,0.302,0.051,0.447,0.001
		c0.143-0.049,0.152-0.229,0.155-0.354c0.016-0.607-0.005-1.217-0.006-1.826c-0.001-0.636,0.002-1.272,0.011-1.91
		C47.772,39.646,47.741,39.331,47.241,39.352z"/>
	<path d="M72.494,38.984C72.139,38.998,72.842,38.971,72.494,38.984L72.494,38.984z"/>
	<path d="M72.494,38.984c0.713-0.029,0.756-1.131,0.029-1.157c-0.33-0.011-0.618,0.177-0.63,0.526
		C71.879,38.719,72.118,39,72.494,38.984z"/>
	<path d="M46.751,79.02C47.366,79.215,46.597,78.939,46.751,79.02L46.751,79.02z"/>
	<path d="M49.019,80.32c0.054-0.043,0.048-0.08,0.023-0.115c-0.061-0.082-0.27-0.141-0.332-0.169
		c-0.22-0.098-0.406-0.25-0.608-0.378c-0.422-0.267-0.874-0.488-1.351-0.639c-0.154-0.08-0.309-0.161-0.462-0.241
		c-0.089-0.118-0.207-0.21-0.336-0.281c-0.291-0.157-0.596-0.272-0.886-0.437c-0.696-0.395-1.392-0.789-2.088-1.183
		c-0.334-0.19-0.668-0.38-1.003-0.568c-0.332-0.188-0.624-0.435-0.963-0.617c-0.686-0.366-1.334-0.788-1.992-1.206
		c-0.666-0.422-1.357-0.821-1.998-1.28c-0.649-0.466-1.298-0.931-1.947-1.396c-0.648-0.465-1.297-0.931-1.946-1.396
		c-0.272-0.194-0.502-0.441-0.773-0.641c-0.131-0.096-0.267-0.187-0.406-0.27c-0.153-0.142-0.307-0.281-0.462-0.418
		c-0.399-0.355-0.806-0.699-1.23-1.023c-0.439-0.336-0.806-0.719-1.187-1.12c-0.015,0.015-0.027,0.032-0.042,0.048
		c-0.221,0.226-0.432,0.462-0.623,0.713c-0.102,0.135-0.199,0.273-0.291,0.414c-0.046,0.07-0.091,0.143-0.134,0.215
		c-0.01,0.017-0.008,0.027-0.011,0.041c-0.019,0.08,0.075,0.111,0.154,0.177c0.244,0.198,0.476,0.414,0.749,0.573
		c0.301,0.177,0.56,0.422,0.837,0.637c0.588,0.457,1.196,0.889,1.816,1.301c0.298,0.197,0.599,0.393,0.901,0.582
		c0.312,0.196,0.591,0.438,0.912,0.619c0.591,0.338,1.179,0.705,1.742,1.089c0.247,0.169,0.491,0.354,0.78,0.444
		c0.335,0.205,0.673,0.408,1.011,0.609c1.301,0.772,2.628,1.505,3.998,2.148c0.828,0.389,1.613,0.874,2.44,1.271
		c0.413,0.198,0.831,0.39,1.253,0.57c0.157,0.066,0.348,0.113,0.476,0.225c0.12,0.104,0.274,0.15,0.427,0.181
		c0-0.001,0,0.001,0-0.001c0.082,0.059,1.015,0.544,1.032,0.477c0.422,0.23,0.855,0.443,1.296,0.638
		c0.248,0.108,0.5,0.21,0.754,0.302c0.05,0.018,0.177,0.078,0.291,0.107C48.914,80.341,48.982,80.35,49.019,80.32z M35.286,73.104
		c-0.066-0.022-0.073-0.046-0.021-0.069c0.007-0.02,0.02-0.033,0.039-0.042C35.294,73.03,35.289,73.067,35.286,73.104z"/>
	<path d="M67.822,63.728c-0.031-0.04-0.066-0.079-0.104-0.113c-0.026-0.053-0.062-0.019-0.103-0.083
		c-0.033-0.05-0.066-0.1-0.105-0.146c-0.062-0.076-0.135-0.147-0.222-0.196c-0.202-0.114-0.44-0.078-0.653-0.016
		c-0.133,0.04-0.248,0.077-0.379,0.114c-0.086,0.025-0.171,0.052-0.257,0.077c-0.042-0.063-0.089-0.127-0.149-0.173
		c-0.095-0.074-0.202-0.074-0.295,0.002c-0.184,0.148-0.148,0.337-0.151,0.553c-0.007,0.373-0.013,0.747-0.019,1.12
		c-0.006,0.297-0.096,0.722,0.017,1.003c0.074,0.188,0.423,0.227,0.546,0.067c0.136-0.177,0.061-0.607,0.061-0.81
		c0.001-0.298-0.052-0.621,0.053-0.908c0.042-0.114,0.109-0.219,0.195-0.306c0.164-0.164,0.271-0.157,0.494-0.136
		c0.199,0.018,0.306,0.014,0.428,0.185c0.08,0.112,0.131,0.243,0.154,0.378c0.062,0.355,0.014,0.746,0.016,1.106
		c0.002,0.224-0.053,0.553,0.252,0.577c0.358,0.03,0.371-0.209,0.378-0.497c0.008-0.32-0.021-0.64-0.001-0.96
		C67.994,64.277,68.007,63.972,67.822,63.728z"/>
	<path d="M67.718,63.614C68.141,64,67.703,63.584,67.718,63.614L67.718,63.614z"/>
	<path stroke="#E88018" stroke-width="0" stroke-linecap="round" stroke-linejoin="round" d="M46.829,38.864
		c0.001,0,0.011,0.007,0.028,0.017c0.001,0.001,0.004,0.002,0.006,0.003c0.014,0.008,0.025,0.015,0.051,0.031"/>
	<path d="M46.914,38.915c0.43,0.258,1.008-0.167,0.872-0.663c-0.137-0.5-0.799-0.586-1.049-0.148c0.002,0.002,0,0.001,0,0.005
		c-0.008-0.011-0.104,0.173-0.112,0.194c-0.026,0.077-0.035,0.158-0.019,0.238C46.641,38.706,46.774,38.831,46.914,38.915z"/>
	<path d="M46.914,38.915C47.062,39.004,46.988,38.959,46.914,38.915L46.914,38.915z"/>
	<polygon points="46.734,38.107 46.737,38.104 46.737,38.104 	"/>
	<path d="M61.442,63.818C62.072,62.861,61.137,64.231,61.442,63.818L61.442,63.818z"/>
	<path d="M63.418,63.246c-0.702-0.338-1.553-0.07-1.976,0.572c-0.547,0.739-0.104,1.835,0.703,2.177
		c0.722,0.306,1.704-0.018,2.026-0.752C64.494,64.512,64.133,63.589,63.418,63.246z M63.473,64.633
		c-0.018,0.179-0.093,0.35-0.225,0.473c-0.25,0.236-0.725,0.279-0.984,0.032c-0.345-0.325-0.112-0.771-0.076-1.155
		c0.012-0.113-0.056-0.118,0.081-0.115c0.142,0.003,0.283,0.012,0.425,0.027c0.281,0.031,0.561,0.093,0.823,0.199
		c0,0.001-0.428-0.172,0,0c0.001,0.001-0.058,0.146-0.06,0.172C63.451,64.389,63.484,64.51,63.473,64.633z"/>
	<path d="M75.844,64.047c-0.339-1.081-1.928-1.244-2.572-0.354c-0.396,0.547-0.435,1.232,0.002,1.766
		c0.119,0.237,0.305,0.426,0.582,0.445c0.189,0.018,0.299,0.008,0.436,0.146c0.17,0.074,0.355,0.086,0.535,0.043
		c0.279-0.068,0.586-0.24,0.807-0.422c0.227-0.188,0.078-0.346-0.122-0.476c-0.093-0.06-0.119-0.116-0.208-0.033
		c-0.061,0.056-0.119,0.11-0.18,0.167c-0.144,0.133-0.278,0.147-0.474,0.159c-0.343,0.021-0.7-0.048-0.833-0.406
		c-0.09-0.249,0.135-0.272,0.324-0.28c0.344-0.012,0.688,0.012,1.033-0.007c0.283-0.005,0.76,0.087,0.775-0.309
		C75.955,64.36,75.993,64.061,75.844,64.047z M75.064,64.256c-0.165,0.055-0.338,0.024-0.506,0.02
		c-0.155-0.004-0.311,0.021-0.467,0.021c-0.11,0-0.236-0.063-0.289-0.164c-0.06-0.116,0.078-0.219,0.159-0.282
		c-0.07,0.054,0.397-0.314,0,0c0.195-0.155,0.449-0.213,0.688-0.129c0.12,0.041,0.228,0.115,0.319,0.203
		C75.08,64.031,75.199,64.129,75.064,64.256z"/>
	<path d="M75.844,64.047C75.875,64.049,75.654,63.444,75.844,64.047L75.844,64.047z"/>
	<path d="M49.116,62.456c0-0.001,0-0.003,0.001-0.003C49.058,62.622,49.091,62.525,49.116,62.456z"/>
	<path d="M49.191,63.389c0.139-0.121,0.321-0.16,0.442-0.302c0.114-0.133,0.153-0.31,0.103-0.479
		c-0.044-0.148-0.134-0.271-0.293-0.298c-0.122-0.021-0.28,0.012-0.326,0.142c0,0.001-0.001,0.003-0.001,0.004
		C49.008,62.767,48.966,63.117,49.191,63.389z"/>
	<path d="M49.117,62.453C49.117,62.453,49.117,62.453,49.117,62.453C49.134,62.404,49.145,62.373,49.117,62.453z"/>
	<path d="M75.408,40.485c0.084,0.141,0.053,0.325,0.049,0.48c-0.008,0.336,0.004,0.672,0.004,1.008
		c-0.003,0.543-0.049,1.094,0.32,1.541c0.145,0.174,0.352,0.339,0.56,0.432c0.002,0.001,0.004,0.003,0.006,0.004
		c0.12,0.052,0.161-0.059,0.269,0.001c0.083,0.045,0.162,0.121,0.26,0.133c0.103,0.013,0.172-0.075,0.217-0.155
		c0.042,0.025,0.084,0.012,0.125-0.012c0.079-0.048,0.148-0.155,0.178-0.216c0.112-0.239-0.127-0.398-0.314-0.486
		c-0.042-0.02-0.03-0.014-0.002-0.001c-0.15-0.07-0.284-0.173-0.425-0.26c-0.069-0.164-0.111-0.337-0.134-0.514
		c-0.047-0.377-0.006-0.757-0.004-1.135c0.002-0.446-0.143-1.064,0.523-0.959c0.301,0.048,0.279-0.189,0.28-0.398
		c0-0.135,0.103-0.47-0.079-0.533c-0.202-0.072-0.426,0.044-0.61-0.121c-0.131-0.116-0.135-0.31-0.132-0.473
		c0.006-0.256,0.092-0.911-0.29-0.95c-0.192-0.02-0.439,0.09-0.594,0.195c-0.239,0.164-0.136,0.433-0.153,0.672
		c-0.013,0.165,0.035,0.377-0.069,0.521c-0.137,0.19-0.488,0.045-0.518,0.318c-0.019,0.169-0.036,0.428-0.002,0.593
		C74.921,40.396,75.285,40.281,75.408,40.485z"/>
	<path d="M77.078,43.213c0,0,0.001,0,0.002,0.001C77.35,43.339,77.152,43.247,77.078,43.213z"/>
	<path d="M59.963,64.516c0,0,0.082,0.039,0.15,0.07C60.077,64.569,60.028,64.547,59.963,64.516z"/>
	<path d="M60.113,64.586C60.26,64.654,60.199,64.626,60.113,64.586L60.113,64.586z"/>
	<path d="M59.963,64.516c-0.252-0.251-0.73-0.189-1.049-0.312c-0.105-0.039-0.218-0.107-0.21-0.236
		c0.019-0.278,0.301-0.312,0.53-0.309c0.116,0.002,0.205,0.037,0.309,0.068c0.085,0.025,0.129,0.084,0.21,0.129
		c0.159,0.089,0.31,0.025,0.387-0.134c0.18-0.368-0.139-0.397-0.401-0.487c0.02,0.025,0.04,0.051,0.061,0.077
		c-0.021-0.016-0.057-0.065-0.059-0.071c-0.236-0.151-0.514-0.145-0.783-0.109c-0.262,0.033-0.508,0.215-0.696,0.399
		c-0.286,0.278-0.267,0.599-0.043,0.913c0.259,0.363,0.728,0.408,1.142,0.487c0.45,0.085,0.381,0.56-0.054,0.608
		c-0.231,0.027-0.524,0.059-0.687-0.139c-0.156-0.189-0.352-0.241-0.517-0.029c-0.047,0.059-0.188,0.162-0.137,0.25
		c0.055,0.094,0.228,0.17,0.319,0.223c0.238,0.14,0.505,0.238,0.781,0.264c0.218,0.02,0.439-0.012,0.639-0.102
		c0.117-0.053,0.5-0.273,0.5-0.42C60.487,65.16,60.455,64.746,59.963,64.516z"/>
	<path d="M56.824,64.545c0.001,0.001,0.003,0.001,0.004,0.002C56.691,64.454,56.752,64.496,56.824,64.545z"/>
	<path d="M56.824,64.545c-0.246-0.166-0.545-0.203-0.829-0.255c-0.183-0.034-0.55-0.065-0.521-0.33
		c0.033-0.276,0.325-0.351,0.559-0.308c0.224,0.042,0.583,0.362,0.785,0.164c0.133-0.129,0.25-0.346,0.037-0.447
		c-0.27-0.126-0.543-0.243-0.843-0.261c-0.522-0.03-1.235,0.28-1.188,0.899c0.05,0.633,0.63,0.785,1.15,0.88
		c0.138,0.025,0.276,0.056,0.405,0.108c0.124,0.053,0.106,0.238,0.059,0.349c-0.063,0.146-0.225,0.218-0.352,0.303
		c-0.127,0.087-0.261-0.046-0.398-0.084c-0.046-0.013-0.094-0.019-0.141-0.016c-0.117,0.01-0.071-0.005-0.116-0.102
		c-0.046-0.101-0.126-0.181-0.237-0.204c-0.209-0.046-0.576,0.207-0.416,0.443c0.072,0.109,0.389,0.268,0.512,0.248
		c0.249,0.107,0.471,0.324,0.747,0.148c0.062,0,0.139-0.01,0.187-0.053c0.027-0.025,0.045-0.057,0.053-0.094
		c0.068-0.008,0.137-0.017,0.203-0.025c0.191,0.027,0.363-0.032,0.469-0.195c0.257-0.398,0.302-0.873-0.119-1.165
		C56.828,64.549,56.826,64.547,56.824,64.545z"/>
	<path d="M56.828,64.547c0.001,0.001,0.002,0.002,0.002,0.003C56.916,64.607,57.01,64.672,56.828,64.547z"/>
	<path d="M45.699,65.945C45.403,65.924,46.227,66.297,45.699,65.945L45.699,65.945z"/>
	<path d="M47.093,64.127C46.524,63.854,47.298,64.607,47.093,64.127L47.093,64.127z"/>
	<path d="M47.708,62.391c-0.141-0.085-0.42-0.08-0.491,0.096c-0.119,0.297,0.186,0.984-0.373,0.773
		c-0.46-0.172-0.979-0.195-1.395,0.099c-0.423,0.302-0.705,0.839-0.642,1.362c0.051,0.427,0.389,1.188,0.892,1.225
		c0.229,0.152,0.493,0.198,0.761,0.144c0.126-0.025,0.248-0.067,0.367-0.114c0.118-0.045,0.323-0.188,0.409-0.088
		c0.106,0.124,0.339,0.275,0.478,0.107c0.159-0.193,0.095-0.631,0.102-0.865c0.019-0.654,0.005-1.309-0.001-1.962
		C47.812,62.976,47.906,62.509,47.708,62.391z M46.952,65.209c-0.382,0.367-0.854,0.33-1.238-0.004
		c-0.223-0.195-0.221-0.422-0.229-0.697c-0.005-0.175,0.004-0.188,0.128-0.311c0.083-0.083,0.179-0.154,0.286-0.207
		c0.391-0.188,0.827-0.04,1.193,0.137C47.25,64.496,47.259,64.914,46.952,65.209z"/>
	<path d="M66.443,43.792c-0.033-0.012-0.074-0.024-0.113-0.035C66.36,43.772,66.487,43.821,66.443,43.792z"/>
	<path d="M68.637,43.339c-0.149,0.047-0.304,0.076-0.46,0.081c-0.271,0.008-0.538-0.057-0.782-0.169
		c-0.234-0.106-0.423-0.258-0.627-0.408c-0.229-0.167-0.371,0.145-0.516,0.286c-0.096,0.093-0.38,0.31-0.24,0.47
		c0.075,0.087,0.2,0.124,0.318,0.157c-0.02-0.01-0.002-0.007,0.113,0.035c0.586,0.397,1.256,0.623,1.97,0.512
		c0.563-0.087,1.268-0.319,1.493-0.895c0.122-0.312,0.285-0.544,0.221-0.899c-0.053-0.294-0.229-0.641-0.47-0.826
		c-0.204-0.154-0.458-0.221-0.704-0.277c-0.381-0.09-0.766-0.154-1.149-0.233c-0.212-0.043-0.458-0.109-0.543-0.335
		c-0.12-0.319,0.099-0.517,0.376-0.63c0.284-0.115,0.596-0.092,0.885-0.008c0.147,0.043,0.289,0.104,0.42,0.185
		c0.119,0.074,0.236,0.199,0.387,0.204c0.174,0.006,0.259-0.189,0.334-0.313c0.113-0.183,0.34-0.34,0.081-0.512
		c-0.552-0.366-1.149-0.551-1.813-0.519c-0.503,0.025-0.988,0.133-1.354,0.501c-0.324,0.328-0.499,0.796-0.447,1.257
		c0.124,1.092,1.565,1.114,2.369,1.331c0.405,0.11,0.654,0.359,0.392,0.758C68.821,43.194,68.755,43.301,68.637,43.339z"/>
	<path d="M25.689,63.504C26.235,64.102,25.897,63.504,25.689,63.504L25.689,63.504z"/>
	<path d="M29.209,63.725c-0.009-0.016-0.026-0.023-0.037-0.039c-0.11-0.157-0.277-0.254-0.452-0.33
		c-0.269-0.115-0.535-0.235-0.797-0.361c-0.513-0.244-1.018-0.503-1.534-0.74c-0.466-0.214-0.959-0.371-1.414-0.611
		c-0.381-0.201-0.732-0.461-1.022-0.78c-0.139-0.154-0.264-0.321-0.373-0.497c-0.088-0.142-0.226-0.322-0.273-0.498
		c-0.012-0.047-0.023-0.094-0.02-0.139c0.014-0.008,0.117,0.039,0.209,0.08c0.061,0.028,0.119,0.055,0.14,0.061
		c0.169,0.049,0.337,0.076,0.513,0.1c0.406,0.057,0.812,0.109,1.218,0.155c0.782,0.091,1.565,0.167,2.349,0.241
		c0.783,0.074,1.567,0.15,2.349,0.238c0.148,0.018,0.307,0.004,0.417-0.107c0.001,0,0.002,0,0.003-0.001
		c0.113,0.175,0.217-0.175,0.252-0.254c0.068-0.154,0.127-0.313,0.17-0.476c0.046-0.178,0.083-0.312-0.034-0.432
		c-0.018-0.018-0.028-0.035-0.054-0.053c-0.254-0.17-0.633-0.169-0.924-0.215c-0.409-0.062-0.818-0.125-1.226-0.188
		c-0.79-0.12-1.578-0.243-2.368-0.364c-0.789-0.123-1.579-0.244-2.369-0.367c-0.509-0.078-1.315-0.059-1.616-0.57
		c-0.167-0.287-0.235-0.664-0.325-0.982c-0.099-0.354-0.231-0.742-0.253-1.111c-0.013-0.209,0.09-0.359,0.305-0.384
		c0.379-0.042,0.774-0.003,1.157-0.032c1.578-0.117,3.16-0.111,4.74-0.202c0.793-0.044,1.586-0.093,2.381-0.114
		c0.363-0.012,0.737,0.014,1.098-0.021c0.092-0.01,0.177-0.039,0.256-0.082c0.047-0.023,0.094-0.048,0.132-0.088
		c0.067-0.194,0.086-0.401,0.073-0.607c-0.01-0.173-0.04-0.344-0.072-0.516c-0.016-0.086-0.034-0.17-0.049-0.256
		c-0.007-0.04-0.019-0.061-0.032-0.073c-0.033-0.032-0.086-0.007-0.171-0.001c-0.388,0.021-0.767,0-1.153,0.01
		c-0.164,0.006-0.315,0.043-0.473,0.076c-0.176,0.035-0.362,0.033-0.542,0.044c-0.405,0.024-0.812,0.049-1.217,0.073
		c-0.773,0.047-1.542,0.031-2.314,0.059c-0.777,0.027-1.554,0.136-2.33,0.194c-0.375,0.028-0.767,0.084-1.143,0.059
		c-0.183-0.013-0.365-0.039-0.542-0.085c-0.221-0.059-0.288-0.186-0.285-0.414c0.004-0.346,0.076-0.703,0.121-1.046
		c0.053-0.403,0.114-0.806,0.191-1.203c0.043-0.224,0.052-0.306,0.263-0.409c0.177-0.038,0.354-0.079,0.53-0.121
		c0.385-0.092,0.767-0.198,1.153-0.288c0.776-0.18,1.551-0.368,2.325-0.56c0.773-0.191,1.546-0.386,2.319-0.581
		c0.371-0.095,0.742-0.188,1.113-0.281c0.185-0.048,0.371-0.094,0.556-0.141c0.093-0.023,0.186-0.047,0.279-0.069
		c-0.001-0.006-0.004-0.012-0.005-0.018c-0.022-0.098-0.05-0.195-0.084-0.29c-0.099-0.271-0.243-0.523-0.414-0.757
		c-0.09-0.122-0.148-0.181-0.283-0.195c-0.018-0.002-0.024-0.012-0.046-0.012c-0.184,0.001-0.36,0.055-0.534,0.105
		c-0.707,0.201-1.412,0.402-2.118,0.605c-0.675,0.193-1.35,0.386-2.025,0.582c-0.195,0.055-1.795,0.392-1.662,0.673
		c-0.123-0.024-0.183-0.096-0.324-0.074c-0.126,0.019-0.252,0.064-0.382,0.042c-0.13-0.024,0.01-0.32,0.044-0.419
		c0.063-0.182,0.141-0.358,0.222-0.532c0.141-0.298,0.295-0.588,0.417-0.895c0.022-0.079,0.047-0.158,0.052-0.241
		c0.006-0.115-0.008-0.123,0.107-0.092c0.209,0.056,0.399-0.067,0.584-0.146c0.727-0.311,1.456-0.617,2.184-0.923
		c0.35-0.147,0.7-0.294,1.049-0.441c0.242-0.102,0.647-0.189,0.823-0.403c0.027-0.032,0.023-0.071,0.03-0.107
		c0.043-0.216-0.206-0.481-0.34-0.627c-0.104-0.111-0.217-0.215-0.335-0.312c-0.053-0.043-0.107-0.085-0.162-0.125
		c-0.007-0.005-0.014-0.011-0.021-0.017c-0.106,0.06-0.213,0.12-0.32,0.179c-0.672,0.377-1.351,0.71-2.05,1.032
		c-0.037,0.017-0.102,0.049-0.169,0.079c0,0-0.001,0-0.002,0c-0.023,0.01-0.046,0.021-0.069,0.028
		c-0.107,0.035-0.204,0.034-0.2-0.105c0-0.015,0.003-0.03,0.003-0.045c0.004-0.072,0.012-0.145,0.018-0.217
		c0.011-0.015,0.11-0.012,0.133-0.017c0.13-0.031,0.221-0.13,0.294-0.235c0.413-0.601,0.823-1.202,1.243-1.799
		c0.006-0.008,0.011-0.017,0.017-0.025c0.236-0.578,0.744-0.976,1.061-1.503c0.006-0.011,0-0.02,0.005-0.029
		c0.022-0.042,0.042-0.073,0.023-0.128c0.06-0.073,0.121-0.146,0.182-0.219c0.122-0.146,0.243-0.293,0.364-0.438
		c0.263-0.317,0.527-0.634,0.79-0.95c0.451-0.542,0.999-0.995,1.403-1.578c0.102-0.146,0.17-0.274,0.311-0.385
		c0.108-0.085,0.234-0.134,0.327-0.24c0.098-0.112,0.136-0.234,0.245-0.341c0.135-0.13,0.269-0.262,0.393-0.403
		c0.106-0.122,0.205-0.251,0.288-0.39c0.126-0.13,0.253-0.26,0.379-0.391c0.272-0.282,0.542-0.568,0.809-0.856
		c0.513-0.553,1.016-1.116,1.508-1.688c0.491-0.574,0.97-1.157,1.437-1.751c0.441-0.562,0.942-1.092,1.333-1.691
		c0.089-0.136,0.158-0.3,0.274-0.415c0.114-0.111,0.216-0.233,0.311-0.361c0.208-0.283,0.357-0.6,0.558-0.885
		c0.419-0.599,0.811-1.207,1.178-1.839c0.728-1.25,1.384-2.549,1.834-3.927c0.233-0.711,0.51-1.391,0.67-2.127
		c0.164-0.755,0.294-1.519,0.374-2.286c0.082-0.783,0.109-1.573,0.069-2.36c-0.02-0.379-0.055-0.757-0.107-1.134
		c-0.025-0.189-0.056-0.379-0.091-0.567c0.009-0.184,0.013-0.375-0.069-0.545c-0.051-0.106-0.086-0.826-0.216-0.728
		c-0.087,0.064-0.073,0.137-0.08,0.232c-0.004,0.066-0.008,0.131-0.011,0.197c-0.04,0.117-0.093-0.072-0.097,0.13
		c-0.005,0.37,0.001,0.737-0.053,1.102c-0.059,0.394-0.117,0.786-0.177,1.179c-0.118,0.753-0.25,1.507-0.439,2.246
		c-0.193,0.753-0.441,1.493-0.678,2.233c-0.115,0.358-0.229,0.714-0.343,1.072c-0.121,0.379-0.317,0.738-0.484,1.099
		c-0.319,0.688-0.639,1.376-0.998,2.045c-0.704,1.313-1.523,2.561-2.361,3.792c-0.421,0.617-0.878,1.187-1.355,1.76
		c-0.489,0.591-0.952,1.2-1.438,1.792c-0.471,0.573-0.968,1.125-1.461,1.68c-0.233,0.261-0.452,0.546-0.704,0.788
		c-0.243,0.234-0.5,0.464-0.664,0.763c-0.528,0.542-1.058,1.083-1.562,1.647c-0.242,0.271-0.478,0.548-0.705,0.831
		c-0.211,0.266-0.477,0.485-0.71,0.732c-0.511,0.537-0.945,1.135-1.437,1.688c-0.491,0.551-0.968,1.117-1.421,1.701
		c-0.432,0.558-0.82,1.146-1.247,1.706c-0.429,0.564-0.84,1.145-1.222,1.741c-0.774,1.208-1.394,2.49-1.946,3.812
		c-1.119,2.675-1.482,5.606-0.803,8.444c0.655,2.736,2.269,5.178,4.127,7.253c0.486,0.542,1,1.065,1.507,1.586
		c0.245,0.253,0.5,0.494,0.765,0.725c0.133,0.114,0.269,0.228,0.406,0.337c0.129,0.102,0.226,0.24,0.356,0.332
		c0.237,0.167,0.409-0.259,0.511-0.406c0.085-0.121,0.171-0.244,0.236-0.38c0.033-0.067,0.059-0.14,0.077-0.214
		c0.079-0.069,0.152-0.148,0.199-0.242c0.132-0.27-0.065-0.521-0.248-0.704c-0.27-0.271-0.529-0.552-0.785-0.835
		c-0.265-0.291-0.526-0.587-0.792-0.879c0.242,0,0.454-0.029,0.668,0.088c0.258,0.14,0.524,0.264,0.793,0.383
		c0.511,0.223,1.033,0.42,1.538,0.66c0.018-0.008,0.029-0.02,0.047-0.027C29.095,64.447,29.252,64.117,29.209,63.725z"/>
	<path d="M28.267,28.708c0.231,0.346,0.443,0.68,0.749,0.969c0.292,0.277,0.626,0.508,0.983,0.695
		c0.002,0.001,0.004,0.002,0.006,0.003c0.987,0.516,2.171,0.459,2.945-0.401c0.898-0.999,1.064-2.459,0.827-3.734
		c-0.063-0.333-0.151-0.661-0.258-0.984c-0.103-0.311-0.2-0.723-0.385-0.996c-0.055-0.081-0.078-0.027-0.101-0.139
		c-0.014-0.07-0.037-0.14-0.067-0.207c-0.058-0.128-0.141-0.244-0.234-0.35c-0.216-0.247-0.459-0.478-0.699-0.701
		c-0.915-0.853-2.247-1.482-3.425-0.743c-0.15,0.093-0.288,0.205-0.414,0.328c-0.14,0.138-0.305,0.245-0.422,0.406
		c-0.241,0.333-0.355,0.772-0.452,1.165c-0.194,0.792-0.217,1.618-0.048,2.417C27.443,27.251,27.805,28.017,28.267,28.708z"/>
	<path d="M30.005,30.375c-0.001,0-0.002-0.001-0.003-0.001C30.943,30.867,30.319,30.54,30.005,30.375z"/>
	<path d="M30.002,30.374c-0.001,0-0.002-0.001-0.003-0.002C29.846,30.292,29.77,30.252,30.002,30.374z"/>
	<path d="M52.1,64.913c-0.174,0.015-0.067,0.005,0.021-0.002C52.112,64.912,52.111,64.912,52.1,64.913
		c0.332-0.028,0.674,0.04,0.999-0.062c0.277-0.086,0.417-0.4,0.468-0.667c0.068-0.345-0.25-0.724-0.522-0.887
		c-1.015-0.608-2.427,0.292-2.254,1.471c0.043,0.293,0.181,0.562,0.361,0.793c0.073,0.094,0.197,0.293,0.303,0.343
		c0.05,0.022,0.108,0.017,0.161,0.015c0.059,0.041,0.118,0.077,0.184,0.103c0.122,0.05,0.239,0.021,0.354,0.056
		c0.148,0.043,0.306,0.052,0.457,0.02c0.263-0.057,0.504-0.229,0.732-0.365c0.172-0.099,0.289-0.256,0.123-0.424
		c-0.095-0.096-0.217-0.206-0.348-0.132c-0.123,0.068-0.248,0.102-0.379,0.164c-0.264,0.104-0.627,0.177-0.832-0.081
		C51.739,65.049,51.863,64.932,52.1,64.913z M51.619,64.446c0.068-0.015,0.365-0.081-0.002,0c-0.157,0.035-0.101-0.249-0.084-0.325
		c0.035-0.174,0.15-0.318,0.303-0.405c0.239-0.138,0.719-0.173,0.963-0.011c0.102,0.066,0.16,0.188,0.216,0.292
		c0.028,0.052-0.003,0.311-0.019,0.295C52.572,64.551,52.074,64.346,51.619,64.446z"/>
	<path d="M43.21,63.939C43.381,63.987,43.069,63.99,43.21,63.939c-0.116,0.042-0.34-0.039-0.398,0.109
		c-0.103,0.269,0.211,0.262,0.375,0.252c0.147-0.01,0.45,0.055,0.474-0.162C43.692,63.855,43.372,63.984,43.21,63.939z"/>
	<path d="M56.598,40.568C56.562,40.655,56.778,40.682,56.598,40.568L56.598,40.568z"/>
	<path d="M56.258,43.918c0.433,0.247,1.015,0.397,1.513,0.398c0.501,0.001,0.982-0.161,1.402-0.43
		c0.116-0.073,0.401-0.271,0.559-0.467c0.009-0.01,0.014-0.02,0.021-0.029c0.006-0.008,0.012-0.015,0.016-0.023
		c0.107-0.158,0.113-0.306-0.16-0.374c-0.205-0.183-0.342-0.436-0.623-0.222c-0.244,0.186-0.446,0.378-0.742,0.481
		c-0.502,0.176-1.078,0.093-1.483-0.261c-0.177-0.154-0.468-0.461-0.354-0.718c0.049-0.11,0.155-0.123,0.262-0.112
		c0.178,0.017,0.355,0.011,0.535,0.008c0.765-0.006,1.529,0.005,2.295-0.002c0.219-0.002,0.703,0.043,0.789-0.238
		c0.109-0.348-0.144-0.838-0.253-1.15c-0.19-0.542-0.601-0.902-1.077-1.197c-0.405-0.25-0.879-0.377-1.354-0.362
		c-1.78,0.052-3.121,2.126-2.203,3.734C55.603,43.312,55.895,43.711,56.258,43.918z M56.598,40.568
		c0.146,0.092,0.293,0.025,0.43-0.044c0.148-0.076,0.305-0.128,0.471-0.147s0.334-0.005,0.497,0.034
		c0.167,0.04,0.332,0.14,0.509,0.083c0.017,0.142,0.278,0.409,0.13,0.548c-0.161,0.15-0.558,0.052-0.747,0.049
		c-0.332-0.006-0.695,0.059-1.021,0.003c-0.105-0.017-0.207-0.061-0.285-0.136c-0.074-0.07-0.102-0.2-0.174-0.258
		C56.496,40.701,56.564,40.651,56.598,40.568z"/>
	<path d="M59.641,42.99c-0.026-0.005-0.045-0.007-0.033,0.004C59.842,43.053,59.711,43.005,59.641,42.99z"/>
</g>
</svg>
