<?xml version="1.0" encoding="UTF-8" standalone="no"?>
<!-- Generator: Adobe Illustrator 15.0.2, SVG Export Plug-In . SVG Version: 6.00 Build 0)  -->

<svg
   xmlns:dc="http://purl.org/dc/elements/1.1/"
   xmlns:cc="http://creativecommons.org/ns#"
   xmlns:rdf="http://www.w3.org/1999/02/22-rdf-syntax-ns#"
   xmlns:svg="http://www.w3.org/2000/svg"
   xmlns="http://www.w3.org/2000/svg"
   xmlns:xlink="http://www.w3.org/1999/xlink"
   xmlns:sodipodi="http://sodipodi.sourceforge.net/DTD/sodipodi-0.dtd"
   xmlns:inkscape="http://www.inkscape.org/namespaces/inkscape"
   version="1.0"
   id="Layer_1"
   x="0px"
   y="0px"
   width="100"
   height="98.422806"
   viewBox="0 0 99.999996 98.422797"
   enable-background="new 0 0 2481 2073"
   xml:space="preserve"
   inkscape:version="0.48.4 r9939"
   sodipodi:docname="logo.cea.marker.svg"><metadata
     id="metadata15"><rdf:RDF><cc:Work
         rdf:about=""><dc:format>image/svg+xml</dc:format><dc:type
           rdf:resource="http://purl.org/dc/dcmitype/StillImage" /><dc:title /></cc:Work></rdf:RDF></metadata><defs
     id="defs13"><linearGradient
       id="SVGID_1_"
       gradientUnits="userSpaceOnUse"
       x1="263.8389"
       y1="-344.77591"
       x2="331.28519"
       y2="-344.77591"
       gradientTransform="matrix(1,0,0,-1,-247.5,-270)"><stop
         offset="0.0023"
         style="stop-color:#217939"
         id="stop60" /><stop
         offset="1"
         style="stop-color:#8DC63F"
         id="stop62" /></linearGradient><linearGradient
       inkscape:collect="always"
       xlink:href="#SVGID_1_"
       id="linearGradient4139"
       gradientUnits="userSpaceOnUse"
       gradientTransform="matrix(1,0,0,-1,-247.5,-270)"
       x1="263.8389"
       y1="-344.77591"
       x2="331.28519"
       y2="-344.77591" /><linearGradient
       inkscape:collect="always"
       xlink:href="#SVGID_1_"
       id="linearGradient4175"
       gradientUnits="userSpaceOnUse"
       gradientTransform="matrix(1,0,0,-1,-247.5,-270)"
       x1="263.8389"
       y1="-344.77591"
       x2="331.28519"
       y2="-344.77591" /></defs><sodipodi:namedview
     pagecolor="#ffffff"
     bordercolor="#666666"
     borderopacity="1"
     objecttolerance="10"
     gridtolerance="10"
     guidetolerance="10"
     inkscape:pageopacity="0"
     inkscape:pageshadow="2"
     inkscape:window-width="1275"
     inkscape:window-height="902"
     id="namedview11"
     showgrid="false"
     fit-margin-top="0"
     fit-margin-left="0"
     fit-margin-right="0"
     fit-margin-bottom="0"
     inkscape:zoom="2.5760108"
     inkscape:cx="-79.570196"
     inkscape:cy="35.057285"
     inkscape:window-x="214"
     inkscape:window-y="54"
     inkscape:window-maximized="0"
     inkscape:current-layer="Layer_1" /><path
     style="opacity:0.36213995;fill:#000000;fill-opacity:0.57534246;fill-rule:evenodd;stroke:none"
     inkscape:connector-curvature="0"
     id="path7"
     d="m 30.209036,98.422796 c 5.626411,-5.553785 9.034218,-10.843153 11.506341,-16.105002 1.833744,-3.903077 1.567241,-6.021578 4.572524,-11.674019 6.681738,-11.369765 9.706537,-13.496243 21.51007,-17.373402 6.864565,-1.582623 14.718733,-1.713817 21.487151,0.716469 5.534065,1.987211 8.750351,5.213924 9.994611,8.218802 1.016807,2.455504 0.916107,4.971064 -0.04462,7.494512 -1.002761,2.63388 -2.974216,5.333232 -6.887658,8.151162 -2.005011,1.443608 -4.228229,2.588461 -6.259488,3.440189 -2.055894,0.862004 -4.129904,1.39643 -6.213154,2.036432 -4.066587,1.249335 -8.226449,2.166641 -12.393591,3.082183 -12.412046,2.726586 -24.678961,5.712499 -37.272126,12.012674 z"
     clip-rule="evenodd"
     sodipodi:nodetypes="cscccssccsccc" /><path
     style="fill:#d0171f;fill-opacity:0.78431374;stroke:#e86c52;stroke-width:2.93298769000000004;stroke-linecap:round;stroke-linejoin:miter;stroke-miterlimit:10;stroke-opacity:1;stroke-dasharray:none"
     inkscape:connector-curvature="0"
     id="path5"
     d="M 30.134416,91.679377 C 28.016291,81.541793 24.281731,73.10552 19.758352,65.286719 16.403154,59.486935 12.516319,54.133673 8.9199986,48.509538 7.719467,46.63206 6.6834123,44.648623 5.5298244,42.700104 3.2231948,38.804023 1.3530149,34.286734 1.4718619,28.427076 1.5879664,22.70181 3.2863003,18.10919 5.7353248,14.354231 9.7632348,8.1781947 16.510136,3.1145772 25.562847,1.7838334 c 7.401689,-1.08800819 14.341307,0.7501202 19.262511,3.5558198 4.021402,2.2926179 7.135594,5.3551178 9.502761,8.9644128 2.470769,3.767167 4.172163,8.217672 4.314883,14.022741 0.07305,2.974145 -0.426462,5.728351 -1.130155,8.012944 -0.712153,2.312443 -1.857497,4.245431 -2.876506,6.310253 -1.989168,4.030474 -4.48305,7.723246 -6.985838,11.418397 -7.45475,11.006267 -14.451733,22.230688 -17.516087,37.610976 z"
     stroke-miterlimit="10"
     clip-rule="evenodd" /><g
     transform="matrix(0.56230661,0,0,0.56230661,1.9196686,1.6722048)"
     id="g5"><path
       style="fill:#ffffff"
       inkscape:connector-curvature="0"
       d="m 19.159,25.926 c 0,0.739 -0.28,1.369 0.596,1.363 0.348,-0.002 0.697,0 1.045,0.002 0.292,0 0.311,-0.46 0.013,-0.46 -0.468,0 -1.291,0.197 -1.116,-0.545 0.072,-0.304 0.514,-0.193 0.726,-0.193 0.274,0 0.274,-0.43 0,-0.43 -0.153,0.003 -0.505,0.06 -0.641,-0.028 -0.145,-0.093 -0.147,-0.499 0.009,-0.583 0.259,-0.138 1.153,0.219 1.159,-0.249 0.008,-0.375 -1.016,-0.282 -1.279,-0.279 -0.817,0.011 -0.428,1.402 -0.512,1.402 0,0.366 0.013,0 0,0 z"
       id="path7-6" /><path
       style="fill:#ffffff"
       inkscape:connector-curvature="0"
       d="m 24.821,27.269 c 0,-0.75 -0.547,-0.286 -1.095,-0.494 -0.312,-0.561 0.037,-1.557 -0.104,-2.188 -0.371,0.004 -0.48,-0.126 -0.511,0.297 0.004,0.53 0.008,1.061 0.012,1.591 0.004,0.463 -0.201,0.787 0.344,0.837 0.451,0.04 0.907,0.025 1.354,-0.043 0,-0.135 -0.565,0.086 0,0 z"
       id="path9" /><path
       style="fill:#ffffff"
       inkscape:connector-curvature="0"
       d="m 48.232,27.269 c 0.638,0.109 0.543,-0.171 0.534,-0.741 -0.01,-0.609 1.031,-0.61 1.02,0 -0.01,0.569 -0.102,0.851 0.534,0.741 0.042,-0.696 0.228,-1.928 -0.014,-2.581 -0.054,-0.145 -0.287,-0.123 -0.398,-0.092 -0.236,0.066 -0.125,0.625 -0.127,0.796 -0.007,0.5 -1.064,0.409 -1.016,-0.273 0.033,-0.47 -0.532,-0.802 -0.537,-0.312 -0.01,0.818 -0.003,1.641 0.004,2.462 0.541,0.092 -0.006,-0.663 0,0 z"
       id="path11" /><path
       style="fill:#ffffff"
       inkscape:connector-curvature="0"
       d="m 51.301,27.207 c 0.316,0.258 1.209,0.154 1.592,0.076 0.202,-0.042 0.186,-0.397 -0.009,-0.438 -0.355,-0.075 -0.724,0.072 -1.073,-0.07 -0.149,-0.534 -0.111,-0.668 0.457,-0.688 0.549,-0.021 0.418,-0.327 -0.016,-0.42 -0.147,-0.035 -0.396,0.079 -0.491,-0.099 -0.133,-0.245 -0.016,-0.578 0.288,-0.55 0.2,0.021 0.753,0.102 0.911,-0.064 0.364,-0.38 -0.243,-0.382 -0.456,-0.369 -0.721,0.04 -1.42,-0.259 -1.338,0.763 0.034,0.426 -0.222,1.568 0.135,1.859 0.281,0.23 -0.299,-0.244 0,0 z"
       id="path13" /><path
       style="fill:#ffffff"
       inkscape:connector-curvature="0"
       d="m 59.59,27.293 c 0.347,-0.021 0.694,-0.021 1.042,-0.021 0.377,-10e-4 0.556,-0.348 0.154,-0.437 -0.481,-0.106 -0.895,0.268 -0.978,-0.421 -0.06,-0.493 0.029,-0.987 -0.008,-1.48 -0.016,-0.198 0.016,-0.354 -0.254,-0.356 -0.38,-0.007 -0.274,0.428 -0.272,0.677 0.003,0.391 -0.266,2.069 0.316,2.038 0.463,-0.027 -0.276,0.015 0,0 z"
       id="path15" /><path
       style="fill:#ffffff"
       inkscape:connector-curvature="0"
       d="m 61.258,25.369 c -0.013,0.702 0.373,-0.063 0.402,-0.428 0.021,-0.253 -0.229,-0.609 -0.49,-0.295 -0.19,0.235 0.096,0.48 0.088,0.723 -0.002,0.107 0.002,-0.061 0,0 z"
       id="path17" /><path
       style="fill:#ffffff"
       inkscape:connector-curvature="0"
       d="m 56.373,24.155 c -0.174,-0.387 -0.363,-0.69 -0.916,-0.489 0.297,0.228 0.412,0.637 0.916,0.489 z"
       id="path19" /><path
       style="fill:#ffffff"
       inkscape:connector-curvature="0"
       d="m 32.551,27.293 c 0.366,-0.015 1.531,0.153 1.534,-0.226 0.004,-0.601 -1.033,0.116 -1.118,-0.538 -0.065,-0.495 0.692,-0.155 0.764,-0.573 0.107,-0.597 -0.76,-0.216 -0.734,-0.628 0.021,-0.352 0.858,-0.143 1.084,-0.362 0.02,-0.63 -0.823,-0.376 -1.275,-0.378 -0.831,-0.004 -0.556,0.653 -0.555,1.33 0,0.33 -0.237,1.393 0.3,1.375 0.511,-0.021 -0.241,0.008 0,0 z"
       id="path21" /><path
       style="fill:#ffffff"
       inkscape:connector-curvature="0"
       d="m 36.422,27.067 c 0.218,-0.2 0.322,-0.736 -0.16,-0.55 -0.342,0.132 -0.762,0.72 -1.016,0.022 -0.146,-0.399 -0.228,-1.403 0.349,-1.545 0.111,-0.027 1.356,0.749 0.946,-0.009 -0.64,-1.182 -1.944,-0.11 -1.962,0.844 -0.017,0.917 0.916,2.121 1.843,1.238 0.127,-0.116 -0.48,0.457 0,0 z"
       id="path23" /><path
       style="fill:#ffffff"
       inkscape:connector-curvature="0"
       d="m 42.865,27.256 c -0.018,-0.01 0.005,0.003 0,0 l 0,0 z"
       id="path25" /><path
       style="fill:#ffffff"
       inkscape:connector-curvature="0"
       d="m 37.377,27.272 c 0.654,0.171 0.473,-0.443 0.496,-0.845 0.025,-0.438 0.838,-0.452 1.021,-0.132 0.077,0.134 -0.087,1.458 0.513,0.953 0.298,-0.251 0.054,-1.869 0.053,-2.256 0,-0.827 -0.589,-0.301 -0.515,0.304 0.077,0.621 -0.852,0.504 -1.021,0.05 -0.072,-0.194 -0.018,-0.393 -0.039,-0.59 -0.026,-0.251 -0.496,-0.252 -0.513,0.005 -0.055,0.828 0.003,1.682 0.005,2.511 0.478,0.125 -0.002,-0.78 0,0 z"
       id="path27" /><path
       style="fill:#ffffff"
       inkscape:connector-curvature="0"
       d="m 40.344,27.026 c -0.01,0.476 0.96,0.256 1.257,0.259 0.201,0.001 0.573,0.094 0.569,-0.226 0,-0.386 -0.758,-0.243 -0.984,-0.224 -0.455,0.036 -0.458,-0.803 0.021,-0.747 0.19,0.023 0.592,0.084 0.592,-0.218 -0.003,-0.354 -0.541,-0.172 -0.748,-0.209 -0.4,-0.071 -0.173,-0.661 0.199,-0.643 0.175,0.012 0.707,0.097 0.854,-0.04 0.38,-0.352 -0.361,-0.399 -0.478,-0.406 -0.562,-0.033 -1.39,-0.183 -1.326,0.61 0.049,0.616 0.061,1.228 0.044,1.844 -0.004,0.185 0.01,-0.364 0,0 z"
       id="path29" /><path
       style="fill:#ffffff"
       inkscape:connector-curvature="0"
       d="m 46.936,27.293 c 0.243,-0.176 0.964,-0.789 0.187,-0.866 -0.26,-0.025 -0.604,0.527 -0.854,0.125 -0.172,-0.277 -0.198,-1.032 0.054,-1.276 0.339,-0.327 0.75,0.438 1.114,0.024 0.095,-1.157 -1.595,-0.801 -1.914,0.002 -0.431,1.087 0.236,2.133 1.413,1.991 0.145,-0.105 -0.34,0.041 0,0 z"
       id="path31" /><path
       style="fill:#ffffff"
       inkscape:connector-curvature="0"
       d="m 82.297,27.291 c 0.358,-0.016 1.492,0.153 1.494,-0.222 0.002,-0.675 -1.329,0.234 -1.323,-0.591 0.003,-0.469 0.271,-0.345 0.633,-0.345 0.452,0 0.46,-0.441 0.016,-0.461 -0.25,-0.011 -1.066,-0.149 -0.562,-0.6 0.264,-0.236 1.164,0.233 1.176,-0.286 0.011,-0.369 -1.197,-0.196 -1.449,-0.21 -0.539,-0.027 -0.564,2.737 0.015,2.715 0.498,-0.021 -0.252,0.01 0,0 z"
       id="path33" /><path
       style="fill:#ffffff"
       inkscape:connector-curvature="0"
       d="m 81.002,27.269 c 0.006,-0.429 0.301,-2.988 -0.424,-2.663 -0.305,0.137 -0.096,1.491 -0.104,1.787 -0.014,0.447 -0.117,1.029 0.528,0.876 0.004,-0.298 -0.428,0.101 0,0 z"
       id="path35" /><path
       style="fill:#ffffff"
       inkscape:connector-curvature="0"
       d="m 73.6,26.896 c -0.402,0.008 -0.807,-0.725 -0.984,-0.021 0.408,0.417 0.808,0.556 1.414,0.412 0.55,-0.409 0.628,-0.855 0.197,-1.396 -0.16,-0.068 -1.658,-0.616 -0.868,-0.906 0.166,-0.061 1.041,0.571 1.073,0.132 0.039,-0.556 -1.015,-0.604 -1.33,-0.489 -0.557,0.203 -0.606,0.924 -0.14,1.24 0.159,0.108 1.828,0.988 0.638,1.028 -0.196,0.003 0.177,-0.006 0,0 z"
       id="path37" /><path
       style="fill:#ffffff"
       inkscape:connector-curvature="0"
       d="m 75.32,25.026 c 0.809,0.013 0.305,1.517 0.418,2.105 0.062,0.325 0.625,0.176 0.573,-0.184 -0.069,-0.484 0.011,-1.008 -0.015,-1.5 -0.021,-0.462 0.195,-0.378 0.544,-0.423 0.343,-0.045 0.119,-0.428 -0.12,-0.458 -0.502,0.004 -1.014,-0.016 -1.516,0.016 -0.308,0.021 -0.152,0.438 0.116,0.444 0.123,0.002 -0.17,-0.004 0,0 z"
       id="path39" /><path
       style="fill:#ffffff"
       inkscape:connector-curvature="0"
       d="m 64.516,26.849 c -0.021,-0.247 -0.142,-1.218 0.096,-1.297 0.312,0.571 0.604,1.163 0.953,1.712 0.688,0.121 0.535,-0.312 0.547,-0.916 0.006,-0.281 0.168,-1.591 -0.049,-1.77 -0.346,0.005 -0.426,-0.119 -0.45,0.316 -0.024,0.421 0.059,0.848 -0.046,1.263 -0.255,-0.186 -1.462,-2.504 -1.534,-1.193 -0.035,0.641 -0.018,1.282 -0.002,1.923 0.016,0.669 0.524,0.43 0.485,-0.038 -0.037,-0.418 0.033,0.395 0,0 z"
       id="path41" /><path
       style="fill:#ffffff"
       inkscape:connector-curvature="0"
       d="m 70.801,27.312 c 0.47,-0.001 0.898,-0.194 1.004,-0.688 0.063,-0.297 0.229,-1.833 -0.039,-2.011 -0.793,-0.526 0.157,2.598 -1.154,2.235 -0.485,-0.134 -0.322,-1.121 -0.319,-1.482 10e-4,-0.169 0.022,-0.432 0.009,-0.613 -0.017,-0.22 -0.438,-0.253 -0.515,-0.06 -0.183,0.458 -0.039,1.196 -0.017,1.677 0.028,0.613 0.431,0.944 1.031,0.942 0.662,-0.001 -0.651,0.002 0,0 z"
       id="path43" /><path
       style="fill:#ffffff"
       inkscape:connector-curvature="0"
       d="m 63.082,26.803 c -0.037,-0.574 -0.039,-1.151 0,-1.725 0.035,-0.5 -0.486,-0.813 -0.536,-0.108 -0.045,0.639 -0.037,1.281 -0.002,1.921 0.039,0.695 0.571,0.421 0.538,-0.088 -0.037,-0.573 0.027,0.419 0,0 z"
       id="path45" /><path
       style="fill:#ffffff"
       inkscape:connector-curvature="0"
       d="m 16.377,25.494 c -0.066,0.246 -0.132,1.796 0.15,1.786 0.805,-0.026 1.643,0.128 1.924,-0.866 0.19,-0.669 -0.063,-1.528 -0.75,-1.789 -0.359,-0.136 -0.762,-0.125 -1.127,-0.024 -0.432,0.122 -0.12,0.603 -0.197,0.893 -0.037,0.138 0.081,-0.303 0,0 z m 0.518,0.423 c 0,-0.229 -0.106,-0.884 0.251,-0.914 0.505,-0.043 0.803,0.403 0.806,0.851 0.003,0.514 -0.145,0.964 -0.737,0.986 -0.477,0.017 -0.32,-0.617 -0.32,-0.923 z"
       id="path47" /><path
       style="fill:#ffffff"
       inkscape:connector-curvature="0"
       d="m 86.631,62.979 c -0.001,-3.319 -0.002,-6.638 -0.002,-9.957 0,-2.839 0.075,-5.627 -0.786,-8.369 -1.818,-5.784 -7.219,-8.722 -13.099,-8.254 -1.456,0.116 -2.899,0.365 -4.313,0.728 -0.799,0.204 -3.589,0.607 -3.636,1.636 -0.03,0.751 -0.076,1.502 -0.133,2.252 -0.055,0.718 -0.012,0.759 0.647,0.468 1.456,-0.643 2.979,-1.141 4.524,-1.517 2.693,-0.654 5.702,-0.742 8.322,0.307 1.069,0.428 2.236,1.127 2.925,2.077 0.33,0.456 -2.83,1.879 -3.289,2.133 -2.711,1.502 -5.383,3.097 -7.939,4.85 -2.312,1.586 -4.854,3.429 -6.364,5.844 -0.32,0.513 -0.492,1.106 -0.821,1.607 -0.329,0.499 -0.854,0.758 -1.361,1.041 -1.365,0.76 -2.784,1.428 -4.258,1.953 -2.823,1.006 -5.624,1.79 -8.675,1.286 -1.207,-0.199 -2.573,-0.734 -3.605,-1.406 -0.525,-0.343 -0.982,-0.759 -1.404,-1.221 -0.422,-0.462 -0.125,-0.628 0.321,-0.926 2.717,-1.808 5.401,-3.665 8.042,-5.584 2.224,-1.616 4.483,-3.47 6.378,-5.473 1.849,-1.955 3.535,-4.542 1.481,-6.991 -0.852,-1.016 -2.022,-1.647 -3.246,-2.109 -1.298,-0.491 -2.963,-0.993 -4.364,-0.968 -1.367,0.024 -2.688,-0.07 -4.061,0.141 -1.243,0.191 -2.472,0.57 -3.615,1.094 -4.699,2.155 -6.562,6.976 -6.669,11.909 -0.033,1.481 0.106,2.964 0.393,4.417 0.146,0.741 0.331,1.475 0.549,2.198 0.26,0.861 0.016,0.951 -0.729,1.398 -2.506,1.503 -5.312,2.792 -8.208,3.296 -2.677,0.466 -5.741,0.47 -8.217,-0.776 -2.602,-1.309 -4.119,-3.898 -4.736,-6.669 -1.155,-5.183 0.614,-11.785 6.23,-13.431 2.637,-0.773 5.37,-0.307 7.981,0.303 1.382,0.323 2.625,0.954 3.964,1.383 0.669,0.214 0.758,-0.019 0.643,-0.676 -0.107,-0.609 -0.179,-1.231 -0.217,-1.862 -0.081,-1.353 -1.577,-1.404 -2.682,-1.73 -1.519,-0.449 -3.037,-0.712 -4.598,-0.963 -1.111,-0.398 -2.874,-0.09 -4.008,0.056 -1.46,0.188 -2.909,0.538 -4.236,1.188 -5.191,2.542 -6.449,8.593 -6.34,13.84 0.12,5.765 3.128,11.247 9.073,12.545 3.107,0.679 6.311,0.402 9.368,-0.399 1.435,-0.377 2.817,-0.897 4.172,-1.499 0.647,-0.288 1.285,-0.597 1.912,-0.928 0.655,-0.347 1.335,-0.927 2.032,-1.163 0.408,-0.138 0.924,0.814 1.132,1.069 0.502,0.483 1.061,0.903 1.65,1.272 1.303,0.815 2.659,1.276 4.129,1.683 2.929,0.809 6.314,0.296 9.195,-0.486 1.412,-0.384 2.793,-0.88 4.138,-1.457 0.648,-0.278 1.315,-0.554 1.929,-0.904 0.876,-0.5 0.944,-0.421 1.65,0.272 2.064,2.029 5.269,2.828 8.093,2.856 4.184,0.043 8.622,-0.187 11.566,-3.626 -0.042,0.639 0.194,1.258 0.209,1.894 0.021,0.391 -0.092,0.924 0.39,1.06 0.66,0.186 1.404,0.188 2.081,0.324 0.734,0.151 0.492,-0.563 0.492,-1.036 -0.002,-4.513 0,0.199 0,0 z M 41.155,54.577 c -1.531,-3.85 -0.923,-9.404 1.903,-12.545 2.678,-2.977 7.513,-3.457 11.164,-2.304 1.839,0.581 3.79,1.753 2.317,3.757 -1.367,1.861 -3.42,3.312 -5.206,4.746 -1.787,1.436 -3.623,2.812 -5.512,4.112 -0.995,0.685 -2.005,1.349 -3.03,1.988 -0.626,0.391 -1.393,1.269 -1.636,0.246 -0.545,-1.37 0.157,0.66 0,0 z m 42.648,-2.86 c -0.257,4.104 -2.201,8.018 -6.392,9.174 -2.183,0.603 -4.548,0.538 -6.775,0.259 -1.602,-0.201 -4.976,-0.947 -4.996,-3.087 -0.02,-1.956 2.522,-3.717 3.905,-4.744 2.085,-1.551 4.286,-2.947 6.523,-4.267 2.153,-1.271 4.35,-2.466 6.555,-3.644 0.593,-0.317 0.985,2.113 1.073,2.567 0.202,1.051 0.442,2.698 0.107,3.742 -0.01,0.156 0.097,-0.305 0,0 z"
       id="path49" /><path
       style="fill:#ffffff"
       inkscape:connector-curvature="0"
       d="m 55.27,27.293 c 0.229,0.009 0.308,-0.137 0.334,-0.336 0.043,-0.326 0.298,-0.248 0.533,-0.27 0.625,-0.049 0.294,0.714 1.027,0.559 -0.186,-0.67 -0.342,-2.797 -1.255,-2.656 -0.361,0.055 -0.442,1.055 -0.522,1.335 -0.085,0.296 -0.65,1.341 -0.117,1.368 0.253,0.01 -0.211,-0.011 0,0 z m 0.609,-1.349 c 0.041,-0.19 0.043,-0.605 0.266,-0.629 0.031,0.124 0.346,0.872 0.125,0.938 -0.365,0.092 -0.461,-0.008 -0.391,-0.309 0.045,-0.207 -0.024,0.101 0,0 z"
       id="path51" /><path
       style="fill:#ffffff"
       inkscape:connector-curvature="0"
       d="m 25.805,27.246 c 0.125,-0.385 0.038,-0.528 0.523,-0.562 0.582,-0.042 0.281,0.363 0.611,0.583 0.364,0.243 0.443,-0.105 0.387,-0.337 -0.135,-0.543 -0.28,-1.083 -0.424,-1.624 -0.105,-0.394 -0.172,-0.778 -0.668,-0.735 -0.417,0.039 -0.403,0.562 -0.488,0.871 -0.171,0.625 -0.999,1.95 0.059,1.804 0.069,-0.21 -0.622,0.086 0,0 z m 0.371,-1.464 c 0.018,-0.188 0.087,-0.355 0.209,-0.501 0.078,0.313 0.156,0.625 0.234,0.938 -0.471,0.06 -0.578,0.043 -0.443,-0.437 0.045,-0.156 -0.144,0.511 0,0 z"
       id="path53" /><path
       style="fill:#ffffff"
       inkscape:connector-curvature="0"
       d="m 29.726,27.293 c 0.653,0.033 -0.114,-1.265 0.593,-1.101 0.593,0.138 0.209,1.394 1.17,1.046 -0.131,-0.27 -0.287,-0.54 -0.403,-0.816 -0.152,-0.361 0.167,-0.479 0.299,-0.763 0.279,-0.602 -0.318,-1.035 -0.842,-1.067 -0.298,-0.019 -0.597,0.002 -0.896,-0.007 -0.344,-0.008 -0.187,0.779 -0.187,0.965 0.002,0.364 -0.255,1.712 0.266,1.743 0.432,0.021 -0.181,-0.011 0,0 z m 0.605,-2.278 c 0.477,0.049 0.846,0.65 0.183,0.741 -0.69,0.094 -0.674,-0.791 -0.183,-0.741 0.253,0.026 -0.311,-0.032 0,0 z"
       id="path55" /><path
       style="fill:#ffffff"
       inkscape:connector-curvature="0"
       d="m 43.443,27.248 c -0.003,-0.196 -0.184,-1.263 0.367,-0.938 0.323,0.19 0.483,1.536 1.125,0.923 -0.312,-0.592 -0.716,-0.893 -0.256,-1.396 0.46,-0.502 -0.04,-1.184 -0.599,-1.244 -0.805,-0.086 -1.216,-0.157 -1.21,0.715 0.003,0.456 -0.323,2.482 0.573,1.94 -0.004,-0.213 -0.193,0.116 0,0 z m 0.289,-2.227 c 0.525,-0.006 0.826,0.639 0.204,0.73 -0.753,0.11 -0.545,-0.83 -0.204,-0.73 0.328,-0.004 -0.261,-0.077 0,0 z"
       id="path57" /><linearGradient
       id="linearGradient3128"
       gradientUnits="userSpaceOnUse"
       x1="263.8389"
       y1="-344.77591"
       x2="331.28519"
       y2="-344.77591"
       gradientTransform="matrix(1,0,0,-1,-247.5,-270)"><stop
         offset="0.0023"
         style="stop-color:#217939"
         id="stop3130" /><stop
         offset="1"
         style="stop-color:#8DC63F"
         id="stop3132" /></linearGradient><path
       style="fill:url(#linearGradient4175)"
       inkscape:connector-curvature="0"
       d="m 82.906,73.229 c -12.633,0 -25.266,-0.038 -37.897,0.003 -6.437,0.021 -12.875,0.037 -19.312,0.002 -1.514,-0.009 -3.028,0.02 -4.542,0.004 -0.771,-0.009 -1.542,-0.008 -2.313,-0.006 -0.562,0.002 -2.066,-0.271 -2.479,0.183 0.055,0.535 -0.003,1.156 0.004,1.712 0.009,0.632 -0.226,1.235 0.514,1.253 1.59,0.019 3.181,0.018 4.772,0.017 10.691,-0.006 21.383,0.005 32.071,0 5.557,-0.002 11.114,0 16.672,0 3.279,0 6.56,0 9.839,0 0.787,0 1.575,0 2.362,0 0.457,-0.096 1.188,0.241 1.188,-0.409 0,-0.622 0,-1.245 0,-1.867 0,-0.296 0,-0.593 0,-0.889 -0.289,-0.032 -0.597,0.072 -0.879,-0.003 -3.088,0 0.289,0.077 0,0 z"
       id="path64" /><path
       style="fill:#ffffff"
       inkscape:connector-curvature="0"
       d="m 77.613,26.963 c -0.003,0.328 0.479,0.507 0.527,0.144 0.034,-0.257 -0.157,-0.804 0.186,-0.895 0.666,-0.175 0.36,1.355 1.285,1.032 -0.025,-0.385 -0.573,-0.804 -0.372,-1.194 0.234,-0.453 0.654,-0.935 -0.017,-1.334 -0.215,-0.127 -1.617,-0.311 -1.611,0.033 0.011,0.737 0.01,1.476 0.002,2.214 -0.002,0.206 0.008,-0.696 0,0 z m 0.942,-1.95 c 0.521,0.044 0.689,0.687 0.087,0.75 -0.673,0.069 -0.674,-0.805 -0.087,-0.75 0.244,0.02 -0.276,-0.026 0,0 z"
       id="path66" /><path
       style="fill:#ffffff"
       inkscape:connector-curvature="0"
       d="m 67.119,27.287 c 0.651,0.19 1.411,0.091 1.759,-0.56 0.334,-0.627 0.314,-1.618 -0.387,-1.98 -0.346,-0.178 -1.469,-0.431 -1.529,0.184 -0.032,0.335 -0.201,2.247 0.157,2.356 1.174,0.342 -0.199,-0.06 0,0 z M 67.494,25.5 c 0.003,-0.869 0.997,-0.414 1.053,0.205 0.029,0.312 0.029,0.736 -0.226,0.964 -0.28,0.251 -0.899,0.289 -0.833,-0.225"
       id="path68" /></g></svg>