<?xml version="1.0" encoding="UTF-8" standalone="no"?>
<!-- Generator: Adobe Illustrator 15.0.2, SVG Export Plug-In . SVG Version: 6.00 Build 0)  -->

<svg
   xmlns:dc="http://purl.org/dc/elements/1.1/"
   xmlns:cc="http://creativecommons.org/ns#"
   xmlns:rdf="http://www.w3.org/1999/02/22-rdf-syntax-ns#"
   xmlns:svg="http://www.w3.org/2000/svg"
   xmlns="http://www.w3.org/2000/svg"
   xmlns:xlink="http://www.w3.org/1999/xlink"
   xmlns:sodipodi="http://sodipodi.sourceforge.net/DTD/sodipodi-0.dtd"
   xmlns:inkscape="http://www.inkscape.org/namespaces/inkscape"
   version="1.0"
   id="Layer_1"
   x="0px"
   y="0px"
   width="100"
   height="98.422806"
   viewBox="0 0 99.999996 98.422797"
   enable-background="new 0 0 2481 2073"
   xml:space="preserve"
   inkscape:version="0.48.4 r9939"
   sodipodi:docname="logo.ifm.marker.svg"><metadata
     id="metadata15"><rdf:RDF><cc:Work
         rdf:about=""><dc:format>image/svg+xml</dc:format><dc:type
           rdf:resource="http://purl.org/dc/dcmitype/StillImage" /><dc:title></dc:title></cc:Work></rdf:RDF></metadata><defs
     id="defs13"><linearGradient
       id="SVGID_1_"
       gradientUnits="userSpaceOnUse"
       x1="263.8389"
       y1="-344.77591"
       x2="331.28519"
       y2="-344.77591"
       gradientTransform="matrix(1,0,0,-1,-247.5,-270)"><stop
         offset="0.0023"
         style="stop-color:#217939"
         id="stop60" /><stop
         offset="1"
         style="stop-color:#8DC63F"
         id="stop62" /></linearGradient><linearGradient
       inkscape:collect="always"
       xlink:href="#SVGID_1_"
       id="linearGradient4139"
       gradientUnits="userSpaceOnUse"
       gradientTransform="matrix(1,0,0,-1,-247.5,-270)"
       x1="263.8389"
       y1="-344.77591"
       x2="331.28519"
       y2="-344.77591" /><linearGradient
       id="SVGID_1_-1"
       gradientUnits="userSpaceOnUse"
       x1="51.847698"
       y1="65.255898"
       x2="77.012001"
       y2="41.551998"><stop
         offset="0"
         style="stop-color:#F19824"
         id="stop6" /><stop
         offset="0.1612"
         style="stop-color:#EE6E25"
         id="stop8" /><stop
         offset="0.3395"
         style="stop-color:#EB4727"
         id="stop10" /><stop
         offset="0.5157"
         style="stop-color:#E82828"
         id="stop12" /><stop
         offset="0.687"
         style="stop-color:#E61228"
         id="stop14" /><stop
         offset="0.851"
         style="stop-color:#E50429"
         id="stop16" /><stop
         offset="1"
         style="stop-color:#E50029"
         id="stop18" /></linearGradient><linearGradient
       id="SVGID_2_"
       gradientUnits="userSpaceOnUse"
       x1="23.0205"
       y1="56.362301"
       x2="6.3035002"
       y2="32.675301"><stop
         offset="0"
         style="stop-color:#F19824"
         id="stop25" /><stop
         offset="0.0189"
         style="stop-color:#F08F24"
         id="stop27" /><stop
         offset="0.1136"
         style="stop-color:#ED6926"
         id="stop29" /><stop
         offset="0.2157"
         style="stop-color:#EB4927"
         id="stop31" /><stop
         offset="0.325"
         style="stop-color:#E92E27"
         id="stop33" /><stop
         offset="0.4441"
         style="stop-color:#E71A28"
         id="stop35" /><stop
         offset="0.5781"
         style="stop-color:#E60B29"
         id="stop37" /><stop
         offset="0.7391"
         style="stop-color:#E50329"
         id="stop39" /><stop
         offset="1"
         style="stop-color:#E50029"
         id="stop41" /></linearGradient></defs><sodipodi:namedview
     pagecolor="#ffffff"
     bordercolor="#666666"
     borderopacity="1"
     objecttolerance="10"
     gridtolerance="10"
     guidetolerance="10"
     inkscape:pageopacity="0"
     inkscape:pageshadow="2"
     inkscape:window-width="1002"
     inkscape:window-height="902"
     id="namedview11"
     showgrid="false"
     fit-margin-top="0"
     fit-margin-left="0"
     fit-margin-right="0"
     fit-margin-bottom="0"
     inkscape:zoom="5.1520216"
     inkscape:cx="18.285122"
     inkscape:cy="30.766159"
     inkscape:window-x="163"
     inkscape:window-y="119"
     inkscape:window-maximized="0"
     inkscape:current-layer="Layer_1" /><path
     style="opacity:0.36213995;fill:#000000;fill-opacity:0.57534246;fill-rule:evenodd;stroke:none"
     inkscape:connector-curvature="0"
     id="path7"
     d="m 30.209036,98.422796 c 5.626411,-5.553785 9.034218,-10.843153 11.506341,-16.105002 1.833744,-3.903077 1.567241,-6.021578 4.572524,-11.674019 6.681738,-11.369765 9.706537,-13.496243 21.51007,-17.373402 6.864565,-1.582623 14.718733,-1.713817 21.487151,0.716469 5.534065,1.987211 8.750351,5.213924 9.994611,8.218802 1.016807,2.455504 0.916107,4.971064 -0.04462,7.494512 -1.002761,2.63388 -2.974216,5.333232 -6.887658,8.151162 -2.005011,1.443608 -4.228229,2.588461 -6.259488,3.440189 -2.055894,0.862004 -4.129904,1.39643 -6.213154,2.036432 -4.066587,1.249335 -8.226449,2.166641 -12.393591,3.082183 -12.412046,2.726586 -24.678961,5.712499 -37.272126,12.012674 z"
     clip-rule="evenodd"
     sodipodi:nodetypes="cscccssccsccc" /><path
     style="fill:#f5f5f5;fill-opacity:0.78431374;stroke:#e86c52;stroke-width:2.93298769000000004;stroke-linecap:round;stroke-linejoin:miter;stroke-miterlimit:10;stroke-opacity:1;stroke-dasharray:none"
     inkscape:connector-curvature="0"
     id="path5"
     d="M 30.134416,91.679377 C 28.016291,81.541793 24.281731,73.10552 19.758352,65.286719 16.403154,59.486935 12.516319,54.133673 8.9199986,48.509538 7.719467,46.63206 6.6834123,44.648623 5.5298244,42.700104 3.2231948,38.804023 1.3530149,34.286734 1.4718619,28.427076 1.5879664,22.70181 3.2863003,18.10919 5.7353248,14.354231 9.7632348,8.1781947 16.510136,3.1145772 25.562847,1.7838334 c 7.401689,-1.08800819 14.341307,0.7501202 19.262511,3.5558198 4.021402,2.2926179 7.135594,5.3551178 9.502761,8.9644128 2.470769,3.767167 4.172163,8.217672 4.314883,14.022741 0.07305,2.974145 -0.426462,5.728351 -1.130155,8.012944 -0.712153,2.312443 -1.857497,4.245431 -2.876506,6.310253 -1.989168,4.030474 -4.48305,7.723246 -6.985838,11.418397 -7.45475,11.006267 -14.451733,22.230688 -17.516087,37.610976 z"
     stroke-miterlimit="10"
     clip-rule="evenodd" /><g
     transform="matrix(0.55241155,0,0,0.55241155,2.1627772,0.5797387)"
     id="g3"><linearGradient
       id="linearGradient3057"
       gradientUnits="userSpaceOnUse"
       x1="51.847698"
       y1="65.255898"
       x2="77.012001"
       y2="41.551998"><stop
         offset="0"
         style="stop-color:#F19824"
         id="stop3059" /><stop
         offset="0.1612"
         style="stop-color:#EE6E25"
         id="stop3061" /><stop
         offset="0.3395"
         style="stop-color:#EB4727"
         id="stop3063" /><stop
         offset="0.5157"
         style="stop-color:#E82828"
         id="stop3065" /><stop
         offset="0.687"
         style="stop-color:#E61228"
         id="stop3067" /><stop
         offset="0.851"
         style="stop-color:#E50429"
         id="stop3069" /><stop
         offset="1"
         style="stop-color:#E50029"
         id="stop3071" /></linearGradient><path
       style="fill:url(#SVGID_1_-1)"
       inkscape:connector-curvature="0"
       d="m 94.125,52.363 c -2.038,-1.829 -5.896,-1.237 -8.342,-0.88 -3.119,0.455 -6.179,1.278 -9.224,2.078 -1.446,0.381 -2.891,0.768 -4.351,1.094 -0.462,0.103 -3.368,0.953 -3.182,-0.157 0.386,-2.149 3.398,-3.935 2.503,-6.244 -1.003,-2.584 -5.135,-1.835 -7.12,-1.153 -0.896,0.308 -1.749,0.74 -2.561,1.219 -0.275,0.163 -2.334,1.904 -2.406,1.868 -1.73,1.26 -3.256,2.684 -5.117,3.775 -0.776,0.408 -1.634,0.79 -2.528,0.795 -1.059,0.01 0.078,-1.895 0.38,-2.196 1.082,-1.484 2.271,-2.855 3.508,-4.213 0.198,-0.188 1.643,-1.461 1.271,-1.704 -0.602,-0.392 -1.9,-0.009 -2.481,0.191 -0.539,-0.27 -2.467,1.538 -2.565,1.946 -0.069,-0.069 -2.228,2.786 -2.332,2.961 -0.034,0 -0.803,0.978 -0.878,1.027 -0.636,0.422 -1.282,0.816 -1.967,1.146 -0.905,0.436 -3.11,1.666 -4.148,0.942 -0.506,0 0.775,-1.664 0.838,-1.75 0.127,0 0.712,-0.77 0.795,-0.856 0.254,0 0.883,-0.913 1.116,-1.139 0.702,-0.68 1.51,-1.447 2.052,-2.279 1.902,-2.918 -3.875,-2.428 -5.36,-2.293 -1.499,0.136 -2.853,0.602 -3.888,1.741 -0.584,0.508 -2.825,2.585 -1.684,3.439 0.273,0.204 2.679,-2.228 3.123,-2.491 1.39,-0.824 3.166,-0.503 4.706,-0.551 -0.944,1.165 -2.27,2.013 -3.229,3.184 -0.81,0.989 -2.109,2.355 -1.59,3.771 0.664,1.81 3.176,1.647 4.66,1.234 1.419,-0.395 2.54,-1.176 3.822,-1.784 -0.06,0.12 -0.06,0.181 0,0.181 -0.088,0 0.053,0.851 0.053,0.853 0.148,0.485 0.557,0.785 1.033,0.911 0.684,0.183 1.399,0.183 2.093,0.06 0.347,-0.062 0.792,-0.274 1.137,-0.274 1.703,-0.398 3.145,-1.505 4.631,-2.361 0,0.976 0.102,1.828 1.052,2.344 0.818,0.444 1.893,0.403 2.786,0.315 1.162,-0.115 2.486,-0.614 3.439,-1.292 0,-0.084 1.427,-1.111 1.662,-1.166 0.149,2.334 2.301,2.599 4.215,2.396 2.973,-0.314 5.928,-1.213 8.847,-1.843 3.372,-0.729 6.812,-1.433 10.274,-1.495 1.589,-0.029 3.282,0.075 4.758,0.717 0.667,0.29 1.157,0.58 1.038,-0.459 -0.072,-0.625 -0.368,-1.191 -0.839,-1.608 -0.516,-0.463 0.559,0.494 0,0 z M 64.868,49.292 c 0.18,0.124 1.787,-0.75 2.103,-0.824 1.015,-0.241 1.729,-0.072 1.106,1.045 -0.608,1.091 -1.384,2.031 -2.305,2.729 -0.119,0.09 -0.824,0.938 -0.9,0.899 -0.141,0.036 -0.71,0.336 -0.672,0.528 -0.425,0.126 -0.68,0.472 -1.066,0.624 -0.593,0.234 -1.128,0.59 -1.759,0.71 -0.304,0.059 -0.733,0.089 -0.947,-0.192 -0.184,-0.241 0.06,-0.775 -0.095,-0.899 0.269,-0.107 0.393,-0.704 0.611,-0.934 0.18,-0.188 0.724,-1.241 0.916,-1.241 0.324,-0.189 0.5,-0.485 0.796,-0.688 0.237,-0.162 0.57,-0.454 0.77,-0.663 0.121,-0.128 1.118,-0.994 1.204,-0.951 0.127,0.031 0.206,-0.018 0.238,-0.143 0.008,0.005 -0.023,0.138 0,0 z"
       id="path20" /><path
       style="fill:#e50029"
       inkscape:connector-curvature="0"
       d="m 20.809,35.373 c 1.587,0.042 2.898,-0.553 4.163,-1.465 0.68,-0.49 1.329,-1.027 1.938,-1.604 0.665,-0.629 0.811,-1.015 -0.294,-1.01 -1.612,0.03 -2.75,0.5 -3.948,1.523 -0.588,0.503 -1.139,1.057 -1.665,1.625 -0.221,0.239 -0.974,0.908 -0.194,0.931 1.156,0.031 -0.033,-10e-4 0,0 z"
       id="path22" /><linearGradient
       id="linearGradient3075"
       gradientUnits="userSpaceOnUse"
       x1="23.0205"
       y1="56.362301"
       x2="6.3035002"
       y2="32.675301"><stop
         offset="0"
         style="stop-color:#F19824"
         id="stop3077" /><stop
         offset="0.0189"
         style="stop-color:#F08F24"
         id="stop3079" /><stop
         offset="0.1136"
         style="stop-color:#ED6926"
         id="stop3081" /><stop
         offset="0.2157"
         style="stop-color:#EB4927"
         id="stop3083" /><stop
         offset="0.325"
         style="stop-color:#E92E27"
         id="stop3085" /><stop
         offset="0.4441"
         style="stop-color:#E71A28"
         id="stop3087" /><stop
         offset="0.5781"
         style="stop-color:#E60B29"
         id="stop3089" /><stop
         offset="0.7391"
         style="stop-color:#E50329"
         id="stop3091" /><stop
         offset="1"
         style="stop-color:#E50029"
         id="stop3093" /></linearGradient><path
       style="fill:url(#SVGID_2_)"
       inkscape:connector-curvature="0"
       d="m 34.967,51.85 c -0.923,0.897 -2.018,1.705 -3.18,2.265 -0.578,0.277 -1.18,0.536 -1.812,0.651 -0.316,0.057 -0.635,0.113 -0.958,0.103 1.315,0.054 -1.776,-0.169 -0.42,-0.169 0.11,-0.22 0.149,-0.578 0.282,-0.84 0.183,0 1.082,-1.399 1.238,-1.603 0.261,-0.174 0.952,-1.464 1.224,-1.464 0.449,-0.515 0.894,-1.087 1.24,-1.68 0.036,-0.062 0.7,-1.535 0.438,-1.535 -0.094,-1.981 -3.981,-0.756 -5.008,-0.349 -1.004,0.398 -1.849,1.038 -2.81,1.496 -0.467,0.272 -1.591,1.396 -2.138,1.411 0.016,-0.029 0.017,-0.044 0.001,-0.044 0.844,-1.023 1.765,-2.019 2.517,-3.113 0.418,-0.07 -0.45,-0.414 -0.448,-0.414 -0.494,-0.055 -1.102,0.026 -1.573,0.153 -0.58,0.157 -1.208,0.345 -1.648,0.776 -0.268,0.263 -0.575,0.98 -0.879,1.132 -0.931,1.176 -2.019,2.23 -3.194,3.16 -1.849,1.461 -4.366,3.186 -6.821,3.286 -3.527,0.146 0.493,-5.203 1.248,-6.257 1.805,-2.524 3.822,-4.911 5.905,-7.208 1.003,-1.106 2.036,-2.187 3.105,-3.229 0.209,-0.204 1.193,-0.893 0.896,-1.269 -0.392,-0.495 -1.67,-0.21 -2.177,-0.114 -2.87,0.547 -4.746,3.3 -6.617,5.362 -1.986,2.188 -3.92,4.485 -5.467,7.011 -1.288,2.104 -3.643,6.925 0.222,7.804 2.881,0.655 5.856,-1.11 8.273,-2.396 -0.162,0.607 -1.545,1.529 -1.406,2.129 0.121,0.525 1.442,0.252 1.799,0.184 1.102,-0.214 1.568,-0.754 2.291,-1.546 0.725,-0.795 1.521,-1.522 2.352,-2.204 1.639,-1.345 3.378,-2.589 5.266,-3.56 0.393,-0.202 2.04,-1.191 2.436,-0.708 0.258,0.315 -0.748,1.302 -0.899,1.479 -1.08,1.261 -2.602,2.646 -3.025,4.311 -0.592,1.581 0.913,2.312 2.214,2.325 1.985,0.021 4.035,-0.8 5.693,-1.841 0.683,-0.43 1.379,-0.955 1.901,-1.578 0.209,-0.249 0.405,-0.473 0.435,-0.811 0.025,-0.203 -0.019,-1.566 -0.496,-1.106 -0.787,0.764 0.16,-0.155 0,0 z"
       id="path43" /><path
       style="fill:#e50029"
       inkscape:connector-curvature="0"
       d="m 56.018,45.09 c 1.476,0.206 2.722,-0.565 3.882,-1.39 0.786,-0.559 1.546,-1.156 2.274,-1.789 0.305,-0.265 1.803,-1.262 0.903,-1.509 -1.55,-0.443 -3.387,0.453 -4.485,1.452 -0.693,0.63 -1.385,1.262 -2.031,1.94 -0.211,0.222 -1.366,1.179 -0.543,1.296 0.338,0.047 -0.127,-0.018 0,0 z"
       id="path45" /></g></svg>