<?xml version="1.0" encoding="utf-8"?>
<!-- Generator: Adobe Illustrator 16.0.0, SVG Export Plug-In . SVG Version: 6.00 Build 0)  -->
<!DOCTYPE svg PUBLIC "-//W3C//DTD SVG 1.1//EN" "http://www.w3.org/Graphics/SVG/1.1/DTD/svg11.dtd">
<svg version="1.1" id="Calque_1" xmlns="http://www.w3.org/2000/svg" xmlns:xlink="http://www.w3.org/1999/xlink" x="0px" y="0px"
	 width="100px" height="100px" viewBox="0 0 100 100" enable-background="new 0 0 100 100" xml:space="preserve">
<g>
	<path d="M94.125,52.364c-2.035-1.831-5.898-1.237-8.342-0.88c-3.119,0.456-6.179,1.278-9.224,2.079
		c-1.446,0.381-2.891,0.768-4.351,1.093c-0.624,0.14-3.578,1.054-3.12-0.397c0.641-2.031,4.109-4.775,1.858-6.87
		c-1.92-1.787-5.729-0.775-7.784,0.23c-2.164,1.06-3.823,2.715-5.693,4.198c-0.999,0.792-2.045,1.499-3.143,2.146
		c-0.403,0.058-3.249,1.668-2.964,0.191c0.233-1.21,1.376-2.402,2.141-3.326c0.845-1.021,1.756-1.973,2.647-2.951
		c0.188-0.206,0.989-0.805,0.899-1.12c-0.095-0.332-0.835-0.243-1.07-0.225c-1.051,0.059-2.275,0.413-3.05,1.158
		c-0.65,0.627-1.229,1.322-1.823,2.001c-0.744,0.852-1.242,1.965-2.007,2.774c-0.601,0.636-1.584,1.077-2.365,1.451
		c-0.941,0.451-1.946,0.96-3,1.078c-0.425,0.051-0.973,0.14-1.23-0.281c-0.065-0.535,0.417-0.984,0.725-1.355
		c0.677-0.817,1.757-1.554,2.284-2.464c0.804-0.686,1.668-1.598,2.149-2.546c0.635-1.253-0.802-1.73-1.774-1.833
		c-2.221-0.236-5.176-0.299-7.04,1.108c-0.829,0.627-1.599,1.503-2.234,2.322c-0.37,0.476-0.5,1.021-0.281,1.598
		c0.231,0.614,1.003-0.41,1.208-0.606c0.796-0.763,1.577-1.569,2.617-1.999c1.341-0.396,2.75-0.217,4.125-0.259
		c-0.852,1.065-2.067,1.903-2.997,2.916c-0.9,0.979-2.364,2.563-1.822,4.041c0.566,1.544,2.606,1.663,3.969,1.398
		c1.715-0.332,2.985-1.222,4.513-1.947c0,0.776,0,1.512,0.83,1.857c1.005,0.42,2.255,0.235,3.269-0.053
		c1.801-0.511,3.251-1.515,4.848-2.436c0,0.876,0.046,1.649,0.827,2.204c0.646,0.459,1.589,0.555,2.364,0.507
		c1.071-0.064,2.205-0.306,3.15-0.832c0.495-0.204,1.038-0.499,1.449-0.844c0.35-0.21,0.751-0.743,1.15-0.834
		c0.07,1.098,0.638,1.97,1.705,2.314c0.848,0.298,2.386,0.296,3.225-0.043c1.438-0.029,3.01-0.572,4.406-0.889
		c1.62-0.368,3.24-0.734,4.866-1.073c3.227-0.675,6.558-1.316,9.868-1.252c1.461,0.028,2.996,0.192,4.32,0.854
		C95.662,55.286,94.674,52.851,94.125,52.364C93.609,51.9,94.684,52.859,94.125,52.364z M64.868,49.29
		c0.17,0.122,1.792-0.75,2.102-0.824c1.012-0.241,1.73-0.071,1.107,1.045c-0.608,1.088-1.386,2.031-2.307,2.729
		c-0.195,0.148-0.689,0.899-0.9,0.899c-0.143,0.036-0.709,0.334-0.671,0.526c-0.425,0.128-0.681,0.473-1.067,0.625
		c-0.593,0.233-1.129,0.59-1.76,0.709c-0.304,0.059-0.733,0.089-0.948-0.192c-0.171-0.227,0.047-0.803-0.094-0.899
		c0.287-0.144,0.379-0.69,0.611-0.934c0.331-0.346,0.598-0.891,0.916-1.241c0.323-0.191,0.501-0.485,0.798-0.688
		c0.236-0.162,0.57-0.454,0.769-0.663c0.105-0.111,1.19-0.962,1.204-0.949C64.757,49.466,64.837,49.418,64.868,49.29
		C64.875,49.295,64.846,49.43,64.868,49.29z M68.842,57.119L68.842,57.119L68.842,57.119L68.842,57.119z"/>
	<path d="M20.809,35.374c1.587,0.042,2.898-0.553,4.163-1.465c0.68-0.49,1.33-1.027,1.938-1.604c0.664-0.629,0.811-1.015-0.294-1.01
		c-1.613,0.03-2.748,0.501-3.947,1.523c-0.589,0.502-1.139,1.057-1.665,1.625C20.783,34.681,20.029,35.351,20.809,35.374
		C21.964,35.405,20.776,35.373,20.809,35.374z"/>
	<path d="M34.967,51.852c-1.239,1.203-2.737,2.185-4.37,2.757c-0.5,0.176-1.991,0.636-2-0.192c0.405-0.802,0.975-1.45,1.521-2.158
		c0-0.155,0.639-0.734,0.748-0.867c0.315-0.382,0.635-0.765,0.937-1.157c0.5-0.649,0.992-1.342,1.206-2.145
		c0.574-2.149-2.609-1.345-3.596-1.282c0.131-0.045,0.109-0.053-0.065-0.022c-0.343,0.092-0.682,0.2-1.016,0.322
		c-0.662,0.242-1.303,0.541-1.92,0.882c-0.61,0.337-1.211,0.711-1.79,1.101c-0.382,0.257-1.085,1.034-1.558,1.047
		c-0.021-0.309,0.929-1.17,1.138-1.424c0.47-0.572,0.961-1.123,1.38-1.734c0.358-0.482-0.879-0.42-1.064-0.399
		c-0.708,0.022-1.494,0.224-2.12,0.562c-0.592,0.32-0.998,0.94-1.364,1.486c-0.432,0.545-0.898,1.064-1.39,1.556
		c-1.052,1.051-2.218,1.981-3.465,2.791c-0.96,0.623-7.14,3.961-6.619,0.674c0.205-1.293,1.152-2.542,1.86-3.605
		c0.895-1.344,1.868-2.635,2.878-3.893c1.947-2.422,3.996-4.774,6.184-6.981c0.493-0.497,2.822-2.256,0.898-2.293
		c-1.243-0.027-3.014,0.26-3.921,1.2c-4.029,4.156-8.756,8.574-10.951,14.055c-0.938,2.342-0.571,4.936,2.356,5.151
		c2.719,0.2,5.247-1.277,7.544-2.506c-0.191,0.753-1.06,1.29-1.385,1.987c-0.29,0.625,1.546,0.372,1.775,0.328
		c1.779-0.344,2.786-2.157,4.095-3.288c1.426-1.232,2.958-2.372,4.578-3.336c0.798-0.475,1.634-0.951,2.508-1.272
		c0.248-0.091,0.948-0.384,1.165-0.121c0.204,0.247-0.322,0.712-0.409,0.909c-1.149,1.336-2.598,2.691-3.32,4.326
		c-0.918,2.078,0.716,3.086,2.646,2.857c1.795-0.189,3.543-0.86,5.067-1.818c0.685-0.43,1.376-0.955,1.9-1.577
		c0.209-0.249,0.405-0.473,0.435-0.811C35.489,52.757,35.442,51.388,34.967,51.852C34.18,52.615,35.127,51.695,34.967,51.852z"/>
	<path d="M56.02,45.09c1.731,0.241,3.162-0.842,4.465-1.816c0.677-0.506,1.332-1.04,1.962-1.602c0.333-0.296,1.576-1.19,0.483-1.289
		c-1.666-0.126-3.12,0.361-4.338,1.471c-0.605,0.552-1.21,1.105-1.785,1.689C56.564,43.789,55.139,44.964,56.02,45.09
		C56.359,45.137,55.893,45.072,56.02,45.09z"/>
</g>
</svg>
