<?xml version="1.0" encoding="utf-8"?>
<!-- Generator: Adobe Illustrator 16.0.0, SVG Export Plug-In . SVG Version: 6.00 Build 0)  -->
<!DOCTYPE svg PUBLIC "-//W3C//DTD SVG 1.1//EN" "http://www.w3.org/Graphics/SVG/1.1/DTD/svg11.dtd">
<svg version="1.1" xmlns="http://www.w3.org/2000/svg" xmlns:xlink="http://www.w3.org/1999/xlink" x="0px" y="0px"
	 width="481.89px" height="106.968px" viewBox="0 0 481.89 106.968" enable-background="new 0 0 481.89 106.968"
	 xml:space="preserve">
<g id="Calque_1">
	<g>
		<g>
			<g>
				<path d="M328.679,14.465c-5.137,0-11.202,2.443-11.205,17.045c-0.003,11.257,3.773,17.24,10.518,17.24
					c5.137,0.001,9.347-2.443,10.151-2.829c0.805-0.321,0.866-0.836,0.679-1.479l-1.238-3.023c-0.185-0.45-0.679-0.579-1.235-0.386
					c-0.62,0.258-4.581,2.38-7.859,2.379c-4.952,0-5.628-5.468-5.755-8.105c-0.061-0.643,0-1.287,0.993-1.287l14.108,0.001
					c0.802,0,1.979-0.579,1.979-1.737C339.753,20.899,338.517,14.467,328.679,14.465z M333.564,29.455l-9.901-0.002
					c-0.617,0-0.989-0.514-0.929-1.222c0.312-3.28,0.434-8.62,6.13-8.62c5.26,0.001,5.751,5.212,5.751,8.751
					C334.615,29.069,334.245,29.455,333.564,29.455z"/>
				<path d="M349.401,47.789h2.784c0.927,0.001,1.24-0.577,1.24-1.606V28.234c0-3.793,3.715-8.298,7.736-8.298h1.3
					c0.802,0.001,1.053-0.384,1.053-1.027v-3.475c0-0.707-0.433-0.965-1.05-0.965c-2.787,0-5.696,1.994-7.862,4.31
					c-0.372,0.45-1.054,0.322-1.115-0.321c-0.123-1.03-0.431-2.831-1.543-2.833h-2.414c-0.929,0-1.361,0.387-1.361,1.352
					l-0.003,29.396C348.166,47.274,348.473,47.789,349.401,47.789z"/>
				<path d="M378.113,47.793h2.722c0.867,0,1.361-0.514,1.607-1.416l8.481-28.881c0.249-1.028,0.065-1.542-0.678-1.737l-2.6-0.9
					c-0.805-0.257-1.3,0-1.486,0.707l-6.126,21.42c-0.25,0.9-0.683,0.965-0.929,0.064l-6.25-21.68
					c-0.122-0.578-0.679-0.707-1.357-0.515l-2.477,0.836c-0.806,0.259-1.051,0.837-0.806,1.801l8.475,28.82
					C376.875,47.15,377.247,47.793,378.113,47.793z"/>
				<path d="M418.208,45.933c0.805-0.322,0.866-0.836,0.679-1.48l-1.235-3.022c-0.185-0.45-0.682-0.579-1.237-0.388
					c-0.618,0.257-4.581,2.38-7.859,2.38c-4.95-0.001-5.629-5.47-5.755-8.107c-0.062-0.643,0-1.287,0.992-1.287l14.109,0.003
					c0.802,0,1.98-0.579,1.98-1.737c-0.061-11.385-1.296-17.817-11.137-17.818c-5.135-0.001-11.199,2.442-11.205,17.044
					c0,11.258,3.772,17.239,10.52,17.241C413.196,48.762,417.406,46.318,418.208,45.933z M408.928,19.622
					c5.26,0,5.755,5.211,5.755,8.75c0,0.707-0.374,1.093-1.053,1.093l-9.903-0.001c-0.614,0-0.989-0.515-0.928-1.223
					C403.113,24.96,403.236,19.621,408.928,19.622z"/>
				<path d="M443.393,28.44h-3.091c-9.47-0.002-12.997,3.469-12.997,10.739c0,5.338,3.03,9.649,7.856,9.649
					c3.155,0,6.064-1.734,8.047-3.214c0.491-0.386,0.989-0.321,1.174,0.321c0.31,1.095,0.62,1.866,1.61,1.866h2.162
					c0.992,0,1.304-0.577,1.304-1.479V29.02c0-3.474-0.185-6.753-1.546-9.779c-1.423-2.894-4.022-4.76-9.096-4.76
					c-3.154-0.001-5.011,0.577-10.024,2.765c-0.311,0.192-0.866,0.642-0.56,1.544l0.989,2.573c0.252,0.643,0.62,0.643,1.18,0.45
					c2.6-1.093,5.752-2.187,7.857-2.187c5.509,0.001,6.003,3.411,6.003,7.978C444.262,28.117,443.953,28.44,443.393,28.44z
					 M444.259,33.971v4.438c0,2.768-3.772,5.276-7.239,5.274c-3.219,0-4.642-2.637-4.639-5.918c0-3.41,2.906-4.695,6.062-4.693
					h4.826C444.135,33.071,444.259,33.585,444.259,33.971z"/>
				<path d="M466.161,48.833c3.157,0,5.818-1.477,7.797-2.957c0.434-0.386,1.178-0.257,1.3,0.386
					c0.311,1.094,0.744,1.544,1.672,1.544h2.228c0.928,0,1.3-0.514,1.3-1.416l0.003-29.204c0-0.964-0.309-1.544-1.42-1.544H476.5
					c-0.927,0-1.24,0.644-1.24,1.737v21.485c-0.003,2.509-4.645,5.015-7.119,5.015c-2.848,0-4.454-2.444-4.451-5.338V17.121
					c0-0.964-0.308-1.479-1.298-1.479l-2.786-0.001c-0.928,0-1.176,0.644-1.176,1.737l-0.003,22.707
					C458.427,44.845,461.397,48.833,466.161,48.833z"/>
				<path d="M323.86,59.766h-11.078c-0.929,0-1.358,0.71-1.358,1.802v39.001c-4.707-0.266-11.364-2.25-17.188-7.239
					c-1.107-0.95-3.172-3.186-5.835-6.247c3.603-5.472,6.332-11.66,8.104-18.013c2.438-8.74,2.629-16.274,2.467-20.473
					c7.419-1.057,11.066-8.047,11.127-12.263c0-0.643-0.453-0.9-1.033-0.901h-3.428c-0.581,0-0.904,0.257-1.033,0.836
					c-0.389,3.86-3.491,7.076-7.563,7.075c-4.394,0-9.562-3.283-9.562-18.719c0.003-15.632,5.046-18.846,9.568-18.846
					c4.521,0.001,7.171,4.054,7.561,7.076c0.131,0.772,0.452,1.03,1.099,1.03h3.362c0.709,0.001,1.098-0.45,1.098-1.029
					c-0.195-5.081-4.782-12.48-13.056-12.482c-8.917,0-15.06,7.074-15.06,24.186c-0.003,14.5,4.6,21.773,11.233,23.66
					c0.177,3.575,0.126,10.847-2.234,19.33c-1.257,4.505-3.427,9.852-6.571,14.95c-9.91-11.756-24.176-29.693-31.199-39.032
					l1.018-0.813c6.163-4.91,12.532-9.986,14.891-18.603c1.652-6.042,0.528-12.22-3.082-16.954C262.662,2.587,257.321,0,251.446,0
					c-9.91,0-18.282,8.925-18.282,19.488c0,7.673,4.263,12.958,9.198,19.08c0.986,1.224,2.019,2.504,3.074,3.871
					c-9.628,7.588-19.254,15.71-21.319,31.211c-1.954,14.654,8.849,29.883,23.116,32.588c2.608,0.494,5.13,0.729,7.569,0.729
					c12.487-0.003,22.712-6.165,30.16-15.215c2.465,2.798,4.424,4.88,5.587,5.878c6.326,5.42,14.537,8.657,21.964,8.657v-0.112
					c0.05,0.006,0.096,0.034,0.146,0.034h2.783c0.744,0,1.238-0.513,1.238-1.413V88.329c0-1.542,0.744-2.702,2.228-2.702h5.819
					c5.629,0,11.879-5.788,11.879-12.93C336.606,66.328,331.843,59.766,323.86,59.766z M238.829,19.488
					c0-7.363,5.896-13.823,12.617-13.823c4.152,0,7.759,1.729,10.154,4.868c2.531,3.317,3.305,7.7,2.121,12.022
					c-1.87,6.833-7.254,11.124-12.955,15.668l-0.884,0.706c-1.067-1.381-2.112-2.678-3.11-3.917
					C242.161,29.293,238.829,25.162,238.829,19.488z M248.29,100.671c-10.156-1.925-20.25-13.568-18.558-26.271
					c1.764-13.23,10.052-20.287,19.1-27.422c7.102,9.429,22.063,28.3,32.299,40.34C273.933,96.504,263.115,103.503,248.29,100.671z
					 M324.229,80.285h-5.69c-1.18,0-1.858-0.771-1.858-1.992V66.909c0-1.16,0.495-1.804,1.672-1.804h5.198
					c4.084,0,7.733,2.894,7.733,7.721C331.284,77.586,327.265,80.285,324.229,80.285z"/>
				<path d="M352.445,72.89c-5.135,0-11.199,2.442-11.199,17.047c0,11.258,3.772,17.237,10.519,17.237
					c5.136,0,9.344-2.444,10.146-2.831c0.805-0.318,0.867-0.833,0.683-1.478l-1.235-3.021c-0.188-0.453-0.683-0.582-1.241-0.386
					c-0.618,0.257-4.578,2.378-7.859,2.378c-4.947,0-5.63-5.47-5.752-8.105c-0.062-0.643,0-1.288,0.989-1.288h14.108
					c0.806,0,1.979-0.576,1.979-1.736C363.52,79.324,362.285,72.89,352.445,72.89z M357.333,87.876h-9.899
					c-0.621,0-0.99-0.514-0.928-1.221c0.307-3.278,0.431-8.62,6.127-8.62c5.26,0,5.751,5.213,5.751,8.752
					C358.383,87.491,358.014,87.876,357.333,87.876z"/>
				<path d="M386.229,72.89c-2.971,0-5.754,1.61-7.797,3.086c-0.435,0.324-1.116,0.195-1.301-0.386
					c-0.245-1.09-0.682-1.543-1.671-1.543h-2.225c-0.992,0-1.302,0.515-1.302,1.414v29.206c0,0.9,0.248,1.543,1.486,1.543h2.476
					c1.113,0,1.297-0.963,1.297-1.737v-21.42c0-2.639,4.581-5.081,7.055-5.081c2.848,0,4.517,2.313,4.517,5.209v21.549
					c0,1.03,0.312,1.48,1.239,1.48h2.784c0.866,0,1.235-0.643,1.235-1.737V81.638C394.023,76.814,390.933,72.89,386.229,72.89z"/>
				<path d="M416.919,88.908l-6.249-2.317c-1.795-0.707-3.156-2.314-3.156-4.438c0-2.639,1.794-4.566,5.072-4.566
					c3.281,0,5.076,1.928,5.076,4.502c0,1.031,0.308,1.479,1.051,1.479h2.723c0.866,0,1.302-0.515,1.302-1.415
					c-0.061-5.017-3.097-9.263-10.151-9.263c-7.054,0-10.209,4.246-10.209,9.263c0,3.925,2.412,7.398,6.004,8.748l6.436,2.446
					c2.041,0.771,3.03,2.444,3.03,4.438c0,2.765-2.477,4.695-5.137,4.695c-3.278,0-5.135-2.121-5.135-5.017
					c0-0.71-0.371-1.028-1.053-1.028h-3.218c-0.74,0-0.928,0.386-0.928,1.028c0.063,5.402,3.961,9.711,10.333,9.711
					c5.819,0,10.273-4.309,10.273-9.325C422.984,93.989,421.128,90.515,416.919,88.908z"/>
				<path d="M441.296,72.89c-5.134,0-11.199,2.442-11.199,17.047c0,11.258,3.776,17.237,10.521,17.237
					c5.134,0,9.343-2.444,10.148-2.831c0.805-0.318,0.866-0.833,0.682-1.478l-1.238-3.021c-0.188-0.453-0.679-0.582-1.238-0.386
					c-0.62,0.257-4.577,2.378-7.859,2.378c-4.949,0-5.629-5.47-5.755-8.105c-0.061-0.643,0-1.288,0.992-1.288h14.108
					c0.803,0,1.979-0.576,1.979-1.736C452.375,79.324,451.138,72.89,441.296,72.89z M446.187,87.876h-9.901
					c-0.618,0-0.989-0.514-0.929-1.221c0.311-3.278,0.434-8.62,6.127-8.62c5.26,0,5.755,5.213,5.755,8.752
					C447.239,87.491,446.867,87.876,446.187,87.876z"/>
				<path d="M444.949,59.509l-7.24,8.043c-0.557,0.578-0.618,1.093-0.309,1.479l0.806,0.899c0.369,0.518,0.805,0.518,1.422-0.192
					l8.354-7.077c0.617-0.446,0.866-0.964,0.185-1.735l-1.423-1.607C446.25,58.738,445.69,58.867,444.949,59.509z"/>
				<path d="M465.802,92.443h14.108c0.803,0,1.979-0.576,1.979-1.736c-0.062-11.383-1.3-17.817-11.141-17.817
					c-5.134,0-11.199,2.442-11.199,17.047c0,11.258,3.776,17.237,10.521,17.237c5.134,0,9.343-2.444,10.148-2.831
					c0.805-0.318,0.866-0.833,0.682-1.478l-1.238-3.021c-0.188-0.453-0.68-0.582-1.238-0.386c-0.62,0.257-4.578,2.378-7.859,2.378
					c-4.949,0-5.629-5.47-5.755-8.105C464.75,93.089,464.81,92.443,465.802,92.443z M470.937,78.035c5.26,0,5.754,5.213,5.754,8.752
					c0,0.704-0.372,1.089-1.051,1.089h-9.901c-0.619,0-0.989-0.514-0.929-1.221C465.12,83.377,465.244,78.035,470.937,78.035z"/>
			</g>
			<g>
				<path fill="#EB702D" d="M23.154,1.986H1.802C1.108,1.986,0,2.563,0,3.86v100.332c0,0.723,0.97,1.873,1.941,1.873h19.965
					c28.424,0,35.912-28.108,35.912-53.336C57.818,27.358,47.973,1.986,23.154,1.986z M24.402,96.409H13.033
					c-2.496,0-4.437-1.3-4.437-3.46V16.115c0-1.73,0.831-4.469,4.021-4.469h12.062c10.122,0,24.681,13.118,24.681,41.083
					C49.359,83.432,38.544,96.409,24.402,96.409z"/>
				<path fill="#EB702D" d="M105.926,1.986H76.947c-1.109,0-1.802,0.721-1.802,2.018v4.613c0,1.442,0.97,2.163,1.802,2.163h6.793
					c2.496,0,3.744,2.45,3.744,3.892v78.71c0,2.164-1.386,3.892-3.882,3.892h-6.517c-1.248,0-1.941,0.721-1.941,1.875v5.044
					c0,1.01,0.693,1.873,1.802,1.873h29.256c0.97,0,1.803-0.863,1.803-1.873v-5.189c0-0.863-0.694-1.729-1.803-1.729h-6.377
					c-2.358,0-3.882-2.164-3.882-3.892v-78.71c0-2.162,1.802-3.892,3.744-3.892h6.516c1.109,0,1.803-1.009,1.803-1.874V3.86
					C108.006,2.563,107.312,1.986,105.926,1.986z"/>
				<path fill="#EB702D" d="M202.148,1.986h-6.24c-2.218,0-2.772,1.009-3.05,2.018L168.87,76.948
					c-0.553,1.728-1.941,1.442-2.495,0.146L141.556,3.428c-0.277-0.865-0.693-1.442-1.803-1.442h-7.209
					c-1.11,0-1.665,0.577-1.665,1.874v100.187c0,1.155,0.278,2.019,1.388,2.019h5.406c1.11,0,1.665-0.863,1.665-1.873V30.816
					c0-1.874,1.663-2.593,2.358-0.432l19.549,57.229c0.555,1.442,0.971,1.733,1.941,1.733h8.32c1.248,0,1.525-0.436,1.941-1.442
					l19.549-57.952c0.694-2.162,2.358-1.441,2.358,0.721v73.52c0,1.151,0.971,1.873,1.525,1.873h5.269
					c1.248,0,1.664-1.006,1.664-2.019V3.86C203.812,2.563,203.396,1.986,202.148,1.986z"/>
			</g>
		</g>
	</g>
</g>
<g id="Calque_2">
	
		<rect x="-56.003" y="-54.728" display="none" fill="#FFFFFF" stroke="#000000" stroke-miterlimit="10" width="595.28" height="339.812"/>
</g>
</svg>
