<?xml version="1.0" encoding="UTF-8" standalone="no"?>
<!-- Generator: Adobe Illustrator 16.0.0, SVG Export Plug-In . SVG Version: 6.00 Build 0)  -->

<svg
   xmlns:dc="http://purl.org/dc/elements/1.1/"
   xmlns:cc="http://creativecommons.org/ns#"
   xmlns:rdf="http://www.w3.org/1999/02/22-rdf-syntax-ns#"
   xmlns:svg="http://www.w3.org/2000/svg"
   xmlns="http://www.w3.org/2000/svg"
   xmlns:sodipodi="http://sodipodi.sourceforge.net/DTD/sodipodi-0.dtd"
   xmlns:inkscape="http://www.inkscape.org/namespaces/inkscape"
   version="1.1"
   id="Calque_1"
   x="0px"
   y="0px"
   width="100"
   height="100"
   viewBox="0 0 99.999995 99.999998"
   enable-background="new 0 0 595.28 841.89"
   xml:space="preserve"
   inkscape:version="0.48.3.1 r9886"
   sodipodi:docname="logoParis5.noir.svg"><metadata
   id="metadata137"><rdf:RDF><cc:Work
       rdf:about=""><dc:format>image/svg+xml</dc:format><dc:type
         rdf:resource="http://purl.org/dc/dcmitype/StillImage" /><dc:title></dc:title></cc:Work></rdf:RDF></metadata><defs
   id="defs135">
	

		
		
		
		
		
		
		
		
		
		
		
		
		
		
		
		
		
		
		
		
		
		
		
		
		
		
		
		
		
		
		
		
		
		
		
		
		
		
		
		
		
		
		
		
		
		
		
		
		
		
		
		
		
		
		
		
		
		
		
		
		
		
		
	</defs><sodipodi:namedview
   pagecolor="#ffffff"
   bordercolor="#666666"
   borderopacity="1"
   objecttolerance="10"
   gridtolerance="10"
   guidetolerance="10"
   inkscape:pageopacity="0"
   inkscape:pageshadow="2"
   inkscape:window-width="1289"
   inkscape:window-height="724"
   id="namedview133"
   showgrid="false"
   fit-margin-top="0"
   fit-margin-left="0"
   fit-margin-right="0"
   fit-margin-bottom="0"
   inkscape:zoom="1.4142136"
   inkscape:cx="20.435365"
   inkscape:cy="75.056976"
   inkscape:window-x="49"
   inkscape:window-y="254"
   inkscape:window-maximized="0"
   inkscape:current-layer="Calque_1" />

<path
   style="fill:#8a8d90;fill-opacity:1;fill-rule:evenodd"
   d="M 51.625 31.09375 C 51.624027 31.156873 51.62546 31.217513 51.625 31.28125 L 51.65625 31.34375 C 51.429154 31.51393 51.438821 31.735347 51.4375 31.96875 C 51.4294 33.292698 51.4335 34.644789 51.4375 35.96875 C 51.4415 37.161602 52.073362 37.858765 53.25 38.03125 C 53.696011 38.09675 53.827847 38.198702 53.84375 38.65625 C 53.85723 39.039954 53.86828 39.46169 53.84375 39.84375 C 53.74779 41.344832 55.218695 42.449917 56.40625 42.40625 C 56.868757 42.38913 57.34967 42.39102 57.8125 42.40625 C 58.295533 42.42175 58.422539 42.544241 58.4375 43.03125 C 58.45367 43.533825 58.4216 44.059601 58.4375 44.5625 C 58.4534 45.06738 58.52459 45.570388 58.75 46.03125 C 59.483323 47.530001 60.753416 48.246209 62.375 48.28125 C 64.161468 48.3202 65.931622 48.27455 67.71875 48.28125 C 68.306072 48.28395 68.462012 48.447904 68.46875 49.03125 C 68.47685 49.666579 68.469087 50.270922 68.46875 50.90625 C 68.46809 51.867034 68.414601 51.9375 67.46875 51.9375 C 61.934894 51.93816 56.40887 51.937163 50.875 51.9375 C 50.649872 51.9375 50.412628 51.92672 50.1875 51.9375 C 50.10583 51.9415 50.009308 51.9426 49.9375 51.96875 C 49.9469 51.666692 49.9375 51.364491 49.9375 51.0625 L 49.9375 32.6875 C 49.9375 32.396481 49.95098 32.103183 49.9375 31.8125 C 49.9294 31.641013 49.921689 31.474481 49.78125 31.34375 C 49.733663 31.331532 49.688976 31.308855 49.65625 31.3125 L 49.65625 73.03125 L 91.8125 73.03125 C 91.860773 72.951783 91.875 72.837055 91.875 72.6875 C 91.8683 59.047016 91.8451 45.452661 91.84375 31.8125 C 91.84375 31.6579 91.87682 31.475155 91.75 31.34375 C 91.72628 31.36639 91.73304 31.38065 91.71875 31.40625 C 91.718602 31.37768 91.718858 31.37232 91.71875 31.34375 L 91.71875 31.28125 C 91.717565 31.217722 91.719985 31.157415 91.71875 31.09375 L 90.25 31.09375 C 90.248532 31.156908 90.250789 31.218071 90.25 31.28125 L 90.28125 31.34375 C 90.08902 31.473134 90.071934 31.645105 90.0625 31.84375 C 90.05037 32.100995 89.996334 32.34441 89.6875 32.34375 C 89.382868 32.342766 89.298097 32.100335 89.28125 31.84375 C 89.26777 31.645766 89.255156 31.472595 89.0625 31.34375 L 89.09375 31.28125 C 89.093521 31.218712 89.094148 31.156296 89.09375 31.09375 L 87.71875 31.09375 C 87.718662 31.156317 87.718904 31.218687 87.71875 31.28125 C 87.69463 31.28665 87.64684 31.33162 87.625 31.34375 C 87.322377 31.621521 87.490988 31.982086 87.46875 32.3125 C 87.42171 33.007412 87.640212 33.517917 88.34375 33.75 C 88.643691 33.84893 88.811179 34.06115 88.8125 34.375 C 88.8138 34.811361 88.83339 35.251813 88.8125 35.6875 C 88.79094 36.13975 88.584866 36.326499 88.125 36.34375 C 87.38572 36.37124 86.645531 36.37124 85.90625 36.34375 C 85.45931 36.32717 85.249883 36.135774 85.21875 35.6875 C 85.19099 35.291868 85.23627 34.895632 85.21875 34.5 C 85.20082 34.104706 85.345778 33.834899 85.6875 33.625 C 86.074856 33.387298 86.324172 33.005801 86.40625 32.5625 C 86.48307 32.148 86.62153 31.724152 86.28125 31.34375 L 86.3125 31.28125 C 86.312291 31.218827 86.312776 31.156187 86.3125 31.09375 L 84.84375 31.09375 C 84.843529 31.156191 84.844009 31.218825 84.84375 31.28125 L 84.84375 31.34375 C 84.637073 31.482137 84.703403 31.667757 84.6875 31.875 C 84.6693 32.114697 84.602465 32.351836 84.3125 32.34375 C 84.039972 32.33565 83.98088 32.096826 83.96875 31.875 C 83.95662 31.66676 83.949806 31.486773 83.75 31.34375 C 83.72871 31.33162 83.6801 31.28664 83.65625 31.28125 C 83.655297 31.216049 83.656214 31.157873 83.65625 31.09375 L 82.3125 31.09375 C 82.312403 31.156731 82.31262 31.218221 82.3125 31.28125 C 82.28892 31.28525 82.27089 31.33297 82.25 31.34375 C 82.096006 31.459656 82.062837 31.634705 82.0625 31.8125 C 82.0612 32.585879 82.283756 33.227181 82.96875 33.65625 C 83.271696 33.845945 83.377695 34.090535 83.375 34.4375 C 83.371 34.966558 83.38738 35.470955 83.40625 36 C 83.44129 36.992887 83.996583 37.678597 84.9375 37.9375 C 85.803038 38.175539 85.787989 38.204299 85.78125 39.125 C 85.780913 39.16462 85.78191 39.210376 85.78125 39.25 C 85.76629 39.905181 85.551848 40.13952 84.90625 40.1875 C 84.800991 40.1942 84.699413 40.1875 84.59375 40.1875 C 82.635458 40.188161 80.645793 40.188161 78.6875 40.1875 C 78.488869 40.1875 78.320006 40.17105 78.125 40.125 C 77.733344 40.0316 77.568718 39.872657 77.53125 39.46875 C 77.50524 39.191976 77.52047 38.902448 77.53125 38.625 C 77.54783 38.194273 77.680701 38.072356 78.125 38.03125 C 79.282096 37.924643 79.948938 37.161396 79.96875 36 C 79.9829 35.166687 79.99961 34.363566 79.96875 33.53125 C 79.94692 32.941287 80.024933 32.421509 80.59375 32.09375 C 80.715182 32.02353 80.767872 31.875745 80.84375 31.75 C 80.92906 31.608298 81.025458 31.496369 80.90625 31.34375 L 80.90625 31.28125 C 80.913807 31.216147 80.924204 31.158411 80.9375 31.09375 L 79.40625 31.09375 C 79.341029 31.175647 79.256757 31.237259 79.125 31.28125 C 78.99656 31.27995 78.878441 31.28191 78.75 31.28125 C 78.616895 31.231012 78.527684 31.179873 78.46875 31.09375 L 77.0625 31.09375 C 77.068231 31.156821 77.055806 31.218438 77.0625 31.28125 L 77.0625 31.34375 C 76.893034 31.522205 76.96059 31.66352 77.09375 31.8125 C 77.296694 32.038949 77.512414 32.283223 77.78125 32.4375 C 78.021257 32.575563 78.153554 32.789365 78.15625 33.0625 C 78.16295 33.935868 78.18145 34.814455 78.15625 35.6875 C 78.14237 36.160263 77.908282 36.328251 77.4375 36.34375 C 76.710134 36.36761 75.977366 36.3672 75.25 36.34375 C 74.767964 36.32812 74.573282 36.163255 74.5625 35.6875 C 74.54363 34.814132 74.562163 33.935868 74.5625 33.0625 C 74.5625 32.739377 74.71266 32.49273 75 32.34375 C 75.252608 32.213019 75.461114 32.038949 75.625 31.8125 C 75.725677 31.673116 75.783913 31.511598 75.625 31.34375 L 75.65625 31.28125 C 75.663999 31.216027 75.680989 31.158445 75.6875 31.09375 L 74.1875 31.09375 C 74.119188 31.175254 74.047999 31.23548 73.90625 31.28125 L 73.53125 31.28125 C 73.421999 31.22569 73.341959 31.167357 73.28125 31.09375 L 71.8125 31.09375 C 71.82171 31.159662 71.831406 31.214862 71.84375 31.28125 L 71.84375 31.34375 C 71.718275 31.515911 71.77378 31.665178 71.875 31.8125 C 71.980663 31.966454 72.093405 32.122386 72.25 32.21875 C 72.636049 32.456466 72.756739 32.788684 72.75 33.21875 C 72.73652 34.158994 72.7487 35.122594 72.75 36.0625 C 72.750404 36.31709 72.784966 36.541553 72.875 36.78125 C 73.163027 37.545693 73.752237 37.91467 74.53125 38.03125 C 75.038717 38.10699 75.115565 38.199962 75.125 38.71875 C 75.1331 39.128938 75.121 39.558226 75.125 39.96875 C 75.1263 40.154483 75.16781 40.350476 75.21875 40.53125 C 75.520686 41.597629 76.533251 42.370535 77.65625 42.40625 C 78.265082 42.42512 78.860241 42.38469 79.46875 42.40625 C 79.891525 42.42108 80.037027 42.577225 80.0625 43 C 80.07733 43.23804 80.063484 43.480374 80.0625 43.71875 C 80.0571 44.964245 79.742854 45.28059 78.5 45.28125 C 73.389257 45.28255 68.267344 45.281911 63.15625 45.28125 C 62.94437 45.28125 62.739827 45.29745 62.53125 45.25 C 62.032987 45.137732 61.80807 44.853603 61.78125 44.34375 C 61.75969 43.933886 61.77455 43.535538 61.78125 43.125 C 61.79065 42.564499 61.929242 42.414336 62.5 42.40625 C 63.135665 42.39815 63.802172 42.4235 64.4375 42.40625 C 65.59492 42.37485 66.578306 41.446415 66.78125 40.3125 C 66.8826 39.745705 66.84751 39.192456 66.875 38.625 C 66.89481 38.213464 67.003664 38.078555 67.40625 38.03125 C 68.619305 37.888887 69.276785 37.228285 69.3125 36 C 69.35239 34.610498 69.3219 33.233926 69.3125 31.84375 C 69.311503 31.656372 69.296168 31.469899 69.125 31.34375 C 69.10344 31.33297 69.08662 31.28529 69.0625 31.28125 C 69.061611 31.216507 69.061772 31.156146 69.0625 31.09375 L 67.71875 31.09375 C 67.721305 31.157597 67.719996 31.21417 67.71875 31.28125 C 67.70662 31.28795 67.66771 31.27455 67.65625 31.28125 C 67.63239 31.28525 67.64643 31.33297 67.625 31.34375 C 67.403538 31.516572 67.407597 31.735347 67.40625 31.96875 C 67.39685 33.170875 67.41986 34.391626 67.40625 35.59375 C 67.39955 36.166826 67.229003 36.32879 66.65625 36.34375 C 66.075222 36.35992 65.518541 36.34775 64.9375 36.34375 C 64.127368 36.33835 63.908946 36.176857 63.90625 35.375 C 63.90085 34.225519 63.91565 33.086658 63.90625 31.9375 C 63.90495 31.716348 63.933335 31.501005 63.71875 31.34375 L 63.75 31.28125 C 63.748844 31.216136 63.752104 31.156847 63.75 31.09375 L 62.28125 31.09375 C 62.27508 31.157356 62.283663 31.214564 62.28125 31.28125 L 62.3125 31.34375 C 62.082372 31.512596 62.094747 31.735684 62.09375 31.96875 C 62.08705 33.345678 62.08435 34.748396 62.09375 36.125 C 62.10045 37.088088 62.762617 37.817569 63.71875 38 C 64.483315 38.146325 64.46941 38.18246 64.46875 38.96875 C 64.46875 39.04854 64.47145 39.139232 64.46875 39.21875 C 64.44921 39.923595 64.233454 40.180761 63.53125 40.1875 C 61.413384 40.20812 59.305365 40.20933 57.1875 40.1875 C 56.464109 40.1794 56.228184 39.931547 56.21875 39.21875 C 56.21745 39.099609 56.217753 38.962891 56.21875 38.84375 C 56.22415 38.177302 56.283908 38.107128 56.9375 38.03125 C 57.807552 37.930303 58.610713 37.166132 58.625 36.34375 C 58.65088 34.834729 58.6344 33.352784 58.625 31.84375 C 58.6237 31.656372 58.582066 31.465856 58.40625 31.34375 L 58.40625 31.28125 C 58.40576 31.216428 58.406192 31.157788 58.40625 31.09375 L 57.0625 31.09375 C 57.062576 31.157788 57.062659 31.216428 57.0625 31.28125 C 57.03865 31.28525 56.99098 31.33297 56.96875 31.34375 C 56.747301 31.516895 56.813848 31.735347 56.8125 31.96875 C 56.8031 33.171212 56.76334 34.391302 56.75 35.59375 C 56.7446 36.113536 56.599565 36.320568 56.15625 36.34375 C 55.404058 36.38337 54.658119 36.38283 53.90625 36.34375 C 53.513597 36.32353 53.359806 36.136359 53.3125 35.75 C 53.29228 35.592407 53.25027 35.43984 53.25 35.28125 C 53.2487 34.1715 53.2594 33.047587 53.25 31.9375 C 53.2487 31.717009 53.310869 31.500022 53.09375 31.34375 L 53.09375 31.28125 C 53.093075 31.216886 53.094789 31.157325 53.09375 31.09375 L 51.625 31.09375 z M 91.625 32.96875 C 91.61125 33.437147 91.59388 33.906415 91.59375 34.375 C 91.59105 46.831581 91.594087 59.32467 91.59375 71.78125 C 91.59375 72.896 91.51666 72.90625 90.40625 72.90625 C 79.431882 72.906587 68.44278 72.90625 57.46875 72.90625 C 57.084709 72.90625 56.727467 72.91998 56.34375 72.9375 C 56.34245 68.055361 56.34245 63.163402 56.34375 58.28125 C 56.344087 57.409877 56.836316 56.801007 57.6875 56.59375 C 57.996391 56.51868 58.304182 56.53098 58.625 56.53125 C 63.444077 56.53525 68.274673 56.531587 73.09375 56.53125 C 73.670762 56.530913 73.65625 56.50531 73.65625 55.9375 C 73.65691 53.541203 73.655913 51.177547 73.65625 48.78125 C 73.65625 48.116783 73.692298 48.09375 74.375 48.09375 C 76.069753 48.09375 77.711497 48.08835 79.40625 48.09375 C 79.712499 48.094694 80.044132 48.06024 80.34375 48 C 82.005727 47.66561 83.125984 46.283207 83.125 44.59375 C 83.125 43.94485 83.14522 43.304491 83.125 42.65625 C 83.11422 42.307372 83.251759 42.180761 83.59375 42.1875 C 84.308205 42.20327 85.035559 42.20799 85.75 42.1875 C 86.963378 42.15205 87.952577 41.1479 87.96875 39.9375 C 87.97545 39.421353 87.96745 38.89147 87.96875 38.375 C 87.97005 37.853043 87.971207 37.816543 88.5 37.8125 C 88.5527 37.812163 88.603416 37.81316 88.65625 37.8125 C 89.685553 37.79902 90.395468 37.117095 90.40625 36.09375 C 90.41295 35.471669 90.43172 34.808596 90.40625 34.1875 C 90.39102 33.81075 90.521602 33.6388 90.90625 33.53125 C 91.345373 33.408739 91.535645 33.262545 91.625 32.96875 z "
   id="path9"
   transform="translate(-1.5e-6,0)" /><path
   style="fill:#bdc4bf;fill-opacity:1;fill-rule:evenodd"
   d="M 45.75 16.84375 C 45.14185 17.000682 45.07598 17.082424 45.0625 17.71875 C 45.0615 17.77172 45.0625 17.790786 45.0625 17.84375 C 45.0615 21.022038 45.0764 24.227962 45.0625 27.40625 C 45.0585 28.217379 45.34957 28.868861 46.03125 29.3125 C 46.29911 29.486643 46.43617 29.71674 46.4375 30.03125 C 46.4455 31.911751 46.4548 33.775763 46.4375 35.65625 C 46.4335 36.142262 46.23601 36.329464 45.75 36.34375 C 45.03522 36.36531 44.30821 36.36787 43.59375 36.34375 C 43.0849 36.3265 42.84914 36.14015 42.84375 35.625 C 42.82485 33.771333 42.83165 31.916503 42.84375 30.0625 C 42.84475 29.764202 42.95654 29.501005 43.21875 29.34375 C 43.97392 28.890839 44.28664 28.250363 44.28125 27.375 C 44.26235 24.276499 44.28225 21.161338 44.28125 18.0625 C 44.28125 17.87744 44.25005 17.683738 44.21875 17.5 C 44.17575 17.250693 44.08775 17.050828 43.84375 16.96875 C 42.99123 16.682367 42.47549 17.050206 42.46875 17.9375 C 42.46775 18.175863 42.46875 18.417873 42.46875 18.65625 C 42.46875 21.45016 42.46975 24.237003 42.46875 27.03125 C 42.46875 27.216309 42.4806 27.380406 42.4375 27.5625 C 42.3905 27.757492 42.25639 27.972793 42.03125 27.96875 C 41.80778 27.96475 41.76485 27.756508 41.71875 27.5625 C 41.67525 27.380406 41.65625 27.216323 41.65625 27.03125 C 41.65526 24.170788 41.65691 21.297962 41.65625 18.4375 C 41.65625 18.225944 41.66025 18.024393 41.65625 17.8125 C 41.65125 17.547654 41.5024 17.351773 41.28125 17.21875 C 40.93329 17.009539 40.5836 17.034674 40.21875 17.21875 C 39.87145 17.394213 39.93784 17.666477 39.9375 17.96875 C 39.9325 21.212916 39.91155 24.505834 39.90625 27.75 C 39.90527 28.33964 40.08808 28.79526 40.5625 29.125 C 40.98862 29.420656 41.12769 29.829467 41.125 30.3125 C 41.1129 32.259202 41.1115 34.178285 41.125 36.125 C 41.13 37.002007 41.65775 37.76754 42.5 37.90625 C 43.5528 38.080069 43.46605 38.29428 43.46875 39.1875 C 43.46875 39.21405 43.46908 39.22358 43.46875 39.25 C 43.45285 39.91281 43.25158 40.152207 42.59375 40.15625 C 40.4484 40.17108 38.33251 40.16165 36.1875 40.15625 C 36.1209 40.156116 36.03466 40.16435 35.96875 40.15625 C 35.47811 40.09371 35.25487 39.863329 35.21875 39.375 C 35.20255 39.150532 35.21175 38.912305 35.21875 38.6875 C 35.23375 38.199507 35.34201 38.12694 35.8125 38.03125 C 36.20748 37.95119 36.58908 37.820082 36.90625 37.5625 C 37.4171 37.148 37.62599 36.555474 37.625 35.90625 C 37.624 34.211496 37.62401 32.57009 37.625 30.875 C 37.62533 30.545246 37.66121 30.22228 37.96875 30.03125 C 38.77359 29.532327 38.9728 28.766239 38.96875 27.875 C 38.95525 25.001289 38.96875 22.123711 38.96875 19.25 C 38.96875 18.971906 38.97275 18.684357 38.96875 18.40625 C 38.96775 18.287109 38.9603 18.179754 38.9375 18.0625 C 38.8429 17.578807 38.46498 17.332007 37.875 17.375 C 37.37376 17.41139 37.17714 17.671689 37.15625 18.1875 C 37.14725 18.412628 37.125 18.618622 37.125 18.84375 C 37.12468 21.796587 37.126 24.76559 37.125 27.71875 C 37.12473 27.917058 37.1167 28.087242 37.0625 28.28125 C 37.0129 28.460689 36.9523 28.620957 36.75 28.625 C 36.54672 28.629 36.45948 28.460029 36.40625 28.28125 C 36.34855 28.087579 36.3125 27.917058 36.3125 27.71875 C 36.3115 24.831805 36.31349 21.949445 36.3125 19.0625 C 36.3125 18.850607 36.337 18.648719 36.3125 18.4375 C 36.2791 18.148461 36.11059 17.928407 35.84375 17.8125 C 35.13459 17.503947 34.50404 17.957016 34.5 18.8125 C 34.4865 21.89809 34.493 25.008484 34.5 28.09375 C 34.501 28.849918 34.7241 29.489899 35.375 29.9375 C 35.6216 30.107006 35.77991 30.357953 35.78125 30.65625 C 35.79335 32.337769 35.80075 33.974408 35.78125 35.65625 C 35.77625 36.120091 35.55526 36.328251 35.09375 36.34375 C 34.36572 36.36855 33.66521 36.36963 32.9375 36.34375 C 32.44322 36.32623 32.22549 36.116308 32.21875 35.625 C 32.19715 33.983213 32.1808 32.329624 32.1875 30.6875 C 32.1885 30.374311 32.32327 30.136275 32.59375 29.96875 C 33.31151 29.524788 33.56519 28.845021 33.5625 28.03125 C 33.5535 25.170788 33.53215 22.297962 33.53125 19.4375 C 33.53125 19.265339 33.53925 19.109648 33.53125 18.9375 C 33.51915 18.685215 33.39074 18.51353 33.1875 18.40625 C 32.56442 18.076496 31.64166 18.306815 31.71875 19.1875 C 31.73705 19.397399 31.71875 19.600606 31.71875 19.8125 C 31.71841 22.434922 31.71975 25.096664 31.71875 27.71875 C 31.71875 27.917071 31.7417 28.087242 31.6875 28.28125 C 31.6372 28.460703 31.54834 28.595084 31.34375 28.59375 C 31.14115 28.59245 31.02145 28.459355 30.96875 28.28125 C 30.91185 28.087915 30.9375 27.917058 30.9375 27.71875 C 30.9365 25.268812 30.9385 22.793688 30.9375 20.34375 C 30.93723 20.131857 30.9554 19.899056 30.9375 19.6875 C 30.9157 19.426953 30.76664 19.274043 30.53125 19.15625 C 29.87507 18.828154 29.19154 19.241034 29.1875 19.96875 C 29.1727 22.76266 29.2034 25.54984 29.1875 28.34375 C 29.1835 28.985696 29.39044 29.46621 29.90625 29.8125 C 30.35093 30.110798 30.4728 30.499757 30.46875 31 C 30.45395 32.708002 30.45665 34.416675 30.46875 36.125 C 30.47375 36.979823 30.89625 37.533216 31.6875 37.84375 C 31.89873 37.92664 32.09101 37.993917 32.3125 38.03125 C 32.78324 38.11104 32.89236 38.205465 32.90625 38.6875 C 32.91975 39.137756 32.90592 39.580994 32.90625 40.03125 C 32.90625 40.315315 32.99622 40.592125 33.125 40.84375 C 33.61068 41.793589 34.36284 42.356923 35.4375 42.40625 C 36.05892 42.43496 36.65917 42.38671 37.28125 42.40625 C 37.72787 42.42054 37.88765 42.564974 37.90625 43 C 37.92535 43.449933 37.93245 43.894491 37.90625 44.34375 C 37.87345 44.909225 37.59407 45.160527 37.03125 45.21875 C 36.88591 45.23492 36.77066 45.28125 36.625 45.28125 C 31.47385 45.28191 26.307728 45.28191 21.15625 45.28125 C 20.957605 45.28125 20.759487 45.2527 20.5625 45.21875 C 19.945379 45.113491 19.657076 44.840843 19.625 44.21875 C 19.6064 43.848617 19.6169 43.495469 19.625 43.125 C 19.63713 42.572113 19.841773 42.415684 20.40625 42.40625 C 20.948881 42.39685 21.457369 42.42647 22 42.40625 C 23.324284 42.35787 24.31076 41.45637 24.53125 40.15625 C 24.61395 39.668244 24.5437 39.176167 24.5625 38.6875 C 24.5814 38.203146 24.68709 38.125323 25.15625 38.03125 C 25.55188 37.95214 25.92688 37.81213 26.25 37.5625 C 26.79461 37.141706 26.95932 36.521246 26.96875 35.875 C 26.98225 34.948005 26.96575 34.020745 26.96875 33.09375 C 26.96941 32.77591 27.03336 32.473601 27.3125 32.28125 C 27.98127 31.820401 28.1603 31.188241 28.15625 30.40625 C 28.14145 27.267694 28.15725 24.138232 28.15625 21 C 28.15625 20.814603 28.16975 20.591646 28.15625 20.40625 C 28.14165 20.202632 28.0166 20.088008 27.84375 20 C 27.49777 19.82358 27.14412 19.803139 26.78125 19.96875 C 26.42767 20.129982 26.40355 20.422241 26.40625 20.75 C 26.40725 20.975128 26.40625 21.212373 26.40625 21.4375 C 26.40625 24.28439 26.40692 27.121523 26.40625 29.96875 C 26.40625 30.15381 26.4081 30.347835 26.375 30.53125 C 26.3327 30.768629 26.24686 30.995957 25.96875 31 C 25.68834 31.004 25.57262 30.76995 25.53125 30.53125 C 25.49935 30.347835 25.53125 30.154147 25.53125 29.96875 C 25.53059 27.280773 25.53224 24.594551 25.53125 21.90625 C 25.53125 21.694371 25.54205 21.461893 25.53125 21.25 C 25.52045 21.050034 25.41786 20.896078 25.25 20.78125 C 24.89344 20.53724 24.5636 20.593001 24.1875 20.75 C 23.8366 20.896325 23.81284 21.183495 23.8125 21.5 C 23.8085 24.572342 23.8115 27.677659 23.8125 30.75 C 23.81284 31.448565 24.11177 31.917412 24.6875 32.28125 C 24.9848 32.469301 25.15559 32.74347 25.15625 33.09375 C 25.15925 33.928046 25.1422 34.759453 25.125 35.59375 C 25.1142 36.132728 24.8887 36.32879 24.34375 36.34375 C 23.655458 36.36262 22.969559 36.36464 22.28125 36.34375 C 21.743593 36.32758 21.573282 36.141341 21.5625 35.59375 C 21.54633 34.773025 21.5612 33.946048 21.5625 33.125 C 21.56316 32.778359 21.700396 32.530804 22 32.34375 C 22.633671 31.947781 22.944239 31.397732 22.9375 30.625 C 22.91351 28.042969 22.938498 25.457367 22.9375 22.875 C 22.9362 22.716087 22.88161 22.564826 22.875 22.40625 C 22.86422 22.121188 22.735385 21.928676 22.5 21.8125 C 21.834873 21.483744 21.176735 21.857404 21.15625 22.59375 C 21.15225 22.792395 21.15625 22.988855 21.15625 23.1875 C 21.155926 25.465276 21.15691 27.753487 21.15625 30.03125 C 21.15625 30.203088 21.18334 30.360746 21.15625 30.53125 C 21.12121 30.752402 21.044398 30.991914 20.78125 31 C 20.488897 31.0081 20.439674 30.766971 20.40625 30.53125 C 20.3859 30.386906 20.34375 30.208165 20.34375 30.0625 C 20.343076 28.698484 20.344748 27.332766 20.34375 25.96875 C 20.34245 25.227151 20.35588 24.522849 20.34375 23.78125 C 20.34105 23.5846 20.366324 23.353367 20.21875 23.1875 C 19.955548 22.891481 19.534217 22.796121 19.125 22.9375 C 18.721431 23.076871 18.535294 23.286172 18.53125 23.75 C 18.51333 26.093654 18.51009 28.437596 18.53125 30.78125 C 18.53665 31.350364 18.766643 31.835769 19.25 32.15625 C 19.680457 32.441299 19.821934 32.822513 19.8125 33.3125 C 19.7939 34.291801 19.8085 35.270038 19.8125 36.25 C 19.8138 36.697951 19.994673 37.054518 20.3125 37.375 C 20.676675 37.742153 21.126414 37.955776 21.625 38.03125 C 22.099421 38.10309 22.201229 38.207109 22.21875 38.6875 C 22.22815 38.912628 22.23088 39.150209 22.21875 39.375 C 22.19126 39.877239 21.992305 40.090076 21.5 40.15625 C 21.341747 40.17754 21.158913 40.15625 21 40.15625 C 19.026815 40.157248 17.066935 40.157248 15.09375 40.15625 C 14.895106 40.15625 14.69533 40.17245 14.5 40.125 C 14.197067 40.05222 13.986828 39.902964 13.9375 39.59375 C 13.91459 39.449069 13.9362 39.270341 13.9375 39.125 C 13.9456 38.401946 13.794995 38.113624 14.78125 37.9375 C 15.547028 37.800771 16.283981 37.103511 16.21875 36.09375 C 16.18748 35.606081 16.24153 35.11399 16.21875 34.625 C 16.19584 34.138989 16.385426 33.820728 16.8125 33.5625 C 17.290911 33.273138 17.558457 32.789184 17.5625 32.21875 C 17.58312 29.742342 17.5692 27.288584 17.5625 24.8125 C 17.5612 24.449969 17.389936 24.234572 17.0625 24.125 C 16.370566 23.893578 15.847793 24.250669 15.84375 24.96875 C 15.83297 27.060793 15.84505 29.157621 15.84375 31.25 C 15.84375 31.422162 15.86329 31.578836 15.84375 31.75 C 15.81558 31.997299 15.741147 32.274511 15.4375 32.28125 C 15.123285 32.28935 15.057127 32.028899 15.03125 31.78125 C 15.01642 31.636246 15.03125 31.457841 15.03125 31.3125 C 15.03059 29.802819 15.032248 28.322181 15.03125 26.8125 C 15.03125 26.62709 15.04581 26.466323 15.03125 26.28125 C 15.00308 25.921711 14.814394 25.665468 14.46875 25.5625 C 13.742718 25.346631 13.255391 25.700991 13.25 26.46875 C 13.23652 28.21647 13.27385 30.002267 13.25 31.75 C 13.23922 32.557814 13.46153 33.191101 14.125 33.65625 C 14.346192 33.811524 14.490566 34.012415 14.5 34.28125 C 14.51644 34.757652 14.5314 35.243332 14.5 35.71875 C 14.47278 36.130272 14.286859 36.322591 13.875 36.34375 C 13.107915 36.38324 12.329598 36.37515 11.5625 36.34375 C 11.146005 36.3269 10.939674 36.134234 10.90625 35.71875 C 10.87781 35.362176 10.92714 35.012811 10.90625 34.65625 C 10.87579 34.147718 11.057296 33.7904 11.5625 33.59375 C 11.989575 33.427545 12.191543 33.08739 12.1875 32.59375 C 12.17402 31.05791 12.1915 29.536178 12.1875 28 C 12.187231 27.867516 12.1436 27.69431 12.125 27.5625 C 12.10478 27.42015 12.057785 27.348098 11.9375 27.28125 C 11.5816 27.082969 11.225137 27.060237 10.84375 27.25 C 10.50374 27.418846 10.469073 27.693234 10.46875 28.03125 C 10.46745 29.156903 10.47145 30.280611 10.46875 31.40625 C 10.46848 31.565163 10.43482 31.718068 10.40625 31.875 C 10.3642 32.098807 10.296427 32.287988 10.03125 32.28125 C 9.7852422 32.27455 9.692369 32.083564 9.65625 31.875 C 9.63334 31.743864 9.65691 31.632483 9.65625 31.5 C 9.65355 31.023261 9.67242 30.538902 9.65625 30.0625 C 9.63968 29.570855 9.461304 29.355663 9.03125 29.25 C 8.605483 29.145415 8.341399 29.266416 8.09375 29.65625 L 8.09375 33.0625 C 8.309619 33.337616 8.611722 33.485004 8.9375 33.5625 C 9.202697 33.62611 9.317891 33.762091 9.3125 34.03125 C 9.30172 34.653667 9.29862 35.284156 9.3125 35.90625 C 9.32463 36.444905 9.384724 36.938846 9.8125 37.34375 C 10.238278 37.7467 10.780462 37.811516 11.3125 37.8125 C 11.665125 37.813497 11.763612 37.944515 11.75 38.28125 C 11.73113 38.743757 11.7406 39.193083 11.75 39.65625 C 11.78208 41.21759 12.777774 42.178066 14.34375 42.1875 C 14.952919 42.1915 15.547741 42.20731 16.15625 42.1875 C 16.508915 42.17537 16.603185 42.317897 16.59375 42.65625 C 16.57582 43.304813 16.58435 43.945187 16.59375 44.59375 C 16.60045 45.087053 16.67841 45.585294 16.90625 46.03125 C 17.603481 47.394929 18.797716 47.997152 20.28125 48.03125 C 22.02831 48.07155 23.75195 48.09254 25.5 48.09375 C 26.05112 48.094411 26.03125 48.080177 26.03125 48.625 C 26.03223 51.022295 26.03092 53.446779 26.03125 55.84375 C 26.03125 56.516129 26.06041 56.499663 26.75 56.5 C 31.47737 56.500337 36.20978 56.499676 40.9375 56.5 C 41.14938 56.5 41.38318 56.48275 41.59375 56.5 C 42.49625 56.57453 43.41838 57.089904 43.40625 58.40625 C 43.36485 63.10713 43.40591 67.830357 43.40625 72.53125 C 43.40625 73.188426 43.36669 73.186502 44.03125 73.1875 C 45.937607 73.189382 47.840149 73.188079 49.75 73.1875 L 49.75 31.40625 L 49.8125 31.40625 C 49.79195 31.374289 49.781336 31.341663 49.75 31.3125 C 49.51433 31.25199 49.49395 31.436197 49.46875 31.59375 C 49.43105 31.830131 49.46875 32.043211 49.46875 32.28125 C 49.46775 38.491501 49.46941 44.726912 49.46875 50.9375 C 49.46875 51.857554 49.35351 51.90625 48.4375 51.90625 C 43.00824 51.90691 37.58517 51.906587 32.15625 51.90625 C 31.99734 51.90625 31.84609 51.92175 31.6875 51.90625 C 31.37829 51.87646 31.19693 51.716798 31.1875 51.40625 C 31.1595 50.532545 31.158 49.685868 31.1875 48.8125 C 31.1983 48.500631 31.37828 48.341342 31.6875 48.3125 C 31.84608 48.29768 32.02891 48.25 32.1875 48.25 C 33.84286 48.2487 35.46964 48.2594 37.125 48.25 C 37.93115 48.246 38.73861 48.083662 39.4375 47.65625 C 40.53798 46.983508 41.19963 46.093813 41.1875 44.75 C 41.1835 44.193798 41.1725 43.618366 41.1875 43.0625 C 41.2011 42.55828 41.36846 42.422153 41.875 42.40625 C 42.37789 42.39062 42.87508 42.45126 43.375 42.40625 C 44.71683 42.285761 45.91005 41.283653 45.875 39.78125 C 45.867 39.450175 45.871 39.143575 45.875 38.8125 C 45.883 38.205986 45.96892 38.055545 46.5625 37.96875 C 47.56366 37.822412 48.30214 37.023291 48.28125 35.90625 C 48.24555 34.000264 48.22675 32.094147 48.21875 30.1875 C 48.21775 29.760426 48.32301 29.440769 48.6875 29.1875 C 49.21059 28.823985 49.46909 28.280986 49.46875 27.65625 C 49.46775 24.332621 49.47375 21.011129 49.46875 17.6875 C 49.46809 17.039259 49.45964 17.026828 48.875 16.84375 L 48.28125 16.84375 C 47.70007 17.026504 47.69828 17.015831 47.6875 17.625 C 47.6865 17.770665 47.6875 17.916822 47.6875 18.0625 C 47.68718 21.026253 47.6885 24.036233 47.6875 27 C 47.6875 27.198308 47.70535 27.367831 47.65625 27.5625 C 47.60825 27.755848 47.53434 27.903555 47.3125 27.90625 C 47.08704 27.90755 46.98116 27.756509 46.9375 27.5625 C 46.8934 27.367494 46.875 27.198308 46.875 27 C 46.874 23.917389 46.883 20.801361 46.875 17.71875 C 46.874 17.068191 46.82703 16.99804 46.21875 16.84375 L 45.75 16.84375 z M 50.84375 16.84375 C 50.51503 17.022866 50.43618 17.319335 50.4375 17.6875 C 50.4496 20.992247 50.4465 24.258063 50.4375 27.5625 C 50.4365 28.281255 50.69353 28.869014 51.34375 29.1875 C 51.57113 29.298689 51.66164 29.450444 51.65625 29.6875 C 51.64235 30.229133 51.59775 30.73928 51.59375 31.28125 L 51.65625 31.3125 C 51.624402 31.336367 51.616692 31.380248 51.59375 31.40625 L 53.15625 31.40625 C 53.132202 31.373292 53.103219 31.341801 53.0625 31.3125 L 53.0625 31.28125 C 53.0575 30.766114 53.05005 30.296063 53.03125 29.78125 C 53.02225 29.508452 53.1516 29.304754 53.40625 29.1875 C 54.10183 28.866035 54.43817 28.295033 54.4375 27.53125 C 54.4345 24.240075 54.4295 20.978689 54.4375 17.6875 C 54.4385 17.301801 54.27638 16.996383 53.90625 16.84375 L 53.375 16.84375 C 52.79215 17.053662 52.79068 17.073502 52.78125 17.71875 C 52.78025 17.87734 52.78125 18.02891 52.78125 18.1875 C 52.78091 21.138665 52.78223 24.080084 52.78125 27.03125 C 52.78098 27.229571 52.8063 27.431328 52.75 27.625 C 52.7027 27.787565 52.59131 27.89412 52.40625 27.90625 C 52.20231 27.91838 52.12436 27.831453 52.0625 27.65625 C 51.9907 27.452308 51.96875 27.242482 51.96875 27.03125 C 51.96775 23.921495 51.97375 20.797592 51.96875 17.6875 C 51.96775 17.03992 51.99089 17.027165 51.40625 16.84375 L 50.84375 16.84375 z M 56.15625 17 C 55.84856 17.07008 55.60821 17.353695 55.59375 17.75 C 55.57895 18.159864 55.59375 18.589462 55.59375 19 C 55.59275 21.806484 55.60275 24.599752 55.59375 27.40625 C 55.59075 28.287233 55.91715 28.923562 56.78125 29.25 C 56.99649 29.3314 57.03395 29.51745 57.03125 29.71875 C 57.02425 30.248132 57.03225 30.751868 57.03125 31.28125 C 57.00745 31.28525 56.9597 31.30172 56.9375 31.3125 C 56.903306 31.339236 56.897264 31.377193 56.875 31.40625 L 58.46875 31.40625 C 58.445053 31.378708 58.407961 31.335395 58.375 31.3125 L 58.375 31.28125 C 58.371 30.751868 58.3885 30.248132 58.375 29.71875 C 58.368 29.467139 58.48208 29.31001 58.71875 29.1875 C 59.32196 28.875308 59.60049 28.35778 59.59375 27.65625 C 59.57755 25.816478 59.59375 23.996344 59.59375 22.15625 C 59.59375 20.739914 59.58025 19.291335 59.59375 17.875 C 59.59775 17.489301 59.39987 17.31294 59.0625 17.25 C 58.55099 17.15471 58.21908 17.435055 58.21875 17.96875 C 58.21575 21.159289 58.21975 24.372298 58.21875 27.5625 C 58.21841 28.052825 58.01931 28.258086 57.625 28.25 C 57.18202 28.2406 57.03158 28.074672 57.03125 27.5625 C 57.03025 25.682674 57.03125 23.817326 57.03125 21.9375 C 57.03092 20.521164 57.03425 19.103836 57.03125 17.6875 C 57.03026 17.251153 56.90822 17.058627 56.5 17 C 56.37304 16.98167 56.25882 16.97668 56.15625 17 z M 61.375 17.5625 C 61.07123 17.64471 60.93799 17.884384 60.9375 18.34375 C 60.9345 20.939029 60.9375 23.561309 60.9375 26.15625 C 60.9375 26.818399 60.9209 27.463525 60.9375 28.125 C 60.9527 28.737161 61.05239 29.396494 61.65625 29.6875 C 62.20884 29.953694 62.39728 30.319134 62.3125 30.875 C 62.2903 31.018023 62.2553 31.135909 62.25 31.28125 L 62.3125 31.3125 C 62.277982 31.337827 62.242907 31.378373 62.21875 31.40625 L 63.78125 31.40625 C 63.754968 31.37326 63.727734 31.341985 63.6875 31.3125 L 63.71875 31.28125 C 63.71375 30.976996 63.7076 30.710181 63.6875 30.40625 C 63.6693 30.129814 63.81512 29.933663 64.0625 29.8125 C 64.58857 29.554595 64.85166 29.12089 64.90625 28.53125 C 64.92445 28.333939 64.96875 28.166397 64.96875 27.96875 C 64.97175 24.923229 64.96908 21.857698 64.96875 18.8125 C 64.96875 18.706836 64.97955 18.573739 64.96875 18.46875 C 64.93195 18.125438 64.74494 17.997187 64.40625 17.96875 C 63.80304 17.91781 63.56282 18.112896 63.5625 18.71875 C 63.5595 21.27396 63.5625 23.850703 63.5625 26.40625 C 63.5625 27.055151 63.5695 27.695186 63.5625 28.34375 C 63.5575 28.772496 63.29809 28.965668 62.875 28.9375 C 62.4873 28.91162 62.34409 28.716806 62.34375 28.25 C 62.34275 25.151836 62.34375 22.035678 62.34375 18.9375 C 62.34375 18.672978 62.35455 18.420786 62.34375 18.15625 C 62.32655 17.734472 62.17046 17.585681 61.75 17.5625 C 61.61012 17.5544 61.47625 17.53514 61.375 17.5625 z M 67.0625 18.4375 C 66.62547 18.4415 66.34409 18.653957 66.34375 19.0625 C 66.33975 22.146432 66.32915 25.259818 66.34375 28.34375 C 66.34675 28.907567 66.54715 29.454434 67.09375 29.6875 C 67.67145 29.933828 67.74977 30.351238 67.6875 30.875 C 67.67 31.01902 67.6905 31.135909 67.6875 31.28125 C 67.6754 31.28795 67.66765 31.27455 67.65625 31.28125 C 67.63235 31.28525 67.61525 31.30172 67.59375 31.3125 C 67.562692 31.336737 67.553798 31.380063 67.53125 31.40625 L 69.1875 31.40625 C 69.166953 31.379693 69.155865 31.335207 69.125 31.3125 C 69.1034 31.30172 69.05535 31.28529 69.03125 31.28125 C 69.02725 30.989908 69.04585 30.727522 69.03125 30.4375 C 69.01735 30.152452 69.13515 29.974212 69.40625 29.84375 C 70.00118 29.557704 70.31519 29.063296 70.3125 28.375 C 70.3045 26.389551 70.3125 24.423259 70.3125 22.4375 C 70.3125 21.590615 70.3045 20.722221 70.3125 19.875 C 70.3155 19.505851 70.15946 19.316579 69.8125 19.25 C 69.29802 19.15134 68.96908 19.432737 68.96875 19.96875 C 68.96575 22.668964 68.96908 25.393536 68.96875 28.09375 C 68.96875 28.226234 68.98225 28.337614 68.96875 28.46875 C 68.93165 28.84686 68.629 28.934805 68.3125 28.9375 C 67.99236 28.9402 67.79513 28.818962 67.78125 28.46875 C 67.76915 28.17773 67.78125 27.853843 67.78125 27.5625 C 67.78025 24.756339 67.78525 21.962411 67.78125 19.15625 C 67.78059 18.686789 67.52566 18.433456 67.0625 18.4375 z M 72.375 20.03125 C 71.94792 20.07033 71.75034 20.285643 71.75 20.78125 C 71.747 23.927758 71.753 27.072242 71.75 30.21875 C 71.75 30.575985 71.747 30.928989 71.8125 31.28125 L 71.8125 31.3125 C 71.787406 31.346932 71.761009 31.373831 71.75 31.40625 L 75.6875 31.40625 C 75.671691 31.373663 75.656784 31.34607 75.625 31.3125 L 75.65625 31.28125 C 75.67805 31.097498 75.6875 30.933078 75.6875 30.75 C 75.6915 27.679303 75.6905 24.570684 75.6875 21.5 C 75.68683 21.010336 75.51064 20.846445 75.03125 20.84375 C 74.5651 20.84105 74.35049 21.00605 74.34375 21.5 C 74.34275 21.65859 74.34375 21.809836 74.34375 21.96875 L 74.34375 30.40625 C 74.34375 30.789967 74.32618 31.135572 73.875 31.28125 L 73.5 31.28125 C 73.13348 31.094856 73.09309 30.799694 73.09375 30.4375 C 73.09875 27.211866 73.09475 23.975972 73.09375 20.75 C 73.09343 20.206386 72.89115 19.983944 72.375 20.03125 z M 77.5 21.90625 C 77.15612 21.94547 76.969 22.20532 76.96875 22.65625 C 76.96775 25.330978 76.9961 27.981521 77 30.65625 C 77.00027 30.866148 77.00895 31.071352 77.03125 31.28125 L 77.03125 31.3125 C 77.001594 31.34373 77.015511 31.377331 77 31.40625 L 80.9375 31.40625 C 80.927791 31.377463 80.898832 31.343024 80.875 31.3125 L 80.875 31.28125 C 80.8963 31.097835 80.96815 30.933415 80.96875 30.75 C 80.97275 28.423233 80.97575 26.107693 80.96875 23.78125 C 80.96775 23.398611 80.72408 23.115373 80.40625 23.0625 C 80.30032 23.04485 80.18707 23.09643 80.0625 23.125 C 79.64272 23.22271 79.53157 23.345294 79.53125 23.875 C 79.52825 26.122317 79.52225 28.37802 79.53125 30.625 C 79.53225 30.954754 79.42312 31.171273 79.09375 31.28125 C 78.96531 31.27995 78.84719 31.28191 78.71875 31.28125 C 78.41451 31.166421 78.33836 30.968456 78.34375 30.65625 C 78.35275 30.11362 78.34375 29.542954 78.34375 29 C 78.34375 26.868225 78.33975 24.725525 78.34375 22.59375 C 78.34442 22.265991 78.32917 22.031842 77.9375 21.9375 C 77.79166 21.90246 77.61462 21.89304 77.5 21.90625 z M 82.84375 24.25 C 82.50187 24.28841 82.31349 24.567198 82.3125 25 C 82.3075 27.101302 82.3165 29.180272 82.3125 31.28125 C 82.2889 31.28525 82.23965 31.30172 82.21875 31.3125 C 82.184396 31.338356 82.178083 31.375556 82.15625 31.40625 L 83.8125 31.40625 C 83.788318 31.377297 83.785962 31.338244 83.75 31.3125 C 83.7287 31.30037 83.68005 31.28664 83.65625 31.28125 C 83.65325 31.096514 83.65625 30.934736 83.65625 30.75 C 83.65625 28.820509 83.64725 26.898241 83.65625 24.96875 C 83.65725 24.63967 83.57042 24.378558 83.21875 24.28125 C 83.08003 24.2427 82.95771 24.23706 82.84375 24.25 z M 85.375 25.71875 C 84.96583 25.79759 84.84375 26.061074 84.84375 26.4375 C 84.84402 28.050162 84.85075 29.668601 84.84375 31.28125 L 84.84375 31.3125 C 84.804997 31.338448 84.772596 31.376221 84.75 31.40625 L 86.3125 31.40625 C 86.293175 31.37919 86.30507 31.339128 86.28125 31.3125 L 86.3125 31.28125 C 86.3075 29.668601 86.28925 28.050485 86.28125 26.4375 C 86.27825 25.861768 85.9428 25.609178 85.375 25.71875 z M 88.34375 27.28125 C 87.92296 27.29065 87.6902 27.521603 87.6875 28 C 87.6825 29.094857 87.6905 30.186392 87.6875 31.28125 C 87.6634 31.28665 87.6468 31.30037 87.625 31.3125 C 87.596098 31.339029 87.583584 31.37831 87.5625 31.40625 L 89.125 31.40625 C 89.100809 31.378795 89.067379 31.336658 89.03125 31.3125 L 89.09375 31.28125 C 89.08975 30.186729 89.03795 29.094844 89.03125 28 C 89.02825 27.496104 88.82645 27.270468 88.34375 27.28125 z M 90.90625 29.4375 C 90.47056 29.45839 90.29486 29.625348 90.28125 30.03125 C 90.26665 30.452367 90.22405 30.859796 90.21875 31.28125 L 90.28125 31.3125 C 90.245207 31.33676 90.211866 31.378792 90.1875 31.40625 L 91.6875 31.40625 C 91.68735 31.37768 91.6876 31.34107 91.6875 31.3125 L 91.6875 31.28125 C 91.6795 30.846884 91.68225 30.401796 91.65625 29.96875 C 91.63305 29.588348 91.32538 29.417283 90.90625 29.4375 z M 91.6875 31.40625 L 91.8125 31.40625 C 91.798996 31.376847 91.77536 31.338781 91.75 31.3125 C 91.7263 31.33514 91.7017 31.38065 91.6875 31.40625 z "
   transform="translate(-1.5e-6,0)"
   id="path9-7" /><path
   style="fill:#963453;fill-opacity:1;fill-rule:evenodd"
   d="m 75.652461,31.324279 c -0.166205,0.448935 -0.494462,0.759645 -0.931146,0.931133 -0.259887,0.102294 -0.355739,0.257245 -0.351763,0.537994 0.01388,0.990906 0.0067,1.977741 0.01078,2.969306 0.0027,0.599573 0.174062,0.787369 0.775953,0.796641 0.792921,0.01213 1.586664,0.0094 2.379572,0 0.593953,-0.0067 0.800697,-0.200626 0.806991,-0.786303 0.01078,-0.991229 -0.0081,-1.978064 0,-2.969293 0.0027,-0.258903 -0.08706,-0.41136 -0.331074,-0.517306 -0.43601,-0.189696 -0.780172,-0.486416 -0.931133,-0.962172 -0.477413,9.98e-4 -0.950014,-3.37e-4 -1.427751,0 z m 5.235074,0 c -0.15793,0.361534 -0.378084,0.682837 -0.744915,0.848368 -0.285048,0.128171 -0.376102,0.318823 -0.372463,0.620759 0.01348,1.084924 0.02224,2.174404 0.01078,3.258991 -0.0094,0.910122 -0.520851,1.559427 -1.376011,1.748475 -0.228444,0.05068 -0.477157,0.03639 -0.713876,0.031 -0.274792,-0.0067 -0.379405,0.115637 -0.37245,0.382802 0.0094,0.38338 -0.0027,0.775036 0,1.158753 0.004,0.722394 0.21072,0.941322 0.931132,1.003561 0.09205,0.0081 0.18665,0 0.279348,0 2.090709,3.24e-4 4.179288,0.004 6.269673,0 0.183415,-3.37e-4 0.368556,-0.01536 0.548332,-0.05175 0.444636,-0.09043 0.603549,-0.277676 0.620759,-0.734563 0.0155,-0.409527 -0.0081,-0.822962 0.02076,-1.231168 0.02709,-0.394311 -0.109707,-0.529962 -0.517293,-0.527644 -1.135249,0.0067 -1.853424,-0.720749 -1.87263,-1.862279 -0.01078,-0.621757 -0.0067,-1.240535 0,-1.862278 0.0027,-0.234401 -0.05364,-0.40698 -0.289685,-0.506956 -0.736302,-0.31253 -1.017887,-0.921537 -1.055301,-1.676047 -0.0094,-0.197984 -0.0067,-0.401764 -0.01078,-0.600072 -0.450255,3.24e-4 -0.905067,0 -1.355323,0 z m -31.131095,0.01078 0,20.795439 c 6.167864,0.0027 12.331092,0.0013 18.498632,0.01078 0.325441,3.24e-4 0.406145,-0.144182 0.40349,-0.434527 -0.0094,-1.01871 0.0013,-2.033039 0,-3.052072 -6.61e-4,-0.556202 -0.0067,-0.558358 -0.548332,-0.558682 -1.892414,-0.0013 -3.787214,-0.004 -5.679952,0 -0.293338,6.6e-4 -0.583346,-0.03221 -0.869069,-0.09313 -1.59312,-0.337692 -2.745081,-1.536596 -2.876177,-2.989994 -0.06793,-0.754187 -0.02278,-1.502241 -0.04138,-2.255431 -0.01213,-0.500581 -0.03652,-0.534342 -0.548345,-0.537994 -0.595261,-0.004 -1.184577,0.0067 -1.779514,-0.01078 -1.267005,-0.03706 -2.268827,-1.065139 -2.276118,-2.327845 -0.0027,-0.45027 3.37e-4,-0.905404 0,-1.355337 -6.61e-4,-0.672068 -0.0027,-0.66793 -0.662136,-0.682837 -1.001822,-0.02318 -1.726466,-0.752272 -1.727787,-1.748461 -0.0027,-1.58816 -6.6e-4,-3.17101 0,-4.759157 l -1.893317,0 z m 3.321055,0 c 9.97e-4,1.519614 0.0054,3.042961 0.01078,4.562574 0.0013,0.444299 0.17142,0.651556 0.610422,0.662149 0.898194,0.02183 1.792088,0.01348 2.689958,-0.01078 0.454232,-0.01213 0.589061,-0.187714 0.589721,-0.662135 0.0013,-1.519627 0.0013,-3.032286 0,-4.552237 -1.296817,9.84e-4 -2.603298,-0.0013 -3.900438,0 z m 5.32819,0 c 9.97e-4,1.641774 -0.0027,3.282901 0,4.924688 6.6e-4,0.405888 -0.13681,0.744253 -0.424191,1.034599 -0.365172,0.369148 -0.792166,0.552307 -1.313934,0.548331 -0.642606,-0.0054 -0.641447,0.004 -0.641447,0.662149 0,0.317503 -9.97e-4,0.634008 0,0.951834 0.0013,0.607849 0.129923,0.774538 0.724213,0.889757 0.167188,0.03208 0.335791,0.03073 0.506955,0.031 2.06556,0.0027 4.131686,-3.37e-4 6.197245,0 0.198982,0 0.392411,-0.01792 0.589721,-0.05175 0.388678,-0.06658 0.588899,-0.297381 0.610423,-0.672486 0.02183,-0.383044 0.01941,-0.764686 0.02076,-1.148404 0.0027,-0.651542 8.22e-4,-0.6489 -0.641461,-0.662149 -1.006121,-0.02049 -1.724795,-0.73928 -1.727773,-1.738124 -0.004,-1.588807 -3.37e-4,-3.180687 0,-4.769494 -1.298462,-3.37e-4 -2.601654,0 -3.900439,0 z m 5.328189,0 c 0.0013,1.506042 -0.004,3.004469 0,4.510848 0.0013,0.477076 0.145584,0.688632 0.610409,0.703525 0.910445,0.02911 1.83058,0.02022 2.741685,0 0.341007,-0.0081 0.551323,-0.187054 0.548345,-0.579371 -0.01213,-1.545773 -0.0081,-3.089228 -0.01078,-4.635002 -1.296804,3.24e-4 -2.593284,-6.74e-4 -3.890088,0 z m 5.400605,0 c -0.004,1.469626 -0.0067,2.938092 -0.01078,4.407381 -6.61e-4,0.358892 -0.01078,0.725884 -0.155194,1.055301 -0.315171,0.72207 -0.903328,1.039316 -1.676047,1.044936 -0.627713,0.004 -0.619438,0.0067 -0.620759,0.641461 -9.97e-4,0.410525 -7.41e-4,0.820968 -0.01078,1.231169 -0.03679,1.539156 -0.993304,2.473523 -2.534765,2.493389 -0.70122,0.0094 -1.398694,0.02062 -2.100237,0.01078 -0.322463,-0.0054 -0.452493,0.120758 -0.444879,0.444878 0.01429,0.608509 0.0013,1.212058 0.01078,1.820903 0.0067,0.463828 0.24955,0.7723 0.693175,0.900094 0.205275,0.0593 0.417236,0.08275 0.63111,0.08275 5.282258,-0.0013 10.557468,-0.0027 15.839713,0 0.268835,3.23e-4 0.535016,-0.04138 0.786303,-0.124128 0.364513,-0.120219 0.593859,-0.344404 0.651799,-0.755265 0.08935,-0.634331 0.02035,-1.269983 0.05175,-1.903654 0.01685,-0.340347 -0.111593,-0.482211 -0.455229,-0.475917 -0.701207,0.01348 -1.409368,0.01981 -2.110574,0 -1.341846,-0.03774 -2.339611,-1.070355 -2.348547,-2.400273 -0.0027,-0.47674 0.0013,-0.951336 0,-1.427752 -0.0013,-0.534018 -0.0081,-0.529382 -0.527643,-0.537994 -1.157757,-0.01887 -1.849287,-0.723795 -1.851942,-1.872616 -0.0027,-1.072013 -0.0094,-2.145602 0,-3.217602 0.0027,-0.268498 -0.07224,-0.443813 -0.331061,-0.558695 -0.381736,-0.169507 -0.624412,-0.481295 -0.786303,-0.858705 -0.899852,3.24e-4 -1.801105,-6.74e-4 -2.700296,0 z m 14.618895,0 c -0.0027,0.263863 0.0013,0.522428 0,0.78629 -0.0027,0.37179 0.22281,0.464906 0.537994,0.465567 0.317489,6.6e-4 0.552469,-0.111998 0.56902,-0.465567 0.01213,-0.263538 0.0081,-0.522427 0.01078,-0.78629 l -1.117365,0 z m 2.545115,0 c 3.24e-4,0.105664 -0.0094,0.205424 0,0.310373 0.08046,0.904488 -0.189129,1.62366 -1.086339,1.996784 -0.161231,0.06725 -0.175881,0.211139 -0.175881,0.3621 3.37e-4,0.62142 -0.01793,1.241519 0,1.862279 0.01348,0.460189 0.20386,0.671583 0.651798,0.682837 0.884959,0.02251 1.774298,0.02547 2.65892,0 0.481712,-0.01388 0.64386,-0.212958 0.651798,-0.713876 0.0081,-0.515473 -0.02049,-1.038076 0.01078,-1.551892 0.02412,-0.406225 -0.0965,-0.610005 -0.517293,-0.724226 -0.674723,-0.183415 -0.831076,-0.455216 -0.83803,-1.158754 -0.004,-0.356884 -0.0081,-0.708741 -0.01078,-1.065625 -0.449259,-3.37e-4 -0.896711,3.24e-4 -1.344973,0 z m 2.772724,0 c 0.0054,0.261868 -0.004,0.526404 0.02062,0.78629 0.03383,0.356898 0.279335,0.477818 0.610409,0.465567 0.328757,-0.01213 0.551742,-0.138468 0.558683,-0.506956 0.004,-0.248633 0.0094,-0.495945 0.01078,-0.744901 -0.39795,6.61e-4 -0.801857,-3.37e-4 -1.20013,0 z m 2.627881,0 c -0.307233,0.258889 -0.171663,0.616285 -0.186232,0.931133 -0.03275,0.69525 -0.177121,0.923194 -0.82768,1.138066 -0.316505,0.104585 -0.440902,0.290588 -0.444878,0.610409 -0.0054,0.503222 -0.02844,1.009275 0,1.510516 0.08976,1.581529 -0.730089,2.165374 -1.955381,2.131276 -0.396306,-0.01078 -0.484785,0.101351 -0.506956,0.506956 -0.02642,0.489313 -0.0081,0.979476 -0.01078,1.469127 -0.0081,1.473601 -0.89473,2.365999 -2.379585,2.379571 -0.622417,0.0054 -1.250536,-0.01078 -1.872629,0.01078 -0.493627,0.01617 -0.574815,0.09448 -0.589721,0.589721 -0.02116,0.688295 0,1.380566 0,2.069199 0,0.444635 -0.08828,0.861615 -0.279335,1.262207 -0.627053,1.316022 -1.726371,1.900608 -3.124499,1.934707 -1.720576,0.04164 -3.451746,0.01469 -5.172996,0.02062 -0.84423,0.0027 -0.87477,0.03275 -0.879406,0.858718 -0.0054,1.006135 6.6e-4,2.014574 0,3.021033 -0.0013,1.284229 0.0013,2.564483 -0.01078,3.848712 -0.004,0.516134 -0.155598,0.66231 -0.662136,0.682837 -0.172161,0.0067 -0.345145,0 -0.517306,0 -4.59461,9.97e-4 -9.186579,8.1e-5 -13.780866,0.01078 -1.61033,0.004 -2.35856,0.761127 -2.358883,2.358883 -9.98e-4,4.475429 -3.37e-4,8.943324 0,13.418752 0,0.198969 -0.0012,0.401427 0.01078,0.600072 0.0094,0.16421 0.05256,0.311869 0.196569,0.41384 0.118871,0.0054 0.232904,0.02076 0.351762,0.02076 11.532228,6.61e-4 23.064779,-0.0094 34.597006,0 0.386036,3.24e-4 0.537577,-0.118467 0.486268,-0.496605 -0.01078,-0.07844 0,-0.158509 0,-0.237958 0,-12.988618 6.6e-4,-25.974406 0,-38.963024 0,-0.701531 -0.0054,-1.398694 -0.01078,-2.100224 -0.02547,-0.0013 -0.04798,-0.0054 -0.07237,0 z"
   id="path31"
   inkscape:connector-curvature="0" /></svg>