<?xml version="1.0" encoding="utf-8"?>
<!-- Generator: Adobe Illustrator 16.0.0, SVG Export Plug-In . SVG Version: 6.00 Build 0)  -->
<!DOCTYPE svg PUBLIC "-//W3C//DTD SVG 1.1//EN" "http://www.w3.org/Graphics/SVG/1.1/DTD/svg11.dtd">
<svg version="1.1" id="Calque_1" xmlns="http://www.w3.org/2000/svg" xmlns:xlink="http://www.w3.org/1999/xlink" x="0px" y="0px"
	 width="100px" height="100px" viewBox="0 0 100 100" enable-background="new 0 0 100 100" xml:space="preserve">
<rect fill-rule="evenodd" clip-rule="evenodd" fill="#233690" width="100" height="57.202"/>
<rect y="57.159" fill-rule="evenodd" clip-rule="evenodd" fill="#8181BA" width="100" height="42.841"/>
<g>
	<g>
		<path fill-rule="evenodd" clip-rule="evenodd" fill="#FEFEFE" d="M93.36,48.565c-0.438-0.317-0.089-0.424,0.075-0.605
			c1.304-1.446,1.605-3.678,0.731-5.527c-0.863-1.828-2.458-2.383-4.317-2.365c-2.352,0.022-4.094,1.509-4.371,3.643
			c-0.144,1.103-0.144,1.103,0.938,1.103c0.473,0,0.945-0.006,1.418,0.004c0.273,0.005,0.408-0.036,0.487-0.378
			c0.258-1.115,0.932-1.648,1.823-1.556c0.95,0.102,1.543,0.744,1.649,1.79c0.105,1.033-0.431,1.818-1.357,2.114
			c-0.422,0.136-1.049-0.243-1.248,0.331c-0.147,0.422-0.037,0.936-0.042,1.407c-0.001,0.111,0.014,0.225-0.002,0.333
			c-0.086,0.587,0.074,0.918,0.755,0.925c2.298,0.024,2.631,2.45,1.883,3.878c-0.405,0.773-1.12,1.069-1.953,0.996
			c-0.783-0.069-1.403-0.395-1.716-1.223c-0.157-0.415,0.125-1.046-0.396-1.227c-0.424-0.147-0.936-0.035-1.408-0.037
			c-0.223-0.001-0.447,0.019-0.667-0.006c-0.396-0.044-0.505,0.105-0.52,0.508c-0.071,2.021,1.054,3.736,3.008,4.516
			c1.23,0.337,2.463,0.433,3.696,0.015c1.805-0.575,2.801-1.87,3.059-3.681C95.151,51.662,95.097,49.826,93.36,48.565z"/>
		<path fill-rule="evenodd" clip-rule="evenodd" fill="#FEFEFE" d="M76.99,44.545c0.656,0.025,1.323-0.145,1.968,0.098
			c0.189,0.278,0.108,0.594,0.109,0.892c0.006,3.223,0.004,6.445,0.004,9.668c0,2.192,0,2.175,2.179,2.154
			c0.528-0.006,0.718-0.135,0.716-0.695c-0.024-5.444-0.022-10.89-0.027-16.335c-1.084-0.133-2.038-0.052-2.706,1.038
			c-0.344,0.563-1.038,0.794-1.688,0.997c-1.17,0.364-1.146,0.377-1.092,1.658C76.47,44.426,76.606,44.528,76.99,44.545z"/>
		<path fill-rule="evenodd" clip-rule="evenodd" fill="#FEFEFE" d="M86.753,70.216c-4.795-3.46-8.525-7.887-11.667-12.85
			c-0.102-0.129-0.216-0.25-0.304-0.388c-2.599-4.059-4.781-8.33-6.54-12.816c-2.108-5.376-3.599-10.903-4.214-16.662
			c-0.318-2.97-0.331-5.935-0.111-8.907c-0.278,0-0.556,0-0.834,0c-0.051,0.155-0.12,0.31-0.151,0.47
			c-0.521,2.699-0.909,5.419-1.112,8.16c-0.351,4.726-0.185,9.428,0.703,14.095c1.061,5.579,3.132,10.737,6.312,15.447
			c0.1,0.149,0.335,0.284,0.202,0.497c-0.121,0.194-0.353,0.083-0.535,0.072c-1.026-0.057-2.051-0.085-3.076,0.014
			c-0.001,2.362-0.003,4.725-0.004,7.088c0,2.52,0,2.52,2.535,2.366c1.602-0.098,2.434-0.932,2.468-2.554
			c0.031-1.472,0.002-2.946,0.013-4.419c0.001-0.197-0.133-0.444,0.197-0.634c4.541,5.538,10.084,9.793,16.639,12.715
			c0.112,0.215,0.369,0.174,0.53,0.3c0.502,0,1.002,0,1.503,0c0.108-0.043,0.12-0.103,0.033-0.181
			C88.477,71.426,87.607,70.832,86.753,70.216z M68.759,62.07c0,0.748,0.014,1.497-0.003,2.246c-0.013,0.55-0.221,0.969-0.841,1.054
			c-0.555,0.077-0.859-0.023-0.839-0.718c0.051-1.69,0.001-3.383,0.029-5.074c0.005-0.337-0.281-0.895,0.469-0.9
			c0.643-0.007,1.122,0.211,1.163,0.899c0.05,0.827,0.012,1.662,0.012,2.493C68.751,62.07,68.755,62.07,68.759,62.07z"/>
		<path fill-rule="evenodd" clip-rule="evenodd" fill="#FEFEFE" d="M57.058,46.084c-0.616-0.59-1.072-1.287-1.001-2.2
			c0.059-0.738,0.386-1.291,1.172-1.403c0.77-0.112,1.387,0.252,1.526,0.98c0.182,0.955,0.712,0.908,1.415,0.758
			c0.378-0.082,0.773-0.082,1.161-0.114c0.331-0.028,0.462-0.147,0.434-0.532c-0.135-1.889-1.669-3.503-3.582-3.715
			c-2.34-0.262-4.287,0.862-4.789,2.829c-0.496,1.944-0.044,3.685,1.303,5.183c0.822,0.914,1.807,1.647,2.723,2.458
			c0.713,0.631,1.383,1.306,1.623,2.27c0.248,0.996-0.13,1.8-0.931,2.051c-0.958,0.302-1.645-0.109-2.096-1.13
			c-0.191-0.432,0.076-1.137-0.503-1.279c-0.451-0.11-0.981,0.103-1.476,0.174c-0.248,0.034-0.493,0.083-0.742,0.105
			c-0.271,0.025-0.398,0.142-0.37,0.428c0.168,1.658,1.121,3.792,3.286,4.244c0.023,0.046,0.022,0.091-0.002,0.136
			c0.003,0.25,0.009,0.498,0.009,0.749c0.001,2.662-0.002,5.325,0.005,7.987c0,0.309-0.117,0.74,0.389,0.768
			c0.395,0.021,0.813,0.126,1.189-0.094c0.007-0.001,0.012-0.001,0.02-0.002c0.025-0.004,0.047-0.027,0.071-0.043
			c0.014-1.053,0.024-2.107,0.046-3.16c0.006-0.26-0.083-0.585,0.343-0.633c0.394-0.044,0.533,0.183,0.624,0.514
			c0.229,0.828,0.534,1.64,0.701,2.48c0.16,0.811,0.606,0.97,1.347,0.934c0.592-0.027,0.629-0.214,0.459-0.699
			c-0.357-1.021-0.662-2.059-1.006-3.084c-0.106-0.317-0.088-0.518,0.18-0.79c1.423-1.453,0.957-3.995-0.866-4.886
			c-0.157-0.014-0.313-0.026-0.47-0.041c-0.25-0.101-0.083-0.195,0.004-0.29c1.676-0.598,2.514-1.815,2.677-3.562
			c0.165-1.766-0.481-3.224-1.702-4.435C59.207,48.022,58.101,47.085,57.058,46.084z M59.589,59.327
			c0.25,0.711,0.089,1.736-0.345,2.019c-0.348,0.226-0.757,0.259-1.121,0.117c-0.323-0.125-0.156-0.485-0.183-0.744
			c-0.023-0.221-0.004-0.445-0.004-0.667c0-0.168-0.028-0.341,0.006-0.5c0.066-0.306-0.237-0.795,0.354-0.857
			C58.842,58.635,59.363,58.688,59.589,59.327z"/>
		<path fill-rule="evenodd" clip-rule="evenodd" fill="#FEFEFE" d="M43.035,57.348c-0.498-0.086-0.997-0.088-1.495,0
			c-0.229,0.184-0.358,0.411-0.359,0.713c-0.003,1.022-0.087,2.046,0.104,3.111c-0.079-0.794-0.373-1.482-0.673-2.145
			c-0.329-0.726-0.326-1.267,0.409-1.685c-0.712-2.247-1.404-4.5-2.148-6.736c-0.208-0.623-0.25-1.046,0.417-1.429
			c0.508-0.291,0.769-0.865,0.959-1.43c0.477-1.406,0.476-2.835,0.165-4.269c-0.379-1.748-1.489-2.73-3.242-3.021
			c-1.633-0.27-3.279-0.049-4.915-0.145c-0.597-0.034-0.74,0.167-0.738,0.745c0.023,5.428,0.017,10.855,0.018,16.283
			c0.986,0,1.973,0,2.959,0c0.372-0.255,0.39-0.643,0.394-1.038c0.012-1.333,0.001-2.665,0.006-3.997
			c0.002-0.36-0.022-0.723,0.041-1.079c0.037-0.206,0.135-0.372,0.368-0.388c0.185-0.012,0.311,0.096,0.405,0.245
			c0.105,0.167,0.134,0.362,0.195,0.547c0.466,1.424,0.837,2.876,1.289,4.303c0.128,0.407,0.158,0.901,0.69,1.054
			c0.246,0.26,0.139,0.581,0.139,0.877c0.008,2.727,0.018,5.453-0.006,8.177c-0.005,0.562,0.133,0.778,0.734,0.785
			c0.625,0.004,0.812-0.188,0.793-0.812c-0.043-1.535-0.014-3.07-0.014-4.605c0.717,1.569,1.324,3.145,1.82,4.754
			c0.243,0.785,0.779,0.665,1.313,0.625c0.595-0.045,0.361-0.541,0.363-0.845C43.044,63.077,43.036,60.213,43.035,57.348z
			 M37.621,45.792c-0.155,1.759-0.956,2.372-2.713,2.156c-0.341-0.043-0.409-0.185-0.408-0.475c0.005-1.415,0-2.831,0.003-4.248
			c0.002-0.784,0.628-0.257,0.861-0.432c1.563,0.013,2.046,0.438,2.215,1.921C37.62,45.071,37.652,45.437,37.621,45.792z"/>
		<path fill-rule="evenodd" clip-rule="evenodd" fill="#FEFEFE" d="M24.3,41.461c-0.208-1.135-0.203-1.136-1.478-1.136
			c-0.556,0-1.116,0.041-1.667-0.012c-0.584-0.056-0.801,0.133-0.908,0.731c-0.962,5.378-1.963,10.749-2.952,16.123
			c0.93,0.39,1.904,0.077,2.853,0.176c0.349-0.27,0.545-0.606,0.544-1.064c-0.001-0.472,0.162-0.927,0.191-1.398
			c0.019-0.314,0.124-0.6,0.439-0.751c1.106-0.534,2.129,0.045,2.329,1.247c0.113,0.682-0.025,1.48,0.682,1.967
			c0.944,0,1.887,0,2.83,0c-0.021-0.221-0.028-0.443-0.068-0.661C26.166,51.609,25.231,46.535,24.3,41.461z M22.835,51.008
			c-1.774,0.065-1.771,0.078-1.488-1.638c0.28-1.694,0.553-3.39,0.829-5.084c0.04-0.007,0.08-0.016,0.119-0.023
			c0.334,2.079,0.658,4.159,1.01,6.235C23.381,50.939,23.222,50.992,22.835,51.008z"/>
		<path fill-rule="evenodd" clip-rule="evenodd" fill="#FEFEFE" d="M10.74,40.418c-1.626-0.241-3.278-0.025-4.915-0.106
			c-0.62-0.03-0.717,0.205-0.714,0.758c0.021,5.425,0.015,10.85,0.016,16.274c0.718,0,1.438-0.035,2.154,0.012
			c0.598,0.038,0.762-0.202,0.736-0.763c-0.037-0.827-0.033-1.657-0.003-2.485c0.043-1.205-0.141-2.42,0.108-3.619
			c0.838-0.24,1.701-0.067,2.552-0.162c2.027-0.228,3.336-1.273,3.747-3.115c0.201-0.9,0.266-1.817,0.166-2.738
			C14.312,41.95,13.252,40.793,10.74,40.418z M8.412,47.944c-0.304-0.069-0.331-0.236-0.331-0.47c0-1.414-0.024-2.829,0.01-4.242
			c0.021-0.874,0.75-0.207,1.013-0.438c1.958,0.009,2.551,0.636,2.532,2.605C11.617,47.446,10.406,48.392,8.412,47.944z"/>
		<path fill-rule="evenodd" clip-rule="evenodd" fill="#FEFEFE" d="M51.025,57.382c-0.584-0.226-1.209-0.298-1.803-0.18
			c-0.64,0.129-0.686-0.102-0.684-0.646c0.021-4.667,0.015-9.336,0.01-14.004c-0.001-0.717,0.242-1.68-0.123-2.088
			c-0.425-0.477-1.411-0.084-2.146-0.164c-0.561-0.062-0.754,0.093-0.751,0.705c0.027,5.445,0.018,10.892,0.02,16.338
			c0.876,0,1.751,0,2.854,0c-0.808,0.574-1.199,1.17-1.207,1.935c-0.019,1.837-0.032,3.675,0.003,5.511
			c0.021,1.015,0.657,1.762,1.583,2.019c1.959,0.543,3.4-0.529,3.421-2.562c0.014-1.391-0.027-2.783,0.012-4.173
			C52.246,58.968,51.95,58.046,51.025,57.382z M49.603,65.417c-0.58-0.033-0.743-0.383-0.739-0.894
			c0.006-0.831,0.002-1.662,0.002-2.494c0-0.831,0.003-1.662-0.001-2.494c-0.002-0.512,0.165-0.857,0.746-0.885
			c0.557-0.026,0.868,0.269,0.876,0.775c0.03,1.744,0.03,3.489,0.003,5.235C50.482,65.179,50.152,65.449,49.603,65.417z"/>
	</g>
</g>
</svg>
