<?xml version="1.0" encoding="UTF-8" standalone="no"?>
<!-- Generator: Adobe Illustrator 15.0.2, SVG Export Plug-In . SVG Version: 6.00 Build 0)  -->

<svg
   xmlns:dc="http://purl.org/dc/elements/1.1/"
   xmlns:cc="http://creativecommons.org/ns#"
   xmlns:rdf="http://www.w3.org/1999/02/22-rdf-syntax-ns#"
   xmlns:svg="http://www.w3.org/2000/svg"
   xmlns="http://www.w3.org/2000/svg"
   xmlns:xlink="http://www.w3.org/1999/xlink"
   xmlns:sodipodi="http://sodipodi.sourceforge.net/DTD/sodipodi-0.dtd"
   xmlns:inkscape="http://www.inkscape.org/namespaces/inkscape"
   version="1.0"
   id="Layer_1"
   x="0px"
   y="0px"
   width="100"
   height="98.422806"
   viewBox="0 0 99.999996 98.422797"
   enable-background="new 0 0 2481 2073"
   xml:space="preserve"
   inkscape:version="0.48.4 r9939"
   sodipodi:docname="logo.college.marker.svg"><metadata
     id="metadata15"><rdf:RDF><cc:Work
         rdf:about=""><dc:format>image/svg+xml</dc:format><dc:type
           rdf:resource="http://purl.org/dc/dcmitype/StillImage" /><dc:title></dc:title></cc:Work></rdf:RDF></metadata><defs
     id="defs13"><linearGradient
       id="SVGID_1_"
       gradientUnits="userSpaceOnUse"
       x1="263.8389"
       y1="-344.77591"
       x2="331.28519"
       y2="-344.77591"
       gradientTransform="matrix(1,0,0,-1,-247.5,-270)"><stop
         offset="0.0023"
         style="stop-color:#217939"
         id="stop60" /><stop
         offset="1"
         style="stop-color:#8DC63F"
         id="stop62" /></linearGradient><linearGradient
       inkscape:collect="always"
       xlink:href="#SVGID_1_"
       id="linearGradient4139"
       gradientUnits="userSpaceOnUse"
       gradientTransform="matrix(1,0,0,-1,-247.5,-270)"
       x1="263.8389"
       y1="-344.77591"
       x2="331.28519"
       y2="-344.77591" /></defs><sodipodi:namedview
     pagecolor="#ffffff"
     bordercolor="#666666"
     borderopacity="1"
     objecttolerance="10"
     gridtolerance="10"
     guidetolerance="10"
     inkscape:pageopacity="0"
     inkscape:pageshadow="2"
     inkscape:window-width="1002"
     inkscape:window-height="902"
     id="namedview11"
     showgrid="false"
     fit-margin-top="0"
     fit-margin-left="0"
     fit-margin-right="0"
     fit-margin-bottom="0"
     inkscape:zoom="1.8215147"
     inkscape:cx="16.505208"
     inkscape:cy="111.86864"
     inkscape:window-x="163"
     inkscape:window-y="120"
     inkscape:window-maximized="0"
     inkscape:current-layer="Layer_1" /><path
     style="opacity:0.36213995;fill:#000000;fill-opacity:0.57534246;fill-rule:evenodd;stroke:none"
     inkscape:connector-curvature="0"
     id="path7"
     d="m 30.209036,98.422796 c 5.626411,-5.553785 9.034218,-10.843153 11.506341,-16.105002 1.833744,-3.903077 1.567241,-6.021578 4.572524,-11.674019 6.681738,-11.369765 9.706537,-13.496243 21.51007,-17.373402 6.864565,-1.582623 14.718733,-1.713817 21.487151,0.716469 5.534065,1.987211 8.750351,5.213924 9.994611,8.218802 1.016807,2.455504 0.916107,4.971064 -0.04462,7.494512 -1.002761,2.63388 -2.974216,5.333232 -6.887658,8.151162 -2.005011,1.443608 -4.228229,2.588461 -6.259488,3.440189 -2.055894,0.862004 -4.129904,1.39643 -6.213154,2.036432 -4.066587,1.249335 -8.226449,2.166641 -12.393591,3.082183 -12.412046,2.726586 -24.678961,5.712499 -37.272126,12.012674 z"
     clip-rule="evenodd"
     sodipodi:nodetypes="cscccssccsccc" /><path
     style="fill:#f5f5f5;fill-opacity:0.78431374;stroke:#e86c52;stroke-width:2.93298769000000004;stroke-linecap:round;stroke-linejoin:miter;stroke-miterlimit:10;stroke-opacity:1;stroke-dasharray:none"
     inkscape:connector-curvature="0"
     id="path5"
     d="M 30.134416,91.679377 C 28.016291,81.541793 24.281731,73.10552 19.758352,65.286719 16.403154,59.486935 12.516319,54.133673 8.9199986,48.509538 7.719467,46.63206 6.6834123,44.648623 5.5298244,42.700104 3.2231948,38.804023 1.3530149,34.286734 1.4718619,28.427076 1.5879664,22.70181 3.2863003,18.10919 5.7353248,14.354231 9.7632348,8.1781947 16.510136,3.1145772 25.562847,1.7838334 c 7.401689,-1.08800819 14.341307,0.7501202 19.262511,3.5558198 4.021402,2.2926179 7.135594,5.3551178 9.502761,8.9644128 2.470769,3.767167 4.172163,8.217672 4.314883,14.022741 0.07305,2.974145 -0.426462,5.728351 -1.130155,8.012944 -0.712153,2.312443 -1.857497,4.245431 -2.876506,6.310253 -1.989168,4.030474 -4.48305,7.723246 -6.985838,11.418397 -7.45475,11.006267 -14.451733,22.230688 -17.516087,37.610976 z"
     stroke-miterlimit="10"
     clip-rule="evenodd" /><g
     transform="matrix(0.56132492,0,0,0.56132492,2.0063653,3.1873057)"
     id="g3015"><path
       d="m 83.633,29.715 c 0.001,0 0.001,-0.001 0.002,-0.002 l -0.002,0.002 z"
       id="path5-2"
       inkscape:connector-curvature="0"
       style="fill:#fafafa" /><path
       d="m 27.083,66.326 c 0,-0.002 0.002,-0.008 0,0 l 0,0 z"
       id="path9-2"
       inkscape:connector-curvature="0"
       style="fill:#fafafa" /><path
       d="m 65.125,35.931 c 0.001,0 0.005,-0.004 0,0 l 0,0 z"
       id="path11-2"
       inkscape:connector-curvature="0"
       style="fill:#fafafa" /><path
       d="m 66.52,35.451 c 1.206,-0.024 2.629,-0.774 3.771,-1.156 1.477,-0.494 2.919,-1.037 4.412,-1.483 1.423,-0.425 2.807,-0.969 4.216,-1.438 1.384,-0.461 2.874,-0.815 4.213,-1.391 1.434,-0.617 0.789,-2.525 0.784,-3.8 -0.005,-1.549 -0.002,-3.098 0.002,-4.647 10e-4,-0.418 0.258,-3.458 -0.284,-3.382 -1.248,0.175 -2.593,0.866 -3.798,1.251 -1.584,0.506 -3.16,1.035 -4.736,1.561 -3.09,1.029 -6.175,2.073 -9.26,3.117 -6.118,2.071 -12.24,4.128 -18.362,6.188 -1.538,0.518 -3.087,1.233 -4.661,1.602 -0.642,0.15 -1.159,0.478 -1.759,0.685 -0.427,0.147 -0.938,0.125 -1.34,0.333 -0.699,0.362 -1.479,0.524 -2.236,0.719 -0.781,0.201 -1.468,0.536 -2.215,0.824 -1.651,0.636 -3.38,1.094 -5.045,1.704 -1.06,0.388 -2.534,0.344 -2.539,1.729 -0.007,1.946 -0.007,3.892 0,5.837 0.005,1.723 -0.169,3.535 0.066,5.243 0.023,0.172 0.26,2.651 0.129,2.7 -0.004,-0.971 -0.154,-1.982 0.028,-2.944 0.111,-0.586 0.992,-0.508 1.462,-0.682 0.682,-0.252 1.342,-0.513 2.024,-0.764 1.826,-0.675 3.735,-1.076 5.554,-1.788 1.655,-0.648 3.363,-1.276 5.072,-1.729 2.005,-0.531 3.95,-1.376 5.954,-1.937 2.135,-0.597 4.238,-1.47 6.344,-2.173 2.265,-0.756 4.564,-1.452 6.793,-2.311 1.789,-0.69 3.703,-0.995 5.411,-1.868 0.894,-0.017 -0.435,0.222 0,0 z"
       id="path13"
       inkscape:connector-curvature="0"
       style="fill:#df0034" /><path
       d="m 64.898,66.729 c -0.524,-0.518 -2.243,-0.117 -2.914,-0.117 -1.727,0.002 -3.452,-0.002 -5.179,-0.002 -0.771,0 -2.459,0.443 -2.464,-0.696 -0.004,-0.644 -0.452,-3.186 0.534,-3.199 1.467,-0.022 2.935,-0.002 4.401,-0.002 1.226,-10e-4 2.535,0.149 3.754,0.026 1.07,-0.108 0.64,-1.728 0.599,-2.453 -0.022,-0.387 0.06,-0.773 0.015,-1.157 -0.081,-0.687 -0.967,-0.397 -1.458,-0.402 -1.559,-0.016 -3.117,-0.013 -4.676,-0.013 -0.635,-10e-4 -2.964,0.417 -3.194,-0.464 -0.203,-0.774 -0.021,-1.783 -0.04,-2.595 -0.029,-1.309 1.099,-1.031 2.101,-0.953 1.469,0.114 2.975,0.022 4.447,0.022 0.793,0 1.585,0 2.378,0 0.323,0 0.648,-0.014 0.971,0.009 0.464,0.032 0.644,0.104 0.644,-0.416 0,-0.574 0.355,-3.436 -0.351,-3.517 -1.464,-0.166 -3.062,0.017 -4.538,0.017 -2.825,0 -5.653,0.028 -8.479,-0.006 -0.37,-0.005 -0.741,-0.008 -1.111,0.013 -0.482,0.025 -0.522,-0.018 -0.494,0.499 0.086,1.555 0.084,3.114 0.062,4.672 -0.046,3.136 -0.075,6.272 -0.124,9.409 -0.024,1.575 -0.042,3.15 -0.013,4.727 0.01,0.556 0.149,0.452 0.657,0.479 2.837,0.148 5.697,0.054 8.537,0.029 0.731,-0.006 1.463,-0.004 2.194,-0.003 0.605,0 3.658,0.358 3.829,-0.275 0.162,-0.601 0.005,-1.469 0.044,-2.107 0.027,-0.437 0.046,-1.401 -0.132,-1.525 -0.37,-0.366 0.062,0.042 0,0 z"
       id="path15-6"
       inkscape:connector-curvature="0" /><path
       d="m 27.828,51.102 c -0.019,-0.76 0.027,-1.52 -0.01,-2.28 -0.028,-0.58 -0.595,-0.358 -0.935,-0.208 -0.994,0.441 -2.082,0.628 -3.067,1.085 -0.982,0.456 -0.503,2.064 -0.501,2.959 0.003,1.658 -0.022,3.316 -0.005,4.975 0.021,2.029 0.296,4.231 -0.177,6.226 -0.511,2.155 -2.349,3.096 -4.493,2.992 -2.378,-0.116 -3.778,-2.338 -3.661,-4.571 0.143,-2.729 -0.091,-5.472 0.039,-8.2 0.037,-0.769 0.078,-1.543 0.026,-2.312 -0.087,-1.301 -0.734,-0.951 -1.917,-0.943 -0.744,0.005 -1.487,-0.029 -2.23,-0.023 -0.433,0.004 -0.391,0.267 -0.385,0.631 0.026,1.706 0.03,3.413 0.024,5.119 -0.011,3.747 -0.79,8.325 1.55,11.524 0.802,1.097 1.687,1.62 2.821,2.204 1.434,0.739 3.799,0.986 5.362,0.602 1.685,-0.414 3.112,-0.419 4.526,-1.55 1.453,-1.161 2.184,-2.574 2.679,-4.312 0.621,-2.19 0.337,-4.694 0.362,-6.949 0.027,-2.44 0.039,-4.879 -0.018,-7.318 0.004,0.101 0.009,0.292 0.01,0.349 -0.019,-0.76 0.005,0.171 0,0 z"
       id="path17"
       inkscape:connector-curvature="0" /><path
       d="m 81.816,64.736 c -0.357,-0.35 -0.875,0.274 -1.103,0.496 -0.455,0.443 -1.069,0.664 -1.54,1.086 -1.328,0.546 -2.481,0.671 -3.884,0.447 -1.523,-0.243 -2.973,-1.19 -3.74,-2.607 -1.1,-2.029 -1.144,-4.622 -0.074,-6.694 0.509,-0.984 1.33,-1.877 2.378,-2.286 1.233,-0.48 2.861,-0.916 4.16,-0.401 1.035,0.41 1.98,0.937 2.843,1.631 0.578,0.467 0.669,0.24 1.149,-0.234 0.486,-0.479 0.854,-1.059 1.302,-1.575 0.202,-0.234 1.087,-0.855 0.785,-1.204 -0.242,-0.28 -0.576,-0.524 -0.845,-0.782 -0.777,-0.743 -1.571,-1.02 -2.539,-1.438 -1.186,-0.515 -2.483,-0.714 -3.774,-0.702 -1.239,0.012 -2.358,0.23 -3.575,0.347 -1.01,0.097 -2.188,0.881 -3.013,1.448 -1.118,0.769 -2.17,1.804 -2.922,2.935 -1.816,2.735 -1.784,6.444 -0.77,9.436 0.98,2.891 3.626,5.029 6.442,5.952 0.813,0.267 1.424,0.393 2.285,0.347 0.805,-0.043 1.541,0.245 2.352,0.107 1.514,-0.257 3.163,-0.757 4.461,-1.581 0.634,-0.401 2.062,-1.126 2.178,-1.962 0.063,-0.452 -0.611,-0.902 -0.9,-1.148 -0.59,-0.502 -1.121,-1.083 -1.67,-1.629 0.113,0.113 0.229,0.225 0.343,0.337 -0.109,-0.11 -0.219,-0.218 -0.329,-0.326 -0.338,-0.332 0.815,0.801 0,0 z"
       id="path19"
       inkscape:connector-curvature="0" /><path
       d="M 47.897,56.605 C 47.262,54.643 46.74,52.919 44.8,51.924 c -0.476,-0.245 -0.896,-0.615 -1.418,-0.733 -0.902,-0.203 -1.847,-0.369 -2.77,-0.394 -2.287,-0.06 -4.611,0.186 -6.893,0.003 -0.236,-0.019 -1.525,-0.209 -1.494,0.245 0.098,1.383 0.015,2.789 0.014,4.174 -10e-4,2.665 -10e-4,5.33 -0.002,7.995 0,1.332 0,2.665 0,3.998 0,0.633 0.005,1.265 -0.019,1.897 -0.013,0.332 -0.169,1.056 -0.049,1.35 0.16,0.39 1.551,0.175 1.837,0.175 0.485,-0.001 2.105,0.301 2.48,-0.123 0.269,-0.304 0.135,-0.981 0.135,-1.338 0,-0.599 0.023,-1.203 -0.006,-1.802 -0.035,-0.718 -0.324,-1.921 0.004,-2.548 0.092,-0.176 1.102,-0.13 1.277,-0.133 0.972,-0.017 1.949,0.072 2.918,-0.016 1.648,-0.149 3.121,-0.463 4.457,-1.471 0.914,-0.688 1.723,-1.469 2.143,-2.564 0.476,-1.237 0.563,-2.913 0.483,-4.034 -0.303,-0.934 0.009,0.131 0,0 z m -5.144,3.168 c -0.861,0.955 -2.213,1.11 -3.427,1.109 -0.637,0 -2.537,0.302 -2.71,-0.483 -0.186,-0.841 0.007,-1.75 0.009,-2.603 0.002,-0.838 0.014,-1.675 0,-2.513 -0.007,-0.442 0.002,-0.5 0.432,-0.555 1.527,-0.192 3.432,0.005 4.906,0.443 2.102,0.626 1.737,3.547 0.606,4.806 0.146,-0.162 0.294,-0.322 0.438,-0.485 -0.084,0.095 -0.17,0.188 -0.254,0.281 -1.387,1.539 0.825,-0.916 0,0 z"
       id="path21"
       inkscape:connector-curvature="0" /></g></svg>