<?xml version="1.0" encoding="UTF-8" standalone="no"?>
<!-- Generator: Adobe Illustrator 15.0.2, SVG Export Plug-In . SVG Version: 6.00 Build 0)  -->

<svg
   xmlns:dc="http://purl.org/dc/elements/1.1/"
   xmlns:cc="http://creativecommons.org/ns#"
   xmlns:rdf="http://www.w3.org/1999/02/22-rdf-syntax-ns#"
   xmlns:svg="http://www.w3.org/2000/svg"
   xmlns="http://www.w3.org/2000/svg"
   xmlns:xlink="http://www.w3.org/1999/xlink"
   xmlns:sodipodi="http://sodipodi.sourceforge.net/DTD/sodipodi-0.dtd"
   xmlns:inkscape="http://www.inkscape.org/namespaces/inkscape"
   version="1.0"
   id="Layer_1"
   x="0px"
   y="0px"
   width="100"
   height="98.422806"
   viewBox="0 0 99.999996 98.422797"
   enable-background="new 0 0 2481 2073"
   xml:space="preserve"
   inkscape:version="0.48.4 r9939"
   sodipodi:docname="logo.inria.marker.svg"><metadata
     id="metadata15"><rdf:RDF><cc:Work
         rdf:about=""><dc:format>image/svg+xml</dc:format><dc:type
           rdf:resource="http://purl.org/dc/dcmitype/StillImage" /><dc:title></dc:title></cc:Work></rdf:RDF></metadata><defs
     id="defs13"><linearGradient
       id="SVGID_1_"
       gradientUnits="userSpaceOnUse"
       x1="263.8389"
       y1="-344.77591"
       x2="331.28519"
       y2="-344.77591"
       gradientTransform="matrix(1,0,0,-1,-247.5,-270)"><stop
         offset="0.0023"
         style="stop-color:#217939"
         id="stop60" /><stop
         offset="1"
         style="stop-color:#8DC63F"
         id="stop62" /></linearGradient><linearGradient
       inkscape:collect="always"
       xlink:href="#SVGID_1_"
       id="linearGradient4139"
       gradientUnits="userSpaceOnUse"
       gradientTransform="matrix(1,0,0,-1,-247.5,-270)"
       x1="263.8389"
       y1="-344.77591"
       x2="331.28519"
       y2="-344.77591" /><linearGradient
       id="SVGID_1_-1"
       gradientUnits="userSpaceOnUse"
       x1="51.847698"
       y1="65.255898"
       x2="77.012001"
       y2="41.551998"><stop
         offset="0"
         style="stop-color:#F19824"
         id="stop6" /><stop
         offset="0.1612"
         style="stop-color:#EE6E25"
         id="stop8" /><stop
         offset="0.3395"
         style="stop-color:#EB4727"
         id="stop10" /><stop
         offset="0.5157"
         style="stop-color:#E82828"
         id="stop12" /><stop
         offset="0.687"
         style="stop-color:#E61228"
         id="stop14" /><stop
         offset="0.851"
         style="stop-color:#E50429"
         id="stop16" /><stop
         offset="1"
         style="stop-color:#E50029"
         id="stop18" /></linearGradient><linearGradient
       id="SVGID_2_"
       gradientUnits="userSpaceOnUse"
       x1="23.0205"
       y1="56.362301"
       x2="6.3035002"
       y2="32.675301"><stop
         offset="0"
         style="stop-color:#F19824"
         id="stop25" /><stop
         offset="0.0189"
         style="stop-color:#F08F24"
         id="stop27" /><stop
         offset="0.1136"
         style="stop-color:#ED6926"
         id="stop29" /><stop
         offset="0.2157"
         style="stop-color:#EB4927"
         id="stop31" /><stop
         offset="0.325"
         style="stop-color:#E92E27"
         id="stop33" /><stop
         offset="0.4441"
         style="stop-color:#E71A28"
         id="stop35" /><stop
         offset="0.5781"
         style="stop-color:#E60B29"
         id="stop37" /><stop
         offset="0.7391"
         style="stop-color:#E50329"
         id="stop39" /><stop
         offset="1"
         style="stop-color:#E50029"
         id="stop41" /></linearGradient></defs><sodipodi:namedview
     pagecolor="#ffffff"
     bordercolor="#666666"
     borderopacity="1"
     objecttolerance="10"
     gridtolerance="10"
     guidetolerance="10"
     inkscape:pageopacity="0"
     inkscape:pageshadow="2"
     inkscape:window-width="1002"
     inkscape:window-height="902"
     id="namedview11"
     showgrid="false"
     fit-margin-top="0"
     fit-margin-left="0"
     fit-margin-right="0"
     fit-margin-bottom="0"
     inkscape:zoom="2.5760108"
     inkscape:cx="34.780589"
     inkscape:cy="37.215127"
     inkscape:window-x="163"
     inkscape:window-y="119"
     inkscape:window-maximized="0"
     inkscape:current-layer="Layer_1" /><path
     style="opacity:0.36213995;fill:#000000;fill-opacity:0.57534246;fill-rule:evenodd;stroke:none"
     inkscape:connector-curvature="0"
     id="path7"
     d="m 30.209036,98.422796 c 5.626411,-5.553785 9.034218,-10.843153 11.506341,-16.105002 1.833744,-3.903077 1.567241,-6.021578 4.572524,-11.674019 6.681738,-11.369765 9.706537,-13.496243 21.51007,-17.373402 6.864565,-1.582623 14.718733,-1.713817 21.487151,0.716469 5.534065,1.987211 8.750351,5.213924 9.994611,8.218802 1.016807,2.455504 0.916107,4.971064 -0.04462,7.494512 -1.002761,2.63388 -2.974216,5.333232 -6.887658,8.151162 -2.005011,1.443608 -4.228229,2.588461 -6.259488,3.440189 -2.055894,0.862004 -4.129904,1.39643 -6.213154,2.036432 -4.066587,1.249335 -8.226449,2.166641 -12.393591,3.082183 -12.412046,2.726586 -24.678961,5.712499 -37.272126,12.012674 z"
     clip-rule="evenodd"
     sodipodi:nodetypes="cscccssccsccc" /><path
     style="fill:#f5f5f5;fill-opacity:0.78431374;stroke:#e86c52;stroke-width:2.93298769000000004;stroke-linecap:round;stroke-linejoin:miter;stroke-miterlimit:10;stroke-opacity:1;stroke-dasharray:none"
     inkscape:connector-curvature="0"
     id="path5"
     d="M 30.134416,91.679377 C 28.016291,81.541793 24.281731,73.10552 19.758352,65.286719 16.403154,59.486935 12.516319,54.133673 8.9199986,48.509538 7.719467,46.63206 6.6834123,44.648623 5.5298244,42.700104 3.2231948,38.804023 1.3530149,34.286734 1.4718619,28.427076 1.5879664,22.70181 3.2863003,18.10919 5.7353248,14.354231 9.7632348,8.1781947 16.510136,3.1145772 25.562847,1.7838334 c 7.401689,-1.08800819 14.341307,0.7501202 19.262511,3.5558198 4.021402,2.2926179 7.135594,5.3551178 9.502761,8.9644128 2.470769,3.767167 4.172163,8.217672 4.314883,14.022741 0.07305,2.974145 -0.426462,5.728351 -1.130155,8.012944 -0.712153,2.312443 -1.857497,4.245431 -2.876506,6.310253 -1.989168,4.030474 -4.48305,7.723246 -6.985838,11.418397 -7.45475,11.006267 -14.451733,22.230688 -17.516087,37.610976 z"
     stroke-miterlimit="10"
     clip-rule="evenodd" /><g
     transform="matrix(0.55791879,0,0,0.55791879,2.7449275,0.25553044)"
     id="g3"><path
       style="fill:#0f0f0f"
       inkscape:connector-curvature="0"
       d="m 6.3,36.728 c 0.21,0.997 0.858,1.555 1.811,1.779 0.445,0.105 0.907,0.123 1.367,0.102 1.815,-0.082 2.642,-0.913 2.668,-2.713 0.018,-1.237 0.014,-2.475 0.017,-3.712 0.002,-1.115 0,-1.096 -1.098,-1.12 -0.378,-0.007 -0.44,0.122 -0.439,0.461 0.006,1.557 -0.012,3.115 -0.028,4.672 -0.003,0.356 -0.138,0.669 -0.442,0.86 C 9.61,37.4 9.022,37.396 8.447,37.144 7.924,36.915 7.744,36.458 7.743,35.914 7.739,34.433 7.723,32.951 7.736,31.469 7.739,31.145 7.648,31.041 7.329,31.068 c -0.348,0.031 -0.701,0.019 -1.052,0.025 0,1.512 10e-4,3.022 -0.005,4.533 0,0.14 0.083,0.309 -0.088,0.418 0,0.122 0,0.244 0,0.367 0.154,0.063 0.093,0.211 0.116,0.317 z"
       id="path5-9" /><path
       style="fill:#111111"
       inkscape:connector-curvature="0"
       d="m 64.886,30.25 c 0.415,-0.446 0.813,-0.907 1.218,-1.361 -0.551,0 -1.101,0 -1.65,0 -0.1,0.535 -0.484,0.96 -0.605,1.527 0.37,-0.079 0.75,0.142 1.037,-0.166 z"
       id="path7-4" /><path
       style="fill:#868686"
       inkscape:connector-curvature="0"
       d="m 6.23,50.833 c 0,-0.002 0,-0.004 0,-0.006 -0.016,-0.002 -0.032,-0.003 -0.047,-0.008 0,1.651 0,3.304 0,4.956 l 0.036,0.01 0.011,-10e-4 c 0,-10e-4 0,-10e-4 0,-0.002 10e-4,-1.649 0,-3.3 0,-4.949 z"
       id="path9" /><path
       style="fill:#4b4b4b"
       inkscape:connector-curvature="0"
       d="m 6.228,46.311 c 0,-0.149 0.042,-0.305 -0.045,-0.446 0,1.651 0,3.303 0,4.955 0.015,0.005 0.031,0.006 0.047,0.008 0,-1.507 0.002,-3.012 -0.002,-4.517 z"
       id="path11" /><path
       style="fill:#4b4b4b"
       inkscape:connector-curvature="0"
       d="M 6.271,35.628 C 6.277,34.117 6.276,32.607 6.276,31.095 6.245,31.094 6.214,31.093 6.183,31.091 c 0,1.651 0,3.304 0,4.955 0.171,-0.109 0.088,-0.278 0.088,-0.418 z"
       id="path13" /><path
       style="fill:#0f0f0f"
       inkscape:connector-curvature="0"
       d="m 62.145,52.287 c -1.021,-0.352 -2.122,-0.443 -3.107,-0.915 -1.436,-0.687 -2.627,-1.602 -2.797,-3.337 -0.153,-1.569 0.357,-3.18 1.772,-3.994 1.33,-0.764 3.526,-0.666 4.711,0.199 1.036,0.758 1.433,1.827 1.519,3.045 0.018,0.257 0.082,0.338 0.335,0.333 0.656,-0.016 1.314,-0.021 1.972,-0.004 0.259,0.006 0.312,-0.1 0.291,-0.323 -0.037,-0.38 -0.033,-0.765 -0.098,-1.139 -0.395,-2.329 -1.509,-4.117 -3.84,-4.925 -1.137,-0.394 -2.318,-0.447 -3.523,-0.343 -2.994,0.259 -5.053,1.917 -5.789,4.816 -0.59,2.319 -0.349,4.487 1.398,6.303 0.97,1.009 2.139,1.707 3.437,2.208 0.97,0.374 2.001,0.542 2.968,0.916 1.996,0.771 3.176,2.206 3.275,4.37 0.096,2.08 -0.648,3.766 -2.588,4.771 -2.547,1.32 -5.315,0.227 -6.127,-2.424 -0.184,-0.601 -0.316,-1.221 -0.297,-1.847 0.016,-0.491 -0.164,-0.634 -0.622,-0.575 -0.256,0.033 -0.519,0.006 -0.778,0.006 -0.321,0 -0.645,0.024 -0.963,-0.006 -0.367,-0.036 -0.533,0.061 -0.484,0.463 0.051,0.423 0.047,0.853 0.084,1.278 0.252,2.937 2.009,5.15 4.73,5.94 1.371,0.396 2.771,0.438 4.177,0.232 1.726,-0.252 3.165,-1.031 4.171,-2.474 1.421,-2.038 1.905,-4.317 1.453,-6.751 -0.559,-3.001 -2.455,-4.847 -5.28,-5.823 z"
       id="path15" /><path
       style="fill:#0f0f0f"
       inkscape:connector-curvature="0"
       d="m 51.896,65.837 c 0,-4.035 0,-8.071 0,-12.106 -0.021,0 -0.041,0 -0.062,0 0,-3.072 0.004,-6.144 -0.001,-9.215 -10e-4,-1.237 -0.024,-2.475 -0.024,-3.712 0,-0.271 -0.041,-0.392 -0.367,-0.412 -0.72,-0.043 -1.438,0.065 -2.151,0.006 -0.426,-0.035 -0.56,0.07 -0.556,0.53 0.041,4.783 0.056,9.568 0.072,14.351 0.014,3.653 0.021,7.306 0.032,10.958 0,0.169 0.016,0.337 0.006,0.504 -0.015,0.238 0.047,0.353 0.322,0.346 0.564,-0.013 1.129,0.018 1.696,0.02 1.07,0.004 1.07,0.002 1.035,-1.086 -0.003,-0.062 -0.002,-0.123 -0.002,-0.184 z"
       id="path17" /><path
       style="fill:#0f0f0f"
       inkscape:connector-curvature="0"
       d="m 14.702,38.487 c 0.396,0.011 0.473,-0.124 0.467,-0.492 -0.022,-1.387 -0.009,-2.775 -0.009,-4.163 0.028,-0.006 0.058,-0.012 0.086,-0.018 0.773,1.24 1.598,2.452 2.299,3.732 0.406,0.741 0.881,1.065 1.721,0.948 0.319,-0.045 0.434,-0.076 0.431,-0.431 -0.02,-2.002 -0.01,-4.005 -0.01,-6.008 0,-0.987 0,-0.968 -0.998,-0.991 -0.358,-0.007 -0.421,0.105 -0.417,0.434 0.018,1.446 0.008,2.891 0.008,4.358 -0.197,-0.073 -0.231,-0.237 -0.307,-0.357 -0.735,-1.177 -1.51,-2.333 -2.172,-3.55 -0.388,-0.711 -0.854,-1.005 -1.653,-0.891 -0.303,0.043 -0.405,0.085 -0.403,0.41 0.016,2.018 0.008,4.036 0.008,6.053 10e-4,0.961 10e-4,0.94 0.949,0.966 z"
       id="path19" /><path
       style="fill:#0f0f0f"
       inkscape:connector-curvature="0"
       d="m 36.797,37.631 c 0.01,-0.368 -0.122,-0.421 -0.444,-0.415 -1.132,0.018 -2.264,-0.003 -3.395,0.014 -0.291,0.005 -0.366,-0.082 -0.353,-0.359 0.023,-0.442 0.022,-0.888 0,-1.33 -0.012,-0.263 0.073,-0.332 0.33,-0.328 0.841,0.016 1.682,0.006 2.524,0.006 0.936,0 0.924,0 0.907,-0.945 -0.005,-0.27 -0.093,-0.334 -0.345,-0.329 -0.718,0.014 -1.438,0.014 -2.156,0.002 -0.406,-0.008 -0.964,0.179 -1.179,-0.078 -0.206,-0.247 -0.047,-0.786 -0.08,-1.193 -0.023,-0.287 0.072,-0.359 0.354,-0.354 0.933,0.018 1.865,0.006 2.798,0.006 0.909,0 0.895,0 0.899,-0.909 0.001,-0.285 -0.073,-0.354 -0.355,-0.353 -1.605,0.014 -3.211,0.017 -4.817,-10e-4 -0.337,-0.004 -0.399,0.111 -0.395,0.416 0.018,1.086 0.007,2.172 0.007,3.258 0,1.071 0.017,2.142 -0.009,3.211 -0.009,0.4 0.072,0.547 0.514,0.537 1.453,-0.031 2.906,-0.011 4.358,-0.011 0.835,0.002 0.813,0.002 0.837,-0.845 z"
       id="path21" /><path
       style="fill:#0f0f0f"
       inkscape:connector-curvature="0"
       d="m 62.229,38.485 c 1.451,-0.017 2.902,-0.007 4.355,-0.007 0.895,0 0.881,0 0.889,-0.88 0.003,-0.301 -0.08,-0.386 -0.382,-0.381 -1.115,0.018 -2.231,-0.011 -3.347,0.017 -0.381,0.01 -0.469,-0.122 -0.444,-0.466 0.026,-0.38 0.028,-0.765 -10e-4,-1.145 -0.023,-0.313 0.062,-0.419 0.392,-0.41 0.81,0.024 1.62,0.008 2.431,0.008 0.963,0 0.953,0 0.924,-0.967 -0.009,-0.241 -0.078,-0.312 -0.316,-0.307 -0.733,0.014 -1.467,0.013 -2.201,0.002 -0.393,-0.005 -0.918,0.173 -1.146,-0.071 -0.243,-0.261 -0.042,-0.785 -0.079,-1.191 -0.027,-0.284 0.076,-0.367 0.359,-0.361 0.916,0.017 1.834,0.006 2.751,0.006 0.916,0 0.903,0 0.907,-0.905 0,-0.279 -0.066,-0.359 -0.354,-0.357 -1.604,0.015 -3.209,0.015 -4.814,0.001 -0.288,-0.002 -0.391,0.059 -0.385,0.37 0.021,1.101 0.009,2.202 0.009,3.302 0,1.101 0.019,2.201 -0.011,3.301 -0.01,0.376 0.117,0.445 0.463,0.441 z"
       id="path23" /><path
       style="fill:#0f0f0f"
       inkscape:connector-curvature="0"
       d="m 51.254,36.492 c 0.049,-1.153 -0.398,-1.871 -1.46,-2.27 -0.427,-0.161 -0.875,-0.265 -1.314,-0.387 -0.412,-0.114 -0.833,-0.197 -1.211,-0.403 -0.366,-0.201 -0.458,-0.551 -0.242,-0.839 0.466,-0.617 2.054,-0.532 2.322,0.177 0.187,0.497 0.441,0.564 0.864,0.439 0.156,0 0.311,-0.014 0.461,0.003 0.381,0.044 0.408,-0.128 0.338,-0.448 -0.196,-0.876 -0.73,-1.423 -1.576,-1.671 -0.716,-0.21 -1.451,-0.226 -2.176,-0.074 -0.861,0.182 -1.528,0.632 -1.749,1.541 -0.184,0.761 0.039,1.42 0.626,1.942 0.375,0.333 0.836,0.495 1.307,0.63 0.585,0.168 1.187,0.295 1.755,0.507 0.652,0.242 0.737,0.868 0.224,1.342 -0.72,0.662 -2.245,0.43 -2.542,-0.478 -0.207,-0.633 -0.543,-0.596 -1.009,-0.519 -0.166,0.027 -0.334,0.055 -0.5,0.054 -0.177,0 -0.189,0.078 -0.173,0.226 0.111,1.04 0.808,1.892 1.825,2.185 0.873,0.252 1.753,0.241 2.621,-0.016 0.953,-0.284 1.57,-1.041 1.609,-1.941 z"
       id="path25" /><path
       style="fill:#0f0f0f"
       inkscape:connector-curvature="0"
       d="m 25.631,37.301 c 0.427,1.191 0.422,1.193 1.68,1.176 0.046,-10e-4 0.092,-0.004 0.138,0 0.18,0.015 0.267,-0.065 0.324,-0.241 0.146,-0.449 0.32,-0.888 0.481,-1.331 0.694,-1.917 1.386,-3.833 2.107,-5.83 -0.478,0 -0.89,0.019 -1.299,-0.007 -0.27,-0.017 -0.362,0.097 -0.44,0.336 -0.496,1.518 -1.007,3.031 -1.522,4.543 -0.049,0.144 -0.03,0.337 -0.224,0.426 -0.569,-1.65 -1.131,-3.292 -1.704,-4.929 -0.053,-0.15 -0.034,-0.379 -0.312,-0.372 -0.471,0.013 -0.943,0.004 -1.397,0.004 -0.05,0.13 -0.001,0.211 0.03,0.297 0.715,1.976 1.43,3.951 2.138,5.928 z"
       id="path27" /><path
       style="fill:#0f0f0f"
       inkscape:connector-curvature="0"
       d="m 55.152,32.333 c 0.488,-0.012 0.98,0.02 1.466,-0.011 0.371,-0.023 0.494,0.075 0.487,0.469 -0.024,1.512 -0.01,3.025 -0.01,4.537 0,1.198 0,1.188 1.204,1.157 0.267,-0.007 0.335,-0.09 0.331,-0.344 -0.013,-0.917 -0.005,-1.833 -0.005,-2.749 0,-0.901 0.01,-1.803 -0.006,-2.704 -0.005,-0.277 0.069,-0.385 0.358,-0.364 0.334,0.023 0.672,0.005 1.008,0.005 0.848,0 0.831,0 0.851,-0.829 0.007,-0.335 -0.069,-0.44 -0.424,-0.435 -1.558,0.021 -3.116,0.008 -4.675,0.008 -0.943,0 -0.936,0 -0.881,0.974 0.013,0.222 0.082,0.291 0.296,0.286 z"
       id="path29" /><path
       style="fill:#0f0f0f"
       inkscape:connector-curvature="0"
       d="m 54,38.11 c -0.021,-1.101 -0.009,-2.202 -0.009,-3.303 0,-0.855 0.009,-1.712 -0.003,-2.568 -0.006,-0.378 0.17,-0.893 -0.072,-1.095 -0.229,-0.189 -0.729,-0.04 -1.105,-0.074 -0.32,-0.03 -0.371,0.107 -0.369,0.391 0.01,1.957 0.006,3.914 0.006,5.871 0,1.163 0,1.154 1.167,1.153 0.288,-10e-4 0.391,-0.061 0.385,-0.375 z"
       id="path31" /><path
       style="fill:#0f0f0f"
       inkscape:connector-curvature="0"
       d="m 22.35,38.485 c 0.309,0 0.376,-0.097 0.373,-0.386 -0.016,-1.114 -0.006,-2.229 -0.006,-3.343 0,-0.854 0,-1.709 0,-2.564 0,-1.134 0,-1.122 -1.132,-1.126 -0.306,0 -0.375,0.089 -0.373,0.381 0.012,1.969 0.007,3.938 0.007,5.906 -0.002,1.144 -0.002,1.131 1.131,1.132 z"
       id="path33" /><path
       style="fill:#cf2529"
       inkscape:connector-curvature="0"
       d="m 93.723,59.861 c -0.453,-2.445 -1.879,-4.228 -3.844,-5.643 -0.74,-0.531 -1.553,-0.941 -2.377,-1.342 0.104,-0.194 0.268,-0.256 0.402,-0.348 0.657,-0.454 1.258,-0.968 1.781,-1.572 1.537,-1.77 2.145,-3.782 1.537,-6.078 -0.465,-1.755 -1.537,-3.107 -2.992,-4.155 -2.744,-1.978 -5.842,-2.526 -9.137,-2.152 -2.406,0.273 -4.595,1.113 -6.42,2.749 -3.036,2.724 -3.414,6.749 -0.659,9.806 0.702,0.779 1.542,1.375 2.448,1.949 -1.168,0.617 -2.258,1.293 -3.191,2.187 -2.129,2.036 -3.151,4.483 -2.587,7.438 0.403,2.109 1.634,3.735 3.31,5.009 3.033,2.308 6.512,3.097 10.265,2.87 3.187,-0.193 6.07,-1.195 8.526,-3.266 1.369,-1.156 2.348,-2.598 2.812,-4.356 0.061,-0.225 0.018,-0.488 0.219,-0.668 0,-0.765 0,-1.53 0,-2.294 -0.072,-0.016 -0.082,-0.071 -0.093,-0.134 z M 75.088,43.316 c 1.927,-1.606 4.197,-2.094 6.643,-1.909 1.777,0.135 3.406,0.692 4.787,1.854 1.678,1.413 2.064,3.026 1.227,5.039 -0.385,0.921 -1.184,1.509 -1.995,2.03 -1.507,0.965 -3.183,1.363 -5.186,1.35 -1.864,-0.053 -3.831,-0.467 -5.481,-1.871 -2.173,-1.849 -2.19,-4.661 0.005,-6.493 z m 13.293,21.81 c -1.531,1.366 -3.367,2.079 -5.371,2.353 -2.834,0.387 -5.553,0.039 -8.012,-1.529 -1.369,-0.873 -2.465,-1.996 -2.858,-3.654 -0.343,-1.446 -0.036,-2.76 0.81,-3.951 1.229,-1.729 2.994,-2.645 4.979,-3.209 1.08,-0.307 2.184,-0.436 3.014,-0.416 2.703,-0.002 4.961,0.539 6.934,1.979 1.311,0.958 2.26,2.188 2.453,3.865 0.217,1.883 -0.593,3.35 -1.949,4.562 z"
       id="path35" /><path
       style="fill:#0f0f0f"
       inkscape:connector-curvature="0"
       d="m 19.205,47.115 c -0.424,-2.631 -1.734,-4.713 -4.044,-6.077 -2.788,-1.646 -5.875,-1.657 -8.978,-1.505 0,2.11 0,4.221 0,6.332 0.086,0.141 0.045,0.297 0.045,0.446 0.004,1.505 0.002,3.01 0.002,4.516 0,0.002 0,0.004 0,0.006 0,1.649 10e-4,3.3 0,4.949 0,0.001 0,0.001 0,0.002 0,0.53 -0.004,1.062 10e-4,1.591 0.014,1.304 -0.036,2.607 0.026,3.911 0.006,1.803 0.017,3.606 0.012,5.409 0,0.275 0.036,0.402 0.361,0.391 0.625,-0.021 1.251,0.011 1.878,0.021 0.712,0.011 0.717,0.012 0.716,-0.725 C 9.222,63.814 9.219,61.247 9.204,58.68 9.203,58.379 9.27,58.256 9.6,58.231 c 1.702,-0.131 3.336,-0.543 4.883,-1.274 2.101,-0.992 3.681,-2.482 4.448,-4.729 0.574,-1.677 0.55,-3.395 0.274,-5.113 z m -2.534,2.255 c -0.199,3.741 -2.731,5.386 -5.769,6.029 -0.46,0.098 -0.938,0.116 -1.405,0.185 C 9.27,55.618 9.19,55.531 9.205,55.313 9.212,55.207 9.196,55.099 9.196,54.994 c 0,-2.062 0,-4.124 0,-6.186 -0.01,0 -0.021,0 -0.031,0 0,-2.124 0.001,-4.248 -10e-4,-6.371 0,-0.242 -0.028,-0.459 0.345,-0.411 1.701,0.224 3.313,0.685 4.709,1.73 1.88,1.404 2.574,3.344 2.453,5.614 z"
       id="path37" /><path
       style="fill:#0f0f0f"
       inkscape:connector-curvature="0"
       d="m 47.785,68.406 c -2.044,-0.355 -3.537,-1.484 -4.549,-3.283 -0.823,-1.459 -1.235,-3.038 -1.465,-4.686 -0.07,-0.506 0.091,-0.721 0.53,-0.924 1.708,-0.788 3.163,-1.9 4.197,-3.502 1.259,-1.95 1.547,-4.11 1.333,-6.371 -0.292,-3.071 -1.564,-5.604 -4.193,-7.317 -2.269,-1.479 -4.813,-2.069 -7.504,-2.069 -0.229,0 -0.462,0.035 -0.687,0.006 -0.376,-0.048 -0.478,0.072 -0.477,0.462 0.016,4.312 0.01,8.624 0.01,14.831 -0.033,2.46 0.148,6.815 0.058,11.171 -0.006,0.271 0.068,0.391 0.353,0.386 0.734,-0.012 1.468,-0.015 2.202,-0.001 0.373,0.007 0.462,-0.138 0.458,-0.508 -0.024,-1.789 -0.013,-3.578 -0.008,-5.367 0,-0.153 -0.068,-0.328 0.146,-0.436 0.538,-0.268 0.849,-0.119 0.918,0.462 0.008,0.062 0.008,0.122 0.015,0.183 0.227,1.885 0.737,3.682 1.749,5.302 1.579,2.526 3.875,3.951 6.821,4.354 0.334,0.047 0.463,-0.029 0.447,-0.388 -0.029,-0.642 -0.034,-1.284 -0.014,-1.926 0.011,-0.276 -0.078,-0.334 -0.34,-0.379 z M 38.519,58.043 c -0.371,0.077 -0.526,0.024 -0.521,-0.432 0.026,-2.367 0.012,-4.736 0.012,-7.104 -0.025,0 -0.051,0 -0.077,0 0,-2.369 0.008,-4.738 -0.008,-7.107 -0.003,-0.408 0.097,-0.493 0.493,-0.389 2.054,0.536 3.88,1.441 5.268,3.108 2.146,2.575 2.364,7.987 -1.672,10.506 -1.085,0.679 -2.244,1.156 -3.495,1.418 z"
       id="path39" /><path
       style="fill:#0f0f0f"
       inkscape:connector-curvature="0"
       d="m 32.076,53.531 c -0.021,0 -0.041,10e-4 -0.062,10e-4 0,-2.858 0.004,-5.717 -0.001,-8.575 C 32.01,43.383 31.985,41.809 31.992,40.235 31.994,39.92 31.887,39.84 31.6,39.85 c -0.458,0.015 -0.917,0.015 -1.376,10e-4 -1.811,-0.051 -3.378,0.577 -4.761,1.707 -1.78,1.456 -2.948,3.356 -3.863,5.428 -0.902,2.041 -1.493,4.181 -1.924,6.365 -0.435,2.199 -0.696,4.422 -0.854,6.661 -0.159,2.239 -0.256,4.478 -0.258,6.722 -0.001,0.291 0.098,0.376 0.356,0.372 0.717,-0.013 1.436,-0.032 2.153,-0.023 0.258,0.003 0.252,-0.125 0.254,-0.31 0.009,-0.977 0.022,-1.953 0.044,-2.932 0.031,-1.48 0.083,-2.959 0.21,-4.437 0.021,-0.247 0.063,-0.382 0.366,-0.38 2.261,0.012 4.522,0.011 6.784,0.002 0.311,-0.002 0.388,0.122 0.383,0.41 -0.012,0.658 0.009,1.314 0.01,1.972 0.002,1.743 0.006,3.486 -0.004,5.229 -0.002,0.343 0.098,0.469 0.462,0.479 0.719,0.023 1.435,0.009 2.152,-0.005 0.243,-0.005 0.355,-0.053 0.349,-0.33 -0.013,-0.55 0.023,-1.099 0.021,-1.649 C 32.099,63.1 32.083,61.067 32.077,59.034 32.072,57.2 32.076,55.366 32.076,53.531 z m -3.353,2.342 c -2.063,-0.012 -4.128,-0.009 -6.191,-0.004 -0.225,0 -0.365,0.01 -0.308,-0.311 0.572,-3.195 1.384,-6.315 2.92,-9.203 0.636,-1.197 1.444,-2.264 2.5,-3.128 0.296,-0.244 0.633,-0.42 0.979,-0.584 0.306,-0.143 0.418,-0.118 0.416,0.268 -0.017,2.109 -0.008,4.219 -0.008,6.328 0.015,0 0.03,0 0.046,0 0,2.093 -0.005,4.187 0.006,6.278 0.003,0.286 -0.08,0.357 -0.36,0.356 z"
       id="path41" /><path
       style="fill:#0f0f0f"
       inkscape:connector-curvature="0"
       d="m 39.211,38.483 c 0.275,-0.004 0.372,-0.07 0.365,-0.359 -0.019,-0.793 0.009,-1.588 -0.015,-2.382 -0.009,-0.298 0.093,-0.335 0.36,-0.349 0.613,-0.033 1.061,0.207 1.398,0.7 0.481,0.706 0.967,1.408 1.451,2.112 0.067,0.097 0.103,0.25 0.24,0.254 0.565,0.011 1.131,0.004 1.787,0.004 -0.835,-1.152 -1.32,-2.426 -2.486,-3.232 0.217,-0.07 0.406,-0.122 0.588,-0.192 0.591,-0.224 1.005,-0.62 1.183,-1.241 0.407,-1.422 -0.428,-2.625 -1.932,-2.693 -1.265,-0.057 -2.535,-0.012 -3.801,-0.038 -0.345,-0.008 -0.311,0.182 -0.311,0.402 0.003,1.954 0.001,3.91 0.001,5.865 10e-4,1.176 10e-4,1.166 1.172,1.149 z m 0.426,-6.065 c 0.232,-0.271 0.772,-0.048 1.176,-0.055 0.32,0 0.64,-0.016 0.957,0.004 0.502,0.03 0.816,0.366 0.828,0.855 0.012,0.497 -0.268,0.832 -0.768,0.91 -0.665,0.104 -1.336,0.045 -2.005,0.066 -0.205,0.007 -0.272,-0.074 -0.257,-0.265 0.009,-0.122 0,-0.244 0.002,-0.365 0.008,-0.395 -0.132,-0.919 0.067,-1.15 z"
       id="path43" /></g></svg>