<?xml version="1.0" encoding="utf-8"?>
<!-- Generator: Adobe Illustrator 16.0.0, SVG Export Plug-In . SVG Version: 6.00 Build 0)  -->
<!DOCTYPE svg PUBLIC "-//W3C//DTD SVG 1.1//EN" "http://www.w3.org/Graphics/SVG/1.1/DTD/svg11.dtd">
<svg version="1.1" id="Calque_1" xmlns="http://www.w3.org/2000/svg" xmlns:xlink="http://www.w3.org/1999/xlink" x="0px" y="0px"
	 width="100px" height="100px" viewBox="0 0 100 100" enable-background="new 0 0 100 100" xml:space="preserve">
<g>
	<path fill="#3EBBAB" d="M82.885,69.184c-2.489,0.007-4.979,0.009-7.467,0.008c-1.18,0-2.359-0.001-3.538-0.002
		c-0.48,0-3.071-0.289-3.071,0.297c0.004,2.502,0.006,5.004,0.005,7.507c0,1.316,0,2.633-0.001,3.949
		c-0.001,0.658-0.001,1.317-0.002,1.976c0,0.646,0.008,0.667,0.656,0.664c2.307-0.01,4.627,0.003,6.924,0.002
		c1.265-0.001,2.528-0.004,3.793-0.003c0.424,0.001,2.917,0.269,3.03-0.168c0.254-0.972,0.015-2.312,0.014-3.318
		c-0.002-1.304-0.003-2.606-0.003-3.91s0.001-2.607,0.002-3.911C83.228,71.753,83.546,69.184,82.885,69.184
		C78.3,69.195,83.163,69.184,82.885,69.184z"/>
	<path fill="#808184" d="M33.974,34.396c0.017,3.184,0.008,6.369,0.008,9.553c0,0.799,0,1.598-0.001,2.397
		c-0.001,0.312-0.208,1.774,0.117,1.924c0.346,0.16,1.559,0.108,1.932,0.015c0.379-0.095,0.172-1.27,0.171-1.541
		c-0.002-0.788-0.001-1.576-0.001-2.363c0-0.309-0.205-1.75,0.118-1.898c0.468-0.214,1.417-0.009,1.933-0.016
		c0.432-0.006,1.144-0.212,1.134,0.417c-0.02,1.554-0.006,3.108-0.014,4.662c-0.003,0.71,0.042,0.754,0.743,0.739
		c0.38-0.008,1.479,0.263,1.479-0.328c-0.008-3.196-0.01-6.393-0.007-9.588c0-0.541,0.317-4.134-0.133-4.302
		c-0.458-0.17-1.303-0.039-1.792-0.016c-0.426,0.02-0.284,0.589-0.285,0.881c-0.001,0.777-0.003,1.555-0.002,2.333
		c0,0.593,0.207,1.611-0.021,2.16c-0.122,0.293-3.061,0.286-3.144-0.065c-0.146-0.617-0.008-1.414-0.007-2.048
		c0-0.739-0.001-1.479,0-2.218c0.001-0.69,0.175-1.054-0.599-1.042C35.2,34.058,33.972,33.791,33.974,34.396
		C33.985,36.647,33.973,34.119,33.974,34.396z"/>
	<path fill="#808184" d="M73.293,56.594c1.627-0.521,3.253-1.044,4.88-1.565c0.876-0.281,1.752-0.562,2.628-0.841
		c0.7-0.224,1.849-0.36,2.435-0.804c0.301-0.228,0.104-1.292,0.107-1.634c0.011-0.836-0.538-0.576-1.247-0.581
		c-1.843-0.012-3.686,0-5.528,0c-1.732,0-3.465,0-5.198-0.004c-0.47-0.001-2.005-0.267-2.347,0.084
		c-0.151,0.155-0.157,1.434-0.002,1.581c0.347,0.331,1.816,0.071,2.28,0.07c0.917-0.002,1.833-0.003,2.75-0.003
		c1.816-0.001,3.632,0.001,5.448,0.001c-0.351,0.428-1.558,0.573-2.074,0.738c-0.863,0.275-1.727,0.552-2.591,0.828
		c-1.728,0.552-3.456,1.103-5.185,1.652c-0.875,0.277-0.67,0.667-0.678,1.506c-0.009,0.987,0.043,0.923,1.045,0.922
		c1.848-0.002,3.695-0.003,5.542-0.003c1.849-0.001,3.696,0,5.544,0.002c0.315,0,2.119,0.2,2.23-0.114
		c0.087-0.246,0.168-1.529-0.173-1.61c-0.753-0.18-1.735-0.012-2.51-0.01c-0.9,0.002-1.801,0.002-2.701,0.002
		c-1.704,0-3.409-0.001-5.113-0.001C72.849,56.673,73.176,56.632,73.293,56.594C76.547,55.551,73.143,56.643,73.293,56.594z"/>
	<path fill="#808184" d="M59.475,34.047c-0.526,0.021-1.143-0.097-1.656,0.003c-0.427,0.083-0.213,1.253-0.212,1.546
		c0.006,1.547,0.007,3.094,0.004,4.641c-0.003,1.341,0.193,2.896-0.289,4.177c-0.377,1-1.654,1.467-2.25,0.346
		c-0.547-1.031-0.431-2.361-0.433-3.486c-0.004-1.54-0.003-3.079,0.001-4.619c0.002-0.77,0.004-1.54,0.006-2.309
		c0.002-0.519-0.916-0.29-1.251-0.292c-0.756-0.004-0.972-0.107-0.966,0.715c0.005,0.771,0.006,1.543,0.005,2.315
		c-0.003,2.662-0.342,5.604,0.206,8.229c0.462,2.214,2.277,4.001,4.663,3.157c2.444-0.864,2.522-4.082,2.527-6.22
		c0.004-1.571-0.004-3.142-0.005-4.712C59.825,36.979,60.172,34.024,59.475,34.047C58.987,34.067,59.75,34.038,59.475,34.047z"/>
	<path fill="#808184" d="M40.528,61.324c0.21-2.789,0.041-5.626,0.059-8.422c0.002-0.271,0.193-1.253-0.205-1.326
		c-0.415-0.076-1.322-0.115-1.723,0.01c-0.404,0.126-0.118,3.973-0.119,4.496c-0.001,1.499,0.046,3.009-0.019,4.507
		c-0.045,1.037-0.154,2.666-1.307,3.103c-2.896,1.097-2.271-5.437-2.272-6.75c-0.001-1.532,0-3.065,0.007-4.598
		c0.003-0.729-0.045-0.767-0.75-0.761c-0.225,0.001-1.092-0.161-1.249,0.104c-0.228,0.386-0.049,1.229-0.051,1.654
		c-0.002,0.779-0.007,1.558-0.011,2.336c-0.009,1.686-0.012,3.372,0.039,5.059c0.068,2.249,0.774,5.221,3.477,5.441
		C39.244,66.41,40.346,63.726,40.528,61.324C40.653,59.668,40.453,62.313,40.528,61.324z"/>
	<path fill="#808184" d="M16.883,65.555c1.269-0.007,2.538-0.009,3.806-0.007c0.634,0.001,1.269,0.004,1.903,0.007
		c0.489,0,0.296-0.724,0.294-1.033c-0.001-0.242,0.172-1.252-0.108-1.371c-0.421-0.179-1.205-0.02-1.66-0.02
		c-0.606,0-1.212-0.002-1.819,0.004c-0.55,0.009-0.306-1.04-0.305-1.387c0.003-0.6,0.001-1.199-0.006-1.799
		c-0.008-0.672,0.076-0.675,0.73-0.672c0.653,0.003,1.306,0.001,1.958,0.002c0.758,0.002,1.087,0.178,1.073-0.652
		c-0.008-0.448,0.163-1.242-0.016-1.653c-0.126-0.291-1.216-0.114-1.47-0.114c-0.646-0.001-1.291-0.005-1.937,0.006
		c-0.581,0.012-0.332-1.026-0.33-1.395c0.001-0.463-0.144-1.164,0.01-1.602c0.107-0.304,1.137-0.134,1.383-0.134
		c0.593-0.001,1.187-0.006,1.78,0.002c0.686,0.009,0.734-0.049,0.718-0.725c-0.01-0.441,0.152-1.17-0.014-1.578
		c-0.124-0.305-1.188-0.129-1.445-0.128c-1.37,0.006-2.74,0.006-4.11-0.003c-0.359-0.003-0.735-0.087-0.733,0.372
		c0.003,0.662,0.005,1.324,0.006,1.986c0.002,1.457,0.001,2.914,0,4.371c0,1.33,0,2.661,0,3.991
		C16.593,62.532,16.313,65.559,16.883,65.555C18.786,65.545,16.612,65.557,16.883,65.555z"/>
	<path fill="#808184" d="M54.678,53.996c0.66,0.009,1.32,0.006,1.98,0.006c0.338,0,1.207,0.178,1.483-0.055
		c0.237-0.199,0.06-1.062,0.062-1.339c0.004-0.354,0.207-1.045-0.33-1.039c-1.253,0.007-2.506,0.01-3.76,0.007
		c-0.626-0.001-1.253-0.003-1.879-0.007c-0.604-0.007-0.341,1.152-0.34,1.537c0.008,2.785,0.001,5.57,0.001,8.355
		c0,1.332,0,2.663-0.002,3.994c0,0.66,2.78,0.339,3.354,0.339c0.45,0,2.981,0.266,2.969-0.27c-0.011-0.615-0.013-1.23,0.002-1.846
		c0.011-0.527-1.059-0.294-1.387-0.296c-0.496-0.001-2.556,0.338-2.544-0.372c0.007-0.469-0.254-3.387,0.198-3.479
		c1.061-0.217,2.44,0.353,3.454-0.023c0.279-0.103,0.108-1.118,0.109-1.352c0.003-0.79,0.143-1.061-0.721-1.052
		c-0.456,0.005-3.056,0.268-3.044-0.265C54.298,56.295,53.948,53.981,54.678,53.996C55.734,54.011,54.386,53.99,54.678,53.996z"/>
	<path fill="#808184" d="M81.572,39.516c-0.854-0.406-1.853-1.137-1.241-2.214c0.614-1.084,1.718-0.183,2.265,0.424
		c0.153-0.498,1.138-2.676,0.711-3.027c-0.826-0.677-2.003-1.231-3.091-0.943c-2.242,0.593-2.485,3.797-2.33,5.66
		c0.067,0.804,0.333,1.595,0.896,2.19c0.688,0.727,1.888,0.827,2.45,1.65c0.438,0.642,0.396,1.778-0.377,2.163
		c-0.997,0.497-1.859-0.694-2.387-1.342c-0.372,0.729-0.582,1.666-0.795,2.458c-0.132,0.493-0.03,0.773,0.367,1.089
		c1.218,0.966,2.794,1.494,4.172,0.483c1.35-0.99,1.597-2.889,1.606-4.437C83.831,41.859,83.275,40.339,81.572,39.516
		C81.186,39.332,82.299,39.867,81.572,39.516z"/>
	<path fill="#808184" d="M64.559,57.109c-1.038-0.563-2.672-1.193-2.279-2.686c0.481-1.829,2.291-1.051,3.051,0.031
		c0.275-0.511,0.548-1.022,0.827-1.53c0.319-0.582-0.083-0.835-0.585-1.187c-0.884-0.619-2.022-0.999-3.093-0.699
		c-2.226,0.622-2.983,3.56-2.395,5.558c0.279,0.948,0.935,1.694,1.786,2.18c1.019,0.583,2.235,0.96,2.526,2.241
		c0.191,0.845-0.13,2.08-1.038,2.396c-1.297,0.45-2.057-1.094-2.457-2.013c-0.278,0.342-1.568,1.524-1.343,1.951
		c0.4,0.762,0.898,1.495,1.619,1.987c1.131,0.771,2.622,0.798,3.753,0.011C67.584,63.503,67.377,58.649,64.559,57.109
		C64.283,56.96,66.174,57.992,64.559,57.109z"/>
	<path fill="#808184" d="M70.332,34.407c0.008,2.384,0.004,4.768,0.004,7.151c0,1.198,0.001,2.396,0,3.594
		c0,0.435-0.271,2.949,0.126,3.116c0.354,0.149,0.973,0.022,1.352,0.021c0.633-0.003,1.266-0.002,1.898,0
		c0.386,0.001,0.962,0.115,1.328-0.016c0.293-0.104,0.119-1.131,0.118-1.371c-0.001-0.484,0.003-0.969,0.012-1.453
		c0.009-0.476-0.692-0.293-0.992-0.293c-0.449,0-0.897-0.004-1.347,0.002c-0.473,0.007-0.282-0.702-0.282-1.003
		c0-0.354-0.143-0.997,0.015-1.321c0.142-0.292,1.176-0.116,1.438-0.117c0.189,0,0.909,0.139,1.006-0.113
		c0.167-0.434,0.012-1.186,0.013-1.65c0.001-0.351,0.124-0.945-0.014-1.271c-0.112-0.266-1.188-0.098-1.423-0.099
		c-0.186,0-0.915,0.138-1.018-0.101c-0.175-0.406-0.013-1.189-0.018-1.632c-0.003-0.259-0.104-0.651,0.271-0.641
		c0.57,0.01,1.142-0.001,1.712,0.004c0.271,0.002,0.643,0.095,0.638-0.287c-0.01-0.605-0.013-1.211-0.009-1.816
		c0.002-0.192,0.143-0.905-0.107-1.012c-0.436-0.186-1.251-0.019-1.722-0.018C72.819,34.083,70.327,33.768,70.332,34.407
		C70.34,36.659,70.33,34.156,70.332,34.407z"/>
	<path fill="#808184" d="M75.851,29.93c0,0.242-0.076,0.714,0.245,0.794c0.549,0.137,1.221,0.031,1.78,0.031
		c1.73-0.001,3.461-0.002,5.191,0.004c0.935,0.003,0.639-0.246,0.729-1.05c0.072-0.637-0.796-0.419-1.192-0.417
		c-0.786,0.005-1.572,0.004-2.357,0.003c-0.693,0-1.934,0.248-2.569-0.024c-0.426-0.181-0.116-3.547-0.12-4.07
		c-0.002-0.275-0.212-1.39,0.181-1.476c0.747-0.163,1.693-0.004,2.459-0.004c0.694,0,3.507,0.459,3.433-0.545
		c-0.056-0.741,0.05-0.928-0.764-0.924c-0.888,0.004-1.776,0.003-2.665,0.004c-0.761,0-1.522,0.002-2.283,0.008
		c-0.569,0-0.355-0.775-0.353-1.151c0.006-0.782,0.005-1.563-0.005-2.345c-0.012-0.933,0.318-0.767,1.179-0.764
		c1.583,0.005,3.165-0.002,4.747,0.008c0.515,0,0.284-0.794,0.311-1.139c0.047-0.614-1.472-0.333-1.859-0.332
		c-1.539,0.004-3.078,0.004-4.618-0.001c-0.382-0.001-1.479-0.257-1.474,0.333c0.004,0.932,0.006,1.864,0.006,2.795
		c0.002,3.29-0.001,6.58-0.001,9.87C75.851,29.669,75.851,29.8,75.851,29.93z"/>
	<path fill="#808184" d="M82.982,60.42c-0.581,0.012-1.162,0.014-1.742-0.004c-0.5-0.012-0.305,0.729-0.304,1.046
		c0.003,0.617-0.001,1.234,0.001,1.852c0.002,0.623-0.009,0.637-0.644,0.632c-0.462-0.004-3.312,0.265-3.477-0.129
		c-0.216-0.518,0.382-2.812-0.129-3.062c-0.368-0.181-1.148-0.014-1.559-0.021c-0.632-0.012-0.648,0.061-0.646,0.683
		c0.004,0.613-0.002,1.228,0.003,1.841c0.005,0.651-0.04,0.685-0.692,0.679c-0.49-0.004-2.928,0.275-2.928-0.287
		c0.004-0.433,0.265-3.032-0.113-3.197c-0.377-0.166-1.102-0.002-1.515-0.014c-0.656-0.018-0.67,0.087-0.667,0.73
		c0.004,1.276,0.003,2.554-0.011,3.83c-0.004,0.371-0.096,0.771,0.386,0.766c0.645-0.003,1.289-0.005,1.935-0.006
		c1.29-0.002,2.579,0,3.869,0.001c2.469,0.001,4.962-0.015,7.446-0.009c0.264,0.001,1.043,0.192,1.043-0.242
		c-0.004-0.62-0.006-1.24-0.007-1.86C83.232,63.185,83.478,60.41,82.982,60.42C82.4,60.432,83.174,60.416,82.982,60.42z"/>
	<path fill="#808184" d="M26.631,30.764c1.597-0.014,3.195-0.011,4.792-0.01c0.713,0.001,1.426-0.005,2.138,0
		c0.787,0.005,0.504-0.509,0.552-1.143c0.047-0.586-3.308-0.317-3.849-0.317c-0.675,0-1.477,0.124-2.139-0.006
		c-0.429-0.085-0.194-1.532-0.193-1.853c0.002-0.486-0.282-3.586,0.168-3.705c0.612-0.162,1.452-0.01,2.085-0.009
		c0.888,0.001,1.776-0.001,2.665,0.001c0.667,0.001,1.083,0.188,1.062-0.566c-0.011-0.36,0.183-0.909-0.343-0.904
		c-1.649,0.014-3.299,0.005-4.949,0.01c-0.832,0.002-0.694-0.26-0.689-1.03c0.005-0.724,0.005-1.449,0-2.173
		c-0.005-0.789-0.143-1.059,0.715-1.054c0.921,0.006,1.842,0.005,2.763,0.004c0.721-0.001,1.437,0.006,2.157,0.035
		c0.664,0.026,0.579-0.432,0.545-0.931c-0.052-0.76-0.429-0.571-1.146-0.569c-0.93,0.003-1.86,0.004-2.79,0.004
		c-0.592,0-3.938-0.322-3.934,0.337c0.009,1.722,0.008,3.443,0.007,5.166c0,1.584,0.001,3.168,0.001,4.753
		C26.249,27.431,25.871,30.77,26.631,30.764C28.627,30.746,26.301,30.766,26.631,30.764z"/>
	<path fill="#808184" d="M29.304,53.729c0.3,0.011,1.912,0.201,2.05-0.082c0.116-0.239,0.144-2.232-0.095-2.32
		c-0.77-0.283-2.111-0.018-2.935-0.018c-1.054,0.001-2.108,0-3.163-0.004c-1.073-0.005-1.075-0.03-1.067,1.031
		c0.002,0.345-0.138,0.989,0.015,1.302c0.113,0.23,0.813,0.098,1.001,0.099c0.896,0.005,1.438-0.281,1.431,0.745
		c-0.006,1.062-0.007,2.123-0.006,3.185c0.001,1.99,0.004,3.98,0.001,5.971c0,0.53-0.002,1.062-0.004,1.592
		c-0.002,0.413,0.346,0.323,0.657,0.318c0.769-0.012,1.728,0.365,1.713-0.609c-0.029-2.021,0.003-4.043,0.003-6.064
		c0-1.056-0.001-2.111-0.004-3.168C28.902,55.239,28.57,53.7,29.304,53.729C29.906,53.751,28.997,53.717,29.304,53.729z"/>
	<path fill="#808184" d="M47.455,29.795c0.501-0.348,0.249-1.562,0.249-2.128c-1.731,1.624-4.162,2.395-6.413,1.403
		c-2.107-0.929-3.496-3.095-3.503-5.391c-0.007-2.275,1.336-4.465,3.418-5.415c2.249-1.026,4.805-0.292,6.499,1.414
		c0-0.543,0.264-1.82-0.248-2.174c-0.735-0.509-1.563-0.879-2.438-1.065c-1.509-0.321-3.135-0.118-4.534,0.526
		c-2.352,1.083-3.988,3.416-4.253,5.986C35.617,28.888,42.445,33.174,47.455,29.795C47.555,29.725,43.985,32.136,47.455,29.795z"/>
	<path fill="#808184" d="M67.748,34.076c-0.886,0.041-1.781,0.004-2.667,0.004c-0.777,0-2.135-0.272-2.852,0.018
		c-0.315,0.128-0.11,1.783-0.112,2.1c-0.006,1.119,0.103,1.026,1.192,1.019c0.938-0.006,0.631,0.736,0.629,1.52
		c-0.003,1.064-0.002,2.129-0.001,3.193c0.001,1.894,0.007,3.789-0.004,5.683c-0.005,0.96,0.588,0.671,1.406,0.676
		c0.855,0.005,0.816,0.021,0.816-0.835c0-1.976,0.001-3.952-0.001-5.928c0-0.922-0.001-1.844-0.003-2.766
		c-0.001-0.825-0.31-1.552,0.659-1.541c0.749,0.008,1.174,0.211,1.167-0.634C67.976,36.219,68.173,34.05,67.748,34.076
		C67.493,34.087,67.935,34.064,67.748,34.076z"/>
	<path fill="#808184" d="M16.705,30.764c1.757-0.019,3.586-0.146,5.336,0.008c0.817,0.072,0.897-0.199,0.832-0.942
		c-0.025-0.291,0.052-0.542-0.328-0.542c-0.52,0.003-1.04,0.004-1.561,0.004c-0.793,0-1.757,0.155-2.533-0.005
		c-0.465-0.096-0.206-1.984-0.205-2.36c0.004-1.973,0-3.947,0-5.92c0-0.88-0.001-1.761,0-2.641c0-0.36,0.266-1.858-0.299-1.826
		c-0.408,0.02-1.599-0.254-1.599,0.343c0.006,1.06,0.008,2.12,0.008,3.18c0.001,1.987,0,3.975,0,5.961c0,0.927,0,1.854-0.002,2.782
		C16.353,29.235,16.032,30.769,16.705,30.764C18.388,30.746,16.407,30.766,16.705,30.764z"/>
	<path fill="#808184" d="M66.574,30.429c0,0.608,1.316,0.327,1.752,0.326c0.879-0.002,1.757-0.002,2.635-0.001
		c0.345,0,2.13,0.214,2.117-0.235c-0.012-0.304,0.103-0.832-0.019-1.11c-0.113-0.262-0.897-0.117-1.1-0.117
		c-0.918,0.002-1.835-0.003-2.753,0.006c-0.914,0.009-0.748-0.303-0.744-1.153c0.007-1.965,0.002-3.931,0.002-5.896
		c0-1.799-0.003-3.598,0.006-5.397c0.005-0.551-1.183-0.29-1.559-0.314c-0.644-0.034-0.339,1.899-0.338,2.336
		C66.581,22.724,66.574,26.577,66.574,30.429z"/>
	<path fill="#808184" d="M16.577,42.177c4.429-0.022,8.858-0.003,13.288-0.008c0.196,0,0.722,0.129,0.717-0.214
		c-0.008-0.609-0.009-1.218-0.008-1.827c0-0.246,0.145-1.088-0.043-1.271c-0.145-0.141-1.134-0.098-1.324-0.028
		c-0.564,0.208,0.26,2.152-0.187,2.528c-0.221,0.186-0.807,0.06-1.061,0.058c-0.625-0.004-1.25-0.005-1.875-0.005
		c-0.52,0-2.149,0.29-2.543-0.053c-0.428-0.372,0.365-2.261-0.189-2.461c-0.3-0.108-0.775,0.003-1.095-0.015
		c-0.468-0.025-0.27,0.774-0.271,1.05c0,0.393,0.116,0.987-0.015,1.358c-0.104,0.295-1.14,0.123-1.38,0.122
		c-0.385-0.002-2.717,0.232-2.841-0.121c-0.137-0.392,0.281-2.305-0.12-2.462c-0.303-0.118-0.814,0-1.141-0.017
		c-0.458-0.028-0.263,0.796-0.262,1.057C16.232,40.333,15.89,42.184,16.577,42.177C18.852,42.166,16.282,42.18,16.577,42.177z"/>
	<path fill="#808184" d="M31.251,35.203c-1.017-1.109-2.94-1.279-4.35-1.258c-1.436,0.021-2.809,0.493-3.807,1.555
		c-0.903,0.96-1.902,1.645-3.293,1.431c-0.49-0.076-1.305-0.301-1.507-0.824c-0.331-0.856,0.936-1.132,1.461-1.336
		c-1.188-1.286-4.053,0.619-2.622,1.972c1.44,1.361,4.652,1.277,6.192,0.177c0.744-0.531,1.273-1.304,2.085-1.745
		c0.85-0.461,1.856-0.615,2.806-0.437c0.651,0.122,2.188,0.585,1.803,1.545c-0.332,0.828-1.842,0.94-2.573,1.024
		c0.1,0.177,0.26,0.673,0.517,0.7c0.437,0.044,1.023-0.128,1.437-0.244C30.41,37.482,32.44,36.503,31.251,35.203
		C30.955,34.88,31.699,35.693,31.251,35.203z"/>
	<path fill="#808184" d="M40.247,74.615c-0.019-1.566-0.007-3.133-0.007-4.699c2.048,1.781,4.094,3.564,6.141,5.348
		c0-1.13,0-2.26,0-3.39c0-1.017,0.236-2.354-0.021-3.338c-0.06-0.229-0.591-0.206-0.749-0.14c-0.308,0.129-0.125,1.237-0.124,1.5
		c0.002,0.654,0.001,1.309,0,1.963c-0.001,0.347,0.178,1.243-0.065,1.527c-2.025-1.766-4.051-3.53-6.077-5.296
		c0,1.438,0,2.876,0,4.313c0,0.771-0.001,1.543-0.003,2.314C39.342,75.12,40.252,75.099,40.247,74.615
		C40.231,73.246,40.25,74.9,40.247,74.615z"/>
	<path fill="#808184" d="M59.57,82.883c-0.756,0.021-1.513,0.001-2.269,0.005c-0.981,0.005-0.67-0.628-0.674-1.459
		c-0.006-1.062-0.045-1.094,1.024-1.092c0.31,0.001,2.004,0.19,2.087-0.149c0.331-1.354-2.796,0.047-3.101-0.642
		c-0.094-0.211-0.131-1.747,0.1-1.83c0.646-0.233,1.77-0.023,2.458-0.015c0.243,0.003,1.089-0.205,0.583-0.654
		c-0.366-0.324-2.1-0.038-2.599-0.04c-0.808-0.004-1.474-0.315-1.466,0.636c0.008,0.873,0.002,1.746,0.002,2.619
		c0,0.758,0.005,1.516,0.001,2.274c-0.005,1.086,0.013,1.063,1.097,1.053c0.921-0.009,1.841-0.013,2.762,0.003
		C59.953,83.597,59.955,82.874,59.57,82.883C58.688,82.906,59.929,82.875,59.57,82.883z"/>
	<path fill="#808184" d="M34.329,74.958c0.789-0.006,1.578-0.012,2.367-0.009c0.466,0.002,1.7,0.295,1.459-0.541
		c-0.094-0.326-1.837-0.132-2.146-0.132c-1.008,0-1.066,0.05-1.058-0.968c0.002-0.254-0.173-1.492,0.102-1.595
		c0.607-0.227,1.694-0.024,2.343-0.015c0.149,0.002,0.596,0.095,0.657-0.154c0.064-0.264,0.033-0.549-0.295-0.539
		c-0.846,0.02-1.693,0-2.54,0.012c-0.501,0.005-0.26-0.991-0.267-1.312c-0.021-0.935,0.638-0.644,1.423-0.646
		c0.442-0.001,1.789,0.294,1.792-0.339c0.004-0.644-1.425-0.339-1.865-0.338c-0.594,0-1.589-0.204-2.142,0.013
		c-0.324,0.127-0.116,1.812-0.117,2.133c-0.001,0.874,0,1.749,0,2.623C34.042,73.518,33.773,74.965,34.329,74.958
		C35.512,74.949,34.104,74.961,34.329,74.958z"/>
	<path fill="#808184" d="M59.296,74.961c0.442,0.005,0.449-0.7,0.003-0.691c-0.882,0.02-1.765,0.002-2.646,0.011
		c-0.527,0.008-0.271-1.132-0.271-1.462c-0.002-1.077-0.043-1.121,1.039-1.12c0.492,0.001,1.57,0.21,2-0.029
		c0.149-0.082,0.122-0.376,0.091-0.507c-0.071-0.297-0.817-0.148-1.019-0.147c-0.315,0.001-1.947,0.201-2.09-0.103
		c-0.095-0.203-0.124-1.774,0.092-1.84c0.578-0.176,1.458-0.014,2.064-0.012c0.26,0.001,0.709,0.096,0.954-0.021
		c0.15-0.072,0.148-0.516,0.033-0.617c-0.37-0.327-2.081-0.039-2.582-0.042c-0.826-0.004-1.476-0.306-1.469,0.664
		c0.012,1.622,0.01,3.244,0.003,4.866c-0.005,1.062-0.005,1.048,1.063,1.043C57.473,74.949,58.385,74.949,59.296,74.961
		C59.578,74.964,58.124,74.946,59.296,74.961z"/>
	<path fill="#808184" d="M20.277,80.162c-0.633-0.317-4.036-1.367-2.018-2.4c0.559-0.286,1.375-0.246,1.808,0.25
		c0.389,0.447,1.251,0.009,0.611-0.54c-0.918-0.787-2.597-0.799-3.464,0.078c-1.455,1.476,0.723,2.505,1.865,2.918
		c0.595,0.215,1.398,0.543,1.358,1.309c-0.038,0.723-0.792,1.167-1.443,1.208c-0.69,0.044-1.367-0.227-1.642-0.899
		c-0.206-0.515-1.198-0.272-0.736,0.486c0.703,1.158,2.37,1.404,3.529,0.829C21.554,82.7,21.766,80.896,20.277,80.162
		C19.978,80.012,20.855,80.447,20.277,80.162z"/>
	<path fill="#808184" d="M38.712,82.174c-1.215,0.769-2.508,1.114-3.87,0.473c-0.945-0.445-1.657-1.244-1.671-2.329
		c-0.016-1.216,0.85-2.08,1.93-2.492c0.646-0.246,1.347-0.309,2.023-0.156c0.472,0.106,1.204,0.743,1.633,0.705
		c0-1.005-0.415-1.16-1.384-1.374c-0.902-0.198-1.843-0.148-2.703,0.203c-1.445,0.592-2.677,1.95-2.369,3.604
		c0.305,1.638,2.006,2.727,3.577,2.88C36.921,83.789,39.138,83.678,38.712,82.174C38.607,82.24,38.727,82.226,38.712,82.174z"/>
	<path fill="#808184" d="M65.805,73.992c1.044-1.613-0.754-2.513-2.015-2.96c-0.569-0.202-1.646-0.594-1.279-1.411
		c0.27-0.602,1.114-0.767,1.691-0.609c0.481,0.132,1.033,0.984,1.519,0.31c0.297-0.412-1.227-0.966-1.461-1.002
		c-1.259-0.198-3.57,0.763-2.493,2.364c0.686,1.019,3.491,0.985,3.431,2.444c-0.061,1.434-2.527,1.681-3.03,0.429
		c-0.203-0.511-1.187-0.355-0.96,0.063c0.32,0.585,0.659,1.008,1.305,1.252C63.616,75.288,65.13,75.037,65.805,73.992
		C66.338,73.168,64.91,75.377,65.805,73.992z"/>
	<path fill="#808184" d="M53.77,68.664c-1.527-0.593-3.17-0.538-4.544,0.405c-1.234,0.848-1.894,2.338-1.251,3.771
		c0.562,1.253,1.89,1.981,3.205,2.171c1.061,0.152,3.4,0.086,3.007-1.483c-0.999,0.666-2.1,1.032-3.3,0.712
		c-1.126-0.301-2.173-1.213-2.251-2.435c-0.19-2.979,3.754-3.328,5.579-1.985C54.213,69.322,54.329,68.884,53.77,68.664
		C52.05,67.996,54.123,68.803,53.77,68.664z"/>
	<path fill="#808184" d="M18.422,75.048c1.246,0.058,2.947-0.745,2.681-2.265c-0.271-1.547-2.321-1.478-3.337-2.244
		c-1.211-0.914,1.17-2.178,2.171-1.062c0.19,0.218,0.65,0.079,0.806-0.146c0.145-0.21-0.406-0.568-0.526-0.648
		c-0.603-0.398-1.45-0.496-2.148-0.344c-1.469,0.32-2.124,2.06-0.671,2.9c0.821,0.477,4.127,1.251,2.346,2.745
		c-0.409,0.343-0.971,0.46-1.487,0.344c-0.29-0.064-0.564-0.202-0.784-0.403c-0.194-0.178-0.3-0.608-0.505-0.73
		c-0.123-0.073-0.716,0.051-0.774,0.206c-0.089,0.238,0.243,0.637,0.373,0.798C17.021,74.766,17.711,75.015,18.422,75.048
		C19.475,75.097,17.468,75.004,18.422,75.048z"/>
	<path fill="#808184" d="M65.596,80.185c-0.724-0.354-1.602-0.501-2.261-0.969c-0.705-0.492-0.3-1.308,0.387-1.54
		c0.793-0.268,1.16,0.115,1.777,0.479c0.207,0.122,0.623-0.011,0.742-0.216c0.117-0.203-0.371-0.532-0.491-0.613
		c-1.039-0.699-3.028-0.601-3.593,0.69c-0.756,1.727,1.715,2.17,2.749,2.683c1.667,0.828,0.271,2.558-1.174,2.26
		c-0.297-0.061-0.579-0.198-0.798-0.409c-0.159-0.152-0.3-0.662-0.479-0.733c-0.15-0.061-0.634,0.07-0.761,0.178
		c-0.149,0.127,0.189,0.584,0.243,0.665c0.81,1.21,2.67,1.321,3.815,0.541C66.894,82.421,66.863,80.805,65.596,80.185
		C65.231,80.006,67.047,80.895,65.596,80.185z"/>
	<path fill="#808184" d="M28.675,74.528c0.315-0.192,0.19-0.709,0.19-1.028c-0.998,0.721-2.144,1.096-3.357,0.695
		c-1.046-0.346-1.938-1.195-2.03-2.338c-0.235-2.919,3.483-3.413,5.331-2.086c0.692-1.6-2.43-1.605-3.281-1.393
		c-1.417,0.353-2.751,1.463-2.918,2.979C22.269,74.448,26.363,75.896,28.675,74.528C28.779,74.465,26.989,75.525,28.675,74.528z"/>
	<path fill="#808284" d="M53.319,82.881c-0.502,0.018-1.949,0.334-1.94-0.416c0.01-0.999,0.011-1.998,0.01-2.997
		c-0.001-0.588,0.253-1.84-0.05-2.358c-0.092-0.157-0.423-0.109-0.562-0.11c-0.39-0.005-0.289,0.382-0.287,0.661
		c0.007,0.999,0,1.998,0.001,2.998c0.001,0.848-0.205,1.994,0.01,2.811c0.082,0.312,2.124,0.12,2.451,0.124
		c0.36,0.004,0.62,0.078,0.603-0.335C53.544,83.059,53.612,82.87,53.319,82.881C52.811,82.898,53.651,82.868,53.319,82.881z"/>
	<path fill="#808284" d="M31.267,68.371c-0.635-0.022-0.341,3.084-0.34,3.644c0,0.756,0.003,1.513-0.002,2.269
		c-0.004,0.578,0.082,0.796,0.725,0.679c0.443-0.081,0.181-3.296,0.181-3.766c0-0.75,0.001-1.501,0.001-2.252
		C31.832,68.449,31.756,68.387,31.267,68.371C30.993,68.361,31.83,68.389,31.267,68.371z"/>
	<path fill="#808284" d="M40.958,77.57c0-0.491-0.074-0.554-0.56-0.574c-0.553-0.026-0.349,0.782-0.348,1.129
		c0.005,1.637-0.001,3.274,0.003,4.911c0.001,0.217-0.104,0.535,0.193,0.552c0.845,0.048,0.714-0.291,0.709-1.056
		C40.946,80.879,40.958,79.225,40.958,77.57z"/>
	<path fill="#3EBBAB" d="M22.565,19.869c0.261,0.042,1.495-3.02,1.674-3.399c-0.855-0.05-1.682-0.45-1.674,0.604
		C22.571,18.005,22.565,18.937,22.565,19.869C22.586,19.872,22.565,19.604,22.565,19.869z"/>
	<path fill="#808184" d="M42.986,65.557c1.541-0.041,3.248,0.227,4.689-0.446c1.388-0.646,2.19-1.979,2.73-3.357
		c1.136-2.894,0.81-7.116-1.642-9.308c-1.069-0.955-2.387-1.153-3.77-1.134c-0.427,0.006-1.996-0.255-2.283,0.068
		c-0.365,0.409-0.062,2.139-0.062,2.682c0.002,1.982-0.001,3.964,0,5.946c0,1.064,0.001,2.129,0,3.193
		C42.648,63.646,42.34,65.569,42.986,65.557C43.832,65.534,42.696,65.562,42.986,65.557z M45.092,53.729
		c1.613-0.003,2.912,0.837,3.38,2.41c0.56,1.883,0.62,4.869-1.045,6.257c-0.611,0.509-1.405,0.707-2.186,0.734
		c-0.55,0.019-0.461-0.186-0.461-0.677c0-0.639,0-1.276,0-1.915c0-1.235,0-2.472,0.001-3.708
		C44.78,56.326,44.477,53.729,45.092,53.729C46.918,53.726,44.821,53.729,45.092,53.729z"/>
	<path fill="#808184" d="M46.097,34.33c-0.918,4.06-1.856,8.115-2.795,12.169c-0.116,0.502-0.233,1.004-0.35,1.507
		c-0.091,0.395,0.313,0.286,0.577,0.281c0.893-0.016,1.662,0.322,1.891-0.686c0.113-0.497,0.237-0.991,0.345-1.489
		c0.087-0.417,0.444-0.303,0.781-0.301c0.399,0.002,2.271-0.255,2.375,0.229c0.078,0.378,0.235,2.116,0.621,2.235
		c0.252,0.078,2.187,0.118,2.208-0.128c0.068-0.758-0.396-1.823-0.563-2.569c-0.232-1.032-0.465-2.063-0.696-3.095
		c-0.465-2.063-0.928-4.126-1.389-6.19c-0.11-0.494-0.18-2.274-0.854-2.25C47.795,34.057,46.222,33.773,46.097,34.33
		C45.719,35.999,46.143,34.125,46.097,34.33z M46.487,42.799c0.098-0.478,0.608-4.119,0.916-4.148
		c0.223,1.122,0.445,2.244,0.67,3.365c0.127,0.632,0.38,0.95-0.366,0.949C47.522,42.965,46.425,43.108,46.487,42.799
		C46.77,41.418,46.453,42.97,46.487,42.799z"/>
	<path fill="#808184" d="M58.239,30.809c3.79-0.866,6.352-4.655,5.619-8.498c-0.772-4.047-4.83-6.562-8.816-5.885
		c-3.698,0.628-6.615,4.401-6.117,8.182C49.508,29.023,54.018,31.772,58.239,30.809C62.439,29.849,54.709,31.614,58.239,30.809z
		 M56.432,17.776c3.219-0.009,5.932,2.648,5.933,5.878c0.042,3.246-2.747,5.872-5.938,5.884c-3.186,0.014-5.924-2.678-5.923-5.873
		C50.503,20.434,53.218,17.787,56.432,17.776C59.711,17.767,53.148,17.787,56.432,17.776z"/>
	<path fill="#808184" d="M16.844,48.179c3.072-0.021,6.145-0.004,9.217-0.006c0.745,0,1.489-0.002,2.234-0.002
		c0.663,0,1.829,0.236,2.439-0.019c0.284-0.119,0.123-1.422,0.089-1.686c-0.095-0.731-0.528-1.27-1.116-1.685
		c-2.495-1.759-6.215-1.672-9.084-1.174c-1.271,0.221-2.859,0.71-3.671,1.791C16.63,45.827,15.987,48.186,16.844,48.179
		C19.119,48.164,16.545,48.182,16.844,48.179z M19.306,44.953c2.1-1.077,4.926-1.139,7.175-0.558
		c0.888,0.229,2.074,0.596,2.582,1.435c0.217,0.357,0.287,0.778,0.287,1.19c0,0.651-0.528,0.433-1.058,0.434
		c-2.561,0.003-5.122-0.002-7.682-0.001c-0.53,0-2.595,0.363-2.624-0.364C17.944,46.122,18.462,45.385,19.306,44.953
		C20.413,44.385,18.433,45.4,19.306,44.953z"/>
	<path fill="#808184" d="M23.331,78.139c-1.632,1.625-0.957,4.011,0.966,5.031c1.841,0.978,4.588,0.584,5.814-1.203
		c1.139-1.662,0.206-3.764-1.485-4.597C26.946,76.544,24.677,76.796,23.331,78.139C22.005,79.458,25.042,76.432,23.331,78.139z
		 M28.106,82.633c-1.476,0.707-3.481,0.37-4.417-1.049c-1.02-1.545,0.076-3.329,1.69-3.821c1.431-0.437,3.235-0.004,4.021,1.351
		C30.183,80.461,29.422,81.997,28.106,82.633C27.597,82.877,29.965,81.735,28.106,82.633z"/>
	<path fill="#808184" d="M42.17,83.59c1.001,0,1.043-0.126,1.504-1.013c0.141-0.271,0.282-0.854,0.669-0.851
		c0.482,0.005,0.964,0.006,1.445,0.006c0.482-0.001,0.963-0.003,1.445-0.006c0.382-0.004,0.49,0.517,0.625,0.787
		c0.153,0.308,0.292,0.758,0.524,1.013c0.158,0.173,0.811,0.063,1.02,0.063c-1.188-2.307-2.377-4.613-3.567-6.92
		C44.614,78.977,43.393,81.283,42.17,83.59C42.408,83.59,43.405,81.26,42.17,83.59z M44.492,81.012
		c0.439-0.861,0.878-1.722,1.32-2.582c0.431,0.86,0.861,1.722,1.292,2.582C46.233,81.012,45.363,81.012,44.492,81.012
		C44.927,80.159,45.38,81.012,44.492,81.012z"/>
</g>
</svg>
