<?xml version="1.0" encoding="UTF-8" standalone="no"?>
<!-- Generator: Adobe Illustrator 16.0.0, SVG Export Plug-In . SVG Version: 6.00 Build 0)  -->

<svg
   xmlns:dc="http://purl.org/dc/elements/1.1/"
   xmlns:cc="http://creativecommons.org/ns#"
   xmlns:rdf="http://www.w3.org/1999/02/22-rdf-syntax-ns#"
   xmlns:svg="http://www.w3.org/2000/svg"
   xmlns="http://www.w3.org/2000/svg"
   xmlns:sodipodi="http://sodipodi.sourceforge.net/DTD/sodipodi-0.dtd"
   xmlns:inkscape="http://www.inkscape.org/namespaces/inkscape"
   version="1.1"
   id="Calque_1"
   x="0px"
   y="0px"
   width="100"
   height="100"
   viewBox="0 0 99.999995 99.999998"
   enable-background="new 0 0 595.28 841.89"
   xml:space="preserve"
   inkscape:version="0.48.3.1 r9886"
   sodipodi:docname="logoParis5.noir.svg"><metadata
   id="metadata137"><rdf:RDF><cc:Work
       rdf:about=""><dc:format>image/svg+xml</dc:format><dc:type
         rdf:resource="http://purl.org/dc/dcmitype/StillImage" /></cc:Work></rdf:RDF></metadata><defs
   id="defs135">
	

		
		
		
		
		
		
		
		
		
		
		
		
		
		
		
		
		
		
		
		
		
		
		
		
		
		
		
		
		
		
		
		
		
		
		
		
		
		
		
		
		
		
		
		
		
		
		
		
		
		
		
		
		
		
		
		
		
		
		
		
		
		
		
	</defs><sodipodi:namedview
   pagecolor="#ffffff"
   bordercolor="#666666"
   borderopacity="1"
   objecttolerance="10"
   gridtolerance="10"
   guidetolerance="10"
   inkscape:pageopacity="0"
   inkscape:pageshadow="2"
   inkscape:window-width="1289"
   inkscape:window-height="724"
   id="namedview133"
   showgrid="false"
   fit-margin-top="0"
   fit-margin-left="0"
   fit-margin-right="0"
   fit-margin-bottom="0"
   inkscape:zoom="4.4851464"
   inkscape:cx="34.486722"
   inkscape:cy="35.30707"
   inkscape:window-x="49"
   inkscape:window-y="254"
   inkscape:window-maximized="0"
   inkscape:current-layer="Calque_1" />

<g
   id="g4428"
   transform="matrix(1.3477487,0,0,1.3477487,291.09846,-691.39402)"><path
     id="path9"
     transform="translate(-9.4696599e-6,0)"
     d="m -182.03125,525.5 c -0.45123,0.11644 -0.49,0.18411 -0.5,0.65625 -7.4e-4,0.0393 0,0.0544 0,0.0937 -0.001,2.35822 0.0103,4.73553 0,7.09375 -0.003,0.60184 0.21296,1.07708 0.71875,1.40625 0.19875,0.12921 0.28026,0.29789 0.28125,0.53125 0.006,1.39529 0.0128,2.79222 0,4.1875 -0.003,0.36061 -0.13939,0.4894 -0.5,0.5 -0.53035,0.016 -1.06364,0.0179 -1.59375,0 -0.37756,-0.0128 -0.5585,-0.14902 -0.5625,-0.53125 -0.014,-1.37538 -0.009,-2.74937 0,-4.125 0.001,-0.22133 0.0867,-0.41457 0.28125,-0.53125 0.56032,-0.33605 0.78525,-0.81925 0.78125,-1.46875 -0.014,-2.29902 0.001,-4.60698 0,-6.90625 0,-0.13731 -0.008,-0.26992 -0.0312,-0.40625 -0.0319,-0.18498 -0.10021,-0.34535 -0.28125,-0.40625 -0.63255,-0.21249 -1.02625,0.0604 -1.03125,0.71875 -10e-4,0.17686 0,0.35438 0,0.53125 0,2.07302 7.4e-4,4.14548 0,6.21875 0,0.13731 0.001,0.27114 -0.0312,0.40625 -0.0349,0.14468 -0.1142,0.28425 -0.28125,0.28125 -0.16581,-0.003 -0.2158,-0.1373 -0.25,-0.28125 -0.0323,-0.13511 -0.0312,-0.26893 -0.0312,-0.40625 -7.4e-4,-2.1224 4.9e-4,-4.2526 0,-6.375 0,-0.15697 0.003,-0.31153 0,-0.46875 -0.004,-0.19651 -0.11716,-0.3388 -0.28125,-0.4375 -0.25818,-0.15523 -0.51054,-0.13658 -0.78125,0 -0.25769,0.13019 -0.2185,0.33822 -0.21875,0.5625 -0.004,2.4071 -0.0273,4.8429 -0.0312,7.25 -7.3e-4,0.4375 0.14799,0.78659 0.5,1.03125 0.31617,0.21937 0.40825,0.5166 0.40625,0.875 -0.009,1.44441 -0.01,2.86808 0,4.3125 0.004,0.65072 0.40632,1.20958 1.03125,1.3125 0.78115,0.12897 0.71675,0.306 0.71875,0.96875 0,0.0197 2.5e-4,0.0116 0,0.0312 -0.0118,0.49179 -0.16815,0.6845 -0.65625,0.6875 -1.5918,0.011 -3.15845,0.004 -4.75,0 -0.0494,-10e-5 -0.10735,0.006 -0.15625,0 -0.36405,-0.0464 -0.5357,-0.23142 -0.5625,-0.59375 -0.012,-0.16655 -0.005,-0.3332 0,-0.5 0.0111,-0.36208 0.0884,-0.429 0.4375,-0.5 0.29306,-0.0594 0.57717,-0.15263 0.8125,-0.34375 0.37904,-0.30755 0.53198,-0.73704 0.53125,-1.21875 -0.001,-1.25747 -7.4e-4,-2.49228 0,-3.75 2.4e-4,-0.24467 0.0218,-0.48326 0.25,-0.625 0.59717,-0.37019 0.753,-0.93247 0.75,-1.59375 -0.01,-2.13223 0,-4.27402 0,-6.40625 0,-0.20634 0.003,-0.41865 0,-0.625 -0.001,-0.0884 -0.0143,-0.163 -0.0312,-0.25 -0.0702,-0.35889 -0.3435,-0.5319 -0.78125,-0.5 -0.37191,0.027 -0.51575,0.21103 -0.53125,0.59375 -0.007,0.16704 -0.0312,0.33296 -0.0312,0.5 -2.4e-4,2.19094 7.4e-4,4.37132 0,6.5625 -2e-4,0.14714 0.009,0.29355 -0.0312,0.4375 -0.0368,0.13314 -0.0999,0.247 -0.25,0.25 -0.15083,0.003 -0.2105,-0.11735 -0.25,-0.25 -0.0428,-0.1437 -0.0625,-0.29036 -0.0625,-0.4375 -7.4e-4,-2.14205 7.4e-4,-4.2642 0,-6.40625 0,-0.15722 0.0182,-0.31203 0,-0.46875 -0.0248,-0.21446 -0.14576,-0.38275 -0.34375,-0.46875 -0.52618,-0.22894 -0.997,0.11525 -1,0.75 -0.01,2.28944 -0.005,4.5858 0,6.875 9.8e-4,0.56106 0.1733,1.04289 0.65625,1.375 0.18297,0.12577 0.28025,0.30992 0.28125,0.53125 0.009,1.24765 0.0145,2.47086 0,3.71875 -0.004,0.34416 -0.15757,0.4885 -0.5,0.5 -0.54018,0.0184 -1.05381,0.0192 -1.59375,0 -0.36675,-0.013 -0.52625,-0.16671 -0.53125,-0.53125 -0.016,-1.21817 -0.0362,-2.43783 -0.0312,-3.65625 9.8e-4,-0.23238 0.11181,-0.40695 0.3125,-0.53125 0.53256,-0.32941 0.72075,-0.8337 0.71875,-1.4375 -0.007,-2.1224 -0.0305,-4.2526 -0.0312,-6.375 0,-0.12774 0.006,-0.24727 0,-0.375 -0.009,-0.18719 -0.0992,-0.32665 -0.25,-0.40625 -0.46231,-0.24467 -1.15095,-0.0597 -1.09375,0.59375 0.0136,0.15574 0,0.31153 0,0.46875 -2.5e-4,1.94578 7.4e-4,3.89822 0,5.84375 0,0.14715 0.009,0.29355 -0.0312,0.4375 -0.0373,0.13315 -0.0982,0.21974 -0.25,0.21875 -0.15033,-9.8e-4 -0.24215,-0.0866 -0.28125,-0.21875 -0.0422,-0.14345 -0.0312,-0.29036 -0.0312,-0.4375 -7.4e-4,-1.8178 7.4e-4,-3.65095 0,-5.46875 -2e-4,-0.15722 0.0133,-0.31178 0,-0.46875 -0.0162,-0.19332 -0.10659,-0.31885 -0.28125,-0.40625 -0.48687,-0.24344 -0.997,0.0538 -1,0.59375 -0.011,2.07302 0.0118,4.14573 0,6.21875 -0.003,0.47631 0.14853,0.83681 0.53125,1.09375 0.32994,0.22133 0.40925,0.50383 0.40625,0.875 -0.011,1.2673 -0.009,2.54496 0,3.8125 0.004,0.63426 0.31916,1.05084 0.90625,1.28125 0.15673,0.0615 0.30441,0.0973 0.46875,0.125 0.34928,0.0592 0.4272,0.14234 0.4375,0.5 0.01,0.33408 -2.4e-4,0.66592 0,1 0,0.21077 0.0607,0.40705 0.15625,0.59375 0.36036,0.70476 0.92138,1.11965 1.71875,1.15625 0.46108,0.0213 0.91343,-0.0145 1.375,0 0.33138,0.0106 0.45495,0.11472 0.46875,0.4375 0.0142,0.33384 0.0194,0.66666 0,1 -0.0243,0.41957 -0.23865,0.61305 -0.65625,0.65625 -0.10784,0.012 -0.20442,0.0312 -0.3125,0.0312 -3.82204,4.9e-4 -7.64647,4.9e-4 -11.46875,0 -0.14739,0 -0.29134,-0.006 -0.4375,-0.0312 -0.45789,-0.0781 -0.6637,-0.28842 -0.6875,-0.75 -0.0138,-0.27463 -0.006,-0.53762 0,-0.8125 0.009,-0.41023 0.14367,-0.52425 0.5625,-0.53125 0.40262,-0.007 0.78488,0.015 1.1875,0 0.98259,-0.0359 1.7114,-0.69159 1.875,-1.65625 0.0614,-0.36209 0.0172,-0.73117 0.0312,-1.09375 0.014,-0.35938 0.0894,-0.4302 0.4375,-0.5 0.29355,-0.0587 0.57275,-0.15853 0.8125,-0.34375 0.40409,-0.31222 0.52425,-0.7705 0.53125,-1.25 0.01,-0.68781 -0.002,-1.37469 0,-2.0625 4.9e-4,-0.23583 0.0429,-0.45103 0.25,-0.59375 0.49621,-0.34194 0.628,-0.82603 0.625,-1.40625 -0.011,-2.32874 9.8e-4,-4.64025 0,-6.96875 0,-0.13756 0.01,-0.29994 0,-0.4375 -0.0108,-0.15108 -0.0905,-0.2472 -0.21875,-0.3125 -0.25671,-0.1309 -0.51201,-0.15408 -0.78125,-0.0312 -0.26235,0.11963 -0.28325,0.35056 -0.28125,0.59375 0.001,0.16704 0,0.33296 0,0.5 0,2.11233 5e-4,4.23117 0,6.34375 0,0.13731 -0.007,0.27016 -0.0312,0.40625 -0.0314,0.17613 -0.10615,0.34075 -0.3125,0.34375 -0.20806,0.003 -0.2818,-0.16664 -0.3125,-0.34375 -0.0237,-0.13609 0,-0.26869 0,-0.40625 -4.9e-4,-1.99442 7.4e-4,-4.00534 0,-6 0,-0.15721 0.008,-0.31153 0,-0.46875 -0.008,-0.14837 -0.0942,-0.25855 -0.21875,-0.34375 -0.26456,-0.18105 -0.50219,-0.14769 -0.78125,-0.0312 -0.26036,0.10857 -0.281,0.32766 -0.28125,0.5625 -0.003,2.27961 -0.001,4.56414 0,6.84375 2.5e-4,0.51832 0.22907,0.88629 0.65625,1.15625 0.22059,0.13953 0.34326,0.33385 0.34375,0.59375 0.002,0.61903 -0.0185,1.22472 -0.0312,1.84375 -0.008,0.39991 -0.15816,0.5514 -0.5625,0.5625 -0.5107,0.014 -1.02054,0.0155 -1.53125,0 -0.39893,-0.012 -0.52325,-0.1562 -0.53125,-0.5625 -0.012,-0.60896 -0.001,-1.2033 0,-1.8125 4.9e-4,-0.2572 0.0902,-0.45496 0.3125,-0.59375 0.47017,-0.2938 0.6925,-0.7079 0.6875,-1.28125 -0.0178,-1.91581 7.4e-4,-3.83394 0,-5.75 -0.001,-0.11791 -0.0263,-0.22609 -0.0312,-0.34375 -0.008,-0.21151 -0.1066,-0.3513 -0.28125,-0.4375 -0.49351,-0.24393 -0.9848,0.0474 -1,0.59375 -0.003,0.14739 0,0.29011 0,0.4375 -2.4e-4,1.69006 4.9e-4,3.37245 0,5.0625 0,0.1275 0.0201,0.24849 0,0.375 -0.026,0.16409 -0.086,0.33775 -0.28125,0.34375 -0.21692,0.006 -0.25645,-0.16885 -0.28125,-0.34375 -0.0151,-0.1071 -0.0312,-0.23567 -0.0312,-0.34375 -5e-4,-1.01207 7.4e-4,-2.01918 0,-3.03125 -0.001,-0.55025 0.009,-1.07475 0,-1.625 -0.002,-0.14591 0.0158,-0.31443 -0.0937,-0.4375 -0.19529,-0.21964 -0.50887,-0.2924 -0.8125,-0.1875 -0.29944,0.10341 -0.4345,0.2496 -0.4375,0.59375 -0.0133,1.73894 -0.0157,3.47981 0,5.21875 0.004,0.42227 0.17261,0.79346 0.53125,1.03125 0.31939,0.2115 0.41325,0.48019 0.40625,0.84375 -0.0138,0.72662 -0.003,1.46039 0,2.1875 10e-4,0.33237 0.13918,0.60596 0.375,0.84375 0.27021,0.27242 0.59881,0.41275 0.96875,0.46875 0.35201,0.0533 0.4245,0.14356 0.4375,0.5 0.007,0.16704 0.009,0.33321 0,0.5 -0.0204,0.37265 -0.16597,0.54465 -0.53125,0.59375 -0.11742,0.0158 -0.25709,0 -0.375,0 -1.46406,7.4e-4 -2.91094,7.4e-4 -4.375,0 -0.14739,0 -0.29257,0.004 -0.4375,-0.0312 -0.22477,-0.054 -0.36965,-0.17682 -0.40625,-0.40625 -0.017,-0.10735 -0.001,-0.23591 0,-0.34375 0.006,-0.53649 -0.10678,-0.74432 0.625,-0.875 0.56819,-0.10145 1.1109,-0.62578 1.0625,-1.375 -0.0232,-0.36184 0.0169,-0.73093 0,-1.09375 -0.017,-0.36061 0.12062,-0.58965 0.4375,-0.78125 0.35497,-0.2147 0.5595,-0.57675 0.5625,-1 0.0153,-1.83744 0.005,-3.6628 0,-5.5 -9.8e-4,-0.26899 -0.13205,-0.4187 -0.375,-0.5 -0.5134,-0.17171 -0.90325,0.0922 -0.90625,0.625 -0.008,1.55225 10e-4,3.10375 0,4.65625 0,0.12774 0.0145,0.248 0,0.375 -0.0209,0.18349 -0.0872,0.40125 -0.3125,0.40625 -0.23314,0.006 -0.26205,-0.19125 -0.28125,-0.375 -0.011,-0.10759 0,-0.23591 0,-0.34375 -4.9e-4,-1.12015 7.4e-4,-2.2236 0,-3.34375 0,-0.13757 0.0108,-0.26893 0,-0.40625 -0.0209,-0.26677 -0.18104,-0.45485 -0.4375,-0.53125 -0.5387,-0.16017 -0.90225,0.11784 -0.90625,0.6875 -0.01,1.29677 0.0177,2.60947 0,3.90625 -0.008,0.59938 0.16397,1.06112 0.65625,1.40625 0.16412,0.11521 0.27425,0.26928 0.28125,0.46875 0.0122,0.35348 0.0233,0.70975 0,1.0625 -0.0202,0.30534 -0.16316,0.45305 -0.46875,0.46875 -0.56916,0.0293 -1.14958,0.0233 -1.71875,0 -0.30903,-0.0125 -0.44395,-0.16047 -0.46875,-0.46875 -0.0211,-0.26457 0.0155,-0.51669 0,-0.78125 -0.0226,-0.37732 0.0939,-0.63534 0.46875,-0.78125 0.31688,-0.12332 0.47175,-0.38373 0.46875,-0.75 -0.01,-1.13956 0.003,-2.26644 0,-3.40625 -2e-4,-0.0983 -0.0174,-0.2147 -0.0312,-0.3125 -0.015,-0.10562 -0.067,-0.16915 -0.15625,-0.21875 -0.26407,-0.14712 -0.52952,-0.172 -0.8125,-0.0312 -0.25228,0.12528 -0.28101,0.34295 -0.28125,0.59375 -9.8e-4,0.83521 0.002,1.6648 0,2.5 -2e-4,0.11791 -0.01,0.22731 -0.0312,0.34375 -0.0312,0.16606 -0.0845,0.3175 -0.28125,0.3125 -0.18253,-0.005 -0.25445,-0.15775 -0.28125,-0.3125 -0.017,-0.0973 4.9e-4,-0.18295 0,-0.28125 -0.002,-0.35373 0.012,-0.70902 0,-1.0625 -0.0123,-0.36479 -0.14966,-0.51535 -0.46875,-0.59375 -0.31591,-0.0776 -0.50375,-0.008 -0.6875,0.28125 l 0,2.53125 c 0.16017,0.20413 0.38328,0.3175 0.625,0.375 0.19677,0.0472 0.28525,0.14404 0.28125,0.34375 -0.008,0.46182 -0.0103,0.94467 0,1.40625 0.009,0.39967 0.0576,0.76207 0.375,1.0625 0.31591,0.29898 0.69899,0.34302 1.09375,0.34375 0.26164,7.4e-4 0.35385,0.0939 0.34375,0.34375 -0.014,0.34317 -0.007,0.68759 0,1.03125 0.0238,1.15848 0.74433,1.868 1.90625,1.875 0.45199,0.003 0.89225,0.0147 1.34375,0 0.26167,-0.009 0.35075,0.0927 0.34375,0.34375 -0.0133,0.48122 -0.007,0.95628 0,1.4375 0.005,0.36602 0.0497,0.73161 0.21875,1.0625 0.51733,1.01182 1.39925,1.4747 2.5,1.5 1.29628,0.0299 2.57798,0.0303 3.875,0.0312 0.40892,4.9e-4 0.40625,0.002 0.40625,0.40625 7.3e-4,1.77874 -2.4e-4,3.56525 0,5.34375 0,0.49889 0.0196,0.49975 0.53125,0.5 3.50761,2.5e-4 7.02339,-2.4e-4 10.53125,0 0.15721,0 0.31251,-0.0128 0.46875,0 0.66963,0.0553 1.35275,0.42955 1.34375,1.40625 -0.0307,3.48795 -2.5e-4,6.98079 0,10.46875 0,0.48761 -0.0243,0.49926 0.46875,0.5 3.00673,0.003 6.02451,-9.8e-4 9.03125,0 8.69594,0.003 17.39806,-0.008 26.09375,0 0.2894,0 0.375,-0.10061 0.375,-0.375 -0.005,-10.12094 -0.0302,-20.22305 -0.0312,-30.34375 0,-0.11471 0.0316,-0.24625 -0.0625,-0.34375 -0.0176,0.0168 -0.0206,0.0435 -0.0312,0.0625 -1.1e-4,-0.0212 8e-5,-0.0413 0,-0.0625 l 0,-0.0312 c -0.006,-0.32229 -0.0119,-0.64744 -0.0312,-0.96875 -0.0172,-0.28225 -0.25151,-0.42125 -0.5625,-0.40625 -0.32327,0.0155 -0.45865,0.13633 -0.46875,0.4375 -0.0108,0.31246 -0.0273,0.62479 -0.0312,0.9375 L -149,536.25 c -0.14263,0.096 -0.14925,0.22761 -0.15625,0.375 -0.009,0.19087 -0.0521,0.37549 -0.28125,0.375 -0.22603,-7.3e-4 -0.3,-0.18462 -0.3125,-0.375 -0.01,-0.1469 -0.0133,-0.2794 -0.15625,-0.375 l 0.0312,-0.0312 c -0.003,-0.81211 -0.0263,-1.62515 -0.0312,-2.4375 -0.002,-0.37388 -0.1731,-0.53925 -0.53125,-0.53125 -0.31222,0.007 -0.46675,0.17629 -0.46875,0.53125 -0.004,0.81236 0.002,1.62514 0,2.4375 -0.0179,0.004 -0.0463,0.0222 -0.0625,0.0312 -0.22454,0.2061 -0.1085,0.47359 -0.125,0.71875 -0.0349,0.51561 0.13424,0.8903 0.65625,1.0625 0.22255,0.0734 0.34277,0.23588 0.34375,0.46875 0.001,0.32377 0.0155,0.64548 0,0.96875 -0.016,0.33556 -0.15879,0.4872 -0.5,0.5 -0.54853,0.0204 -1.10772,0.0204 -1.65625,0 -0.33162,-0.0123 -0.4769,-0.16739 -0.5,-0.5 -0.0206,-0.29355 0.013,-0.58145 0,-0.875 -0.0133,-0.2933 0.0902,-0.50051 0.34375,-0.65625 0.28741,-0.17637 0.47035,-0.45233 0.53125,-0.78125 0.057,-0.30755 0.15878,-0.624 -0.0937,-0.90625 l 0.0312,-0.0312 c -0.004,-1.19655 -0.0252,-2.39695 -0.0312,-3.59375 -0.002,-0.42718 -0.23496,-0.61255 -0.65625,-0.53125 -0.3036,0.0585 -0.40625,0.25195 -0.40625,0.53125 2e-4,1.19656 0.005,2.3972 0,3.59375 l 0,0.0312 c -0.15335,0.10268 -0.1132,0.25248 -0.125,0.40625 -0.0135,0.17785 -0.0661,0.34975 -0.28125,0.34375 -0.20221,-0.006 -0.241,-0.17916 -0.25,-0.34375 -0.009,-0.15451 -0.008,-0.30013 -0.15625,-0.40625 -0.0158,-0.009 -0.0448,-0.0272 -0.0625,-0.0312 -0.002,-0.13707 0,-0.26918 0,-0.40625 0,-1.43164 -0.007,-2.84961 0,-4.28125 0.001,-0.24417 -0.0516,-0.4278 -0.3125,-0.5 -0.10293,-0.0286 -0.19669,-0.0408 -0.28125,-0.0312 -0.25367,0.0285 -0.40551,0.24137 -0.40625,0.5625 -0.004,1.55912 0.003,3.09737 0,4.65625 -0.0175,0.003 -0.047,0.0232 -0.0625,0.0312 -0.11426,0.086 -0.12475,0.21183 -0.125,0.34375 -9.8e-4,0.57383 0.148,1.05664 0.65625,1.375 0.22478,0.14075 0.3145,0.33631 0.3125,0.59375 -0.003,0.39255 0.0172,0.76371 0.0312,1.15625 0.026,0.7367 0.42686,1.2454 1.125,1.4375 0.64221,0.17662 0.63,0.19186 0.625,0.875 -2.5e-4,0.0294 4.9e-4,0.0643 0,0.0937 -0.0111,0.48613 -0.17723,0.6519 -0.65625,0.6875 -0.0781,0.005 -0.14035,0 -0.21875,0 -1.45301,4.9e-4 -2.92199,4.9e-4 -4.375,0 -0.14738,0 -0.29281,0.003 -0.4375,-0.0312 -0.2906,-0.0693 -0.4097,-0.20031 -0.4375,-0.5 -0.0193,-0.20536 -0.008,-0.41914 0,-0.625 0.0123,-0.31959 0.10784,-0.407 0.4375,-0.4375 0.85854,-0.0791 1.3603,-0.63827 1.375,-1.5 0.0105,-0.6183 0.0229,-1.22619 0,-1.84375 -0.0162,-0.43774 0.0467,-0.81931 0.46875,-1.0625 0.0901,-0.0521 0.1312,-0.1567 0.1875,-0.25 0.0633,-0.10514 0.11965,-0.19926 0.0312,-0.3125 l 0,-0.0312 c 0.0158,-0.13609 0.062,-0.27016 0.0625,-0.40625 0.003,-1.72641 0.005,-3.43008 0,-5.15625 -9.2e-4,-0.28391 -0.17043,-0.49202 -0.40625,-0.53125 -0.0786,-0.0131 -0.15757,0.01 -0.25,0.0312 -0.31147,0.0725 -0.40601,0.16947 -0.40625,0.5625 -0.002,1.66746 -0.007,3.33279 0,5 9.8e-4,0.24467 -0.0681,0.4184 -0.3125,0.5 -0.0953,-10e-4 -0.18595,4.9e-4 -0.28125,0 -0.22574,-0.0852 -0.28525,-0.2371 -0.28125,-0.46875 0.007,-0.40262 0,-0.81589 0,-1.21875 0,-1.58173 -0.003,-3.16827 0,-4.75 5e-4,-0.24319 -0.0219,-0.43 -0.3125,-0.5 -0.10821,-0.026 -0.22745,-0.041 -0.3125,-0.0312 -0.25515,0.0291 -0.40607,0.22792 -0.40625,0.5625 -0.001,1.98459 0.0283,3.95291 0.0312,5.9375 2e-4,0.15574 0.0146,0.31301 0.0312,0.46875 l 0,0.0312 c -0.12574,0.13241 -0.0676,0.23321 0.0312,0.34375 0.15058,0.16802 0.30053,0.35428 0.5,0.46875 0.17808,0.10244 0.27925,0.26609 0.28125,0.46875 0.005,0.64802 0.0187,1.28972 0,1.9375 -0.0103,0.35078 -0.18194,0.4885 -0.53125,0.5 -0.53969,0.0177 -1.08531,0.0174 -1.625,0 -0.35766,-0.0116 -0.492,-0.147 -0.5,-0.5 -0.014,-0.64802 -2.5e-4,-1.28948 0,-1.9375 0,-0.23975 0.0993,-0.42071 0.3125,-0.53125 0.18743,-0.097 0.34715,-0.23823 0.46875,-0.40625 0.0747,-0.10342 0.11791,-0.21921 0,-0.34375 l 0.0312,-0.0312 c 0.0162,-0.13634 0.0312,-0.27041 0.0312,-0.40625 0.003,-2.27839 0.002,-4.56537 0,-6.84375 -5e-4,-0.36332 -0.1443,-0.498 -0.5,-0.5 -0.34587,-0.002 -0.495,0.1335 -0.5,0.5 -10e-4,0.11767 0,0.22584 0,0.34375 l 0,6.25 c 0,0.28471 -0.009,0.54816 -0.34375,0.65625 l -0.28125,0 c -0.27195,-0.1383 -0.31299,-0.35626 -0.3125,-0.625 0.004,-2.39335 0.001,-4.7939 0,-7.1875 -2.4e-4,-0.40335 -0.14828,-0.56635 -0.53125,-0.53125 -0.31688,0.029 -0.4685,0.19477 -0.46875,0.5625 -0.002,2.33464 0.002,4.66536 0,7 0,0.26506 0.0139,0.51988 0.0625,0.78125 l 0,0.0312 c -0.0931,0.12774 -0.0439,0.23444 0.0312,0.34375 0.0784,0.11423 0.16506,0.241 0.28125,0.3125 0.28644,0.17638 0.38,0.4309 0.375,0.75 -0.01,0.69764 -9.8e-4,1.39636 0,2.09375 3e-4,0.1889 0.0269,0.3534 0.0937,0.53125 0.21371,0.5672 0.64074,0.851 1.21875,0.9375 0.37653,0.0562 0.4305,0.11507 0.4375,0.5 0.006,0.30435 -0.003,0.6329 0,0.9375 0.001,0.13781 0.0247,0.27212 0.0625,0.40625 0.22403,0.79123 0.97926,1.37975 1.8125,1.40625 0.45174,0.014 0.89225,-0.016 1.34375,0 0.31369,0.011 0.4186,0.12381 0.4375,0.4375 0.011,0.17662 7.3e-4,0.35438 0,0.53125 -0.004,0.92413 -0.23408,1.15576 -1.15625,1.15625 -3.79206,10e-4 -7.58268,4.9e-4 -11.375,0 -0.15721,0 -0.31399,0.004 -0.46875,-0.0312 -0.3697,-0.0833 -0.5426,-0.27795 -0.5625,-0.65625 -0.016,-0.30411 -0.005,-0.60164 0,-0.90625 0.007,-0.41588 0.10776,-0.52525 0.53125,-0.53125 0.47165,-0.006 0.9661,0.0128 1.4375,0 0.85878,-0.0233 1.59942,-0.72116 1.75,-1.5625 0.0752,-0.42055 0.0421,-0.82896 0.0625,-1.25 0.0147,-0.30535 0.10754,-0.4024 0.40625,-0.4375 0.90006,-0.10563 1.37975,-0.58864 1.40625,-1.5 0.0296,-1.03098 0.007,-2.06227 0,-3.09375 -7.4e-4,-0.13903 0.002,-0.2814 -0.125,-0.375 -0.016,-0.008 -0.0446,-0.0282 -0.0625,-0.0312 -0.003,-0.21617 0.0108,-0.40981 0,-0.625 -0.0103,-0.2115 0.0801,-0.3407 0.28125,-0.4375 0.44143,-0.21224 0.65825,-0.58305 0.65625,-1.09375 -0.006,-1.47316 0,-2.93286 0,-4.40625 0,-0.62837 -0.006,-1.27763 0,-1.90625 0.002,-0.2739 -0.11756,-0.41935 -0.375,-0.46875 -0.38173,-0.0732 -0.62475,0.13354 -0.625,0.53125 -0.002,2.0035 2.5e-4,4.02775 0,6.03125 0,0.0983 0.01,0.18395 0,0.28125 -0.0275,0.28055 -0.23391,0.34175 -0.46875,0.34375 -0.23754,0.002 -0.39595,-0.0839 -0.40625,-0.34375 -0.009,-0.21593 0,-0.44008 0,-0.65625 -10e-4,-2.08211 0.003,-4.16789 0,-6.25 -4.9e-4,-0.34833 -0.18759,-0.53425 -0.53125,-0.53125 -0.32426,0.003 -0.531,0.16562 -0.53125,0.46875 -0.003,2.28821 -0.0108,4.58679 0,6.875 0.002,0.41834 0.15693,0.82707 0.5625,1 0.42864,0.18277 0.4837,0.48638 0.4375,0.875 -0.013,0.10686 0.002,0.20466 0,0.3125 -0.009,0.005 -0.0227,-0.005 -0.0312,0 -0.0177,0.003 -0.0153,0.0232 -0.0312,0.0312 -0.16432,0.12823 -0.15525,0.29557 -0.15625,0.46875 -0.007,0.89195 0.0101,1.79555 0,2.6875 -0.005,0.42521 -0.13753,0.5514 -0.5625,0.5625 -0.43111,0.012 -0.85013,0.003 -1.28125,0 -0.6011,-0.004 -0.748,-0.12379 -0.75,-0.71875 -0.004,-0.85289 0.007,-1.70985 0,-2.5625 -10e-4,-0.16409 0.003,-0.32082 -0.15625,-0.4375 l 0.0312,-0.0312 c -0.004,-0.22575 -0.0163,-0.43074 -0.0312,-0.65625 -0.0135,-0.20511 0.0977,-0.3476 0.28125,-0.4375 0.39033,-0.19136 0.5845,-0.5 0.625,-0.9375 0.0135,-0.1464 0.0312,-0.29085 0.0312,-0.4375 0.002,-2.25971 2.5e-4,-4.52178 0,-6.78125 0,-0.0784 0.008,-0.1721 0,-0.25 -0.0273,-0.25473 -0.15495,-0.3539 -0.40625,-0.375 -0.44757,-0.0378 -0.62476,0.11297 -0.625,0.5625 -0.002,1.89591 0,3.79134 0,5.6875 0,0.48147 0.005,0.95628 0,1.4375 -0.004,0.31812 -0.18607,0.4584 -0.5,0.4375 -0.28766,-0.0192 -0.406,-0.15364 -0.40625,-0.5 -9.8e-4,-2.29877 0,-4.60747 0,-6.90625 0,-0.19627 0.008,-0.39747 0,-0.59375 -0.0128,-0.31295 -0.12553,-0.4203 -0.4375,-0.4375 -0.10379,-0.006 -0.20612,-0.0203 -0.28125,0 -0.22539,0.061 -0.31213,0.25291 -0.3125,0.59375 -0.002,1.92564 0,3.85586 0,5.78125 0,0.4913 -0.0123,0.97795 0,1.46875 0.0113,0.45421 0.0832,0.94033 0.53125,1.15625 0.41001,0.19751 0.53165,0.46256 0.46875,0.875 -0.0165,0.10612 -0.0273,0.20466 -0.0312,0.3125 l 0.0312,0.0312 c -0.17075,0.12528 -0.15551,0.29582 -0.15625,0.46875 -0.005,1.02165 -0.007,2.07234 0,3.09375 0.005,0.71459 0.47807,1.23964 1.1875,1.375 0.56729,0.10857 0.56299,0.13534 0.5625,0.71875 0,0.0592 0.002,0.1285 0,0.1875 -0.0145,0.52298 -0.16648,0.71375 -0.6875,0.71875 -1.57141,0.0153 -3.14734,0.0162 -4.71875,0 -0.53674,-0.006 -0.71175,-0.18987 -0.71875,-0.71875 -9.8e-4,-0.0884 -7.4e-4,-0.19285 0,-0.28125 0.004,-0.49449 0.0463,-0.53745 0.53125,-0.59375 0.64556,-0.0749 1.2394,-0.63981 1.25,-1.25 0.0192,-1.11966 0.007,-2.22408 0,-3.34375 -9.8e-4,-0.13903 -0.0258,-0.2844 -0.15625,-0.375 l 0,-0.0312 c -0.003,-0.39279 0.01,-0.76346 0,-1.15625 -0.005,-0.18669 0.0744,-0.31535 0.25,-0.40625 0.44757,-0.23164 0.66125,-0.60448 0.65625,-1.125 -0.012,-1.36507 0,-2.72844 0,-4.09375 0,-1.05089 -0.01,-2.10536 0,-3.15625 0.003,-0.28618 -0.15593,-0.42205 -0.40625,-0.46875 -0.37953,-0.0707 -0.62476,0.13526 -0.625,0.53125 -0.002,2.36731 0.001,4.75794 0,7.125 -2.5e-4,0.36381 -0.14493,0.506 -0.4375,0.5 -0.32868,-0.007 -0.43726,-0.11998 -0.4375,-0.5 -0.001,-1.39479 0,-2.79271 0,-4.1875 -2.5e-4,-1.05089 0.002,-2.10536 0,-3.15625 -7.4e-4,-0.32376 -0.10336,-0.4565 -0.40625,-0.5 -0.0942,-0.0136 -0.1739,-0.0173 -0.25,0 -0.2283,0.052 -0.39552,0.26845 -0.40625,0.5625 -0.011,0.30411 0,0.60164 0,0.90625 -0.001,2.08235 0.007,4.16764 0,6.25 -0.002,0.65367 0.23386,1.13279 0.875,1.375 0.1597,0.0604 0.1895,0.19439 0.1875,0.34375 -0.005,0.39279 0.001,0.76346 0,1.15625 -0.0177,0.003 -0.046,0.0232 -0.0625,0.0312 -0.16431,0.12847 -0.124,0.29557 -0.125,0.46875 -0.007,0.8922 -0.0213,1.79531 -0.0312,2.6875 -0.004,0.38567 -0.10857,0.5453 -0.4375,0.5625 -0.55811,0.0294 -1.12963,0.029 -1.6875,0 -0.29134,-0.015 -0.4024,-0.15083 -0.4375,-0.4375 -0.015,-0.11693 -0.031,-0.22608 -0.0312,-0.34375 -0.001,-0.82341 0.007,-1.67634 0,-2.5 -0.001,-0.1636 0.0361,-0.32155 -0.125,-0.4375 l 0,-0.0312 c -0.004,-0.38222 -0.0172,-0.74302 -0.0312,-1.125 -0.007,-0.20241 0.0923,-0.3505 0.28125,-0.4375 0.5161,-0.23852 0.75049,-0.65204 0.75,-1.21875 -0.002,-2.44198 -0.006,-4.87051 0,-7.3125 7.4e-4,-0.28618 -0.10037,-0.51175 -0.375,-0.625 l -0.40625,0 c -0.43246,0.15575 -0.4305,0.17749 -0.4375,0.65625 -0.001,0.11767 0,0.22608 0,0.34375 -2.5e-4,2.1897 7.3e-4,4.3728 0,6.5625 -2e-4,0.14715 0.0105,0.2938 -0.0312,0.4375 -0.0351,0.12062 -0.11269,0.20975 -0.25,0.21875 -0.15132,0.009 -0.2041,-0.0575 -0.25,-0.1875 -0.0533,-0.15132 -0.0625,-0.31202 -0.0625,-0.46875 -0.001,-2.30737 0.004,-4.62988 0,-6.9375 -9.8e-4,-0.48049 -0.004,-0.48891 -0.4375,-0.625 l -0.40625,0 c -0.2439,0.1329 -0.31348,0.35183 -0.3125,0.625 0.009,2.45205 0.007,4.89193 0,7.34375 -0.001,0.5333 0.20505,0.95119 0.6875,1.1875 0.16871,0.0825 0.22275,0.19911 0.21875,0.375 -0.0103,0.40188 -0.0283,0.78537 -0.0312,1.1875 l 0.0312,0.0312 c -0.1685,0.12627 -0.15527,0.29557 -0.15625,0.46875 -0.006,0.98234 -0.003,1.9864 0,2.96875 0.003,0.88507 0.47071,1.40327 1.34375,1.53125 0.33093,0.0486 0.4257,0.12926 0.4375,0.46875 0.01,0.2847 0.0182,0.59152 0,0.875 -0.0712,1.11377 1.02511,1.93865 1.90625,1.90625 0.34317,-0.0127 0.68784,-0.0113 1.03125,0 0.3584,0.0115 0.45765,0.1074 0.46875,0.46875 0.012,0.3729 -0.0118,0.75186 0,1.125 0.0118,0.37461 0.0515,0.7518 0.21875,1.09375 0.54411,1.11204 1.48432,1.63025 2.6875,1.65625 1.32552,0.0289 2.64274,-0.005 3.96875,0 0.43578,0.002 0.5575,0.12967 0.5625,0.5625 0.006,0.4714 2.5e-4,0.93485 0,1.40625 -4.9e-4,0.71288 -0.0482,0.75 -0.75,0.75 -4.106,4.9e-4 -8.20649,-2.5e-4 -12.3125,0 -0.16704,0 -0.33296,-0.008 -0.5,0 -0.0606,0.003 -0.13422,0.0118 -0.1875,0.0312 0.007,-0.22412 0,-0.46343 0,-0.6875 l 0,-13.625 c 0,-0.21593 0.01,-0.44057 0,-0.65625 -0.006,-0.12724 -0.0208,-0.24675 -0.125,-0.34375 -0.17486,-0.0449 -0.20005,0.0706 -0.21875,0.1875 -0.028,0.17539 0,0.35463 0,0.53125 -7.4e-4,4.60787 4.9e-4,9.23563 0,13.84375 0,0.68266 -0.0703,0.71875 -0.75,0.71875 -4.02839,4.9e-4 -8.06561,2.5e-4 -12.09375,0 -0.11791,0 -0.22608,0.0115 -0.34375,0 -0.22943,-0.0221 -0.368,-0.14458 -0.375,-0.375 -0.0208,-0.64827 -0.0219,-1.28948 0,-1.9375 0.008,-0.2314 0.14556,-0.3536 0.375,-0.375 0.11766,-0.011 0.25733,-0.0312 0.375,-0.0312 1.22824,-10e-4 2.42801,0.007 3.65625,0 0.59815,-0.003 1.20019,-0.12037 1.71875,-0.4375 0.81653,-0.49916 1.3215,-1.15917 1.3125,-2.15625 -0.003,-0.41269 -0.0111,-0.83756 0,-1.25 0.0101,-0.37412 0.12416,-0.4882 0.5,-0.5 0.37314,-0.0116 0.75407,0.0334 1.125,0 0.99561,-0.0894 1.86975,-0.82275 1.84375,-1.9375 -0.006,-0.24565 -0.003,-0.4731 0,-0.71875 0.006,-0.45002 0.0596,-0.5606 0.5,-0.625 0.74284,-0.10858 1.29675,-0.70243 1.28125,-1.53125 -0.0265,-1.4142 -0.0252,-2.83531 -0.0312,-4.25 -0.001,-0.31688 0.0733,-0.56208 0.34375,-0.75 0.38812,-0.26972 0.56275,-0.66146 0.5625,-1.125 -0.001,-2.46606 0.004,-4.94019 0,-7.40625 -4.9e-4,-0.48098 -0.004,-0.48916 -0.4375,-0.625 l -0.4375,0 c -0.43122,0.1356 -0.4295,0.14176 -0.4375,0.59375 -0.001,0.10808 0,0.20441 0,0.3125 -2.4e-4,2.19904 7.4e-4,4.42595 0,6.625 0,0.14714 0.005,0.29306 -0.0312,0.4375 -0.0356,0.14346 -0.0854,0.248 -0.25,0.25 -0.16729,10e-4 -0.24885,-0.10605 -0.28125,-0.25 -0.0327,-0.14469 -0.0312,-0.29036 -0.0312,-0.4375 -0.001,-2.28723 0.006,-4.58777 0,-6.875 -0.001,-0.4827 -0.0487,-0.54177 -0.5,-0.65625 l -0.34375,0 z M -148,537.46875 c -0.0102,0.34754 -0.0311,0.68357 -0.0312,1.03125 -0.002,9.24251 2.5e-4,18.50749 0,27.75 0,0.82712 -0.0511,0.84375 -0.875,0.84375 -8.14274,2.5e-4 -16.29501,0 -24.4375,0 -0.28495,0 -0.55904,0.0182 -0.84375,0.0312 -10e-4,-3.62244 -9.9e-4,-7.25255 0,-10.875 2.5e-4,-0.64654 0.36844,-1.09622 1,-1.25 0.22919,-0.0557 0.44946,-0.0627 0.6875,-0.0625 3.57565,0.003 7.17435,2.5e-4 10.75,0 0.42813,-2.5e-4 0.40625,-0.0162 0.40625,-0.4375 4.9e-4,-1.778 -2.5e-4,-3.5345 0,-5.3125 0,-0.49302 0.0247,-0.5 0.53125,-0.5 1.25747,0 2.49253,-0.004 3.75,0 0.22723,7e-4 0.46519,-0.0178 0.6875,-0.0625 1.23315,-0.24811 2.06323,-1.27771 2.0625,-2.53125 0,-0.48147 0.015,-0.95652 0,-1.4375 -0.008,-0.25886 0.09,-0.34875 0.34375,-0.34375 0.53011,0.0117 1.06365,0.0152 1.59375,0 0.9003,-0.0263 1.64425,-0.78941 1.65625,-1.6875 0.005,-0.38297 -10e-4,-0.77304 0,-1.15625 0.001,-0.38728 0.0139,-0.40325 0.40625,-0.40625 0.0391,-2.5e-4 0.0545,4.9e-4 0.0937,0 0.76372,-0.01 1.3045,-0.52195 1.3125,-1.28125 0.005,-0.46157 0.0189,-0.94541 0,-1.40625 -0.0113,-0.27954 0.0896,-0.4202 0.375,-0.5 0.32582,-0.0909 0.46495,-0.18826 0.53125,-0.40625 z"
     style="fill:#ffffff;fill-opacity:1;fill-rule:evenodd"
     inkscape:connector-curvature="0" /><path
     inkscape:connector-curvature="0"
     id="path31"
     d="m -159.85621,536.24114 c -0.12332,0.3331 -0.36688,0.56364 -0.69089,0.69088 -0.19283,0.0759 -0.26395,0.19087 -0.261,0.39918 0.0103,0.73523 0.005,1.46744 0.008,2.20316 0.002,0.44487 0.12915,0.58421 0.57574,0.59109 0.58833,0.009 1.17727,0.007 1.76559,0 0.4407,-0.005 0.5941,-0.14886 0.59877,-0.58342 0.008,-0.73547 -0.006,-1.46768 0,-2.20315 0.002,-0.1921 -0.0646,-0.30522 -0.24565,-0.38383 -0.32351,-0.14075 -0.57887,-0.36091 -0.69088,-0.71391 -0.35423,7.4e-4 -0.70489,-2.5e-4 -1.05936,0 z m 3.88431,0 c -0.11718,0.26825 -0.28053,0.50665 -0.55271,0.62947 -0.2115,0.0951 -0.27906,0.23656 -0.27636,0.46059 0.01,0.80499 0.0165,1.61336 0.008,2.4181 -0.007,0.67529 -0.38646,1.15706 -1.02097,1.29733 -0.1695,0.0376 -0.35404,0.027 -0.52968,0.023 -0.20389,-0.005 -0.28151,0.0858 -0.27635,0.28403 0.007,0.28446 -0.002,0.57506 0,0.85977 0.003,0.536 0.15635,0.69844 0.69088,0.74462 0.0683,0.006 0.13849,0 0.20727,0 1.55126,2.4e-4 3.10094,0.003 4.65196,0 0.13609,-2.5e-4 0.27346,-0.0114 0.40685,-0.0384 0.32991,-0.0671 0.44782,-0.20603 0.46059,-0.54503 0.0115,-0.30386 -0.006,-0.61062 0.0154,-0.9135 0.0201,-0.29257 -0.0814,-0.39322 -0.38382,-0.3915 -0.84233,0.005 -1.3752,-0.53478 -1.38945,-1.38177 -0.008,-0.46133 -0.005,-0.92045 0,-1.38177 0.002,-0.17392 -0.0398,-0.30197 -0.21494,-0.37615 -0.54632,-0.23189 -0.75525,-0.68376 -0.78301,-1.24359 -0.007,-0.1469 -0.005,-0.2981 -0.008,-0.44524 -0.33408,2.4e-4 -0.67154,0 -1.00562,0 z m -23.09859,0.008 0,15.42976 c 4.57642,0.002 9.1494,10e-4 13.72558,0.008 0.24147,2.4e-4 0.30135,-0.10698 0.29938,-0.32241 -0.007,-0.75586 9.9e-4,-1.50847 0,-2.26457 -4.9e-4,-0.41269 -0.005,-0.41429 -0.40685,-0.41453 -1.40413,-9.9e-4 -2.81003,-0.003 -4.2144,0 -0.21765,4.9e-4 -0.43283,-0.0239 -0.64483,-0.0691 -1.18206,-0.25056 -2.03679,-1.14012 -2.13406,-2.21851 -0.0504,-0.55959 -0.0169,-1.11463 -0.0307,-1.67348 -0.009,-0.37142 -0.0271,-0.39647 -0.40686,-0.39918 -0.44167,-0.003 -0.87893,0.005 -1.32036,-0.008 -0.94009,-0.0275 -1.68342,-0.79031 -1.68883,-1.72721 -0.002,-0.33409 2.5e-4,-0.67179 0,-1.00563 -4.9e-4,-0.49866 -0.002,-0.49559 -0.49129,-0.50665 -0.74333,-0.0172 -1.281,-0.55817 -1.28198,-1.29732 -0.002,-1.17838 -4.9e-4,-2.35282 0,-3.53119 l -1.4048,0 z m 2.46415,0 c 7.4e-4,1.12752 0.004,2.25781 0.008,3.38533 0.001,0.32966 0.12719,0.48344 0.45292,0.4913 0.66644,0.0162 1.32969,0.01 1.99589,-0.008 0.33703,-0.009 0.43707,-0.13928 0.43756,-0.49129 0.001,-1.12753 0.001,-2.24989 0,-3.37766 -0.96221,7.3e-4 -1.93159,-9.9e-4 -2.89404,0 z m 3.9534,0 c 7.4e-4,1.21816 -0.002,2.43584 0,3.65401 4.9e-4,0.30116 -0.10151,0.55222 -0.31474,0.76765 -0.27095,0.2739 -0.58777,0.4098 -0.97491,0.40685 -0.4768,-0.004 -0.47594,0.003 -0.47594,0.4913 0,0.23558 -7.4e-4,0.47042 0,0.70624 0.001,0.45101 0.0964,0.57469 0.53735,0.66018 0.12405,0.0238 0.24915,0.0228 0.37615,0.023 1.5326,0.002 3.06562,-2.5e-4 4.59822,0 0.14764,0 0.29116,-0.0133 0.43756,-0.0384 0.28839,-0.0494 0.43695,-0.22065 0.45292,-0.49897 0.0162,-0.28421 0.0144,-0.56738 0.0154,-0.85209 0.002,-0.48343 6.1e-4,-0.48147 -0.47595,-0.4913 -0.74652,-0.0152 -1.27976,-0.54853 -1.28197,-1.28965 -0.003,-1.17886 -2.5e-4,-2.36 0,-3.53886 -0.96343,-2.5e-4 -1.93037,0 -2.89404,0 z m 3.9534,0 c 9.8e-4,1.11745 -0.003,2.22925 0,3.34695 9.8e-4,0.35398 0.10802,0.51095 0.45291,0.522 0.67553,0.0216 1.35825,0.015 2.03427,0 0.25302,-0.006 0.40907,-0.13879 0.40686,-0.42988 -0.009,-1.14693 -0.006,-2.29214 -0.008,-3.43907 -0.9622,2.4e-4 -1.92416,-5e-4 -2.88636,0 z m 4.00713,0 c -0.003,1.09043 -0.005,2.18 -0.008,3.27018 -4.9e-4,0.26629 -0.008,0.53859 -0.11515,0.78301 -0.23385,0.53576 -0.67025,0.77115 -1.24359,0.77532 -0.46575,0.003 -0.45961,0.005 -0.46059,0.47595 -7.4e-4,0.3046 -5.5e-4,0.60914 -0.008,0.9135 -0.0273,1.14202 -0.73701,1.8353 -1.88074,1.85004 -0.52029,0.007 -1.0378,0.0153 -1.55833,0.008 -0.23926,-0.004 -0.33574,0.0896 -0.33009,0.33009 0.0106,0.4515 0.001,0.89932 0.008,1.35107 0.005,0.34415 0.18516,0.57303 0.51432,0.66785 0.15231,0.044 0.30958,0.0614 0.46827,0.0614 3.91932,-10e-4 7.83341,-0.002 11.75272,0 0.19947,2.4e-4 0.39697,-0.0307 0.58342,-0.0921 0.27046,-0.0892 0.44063,-0.25554 0.48362,-0.56039 0.0663,-0.47066 0.0151,-0.9423 0.0384,-1.41247 0.0125,-0.25253 -0.0828,-0.35779 -0.33777,-0.35312 -0.52028,0.01 -1.04572,0.0147 -1.566,0 -0.99562,-0.028 -1.73594,-0.79418 -1.74257,-1.78095 -0.002,-0.35373 9.8e-4,-0.70587 0,-1.05936 -0.001,-0.39623 -0.006,-0.39279 -0.3915,-0.39918 -0.85903,-0.014 -1.37213,-0.53704 -1.3741,-1.38944 -0.002,-0.79541 -0.007,-1.59199 0,-2.38739 0.002,-0.19922 -0.0536,-0.3293 -0.24564,-0.41454 -0.28324,-0.12577 -0.4633,-0.35711 -0.58342,-0.63714 -0.66767,2.4e-4 -1.33638,-5e-4 -2.00356,0 z m 10.8469,0 c -0.002,0.19578 10e-4,0.38763 0,0.58341 -0.002,0.27586 0.16532,0.34495 0.39918,0.34544 0.23557,4.9e-4 0.40992,-0.0831 0.4222,-0.34544 0.009,-0.19554 0.006,-0.38763 0.008,-0.58341 l -0.82906,0 z m 1.88842,0 c 2.4e-4,0.0784 -0.007,0.15242 0,0.23029 0.0597,0.67111 -0.14033,1.20472 -0.80604,1.48157 -0.11963,0.0499 -0.1305,0.15666 -0.1305,0.26867 2.5e-4,0.46108 -0.0133,0.92118 0,1.38177 0.01,0.34145 0.15126,0.4983 0.48362,0.50665 0.65662,0.0167 1.31649,0.0189 1.97286,0 0.35742,-0.0103 0.47773,-0.15801 0.48362,-0.52968 0.006,-0.38247 -0.0152,-0.77023 0.008,-1.15147 0.0179,-0.30141 -0.0716,-0.45261 -0.38382,-0.53736 -0.50063,-0.13609 -0.61664,-0.33776 -0.6218,-0.85977 -0.003,-0.2648 -0.006,-0.52587 -0.008,-0.79067 -0.33334,-2.5e-4 -0.66534,2.4e-4 -0.99794,0 z m 2.0573,0 c 0.004,0.1943 -0.003,0.39058 0.0153,0.58341 0.0251,0.26481 0.20726,0.35453 0.45291,0.34544 0.24393,-0.009 0.40938,-0.10274 0.41453,-0.37615 0.003,-0.18448 0.007,-0.36798 0.008,-0.5527 -0.29527,4.9e-4 -0.59496,-2.5e-4 -0.89047,0 z m 1.94983,0 c -0.22796,0.19209 -0.12737,0.45727 -0.13818,0.69088 -0.0243,0.51586 -0.13142,0.68499 -0.61412,0.84442 -0.23484,0.0776 -0.32714,0.21561 -0.33009,0.45291 -0.004,0.37338 -0.0211,0.74886 0,1.12077 0.0666,1.17346 -0.54171,1.60666 -1.45085,1.58136 -0.29405,-0.008 -0.3597,0.0752 -0.37615,0.37615 -0.0196,0.36306 -0.006,0.72675 -0.008,1.09006 -0.006,1.09338 -0.66387,1.75552 -1.7656,1.76559 -0.46182,0.004 -0.92787,-0.008 -1.38945,0.008 -0.36626,0.012 -0.4265,0.0701 -0.43756,0.43756 -0.0157,0.5107 0,1.02435 0,1.5353 0,0.32991 -0.0655,0.6393 -0.20726,0.93653 -0.46526,0.97646 -1.28093,1.41021 -2.31831,1.43551 -1.27663,0.0309 -2.56112,0.0109 -3.83825,0.0153 -0.6264,0.002 -0.64906,0.0243 -0.6525,0.63715 -0.004,0.74653 4.9e-4,1.49477 0,2.24154 -9.8e-4,0.95287 0.001,1.90279 -0.008,2.85566 -0.003,0.38296 -0.11545,0.49142 -0.49129,0.50665 -0.12774,0.005 -0.25609,0 -0.38383,0 -3.4091,7.4e-4 -6.81624,6e-5 -10.2251,0.008 -1.19483,0.003 -1.75,0.56474 -1.75024,1.75024 -7.4e-4,3.32067 -2.5e-4,6.63575 0,9.95642 0,0.14763 -9.2e-4,0.29785 0.008,0.44524 0.007,0.12184 0.039,0.2314 0.14585,0.30706 0.0882,0.004 0.17281,0.0154 0.261,0.0154 8.55666,4.9e-4 17.11356,-0.007 25.67022,0 0.28643,2.4e-4 0.39887,-0.0879 0.3608,-0.36847 -0.008,-0.0582 0,-0.11761 0,-0.17656 0,-9.63727 4.9e-4,-19.27244 0,-28.90971 0,-0.52052 -0.004,-1.0378 -0.008,-1.55832 -0.0189,-10e-4 -0.0356,-0.004 -0.0537,0 z"
     style="fill:#000000;fill-opacity:1;fill-rule:evenodd" /></g></svg>