<?xml version="1.0" encoding="utf-8"?>
<!-- Generator: Adobe Illustrator 16.0.0, SVG Export Plug-In . SVG Version: 6.00 Build 0)  -->
<!DOCTYPE svg PUBLIC "-//W3C//DTD SVG 1.1//EN" "http://www.w3.org/Graphics/SVG/1.1/DTD/svg11.dtd">
<svg version="1.1"
	 id="Calque_1" sodipodi:docname="logo.ENS.couleur.svg" inkscape:version="0.48.3.1 r9886" xmlns:svg="http://www.w3.org/2000/svg" xmlns:rdf="http://www.w3.org/1999/02/22-rdf-syntax-ns#" xmlns:sodipodi="http://sodipodi.sourceforge.net/DTD/sodipodi-0.dtd" xmlns:inkscape="http://www.inkscape.org/namespaces/inkscape" xmlns:dc="http://purl.org/dc/elements/1.1/" xmlns:cc="http://creativecommons.org/ns#"
	 xmlns="http://www.w3.org/2000/svg" xmlns:xlink="http://www.w3.org/1999/xlink" x="0px" y="0px" width="100px" height="100px"
	 viewBox="0 0 100 100" enable-background="new 0 0 100 100" xml:space="preserve">
<sodipodi:namedview  inkscape:window-maximized="0" fit-margin-right="0" inkscape:window-width="1417" inkscape:window-x="258" inkscape:window-y="372" inkscape:pageshadow="2" inkscape:pageopacity="0" fit-margin-bottom="0" inkscape:window-height="687" inkscape:current-layer="Calque_1" bordercolor="#666666" inkscape:cx="-32.145621" fit-margin-top="0" id="namedview72" pagecolor="#ffffff" gridtolerance="10" fit-margin-left="0" showgrid="false" inkscape:zoom="3.1714774" inkscape:cy="45.664945" objecttolerance="10" borderopacity="1" guidetolerance="10">
	</sodipodi:namedview>
<path id="path7" inkscape:connector-curvature="0" d="M65.16,32.663c0.95-1.048,1.041-2.763,1.919-3.893
	c0.722-0.93,2.021-1.43,3.182-1.296c1.145,0.132,2.36,0.958,2.379,2.205c0.008,0.567-0.222,1.31-0.384,1.849
	c-0.09,0.299-0.463,0.35-0.639,0.591c-0.187,0.255-0.267,0.587-0.26,0.899c0.016,0.688,0.633,1.085,0.881,1.681
	c0.274,0.661-0.298,1.17,0.318,1.832c0.453,0.489,0.917,1.334,1.576,1.558c0.705,0.239,1.388-0.46,1.9-0.84
	c0.218-0.161,0.488-0.452,0.778-0.482c0.514-0.055,0.535,0.076,0.984-0.282c0.5-0.398,0.881-0.978,1.593-0.884
	c1.081,0.142,0.492,0.492,0.225,1.185c-0.268,0.693-0.292,1.469-0.672,2.12c0.341,0.229,0.899,0.042,1.295,0.207
	c0.385,0.16,0.652,0.49,0.734,0.898c0.238,1.182-0.451,2.463-0.283,3.683c0.123,0.887,1.421,1.033,1.871,1.794
	c0.6,1.012,0.229,2.318,0.23,3.421c0.001,0.643,0.031,1.284,0.05,1.926c0.018,0.606-0.297,0.648-0.737,0.896
	c-0.526,0.296-0.162,1.375-0.334,1.878c-0.191,0.56-1.131,0.522-1.594,0.584c-0.199,0.026-0.327,0.114-0.338,0.333
	c-0.21,0.223-0.506,0.201-0.781,0.201c-0.781,0.001-1.562,0.002-2.343,0.003c-2.864,0.003-5.729,0.003-8.592,0
	c-0.567-0.001-2.576,0.362-2.845-0.355c-0.443-1.181-0.249-2.899-0.293-4.149c-0.105-3.008-0.075-6.019-0.042-9.029
	c0.015-1.439,0.031-2.879,0.032-4.319c0.001-0.785-0.002-1.57-0.012-2.355C64.954,34.002,64.743,33.079,65.16,32.663
	C65.615,32.161,64.85,32.973,65.16,32.663z"/>
<path id="path9" inkscape:connector-curvature="0" d="M21.65,54.521c-0.715-0.62-1.595-1.129-1.833-2.117
	c-0.119-0.494-2.863,1.256-2.704,0.234c0.161-1.036,1.764-1.04,2.05-2.146c0.134-0.52,0.061-0.966,0.359-1.448
	c0.316-0.512,0.561-0.988,0.659-1.593c0.205-1.264,0.146-2.539,0.411-3.802c0.148-0.707,0.348-1.401,0.601-2.077
	c0.267-0.715,0.084-1.164,0.114-1.881c0.048-1.124,1.979-1.465,2.818-1.485c1.249-0.03,2.497,0.691,3.73,0.381
	c-0.571-1.1-0.932-2.345-2.138-2.905c-0.573-0.266-0.938-0.365-1.262-0.94c-0.112-0.199-0.278-0.394-0.022-0.577
	c0.203-0.146,0.448,0.246,0.634,0.3c0.614,0.177-0.324-0.766,0.354-0.602c0.474,0.114,1.136,0.846,1.474,1.186
	c0.494,0.497,0.931,1.012,1.481,1.454c0.139,0.111,0.404,0.386,0.597,0.436c0.313,0.081,0.436-0.364,0.332-0.576
	c-0.351-0.713,1.189-2.027,1.73-2.345c0.35-0.206,1.152-0.18,1.036-0.72c-0.151-0.705-0.658-0.037-1.152-0.344
	c-0.343-0.213-0.428-0.886-0.856-0.94c-0.596-0.076-0.399-0.315-0.522-0.938c-0.112-0.572-0.475-1.276-0.341-1.862
	c0.148-0.648,0.943-1.242,1.502-1.538c0.433-0.229,0.918-0.317,1.4-0.214c0.472,0.101,0.987,0.678,1.392,0.721
	c1.364,0.162,1.144,1.315,1.186,2.342c0.025,0.619,0.243,1.202,0.561,1.729c0.266,0.44,0.921,0.974,0.946,1.496
	c0.08,1.659,0.004,3.341,0.006,5.002c0.003,3.283,0.004,6.565-0.004,9.848c-0.004,1.515,0.064,3.03-0.179,4.528
	c-0.069,0.429,0.088,1.318-0.407,1.522c-0.669,0.276-1.72,0.08-2.43,0.08c-1.945,0-3.889,0.001-5.834,0
	c-1.037,0-2.074-0.001-3.111-0.002C23.594,54.724,22.15,55.012,21.65,54.521z"/>
<path id="path11" inkscape:connector-curvature="0" d="M50.412,7.977c-3.983,0.045-7.923,1.129-11.323,3.213
	c-1.507,0.924-2.975,2.012-4.02,3.458c-0.401,0.556-1.221,1.646-1.082,2.376c0.134,0.702,1.238,1.59,1.695,2.128
	c-3.999-0.162,0.056,4.549-0.072,6.128c-0.42-0.36-1.189-0.269-1.031,0.454c0.055,0.253,0.231,0.391,0.402,0.56
	c0.123,0.121-0.108,0.371-0.056,0.543c0.095,0.313,0.552,0.62,0.785,0.834c0.509,0.467,0.261,1.49,0.258,2.109
	c-0.018,3.244-0.027,6.489,0.002,9.734c0.029,3.279,0.084,6.559,0.003,9.837c-0.04,1.575-0.11,3.149-0.23,4.72
	c-0.044,0.565-0.488,0.479-0.94,0.478c-0.932-0.004-1.864-0.005-2.796-0.005c-3.319,0.001-6.639-0.015-9.958-0.024
	c-0.559-0.002-1.429-0.113-1.907,0.245c-0.293,0.219-0.433,0.848,0.094,0.8c1.55-0.14,3.149-0.037,4.707-0.036
	c6.623,0.003,13.246,0.005,19.869,0.006c6.623,0.001,13.247,0.001,19.87,0.001c3.312,0,6.623,0,9.935,0c1.589,0,3.179,0,4.768,0
	c0.497,0,1.296,0.162,1.772-0.009c0.293-0.105,0.041-0.498-0.054-0.623c-0.246-0.328-0.627-0.336-0.998-0.354
	c-3.15-0.159-6.346-0.005-9.502-0.003c-1.539,0.001-3.078,0-4.617-0.006c-0.71-0.003-0.529-0.299-0.605-0.956
	c-0.101-0.855-0.214-1.672-0.226-2.536c-0.091-6.497,0.022-12.997,0.002-19.494c-0.003-0.858-0.006-1.717-0.016-2.575
	c-0.01-0.862,0.098-1.208,0.753-1.753c0.426-0.354,0.084-0.722,0.369-1.023c0.606-0.633,0.053-1.5-0.726-0.959
	c-0.191-0.542,0.324-1.25,0.557-1.708c0.35-0.688,0.754-1.372,1.002-2.106c0.21-0.625,0.288-1.337-0.182-1.869
	c-0.163-0.185-0.375-0.323-0.609-0.397c-0.277-0.087-0.726,0.069-0.954-0.098c0.527-0.627,1.312-1.307,1.699-2.024
	c0.346-0.644-0.549-1.804-0.898-2.306c-1.105-1.589-2.745-2.719-4.389-3.695C58.326,9,54.409,7.929,50.412,7.977
	C49.894,7.983,55.413,7.917,50.412,7.977z M43.417,22.565c4.732,0,9.464,0,14.196,0c-0.017,0.505-2.697,1.421-3.17,1.639
	c-0.5,0.23-1.172,0.364-1.172,1.026c0.001,0.794,0.002,1.588,0.003,2.382c0.004,3.043,0.006,6.087,0.006,9.13
	c0,3.044-0.001,6.087-0.005,9.131c0,0.794-0.002,1.588-0.003,2.382c-0.001,0.573-0.151,1.221,0.477,1.488
	c1.349,0.58,2.687,1.186,4.028,1.78c-4.773,0-9.546,0-14.319,0c0.195-0.313,0.903-0.474,1.211-0.611
	c0.685-0.308,1.371-0.613,2.06-0.912c0.463-0.201,1.097-0.309,1.097-0.92c-0.001-0.796-0.002-1.592-0.003-2.388
	c-0.003-3.184-0.005-6.368-0.005-9.551c0-3.051,0.001-6.102,0.004-9.153c0.001-0.796,0.002-1.592,0.003-2.388
	c0.001-0.739-0.107-0.904-0.773-1.212C46.601,24.179,43.375,22.916,43.417,22.565z"/>
<path id="path13" inkscape:connector-curvature="0" d="M46.032,64.85c-0.22,3.143-0.018,6.369-0.007,9.521
	c0.004,1.415-0.145,2.962,0.276,4.335c0.385,1.255,1.372,1.484,2.503,1.794c0.431,0.118,0.91,0.064,0.96,0.601
	c0.045,0.501-0.178,0.69-0.669,0.686c-1.716-0.022-3.432-0.021-5.148-0.02c-0.792,0-1.584,0.001-2.376-0.002
	c-0.438,0-0.462,0.007-0.502-0.453c-0.099-1.139,1.955-0.818,2.664-1.49c0.846-0.801,0.776-2.31,0.786-3.372
	c0.015-1.678,0.013-3.356,0.012-5.035c0-1.577-0.002-3.153-0.003-4.73c0-1.061,0.062-2.216-0.467-3.179
	c-0.391-0.711-1.079-1.146-1.825-1.415c-0.417-0.151-1.062-0.17-1.382-0.497c-0.605-0.617,0.023-0.965,0.595-0.965
	c1.553-0.001,3.105,0.005,4.658-0.007c0.711-0.006,0.803,0.198,1.204,0.742c0.546,0.739,1.092,1.479,1.638,2.219
	c3.174,4.302,6.337,8.611,9.522,12.905c0.408-0.16,0.129-3.606,0.132-4.125c0.011-1.673,0.017-3.346-0.012-5.019
	c-0.025-1.489,0.396-4.274-1.341-5.021c-0.636-0.272-1.724-0.233-2.247-0.635c-0.233-0.179-0.206-0.803,0.034-0.976
	c0.464-0.332,1.558-0.091,2.093-0.087c1.559,0.01,3.117,0.004,4.676,0.002c0.384,0,1.242-0.184,1.59,0.021
	c0.229,0.134,0.142,0.979-0.101,1.09c-0.921,0.424-2.052,0.148-2.685,1.134c-0.682,1.062-0.513,2.711-0.512,3.91
	c0.002,3.253,0.003,6.507-0.001,9.761c-0.001,1.562-0.004,3.124-0.009,4.687c0,0.474,0.168,0.656-0.396,0.75
	c-0.891,0.147-1.142-0.263-1.642-0.946c-1.948-2.664-3.93-5.304-5.894-7.955C50.142,70.354,48.259,67.403,46.032,64.85
	C46.019,65.038,46.172,65.01,46.032,64.85z"/>
<path id="path15" inkscape:connector-curvature="0" d="M28.792,81.77c-1.57,0-3.139,0.001-4.709,0c-0.519,0-3.909,0.319-4.064-0.145
	c-0.431-1.289,1.273-0.987,2.03-1.227c1.313-0.416,0.951-2.159,0.947-3.217c-0.013-3.239-0.002-6.479-0.002-9.72
	c0-1.362,0.171-2.848-0.042-4.195c-0.158-0.993-1.164-1.214-2.015-1.393c-0.558-0.117-0.962-0.066-0.953-0.746
	c0.006-0.43,0.328-0.516,0.703-0.515c1.723,0.01,3.446,0.016,5.168,0.018c3.313,0.005,6.625-0.002,9.938-0.011
	c1.079-0.005,0.575,2.588,0.576,3.335c0,0.484,0.139,1.165,0.028,1.635c-0.06,0.256-0.895,0.262-1.075,0.141
	c-0.383-0.258-0.536-1.14-0.788-1.538c-0.337-0.533-0.737-1.098-1.19-1.538c-0.985-0.956-2.532-0.813-3.793-0.816
	c-0.595-0.001-3.365-0.375-3.36,0.417c0.01,1.716,0.013,3.432,0.009,5.147c-0.001,0.792-0.005,1.584-0.009,2.375
	c-0.002,0.626,0.718,0.421,1.149,0.418c1.129-0.008,2.617,0.227,3.535-0.604c0.362-0.328,0.591-0.775,0.755-1.229
	c0.144-0.396,0.151-1.239,0.467-1.523c0.217-0.196,0.82-0.203,1.003,0.052c0.342,0.476,0.095,1.586,0.091,2.134
	c-0.011,1.566-0.001,3.132-0.001,4.698c0,0.204,0.168,1.222-0.147,1.326c-0.264,0.087-0.947,0.104-1.051-0.223
	c-0.272-0.854-0.229-1.734-0.839-2.471c-0.567-0.685-1.481-0.845-2.323-0.895c-0.745-0.043-1.492-0.017-2.237-0.017
	c-0.665,0-0.385,1.003-0.386,1.473c-0.004,1.724-0.07,3.448,0.031,5.171c0.06,1.016,0.124,2.08,1.313,2.299
	c1.567,0.288,3.316,0.248,4.893,0.069c1.427-0.161,2.17-0.618,2.918-1.847c0.384-0.631,0.722-1.288,1.034-1.956
	c0.261-0.561,0.505-1.258,1.278-1.156c0.573,0.074,0.118,2.589,0.087,3.081c-0.035,0.557,0.179,3.103-0.522,3.191
	c-1.332,0.168-2.79-0.002-4.133-0.002C31.669,81.767,30.231,81.77,28.792,81.77z"/>
<path id="path17" inkscape:connector-curvature="0" d="M66.863,78.131c0-0.496-0.285-3.43,0.172-3.571
	c1.334-0.415,1.438,1.313,1.806,2.162c1.045,2.411,3.243,4.395,6.011,4.157c2.568-0.221,4.107-2.181,3.429-4.742
	c-0.728-2.745-3.602-3.241-5.895-4.174c-2.316-0.942-4.448-2.232-4.856-4.902c-0.326-2.126,0.477-4.296,2.204-5.604
	c2-1.516,4.822-1.638,7.097-0.709c0.481,0.196,1.089,0.726,1.605,0.76c0.391,0.026,0.608-0.72,1.01-0.862
	c0.42-0.15,0.921-0.137,0.928,0.371c0.017,0.858,0.031,1.717,0.046,2.575c0.013,0.736,0.026,1.474,0.038,2.21
	c0.006,0.35,0.243,1.543-0.043,1.787c-1.138,0.971-1.569-1.312-1.755-1.857c-0.782-2.29-2.494-4.399-5.133-4.241
	c-2.299,0.138-3.846,2.225-3.082,4.451c0.883,2.573,4.251,3.134,6.442,4.097c2.141,0.939,4.081,2.254,4.438,4.738
	c0.326,2.26-0.497,4.545-2.351,5.913c-2.388,1.763-5.408,1.89-8.134,0.914c-0.566-0.202-1.074-0.493-1.617-0.729
	c-0.501-0.219-0.66,0.554-0.982,0.771c-0.218,0.146-1.225,0.418-1.195-0.093c0.04-0.704-0.059-1.428-0.063-2.134
	c-0.003-0.43,0.002-0.858,0.002-1.288C66.944,78.13,66.903,78.13,66.863,78.131z"/>
<path id="path19" inkscape:connector-curvature="0" d="M61.076,19.53c-6.609,0.024-13.22,0.02-19.83,0.019
	c-0.516,0-1.277-0.148-1.776,0.023c-0.266,0.091-0.104,1.289-0.145,1.572c-0.21,1.441-0.337,2.762-0.334,4.224
	c0.005,2.813,0.003,5.627,0.001,8.44c-0.002,2.954,0.085,5.908,0.037,8.86c-0.05,3.109-0.153,6.222,0.082,9.326
	c0.055,0.719,0.083,1.471,0.231,2.178c0.116,0.555,0.633,0.471,1.091,0.47c1.713-0.005,3.427-0.008,5.141-0.01
	c3.296-0.004,6.591-0.003,9.887-0.003c1.925,0.001,3.853,0.03,5.776,0c0.436-0.007,0.552-0.125,0.569-0.558
	c0.015-0.349-0.058-0.69-0.047-1.036c0.012-0.36,0.33-0.524,0.38-0.861c0.268-1.839,0.012-3.905,0.012-5.766
	c0.001-2.117,0.001-4.234,0.001-6.352c0-3.97-0.001-7.939-0.002-11.909c0-1.932,0.008-3.865,0.008-5.797
	c0-0.287-0.357-0.372-0.369-0.711c-0.01-0.323,0.001-0.659-0.001-0.982C61.784,19.994,61.92,19.527,61.076,19.53z M43.432,22.55
	c4.731,0,9.463,0,14.195,0c-0.012,0.501-2.699,1.423-3.169,1.639c-0.499,0.23-1.174,0.365-1.172,1.027
	c0.001,0.794,0.002,1.588,0.003,2.382c0.003,3.043,0.005,6.087,0.004,9.13c0,3.043-0.002,6.087-0.006,9.131
	c-0.001,0.794-0.002,1.588-0.003,2.382c-0.001,0.575-0.149,1.221,0.479,1.492c1.348,0.58,2.685,1.182,4.026,1.776
	c-4.772,0-9.544,0-14.317,0c0.195-0.312,0.904-0.473,1.211-0.61c0.685-0.308,1.371-0.612,2.06-0.911
	c0.462-0.2,1.097-0.309,1.097-0.919c-0.001-0.796-0.002-1.592-0.002-2.388c-0.003-3.184-0.005-6.368-0.005-9.551
	c0-3.051,0.001-6.103,0.004-9.153c0.001-0.796,0.002-1.592,0.003-2.388c0.001-0.738-0.107-0.905-0.773-1.212
	C46.611,24.163,43.389,22.905,43.432,22.55z"/>
<path id="path21" inkscape:connector-curvature="0" d="M50.508,18.683c-3.291,0-6.583-0.003-9.874,0.001
	c-0.79,0.001-1.58,0.003-2.37,0.005c-0.567,0.001-1.349,0.151-1.865-0.152c-0.65-0.382-1.601-1.668-1.237-2.442
	c1.115-2.371,3.825-4.016,6.095-5.082c2.66-1.25,5.565-1.994,8.502-2.148c3.019-0.158,6,0.509,8.807,1.585
	c2.492,0.956,5.062,2.375,6.688,4.559c0.3,0.402,0.81,1.024,0.87,1.538c0.057,0.466-0.733,1.082-1.006,1.407
	c-0.534,0.641-0.747,0.728-1.574,0.728c-0.922,0-1.844,0.001-2.766,0.001c-3.291,0.001-6.583,0.001-9.875,0.001
	C50.771,18.683,50.64,18.683,50.508,18.683z"/>
<path id="path23" inkscape:connector-curvature="0" d="M36.837,40.416c0-2.217,0.003-4.434,0.002-6.651
	c-0.001-1.043-0.002-2.086-0.006-3.13c-0.002-0.509-0.339-2.149,0.421-2.267c0.858-0.133,0.9,0.35,0.899,1.06
	c-0.002,1.18-0.004,2.359-0.005,3.54c-0.003,2.36-0.004,4.72-0.005,7.08c0,2.229,0,4.458,0,6.686c0,1.18,0,2.36,0,3.54
	c0,0.67,0.332,2.245-0.708,2.317c-0.914,0.063-0.596-1.223-0.597-1.786c-0.002-1.138-0.002-2.276-0.002-3.414
	C36.836,45.065,36.837,42.741,36.837,40.416z"/>
<path id="path25" inkscape:connector-curvature="0" d="M62.996,40.379c0-2.227,0.004-4.454,0.002-6.681
	c-0.001-1.179-0.003-2.357-0.008-3.537c-0.003-0.651-0.311-1.821,0.639-1.802c0.848,0.02,0.67,0.712,0.668,1.392
	c-0.003,1.188-0.005,2.376-0.007,3.564c-0.004,2.376-0.006,4.753-0.006,7.129c0,2.244,0.002,4.489,0.005,6.733
	c0.002,1.188,0.004,2.376,0.007,3.564c0.002,0.739,0.297,1.747-0.675,1.784c-0.838,0.031-0.634-0.828-0.631-1.427
	c0.005-1.191,0.007-2.383,0.008-3.574C63,45.144,62.996,42.761,62.996,40.379z"/>
<path id="path27" inkscape:connector-curvature="0" d="M64.184,24.848c0,0.679,0.422,2.815-0.531,2.785
	c-0.304-0.009-0.564,0.009-0.562-0.386c0.008-0.741,0.012-1.483,0.012-2.224c0.001-0.562-0.368-2.985,0.401-2.968
	c0.343,0.008,0.706-0.064,0.688,0.413C64.164,23.261,64.184,24.055,64.184,24.848z"/>
<path id="path29" inkscape:connector-curvature="0" d="M38.037,24.849c0,0.506,0.336,2.727-0.347,2.786
	c-1.221,0.106-0.734-1.583-0.733-2.406c0.001-0.644-0.434-3.234,0.495-3.176c0.323,0.02,0.606-0.014,0.592,0.416
	C38.018,23.262,38.037,24.056,38.037,24.849z"/>
<path id="path31" inkscape:connector-curvature="0" d="M63.598,21.315c-0.643,0-1.165-0.192-1.04-0.934
	c0.13-0.765,1.129-0.476,1.731-0.473c0.547,0.002,0.367,0.55,0.371,0.96C64.668,21.51,64.113,21.309,63.598,21.315
	C63.559,21.315,64.791,21.301,63.598,21.315z"/>
<path id="path33" inkscape:connector-curvature="0" d="M37.498,19.908c0.402,0,1.021-0.025,1.084,0.502
	c0.108,0.908-0.316,0.901-1.066,0.898c-0.88-0.003-1.125-0.027-1.066-0.969C36.483,19.801,37.104,19.908,37.498,19.908z"/>
<path id="path35" inkscape:connector-curvature="0" d="M37.52,53.328c0.397-0.007,0.958,0.014,1.056,0.501
	c0.159,0.79-0.349,0.836-0.966,0.838c-0.388,0.001-1.091,0.078-1.192-0.442C36.236,53.294,36.808,53.328,37.52,53.328
	C37.58,53.327,37.282,53.328,37.52,53.328z"/>
<path id="path37" inkscape:connector-curvature="0" d="M63.615,54.666c-0.396,0.007-0.958-0.01-1.057-0.497
	c-0.16-0.792,0.365-0.844,0.982-0.842c0.384,0.002,1.074-0.073,1.173,0.44C64.894,54.697,64.329,54.666,63.615,54.666
	C63.555,54.667,63.854,54.666,63.615,54.666z"/>
<path id="path39" inkscape:connector-curvature="0" d="M41.987,21.662c-1.155-0.004-0.65,2.303-0.649,3.059
	c0.002,1.723,0.004,3.447,0.005,5.17c0.002,3.315,0.002,6.629,0.001,9.944c-0.001,3.314-0.005,6.629-0.01,9.943
	c-0.001,0.721-0.093,1.51,0.011,2.224c0.076,0.522,0.674,0.417,1.062,0.416c1.732-0.005,3.465-0.009,5.198-0.011
	c3.332-0.004,6.664-0.001,9.996,0.01c0.582,0.002,1.488,0.186,2.03-0.059c0.431-0.193,0.251-1.093,0.25-1.436
	c-0.006-1.72-0.009-3.44-0.01-5.16c-0.004-6.616-0.007-13.231,0.004-19.847c0.001-0.926,0.003-1.853,0.006-2.779
	c0.002-0.413,0.21-1.365-0.397-1.461c-0.826-0.13-1.759-0.009-2.595-0.007c-1.046,0.003-2.092,0.005-3.138,0.007
	C49.829,21.682,45.908,21.676,41.987,21.662z M43.436,22.554c4.731,0,9.463,0,14.195,0c-0.012,0.5-2.7,1.422-3.169,1.639
	c-0.498,0.229-1.174,0.364-1.172,1.025c0.001,0.794,0.002,1.588,0.003,2.382c0.003,3.043,0.005,6.087,0.004,9.13
	c0,3.043-0.002,6.087-0.006,9.131c-0.001,0.794-0.002,1.588-0.003,2.382c-0.001,0.574-0.149,1.222,0.479,1.492
	c1.348,0.58,2.685,1.185,4.025,1.782c-4.771,0-9.544,0-14.316,0c0.196-0.314,0.902-0.474,1.211-0.612
	c0.685-0.308,1.371-0.614,2.06-0.914c0.46-0.2,1.097-0.308,1.097-0.917c-0.001-0.796-0.002-1.592-0.003-2.388
	c-0.003-3.185-0.005-6.369-0.005-9.553c0-3.052,0.001-6.104,0.005-9.155c0.001-0.796,0.002-1.592,0.003-2.388
	c0.001-0.739-0.108-0.904-0.774-1.212C46.622,24.171,43.384,22.89,43.436,22.554z"/>
<path id="path41" inkscape:connector-curvature="0" d="M50.631,17.513c-2.932,0-5.864-0.004-8.796,0
	c-1.466,0.001-2.932,0.005-4.398,0.012c-1.189,0.004-0.091-1.745,0.241-2.233c1.266-1.861,3.557-3.056,5.598-3.855
	c2.375-0.93,4.981-1.423,7.531-1.401c2.381,0.021,4.733,0.535,6.924,1.463c2.079,0.882,4.64,2.141,5.94,4.066
	c0.317,0.47,1.278,1.966,0.154,1.96c-1.424-0.007-2.847-0.01-4.271-0.012C56.581,17.509,53.605,17.513,50.631,17.513z"/>
<path id="path45" inkscape:connector-curvature="0" fill="#FFFFFF" d="M58.928,32.292c0,2.414-0.004,4.828,0,7.242
	c0.001,0.399,0.269,2.631-0.128,2.794c-0.347,0.143-1.104-0.277-1.435-0.382c-0.585-0.184-1.172-0.361-1.76-0.536
	c-0.409-0.121-0.896-0.193-1.275-0.393c-0.422-0.222-0.258-0.933-0.256-1.308c0.008-1.305,0.007-2.609,0.005-3.914
	c-0.001-0.585-0.071-1.218,0.005-1.798c0.06-0.453,0.983-0.532,1.327-0.636C56.585,33.008,57.756,32.649,58.928,32.292z"/>
<path id="path47" inkscape:connector-curvature="0" fill="#FFFFFF" d="M42.222,37.316c0-1.261,0.009-2.521,0-3.783
	c-0.001-0.192-0.159-1.091,0.141-1.173c0.376-0.104,1.05,0.277,1.404,0.389c0.585,0.185,1.172,0.364,1.761,0.538
	c0.398,0.118,1.097,0.169,1.398,0.482c0.273,0.283,0.136,0.925,0.134,1.264c-0.004,0.769-0.007,1.538-0.007,2.307
	c0,0.641,0.001,1.281,0.004,1.922c0.002,0.417,0.169,1.195-0.084,1.562c-0.241,0.349-1.025,0.414-1.4,0.526
	c-0.579,0.173-1.158,0.351-1.735,0.533c-0.415,0.131-0.949,0.425-1.393,0.408c-0.354-0.013-0.231-0.682-0.228-0.869
	C42.241,40.052,42.222,38.684,42.222,37.316z"/>
<path id="path49" inkscape:connector-curvature="0" fill="#FFFFFF" d="M58.928,22.997c0,2.302-0.011,4.604,0.001,6.907
	c0.002,0.437,0.085,0.956-0.012,1.384c-0.099,0.441-0.809,0.489-1.152,0.591c-1.093,0.323-2.271,0.882-3.397,1.039
	c-0.552,0.077-0.289-1.956-0.288-2.304c0.002-1.27,0.001-2.539,0.001-3.808c0-0.398-0.158-1.149,0.04-1.513
	c0.189-0.348,1.119-0.582,1.468-0.744C56.701,24.032,57.814,23.514,58.928,22.997z"/>
<path id="path51" inkscape:connector-curvature="0" fill="#FFFFFF" d="M42.222,27.244c0-1.128,0.005-2.256-0.002-3.384
	c-0.002-0.347-0.122-0.93,0.41-0.675c0.566,0.272,1.135,0.541,1.705,0.807c0.555,0.258,2.537,0.8,2.703,1.417
	c0.287,1.069,0.018,2.557,0.018,3.666c0,1.144,0.002,2.288,0.008,3.432c0.004,0.877-1.82-0.085-2.27-0.225
	c-0.624-0.192-2.591-0.372-2.579-1.217C42.232,29.791,42.222,28.518,42.222,27.244z"/>
<path id="path53" inkscape:connector-curvature="0" fill="#FFFFFF" d="M42.222,50.979c0-2.14,0.001-4.28-0.002-6.42
	c0-0.359-0.127-0.99,0.037-1.319c0.174-0.348,1.087-0.437,1.419-0.538c0.497-0.152,0.993-0.305,1.489-0.458
	c0.483-0.15,1.188-0.529,1.696-0.499c0.419,0.025,0.195,5.337,0.195,5.965c0,0.291,0.121,0.86-0.06,1.124
	c-0.242,0.353-1.172,0.562-1.558,0.73C44.366,50.034,43.294,50.507,42.222,50.979C42.222,48.408,43.803,50.283,42.222,50.979z"/>
<path id="path55" inkscape:connector-curvature="0" fill="#FFFFFF" d="M58.928,50.98c-0.942-0.412-1.884-0.825-2.826-1.236
	c-0.46-0.2-0.919-0.399-1.379-0.598c-0.609-0.263-0.651-0.398-0.649-1.054c0.003-0.637-0.146-6.311,0.184-6.308
	c0.874,0.01,1.992,0.598,2.832,0.851c0.504,0.152,1.009,0.303,1.513,0.453c0.495,0.148,0.331,0.805,0.329,1.196
	C58.925,46.517,58.928,48.749,58.928,50.98z"/>
<path id="path57" inkscape:connector-curvature="0" d="M38.798,16.653c0.616-1.848,2.373-3.068,3.983-4.004
	c1.751-1.018,3.693-1.686,5.702-1.952c3.992-0.527,7.973,0.503,11.214,2.886c0.751,0.552,1.553,1.151,2.104,1.912
	c0.146,0.201,0.666,0.82,0.544,1.098c-0.102,0.229-1.144,0.09-1.321,0.09c-2.5,0-5,0-7.501,0
	C48.64,16.682,43.672,16.944,38.798,16.653C39.192,15.47,39.002,16.665,38.798,16.653z"/>
<path id="path59" inkscape:connector-curvature="0" fill="#FFFFFF" d="M52.068,14.139c-2.575,1.135-1.672-3.299,0.149-2.088
	c1.731,1.151-0.025,3.631-1.612,3.696C51.3,15.394,51.946,14.971,52.068,14.139C51.533,14.375,51.939,15.018,52.068,14.139z"/>
<path id="path61" inkscape:connector-curvature="0" fill="#FFFFFF" d="M54.652,15.74c0.02-0.219,0.151-0.749-0.113-0.888
	c-0.343-0.18-0.9,0.081-1.196-0.173c-0.229-0.196,0.513-1.01,0.604-1.135c0.102-0.139,1.269-1.732,1.296-1.213
	c0.032,0.589-0.013,1.192-0.008,1.784c0.002,0.222,0.196,0.206,0.351,0.152c0.227-0.078,0.144,0.484,0.057,0.505
	c-0.488,0.115-0.402,0.509-0.404,0.898C55.238,16.117,54.736,16.079,54.652,15.74z"/>
<path id="path63" inkscape:connector-curvature="0" fill="#FFFFFF" d="M47.753,13.017c-0.021-0.316-0.137-0.866,0.281-0.969
	c0.422-0.104,1.007-0.115,1.435-0.031c0.69,0.135-0.445,2.267-0.528,2.667c-0.07,0.339,0.13,1.639-0.622,1.245
	c-0.525-0.275,0.216-1.544,0.385-1.85c0.114-0.206,0.947-1.404,0.542-1.551C48.759,12.352,47.962,12.517,47.753,13.017
	C47.689,12.058,48.021,12.378,47.753,13.017z"/>
<path id="path65" inkscape:connector-curvature="0" fill="#FFFFFF" d="M45.559,15.678c0.578-0.28,0.713-3.112-0.099-2.99
	c0.323-0.178,0.647-0.354,0.971-0.532c0.346,1.159-0.335,2.465,0.444,3.521C46.437,15.679,45.998,15.678,45.559,15.678z"/>
<path id="path67" inkscape:connector-curvature="0" d="M52.25,13.25c0.012,1.084-1.072,0.812-1.268-0.065
	c-0.074-0.334-0.027-1.043,0.438-1.105C51.992,12.003,52.254,12.834,52.25,13.25C52.254,13.626,52.254,12.781,52.25,13.25z"/>
<path id="path69" inkscape:connector-curvature="0" d="M54.607,13.052c0.15,1.317,0.15,1.317-0.793,1.179
	C53.979,13.779,54.271,13.433,54.607,13.052z"/>
</svg>
