<?xml version="1.0" encoding="utf-8"?>
<!-- Generator: Adobe Illustrator 16.0.0, SVG Export Plug-In . SVG Version: 6.00 Build 0)  -->
<!DOCTYPE svg PUBLIC "-//W3C//DTD SVG 1.1//EN" "http://www.w3.org/Graphics/SVG/1.1/DTD/svg11.dtd">
<svg version="1.1"
	 id="svg2" sodipodi:docname="logo.DIM.noir.svg" inkscape:version="0.48.3.1 r9886" xmlns:cc="http://creativecommons.org/ns#" xmlns:rdf="http://www.w3.org/1999/02/22-rdf-syntax-ns#" xmlns:svg="http://www.w3.org/2000/svg" xmlns:sodipodi="http://sodipodi.sourceforge.net/DTD/sodipodi-0.dtd" xmlns:dc="http://purl.org/dc/elements/1.1/" xmlns:inkscape="http://www.inkscape.org/namespaces/inkscape"
	 xmlns="http://www.w3.org/2000/svg" xmlns:xlink="http://www.w3.org/1999/xlink" x="0px" y="0px" width="602.361px"
	 height="96.42px" viewBox="0 0 602.361 96.42" enable-background="new 0 0 602.361 96.42" xml:space="preserve">
<sodipodi:namedview  inkscape:pageshadow="2" inkscape:window-width="1294" inkscape:pageopacity="0" inkscape:window-height="846" fit-margin-bottom="0" inkscape:current-layer="g10" inkscape:window-maximized="0" fit-margin-right="0" inkscape:window-y="254" inkscape:window-x="49" borderopacity="1" showgrid="false" gridtolerance="10" guidetolerance="10" pagecolor="#ffffff" id="namedview4" fit-margin-left="0" inkscape:cy="-57.88626" fit-margin-top="0" objecttolerance="10" inkscape:cx="238.63729" inkscape:zoom="0.55397434" bordercolor="#666666">
	</sodipodi:namedview>
<g id="g10" transform="matrix(1.25,0,0,-1.25,-67.018599,155.13042)" inkscape:groupmode="layer" inkscape:label="ink_ext_XXXXXX">
	<g id="g54" transform="matrix(0.1,0,0,0.1,-2.8882204,-8.6646613)">
		<g>
			<defs>
				<polygon id="SVGID_1_" points="565.029,1327.692 5383.927,1327.692 5383.927,556.333 565.029,556.333 565.029,1327.692 				"/>
			</defs>
			<clipPath id="SVGID_2_">
				<use xlink:href="#SVGID_1_"  overflow="visible"/>
			</clipPath>
			<g id="g56" clip-path="url(#SVGID_2_)">
				<path id="path62" inkscape:connector-curvature="0" fill="#EE2426" d="M1112.896,1116.583
					c-2.414-0.93-11.133-3.555-10.438-3.898c-0.695,0.344-1.258,0.469-1.227,1.086c0.969,3.32-14.375-10.938-15.094-5.453
					c-0.445,0.93,0.719-0.227-1.438,0.352c5.609-0.781-34.281-13.398-34.281-12.695c-1.906,4.125-1.492,8.219,1.047,12
					c3.156,7.906-6.812,19.195-3.055,15.891c-2.711,2.727-2.711,5.305-0.102,8.055c1.719-1.234,0.102,0.391,1,3.898
					c1.109,0.703-2.062,5.062,0.812,3.516c2.516,0.734,6.648,14.828,3.688,24.898c-6.562,15.219-3.781,125.117-0.453,120.906
					c1.172,7.602-5.859,13.211-2.5,18.812c0.25,5.781-5.25,5.984-4.516,9.867c-2.93,11.602-19.258,11.414-17.469,13.875
					c-8.633-1.922-40.438-53.102-40.742-54.398c1.945,1.891-21.531-33.414-21.062-33.531c-2.586,0.578-5.508-3.969-6.062-9.273
					c-0.234-0.641-13.32-16.789-11.914-13.625c-4.484-7.523-9.773-14.703-13.906-22.383c3.211,2.039-5.789-6.219-4.438-5.953
					c0.188,0.891-10.133-24.859-10.25-22.625c0.969,3.469-12.703-12.672-14.141-12.781c-2.891-11.742-46.32,16.945-47.141,30.078
					c0.117,0.461-0.891,12.164-6.742,13.547c2.57-2.266-30.891,28.203-28.359,25.836c-17.492,23.289-31.266,22.625-57.133,45.258
					c0.172,0.352-6.039,14.719-10.422,19.797c-9.773-2.375-22.977-17.57-20.195-21.305c-4.188-1.766-4.969,3.508-6.609,5.289
					c-1.312-5.711,4.289-38.758,4.289-38.758c-0.617-4.75,2.258-29.281,3.312-25.641l1.898-2.133c0-0.227-2.953-3.656,0.672-6.047
					c3.977-7,12.016-11.953,9.156-21.727c-3.508-1.766,0.43-14.586-0.195-10.406c-3.953-20.25,43.594-58.32,37.016-85.352
					c-3.047-2.43,9.07-16.789,6.578-16.141c-4.125-4.828-16.406-7.906-24.977-10.195c-2.508-1.453-5.102-0.156-7.805,0.656
					c-2.586,0.508-24.156,9.312-30.211,5.219c-0.234-0.617-17.883,4.094-18,3.312c3.172,3.586-20.18-4.938-16.68,2.641
					c1.523,5.898-20.328-6.219-14.93-3.023c-0.359-0.234-9.531-5.367-9.297-3.859c0.727,2.055-8.328,0.234-6.266-0.266
					c-1.367,0.391-10.633,3.039-9.281,2.125c-5.141,3.391-6.211-1.195-12.281,1.719c-0.367-0.688-7.273-1.633-8.555-1.289
					c-0.422,0.109-13.672-0.469-13.672-0.078c1.047,0.438-11.617-3.68-12.469-0.391c0.469,0.578-10-7.352-12.938-2.438
					c1.312,4.047-11.797-3.32-13.859-3.633c-1.602,0.312-8.227,3.203-6.938,1.133c-1.094-0.594-9.297-10.633-9.297-10.633
					c1.539-0.469,45.023-33.086,38.203-27.984c0,0,4.695-3.922,16.102-10.703c-1.812-4.867,16.797-0.242,13.773-10.789
					c17.297,10.195,52.75-37.484,65.195-29.922c1.586,0,6.875-8.336,8.609-7.68c-2.797,2.43,9-3.898,5.297-3.625
					c1.641-1.938,1.039-1.242,6.68-7.078c14.164,0.625,20.188-11.078,24.883-15.016c15.562-29.961-49.031-58.891-54.602-74.016
					c-0.211-0.781-0.211-1.406-1.078-1.164c0.727-0.703-9.031-4.25-10.156-8.961l-9.688-12.586
					c-8.609,2.461-30.484-32.289-39.352-36.773l-21.07-9.734c0,0-2.969-2.891-4.945-5.82c-1.93-3.023-4.82-6.531-6.938-7.266
					c-1.828-0.719-14.914-13.641-14.914-13.641l-3.242-6.125l5.266-2.328c0,0-3.391-3.977-3.898-5.695
					c-0.727-1.477-2.609-5.805,1.477-6.734c4.25-0.969,6.625-0.969,7.625-2.969c0.906-2.016,17.859-3.312,19.227-3.039
					c1.258,0.438,9.695,4.172,9.695,4.172c8.141,2.578,34.789,2.188,37.859-0.469c-0.539,0.109,38.727,9.656,39.773,12.812
					c1.297-0.188,24.195,8.031,24.195,8.031c6.273,2.93,20.594,5.258,25.172,10.469c-4.359-0.844,18.461,7.023,24.906,3.859
					c1.992-1.086,57.016,10.336,58.906,17.414c4.445-0.461,4.945-4.586,5.203-4.828c-1.281-7.289-0.156-27.492-2.883-31
					c0.094,2.883-7.719-5.258-5.062-9.586c5.531-1.727,5.258,0.273,8.688-7.836c-1.602,3.672,0.391-16.328-0.078-23.523
					c0.195-3.852,6.375-16.594-3.836-21.625c0,0-5.773-12-6.023-11.805c0.758,5.875,0.758-3.008-0.352-1.32
					c5.164,2.445,3.625-13.32,2.453-15.242c0.984,2.461-2.688-3.023-3.055-1.164c-8.32-16.289,9.172-18.109-0.922-19.938
					c4.328-1.297,6.586-22.961,6.312-19.797c0.984-7.289,0.375-14.336-1.867-21.234c-1.453,4.523-3.906-8.305-3.156-11.797
					c1.703-8.141-2.352-23.5,5.398-27.047c-1.188,3.203,5.859-7.461,5.859-7.461c18.156-7.688,22.594,16.07,30.664,19.812
					c2.742,0.578,5.883,11.539,8.516,10.688c0.25,0.852,11.156,53.016,19.555,50.328c-0.391,0,14.039,21.422,17,30.578
					c-0.117-0.617-6.938,7.484,7.539,13.789c7.031-2.367,10.289,16.406,12.094,27.109c0.477,6.125,4.797,3.156,5.422,9.672
					c-0.117-1.797,12.461,19.242,14.523,27.852c2.062-0.117,2.375,9.547,3.82,8.219c-3.914,3.398,3.414,7.391,2.453,10.359
					c1.352,5.18,0.898,9.812,3.164,9.383c2.141,10.109,8.469,5.711,9.891,4.797c3-1.633,7.141,0.914,7.641-6.578
					c-2.914-3.742,9.383-7.289,8.328-9.617c-0.352,1.781,58.711-67.875,75.023-81.234c0.75-0.703,46.484-46.078,44.5-45.617
					c5.055-2.617,9.305-11.805,9.656-11.148c-1.906-2.945,8.734-7.773,10.602-7.773c6.93-12.117,7.281-9.641,10.992-7.562
					c1.211-5.414,10.398-2.812,13.758-4.555c-1.023,2.594,7.242,4.906,5.438,7.789c2.5-0.875-1.695,9.812,0.633,8.555
					c-2.961,5.078-20.281,28.133-19.078,32.352c0.359,1.43,2.469,0.891,3.758,0.617c-0.227,1.352-2.219,2.773-3.398,3.742
					c3.172,0.078,3.867,1.742,2.109,5.102c-3.109-1.703-7.383,18-4.672,20.766c1.102,5.023-14.141,66.695-21.336,72.719
					c0.453,2.156-2.492,15.75-3.062,16.914c-11.938,7.445-2.07,22.359-10.305,24.984c-1.93-3.703-10.516,10.352-11.758,22.047
					c-3.945,7.266,0,24.68-2.695,22.086c-2.344,2.633,12.391,8.922,16.047,0.891c31.078-11.773,90.469,7.758,111.961-8.883
					c5.062,9.578,16.477,2.133,10.367,3.898c-0.938-1.164,1.078-1.727,2.492-2.117c-2.859,0.602,20.898,2.117,24.5,0.242
					c-9.148,2.227,13.438,0.75,12.547,1.102c-8.023,1.742,16.055-2.891,41.68,13.008c9.211,2.836,7.523,7.625,11.383,16.43
					c-1.562-7.5,2.391,7.523-5.398,12.273c-45.422,11.383-81.562,44.914-126.812,56.773c-17.531,3.734-45.867,46.672-60.922,43.938
					c27.391,31.281,53.961,62.414,82.203,88.977c5.547,5.328,62.172,66.422,62.172,65.688c2.109,3.086,5.281,13.242,5.039,8.883
					c0.117,1.453-0.578,3.391-2.102,5.578c-0.117-0.75-21.281,15.812-26.797,5.492c7.461-4.633-15.125-6.242-20.641-7.516
					c-1.703-1.055-3.125-0.633-4.414-0.273c-5.648,1.391-13.047-5.07-16.828-5.922c-8.281,7.391-29.023-6.32-38.461-9.477
					c0.789,0.398-4.039-0.578-11.367,0.984c-3.148-5.18-3.055-3.703-2.281-3.234c-2.742-1.469-5.039-3.82-16.102-7.602
					c1.25-0.469-7.008-3.938-10.172-3.109c0.273-1.453-1.234-5.352-6.109-4.398
					C1113.763,1116.583,1114.248,1117.981,1112.896,1116.583"/>
				<path id="path64" inkscape:connector-curvature="0" fill="#EE2426" d="M1524.99,1142.223h-99.008l86.578,115.07h117.476
					l86.664-115.07h-98.969l-46.383,61.938L1524.99,1142.223 M1505.591,697.458v401.43h131.43v-401.43H1505.591L1505.591,697.458"/>
				<path id="path66" inkscape:connector-curvature="0" fill="#EE2426" d="M1701.037,1249.692h131.5V697.458h-131.5V1249.692"/>
				<path id="path68" inkscape:connector-curvature="0" fill="#EE2426" d="M1998.748,866.075
					c2.312-54.898,34.055-91.242,89.812-91.242c31.539,0,62.531,14.727,74.898,44.18h123.055
					c-23.953-92.867-109.922-133.07-199.625-133.07c-130.641,0-219.586,78.883-219.586,213.391
					c0,122.961,98.219,211.156,216.531,211.156c143.867,0,215.773-108.328,209.648-244.414H1998.748 M2161.927,939.387
					c-2.289,45.125-34.078,82.164-78.094,82.164c-46.367,0-77.297-33.219-85.086-82.164H2161.927L2161.927,939.387"/>
				<path id="path70" inkscape:connector-curvature="0" fill="#EE2426" d="M2612.599,697.458h-51.859v42.625h-1.242
					c-17-34.711-57.336-49.891-100.547-49.891c-97,0-145.109,76.844-145.109,165.797c0,89.023,47.547,164.055,143.93,164.055
					c32.227,0,78.578-12.125,101.727-49.352h1.242v162.117h51.859V697.458 M2466.146,735.95c69.547,0,96.383,59.734,96.383,118.781
					c0,62.328-28.117,119.523-99.312,119.523c-70.727,0-94.578-60.297-94.578-121.93
					C2368.638,793.255,2399.177,735.95,2466.146,735.95L2466.146,735.95"/>
				<path id="path72" inkscape:connector-curvature="0" fill="#EE2426" d="M2930.833,797.466
					c-14.086-69.469-63.992-107.273-134.797-107.273c-100.578,0-148.18,69.5-151.188,165.797
					c0,94.586,62.211,164.055,148.203,164.055c111.516,0,145.695-104.305,142.609-180.57h-235.93
					c-1.82-54.945,29.359-103.523,98.109-103.523c42.68,0,72.57,20.812,81.742,61.516H2930.833 M2880.74,885.278
					c-2.398,49.43-39.5,88.977-90.812,88.977c-54.273,0-86.57-40.789-90.195-88.977H2880.74L2880.74,885.278"/>
				<path id="path74" inkscape:connector-curvature="0" fill="#EE2426" d="M2969.333,1249.692h406.656v-115.234h-262.961v-112.906
					h227.406V910.216h-227.406V697.458h-143.695V1249.692"/>
				<path id="path76" inkscape:connector-curvature="0" fill="#EE2426" d="M3402.294,1098.887h127.656v-70.391h1.391
					c19.438,51.023,64.18,78.234,120.719,78.234c10.031,0,20.812-0.992,30.945-3.281V983.661
					c-17.055,4.672-32.414,7.781-50.297,7.781c-64.938,0-99.086-44.922-99.086-95.25V697.458h-131.328V1098.887"/>
				<path id="path78" inkscape:connector-curvature="0" fill="#EE2426" d="M3683.005,975.2
					c2.297,52.438,27.086,86.562,62.539,107.484c35.594,20.023,81.945,27.805,127.695,27.805
					c95.039,0,187.141-20.898,187.141-134.586V800.356c0-34.016,0-71.094,15.508-102.898h-132.336
					c-4.594,12.438-6.164,24.742-7.711,37.875c-34.023-35.523-84.258-49.391-132.297-49.391c-76.5,0-136.773,38.57-136.773,121.414
					c0,130.633,142.258,120.547,233.461,139.164c22.477,4.633,34.828,12.352,34.828,37.141c0,30.102-36.258,41.711-63.391,41.711
					c-36.375,0-59.516-16.289-65.758-50.172H3683.005 M3853.13,767.114c62.523,0,83.438,35.531,80.359,118.281
					c-18.5-11.484-52.547-13.945-81.18-21.625c-29.336-6.844-54.102-19.281-54.102-51.062
					C3798.208,780.286,3823.63,767.114,3853.13,767.114L3853.13,767.114"/>
				<path id="path80" inkscape:connector-curvature="0" fill="#EE2426" d="M4108.263,1098.887h127.656v-54.93h1.531
					c23.992,40.992,78.062,66.531,126.008,66.531c133.836,0,144.656-97.43,144.656-155.508V697.458h-131.406v194.102
					c0,54.961,6.172,110.602-65.797,110.602c-49.469,0-71.133-41.695-71.133-85.797V697.458h-131.516V1098.887"/>
				<path id="path82" inkscape:connector-curvature="0" fill="#EE2426" d="M4818.263,951.856
					c-0.805,34.016-30.969,58.047-64.172,58.047c-73.476,0-85.109-62.609-85.109-118.344c0-51.82,22.429-105.109,78.132-105.109
					c45.586,0,68.953,26.258,74.945,68.711h127.664c-11.602-107.398-95.078-169.219-201.852-169.219
					c-120.593,0-210.414,82.75-210.414,205.617c0,127.633,81.25,218.93,210.414,218.93c99.789,0,188.719-52.625,198.047-158.633
					H4818.263L4818.263,951.856"/>
				<path id="path84" inkscape:connector-curvature="0" fill="#EE2426" d="M5088.958,866.075
					c2.312-54.898,33.984-91.242,89.695-91.242c31.625,0,62.641,14.727,74.961,44.18h123.016
					c-24.008-92.867-109.898-133.07-199.586-133.07c-130.664,0-219.602,78.883-219.602,213.391
					c0,122.961,98.258,211.156,216.438,211.156c143.961,0,215.859-108.328,209.672-244.414H5088.958 M5252.114,939.387
					c-2.32,45.125-34.055,82.164-78.234,82.164c-46.312,0-77.156-33.219-84.922-82.164H5252.114L5252.114,939.387"/>
			</g>
		</g>
	</g>
</g>
</svg>
