<?xml version="1.0" encoding="utf-8"?>
<!-- Generator: Adobe Illustrator 16.0.0, SVG Export Plug-In . SVG Version: 6.00 Build 0)  -->
<!DOCTYPE svg PUBLIC "-//W3C//DTD SVG 1.1//EN" "http://www.w3.org/Graphics/SVG/1.1/DTD/svg11.dtd">
<svg version="1.1" id="Calque_1" xmlns="http://www.w3.org/2000/svg" xmlns:xlink="http://www.w3.org/1999/xlink" x="0px" y="0px"
	 width="100px" height="100px" viewBox="0 0 100 100" enable-background="new 0 0 100 100" xml:space="preserve">
<g>
	<path d="M6.3,36.728c0.21,0.997,0.858,1.555,1.811,1.779c0.445,0.105,0.907,0.123,1.367,0.102c1.815-0.082,2.642-0.913,2.668-2.713
		c0.018-1.237,0.014-2.475,0.017-3.712c0.002-1.115,0-1.096-1.098-1.12c-0.378-0.007-0.44,0.122-0.439,0.461
		c0.006,1.557-0.012,3.115-0.028,4.672c-0.003,0.356-0.138,0.669-0.442,0.86c-0.546,0.343-1.134,0.339-1.709,0.087
		c-0.523-0.229-0.703-0.686-0.704-1.23c-0.004-1.481-0.02-2.963-0.007-4.445c0.003-0.324-0.088-0.428-0.407-0.401
		c-0.348,0.031-0.701,0.019-1.052,0.025c0,1.512,0.001,3.022-0.005,4.533c0,0.14,0.083,0.309-0.088,0.418c0,0.122,0,0.244,0,0.367
		C6.338,36.474,6.277,36.622,6.3,36.728z"/>
	<path d="M64.886,30.25c0.415-0.446,0.813-0.907,1.218-1.361c-0.551,0-1.101,0-1.65,0c-0.1,0.535-0.484,0.96-0.605,1.527
		C64.219,30.337,64.599,30.558,64.886,30.25z"/>
	<path d="M6.23,50.833c0-0.002,0-0.004,0-0.006c-0.016-0.002-0.032-0.003-0.047-0.008c0,1.651,0,3.304,0,4.956l0.036,0.01
		l0.011-0.001c0-0.001,0-0.001,0-0.002C6.231,54.133,6.23,52.482,6.23,50.833z"/>
	<path d="M6.228,46.311c0-0.149,0.042-0.305-0.045-0.446c0,1.651,0,3.303,0,4.955c0.015,0.005,0.031,0.006,0.047,0.008
		C6.23,49.321,6.232,47.816,6.228,46.311z"/>
	<path d="M6.271,35.628c0.006-1.511,0.005-3.021,0.005-4.533c-0.031-0.001-0.062-0.002-0.093-0.004c0,1.651,0,3.304,0,4.955
		C6.354,35.937,6.271,35.768,6.271,35.628z"/>
	<path d="M62.145,52.287c-1.021-0.352-2.122-0.443-3.107-0.915c-1.436-0.687-2.627-1.602-2.797-3.337
		c-0.153-1.569,0.357-3.18,1.772-3.994c1.33-0.764,3.526-0.666,4.711,0.199c1.036,0.758,1.433,1.827,1.519,3.045
		c0.018,0.257,0.082,0.338,0.335,0.333c0.656-0.016,1.314-0.021,1.972-0.004c0.259,0.006,0.312-0.1,0.291-0.323
		c-0.037-0.38-0.033-0.765-0.098-1.139c-0.395-2.329-1.509-4.117-3.84-4.925c-1.137-0.394-2.318-0.447-3.523-0.343
		c-2.994,0.259-5.053,1.917-5.789,4.816c-0.59,2.319-0.349,4.487,1.398,6.303c0.97,1.009,2.139,1.707,3.437,2.208
		c0.97,0.374,2.001,0.542,2.968,0.916c1.996,0.771,3.176,2.206,3.275,4.37c0.096,2.08-0.648,3.766-2.588,4.771
		c-2.547,1.32-5.315,0.227-6.127-2.424c-0.184-0.601-0.316-1.221-0.297-1.847c0.016-0.491-0.164-0.634-0.622-0.575
		c-0.256,0.033-0.519,0.006-0.778,0.006c-0.321,0-0.645,0.024-0.963-0.006c-0.367-0.036-0.533,0.061-0.484,0.463
		c0.051,0.423,0.047,0.853,0.084,1.278c0.252,2.937,2.009,5.15,4.73,5.94c1.371,0.396,2.771,0.438,4.177,0.232
		c1.726-0.252,3.165-1.031,4.171-2.474c1.421-2.038,1.905-4.317,1.453-6.751C66.866,55.109,64.97,53.263,62.145,52.287z"/>
	<path d="M51.896,65.837c0-4.035,0-8.071,0-12.106c-0.021,0-0.041,0-0.062,0c0-3.072,0.004-6.144-0.001-9.215
		c-0.001-1.237-0.024-2.475-0.024-3.712c0-0.271-0.041-0.392-0.367-0.412c-0.72-0.043-1.438,0.065-2.151,0.006
		c-0.426-0.035-0.56,0.07-0.556,0.53c0.041,4.783,0.056,9.568,0.072,14.351c0.014,3.653,0.021,7.306,0.032,10.958
		c0,0.169,0.016,0.337,0.006,0.504c-0.015,0.238,0.047,0.353,0.322,0.346c0.564-0.013,1.129,0.018,1.696,0.02
		c1.07,0.004,1.07,0.002,1.035-1.086C51.895,65.959,51.896,65.898,51.896,65.837z"/>
	<path d="M14.702,38.487c0.396,0.011,0.473-0.124,0.467-0.492c-0.022-1.387-0.009-2.775-0.009-4.163
		c0.028-0.006,0.058-0.012,0.086-0.018c0.773,1.24,1.598,2.452,2.299,3.732c0.406,0.741,0.881,1.065,1.721,0.948
		c0.319-0.045,0.434-0.076,0.431-0.431c-0.02-2.002-0.01-4.005-0.01-6.008c0-0.987,0-0.968-0.998-0.991
		c-0.358-0.007-0.421,0.105-0.417,0.434c0.018,1.446,0.008,2.891,0.008,4.358c-0.197-0.073-0.231-0.237-0.307-0.357
		c-0.735-1.177-1.51-2.333-2.172-3.55c-0.388-0.711-0.854-1.005-1.653-0.891c-0.303,0.043-0.405,0.085-0.403,0.41
		c0.016,2.018,0.008,4.036,0.008,6.053C13.754,38.482,13.754,38.461,14.702,38.487z"/>
	<path d="M36.797,37.631c0.01-0.368-0.122-0.421-0.444-0.415c-1.132,0.018-2.264-0.003-3.395,0.014
		c-0.291,0.005-0.366-0.082-0.353-0.359c0.023-0.442,0.022-0.888,0-1.33c-0.012-0.263,0.073-0.332,0.33-0.328
		c0.841,0.016,1.682,0.006,2.524,0.006c0.936,0,0.924,0,0.907-0.945c-0.005-0.27-0.093-0.334-0.345-0.329
		c-0.718,0.014-1.438,0.014-2.156,0.002c-0.406-0.008-0.964,0.179-1.179-0.078c-0.206-0.247-0.047-0.786-0.08-1.193
		c-0.023-0.287,0.072-0.359,0.354-0.354c0.933,0.018,1.865,0.006,2.798,0.006c0.909,0,0.895,0,0.899-0.909
		c0.001-0.285-0.073-0.354-0.355-0.353c-1.605,0.014-3.211,0.017-4.817-0.001c-0.337-0.004-0.399,0.111-0.395,0.416
		c0.018,1.086,0.007,2.172,0.007,3.258c0,1.071,0.017,2.142-0.009,3.211c-0.009,0.4,0.072,0.547,0.514,0.537
		c1.453-0.031,2.906-0.011,4.358-0.011C36.795,38.478,36.773,38.478,36.797,37.631z"/>
	<path d="M62.229,38.485c1.451-0.017,2.902-0.007,4.355-0.007c0.895,0,0.881,0,0.889-0.88c0.003-0.301-0.08-0.386-0.382-0.381
		c-1.115,0.018-2.231-0.011-3.347,0.017c-0.381,0.01-0.469-0.122-0.444-0.466c0.026-0.38,0.028-0.765-0.001-1.145
		c-0.023-0.313,0.062-0.419,0.392-0.41c0.81,0.024,1.62,0.008,2.431,0.008c0.963,0,0.953,0,0.924-0.967
		c-0.009-0.241-0.078-0.312-0.316-0.307c-0.733,0.014-1.467,0.013-2.201,0.002c-0.393-0.005-0.918,0.173-1.146-0.071
		c-0.243-0.261-0.042-0.785-0.079-1.191c-0.027-0.284,0.076-0.367,0.359-0.361c0.916,0.017,1.834,0.006,2.751,0.006
		c0.916,0,0.903,0,0.907-0.905c0-0.279-0.066-0.359-0.354-0.357c-1.604,0.015-3.209,0.015-4.814,0.001
		c-0.288-0.002-0.391,0.059-0.385,0.37c0.021,1.101,0.009,2.202,0.009,3.302c0,1.101,0.019,2.201-0.011,3.301
		C61.756,38.42,61.883,38.489,62.229,38.485z"/>
	<path d="M51.254,36.492c0.049-1.153-0.398-1.871-1.46-2.27c-0.427-0.161-0.875-0.265-1.314-0.387
		c-0.412-0.114-0.833-0.197-1.211-0.403c-0.366-0.201-0.458-0.551-0.242-0.839c0.466-0.617,2.054-0.532,2.322,0.177
		c0.187,0.497,0.441,0.564,0.864,0.439c0.156,0,0.311-0.014,0.461,0.003c0.381,0.044,0.408-0.128,0.338-0.448
		c-0.196-0.876-0.73-1.423-1.576-1.671c-0.716-0.21-1.451-0.226-2.176-0.074c-0.861,0.182-1.528,0.632-1.749,1.541
		c-0.184,0.761,0.039,1.42,0.626,1.942c0.375,0.333,0.836,0.495,1.307,0.63c0.585,0.168,1.187,0.295,1.755,0.507
		c0.652,0.242,0.737,0.868,0.224,1.342c-0.72,0.662-2.245,0.43-2.542-0.478c-0.207-0.633-0.543-0.596-1.009-0.519
		c-0.166,0.027-0.334,0.055-0.5,0.054c-0.177,0-0.189,0.078-0.173,0.226c0.111,1.04,0.808,1.892,1.825,2.185
		c0.873,0.252,1.753,0.241,2.621-0.016C50.598,38.149,51.215,37.392,51.254,36.492z"/>
	<path d="M25.631,37.301c0.427,1.191,0.422,1.193,1.68,1.176c0.046-0.001,0.092-0.004,0.138,0c0.18,0.015,0.267-0.065,0.324-0.241
		c0.146-0.449,0.32-0.888,0.481-1.331c0.694-1.917,1.386-3.833,2.107-5.83c-0.478,0-0.89,0.019-1.299-0.007
		c-0.27-0.017-0.362,0.097-0.44,0.336c-0.496,1.518-1.007,3.031-1.522,4.543c-0.049,0.144-0.03,0.337-0.224,0.426
		c-0.569-1.65-1.131-3.292-1.704-4.929c-0.053-0.15-0.034-0.379-0.312-0.372c-0.471,0.013-0.943,0.004-1.397,0.004
		c-0.05,0.13-0.001,0.211,0.03,0.297C24.208,33.349,24.923,35.324,25.631,37.301z"/>
	<path d="M55.152,32.333c0.488-0.012,0.98,0.02,1.466-0.011c0.371-0.023,0.494,0.075,0.487,0.469
		c-0.024,1.512-0.01,3.025-0.01,4.537c0,1.198,0,1.188,1.204,1.157c0.267-0.007,0.335-0.09,0.331-0.344
		c-0.013-0.917-0.005-1.833-0.005-2.749c0-0.901,0.01-1.803-0.006-2.704c-0.005-0.277,0.069-0.385,0.358-0.364
		c0.334,0.023,0.672,0.005,1.008,0.005c0.848,0,0.831,0,0.851-0.829c0.007-0.335-0.069-0.44-0.424-0.435
		c-1.558,0.021-3.116,0.008-4.675,0.008c-0.943,0-0.936,0-0.881,0.974C54.869,32.269,54.938,32.338,55.152,32.333z"/>
	<path d="M54,38.11c-0.021-1.101-0.009-2.202-0.009-3.303c0-0.855,0.009-1.712-0.003-2.568c-0.006-0.378,0.17-0.893-0.072-1.095
		c-0.229-0.189-0.729-0.04-1.105-0.074c-0.32-0.03-0.371,0.107-0.369,0.391c0.01,1.957,0.006,3.914,0.006,5.871
		c0,1.163,0,1.154,1.167,1.153C53.903,38.484,54.006,38.424,54,38.11z"/>
	<path d="M22.35,38.485c0.309,0,0.376-0.097,0.373-0.386c-0.016-1.114-0.006-2.229-0.006-3.343c0-0.854,0-1.709,0-2.564
		c0-1.134,0-1.122-1.132-1.126c-0.306,0-0.375,0.089-0.373,0.381c0.012,1.969,0.007,3.938,0.007,5.906
		C21.217,38.497,21.217,38.484,22.35,38.485z"/>
	<path d="M93.723,59.861c-0.453-2.445-1.879-4.228-3.844-5.643c-0.74-0.531-1.553-0.941-2.377-1.342
		c0.104-0.194,0.268-0.256,0.402-0.348c0.657-0.454,1.258-0.968,1.781-1.572c1.537-1.77,2.145-3.782,1.537-6.078
		c-0.465-1.755-1.537-3.107-2.992-4.155c-2.744-1.978-5.842-2.526-9.137-2.152c-2.406,0.273-4.595,1.113-6.42,2.749
		c-3.036,2.724-3.414,6.749-0.659,9.806c0.702,0.779,1.542,1.375,2.448,1.949c-1.168,0.617-2.258,1.293-3.191,2.187
		c-2.129,2.036-3.151,4.483-2.587,7.438c0.403,2.109,1.634,3.735,3.31,5.009c3.033,2.308,6.512,3.097,10.265,2.87
		c3.187-0.193,6.07-1.195,8.526-3.266c1.369-1.156,2.348-2.598,2.812-4.356c0.061-0.225,0.018-0.488,0.219-0.668
		c0-0.765,0-1.53,0-2.294C93.744,59.979,93.734,59.924,93.723,59.861z M75.088,43.316c1.927-1.606,4.197-2.094,6.643-1.909
		c1.777,0.135,3.406,0.692,4.787,1.854c1.678,1.413,2.064,3.026,1.227,5.039c-0.385,0.921-1.184,1.509-1.995,2.03
		c-1.507,0.965-3.183,1.363-5.186,1.35c-1.864-0.053-3.831-0.467-5.481-1.871C72.91,47.96,72.893,45.148,75.088,43.316z
		 M88.381,65.126c-1.531,1.366-3.367,2.079-5.371,2.353c-2.834,0.387-5.553,0.039-8.012-1.529c-1.369-0.873-2.465-1.996-2.858-3.654
		c-0.343-1.446-0.036-2.76,0.81-3.951c1.229-1.729,2.994-2.645,4.979-3.209c1.08-0.307,2.184-0.436,3.014-0.416
		c2.703-0.002,4.961,0.539,6.934,1.979c1.311,0.958,2.26,2.188,2.453,3.865C90.547,62.447,89.737,63.914,88.381,65.126z"/>
	<path d="M19.205,47.115c-0.424-2.631-1.734-4.713-4.044-6.077c-2.788-1.646-5.875-1.657-8.978-1.505c0,2.11,0,4.221,0,6.332
		c0.086,0.141,0.045,0.297,0.045,0.446c0.004,1.505,0.002,3.01,0.002,4.516c0,0.002,0,0.004,0,0.006c0,1.649,0.001,3.3,0,4.949
		c0,0.001,0,0.001,0,0.002c0,0.53-0.004,1.062,0.001,1.591c0.014,1.304-0.036,2.607,0.026,3.911
		c0.006,1.803,0.017,3.606,0.012,5.409c0,0.275,0.036,0.402,0.361,0.391c0.625-0.021,1.251,0.011,1.878,0.021
		c0.712,0.011,0.717,0.012,0.716-0.725c-0.002-2.568-0.005-5.135-0.02-7.702c-0.001-0.301,0.066-0.424,0.396-0.449
		c1.702-0.131,3.336-0.543,4.883-1.274c2.101-0.992,3.681-2.482,4.448-4.729C19.505,50.551,19.481,48.833,19.205,47.115z
		 M16.671,49.37c-0.199,3.741-2.731,5.386-5.769,6.029c-0.46,0.098-0.938,0.116-1.405,0.185c-0.227,0.034-0.307-0.053-0.292-0.271
		c0.007-0.106-0.009-0.214-0.009-0.319c0-2.062,0-4.124,0-6.186c-0.01,0-0.021,0-0.031,0c0-2.124,0.001-4.248-0.001-6.371
		c0-0.242-0.028-0.459,0.345-0.411c1.701,0.224,3.313,0.685,4.709,1.73C16.098,45.16,16.792,47.1,16.671,49.37z"/>
	<path d="M47.785,68.406c-2.044-0.355-3.537-1.484-4.549-3.283c-0.823-1.459-1.235-3.038-1.465-4.686
		c-0.07-0.506,0.091-0.721,0.53-0.924c1.708-0.788,3.163-1.9,4.197-3.502c1.259-1.95,1.547-4.11,1.333-6.371
		c-0.292-3.071-1.564-5.604-4.193-7.317c-2.269-1.479-4.813-2.069-7.504-2.069c-0.229,0-0.462,0.035-0.687,0.006
		c-0.376-0.048-0.478,0.072-0.477,0.462c0.016,4.312,0.01,8.624,0.01,14.831c-0.033,2.46,0.148,6.815,0.058,11.171
		c-0.006,0.271,0.068,0.391,0.353,0.386c0.734-0.012,1.468-0.015,2.202-0.001c0.373,0.007,0.462-0.138,0.458-0.508
		c-0.024-1.789-0.013-3.578-0.008-5.367c0-0.153-0.068-0.328,0.146-0.436c0.538-0.268,0.849-0.119,0.918,0.462
		c0.008,0.062,0.008,0.122,0.015,0.183c0.227,1.885,0.737,3.682,1.749,5.302c1.579,2.526,3.875,3.951,6.821,4.354
		c0.334,0.047,0.463-0.029,0.447-0.388c-0.029-0.642-0.034-1.284-0.014-1.926C48.136,68.509,48.047,68.451,47.785,68.406z
		 M38.519,58.043c-0.371,0.077-0.526,0.024-0.521-0.432c0.026-2.367,0.012-4.736,0.012-7.104c-0.025,0-0.051,0-0.077,0
		c0-2.369,0.008-4.738-0.008-7.107c-0.003-0.408,0.097-0.493,0.493-0.389c2.054,0.536,3.88,1.441,5.268,3.108
		c2.146,2.575,2.364,7.987-1.672,10.506C40.929,57.304,39.77,57.781,38.519,58.043z"/>
	<path d="M32.076,53.531c-0.021,0-0.041,0.001-0.062,0.001c0-2.858,0.004-5.717-0.001-8.575c-0.003-1.574-0.028-3.148-0.021-4.722
		c0.002-0.315-0.105-0.395-0.392-0.385c-0.458,0.015-0.917,0.015-1.376,0.001c-1.811-0.051-3.378,0.577-4.761,1.707
		c-1.78,1.456-2.948,3.356-3.863,5.428c-0.902,2.041-1.493,4.181-1.924,6.365c-0.435,2.199-0.696,4.422-0.854,6.661
		c-0.159,2.239-0.256,4.478-0.258,6.722c-0.001,0.291,0.098,0.376,0.356,0.372c0.717-0.013,1.436-0.032,2.153-0.023
		c0.258,0.003,0.252-0.125,0.254-0.31c0.009-0.977,0.022-1.953,0.044-2.932c0.031-1.48,0.083-2.959,0.21-4.437
		c0.021-0.247,0.063-0.382,0.366-0.38c2.261,0.012,4.522,0.011,6.784,0.002c0.311-0.002,0.388,0.122,0.383,0.41
		c-0.012,0.658,0.009,1.314,0.01,1.972c0.002,1.743,0.006,3.486-0.004,5.229c-0.002,0.343,0.098,0.469,0.462,0.479
		c0.719,0.023,1.435,0.009,2.152-0.005c0.243-0.005,0.355-0.053,0.349-0.33c-0.013-0.55,0.023-1.099,0.021-1.649
		c-0.005-2.032-0.021-4.065-0.027-6.098C32.072,57.2,32.076,55.366,32.076,53.531z M28.723,55.873
		c-2.063-0.012-4.128-0.009-6.191-0.004c-0.225,0-0.365,0.01-0.308-0.311c0.572-3.195,1.384-6.315,2.92-9.203
		c0.636-1.197,1.444-2.264,2.5-3.128c0.296-0.244,0.633-0.42,0.979-0.584c0.306-0.143,0.418-0.118,0.416,0.268
		c-0.017,2.109-0.008,4.219-0.008,6.328c0.015,0,0.03,0,0.046,0c0,2.093-0.005,4.187,0.006,6.278
		C29.086,55.803,29.003,55.874,28.723,55.873z"/>
	<path d="M39.211,38.483c0.275-0.004,0.372-0.07,0.365-0.359c-0.019-0.793,0.009-1.588-0.015-2.382
		c-0.009-0.298,0.093-0.335,0.36-0.349c0.613-0.033,1.061,0.207,1.398,0.7c0.481,0.706,0.967,1.408,1.451,2.112
		c0.067,0.097,0.103,0.25,0.24,0.254c0.565,0.011,1.131,0.004,1.787,0.004c-0.835-1.152-1.32-2.426-2.486-3.232
		c0.217-0.07,0.406-0.122,0.588-0.192c0.591-0.224,1.005-0.62,1.183-1.241c0.407-1.422-0.428-2.625-1.932-2.693
		c-1.265-0.057-2.535-0.012-3.801-0.038c-0.345-0.008-0.311,0.182-0.311,0.402c0.003,1.954,0.001,3.91,0.001,5.865
		C38.04,38.51,38.04,38.5,39.211,38.483z M39.637,32.418c0.232-0.271,0.772-0.048,1.176-0.055c0.32,0,0.64-0.016,0.957,0.004
		c0.502,0.03,0.816,0.366,0.828,0.855c0.012,0.497-0.268,0.832-0.768,0.91c-0.665,0.104-1.336,0.045-2.005,0.066
		c-0.205,0.007-0.272-0.074-0.257-0.265c0.009-0.122,0-0.244,0.002-0.365C39.578,33.173,39.438,32.649,39.637,32.418z"/>
</g>
</svg>
