<?xml version="1.0" encoding="utf-8"?>
<!-- Generator: Adobe Illustrator 16.0.0, SVG Export Plug-In . SVG Version: 6.00 Build 0)  -->
<!DOCTYPE svg PUBLIC "-//W3C//DTD SVG 1.1//EN" "http://www.w3.org/Graphics/SVG/1.1/DTD/svg11.dtd">
<svg version="1.1" id="Calque_1" xmlns="http://www.w3.org/2000/svg" xmlns:xlink="http://www.w3.org/1999/xlink" x="0px" y="0px"
	 width="100px" height="100px" viewBox="0 0 100 100" enable-background="new 0 0 100 100" xml:space="preserve">
<g>
	<path d="M35.384,28.205l0.001-0.007L35.384,28.205z"/>
	<path d="M41.574,38.465c0.001,0.004,0.002,0.008,0.002,0.012c0.002-0.004,0.004-0.006,0.006-0.008
		c-0.002-0.008-0.005-0.014-0.008-0.021C41.574,38.455,41.574,38.459,41.574,38.465z"/>
	<path d="M35.599,60.981c0.003-0.016,0.004-0.031,0.006-0.047c-0.027,0.002-0.052,0.004-0.073,0.002
		C35.551,60.955,35.572,60.969,35.599,60.981z"/>
	<polygon points="35.602,45.418 35.6,45.418 35.602,45.42 	"/>
	<path d="M39.28,37.391c0.022,0.01,0.045,0.02,0.068,0.029c-0.018-0.021-0.032-0.039-0.047-0.06
		C39.295,37.373,39.288,37.383,39.28,37.391z"/>
	<polygon points="35.771,43.414 35.774,43.414 35.771,43.409 	"/>
	<path d="M35.768,51.776h0.003H35.768z"/>
	<path d="M29.997,30.961c0.003-0.002,0.007-0.002,0.011-0.004c-0.003-0.005-0.006-0.009-0.01-0.013
		C29.998,30.95,29.997,30.955,29.997,30.961z"/>
	<path d="M30.879,29.379c0.008-0.004,0.016-0.011,0.023-0.015c0.005-0.004,0.008-0.01,0.012-0.014h-0.001
		C30.901,29.358,30.89,29.368,30.879,29.379z"/>
	<rect x="30.244" y="33.366" width="0.005" height="0.005"/>
	<polygon points="30.917,28.853 30.921,28.85 30.916,28.853 	"/>
	<polygon points="32.332,57.637 32.336,57.635 32.332,57.635 	"/>
	<path d="M34.75,45.991c0.005-0.012,0.008-0.026,0.011-0.043h-0.001C34.758,45.965,34.754,45.978,34.75,45.991z"/>
	<path d="M34.718,52.356c0.007,0.002,0.012,0.004,0.019,0.006c0-0.002-0.001-0.002-0.002-0.004
		C34.729,52.358,34.724,52.356,34.718,52.356z"/>
	<path d="M35.598,61.094c0.001-0.008,0.002-0.019,0.002-0.025c-0.002,0-0.005,0-0.008,0C35.594,61.075,35.597,61.086,35.598,61.094z
		"/>
	<path d="M49.12,60.243c0.006-0.002,0.011-0.004,0.017-0.006c-0.003-0.004-0.007-0.008-0.011-0.012
		C49.124,60.231,49.122,60.237,49.12,60.243z"/>
	<path d="M48.96,50.428c0-0.008,0.001-0.017,0.003-0.021c-0.013,0.002-0.023,0.004-0.035,0.006
		C48.938,50.418,48.95,50.422,48.96,50.428z"/>
	<path d="M48.734,45.243c0.008,0.007,0.016,0.013,0.023,0.019c-0.004-0.01-0.009-0.019-0.013-0.025
		C48.743,45.239,48.739,45.241,48.734,45.243z"/>
	<path d="M48.407,48.284c-0.04,0-0.078-0.008-0.117-0.021C48.312,48.299,48.366,48.321,48.407,48.284z"/>
	<path d="M50.592,41.299c0.005-0.023,0.009-0.047,0.013-0.07c-0.003,0.006-0.005,0.012-0.007,0.018
		C50.59,41.26,50.59,41.278,50.592,41.299z"/>
	<path d="M49.49,60.057c0.004,0.002,0.008,0.006,0.012,0.008h0.001c-0.006-0.006-0.012-0.012-0.018-0.02
		C49.485,60.049,49.487,60.053,49.49,60.057z"/>
	<polygon points="49.234,42.073 49.239,42.077 49.241,42.073 49.242,42.073 49.243,42.071 49.241,42.073 	"/>
	<polygon points="70.147,61.897 70.146,61.897 70.159,61.903 70.147,61.893 	"/>
	<path d="M46.657,45.467c0.018-0.015,0.033-0.025,0.05-0.039c-0.017-0.002-0.032-0.004-0.05-0.008
		C46.657,45.435,46.657,45.45,46.657,45.467z"/>
	<polygon points="46.652,48.266 46.657,48.264 46.652,48.26 	"/>
	<path d="M60.461,40.055c-0.005,0.006-0.01,0.014-0.017,0.02l0.017-0.018V40.055z"/>
	<path d="M47.976,46.942c0.012,0.006,0.023,0.013,0.035,0.019c-0.004-0.011-0.008-0.021-0.014-0.029
		C47.99,46.935,47.983,46.938,47.976,46.942z"/>
	<path d="M47.968,61.95c-0.02,0.027-0.046,0.062-0.077,0.101C47.937,62.039,47.973,62.016,47.968,61.95z"/>
	<polygon points="48.043,60.43 48.048,60.43 48.046,60.428 	"/>
	<path d="M16.528,58.85c-0.041,0.006-0.077,0.006-0.111,0.004c0.013,0.021,0.027,0.043,0.039,0.068
		C16.482,58.897,16.508,58.877,16.528,58.85z"/>
	<polygon points="28.384,35.342 28.387,35.34 28.384,35.336 	"/>
	<polygon points="15.861,48.35 15.855,48.346 15.859,48.35 	"/>
	<polygon points="15.162,39.338 15.153,39.34 15.162,39.34 	"/>
	<path d="M13.689,43.989c-0.008,0-0.016-0.002-0.023-0.002c0.008,0.002,0.016,0.004,0.024,0.006
		C13.69,43.991,13.689,43.991,13.689,43.989z"/>
	<path d="M13.598,36.217c0,0.016,0,0.031,0,0.049c0.021,0,0.037-0.002,0.05-0.008C13.63,36.241,13.612,36.228,13.598,36.217z"/>
	<path d="M13.95,47.411c-0.006,0-0.014-0.002-0.021-0.002c0.002,0.007,0.003,0.015,0.004,0.019
		C13.938,47.424,13.943,47.416,13.95,47.411z"/>
	<path d="M15.884,41.393c-0.003-0.002-0.006-0.002-0.01-0.002c-0.001,0-0.002-0.002-0.002-0.002
		c0.001,0.008,0.002,0.014,0.004,0.021C15.879,41.403,15.881,41.397,15.884,41.393z"/>
	<polygon points="15.941,43.077 15.939,43.077 15.94,43.08 	"/>
	<polygon points="13.597,40.567 13.595,40.569 13.597,40.571 	"/>
	<path d="M19.206,60.965c-0.001,0.006-0.001,0.012-0.002,0.018c0.004-0.002,0.009-0.006,0.013-0.008
		C19.212,60.971,19.209,60.969,19.206,60.965z"/>
	<path d="M19.454,44.627c-0.034-0.017-0.056-0.027-0.071-0.052c0.011,0.035,0.031,0.066,0.071,0.093
		C19.454,44.653,19.454,44.641,19.454,44.627z"/>
	<path d="M18.689,61.565c-0.062,0.027-0.076,0.06-0.051,0.09C18.648,61.633,18.666,61.603,18.689,61.565z"/>
	<polygon points="18.453,62.237 18.451,62.237 18.452,62.237 	"/>
	<path d="M50.644,50.769c0.004,0.012,0.007,0.021,0.012,0.033c0.002,0,0.004,0.002,0.006,0.002
		C50.655,50.793,50.648,50.78,50.644,50.769z"/>
	<rect x="15.345" y="44.741" width="0.004" height="0.014"/>
	<path d="M40.357,30.678c0,0.002,0,0.002,0,0.002s0.013,0.014,0.015,0.018C40.368,30.69,40.362,30.684,40.357,30.678z"/>
	<path d="M40.28,24.685l0.017-0.031c-0.009,0.011-0.018,0.021-0.026,0.031C40.272,24.685,40.275,24.685,40.28,24.685z"/>
	<path d="M25.962,36.043c0.005,0.002,0.011,0.004,0.017,0.006h0.001c-0.004-0.008-0.007-0.017-0.01-0.023
		C25.968,36.03,25.964,36.036,25.962,36.043z"/>
	<polygon points="18.195,68.701 18.198,68.699 18.188,68.693 	"/>
	<polygon points="26.565,39.983 26.566,39.983 26.563,39.981 	"/>
	<polygon points="26.567,39.981 26.57,39.981 26.567,39.979 	"/>
	<polygon points="15.604,73.533 15.604,73.533 15.604,73.533 	"/>
	<polygon points="15.604,73.533 15.607,73.533 15.604,73.531 	"/>
	<path d="M13.345,38.719c-0.016,0.006-0.032,0.008-0.051,0.008c0.017,0,0.033,0.002,0.05,0.002
		C13.345,38.725,13.345,38.721,13.345,38.719z"/>
	<polygon points="13.597,61.651 13.59,61.657 13.598,61.664 	"/>
	<polygon points="13.038,69.525 13.046,69.529 13.045,69.525 	"/>
	<polygon points="15.605,68.097 15.595,68.099 15.605,68.104 	"/>
	<polygon points="13.603,61.644 13.597,61.651 13.609,61.653 	"/>
	<path d="M19.374,71.479c0.002,0,0.003,0.002,0.004,0.002c0.002-0.012,0.003-0.025,0.004-0.037
		C19.362,71.455,19.349,71.468,19.374,71.479z"/>
	<polygon points="82.024,48.768 82.025,48.764 82.013,48.766 	"/>
	<path d="M82.072,57.623c0.01-0.005,0.019-0.007,0.024-0.007c-0.006-0.012-0.013-0.022-0.019-0.034
		C82.063,57.596,82.066,57.608,82.072,57.623z"/>
	<path d="M81.629,35.496c0.001-0.005,0.003-0.009,0.004-0.011c-0.004-0.006-0.008-0.014-0.012-0.02
		C81.623,35.476,81.626,35.485,81.629,35.496z"/>
	<path d="M84.199,49.942c0.002,0.004,0.003,0.008,0.005,0.013c0.004-0.007,0.007-0.013,0.011-0.017c0-0.002,0-0.002,0-0.002
		s0-0.002-0.001-0.004C84.209,49.937,84.204,49.94,84.199,49.942z"/>
	<polygon points="83.455,45 83.459,44.993 83.453,44.998 	"/>
	<path d="M84.121,58.123c0.002,0.008,0.002,0.018,0.004,0.024c0.002-0.004,0.004-0.006,0.007-0.01
		c0.002-0.002,0.004-0.004,0.007-0.008c-0.009-0.006-0.016-0.017-0.021-0.025C84.118,58.11,84.12,58.116,84.121,58.123z"/>
	<path d="M81.469,35.327c0.026,0.011,0.05,0.021,0.069,0.035c-0.042-0.069-0.094-0.125-0.149-0.168
		C81.419,35.231,81.444,35.276,81.469,35.327z"/>
	<path d="M84.128,60.985c-0.003,0.004-0.007,0.008-0.01,0.013c0.006-0.005,0.013-0.007,0.019-0.009
		c-0.001-0.002-0.002-0.004-0.005-0.006C84.131,60.983,84.13,60.985,84.128,60.985z"/>
	<path d="M79.457,39.567c0.009-0.008,0.017-0.016,0.024-0.022c-0.012,0.006-0.023,0.012-0.037,0.02
		C79.449,39.565,79.453,39.567,79.457,39.567z"/>
	<path d="M77.747,38.315c0.02-0.02,0.035-0.041,0.049-0.063c-0.021,0.01-0.04,0.018-0.061,0.021
		C77.74,38.286,77.745,38.301,77.747,38.315z"/>
	<rect x="72.251" y="38.055" width="0.006" height="0.003"/>
	<path d="M81.183,40.812c0.007,0.002,0.012,0.004,0.021,0.008c-0.001-0.006-0.001-0.01-0.001-0.014
		C81.194,40.809,81.188,40.81,81.183,40.812z"/>
	<path d="M79.586,35.166c0.034,0.073,0.072,0.159,0.104,0.239c0.012-0.129,0.014-0.258-0.019-0.393
		C79.642,35.063,79.614,35.114,79.586,35.166z"/>
	<path d="M81.463,40.084c0.01,0.021,0.021,0.045,0.033,0.067c-0.007-0.022-0.019-0.045-0.031-0.067
		C81.464,40.084,81.463,40.084,81.463,40.084z"/>
	<path d="M79.697,39.729c0.008,0,0.016-0.002,0.022-0.004c-0.002-0.016-0.007-0.029-0.013-0.041
		C79.705,39.698,79.701,39.715,79.697,39.729z"/>
	<path d="M85.961,45.021c0.004-0.006,0.008-0.012,0.012-0.02c-0.003,0.002-0.006,0.002-0.01,0.002
		C85.963,45.01,85.962,45.016,85.961,45.021z"/>
	<path d="M87.645,57.481c0.008,0.002,0.016,0.004,0.021,0.006c-0.006-0.006-0.013-0.014-0.021-0.02
		C87.646,57.473,87.646,57.478,87.645,57.481z"/>
	<path d="M87.646,57.364c0,0.009,0,0.015,0,0.021c0.007-0.004,0.014-0.01,0.02-0.014C87.659,57.368,87.652,57.366,87.646,57.364z"/>
	<polygon points="86.968,62.655 86.976,62.67 86.975,62.655 	"/>
	<path d="M87.719,42.758l0.024-0.029c-0.011,0.01-0.02,0.021-0.026,0.027C87.718,42.758,87.718,42.758,87.719,42.758z"/>
	<path d="M50.661,53.899c0.003-0.008,0.005-0.018,0.007-0.026c-0.002-0.002-0.003-0.002-0.004-0.002
		C50.662,53.881,50.662,53.891,50.661,53.899z"/>
	<path d="M87.906,45.562c0.008,0.029,0.014,0.062,0.019,0.092c0.003-0.022,0.003-0.047,0.002-0.067
		c-0.004-0.017-0.009-0.029-0.015-0.045C87.907,45.508,87.856,45.588,87.906,45.562z"/>
	<path d="M86.778,50.819c0.005-0.008,0.009-0.014,0.013-0.02C86.787,50.806,86.782,50.813,86.778,50.819
		C86.778,50.821,86.778,50.819,86.778,50.819z"/>
	<polygon points="85.835,54.791 85.842,54.791 85.837,54.784 	"/>
	<path d="M85.459,57.131c0.007,0.002,0.013,0.002,0.02,0.004c-0.004-0.006-0.008-0.012-0.012-0.019
		C85.465,57.123,85.462,57.127,85.459,57.131z"/>
	<polygon points="69.573,62.403 69.573,62.403 69.572,62.403 	"/>
	<polygon points="86.808,62.405 86.809,62.405 86.808,62.403 	"/>
	<polygon points="86.808,49.271 86.811,49.271 86.808,49.269 	"/>
	<polygon points="86.473,48.928 86.481,48.922 86.475,48.914 	"/>
	<polygon points="85.03,52.039 85.042,52.041 85.041,52.039 	"/>
	<path d="M68.059,56.979c0.005,0.008,0.01,0.014,0.016,0.021c-0.002-0.011-0.006-0.021-0.009-0.033
		C68.063,56.971,68.062,56.975,68.059,56.979z"/>
	<path d="M57.426,39.53c-0.012,0.006-0.01,0.017-0.003,0.023c0.012,0.002,0.025,0.002,0.038,0.002c0.001,0,0.001-0.002,0.002-0.002
		c-0.005-0.006-0.009-0.012-0.011-0.019C57.442,39.534,57.434,39.532,57.426,39.53z"/>
	<polygon points="56.603,37.223 56.603,37.221 56.599,37.221 	"/>
	<polygon points="55.182,40.069 55.185,40.067 55.182,40.065 	"/>
	<polygon points="57.693,34.047 57.703,34.041 57.692,34.041 57.691,34.041 	"/>
	<polygon points="59.365,36.049 59.369,36.051 59.367,36.047 	"/>
	<path d="M57.672,34.041c0.007,0,0.014,0,0.021,0l0,0l0,0c0,0,0,0,0.001,0c0.007-0.002,0.014-0.005,0.02-0.007
		c0.019-0.012,0.04-0.021,0.063-0.028c-0.009,0-0.019,0-0.026,0C57.722,34.018,57.697,34.028,57.672,34.041z"/>
	<polygon points="55.179,40.063 55.181,40.065 55.182,40.062 	"/>
	<path d="M54.149,39.545c0.014-0.021,0.023-0.043,0.027-0.064c-0.006,0-0.011,0-0.016,0C54.157,39.502,54.152,39.522,54.149,39.545z
		"/>
	<path d="M51.334,51.226c0.001-0.002,0.002-0.002,0.003-0.004c-0.009-0.002-0.018-0.004-0.025-0.006
		C51.317,51.221,51.326,51.225,51.334,51.226z"/>
	<polygon points="51.162,48.851 51.165,48.851 51.162,48.844 	"/>
	<path d="M52.253,47.346L52.253,47.346L52.253,47.346z"/>
	<path d="M52.237,37.053c0.006,0,0.011,0.002,0.017,0.002c-0.005-0.006-0.01-0.01-0.015-0.014
		C52.239,37.045,52.237,37.049,52.237,37.053z"/>
	<path d="M55.015,39.741c0.005-0.004,0.01-0.01,0.016-0.016c-0.007,0.002-0.011,0.004-0.017,0.004
		C55.014,39.733,55.014,39.739,55.015,39.741z"/>
	<path d="M60.778,39.211c0.017-0.004,0.029-0.004,0.044-0.004c-0.006-0.021-0.011-0.044-0.014-0.066
		C60.8,39.166,60.79,39.188,60.778,39.211z"/>
	<polygon points="52.325,40.381 52.325,40.379 52.316,40.381 	"/>
	<path d="M68.066,44.668c0.002-0.004,0.003-0.006,0.004-0.011c0.019-0.022,0.038-0.039,0.061-0.051
		c-0.027,0.002-0.055,0.002-0.083,0.002c0.002,0.019,0.001,0.039-0.001,0.062C68.053,44.67,68.06,44.668,68.066,44.668
		L68.066,44.668z"/>
	<path d="M68.722,50.571c0.003-0.039,0.003-0.078,0.001-0.119c-0.032,0.031-0.064,0.062-0.097,0.087
		C68.667,50.547,68.699,50.557,68.722,50.571z"/>
	<rect x="68.151" y="60.812" width="0.009" height="0.007"/>
	<polygon points="67.396,45.737 67.396,45.735 67.388,45.735 	"/>
	<path d="M67.952,61.284c-0.039,0.005-0.079,0.003-0.118,0c-0.021,0.009-0.038,0.017-0.058,0.023
		c0.264,0.012,0.484-0.055,0.609-0.299c-0.055,0.028-0.105,0.055-0.154,0.08C68.216,61.198,68.121,61.271,67.952,61.284z"/>
	<path d="M66.418,37.131c0.057,0.042,0.087,0.109,0.126,0.246c0.029-0.009,0.045-0.025,0.023-0.072
		C66.539,37.235,66.481,37.176,66.418,37.131z"/>
	<path d="M68.062,50.524c0.001,0,0.002,0,0.003,0c0-0.002,0-0.004,0-0.006c-0.017,0.002-0.031,0.004-0.047,0.004
		c0.001,0.002,0.003,0.006,0.004,0.008C68.037,50.528,68.051,50.526,68.062,50.524z"/>
	<path d="M65.375,57.557c0.001-0.008,0.002-0.016,0.005-0.023c-0.01-0.004-0.021-0.006-0.031-0.006
		C65.356,57.536,65.366,57.547,65.375,57.557z"/>
	<path d="M62.716,39.897c0.004-0.008,0.007-0.016,0.009-0.022c-0.004,0.006-0.009,0.014-0.013,0.022
		C62.713,39.897,62.715,39.897,62.716,39.897z"/>
	<polygon points="61.283,36.358 61.298,36.356 61.283,36.353 	"/>
	<path d="M64.134,36.219c0.022-0.025,0.051-0.047,0.08-0.064c-0.016-0.004-0.031-0.012-0.049-0.021
		C64.157,36.161,64.148,36.194,64.134,36.219z"/>
	<path d="M64.655,61.563c0.021-0.004,0.037-0.006,0.057-0.008c-0.022-0.012-0.046-0.023-0.07-0.035
		C64.628,61.532,64.651,61.563,64.655,61.563z"/>
	<path d="M64.969,61.483L64.969,61.483L64.969,61.483z"/>
	<line fill="none" x1="29.66" y1="57.471" x2="29.66" y2="57.471"/>
	<path d="M41.717,35.971c0.02-0.031,0.028-0.062,0.029-0.09c0.042-0.228-0.172-0.396-0.191-0.609
		c-0.074-0.107-0.02-0.311-0.232-0.32c-0.057-0.086-0.068-0.203-0.182-0.248c-0.045-0.086-0.076-0.184-0.184-0.217
		c-0.125-0.047-0.267-0.062-0.346-0.192c-0.64-0.146-1.29-0.027-1.934-0.072c-0.835-0.058-1.699,0.158-2.497-0.26c0,0,0,0-0.001,0
		c-0.044-0.091-0.113-0.168-0.151-0.263c-0.011-0.057-0.02-0.11-0.027-0.168c0.016-0.531-0.031-1.061,0.022-1.59
		c0.002-0.023,0.005-0.049,0.008-0.072c0.158-0.168,0.259-0.367,0.312-0.592c0.094-0.098,0.187-0.197,0.28-0.297
		c0.108-0.064,0.218-0.129,0.327-0.191c0.188-0.014,0.376-0.026,0.564-0.041c0,0.002,0,0.002,0,0.002
		c0.063-0.002,0.127-0.002,0.189-0.002c0.001,0,0.001,0,0.001,0c0.385,0.011,0.774,0.058,1.155,0.021
		c0.504-0.051,1.017,0.104,1.513-0.07c0.382-0.117,0.817-0.162,0.907-0.672c0.06-0.059,0.118-0.117,0.177-0.176
		c0.271-0.23,0.183-0.539,0.175-0.828c0.001-0.084,0.001-0.168,0.002-0.252c0.014-0.654,0.031-1.312,0.04-1.965
		c0.016-0.172,0.028-0.347,0.022-0.521c0.013-0.149,0.016-0.301-0.073-0.44c0-0.002,0-0.002,0-0.002
		c-0.027-0.056-0.055-0.111-0.082-0.166c-0.001-0.136-0.071-0.242-0.146-0.349c0.007-0.119-0.022-0.215-0.154-0.25
		c0,0-0.001,0-0.002,0c-0.126-0.072-0.252-0.145-0.378-0.217c-0.063-0.178-0.218-0.062-0.325-0.102
		c-0.057-0.088-0.137-0.123-0.24-0.105l-0.017,0.031c-0.004,0-0.007,0-0.01,0c0.009-0.01,0.018-0.021,0.026-0.031
		c-0.109-0.016-0.218-0.043-0.327-0.043c-1.319-0.006-2.64,0.016-3.958-0.023c-0.503-0.014-0.95,0.171-1.428,0.232
		c-0.154,0.09-0.35-0.037-0.497,0.092c-0.163,0.084-0.327,0.168-0.491,0.254c-0.239-0.071-0.407,0.07-0.583,0.191
		c-0.029,0.02-0.059,0.039-0.089,0.061c-0.51,0.322-1.032,0.627-1.44,1.084c-0.024,0.029-0.049,0.058-0.072,0.084l0,0
		c-0.271,0.396-0.637,0.726-0.814,1.183c-0.024,0.016-0.032,0.037-0.025,0.062c-0.001,0-0.001,0-0.001,0.002
		c-0.109,0.16-0.218,0.32-0.254,0.517c-0.112,0.146-0.113,0.328-0.165,0.496c-0.055,0.139-0.109,0.276-0.164,0.416
		c-0.126,0.055-0.025,0.112-0.005,0.172c-0.235,0.629-0.177,1.28-0.153,1.932c-0.041,0.66-0.039,1.322-0.013,1.982
		c-0.167,0.455-0.474,0.756-0.965,0.821c-0.257,0.035-0.519,0.029-0.778,0.041c-0.335,0-0.67-0.002-1.004-0.002
		c-0.14,0-0.28,0-0.42,0c-0.027,0-0.056,0.002-0.083,0.002c-0.141-0.016-0.282-0.057-0.421,0.011c0,0,0,0-0.001,0
		c-0.392,0.159-0.695,0.414-0.85,0.821c-0.154,0.326-0.077,0.668-0.066,1.006c0.002,0.673,0.004,1.343,0.005,2.015
		c0.001,0,0.001,0,0.001,0c-0.032,0.447-0.111,0.897,0.054,1.338v0.002c0.13,0.385,0.409,0.615,0.78,0.75
		c0.038,0.07,0.102,0.086,0.175,0.086c0.758-0.002,1.518,0,2.276-0.004c0.49-0.004,0.896,0.139,1.133,0.604
		c0.055,0.127,0.096,0.246,0.093,0.396c-0.014,0.609-0.004,1.219-0.003,1.828c0.001,1.149,0.001,2.299,0.002,3.447v0.002
		c-0.046,0.803-0.05,1.604-0.011,2.409c-0.016,0.08-0.045,0.162-0.045,0.242c-0.008,2.351-0.013,4.701-0.018,7.051
		c0.023,0.197-0.068,0.396,0.003,0.591c-0.004,0.223-0.01,0.444-0.014,0.668c-0.002,0.151-0.006,0.303-0.006,0.453
		c0.002,1.188,0.005,2.373,0.008,3.559c0,0,0,0-0.001,0c0.102,0.273,0.135,0.586,0.419,0.76c0.038,0.117,0.121,0.172,0.244,0.172
		c0.086,0.048,0.172,0.097,0.258,0.146c1.227,0.055,2.453,0.043,3.681,0.02h0.001c0.277,0.062,0.531,0.021,0.757-0.157
		c0.003-0.002,0.005-0.002,0.008-0.002c0.14-0.029,0.241-0.101,0.268-0.25c0,0,0,0,0-0.003c0.078-0.024,0.124-0.081,0.151-0.155
		c0.117-0.088,0.137-0.22,0.147-0.353c-0.011-0.242,0.225-0.396,0.22-0.645c-0.017-0.955-0.022-1.912-0.032-2.867
		c0.09-0.271,0.028-0.553,0.029-0.826c0.012-1.848,0.012-3.695,0.015-5.543c0.008-1.004,0.015-2.006,0.022-3.01
		c0.001-0.055,0.003-0.111,0.004-0.166c0,0,0,0,0-0.002c-0.001-0.418-0.003-0.836-0.004-1.254l0,0
		c0.002-0.058,0.006-0.111,0.009-0.168c0.067-0.361,0.029-0.726-0.002-1.086c0.052-0.187,0.044-0.371,0.009-0.558
		c0.064-0.115,0.046-0.242,0.046-0.365c0.008-1.291,0.012-2.579,0.024-3.87c0.008-0.736,0.014-0.736,0.662-0.984
		c0.144-0.035,0.286-0.068,0.43-0.104c0.472,0.062,0.945,0.048,1.418,0.023c0.643,0.043,1.285,0.037,1.928,0.01
		c0.341,0.08,0.519-0.227,0.781-0.332c0.127-0.039,0.175-0.127,0.159-0.256c0.208-0.274,0.301-0.6,0.387-0.928
		c0.059-0.81,0.061-1.619,0.013-2.428C41.776,36.19,41.759,36.082,41.717,35.971z M40.357,30.678c0.005,0.006,0.01,0.014,0.015,0.02
		c-0.002-0.004-0.015-0.018-0.015-0.018S40.357,30.68,40.357,30.678z M25.979,36.049c-0.006-0.002-0.012-0.004-0.017-0.006
		c0.002-0.006,0.005-0.013,0.008-0.019C25.973,36.032,25.976,36.041,25.979,36.049L25.979,36.049z M26.565,39.983
		c-0.001,0-0.002-0.002-0.002-0.002C26.564,39.981,26.565,39.981,26.565,39.983L26.565,39.983z M26.567,39.981c0,0,0,0,0-0.002
		c0.001,0.002,0.002,0.002,0.003,0.002C26.569,39.981,26.568,39.981,26.567,39.981z M28.384,35.342c0-0.002-0.001-0.004-0.001-0.006
		c0.001,0.002,0.002,0.002,0.004,0.004C28.386,35.34,28.385,35.342,28.384,35.342z M29.997,30.961c0-0.006,0.001-0.011,0.001-0.017
		c0.004,0.004,0.007,0.008,0.01,0.013C30.003,30.959,30,30.959,29.997,30.961z M30.248,33.368c-0.001,0-0.002,0.003-0.003,0.005
		c-0.001,0-0.002,0-0.003,0c0.002-0.002,0.004-0.005,0.006-0.009C30.248,33.366,30.248,33.366,30.248,33.368z M30.902,29.364
		c-0.008,0.004-0.016,0.011-0.023,0.015c0.011-0.011,0.022-0.021,0.034-0.027h0.001C30.911,29.354,30.908,29.36,30.902,29.364z
		 M30.917,28.853L30.917,28.853c0,0,0.003-0.002,0.005-0.004C30.919,28.851,30.918,28.853,30.917,28.853z M32.332,57.637v-0.002
		c0.002,0,0.003,0,0.005,0C32.335,57.637,32.333,57.637,32.332,57.637z M34.718,52.356c0.006,0,0.011,0.002,0.017,0.002
		c0.001,0.002,0.002,0.002,0.002,0.004C34.729,52.36,34.725,52.358,34.718,52.356z M34.75,45.991
		c0.004-0.014,0.007-0.026,0.01-0.043h0.001C34.759,45.965,34.755,45.979,34.75,45.991z M35.384,28.205L35.384,28.205
		c0-0.003,0-0.005,0.001-0.007C35.384,28.2,35.385,28.202,35.384,28.205z M35.602,45.418c0,0.002,0,0.002,0,0.002
		c-0.001,0-0.001-0.002-0.002-0.002C35.601,45.418,35.601,45.418,35.602,45.418z M35.598,61.094
		c-0.001-0.008-0.004-0.019-0.006-0.025c0.003,0,0.006,0,0.008,0C35.6,61.075,35.599,61.086,35.598,61.094z M35.599,60.981
		c-0.027-0.014-0.048-0.026-0.067-0.045c0.021,0.002,0.046,0,0.073-0.002C35.603,60.95,35.602,60.967,35.599,60.981z M35.768,51.776
		L35.768,51.776h0.003C35.771,51.776,35.769,51.776,35.768,51.776z M35.771,43.414c0-0.003,0-0.003,0-0.005
		c0.001,0.002,0.002,0.002,0.003,0.005C35.773,43.414,35.772,43.414,35.771,43.414z M39.28,37.391
		c0.008-0.008,0.016-0.018,0.021-0.029c0.015,0.021,0.029,0.037,0.047,0.06C39.325,37.409,39.302,37.399,39.28,37.391z
		 M41.576,38.476c0-0.004-0.001-0.008-0.002-0.012c0-0.006,0-0.011,0-0.017c0.003,0.006,0.006,0.013,0.008,0.021
		C41.58,38.471,41.578,38.473,41.576,38.476z"/>
	<line fill="none" x1="19.208" y1="73.617" x2="19.208" y2="73.619"/>
	<path d="M18.371,68.583c-0.243-0.226-0.482-0.453-0.835-0.49c-0.327-0.123-0.648-0.277-1.014-0.181
		c-0.024-0.018-0.049-0.018-0.074,0c-0.507-0.293-1.011-0.024-1.517,0.013c-0.069-0.015-0.136-0.017-0.177,0.059
		c-0.402,0.049-0.805,0.097-1.09,0.438c-0.138,0.08-0.274,0.162-0.412,0.244c-0.443,0.295-0.769,0.69-1.001,1.166
		c-0.308,0.369-0.257,0.856-0.421,1.272c-0.01,0.338-0.143,0.681,0.048,1.008c0.071,0.382,0.11,0.771,0.367,1.091
		c-0.017,0.11,0.026,0.19,0.122,0.245c0.073,0.115,0.146,0.232,0.219,0.349c0.024,0.026,0.049,0.053,0.074,0.08
		c0.417,0.545,0.967,0.908,1.593,1.17c0.336,0.227,0.737,0.156,1.104,0.242c0.001-0.002,0.003-0.002,0.004-0.004l-0.003,0.004
		c0.389,0.225,0.757,0.104,1.122-0.05c0.02-0.006,0.038-0.014,0.056-0.024h0.001l0.037,0.016l0.037-0.016
		c0.838-0.004,1.493-0.373,2.022-1c0.027,0.004,0.047-0.006,0.061-0.029c0.2-0.162,0.43-0.299,0.515-0.565
		c0.014-0.111,0.081-0.189,0.162-0.261c0.226-0.098,0.145-0.334,0.228-0.498c0.106-0.121-0.04-0.307,0.107-0.418
		c0.031-0.043,0.083-0.08,0.09-0.125c0.13-0.852,0.079-1.698-0.312-2.467C19.229,69.351,18.958,68.812,18.371,68.583z
		 M13.038,69.525c0.003,0,0.005,0,0.008,0c0.001,0,0.001,0.002,0.001,0.004C13.043,69.527,13.041,69.527,13.038,69.525z
		 M15.605,68.097c0,0.002,0,0.004,0,0.008c-0.003-0.002-0.007-0.004-0.011-0.006C15.599,68.099,15.602,68.099,15.605,68.097z
		 M15.604,73.533L15.604,73.533L15.604,73.533L15.604,73.533c0-0.002,0-0.002,0-0.002c0.001,0,0.002,0.002,0.003,0.002
		C15.606,73.533,15.605,73.533,15.604,73.533z M18.195,68.701c-0.002-0.004-0.005-0.006-0.007-0.008
		c0.003,0.002,0.006,0.004,0.009,0.006C18.197,68.699,18.197,68.699,18.195,68.701z M19.377,71.48c-0.001,0-0.002-0.002-0.004-0.002
		c-0.024-0.012-0.011-0.023,0.008-0.035C19.38,71.455,19.379,71.47,19.377,71.48z"/>
	<line fill="none" x1="19.444" y1="60.817" x2="19.444" y2="60.817"/>
	<path d="M13.502,61.836c0.032,0.297,0.291,0.371,0.493,0.5c0.182,0.153,0.383,0.268,0.63,0.266
		c0.577-0.006,1.155-0.018,1.733-0.027c0.498,0.08,0.995-0.006,1.493,0.004c0.554,0.078,1.156-0.348,1.434-1.01
		c0.021-0.018,0.025-0.037,0.014-0.062c0.048-0.229,0.097-0.459,0.146-0.688c0.001-0.36,0.004-0.721,0.004-1.08
		c0.003-1.428,0.005-2.854,0.007-4.28c0.037-0.748,0.001-1.5,0.032-2.248c0.073-1.765,0.034-3.527,0.072-5.291
		c0.014-0.609-0.02-1.22-0.032-1.828c0.001-0.027,0.001-0.058,0.002-0.084c0.021-0.021,0.025-0.045,0.014-0.07
		c0-0.002,0-0.002,0-0.002c0.015-0.088,0.024-0.176,0.03-0.266c0.06-0.595,0.049-1.188,0.01-1.783
		c0.004-0.164-0.005-0.326-0.037-0.49c-0.001-0.162-0.001-0.324-0.002-0.484c0.019-0.192,0.052-0.387,0.053-0.579
		c0.011-1.349,0.026-2.697,0.017-4.048c-0.007-0.969,0.104-1.944-0.151-2.899c0.081-0.162,0.057-0.308-0.079-0.428
		c-0.03-0.123-0.028-0.265-0.179-0.318c-0.012-0.021-0.029-0.027-0.054-0.019c-0.112-0.395-0.422-0.526-0.78-0.534
		c-0.923-0.021-1.847-0.015-2.77-0.019c-0.479-0.012-0.962-0.09-1.421,0.121c-0.599,0.178-0.826,0.68-0.868,1.205
		c-0.088,1.107-0.062,2.223-0.019,3.334c-0.039,1.229-0.084,2.457-0.029,3.686c-0.128,0.773,0.007,1.55-0.011,2.324
		c-0.098,0.738-0.068,1.479,0,2.217c0.001,0.093,0.002,0.185,0.002,0.275c-0.088,0.166-0.079,0.348-0.08,0.527
		c-0.008,1.639-0.023,3.274-0.024,4.911c-0.001,1.681,0.014,3.357,0.021,5.037c-0.062,0.082-0.068,0.177-0.068,0.275
		c-0.003,0.998-0.008,1.996-0.011,2.994C13.093,61.325,13.214,61.621,13.502,61.836z M19.454,44.627c0,0.014,0,0.026,0,0.041
		c-0.04-0.025-0.061-0.058-0.071-0.093C19.397,44.6,19.419,44.61,19.454,44.627z M19.206,60.965c0.004,0.004,0.007,0.006,0.011,0.01
		c-0.004,0.002-0.009,0.006-0.013,0.008C19.205,60.976,19.205,60.971,19.206,60.965z M18.689,61.565
		c-0.024,0.037-0.041,0.066-0.051,0.09C18.614,61.625,18.628,61.594,18.689,61.565z M18.453,62.237L18.453,62.237h-0.002
		C18.451,62.237,18.452,62.237,18.453,62.237z M16.528,58.85c-0.021,0.027-0.046,0.049-0.072,0.072
		c-0.012-0.025-0.026-0.047-0.039-0.068C16.452,58.854,16.487,58.854,16.528,58.85z M15.941,43.077
		c-0.001,0-0.001,0.003-0.001,0.003c0-0.003-0.001-0.003-0.001-0.003C15.94,43.077,15.94,43.077,15.941,43.077z M15.875,41.391
		c0.004,0,0.007,0,0.01,0.002c-0.003,0.006-0.005,0.012-0.008,0.018c-0.002-0.008-0.003-0.014-0.004-0.021
		C15.873,41.389,15.874,41.391,15.875,41.391z M15.861,48.35c-0.001,0-0.001,0-0.002,0c-0.001-0.002-0.002-0.004-0.004-0.004
		L15.861,48.35z M15.35,44.741c0.001,0,0.001,0.002,0.002,0.005c-0.002,0.002-0.004,0.004-0.006,0.006c-0.001,0-0.003,0-0.005,0
		C15.344,44.748,15.347,44.743,15.35,44.741z M15.162,39.338v0.002c-0.003,0-0.005,0-0.008,0
		C15.157,39.34,15.159,39.338,15.162,39.338z M13.95,47.411c-0.006,0.005-0.012,0.013-0.018,0.017
		c-0.001-0.004-0.002-0.012-0.004-0.019C13.936,47.409,13.943,47.411,13.95,47.411z M13.689,43.989c0,0.002,0.001,0.002,0.001,0.004
		c-0.009-0.002-0.017-0.004-0.024-0.006C13.675,43.987,13.682,43.989,13.689,43.989z M13.598,36.217
		c0.015,0.012,0.032,0.024,0.05,0.041c-0.013,0.006-0.029,0.008-0.05,0.008C13.598,36.248,13.598,36.231,13.598,36.217z
		 M13.597,40.567c0,0.002,0,0.002,0,0.004c-0.001,0-0.001-0.002-0.002-0.002C13.596,40.569,13.596,40.569,13.597,40.567z
		 M13.597,61.651c0.002-0.002,0.004-0.006,0.006-0.008c0.002,0.004,0.005,0.008,0.007,0.01
		C13.604,61.653,13.602,61.653,13.597,61.651c0.001,0.004,0.001,0.008,0.001,0.013c-0.003-0.003-0.005-0.005-0.008-0.007
		C13.593,61.655,13.594,61.653,13.597,61.651z M13.345,38.719c0,0.002,0,0.006-0.001,0.01c-0.017,0-0.033-0.002-0.05-0.002
		C13.312,38.726,13.33,38.725,13.345,38.719z"/>
	<path d="M88.216,45.104c0.029-0.4-0.006-0.799-0.157-1.178c-0.067-0.41-0.14-0.818-0.313-1.201
		c-0.207-0.869-0.432-1.734-0.936-2.492c-0.061-0.145-0.081-0.313-0.252-0.387c-0.086-0.041-0.079-0.123-0.085-0.199h-0.001
		c-0.006-0.254-0.12-0.447-0.337-0.58c-0.182-0.311-0.402-0.594-0.65-0.856v0.002c-0.407-0.492-0.8-0.998-1.344-1.355
		c-0.031-0.045-0.062-0.092-0.093-0.139l0,0c-0.099-0.281-0.345-0.389-0.591-0.494c-0.148-0.098-0.306-0.186-0.446-0.293
		c-0.798-0.611-1.681-1.047-2.626-1.389c-1.052-0.381-2.134-0.582-3.237-0.66c-0.574-0.041-1.163-0.107-1.735,0.059
		c-1.405,0.056-2.739,0.396-4.005,1.008c-0.256,0.052-0.47,0.181-0.662,0.349c-0.41,0.219-0.896,0.317-1.177,0.74
		c-0.433,0.086-0.712,0.424-1.014,0.684c-0.78,0.676-1.015,0.736-1.953,0.275c-0.037-0.021-0.077-0.029-0.116-0.043
		c-0.121-0.154-0.191-0.359-0.406-0.425c-0.177-0.192-0.39-0.34-0.605-0.479c-0.224-0.254-0.532-0.392-0.812-0.56
		c-0.818-0.493-1.65-0.965-2.612-1.129c-1.354-0.561-2.782-0.588-4.206-0.514c-0.379,0.021-0.798,0-1.166,0.18
		c-0.751,0.203-1.541,0.256-2.257,0.59c-0.965,0.337-1.858,0.808-2.666,1.435c-0.114,0.008-0.186,0.078-0.238,0.17
		c-0.746,0.473-1.377,1.072-1.943,1.744H49.57c-0.305,0.396-0.609,0.791-0.914,1.186c-0.181,0.271-0.471,0.474-0.503,0.832h-0.001
		c-0.132,0.07-0.175,0.189-0.181,0.328l0,0c-0.184,0.326-0.392,0.642-0.493,1.008c-0.058,0.16-0.114,0.32-0.172,0.48v0.002
		c-0.214,0.151-0.153,0.406-0.212,0.611c-0.253,0.879-0.486,1.772-0.521,2.686c-0.048,1.277-0.01,2.559-0.009,3.838
		c-0.038,0.166-0.026,0.334,0.004,0.5c-0.058,0.726-0.057,1.449-0.005,2.174c0.001,0.086,0.002,0.17,0.003,0.256
		c-0.001,0.669-0.002,1.337-0.002,2.005c-0.006,1.139-0.017,2.274-0.017,3.411c0,0.732-0.057,1.466,0.006,2.199
		c-0.019,0.023-0.02,0.049-0.004,0.074c-0.082,0.506-0.043,1.018-0.052,1.525c-0.011,0.62,0.312,1.059,0.818,1.381
		c0.222,0.137,0.438,0.272,0.721,0.271c1.023-0.014,2.048-0.016,3.071-0.014c0.245,0,0.469-0.039,0.642-0.229
		c0.14-0.082,0.279-0.166,0.42-0.25c0,0,0,0,0.001,0l0,0c0.005,0,0.008-0.004,0.013-0.008c0.152-0.1,0.192-0.287,0.309-0.414
		c0.021-0.018,0.028-0.039,0.021-0.063c0.132-0.234,0.218-0.484,0.219-0.752c0.002-1.402-0.007-2.808-0.011-4.211
		c0.003-0.722,0.006-1.445,0.008-2.166c0-0.002,0.001,0,0.001-0.002c0.052-0.693,0.024-1.39,0.047-2.084
		c0.053-1.658,0.041-3.314,0.04-4.974c0-0.932,0.022-1.865,0.035-2.799c0.222-0.488,0.386-0.994,0.482-1.523
		c0.001,0,0.001-0.002,0.002-0.002c0.225-0.418,0.45-0.834,0.676-1.25c0.022-0.02,0.049-0.039,0.069-0.059
		c0.209-0.164,0.461-0.281,0.593-0.531c0-0.002,0.001-0.002,0.001-0.002c0.144-0.16,0.288-0.318,0.432-0.479
		c1.023-0.841,2.198-1.238,3.521-1.218c0.632,0.011,1.214,0.24,1.817,0.369c0.007-0.006,0.012-0.014,0.017-0.02v0.002l-0.017,0.018
		c0.473,0.24,0.934,0.498,1.354,0.822c0.041,0.119,0.132,0.162,0.25,0.166c0,0,0,0,0.001,0c0.078,0.064,0.157,0.129,0.235,0.193
		c0.223,0.274,0.512,0.496,0.679,0.817c0.022,0.172,0.12,0.31,0.226,0.439c0.029,0.125,0.064,0.246,0.191,0.312
		c0.257,0.396,0.4,0.84,0.554,1.279c0.003,0.025,0.011,0.051,0.025,0.074c0.034,0.373,0.214,0.713,0.206,1.102
		c-0.022,1.086-0.034,2.17-0.021,3.256c0.028,2.086-0.095,4.172-0.015,6.256C64.116,56.895,64.1,59,64.088,61.105
		c-0.001,0.135-0.002,0.281,0.123,0.379c0.278,0.783,0.765,1.297,1.658,1.289c0.83-0.01,1.658-0.025,2.488-0.02
		c0.431,0.002,0.853,0.01,1.21-0.279c0.002,0,0.005-0.002,0.007-0.002c0.266-0.117,0.502-0.267,0.584-0.572l-0.013-0.006
		c0,0,0,0,0.001,0c0-0.002,0-0.004,0-0.006c0.004,0.004,0.007,0.008,0.012,0.012c0.149-0.178,0.21-0.373,0.197-0.611
		c-0.028-0.606-0.045-1.217-0.041-1.823c0.026-4.029,0.062-8.058,0.087-12.084c0.008-1.175,0.014-2.347,0.426-3.472
		c0.193-0.475,0.389-0.948,0.584-1.424c0.016-0.014,0.02-0.033,0.012-0.053c0.253-0.34,0.507-0.68,0.759-1.021
		c0.056-0.034,0.115-0.063,0.165-0.106c0.726-0.607,1.484-1.16,2.419-1.398c0.672-0.17,1.359-0.268,2.052-0.149
		c0.434,0.075,0.856,0.198,1.284,0.301l0.002,0.016c0.149,0.121,0.311,0.22,0.509,0.229l0.03,0.018l0.036-0.002
		c0.211,0.213,0.469,0.344,0.757,0.42c0.046,0.246,0.278,0.338,0.419,0.506c0.191,0.166,0.385,0.334,0.575,0.5
		c0.319,0.351,0.561,0.752,0.769,1.175c0,0,0,0,0,0.002c0.364,0.541,0.44,1.186,0.618,1.789c0.11,0.375,0.211,0.766,0.204,1.18
		c-0.018,0.957-0.103,1.916-0.009,2.873c-0.014,0.149-0.038,0.301-0.038,0.451c-0.005,1.27-0.004,2.539-0.005,3.809
		c-0.001,0.062-0.003,0.121-0.004,0.182c-0.003,1.197-0.006,2.396-0.008,3.593h0.001c-0.001,0.307-0.001,0.612-0.002,0.92
		c-0.034,0.143-0.029,0.283,0.007,0.424c-0.019,1.084-0.038,2.17-0.048,3.252c-0.001,0.088,0.067,0.176,0.104,0.264
		c0.153,0.392,0.325,0.767,0.775,0.898c0.016,0.043,0.039,0.072,0.09,0.055v0.002c0.117,0.084,0.248,0.129,0.393,0.137
		c0.475,0.113,0.959,0.027,1.438,0.078c0.028-0.006,0.056-0.012,0.084-0.018c0.725-0.062,1.457,0.088,2.179-0.064
		c0.322-0.104,0.588-0.282,0.75-0.594c0.255-0.106,0.276-0.346,0.331-0.574c0.103-0.428,0.003-0.854-0.001-1.28
		c-0.029-3.062,0.024-6.123,0.078-9.185C88.171,49.11,88.065,47.106,88.216,45.104z M46.652,48.266c0-0.002,0-0.004,0-0.006
		c0.002,0.002,0.003,0.002,0.004,0.004C46.656,48.264,46.653,48.266,46.652,48.266z M46.657,45.467c0-0.017,0-0.031,0-0.047
		c0.018,0.004,0.033,0.006,0.05,0.008C46.689,45.44,46.675,45.452,46.657,45.467z M47.89,62.051
		c0.031-0.039,0.058-0.072,0.077-0.101C47.973,62.016,47.937,62.039,47.89,62.051z M47.976,46.942
		c0.008-0.004,0.014-0.008,0.021-0.012c0.006,0.01,0.01,0.02,0.014,0.029C48,46.955,47.987,46.948,47.976,46.942z M48.043,60.43
		c0.001-0.002,0.002-0.002,0.003-0.002s0.002,0.002,0.002,0.002C48.046,60.43,48.045,60.43,48.043,60.43z M48.29,48.264
		c0.039,0.014,0.077,0.021,0.117,0.021C48.366,48.321,48.312,48.299,48.29,48.264z M48.734,45.243
		c0.004-0.002,0.008-0.004,0.011-0.008c0.004,0.008,0.009,0.017,0.013,0.025C48.75,45.256,48.743,45.25,48.734,45.243z
		 M48.96,50.428c-0.011-0.006-0.021-0.01-0.032-0.017c0.012-0.002,0.022-0.004,0.035-0.006C48.961,50.411,48.96,50.42,48.96,50.428z
		 M49.12,60.243c0.002-0.006,0.004-0.012,0.006-0.018c0.004,0.004,0.008,0.008,0.011,0.012C49.13,60.239,49.125,60.241,49.12,60.243
		z M49.242,42.073L49.242,42.073c-0.001,0.002-0.002,0.002-0.003,0.005c-0.001-0.003-0.003-0.003-0.004-0.005
		C49.235,42.073,49.239,42.073,49.242,42.073c0,0,0-0.002,0.001-0.002C49.243,42.071,49.243,42.073,49.242,42.073z M49.501,60.063
		c-0.004-0.002-0.008-0.006-0.012-0.008c-0.002-0.004-0.004-0.008-0.005-0.012C49.491,60.053,49.497,60.059,49.501,60.063
		L49.501,60.063z M50.592,41.299c-0.002-0.021-0.002-0.039,0.006-0.053c0.002-0.007,0.004-0.013,0.007-0.019
		C50.6,41.252,50.596,41.274,50.592,41.299z M50.644,50.769c0.005,0.012,0.012,0.023,0.018,0.035c-0.002,0-0.004-0.002-0.006-0.002
		C50.65,50.791,50.647,50.78,50.644,50.769z M50.661,53.899c0.001-0.01,0.001-0.02,0.003-0.028c0.001,0,0.002,0,0.004,0.002
		C50.666,53.883,50.664,53.893,50.661,53.899z M51.162,48.851c0-0.002,0-0.006,0-0.008c0.001,0.002,0.002,0.004,0.003,0.008
		C51.164,48.851,51.163,48.851,51.162,48.851z M51.334,51.226c-0.008-0.002-0.017-0.006-0.022-0.01
		c0.009,0.002,0.018,0.004,0.025,0.006C51.336,51.225,51.335,51.225,51.334,51.226z M52.253,47.346L52.253,47.346L52.253,47.346
		L52.253,47.346z M52.237,37.053c0-0.004,0.002-0.008,0.002-0.012c0.005,0.004,0.01,0.008,0.015,0.014
		C52.248,37.055,52.243,37.053,52.237,37.053z M52.325,40.381c-0.003,0-0.006,0-0.009,0c0.003-0.002,0.006-0.002,0.009-0.002V40.381
		z M54.149,39.545c0.003-0.021,0.008-0.043,0.013-0.064c0.005,0,0.01,0,0.016,0C54.174,39.502,54.163,39.522,54.149,39.545z
		 M55.015,39.741c-0.001-0.002-0.001-0.008-0.001-0.012c0.006,0,0.01-0.002,0.017-0.004C55.024,39.731,55.02,39.737,55.015,39.741z
		 M55.179,40.063c0.001,0,0.002,0,0.003-0.002c0,0.002-0.001,0.002-0.001,0.004C55.18,40.065,55.18,40.063,55.179,40.063z
		 M55.182,40.069c0-0.002,0-0.002,0-0.004c0.001,0,0.002,0,0.003,0.002C55.184,40.067,55.183,40.067,55.182,40.069z M56.603,37.223
		c-0.002,0-0.002,0-0.004-0.002c0.002,0,0.003,0,0.004,0C56.603,37.223,56.603,37.223,56.603,37.223z M57.461,39.557
		c-0.013,0-0.026,0-0.038-0.002c-0.007-0.008-0.009-0.019,0.003-0.023c0.009,0.002,0.018,0.004,0.026,0.006
		c0.002,0.007,0.006,0.013,0.011,0.019C57.462,39.555,57.462,39.557,57.461,39.557z M57.712,34.034
		c-0.006,0.003-0.013,0.005-0.02,0.007c0.003,0,0.008,0,0.011,0c-0.003,0.002-0.006,0.004-0.01,0.006
		c-0.001-0.002-0.001-0.004-0.002-0.006c-0.007,0-0.014,0-0.021,0c0.024-0.013,0.051-0.023,0.077-0.035c0.009,0,0.019,0,0.026,0
		C57.752,34.014,57.729,34.022,57.712,34.034z M59.365,36.049c0.001,0,0.001-0.002,0.002-0.002s0.002,0.002,0.002,0.004
		C59.368,36.051,59.367,36.049,59.365,36.049z M60.778,39.211c0.012-0.021,0.021-0.045,0.03-0.07
		c0.003,0.023,0.008,0.045,0.014,0.066C60.808,39.207,60.795,39.207,60.778,39.211z M61.283,36.358c0-0.002,0-0.004,0-0.006
		c0.005,0.002,0.01,0.002,0.015,0.004C61.293,36.356,61.288,36.356,61.283,36.358z M62.716,39.897c-0.001,0-0.003,0-0.004,0
		c0.004-0.01,0.009-0.018,0.013-0.022C62.722,39.883,62.719,39.891,62.716,39.897z M64.134,36.219
		c0.015-0.023,0.022-0.058,0.031-0.086c0.018,0.01,0.033,0.018,0.049,0.021C64.185,36.172,64.157,36.192,64.134,36.219z
		 M64.655,61.563c-0.004,0-0.027-0.031-0.015-0.043c0.024,0.012,0.048,0.023,0.07,0.035C64.692,61.559,64.676,61.56,64.655,61.563z
		 M64.969,61.483L64.969,61.483C64.97,61.483,64.97,61.483,64.969,61.483L64.969,61.483z M65.375,57.557
		c-0.009-0.01-0.019-0.021-0.026-0.029c0.011,0,0.021,0.002,0.031,0.006C65.377,57.541,65.376,57.549,65.375,57.557z M66.544,37.377
		c-0.039-0.137-0.069-0.204-0.126-0.246c0.063,0.045,0.121,0.104,0.149,0.174C66.589,37.351,66.573,37.368,66.544,37.377z
		 M67.396,45.737c-0.002,0-0.005,0-0.008-0.002c0.003,0,0.006,0,0.008,0C67.396,45.737,67.396,45.737,67.396,45.737z M68.158,60.81
		c0.001,0,0.002,0.004,0.003,0.006c-0.003,0-0.006,0-0.01,0c-0.001,0-0.001-0.002-0.001-0.002
		C68.152,60.812,68.156,60.81,68.158,60.81z M68.048,44.608c0.028,0,0.056,0,0.083-0.002c-0.021,0.012-0.042,0.027-0.061,0.051
		c-0.001,0.005-0.002,0.007-0.004,0.011c0,0,0,0-0.001,0c-0.006,0-0.013,0.002-0.02,0.002C68.049,44.647,68.05,44.627,68.048,44.608
		z M68.074,57c-0.006-0.007-0.011-0.013-0.016-0.021c0.003-0.006,0.005-0.01,0.007-0.014C68.068,56.979,68.072,56.989,68.074,57z
		 M68.065,50.519c0,0.002,0,0.004,0,0.006c-0.001,0-0.002,0-0.003,0c-0.013,0.002-0.025,0.004-0.04,0.006
		c-0.001-0.002-0.003-0.006-0.004-0.008C68.034,50.522,68.05,50.521,68.065,50.519z M67.776,61.309
		c0.02-0.008,0.037-0.016,0.058-0.023c0.039,0.002,0.079,0.005,0.118,0c0.169-0.014,0.264-0.086,0.279-0.194
		c0.049-0.025,0.101-0.052,0.154-0.08C68.261,61.254,68.04,61.319,67.776,61.309z M68.722,50.571
		c-0.022-0.016-0.056-0.024-0.096-0.032c0.031-0.025,0.063-0.056,0.097-0.087C68.725,50.493,68.725,50.532,68.722,50.571z
		 M69.573,62.403L69.573,62.403L69.573,62.403L69.573,62.403z M72.255,38.059c-0.002-0.002-0.003-0.002-0.004-0.004h0.001
		c0.001,0.002,0.004,0.002,0.006,0.004C72.257,38.059,72.256,38.059,72.255,38.059z M77.747,38.315
		c-0.002-0.016-0.007-0.029-0.012-0.043c0.021-0.004,0.039-0.012,0.061-0.021C77.782,38.274,77.766,38.297,77.747,38.315z
		 M79.457,39.567c-0.004,0-0.008-0.002-0.013-0.004c0.014-0.008,0.025-0.014,0.037-0.02C79.473,39.553,79.466,39.56,79.457,39.567z
		 M79.586,35.166c0.028-0.052,0.057-0.103,0.085-0.152c0.031,0.135,0.029,0.264,0.019,0.393
		C79.658,35.325,79.62,35.239,79.586,35.166z M79.697,39.729c0.004-0.016,0.008-0.031,0.011-0.045
		c0.006,0.012,0.011,0.025,0.013,0.041C79.713,39.728,79.705,39.729,79.697,39.729z M81.183,40.812
		c0.006-0.002,0.012-0.004,0.02-0.006c0,0.004,0,0.008,0.001,0.014C81.194,40.815,81.189,40.813,81.183,40.812z M81.463,40.084
		c0,0,0.001,0,0.002,0c0.014,0.022,0.024,0.045,0.031,0.067C81.483,40.129,81.472,40.104,81.463,40.084z M81.469,35.327
		c-0.024-0.051-0.051-0.096-0.08-0.133c0.057,0.043,0.107,0.099,0.149,0.168C81.519,35.35,81.496,35.338,81.469,35.327z
		 M81.629,35.496c-0.003-0.011-0.006-0.021-0.008-0.029c0.004,0.006,0.008,0.014,0.012,0.02
		C81.632,35.487,81.63,35.491,81.629,35.496z M82.024,48.768l-0.012-0.002c0.004,0,0.009-0.002,0.013-0.002
		C82.025,48.766,82.025,48.766,82.024,48.768z M82.072,57.623c-0.006-0.015-0.009-0.027,0.007-0.041
		c0.006,0.012,0.013,0.022,0.019,0.034C82.091,57.616,82.082,57.618,82.072,57.623z M83.455,45
		c-0.001-0.002-0.001-0.002-0.002-0.002c0.002,0,0.004-0.003,0.006-0.005C83.458,44.996,83.456,44.998,83.455,45z M84.118,60.998
		c0.003-0.005,0.007-0.009,0.01-0.013c0.002,0,0.003-0.002,0.004-0.002c0.003,0.002,0.004,0.004,0.005,0.006
		C84.131,60.991,84.124,60.993,84.118,60.998z M84.132,58.139c-0.003,0.004-0.005,0.006-0.007,0.01
		c-0.002-0.008-0.002-0.018-0.004-0.025c-0.001-0.006-0.003-0.012-0.005-0.018c0.007,0.01,0.014,0.021,0.021,0.025
		C84.135,58.135,84.134,58.137,84.132,58.139z M84.215,49.938c-0.004,0.004-0.007,0.01-0.011,0.017
		c-0.002-0.005-0.003-0.009-0.005-0.013c0.005-0.002,0.01-0.006,0.015-0.01c0.001,0.002,0.001,0.004,0.001,0.004
		S84.215,49.937,84.215,49.938z M85.03,52.039c0.003,0,0.007,0,0.011,0l0.001,0.002C85.038,52.041,85.034,52.039,85.03,52.039z
		 M85.459,57.131c0.003-0.004,0.006-0.008,0.008-0.015c0.004,0.007,0.008,0.013,0.012,0.019
		C85.471,57.133,85.466,57.133,85.459,57.131z M85.835,54.791c0.001-0.002,0.002-0.005,0.002-0.007
		c0.001,0.003,0.003,0.005,0.005,0.007C85.839,54.791,85.837,54.791,85.835,54.791z M85.961,45.021
		c0.001-0.006,0.002-0.012,0.002-0.018c0.004,0,0.007,0,0.01-0.002C85.968,45.01,85.965,45.016,85.961,45.021z M86.473,48.928
		c0.001-0.004,0.001-0.01,0.002-0.014c0.002,0.004,0.005,0.006,0.007,0.008C86.479,48.924,86.476,48.926,86.473,48.928z
		 M86.778,50.819c0,0,0,0.002-0.001,0.002c0.005-0.008,0.01-0.016,0.014-0.021C86.787,50.807,86.783,50.812,86.778,50.819z
		 M86.808,62.405v-0.002C86.809,62.405,86.809,62.405,86.808,62.405L86.808,62.405z M86.808,49.271c0,0,0,0,0-0.002
		c0.001,0,0.002,0,0.003,0.002C86.81,49.271,86.809,49.271,86.808,49.271z M86.968,62.655c0.002,0,0.005,0,0.007,0
		c0.001,0.004,0.001,0.011,0.001,0.015C86.973,62.666,86.971,62.659,86.968,62.655z M87.646,57.364
		c0.007,0.002,0.014,0.004,0.02,0.006c-0.006,0.005-0.013,0.011-0.02,0.015C87.646,57.379,87.646,57.373,87.646,57.364z
		 M87.645,57.481c0.001-0.004,0.001-0.01,0.002-0.014c0.009,0.006,0.015,0.014,0.021,0.02C87.66,57.485,87.652,57.483,87.645,57.481
		z M87.719,42.758c-0.001,0-0.002,0-0.002-0.002c0.008-0.008,0.017-0.019,0.026-0.027L87.719,42.758z M87.925,45.653
		c-0.005-0.03-0.011-0.062-0.019-0.092c-0.05,0.025,0.001-0.055,0.006-0.021c0.006,0.016,0.011,0.028,0.015,0.045
		C87.927,45.606,87.927,45.631,87.925,45.653z"/>
	<line fill="none" x1="57.691" y1="34.041" x2="57.691" y2="34.041"/>
	<line fill="none" x1="57.692" y1="34.041" x2="57.691" y2="34.041"/>
</g>
</svg>
