<?xml version="1.0" encoding="UTF-8" standalone="no"?>
<!-- Generator: Adobe Illustrator 15.0.2, SVG Export Plug-In . SVG Version: 6.00 Build 0)  -->

<svg
   xmlns:dc="http://purl.org/dc/elements/1.1/"
   xmlns:cc="http://creativecommons.org/ns#"
   xmlns:rdf="http://www.w3.org/1999/02/22-rdf-syntax-ns#"
   xmlns:svg="http://www.w3.org/2000/svg"
   xmlns="http://www.w3.org/2000/svg"
   xmlns:xlink="http://www.w3.org/1999/xlink"
   xmlns:sodipodi="http://sodipodi.sourceforge.net/DTD/sodipodi-0.dtd"
   xmlns:inkscape="http://www.inkscape.org/namespaces/inkscape"
   version="1.0"
   id="Layer_1"
   x="0px"
   y="0px"
   width="100"
   height="98.422806"
   viewBox="0 0 99.999996 98.422797"
   enable-background="new 0 0 2481 2073"
   xml:space="preserve"
   inkscape:version="0.48.4 r9939"
   sodipodi:docname="logo.paris5.marker.svg"><metadata
     id="metadata15"><rdf:RDF><cc:Work
         rdf:about=""><dc:format>image/svg+xml</dc:format><dc:type
           rdf:resource="http://purl.org/dc/dcmitype/StillImage" /><dc:title></dc:title></cc:Work></rdf:RDF></metadata><defs
     id="defs13"><linearGradient
       id="SVGID_1_"
       gradientUnits="userSpaceOnUse"
       x1="263.8389"
       y1="-344.77591"
       x2="331.28519"
       y2="-344.77591"
       gradientTransform="matrix(1,0,0,-1,-247.5,-270)"><stop
         offset="0.0023"
         style="stop-color:#217939"
         id="stop60" /><stop
         offset="1"
         style="stop-color:#8DC63F"
         id="stop62" /></linearGradient><linearGradient
       inkscape:collect="always"
       xlink:href="#SVGID_1_"
       id="linearGradient4139"
       gradientUnits="userSpaceOnUse"
       gradientTransform="matrix(1,0,0,-1,-247.5,-270)"
       x1="263.8389"
       y1="-344.77591"
       x2="331.28519"
       y2="-344.77591" /><linearGradient
       id="SVGID_1_-1"
       gradientUnits="userSpaceOnUse"
       x1="51.847698"
       y1="65.255898"
       x2="77.012001"
       y2="41.551998"><stop
         offset="0"
         style="stop-color:#F19824"
         id="stop6" /><stop
         offset="0.1612"
         style="stop-color:#EE6E25"
         id="stop8" /><stop
         offset="0.3395"
         style="stop-color:#EB4727"
         id="stop10" /><stop
         offset="0.5157"
         style="stop-color:#E82828"
         id="stop12" /><stop
         offset="0.687"
         style="stop-color:#E61228"
         id="stop14" /><stop
         offset="0.851"
         style="stop-color:#E50429"
         id="stop16" /><stop
         offset="1"
         style="stop-color:#E50029"
         id="stop18" /></linearGradient><linearGradient
       id="SVGID_2_"
       gradientUnits="userSpaceOnUse"
       x1="23.0205"
       y1="56.362301"
       x2="6.3035002"
       y2="32.675301"><stop
         offset="0"
         style="stop-color:#F19824"
         id="stop25" /><stop
         offset="0.0189"
         style="stop-color:#F08F24"
         id="stop27" /><stop
         offset="0.1136"
         style="stop-color:#ED6926"
         id="stop29" /><stop
         offset="0.2157"
         style="stop-color:#EB4927"
         id="stop31" /><stop
         offset="0.325"
         style="stop-color:#E92E27"
         id="stop33" /><stop
         offset="0.4441"
         style="stop-color:#E71A28"
         id="stop35" /><stop
         offset="0.5781"
         style="stop-color:#E60B29"
         id="stop37" /><stop
         offset="0.7391"
         style="stop-color:#E50329"
         id="stop39" /><stop
         offset="1"
         style="stop-color:#E50029"
         id="stop41" /></linearGradient></defs><sodipodi:namedview
     pagecolor="#ffffff"
     bordercolor="#666666"
     borderopacity="1"
     objecttolerance="10"
     gridtolerance="10"
     guidetolerance="10"
     inkscape:pageopacity="0"
     inkscape:pageshadow="2"
     inkscape:window-width="1002"
     inkscape:window-height="902"
     id="namedview11"
     showgrid="false"
     fit-margin-top="0"
     fit-margin-left="0"
     fit-margin-right="0"
     fit-margin-bottom="0"
     inkscape:zoom="1.8215147"
     inkscape:cx="44.586428"
     inkscape:cy="16.993081"
     inkscape:window-x="163"
     inkscape:window-y="119"
     inkscape:window-maximized="0"
     inkscape:current-layer="Layer_1" /><path
     style="opacity:0.36213995;fill:#000000;fill-opacity:0.57534246;fill-rule:evenodd;stroke:none"
     inkscape:connector-curvature="0"
     id="path7"
     d="m 30.209036,98.422796 c 5.626411,-5.553785 9.034218,-10.843153 11.506341,-16.105002 1.833744,-3.903077 1.567241,-6.021578 4.572524,-11.674019 6.681738,-11.369765 9.706537,-13.496243 21.51007,-17.373402 6.864565,-1.582623 14.718733,-1.713817 21.487151,0.716469 5.534065,1.987211 8.750351,5.213924 9.994611,8.218802 1.016807,2.455504 0.916107,4.971064 -0.04462,7.494512 -1.002761,2.63388 -2.974216,5.333232 -6.887658,8.151162 -2.005011,1.443608 -4.228229,2.588461 -6.259488,3.440189 -2.055894,0.862004 -4.129904,1.39643 -6.213154,2.036432 -4.066587,1.249335 -8.226449,2.166641 -12.393591,3.082183 -12.412046,2.726586 -24.678961,5.712499 -37.272126,12.012674 z"
     clip-rule="evenodd"
     sodipodi:nodetypes="cscccssccsccc" /><path
     style="fill:#f5f5f5;fill-opacity:0.78431374;stroke:#e86c52;stroke-width:2.93298769000000004;stroke-linecap:round;stroke-linejoin:miter;stroke-miterlimit:10;stroke-opacity:1;stroke-dasharray:none"
     inkscape:connector-curvature="0"
     id="path5"
     d="M 30.134416,91.679377 C 28.016291,81.541793 24.281731,73.10552 19.758352,65.286719 16.403154,59.486935 12.516319,54.133673 8.9199986,48.509538 7.719467,46.63206 6.6834123,44.648623 5.5298244,42.700104 3.2231948,38.804023 1.3530149,34.286734 1.4718619,28.427076 1.5879664,22.70181 3.2863003,18.10919 5.7353248,14.354231 9.7632348,8.1781947 16.510136,3.1145772 25.562847,1.7838334 c 7.401689,-1.08800819 14.341307,0.7501202 19.262511,3.5558198 4.021402,2.2926179 7.135594,5.3551178 9.502761,8.9644128 2.470769,3.767167 4.172163,8.217672 4.314883,14.022741 0.07305,2.974145 -0.426462,5.728351 -1.130155,8.012944 -0.712153,2.312443 -1.857497,4.245431 -2.876506,6.310253 -1.989168,4.030474 -4.48305,7.723246 -6.985838,11.418397 -7.45475,11.006267 -14.451733,22.230688 -17.516087,37.610976 z"
     stroke-miterlimit="10"
     clip-rule="evenodd" /><g
     transform="matrix(0.53117292,0,0,0.53117292,3.4862504,0.37661966)"
     id="g3"><path
       d="m 96.219,53.488 c -1.83,-0.003 -3.656,0.022 -5.485,0.022 -0.802,0 -1.594,-0.008 -2.394,0.013 -0.307,0.008 -1.053,-0.18 -1.161,0.183 -0.1,0.333 0.053,0.749 0.022,1.095 -0.128,1.488 3.369,-0.238 3.449,0.936 0.104,1.967 10e-4,3.969 10e-4,5.938 0,0.472 -0.214,1.79 0.689,1.312 0.428,0.002 0.855,0.002 1.283,0.002 0.496,0 0.403,-0.036 0.403,-0.463 0,-1.908 0,-3.816 0,-5.725 0,-0.39 -0.268,-1.451 0.297,-1.443 0.872,0.02 1.809,-0.071 2.699,-0.071 0.562,0 0.354,-0.389 0.354,-0.894 10e-4,-0.243 0.148,-0.905 -0.157,-0.905 -1.112,-0.002 0.052,0 0,0 z"
       id="path5-4"
       inkscape:connector-curvature="0"
       style="fill:#1b1a1f" /><path
       d="m 20.061,68.512 c 0,-0.298 0.193,-1.283 -0.169,-1.283 -0.443,-0.062 -0.221,0.5 -0.223,0.787 -0.156,0.376 -0.46,0.034 -0.677,-0.055 -0.167,-0.068 -0.881,-0.269 -0.932,-0.374 -0.018,-0.046 -0.374,-0.208 -0.434,-0.177 -0.492,0.257 0.158,0.46 0.296,0.564 0.318,0.242 0.801,0.374 1.165,0.557 0.041,0.022 1.426,0.498 0.974,-0.019 0,-0.388 0.08,0.092 0,0 z"
       id="path7-4"
       inkscape:connector-curvature="0"
       style="fill:#1b1b1e" /><path
       d="m 17.626,67.409 c 0,0 10e-4,-0.001 0.002,-0.001 l -0.002,0.001 z"
       id="path9"
       inkscape:connector-curvature="0"
       style="fill:#1b1b1e" /><path
       d="m 61.016,53.512 c -2.089,0 -4.172,0 -6.256,0 -0.921,-0.353 -0.552,1.149 -0.552,1.618 0,1.303 0,2.605 0,3.908 0,1.173 -10e-4,2.346 -10e-4,3.519 0,0.689 0.506,0.426 1.087,0.423 0.638,-0.003 1.275,0 1.913,0.001 1.306,0.002 2.612,0.005 3.918,0.008 0.107,0.011 0.064,-1.217 0.064,-1.349 0,-0.633 -0.521,-0.403 -1.045,-0.403 -1.093,-0.001 -2.206,0.06 -3.297,-0.006 -0.473,-0.027 -0.276,-1.024 -0.272,-1.422 0.008,-0.671 -0.159,-0.83 0.552,-0.826 1.185,0.007 2.37,0.009 3.555,0.013 0.179,0.069 0.58,-1.774 -0.111,-1.774 -0.907,0 -1.824,-0.028 -2.736,-0.025 -0.357,0.002 -1.036,0.156 -1.247,-0.25 -0.002,-0.276 -0.179,-1.46 0.021,-1.643 0.227,-0.209 1.369,-0.025 1.682,-0.023 0.648,0.002 1.298,0.005 1.946,0.007 0.673,0.002 0.87,0.173 0.862,-0.526 -0.003,-0.171 0.126,-1.239 -0.083,-1.25 -0.813,0 0.103,0.006 0,0 z"
       id="path11"
       inkscape:connector-curvature="0"
       style="fill:#1b1a1f" /><path
       d="m 48.064,38.587 c -1.601,-0.363 -3.408,-0.998 -4.984,-0.129 -1.439,0.437 -2.159,2.829 -1.061,3.938 0.989,1 2.231,1.499 3.578,1.96 0.272,0.093 0.392,0.311 0.628,0.414 0.125,0.031 0.026,0.593 0.007,0.652 -0.134,0.409 -0.365,0.333 -0.665,0.473 -0.924,0.43 -1.623,-0.35 -2.484,-0.35 -0.241,-0.121 -1.492,-0.888 -1.336,-0.557 0,0.256 -0.151,1.863 0.09,1.946 0.252,0.087 0.464,0.216 0.702,0.314 0.24,0.248 0.836,0.327 1.166,0.385 0.627,0.299 1.946,0.281 2.587,0.024 1.013,-0.146 1.947,-0.72 2.308,-1.69 0.86,-2.319 -1.035,-3.772 -3.081,-4.293 -0.254,0.042 -1.209,-0.498 -1.327,-0.675 -0.737,-1.003 0.987,-1.233 1.546,-1.161 0.037,0.091 0.932,0.193 1.059,0.22 0.35,0.214 0.825,0.297 1.21,0.453 0.621,0.481 0.552,-1.81 0.057,-1.924 -0.599,-0.136 0.226,0.052 0,0 z"
       id="path13"
       inkscape:connector-curvature="0"
       style="fill:#1b1a1f" /><path
       d="m 35.889,50.193 c -0.289,1.378 1.32,2.363 2.32,1.278 0.72,-0.781 -0.079,-2.652 -1.208,-2.211 -0.377,0.301 -1.074,0.232 -1.112,0.933 -0.05,0.24 0.003,-0.055 0,0 z"
       id="path15"
       inkscape:connector-curvature="0"
       style="fill:#1b1a1f" /><path
       d="m 20.064,64.086 c -0.241,-0.454 -0.572,-0.71 -1.072,-0.391 -0.375,0.213 -0.344,0.823 -0.812,0.87 -0.496,0.049 -0.319,-0.437 -0.201,-0.652 0.373,-0.68 -0.5,-0.279 -0.531,0.144 -0.014,0.197 0.253,0.685 0.237,0.778 0.077,0.283 0.964,0.223 1.036,-0.055 -0.012,-0.077 0.431,-0.569 0.496,-0.652 0.454,-0.569 0.352,0.521 0.352,0.627 -0.027,0.054 0.682,-1.152 -0.082,0.059 -0.074,0.117 0.448,0.132 0.523,-0.063 0.079,-0.202 0.135,-0.445 0.054,-0.665 -0.058,-0.109 0.068,0.184 0,0 z"
       id="path17"
       inkscape:connector-curvature="0"
       style="fill:#1a1a1e" /><path
       d="m 20.004,62.031 c -0.398,-0.041 -0.817,-0.004 -1.217,-0.004 -0.204,0 -1.67,-0.191 -1.311,0.353 0.156,0.237 1.521,0.08 1.766,0.075 0.201,-0.005 0.491,0.047 0.68,0.041 0.236,-0.008 0.295,-0.365 0.082,-0.465 -0.019,-0.002 0.184,0.086 0,0 z"
       id="path19"
       inkscape:connector-curvature="0"
       style="fill:#1d1c20" /><path
       d="M 8.039,43.889 C 8.772,43.961 9.76,43.495 10.29,42.991 11.147,42.176 10.928,41.19 10.928,40.18 10.872,39.231 9.2,37.905 8.271,38.181 c -1.129,0 -2.266,-0.004 -3.399,-10e-4 -0.266,0 -0.532,10e-4 -0.797,0.002 -0.623,10e-4 -0.399,0.259 -0.399,0.79 0,0.657 0,1.314 0,1.972 0,1.314 0,2.629 0,3.943 0,0.657 0,1.314 0,1.971 0,0.263 0,0.526 0,0.789 0.354,0 0.708,0.001 1.063,0.001 0.323,0 0.894,0.106 1.211,-0.017 0.242,-0.094 0.097,-1.168 0.098,-1.379 0.004,-0.658 0.009,-1.316 0.014,-1.974 0.004,-0.605 0.266,-0.423 0.793,-0.432 0.395,-0.006 0.791,0.006 1.184,0.043 0.322,0.032 -0.656,-0.062 0,0 z M 6.047,41.93 c -0.002,-0.394 -0.194,-1.634 0.022,-1.96 0.216,-0.328 1.887,0.028 2.166,0.22 0.485,0.334 0.501,1.239 0.054,1.611 -0.299,0.25 -2.242,0.586 -2.242,0.129 -0.002,-0.313 0,0.075 0,0 z"
       id="path21"
       inkscape:connector-curvature="0"
       style="fill:#1b1a1f" /><path
       d="m 83.871,54.455 c -0.016,0.019 -0.016,0.019 0,0 l 0,0 z"
       id="path23"
       inkscape:connector-curvature="0"
       style="fill:#1b1a1f" /><line
       x1="75.849998"
       y1="55.509998"
       x2="75.851997"
       y2="55.508999"
       id="line25"
       style="fill:none" /><path
       d="m 75.174,56.834 c -0.183,0.156 -0.311,0.951 -0.289,1.167 0.047,0.465 0.112,0.918 0.193,1.365 0.104,0.78 0.573,1.513 1.109,2.057 0.49,0.764 2.119,1.693 3.053,1.604 0.743,0.073 1.45,0.087 2.197,0.009 0.429,0.174 1.081,-0.468 1.482,-0.449 0.687,-0.135 1.728,-1.031 2.002,-1.657 0.458,-0.687 0.641,-1.214 0.791,-2 0.286,-1.5 -0.422,-3.718 -1.854,-4.459 -0.061,-0.085 -0.216,-0.226 -0.326,-0.226 l -0.004,-0.004 c 0,-0.146 -1.378,-0.715 -1.545,-0.658 -0.622,-0.038 -1.175,-0.175 -1.808,-0.172 -0.289,10e-4 -1.107,-0.031 -1.344,0.153 -0.193,0.041 -0.854,0.139 -0.944,0.324 -0.263,0.11 -0.554,0.203 -0.787,0.37 0.034,-0.024 -0.312,0.312 -0.358,0.314 -0.635,0.153 -1.588,1.647 -1.568,2.262 -0.106,0.09 -0.004,-0.125 0,0 z m 2.519,0.068 c 0.705,-1.512 2.516,-1.819 3.965,-1.261 1.354,0.522 1.934,2.036 1.597,3.402 -0.382,1.552 -1.909,2.23 -3.403,2.041 -2.027,-0.256 -2.998,-2.383 -2.159,-4.182 0.518,-1.109 -0.505,1.084 0,0 z"
       id="path27"
       inkscape:connector-curvature="0"
       style="fill:#1b1a1f" /><path
       d="m 50.424,55.244 c 0.02,-0.484 -1.503,-1.231 -1.872,-1.33 -0.904,-0.637 -2.612,-0.403 -3.636,-0.403 -0.862,0 -1.723,-0.006 -2.583,-0.032 -0.618,-0.019 -0.331,1.228 -0.331,1.687 0,1.925 0,3.851 0,5.775 0,0.271 -0.2,1.892 0.03,2.048 0.199,0.136 0.895,-10e-4 1.125,-10e-4 0.531,-10e-4 1.062,-0.003 1.594,-0.003 2.093,-0.004 5.24,0.009 6.201,-2.381 0.44,-1.095 0.548,-2.128 0.38,-3.297 -0.088,-0.615 -0.359,-1.828 -0.908,-2.063 z m -2.493,5.408 c -0.574,0.447 -1.296,0.57 -2.005,0.588 -0.433,0.011 -0.866,-0.008 -1.299,0.005 -0.41,0.011 -0.228,-0.791 -0.227,-1.032 0.003,-0.924 0,-1.847 0.001,-2.77 0,-0.517 10e-4,-1.033 -0.001,-1.55 -0.003,-0.573 -0.026,-0.617 0.547,-0.616 1.359,0.002 2.896,-0.009 3.668,1.331 0.722,1.249 0.473,3.145 -0.684,4.044 -0.589,0.459 0.842,-0.654 0,0 z"
       id="path29"
       inkscape:connector-curvature="0"
       style="fill:#1b1a1f" /><path
       d="m 23.656,62.988 c 1.462,-0.002 2.978,0.062 4.416,-0.014 0.401,-0.061 0.794,-0.086 1.204,-0.172 0.297,-0.094 0.606,-0.18 0.907,-0.279 0.203,-0.021 0.542,-0.324 0.666,-0.324 0.12,-0.015 0.21,-0.072 0.271,-0.174 h 0.002 c 0.865,-0.489 1.109,-1.295 1.547,-2.099 0.413,-0.643 0.457,-2.401 0.064,-3.093 -0.262,-0.48 -0.392,-1.03 -0.72,-1.518 -0.246,-0.366 -0.758,-0.739 -1.096,-1 -1.212,-0.931 -3.14,-0.81 -4.577,-0.81 -0.479,0 -0.959,0 -1.438,0 -0.247,0 -1.159,-0.156 -1.339,-0.011 -0.349,0.281 -0.044,2.536 -0.044,3.007 0.001,1.176 0,2.351 -10e-4,3.526 0,0.311 -0.063,3.006 0.138,2.961 1.182,-0.002 -0.147,0.033 0,0 z m 2.339,-7.711 c 1.405,0.036 3.021,-0.186 3.96,1.117 0.756,1.049 0.721,2.82 -0.095,3.829 -0.506,0.626 -1.269,0.932 -2.055,0.998 -0.451,0.037 -0.905,0.019 -1.357,0.02 -0.586,10e-4 -0.574,-0.043 -0.57,-0.63 0.002,-0.527 -0.089,-5.34 0.117,-5.334 0.79,0.021 -0.174,-0.006 0,0 z"
       id="path31"
       inkscape:connector-curvature="0"
       style="fill:#1b1a1f" /><path
       d="m 71.459,54.523 0,0 c -0.412,-0.554 -1.29,-1.016 -2.012,-0.999 -1.352,0.029 -2.712,-0.039 -4.062,-0.043 -0.711,-0.002 -0.618,0.059 -0.616,0.737 0.002,0.871 0.003,1.742 0.005,2.613 0.002,1.715 0.003,3.431 -0.003,5.146 -0.001,0.277 -0.053,0.597 -0.051,0.86 0.002,0.262 0.919,0.14 1.109,0.141 0.144,10e-4 1.312,-0.075 1.331,-0.058 0,-0.933 0,-1.865 0,-2.798 0,-1.107 0.104,-0.826 0.994,-0.912 1.005,0.529 1.39,1.799 1.83,2.769 0.016,0.197 0.395,1.132 0.66,1.008 0.805,-0.006 1.609,-0.012 2.414,-0.02 0.028,-0.111 -0.005,-0.199 -0.099,-0.265 -0.179,-0.593 -0.544,-1.344 -0.868,-1.886 -0.358,-0.614 -0.51,-1.503 -1.121,-1.928 -0.573,-0.401 0.243,-0.68 0.541,-0.993 0.249,-0.262 0.553,-0.711 0.556,-1.095 0.004,-0.57 -0.059,-1.005 -0.157,-1.57 -0.01,-0.274 -0.451,-0.496 -0.451,-0.707 z m -2.749,2.848 c -0.477,0.051 -0.956,0.02 -1.435,0.029 -0.266,0.004 -0.127,-0.739 -0.127,-0.885 0,-0.201 -0.129,-1.089 0.035,-1.218 0.082,-0.064 0.787,-0.002 0.787,-0.01 0.636,0 1.476,-0.032 1.658,0.752 0.154,0.665 -0.236,1.261 -0.918,1.332 -0.474,0.051 0.634,-0.066 0,0 z"
       id="path33"
       inkscape:connector-curvature="0"
       style="fill:#1b1a1f" /><path
       d="m 71.459,54.523 0,0 c 0.006,-0.003 0.026,-0.02 0,0 z"
       id="path35"
       inkscape:connector-curvature="0"
       style="fill:#1b1a1f" /><path
       d="m 24.983,47.205 c -0.456,0.619 1.839,0.488 2.163,0.46 0.472,-0.041 0.23,-2.635 0.232,-3.052 0.001,-0.26 0.003,-0.521 0.004,-0.781 0.291,-0.08 0.628,-0.019 0.922,0.008 0.21,0.242 0.624,0.349 0.837,0.64 0.333,0.648 0.776,1.316 0.992,2.003 0.081,0.193 0.16,0.387 0.224,0.597 0.227,0.748 0.864,0.555 1.52,0.556 0.347,0 0.694,10e-4 1.042,0.003 0.485,10e-4 0.366,0.024 0.26,-0.268 0.009,-0.221 -0.317,-0.834 -0.459,-0.984 -0.277,-0.566 -0.459,-1.832 -1.038,-2.171 -0.18,-0.268 -0.324,-0.528 -0.538,-0.771 -0.346,-0.394 -0.027,-0.28 0.261,-0.613 -0.001,-0.008 -0.004,-0.013 -0.01,-0.012 0.42,0 0.794,-0.952 0.906,-1.286 0.157,-0.466 -0.261,-1.142 -0.125,-1.518 -0.481,-1.471 -1.939,-1.841 -3.324,-1.841 -1.178,0 -2.357,0 -3.535,0 -0.531,-0.382 -0.323,1.815 -0.323,2.048 0.001,2.322 0.079,4.661 -0.011,6.982 -0.096,0.13 0.004,-0.101 0,0 z m 2.556,-7.287 c 0.626,0.028 1.483,-0.156 2.011,0.283 0.476,0.396 0.445,1.241 -0.053,1.603 -0.305,0.222 -2.13,0.513 -2.13,0.08 -0.004,-0.282 -0.152,-1.98 0.172,-1.966 0.461,0.021 -0.158,-0.007 0,0 z"
       id="path37"
       inkscape:connector-curvature="0"
       style="fill:#1b1a1f" /><path
       d="m 14.703,40.024 c -10e-4,-0.004 -0.012,-0.036 0,0 l 0,0 z"
       id="path39"
       inkscape:connector-curvature="0"
       style="fill:#1b1a1f" /><path
       d="m 13.257,43.61 c -0.285,0.409 -0.738,1.406 -0.784,1.917 -0.302,0.249 -0.25,1.245 -0.554,1.401 -0.277,0.37 -0.429,0.72 0.153,0.717 0.606,-0.003 1.212,-0.005 1.818,-0.009 0.466,0 0.609,-0.803 0.792,-1.184 0.104,-0.217 0.026,-0.724 0.375,-0.686 0.409,0.037 0.829,0.031 1.238,0.031 0.782,0 1.661,0.084 2.434,-0.022 0.53,0.007 0.62,0.729 0.754,1.151 0.363,1.145 1.917,0.711 2.911,0.711 C 22.031,46.59 21.541,45.575 21.097,44.542 20.911,44.111 20.72,43.683 20.538,43.25 20.42,42.968 20.18,42.302 19.958,42.115 19.755,41.628 19.617,41.09 19.351,40.632 19.213,40.394 19.01,39.655 18.8,39.513 c -0.057,-0.048 -0.544,-1.032 -0.511,-1.162 -0.188,-0.341 -2.323,-0.32 -2.78,-0.212 -0.396,0.093 -0.661,1.499 -0.804,1.887 -0.135,0.052 -0.401,0.82 -0.445,0.968 -0.066,0.227 -0.188,0.814 -0.335,0.961 0.03,-0.079 -0.146,0.355 -0.111,0.278 -0.078,0.118 -0.595,1.377 -0.557,1.377 z m 3.608,-3.143 c 0.503,1.213 1.007,2.426 1.51,3.639 -0.96,0 -1.921,0 -2.882,0 0.457,-1.213 0.915,-2.426 1.372,-3.639 0.515,1.241 -0.469,1.246 0,0 z"
       id="path41"
       inkscape:connector-curvature="0"
       style="fill:#1b1a1f" /><path
       d="m 36.109,46.85 c 0,0.78 1.027,0.557 1.634,0.576 0.688,0.021 0.457,-0.237 0.472,-0.889 0.013,-0.562 -0.104,-1.129 -0.022,-1.684 0.173,-1.164 0.019,-2.455 0.02,-3.631 0,-0.625 10e-4,-1.25 0.002,-1.875 0,-0.06 0.087,-1.124 0.104,-1.102 -0.368,0.001 -0.736,0.002 -1.104,0.002 -0.245,0 -0.491,10e-4 -0.736,10e-4 -0.376,-0.122 -0.499,0.009 -0.368,0.392 0,0.912 0,1.824 0,2.737 -0.002,1.824 -0.002,3.649 -0.002,5.473 z"
       id="path43"
       inkscape:connector-curvature="0"
       style="fill:#d5003e" /><path
       d="m 35.982,38.305 c -10e-4,1.852 -10e-4,3.704 -0.002,5.556 0,0.926 -10e-4,1.853 -0.002,2.778 0,0.173 -0.113,0.839 0.057,0.966 0.23,0.173 0.99,0.026 1.27,0.026 1.072,0.002 1.032,-0.009 1.029,-1.093 -0.002,-0.933 -0.003,-1.866 -0.004,-2.799 -10e-4,-1.81 0.074,-3.637 -0.012,-5.445 -0.38,0.108 -0.105,4.258 -0.105,4.801 10e-4,0.888 -0.062,1.776 -0.005,2.657 0.034,0.522 -0.017,1.044 0.003,1.566 0.011,0.268 -0.659,0.102 -0.82,0.104 -0.567,0.007 -0.894,0.066 -1.235,-0.25 -0.331,-0.308 -0.046,-2.207 -0.046,-2.668 0,-2.085 0,-4.17 0,-6.255 -0.091,-0.001 -0.128,-0.035 -0.128,0.056 -0.002,3.042 0,-0.018 0,0 z"
       id="path45"
       inkscape:connector-curvature="0"
       style="fill:#d30438" /><path
       d="m 36.109,38.249 c 0.736,-0.002 1.473,-0.003 2.209,-0.005 -0.026,-0.164 -1.316,-0.063 -1.491,-0.063 -0.094,0 -1.065,0.077 -0.718,0.068 0.736,-0.002 -0.038,10e-4 0,0 z"
       id="path47"
       inkscape:connector-curvature="0"
       style="fill:#7c2d49" /><path
       d="m 38.212,62.482 c 0,0.506 -0.177,0.147 -0.495,0.289 -0.183,0.082 -1.454,0.142 -1.582,-0.008 -0.223,-0.258 -0.027,-1.578 -0.027,-1.913 0,-0.77 0,-1.538 0,-2.308 0,-1.443 -0.048,-2.896 -0.002,-4.339 0.006,-0.183 0.182,-0.184 0.142,-0.402 -0.066,-0.362 -0.271,-0.191 -0.271,0.132 0,0.797 0,1.595 0,2.392 0,1.44 -10e-4,2.881 0.003,4.322 0.003,0.754 0.007,1.509 0.01,2.264 0.775,0.002 1.551,0.004 2.327,0.005 0.083,-3.092 0.011,-6.195 0,-9.288 -0.196,0 -0.105,7.992 -0.105,8.854 z"
       id="path49"
       inkscape:connector-curvature="0"
       style="fill:#cd033d" /><path
       d="m 38.148,53.527 c -0.241,-10e-4 -2.169,-0.094 -2.153,0.104 0.774,-0.021 1.55,-0.003 2.324,-0.003 -0.015,-0.107 -0.072,-0.14 -0.171,-0.101 -0.662,-0.004 0.069,0 0,0 z"
       id="path51"
       inkscape:connector-curvature="0"
       style="fill:#b01337" /><path
       d="m 36.115,62.98 c 0.234,0.001 2.184,0.102 2.204,-0.064 -0.775,-10e-4 -1.551,-0.003 -2.327,-0.005 0.019,0.064 0.06,0.086 0.123,0.069 0.693,0.002 -0.051,0 0,0 z"
       id="path53"
       inkscape:connector-curvature="0"
       style="fill:#7e2c4a" /><path
       d="m 19.559,60.537 c -0.001,10e-4 -0.006,0.004 0,0 l 0,0 z"
       id="path55"
       inkscape:connector-curvature="0"
       style="fill:#1b1a1e" /><path
       d="m 19.778,60.424 c -0.002,10e-4 -0.009,0.003 0,0 l 0,0 z"
       id="path57"
       inkscape:connector-curvature="0"
       style="fill:#1b1a1e" /><path
       d="m 18.574,59.717 c -0.168,0.156 -0.329,0.358 -0.504,0.498 -0.177,0.046 -0.407,0.16 -0.506,0.326 -0.093,0.111 -0.206,0.719 0.135,0.455 0.274,-0.213 0.879,-0.831 1.208,-0.568 0.209,-0.042 0.366,0.341 0.649,0.109 0.459,-0.098 0.499,-0.663 0.501,-1.021 0.005,-0.787 -1.25,-0.503 -1.847,-0.501 -0.183,0 -0.536,-0.056 -0.699,0.087 -0.062,0.1 -0.108,0.317 0.054,0.353 0.366,0.079 1.009,-0.213 1.009,0.262 z m 0.619,-0.276 c 0.109,0.015 0.415,-0.062 0.492,0.022 0.147,0.162 0.015,0.577 -0.169,0.662 -0.573,0.267 -0.761,-0.741 -0.323,-0.684 0.045,0.006 -0.184,-0.024 0,0 z"
       id="path59"
       inkscape:connector-curvature="0"
       style="fill:#1b1a1e" /><path
       d="m 17.729,57.994 c 0.297,-0.128 0.569,-0.244 0.879,-0.344 0.281,-0.092 0.714,-0.508 0.998,-0.488 1.377,-0.371 -0.853,-1.136 -1.325,-1.264 -0.113,-0.048 -0.533,-0.321 -0.657,-0.281 -0.175,-0.106 -0.168,0.321 -0.102,0.369 0.643,0 1.078,0.962 0.604,1.402 -0.303,0.195 -1.068,0.452 -0.397,0.606 0.114,-0.049 -0.068,-0.015 0,0 z m 0.855,-1.558 c 0.299,0.122 0.599,0.245 0.898,0.367 -0.124,0.056 -0.737,0.43 -0.865,0.354 -0.103,-0.059 -0.033,-0.635 -0.033,-0.721 0.302,0.123 0,0.228 0,0 z"
       id="path61"
       inkscape:connector-curvature="0"
       style="fill:#1a1a1d" /><path
       d="m 19.838,53.512 c -0.36,0.038 -0.759,-0.092 -1.106,0 -0.265,0.015 -1.523,-0.201 -1.226,0.336 0.097,0.16 0.48,0.063 0.645,0.063 0.647,0 0.268,0.312 0.475,0.711 -0.202,0.629 1.075,0.552 1.323,0.271 0.216,-0.246 0.329,-1.434 -0.111,-1.381 -0.222,0.023 0.292,-0.035 0,0 z m -0.506,1.227 c -0.517,-0.002 -0.561,-0.789 -0.005,-0.841 0.212,0.061 0.429,-0.101 0.399,0.264 -0.02,0.257 -0.069,0.578 -0.394,0.577 z"
       id="path63"
       inkscape:connector-curvature="0"
       style="fill:#1c1b1e" /><path
       d="m 36.131,54.127 c -0.233,0.148 -0.021,2.171 -0.021,2.493 0,1.025 0,2.051 0,3.077 0,0.513 0,1.025 0,1.538 0,0.379 0.128,0.974 0.008,1.337 -0.152,0.458 1.524,0.116 1.754,0.176 0.654,0.165 0.342,-1.38 0.342,-1.806 0,-1.026 0,-2.053 0,-3.079 0,-1.027 0,-2.054 0,-3.08 0,-0.257 0,-0.514 0,-0.771 0.128,-0.389 -0.004,-0.518 -0.398,-0.386 -0.531,0 -1.062,-10e-4 -1.593,-0.002 0.007,0.188 0.112,0.369 -0.092,0.503 -0.034,0.021 0.215,-0.141 0,0 z"
       id="path65"
       inkscape:connector-curvature="0"
       style="fill:#d5003e" /></g></svg>