<?xml version="1.0" encoding="utf-8"?>
<!-- Generator: Adobe Illustrator 16.0.0, SVG Export Plug-In . SVG Version: 6.00 Build 0)  -->
<!DOCTYPE svg PUBLIC "-//W3C//DTD SVG 1.1//EN" "http://www.w3.org/Graphics/SVG/1.1/DTD/svg11.dtd">
<svg version="1.1" id="Calque_1" xmlns="http://www.w3.org/2000/svg" xmlns:xlink="http://www.w3.org/1999/xlink" x="0px" y="0px"
	 width="100px" height="100px" viewBox="0 0 100 100" enable-background="new 0 0 100 100" xml:space="preserve">
<path fill="#D0171F" d="M0,0c5.847,0,11.694,0,17.541,0c12.484,0,24.968,0,37.452,0C66.528,0,78.064,0,89.6,0
	c3.042,0,6.084,0,9.126,0c0.178,0,1.14-0.135,1.274,0s0,1.097,0,1.274c0,8.217,0,16.435,0,24.652c0,12.958,0,25.916,0,38.874
	c0,10.114,0,20.228,0,30.341c0,1.195,0,2.391,0,3.585c0,0.178,0.135,1.14,0,1.274s-1.097,0-1.274,0c-1.194,0-2.39,0-3.585,0
	c-10.113,0-20.227,0-30.341,0c-12.958,0-25.916,0-38.874,0c-8.217,0-16.435,0-24.652,0c-0.177,0-1.139,0.135-1.274,0
	s0-1.097,0-1.274c0-3.042,0-6.084,0-9.126c0-11.535,0-23.071,0-34.607c0-12.483,0-24.967,0-37.452C0,11.694,0,5.847,0,0z"/>
<g>
	<path fill="#FFFFFF" d="M19.159,25.926c0,0.739-0.28,1.369,0.596,1.363c0.348-0.002,0.697,0,1.045,0.002
		c0.292,0,0.311-0.46,0.013-0.46c-0.468,0-1.291,0.197-1.116-0.545c0.072-0.304,0.514-0.193,0.726-0.193c0.274,0,0.274-0.43,0-0.43
		c-0.153,0.003-0.505,0.06-0.641-0.028c-0.145-0.093-0.147-0.499,0.009-0.583c0.259-0.138,1.153,0.219,1.159-0.249
		c0.008-0.375-1.016-0.282-1.279-0.279C18.854,24.535,19.243,25.926,19.159,25.926C19.159,26.292,19.172,25.926,19.159,25.926z"/>
	<path fill="#FFFFFF" d="M24.821,27.269c0-0.75-0.547-0.286-1.095-0.494c-0.312-0.561,0.037-1.557-0.104-2.188
		c-0.371,0.004-0.48-0.126-0.511,0.297c0.004,0.53,0.008,1.061,0.012,1.591c0.004,0.463-0.201,0.787,0.344,0.837
		C23.918,27.352,24.374,27.337,24.821,27.269C24.821,27.134,24.256,27.355,24.821,27.269z"/>
	<path fill="#FFFFFF" d="M48.232,27.269c0.638,0.109,0.543-0.171,0.534-0.741c-0.01-0.609,1.031-0.61,1.02,0
		c-0.01,0.569-0.102,0.851,0.534,0.741c0.042-0.696,0.228-1.928-0.014-2.581c-0.054-0.145-0.287-0.123-0.398-0.092
		c-0.236,0.066-0.125,0.625-0.127,0.796c-0.007,0.5-1.064,0.409-1.016-0.273c0.033-0.47-0.532-0.802-0.537-0.312
		C48.218,25.625,48.225,26.448,48.232,27.269C48.773,27.361,48.226,26.606,48.232,27.269z"/>
	<path fill="#FFFFFF" d="M51.301,27.207c0.316,0.258,1.209,0.154,1.592,0.076c0.202-0.042,0.186-0.397-0.009-0.438
		c-0.355-0.075-0.724,0.072-1.073-0.07c-0.149-0.534-0.111-0.668,0.457-0.688c0.549-0.021,0.418-0.327-0.016-0.42
		c-0.147-0.035-0.396,0.079-0.491-0.099c-0.133-0.245-0.016-0.578,0.288-0.55c0.2,0.021,0.753,0.102,0.911-0.064
		c0.364-0.38-0.243-0.382-0.456-0.369c-0.721,0.04-1.42-0.259-1.338,0.763C51.2,25.774,50.944,26.916,51.301,27.207
		C51.582,27.437,51.002,26.963,51.301,27.207z"/>
	<path fill="#FFFFFF" d="M59.59,27.293c0.347-0.021,0.694-0.021,1.042-0.021c0.377-0.001,0.556-0.348,0.154-0.437
		c-0.481-0.106-0.895,0.268-0.978-0.421c-0.06-0.493,0.029-0.987-0.008-1.48c-0.016-0.198,0.016-0.354-0.254-0.356
		c-0.38-0.007-0.274,0.428-0.272,0.677C59.277,25.646,59.008,27.324,59.59,27.293C60.053,27.266,59.314,27.308,59.59,27.293z"/>
	<path fill="#FFFFFF" d="M61.258,25.369c-0.013,0.702,0.373-0.063,0.402-0.428c0.021-0.253-0.229-0.609-0.49-0.295
		C60.98,24.881,61.266,25.126,61.258,25.369C61.256,25.476,61.26,25.308,61.258,25.369z"/>
	<path fill="#FFFFFF" d="M56.373,24.155c-0.174-0.387-0.363-0.69-0.916-0.489C55.754,23.894,55.869,24.303,56.373,24.155z"/>
	<path fill="#FFFFFF" d="M32.551,27.293c0.366-0.015,1.531,0.153,1.534-0.226c0.004-0.601-1.033,0.116-1.118-0.538
		c-0.065-0.495,0.692-0.155,0.764-0.573c0.107-0.597-0.76-0.216-0.734-0.628c0.021-0.352,0.858-0.143,1.084-0.362
		c0.02-0.63-0.823-0.376-1.275-0.378c-0.831-0.004-0.556,0.653-0.555,1.33C32.251,26.248,32.014,27.311,32.551,27.293
		C33.062,27.272,32.31,27.301,32.551,27.293z"/>
	<path fill="#FFFFFF" d="M36.422,27.067c0.218-0.2,0.322-0.736-0.16-0.55c-0.342,0.132-0.762,0.72-1.016,0.022
		c-0.146-0.399-0.228-1.403,0.349-1.545c0.111-0.027,1.356,0.749,0.946-0.009c-0.64-1.182-1.944-0.11-1.962,0.844
		C34.562,26.746,35.495,27.95,36.422,27.067C36.549,26.951,35.942,27.524,36.422,27.067z"/>
	<path fill="#FFFFFF" d="M42.865,27.256C42.847,27.246,42.87,27.259,42.865,27.256L42.865,27.256z"/>
	<path fill="#FFFFFF" d="M37.377,27.272c0.654,0.171,0.473-0.443,0.496-0.845c0.025-0.438,0.838-0.452,1.021-0.132
		c0.077,0.134-0.087,1.458,0.513,0.953c0.298-0.251,0.054-1.869,0.053-2.256c0-0.827-0.589-0.301-0.515,0.304
		c0.077,0.621-0.852,0.504-1.021,0.05c-0.072-0.194-0.018-0.393-0.039-0.59c-0.026-0.251-0.496-0.252-0.513,0.005
		C37.317,25.589,37.375,26.443,37.377,27.272C37.855,27.397,37.375,26.492,37.377,27.272z"/>
	<path fill="#FFFFFF" d="M40.344,27.026c-0.01,0.476,0.96,0.256,1.257,0.259c0.201,0.001,0.573,0.094,0.569-0.226
		c0-0.386-0.758-0.243-0.984-0.224c-0.455,0.036-0.458-0.803,0.021-0.747c0.19,0.023,0.592,0.084,0.592-0.218
		c-0.003-0.354-0.541-0.172-0.748-0.209c-0.4-0.071-0.173-0.661,0.199-0.643c0.175,0.012,0.707,0.097,0.854-0.04
		c0.38-0.352-0.361-0.399-0.478-0.406c-0.562-0.033-1.39-0.183-1.326,0.61C40.349,25.798,40.361,26.41,40.344,27.026
		C40.34,27.211,40.354,26.662,40.344,27.026z"/>
	<path fill="#FFFFFF" d="M46.936,27.293c0.243-0.176,0.964-0.789,0.187-0.866c-0.26-0.025-0.604,0.527-0.854,0.125
		c-0.172-0.277-0.198-1.032,0.054-1.276c0.339-0.327,0.75,0.438,1.114,0.024c0.095-1.157-1.595-0.801-1.914,0.002
		C45.092,26.389,45.759,27.435,46.936,27.293C47.081,27.188,46.596,27.334,46.936,27.293z"/>
	<path fill="#FFFFFF" d="M82.297,27.291c0.358-0.016,1.492,0.153,1.494-0.222c0.002-0.675-1.329,0.234-1.323-0.591
		c0.003-0.469,0.271-0.345,0.633-0.345c0.452,0,0.46-0.441,0.016-0.461c-0.25-0.011-1.066-0.149-0.562-0.6
		c0.264-0.236,1.164,0.233,1.176-0.286c0.011-0.369-1.197-0.196-1.449-0.21C81.743,24.549,81.718,27.313,82.297,27.291
		C82.795,27.27,82.045,27.301,82.297,27.291z"/>
	<path fill="#FFFFFF" d="M81.002,27.269c0.006-0.429,0.301-2.988-0.424-2.663c-0.305,0.137-0.096,1.491-0.104,1.787
		C80.46,26.84,80.357,27.422,81.002,27.269C81.006,26.971,80.574,27.37,81.002,27.269z"/>
	<path fill="#FFFFFF" d="M73.6,26.896c-0.402,0.008-0.807-0.725-0.984-0.021c0.408,0.417,0.808,0.556,1.414,0.412
		c0.55-0.409,0.628-0.855,0.197-1.396c-0.16-0.068-1.658-0.616-0.868-0.906c0.166-0.061,1.041,0.571,1.073,0.132
		c0.039-0.556-1.015-0.604-1.33-0.489c-0.557,0.203-0.606,0.924-0.14,1.24C73.121,25.976,74.79,26.856,73.6,26.896
		C73.404,26.899,73.777,26.89,73.6,26.896z"/>
	<path fill="#FFFFFF" d="M75.32,25.026c0.809,0.013,0.305,1.517,0.418,2.105c0.062,0.325,0.625,0.176,0.573-0.184
		c-0.069-0.484,0.011-1.008-0.015-1.5c-0.021-0.462,0.195-0.378,0.544-0.423c0.343-0.045,0.119-0.428-0.12-0.458
		c-0.502,0.004-1.014-0.016-1.516,0.016C74.896,24.603,75.052,25.02,75.32,25.026C75.443,25.028,75.15,25.022,75.32,25.026z"/>
	<path fill="#FFFFFF" d="M64.516,26.849c-0.021-0.247-0.142-1.218,0.096-1.297c0.312,0.571,0.604,1.163,0.953,1.712
		c0.688,0.121,0.535-0.312,0.547-0.916c0.006-0.281,0.168-1.591-0.049-1.77c-0.346,0.005-0.426-0.119-0.45,0.316
		c-0.024,0.421,0.059,0.848-0.046,1.263c-0.255-0.186-1.462-2.504-1.534-1.193c-0.035,0.641-0.018,1.282-0.002,1.923
		C64.047,27.556,64.555,27.317,64.516,26.849C64.479,26.431,64.549,27.244,64.516,26.849z"/>
	<path fill="#FFFFFF" d="M70.801,27.312c0.47-0.001,0.898-0.194,1.004-0.688c0.063-0.297,0.229-1.833-0.039-2.011
		c-0.793-0.526,0.157,2.598-1.154,2.235c-0.485-0.134-0.322-1.121-0.319-1.482c0.001-0.169,0.022-0.432,0.009-0.613
		c-0.017-0.22-0.438-0.253-0.515-0.06c-0.183,0.458-0.039,1.196-0.017,1.677C69.798,26.983,70.201,27.314,70.801,27.312
		C71.463,27.311,70.15,27.314,70.801,27.312z"/>
	<path fill="#FFFFFF" d="M63.082,26.803c-0.037-0.574-0.039-1.151,0-1.725c0.035-0.5-0.486-0.813-0.536-0.108
		c-0.045,0.639-0.037,1.281-0.002,1.921C62.583,27.586,63.115,27.312,63.082,26.803C63.045,26.23,63.109,27.222,63.082,26.803z"/>
	<path fill="#FFFFFF" d="M16.377,25.494c-0.066,0.246-0.132,1.796,0.15,1.786c0.805-0.026,1.643,0.128,1.924-0.866
		c0.19-0.669-0.063-1.528-0.75-1.789c-0.359-0.136-0.762-0.125-1.127-0.024C16.142,24.723,16.454,25.204,16.377,25.494
		C16.34,25.632,16.458,25.191,16.377,25.494z M16.895,25.917c0-0.229-0.106-0.884,0.251-0.914c0.505-0.043,0.803,0.403,0.806,0.851
		c0.003,0.514-0.145,0.964-0.737,0.986C16.738,26.857,16.895,26.223,16.895,25.917z"/>
	<path fill="#FFFFFF" d="M86.631,62.979c-0.001-3.319-0.002-6.638-0.002-9.957c0-2.839,0.075-5.627-0.786-8.369
		c-1.818-5.784-7.219-8.722-13.099-8.254c-1.456,0.116-2.899,0.365-4.313,0.728c-0.799,0.204-3.589,0.607-3.636,1.636
		c-0.03,0.751-0.076,1.502-0.133,2.252c-0.055,0.718-0.012,0.759,0.647,0.468c1.456-0.643,2.979-1.141,4.524-1.517
		c2.693-0.654,5.702-0.742,8.322,0.307c1.069,0.428,2.236,1.127,2.925,2.077c0.33,0.456-2.83,1.879-3.289,2.133
		c-2.711,1.502-5.383,3.097-7.939,4.85c-2.312,1.586-4.854,3.429-6.364,5.844c-0.32,0.513-0.492,1.106-0.821,1.607
		c-0.329,0.499-0.854,0.758-1.361,1.041c-1.365,0.76-2.784,1.428-4.258,1.953c-2.823,1.006-5.624,1.79-8.675,1.286
		c-1.207-0.199-2.573-0.734-3.605-1.406c-0.525-0.343-0.982-0.759-1.404-1.221c-0.422-0.462-0.125-0.628,0.321-0.926
		c2.717-1.808,5.401-3.665,8.042-5.584c2.224-1.616,4.483-3.47,6.378-5.473c1.849-1.955,3.535-4.542,1.481-6.991
		c-0.852-1.016-2.022-1.647-3.246-2.109c-1.298-0.491-2.963-0.993-4.364-0.968c-1.367,0.024-2.688-0.07-4.061,0.141
		c-1.243,0.191-2.472,0.57-3.615,1.094c-4.699,2.155-6.562,6.976-6.669,11.909c-0.033,1.481,0.106,2.964,0.393,4.417
		c0.146,0.741,0.331,1.475,0.549,2.198c0.26,0.861,0.016,0.951-0.729,1.398c-2.506,1.503-5.312,2.792-8.208,3.296
		c-2.677,0.466-5.741,0.47-8.217-0.776c-2.602-1.309-4.119-3.898-4.736-6.669c-1.155-5.183,0.614-11.785,6.23-13.431
		c2.637-0.773,5.37-0.307,7.981,0.303c1.382,0.323,2.625,0.954,3.964,1.383c0.669,0.214,0.758-0.019,0.643-0.676
		c-0.107-0.609-0.179-1.231-0.217-1.862c-0.081-1.353-1.577-1.404-2.682-1.73c-1.519-0.449-3.037-0.712-4.598-0.963
		c-1.111-0.398-2.874-0.09-4.008,0.056c-1.46,0.188-2.909,0.538-4.236,1.188c-5.191,2.542-6.449,8.593-6.34,13.84
		c0.12,5.765,3.128,11.247,9.073,12.545c3.107,0.679,6.311,0.402,9.368-0.399c1.435-0.377,2.817-0.897,4.172-1.499
		c0.647-0.288,1.285-0.597,1.912-0.928c0.655-0.347,1.335-0.927,2.032-1.163c0.408-0.138,0.924,0.814,1.132,1.069
		c0.502,0.483,1.061,0.903,1.65,1.272c1.303,0.815,2.659,1.276,4.129,1.683c2.929,0.809,6.314,0.296,9.195-0.486
		c1.412-0.384,2.793-0.88,4.138-1.457c0.648-0.278,1.315-0.554,1.929-0.904c0.876-0.5,0.944-0.421,1.65,0.272
		c2.064,2.029,5.269,2.828,8.093,2.856c4.184,0.043,8.622-0.187,11.566-3.626c-0.042,0.639,0.194,1.258,0.209,1.894
		c0.021,0.391-0.092,0.924,0.39,1.06c0.66,0.186,1.404,0.188,2.081,0.324C86.873,64.166,86.631,63.452,86.631,62.979
		C86.629,58.466,86.631,63.178,86.631,62.979z M41.155,54.577c-1.531-3.85-0.923-9.404,1.903-12.545
		c2.678-2.977,7.513-3.457,11.164-2.304c1.839,0.581,3.79,1.753,2.317,3.757c-1.367,1.861-3.42,3.312-5.206,4.746
		c-1.787,1.436-3.623,2.812-5.512,4.112c-0.995,0.685-2.005,1.349-3.03,1.988C42.165,54.722,41.398,55.6,41.155,54.577
		C40.61,53.207,41.312,55.237,41.155,54.577z M83.803,51.717c-0.257,4.104-2.201,8.018-6.392,9.174
		c-2.183,0.603-4.548,0.538-6.775,0.259c-1.602-0.201-4.976-0.947-4.996-3.087c-0.02-1.956,2.522-3.717,3.905-4.744
		c2.085-1.551,4.286-2.947,6.523-4.267c2.153-1.271,4.35-2.466,6.555-3.644c0.593-0.317,0.985,2.113,1.073,2.567
		C83.898,49.026,84.138,50.673,83.803,51.717C83.793,51.873,83.9,51.412,83.803,51.717z"/>
	<path fill="#FFFFFF" d="M55.27,27.293c0.229,0.009,0.308-0.137,0.334-0.336c0.043-0.326,0.298-0.248,0.533-0.27
		c0.625-0.049,0.294,0.714,1.027,0.559c-0.186-0.67-0.342-2.797-1.255-2.656c-0.361,0.055-0.442,1.055-0.522,1.335
		C55.302,26.221,54.737,27.266,55.27,27.293C55.523,27.303,55.059,27.282,55.27,27.293z M55.879,25.944
		c0.041-0.19,0.043-0.605,0.266-0.629c0.031,0.124,0.346,0.872,0.125,0.938C55.905,26.345,55.809,26.245,55.879,25.944
		C55.924,25.737,55.855,26.045,55.879,25.944z"/>
	<path fill="#FFFFFF" d="M25.805,27.246c0.125-0.385,0.038-0.528,0.523-0.562c0.582-0.042,0.281,0.363,0.611,0.583
		c0.364,0.243,0.443-0.105,0.387-0.337c-0.135-0.543-0.28-1.083-0.424-1.624c-0.105-0.394-0.172-0.778-0.668-0.735
		c-0.417,0.039-0.403,0.562-0.488,0.871C25.575,26.067,24.747,27.392,25.805,27.246C25.874,27.036,25.183,27.332,25.805,27.246z
		 M26.176,25.782c0.018-0.188,0.087-0.355,0.209-0.501c0.078,0.313,0.156,0.625,0.234,0.938
		C26.148,26.279,26.041,26.262,26.176,25.782C26.221,25.626,26.032,26.293,26.176,25.782z"/>
	<path fill="#FFFFFF" d="M29.726,27.293c0.653,0.033-0.114-1.265,0.593-1.101c0.593,0.138,0.209,1.394,1.17,1.046
		c-0.131-0.27-0.287-0.54-0.403-0.816c-0.152-0.361,0.167-0.479,0.299-0.763c0.279-0.602-0.318-1.035-0.842-1.067
		c-0.298-0.019-0.597,0.002-0.896-0.007c-0.344-0.008-0.187,0.779-0.187,0.965C29.462,25.914,29.205,27.262,29.726,27.293
		C30.158,27.314,29.545,27.282,29.726,27.293z M30.331,25.015c0.477,0.049,0.846,0.65,0.183,0.741
		C29.824,25.85,29.84,24.965,30.331,25.015C30.584,25.041,30.02,24.983,30.331,25.015z"/>
	<path fill="#FFFFFF" d="M43.443,27.248c-0.003-0.196-0.184-1.263,0.367-0.938c0.323,0.19,0.483,1.536,1.125,0.923
		c-0.312-0.592-0.716-0.893-0.256-1.396c0.46-0.502-0.04-1.184-0.599-1.244c-0.805-0.086-1.216-0.157-1.21,0.715
		C42.873,25.764,42.547,27.79,43.443,27.248C43.439,27.035,43.25,27.364,43.443,27.248z M43.732,25.021
		c0.525-0.006,0.826,0.639,0.204,0.73C43.183,25.861,43.391,24.921,43.732,25.021C44.06,25.017,43.471,24.944,43.732,25.021z"/>
	
		<linearGradient id="SVGID_1_" gradientUnits="userSpaceOnUse" x1="263.8389" y1="-344.7759" x2="331.2852" y2="-344.7759" gradientTransform="matrix(1 0 0 -1 -247.5 -270)">
		<stop  offset="0.0023" style="stop-color:#217939"/>
		<stop  offset="1" style="stop-color:#8DC63F"/>
	</linearGradient>
	<path fill="url(#SVGID_1_)" d="M82.906,73.229c-12.633,0-25.266-0.038-37.897,0.003c-6.437,0.021-12.875,0.037-19.312,0.002
		c-1.514-0.009-3.028,0.02-4.542,0.004c-0.771-0.009-1.542-0.008-2.313-0.006c-0.562,0.002-2.066-0.271-2.479,0.183
		c0.055,0.535-0.003,1.156,0.004,1.712c0.009,0.632-0.226,1.235,0.514,1.253c1.59,0.019,3.181,0.018,4.772,0.017
		c10.691-0.006,21.383,0.005,32.071,0c5.557-0.002,11.114,0,16.672,0c3.279,0,6.56,0,9.839,0c0.787,0,1.575,0,2.362,0
		c0.457-0.096,1.188,0.241,1.188-0.409c0-0.622,0-1.245,0-1.867c0-0.296,0-0.593,0-0.889C83.496,73.2,83.188,73.304,82.906,73.229
		C79.818,73.229,83.195,73.306,82.906,73.229z"/>
	<path fill="#FFFFFF" d="M77.613,26.963c-0.003,0.328,0.479,0.507,0.527,0.144c0.034-0.257-0.157-0.804,0.186-0.895
		c0.666-0.175,0.36,1.355,1.285,1.032c-0.025-0.385-0.573-0.804-0.372-1.194c0.234-0.453,0.654-0.935-0.017-1.334
		c-0.215-0.127-1.617-0.311-1.611,0.033C77.622,25.486,77.621,26.225,77.613,26.963C77.611,27.169,77.621,26.267,77.613,26.963z
		 M78.555,25.013c0.521,0.044,0.689,0.687,0.087,0.75C77.969,25.832,77.968,24.958,78.555,25.013
		C78.799,25.033,78.279,24.987,78.555,25.013z"/>
	<path fill="#FFFFFF" d="M67.119,27.287c0.651,0.19,1.411,0.091,1.759-0.56c0.334-0.627,0.314-1.618-0.387-1.98
		c-0.346-0.178-1.469-0.431-1.529,0.184C66.93,25.266,66.761,27.178,67.119,27.287C68.293,27.629,66.92,27.227,67.119,27.287z
		 M67.494,25.5c0.003-0.869,0.997-0.414,1.053,0.205c0.029,0.312,0.029,0.736-0.226,0.964c-0.28,0.251-0.899,0.289-0.833-0.225"/>
</g>
</svg>
