<?xml version="1.0" encoding="UTF-8" standalone="no"?>
<!-- Generator: Adobe Illustrator 15.0.2, SVG Export Plug-In . SVG Version: 6.00 Build 0)  -->

<svg
   xmlns:dc="http://purl.org/dc/elements/1.1/"
   xmlns:cc="http://creativecommons.org/ns#"
   xmlns:rdf="http://www.w3.org/1999/02/22-rdf-syntax-ns#"
   xmlns:svg="http://www.w3.org/2000/svg"
   xmlns="http://www.w3.org/2000/svg"
   xmlns:xlink="http://www.w3.org/1999/xlink"
   xmlns:sodipodi="http://sodipodi.sourceforge.net/DTD/sodipodi-0.dtd"
   xmlns:inkscape="http://www.inkscape.org/namespaces/inkscape"
   version="1.0"
   id="Layer_1"
   x="0px"
   y="0px"
   width="100"
   height="98.422806"
   viewBox="0 0 99.999996 98.422797"
   enable-background="new 0 0 2481 2073"
   xml:space="preserve"
   inkscape:version="0.48.4 r9939"
   sodipodi:docname="logo.pasteur.marker.svg"><metadata
     id="metadata15"><rdf:RDF><cc:Work
         rdf:about=""><dc:format>image/svg+xml</dc:format><dc:type
           rdf:resource="http://purl.org/dc/dcmitype/StillImage" /><dc:title></dc:title></cc:Work></rdf:RDF></metadata><defs
     id="defs13"><linearGradient
       id="SVGID_1_"
       gradientUnits="userSpaceOnUse"
       x1="263.8389"
       y1="-344.77591"
       x2="331.28519"
       y2="-344.77591"
       gradientTransform="matrix(1,0,0,-1,-247.5,-270)"><stop
         offset="0.0023"
         style="stop-color:#217939"
         id="stop60" /><stop
         offset="1"
         style="stop-color:#8DC63F"
         id="stop62" /></linearGradient><linearGradient
       inkscape:collect="always"
       xlink:href="#SVGID_1_"
       id="linearGradient4139"
       gradientUnits="userSpaceOnUse"
       gradientTransform="matrix(1,0,0,-1,-247.5,-270)"
       x1="263.8389"
       y1="-344.77591"
       x2="331.28519"
       y2="-344.77591" /><linearGradient
       id="SVGID_1_-1"
       gradientUnits="userSpaceOnUse"
       x1="51.847698"
       y1="65.255898"
       x2="77.012001"
       y2="41.551998"><stop
         offset="0"
         style="stop-color:#F19824"
         id="stop6" /><stop
         offset="0.1612"
         style="stop-color:#EE6E25"
         id="stop8" /><stop
         offset="0.3395"
         style="stop-color:#EB4727"
         id="stop10" /><stop
         offset="0.5157"
         style="stop-color:#E82828"
         id="stop12" /><stop
         offset="0.687"
         style="stop-color:#E61228"
         id="stop14" /><stop
         offset="0.851"
         style="stop-color:#E50429"
         id="stop16" /><stop
         offset="1"
         style="stop-color:#E50029"
         id="stop18" /></linearGradient><linearGradient
       id="SVGID_2_"
       gradientUnits="userSpaceOnUse"
       x1="23.0205"
       y1="56.362301"
       x2="6.3035002"
       y2="32.675301"><stop
         offset="0"
         style="stop-color:#F19824"
         id="stop25" /><stop
         offset="0.0189"
         style="stop-color:#F08F24"
         id="stop27" /><stop
         offset="0.1136"
         style="stop-color:#ED6926"
         id="stop29" /><stop
         offset="0.2157"
         style="stop-color:#EB4927"
         id="stop31" /><stop
         offset="0.325"
         style="stop-color:#E92E27"
         id="stop33" /><stop
         offset="0.4441"
         style="stop-color:#E71A28"
         id="stop35" /><stop
         offset="0.5781"
         style="stop-color:#E60B29"
         id="stop37" /><stop
         offset="0.7391"
         style="stop-color:#E50329"
         id="stop39" /><stop
         offset="1"
         style="stop-color:#E50029"
         id="stop41" /></linearGradient></defs><sodipodi:namedview
     pagecolor="#ffffff"
     bordercolor="#666666"
     borderopacity="1"
     objecttolerance="10"
     gridtolerance="10"
     guidetolerance="10"
     inkscape:pageopacity="0"
     inkscape:pageshadow="2"
     inkscape:window-width="1002"
     inkscape:window-height="902"
     id="namedview11"
     showgrid="false"
     fit-margin-top="0"
     fit-margin-left="0"
     fit-margin-right="0"
     fit-margin-bottom="0"
     inkscape:zoom="1.2880054"
     inkscape:cx="-86.001597"
     inkscape:cy="-42.964903"
     inkscape:window-x="163"
     inkscape:window-y="119"
     inkscape:window-maximized="0"
     inkscape:current-layer="Layer_1" /><path
     style="opacity:0.36213995;fill:#000000;fill-opacity:0.57534246;fill-rule:evenodd;stroke:none"
     inkscape:connector-curvature="0"
     id="path7"
     d="m 30.209036,98.422796 c 5.626411,-5.553785 9.034218,-10.843153 11.506341,-16.105002 1.833744,-3.903077 1.567241,-6.021578 4.572524,-11.674019 6.681738,-11.369765 9.706537,-13.496243 21.51007,-17.373402 6.864565,-1.582623 14.718733,-1.713817 21.487151,0.716469 5.534065,1.987211 8.750351,5.213924 9.994611,8.218802 1.016807,2.455504 0.916107,4.971064 -0.04462,7.494512 -1.002761,2.63388 -2.974216,5.333232 -6.887658,8.151162 -2.005011,1.443608 -4.228229,2.588461 -6.259488,3.440189 -2.055894,0.862004 -4.129904,1.39643 -6.213154,2.036432 -4.066587,1.249335 -8.226449,2.166641 -12.393591,3.082183 -12.412046,2.726586 -24.678961,5.712499 -37.272126,12.012674 z"
     clip-rule="evenodd"
     sodipodi:nodetypes="cscccssccsccc" /><path
     style="fill:#f5f5f5;fill-opacity:0.78431374;stroke:#e86c52;stroke-width:2.93298769000000004;stroke-linecap:round;stroke-linejoin:miter;stroke-miterlimit:10;stroke-opacity:1;stroke-dasharray:none"
     inkscape:connector-curvature="0"
     id="path5"
     d="M 30.134416,91.679377 C 28.016291,81.541793 24.281731,73.10552 19.758352,65.286719 16.403154,59.486935 12.516319,54.133673 8.9199986,48.509538 7.719467,46.63206 6.6834123,44.648623 5.5298244,42.700104 3.2231948,38.804023 1.3530149,34.286734 1.4718619,28.427076 1.5879664,22.70181 3.2863003,18.10919 5.7353248,14.354231 9.7632348,8.1781947 16.510136,3.1145772 25.562847,1.7838334 c 7.401689,-1.08800819 14.341307,0.7501202 19.262511,3.5558198 4.021402,2.2926179 7.135594,5.3551178 9.502761,8.9644128 2.470769,3.767167 4.172163,8.217672 4.314883,14.022741 0.07305,2.974145 -0.426462,5.728351 -1.130155,8.012944 -0.712153,2.312443 -1.857497,4.245431 -2.876506,6.310253 -1.989168,4.030474 -4.48305,7.723246 -6.985838,11.418397 -7.45475,11.006267 -14.451733,22.230688 -17.516087,37.610976 z"
     stroke-miterlimit="10"
     clip-rule="evenodd" /><g
     transform="matrix(0.56492577,0,0,0.56492577,1.822527,2.3190887)"
     id="g3"><path
       style="fill:#004870"
       inkscape:connector-curvature="0"
       d="M 66.459,56.832 C 66.037,52.078 63.439,48.414 59.612,45.713 55.787,43.013 51.338,41.29 47.02,39.507 42.501,37.641 37.845,35.695 33.966,32.692 32.26,31.371 30.661,29.77 29.469,27.965 28.905,27.11 28.442,26.174 28.007,25.249 c -0.239,-0.508 -0.432,-1.038 -0.591,-1.576 -0.079,-0.264 -0.14,-1.335 -0.402,-1.417 -0.346,0.341 -0.212,1.367 -0.173,1.801 0.054,0.597 0.079,1.187 0.141,1.782 0.062,0.598 0.037,1.235 0.404,1.749 0.052,0.744 0.074,1.416 0.307,2.137 0.183,0.568 0.47,1.004 0.524,1.566 0.058,0.598 0.434,1.26 0.67,1.804 0.536,1.237 1.155,2.718 2.062,3.737 0.749,0.84 1.367,1.837 2.159,2.704 1.018,1.115 2.14,2.105 3.349,3.009 1.195,0.893 2.431,1.73 3.702,2.512 1.155,0.71 2.482,1.246 3.588,1.969 0.299,0.447 1.251,0.728 1.715,0.968 0.674,0.35 1.352,0.694 2.028,1.04 1.4,0.715 2.798,1.431 4.141,2.248 0.552,0.335 0.778,0.473 1.182,0.936 0.411,0.472 0.78,0.967 1.061,1.529 0.602,1.206 0.748,2.573 0.491,3.892 -0.202,1.033 -0.664,2.002 -1.47,2.7 -0.387,0.336 -0.835,0.597 -1.311,0.786 -0.504,0.2 -1.267,0.537 -1.789,0.604 -1.513,0.19 -3.16,0.012 -4.686,0.013 -1.726,0 -3.452,0.001 -5.178,0.001 -3.319,10e-4 -6.638,0.002 -9.958,0.003 -0.796,0 -1.593,10e-4 -2.39,10e-4 -0.774,0 -0.662,0.528 -0.662,1.187 0,1.714 0,3.427 0,5.141 0,6.591 0,13.182 0,19.772 0,0.791 0,1.581 0,2.372 0,0.456 -0.149,1.265 0.122,1.678 0.346,0.527 3.346,-1.138 3.858,-1.358 0.607,-0.261 1.395,-0.455 1.922,-0.862 0.449,-0.346 0.878,-0.377 1.409,-0.597 0.697,-0.288 1.389,-0.591 2.081,-0.894 0.551,-0.241 1.792,-0.457 1.705,-1.219 -0.169,-1.474 -0.052,-3.01 -0.051,-4.493 0.001,-1.714 0.001,-3.427 0.001,-5.141 0,-1.582 10e-4,-3.163 0.002,-4.745 0,-0.78 0.738,-0.521 1.382,-0.521 0.901,-10e-4 1.802,-10e-4 2.703,-0.002 2.934,0 5.866,0.019 8.794,-0.093 1.42,-0.054 2.884,-0.316 4.278,-0.59 0.693,-0.136 1.371,-0.311 2.044,-0.53 0.316,-0.103 1.553,-0.285 1.707,-0.6 2.52,-1.264 4.728,-2.755 6.095,-5.304 1.24,-2.312 1.888,-5.502 1.486,-8.116 -0.102,-1.144 0.102,0.66 0,0 z"
       id="path5-6" /><path
       style="fill:#83b718"
       inkscape:connector-curvature="0"
       d="m 73.18,52.062 c -0.173,-0.447 -0.154,-1.218 -0.189,-1.7 -0.055,-0.708 -0.166,-1.412 -0.332,-2.103 -0.348,-1.456 -0.933,-2.855 -1.7,-4.139 -1.351,-2.258 -3.277,-4.094 -5.406,-5.614 -4.957,-3.538 -10.878,-5.365 -15.916,-8.749 -2.259,-1.517 -3.668,-3.313 -3.892,-6.092 -0.198,-2.455 1.239,-4.538 3.642,-5.118 1.246,-0.301 2.564,-0.258 3.837,-0.258 1.733,0 3.466,-0.001 5.198,-0.001 1.6,0 3.199,0.001 4.799,0.004 0.799,10e-4 1.599,0.003 2.398,0.006 0.915,0.003 1.261,0.049 1.719,-0.771 1.542,-2.756 2.886,-5.622 4.424,-8.38 C 71.945,8.819 72.128,8.491 72.308,8.161 72.264,7.924 72.058,8.082 71.931,7.975 71.25,8.124 70.451,8.016 69.754,8.016 68.036,8.015 66.318,8.014 64.602,8.013 58.398,8.009 52.025,7.551 45.88,8.522 40.423,9.384 34.818,12.177 33.785,18.13 c -1.027,5.921 1.8,11.093 6.644,14.325 6.037,4.027 13.215,5.913 19.479,9.531 1.562,0.902 3.085,1.888 4.497,3.013 1.374,1.094 2.495,2.352 3.696,3.609 2.235,2.341 3.668,5.709 4.545,8.78 0.166,-1.049 0.406,-2.116 0.45,-3.178 0.027,-0.678 -0.047,-1.488 0.084,-2.148 z"
       id="path7-9" /></g></svg>