<?xml version="1.0" encoding="utf-8"?>
<!-- Generator: Adobe Illustrator 16.0.0, SVG Export Plug-In . SVG Version: 6.00 Build 0)  -->
<!DOCTYPE svg PUBLIC "-//W3C//DTD SVG 1.1//EN" "http://www.w3.org/Graphics/SVG/1.1/DTD/svg11.dtd">
<svg version="1.1" id="Calque_1" xmlns="http://www.w3.org/2000/svg" xmlns:xlink="http://www.w3.org/1999/xlink" x="0px" y="0px"
	 width="100px" height="100px" viewBox="0 0 100 100" enable-background="new 0 0 100 100" xml:space="preserve">
<g>
	<path d="M19.161,25.926c0,0.739-0.28,1.369,0.596,1.363c0.348-0.002,0.697,0,1.045,0.002c0.292,0,0.311-0.46,0.013-0.46
		c-0.468,0-1.291,0.197-1.116-0.545c0.072-0.304,0.514-0.193,0.726-0.193c0.274,0,0.274-0.43,0-0.43
		c-0.153,0.003-0.505,0.06-0.641-0.028c-0.145-0.093-0.147-0.499,0.009-0.583c0.259-0.138,1.153,0.219,1.159-0.249
		c0.008-0.375-1.016-0.282-1.279-0.279C18.856,24.535,19.245,25.926,19.161,25.926C19.161,26.292,19.174,25.926,19.161,25.926z"/>
	<path d="M24.823,27.269c0-0.75-0.547-0.286-1.095-0.494c-0.312-0.561,0.037-1.557-0.104-2.188c-0.371,0.004-0.48-0.126-0.511,0.297
		c0.004,0.53,0.008,1.061,0.012,1.591c0.004,0.463-0.201,0.787,0.344,0.837C23.92,27.352,24.375,27.337,24.823,27.269
		C24.823,27.134,24.258,27.355,24.823,27.269z"/>
	<path d="M48.234,27.269c0.638,0.109,0.543-0.171,0.534-0.741c-0.01-0.609,1.031-0.61,1.02,0c-0.01,0.569-0.102,0.851,0.534,0.741
		c0.042-0.696,0.228-1.928-0.014-2.581c-0.054-0.145-0.287-0.123-0.398-0.092c-0.236,0.066-0.125,0.625-0.127,0.796
		c-0.007,0.5-1.064,0.409-1.016-0.273c0.033-0.47-0.532-0.802-0.537-0.312C48.22,25.625,48.227,26.448,48.234,27.269
		C48.775,27.361,48.228,26.606,48.234,27.269z"/>
	<path d="M51.303,27.207c0.315,0.258,1.209,0.154,1.592,0.076c0.201-0.042,0.185-0.397-0.009-0.438
		c-0.355-0.075-0.725,0.072-1.074-0.07c-0.148-0.535-0.11-0.668,0.458-0.688c0.549-0.021,0.417-0.327-0.016-0.42
		c-0.147-0.035-0.396,0.079-0.492-0.099c-0.133-0.245-0.015-0.578,0.289-0.55c0.2,0.021,0.753,0.102,0.911-0.064
		c0.364-0.38-0.243-0.382-0.456-0.369c-0.721,0.04-1.42-0.259-1.338,0.763C51.202,25.774,50.946,26.916,51.303,27.207
		C51.584,27.437,51.004,26.963,51.303,27.207z"/>
	<path d="M59.592,27.293c0.347-0.021,0.694-0.021,1.042-0.021c0.376-0.001,0.557-0.348,0.154-0.437
		c-0.481-0.106-0.895,0.268-0.978-0.421c-0.06-0.493,0.029-0.987-0.008-1.48c-0.016-0.198,0.016-0.354-0.254-0.356
		c-0.381-0.007-0.274,0.427-0.272,0.677C59.279,25.646,59.01,27.324,59.592,27.293C60.055,27.266,59.316,27.308,59.592,27.293z"/>
	<path d="M61.26,25.369c-0.013,0.702,0.373-0.062,0.402-0.428c0.021-0.252-0.231-0.61-0.49-0.295
		C60.981,24.88,61.268,25.127,61.26,25.369C61.258,25.476,61.262,25.308,61.26,25.369z"/>
	<path d="M56.375,24.155c-0.174-0.387-0.363-0.69-0.916-0.489C55.756,23.894,55.871,24.303,56.375,24.155z"/>
	<path d="M32.553,27.293c0.366-0.015,1.531,0.153,1.534-0.226c0.004-0.601-1.033,0.116-1.118-0.538
		c-0.065-0.495,0.692-0.155,0.764-0.573c0.107-0.597-0.76-0.216-0.734-0.628c0.021-0.352,0.858-0.143,1.084-0.362
		c0.02-0.63-0.823-0.376-1.275-0.378c-0.831-0.004-0.556,0.653-0.555,1.33C32.253,26.248,32.016,27.311,32.553,27.293
		C33.064,27.272,32.312,27.301,32.553,27.293z"/>
	<path d="M36.424,27.067c0.218-0.2,0.322-0.736-0.16-0.55c-0.342,0.132-0.762,0.72-1.016,0.022
		c-0.146-0.399-0.228-1.403,0.349-1.545c0.111-0.027,1.356,0.749,0.946-0.009c-0.64-1.182-1.944-0.11-1.962,0.844
		C34.563,26.746,35.497,27.95,36.424,27.067C36.551,26.951,35.944,27.524,36.424,27.067z"/>
	<path d="M42.867,27.256C42.849,27.246,42.872,27.259,42.867,27.256L42.867,27.256z"/>
	<path d="M37.379,27.272c0.654,0.171,0.473-0.443,0.496-0.845c0.025-0.438,0.838-0.452,1.021-0.132
		c0.077,0.134-0.087,1.458,0.513,0.953c0.298-0.251,0.054-1.869,0.053-2.256c0-0.827-0.589-0.301-0.515,0.304
		c0.077,0.621-0.852,0.504-1.021,0.05c-0.072-0.194-0.018-0.393-0.039-0.59c-0.026-0.251-0.496-0.252-0.513,0.005
		C37.319,25.589,37.377,26.443,37.379,27.272C37.857,27.397,37.377,26.492,37.379,27.272z"/>
	<path d="M40.346,27.026c-0.01,0.476,0.96,0.256,1.257,0.259c0.201,0.001,0.573,0.094,0.569-0.226c0-0.386-0.758-0.243-0.984-0.224
		c-0.455,0.036-0.458-0.803,0.021-0.747c0.19,0.023,0.592,0.084,0.592-0.218c-0.003-0.354-0.541-0.172-0.748-0.209
		c-0.4-0.071-0.173-0.661,0.199-0.643c0.175,0.012,0.707,0.097,0.854-0.04c0.38-0.352-0.361-0.399-0.478-0.406
		c-0.562-0.033-1.39-0.183-1.326,0.61C40.351,25.798,40.363,26.41,40.346,27.026C40.342,27.211,40.356,26.662,40.346,27.026z"/>
	<path d="M46.938,27.293c0.243-0.176,0.964-0.789,0.187-0.866c-0.26-0.025-0.604,0.527-0.854,0.125
		c-0.172-0.277-0.198-1.032,0.054-1.276c0.339-0.327,0.75,0.438,1.114,0.024c0.095-1.157-1.595-0.801-1.914,0.002
		C45.094,26.389,45.761,27.435,46.938,27.293C47.083,27.188,46.598,27.334,46.938,27.293z"/>
	<path d="M82.299,27.291c0.358-0.016,1.492,0.153,1.494-0.222c0.002-0.675-1.329,0.234-1.323-0.591
		c0.003-0.469,0.271-0.345,0.632-0.345c0.451,0,0.46-0.441,0.017-0.461c-0.25-0.011-1.066-0.148-0.562-0.6
		c0.265-0.236,1.165,0.233,1.177-0.286c0.009-0.369-1.197-0.196-1.45-0.21C81.747,24.549,81.718,27.313,82.299,27.291
		C82.797,27.27,82.047,27.301,82.299,27.291z"/>
	<path d="M81.004,27.269c0.006-0.429,0.301-2.988-0.424-2.663c-0.305,0.136-0.096,1.492-0.104,1.787
		C80.462,26.84,80.359,27.421,81.004,27.269C81.008,26.971,80.575,27.37,81.004,27.269z"/>
	<path d="M73.602,26.896c-0.403,0.008-0.806-0.725-0.985-0.021c0.409,0.416,0.807,0.557,1.414,0.412
		c0.551-0.408,0.629-0.854,0.198-1.396c-0.16-0.068-1.658-0.615-0.868-0.906c0.165-0.06,1.041,0.572,1.072,0.132
		c0.04-0.556-1.015-0.604-1.33-0.489c-0.557,0.203-0.605,0.924-0.139,1.24C73.124,25.976,74.791,26.856,73.602,26.896
		C73.406,26.899,73.779,26.89,73.602,26.896z"/>
	<path d="M75.321,25.026c0.809,0.013,0.306,1.517,0.419,2.105c0.062,0.325,0.625,0.176,0.573-0.184
		c-0.069-0.484,0.01-1.008-0.015-1.5c-0.021-0.462,0.195-0.377,0.544-0.423c0.343-0.045,0.12-0.428-0.12-0.458
		c-0.502,0.004-1.014-0.016-1.516,0.016C74.899,24.603,75.053,25.02,75.321,25.026C75.445,25.028,75.152,25.022,75.321,25.026z"/>
	<path d="M64.518,26.849c-0.022-0.246-0.141-1.218,0.095-1.297c0.312,0.569,0.6,1.167,0.954,1.712
		c0.688,0.121,0.535-0.312,0.547-0.916c0.006-0.282,0.168-1.592-0.05-1.77c-0.345,0.005-0.425-0.118-0.449,0.316
		c-0.024,0.421,0.058,0.848-0.046,1.263c-0.256-0.186-1.462-2.503-1.534-1.193c-0.035,0.641-0.018,1.282-0.002,1.923
		C64.049,27.556,64.557,27.317,64.518,26.849C64.479,26.431,64.551,27.244,64.518,26.849z"/>
	<path d="M70.803,27.312c0.47-0.001,0.898-0.194,1.004-0.688c0.063-0.297,0.229-1.833-0.039-2.011
		c-0.795-0.527,0.156,2.599-1.154,2.235c-0.484-0.134-0.323-1.121-0.319-1.482c0.001-0.169,0.022-0.432,0.009-0.613
		c-0.017-0.22-0.438-0.253-0.515-0.06c-0.184,0.457-0.039,1.197-0.017,1.677C69.8,26.983,70.203,27.314,70.803,27.312
		C71.465,27.311,70.151,27.314,70.803,27.312z"/>
	<path d="M63.084,26.803c-0.037-0.574-0.039-1.151,0-1.725c0.034-0.499-0.486-0.813-0.536-0.108
		c-0.045,0.639-0.037,1.281-0.002,1.921C62.585,27.586,63.117,27.312,63.084,26.803C63.047,26.23,63.111,27.222,63.084,26.803z"/>
	<path d="M16.379,25.494c-0.066,0.246-0.132,1.796,0.15,1.786c0.805-0.026,1.643,0.128,1.924-0.866
		c0.19-0.669-0.063-1.528-0.75-1.789c-0.359-0.136-0.762-0.125-1.127-0.024C16.144,24.723,16.456,25.204,16.379,25.494
		C16.342,25.632,16.459,25.191,16.379,25.494z M16.897,25.917c0-0.229-0.106-0.884,0.251-0.914c0.505-0.043,0.803,0.403,0.806,0.851
		c0.003,0.514-0.145,0.964-0.737,0.986C16.74,26.857,16.897,26.223,16.897,25.917z"/>
	<path d="M86.633,62.979c-0.001-3.319-0.002-6.638-0.002-9.957c0-2.839,0.075-5.627-0.787-8.369
		c-1.818-5.784-7.218-8.722-13.098-8.254c-1.456,0.116-2.899,0.365-4.313,0.728c-0.8,0.204-3.589,0.606-3.636,1.636
		c-0.03,0.751-0.077,1.502-0.133,2.252c-0.055,0.718-0.012,0.759,0.646,0.468c1.457-0.643,2.979-1.141,4.525-1.517
		c2.692-0.654,5.702-0.742,8.321,0.307c1.069,0.428,2.238,1.126,2.926,2.077c0.33,0.457-2.83,1.879-3.289,2.133
		c-2.712,1.502-5.383,3.097-7.939,4.85c-2.312,1.586-4.854,3.429-6.365,5.844c-0.32,0.513-0.491,1.106-0.821,1.607
		c-0.328,0.499-0.853,0.758-1.36,1.041c-1.365,0.76-2.785,1.428-4.258,1.953c-2.823,1.006-5.624,1.79-8.675,1.286
		c-1.207-0.199-2.573-0.734-3.605-1.406c-0.525-0.343-0.982-0.759-1.404-1.221c-0.422-0.462-0.125-0.628,0.321-0.926
		c2.717-1.808,5.401-3.665,8.042-5.584c2.224-1.616,4.483-3.47,6.378-5.473c1.849-1.955,3.535-4.542,1.481-6.991
		c-0.852-1.016-2.022-1.647-3.246-2.109c-1.298-0.491-2.963-0.993-4.364-0.968c-1.367,0.024-2.688-0.07-4.061,0.141
		c-1.243,0.191-2.472,0.57-3.615,1.094c-4.699,2.155-6.562,6.976-6.669,11.909c-0.033,1.481,0.106,2.964,0.393,4.417
		c0.146,0.741,0.331,1.475,0.549,2.198c0.26,0.861,0.016,0.951-0.729,1.398c-2.506,1.503-5.312,2.792-8.208,3.296
		c-2.677,0.466-5.741,0.47-8.217-0.776c-2.602-1.309-4.119-3.898-4.736-6.669c-1.155-5.183,0.614-11.785,6.23-13.431
		c2.637-0.773,5.37-0.307,7.981,0.303c1.382,0.323,2.625,0.954,3.964,1.383c0.669,0.214,0.758-0.019,0.643-0.676
		c-0.107-0.609-0.179-1.231-0.217-1.862c-0.081-1.353-1.577-1.404-2.682-1.73c-1.519-0.449-3.037-0.712-4.598-0.963
		c-1.111-0.398-2.874-0.09-4.008,0.056c-1.46,0.188-2.909,0.538-4.236,1.188c-5.191,2.542-6.449,8.593-6.34,13.84
		c0.12,5.765,3.128,11.247,9.073,12.545c3.107,0.679,6.311,0.402,9.368-0.399c1.435-0.377,2.817-0.897,4.172-1.499
		c0.647-0.288,1.285-0.597,1.912-0.928c0.655-0.347,1.335-0.927,2.032-1.163c0.408-0.138,0.924,0.814,1.132,1.069
		c0.502,0.483,1.061,0.903,1.65,1.272c1.303,0.815,2.659,1.276,4.129,1.683c2.929,0.809,6.314,0.296,9.195-0.486
		c1.412-0.384,2.793-0.88,4.138-1.457c0.647-0.278,1.315-0.554,1.929-0.904c0.876-0.5,0.944-0.421,1.649,0.272
		c2.063,2.029,5.27,2.828,8.093,2.856c4.186,0.043,8.621-0.188,11.567-3.626c-0.042,0.639,0.193,1.258,0.209,1.894
		c0.021,0.391-0.093,0.924,0.389,1.06c0.661,0.186,1.404,0.188,2.082,0.324C86.874,64.166,86.633,63.452,86.633,62.979
		C86.631,58.466,86.633,63.178,86.633,62.979z M41.157,54.577c-1.531-3.85-0.923-9.404,1.903-12.545
		c2.678-2.977,7.513-3.457,11.164-2.304c1.838,0.581,3.79,1.753,2.317,3.757c-1.367,1.861-3.421,3.312-5.206,4.746
		c-1.788,1.436-3.623,2.812-5.512,4.112c-0.995,0.685-2.005,1.349-3.03,1.988C42.167,54.722,41.4,55.6,41.157,54.577
		C40.612,53.207,41.314,55.237,41.157,54.577z M83.805,51.717c-0.257,4.104-2.202,8.018-6.392,9.174
		c-2.183,0.603-4.548,0.538-6.775,0.259c-1.602-0.201-4.976-0.947-4.997-3.087c-0.019-1.956,2.523-3.717,3.906-4.744
		c2.085-1.551,4.286-2.947,6.522-4.267c2.153-1.271,4.351-2.465,6.555-3.644c0.594-0.318,0.986,2.113,1.074,2.567
		C83.9,49.028,84.137,50.67,83.805,51.717C83.795,51.873,83.901,51.412,83.805,51.717z"/>
	<path d="M55.271,27.293c0.229,0.009,0.307-0.137,0.333-0.336c0.043-0.326,0.299-0.248,0.534-0.27
		c0.625-0.049,0.294,0.713,1.027,0.559c-0.186-0.669-0.343-2.796-1.255-2.656c-0.362,0.055-0.442,1.054-0.523,1.335
		C55.303,26.221,54.739,27.266,55.271,27.293C55.525,27.303,55.06,27.282,55.271,27.293z M55.881,25.944
		c0.041-0.19,0.042-0.605,0.265-0.629c0.031,0.125,0.348,0.872,0.125,0.938C55.907,26.346,55.811,26.245,55.881,25.944
		C55.926,25.737,55.857,26.045,55.881,25.944z"/>
	<path d="M25.807,27.246c0.125-0.385,0.038-0.528,0.523-0.562c0.582-0.042,0.281,0.363,0.611,0.583
		c0.364,0.243,0.443-0.105,0.387-0.337c-0.135-0.543-0.28-1.083-0.424-1.624c-0.105-0.394-0.172-0.778-0.668-0.735
		c-0.417,0.039-0.403,0.562-0.488,0.871C25.577,26.067,24.749,27.392,25.807,27.246C25.875,27.036,25.185,27.332,25.807,27.246z
		 M26.178,25.782c0.018-0.188,0.087-0.355,0.209-0.501c0.078,0.313,0.156,0.625,0.234,0.938
		C26.15,26.279,26.042,26.262,26.178,25.782C26.223,25.626,26.034,26.293,26.178,25.782z"/>
	<path d="M29.728,27.293c0.653,0.033-0.114-1.265,0.593-1.101c0.593,0.138,0.209,1.394,1.17,1.046
		c-0.131-0.27-0.287-0.54-0.403-0.816c-0.152-0.361,0.167-0.479,0.299-0.763c0.279-0.602-0.318-1.035-0.842-1.067
		c-0.298-0.019-0.597,0.002-0.896-0.007c-0.344-0.008-0.187,0.779-0.187,0.965C29.464,25.914,29.207,27.262,29.728,27.293
		C30.16,27.314,29.547,27.282,29.728,27.293z M30.333,25.015c0.477,0.049,0.846,0.65,0.183,0.741
		C29.826,25.85,29.842,24.965,30.333,25.015C30.586,25.041,30.022,24.983,30.333,25.015z"/>
	<path d="M43.445,27.248c-0.003-0.196-0.184-1.263,0.367-0.938c0.323,0.19,0.483,1.536,1.125,0.923
		c-0.312-0.592-0.716-0.893-0.256-1.396c0.46-0.502-0.04-1.184-0.599-1.244c-0.805-0.086-1.216-0.157-1.21,0.715
		C42.875,25.764,42.549,27.79,43.445,27.248C43.441,27.035,43.252,27.364,43.445,27.248z M43.734,25.021
		c0.525-0.006,0.826,0.639,0.204,0.73C43.185,25.861,43.393,24.921,43.734,25.021C44.062,25.017,43.473,24.944,43.734,25.021z"/>
	<path d="M82.907,73.229c-12.632,0-25.265-0.038-37.896,0.003c-6.437,0.021-12.875,0.037-19.312,0.002
		c-1.514-0.009-3.028,0.02-4.542,0.004c-0.771-0.009-1.542-0.008-2.313-0.006c-0.562,0.002-2.066-0.271-2.479,0.183
		c0.055,0.535-0.003,1.156,0.004,1.712c0.009,0.632-0.226,1.235,0.514,1.253c1.59,0.019,3.181,0.018,4.772,0.017
		c10.69-0.006,21.383,0.005,32.07,0c5.558-0.002,11.115,0,16.673,0c3.279,0,6.56,0,9.839,0c0.787,0,1.575,0,2.362,0
		c0.457-0.096,1.187,0.241,1.187-0.409c0-0.622,0-1.245,0-1.867c0-0.296,0-0.593,0-0.889C83.497,73.2,83.188,73.304,82.907,73.229
		C79.819,73.229,83.196,73.306,82.907,73.229z"/>
	<path d="M77.615,26.963c-0.005,0.329,0.479,0.505,0.527,0.144c0.033-0.257-0.157-0.805,0.186-0.895
		c0.664-0.174,0.361,1.354,1.285,1.032c-0.025-0.384-0.573-0.804-0.372-1.194c0.234-0.453,0.654-0.935-0.017-1.334
		c-0.214-0.127-1.617-0.311-1.612,0.033C77.623,25.486,77.623,26.225,77.615,26.963C77.612,27.169,77.623,26.267,77.615,26.963z
		 M78.557,25.013c0.521,0.044,0.688,0.688,0.087,0.75C77.971,25.832,77.97,24.958,78.557,25.013
		C78.801,25.033,78.281,24.987,78.557,25.013z"/>
	<path d="M67.12,27.287c0.651,0.189,1.412,0.091,1.759-0.56c0.335-0.626,0.314-1.619-0.386-1.98
		c-0.346-0.178-1.469-0.432-1.529,0.184C66.932,25.266,66.762,27.178,67.12,27.287C68.295,27.629,66.922,27.227,67.12,27.287z
		 M67.495,25.5c0.005-0.868,0.998-0.414,1.054,0.205c0.029,0.312,0.029,0.736-0.226,0.964c-0.281,0.251-0.899,0.289-0.834-0.225"/>
</g>
</svg>
