<?xml version="1.0" encoding="UTF-8" standalone="no"?>
<!-- Created with Inkscape (http://www.inkscape.org/) -->

<svg
   xmlns:dc="http://purl.org/dc/elements/1.1/"
   xmlns:cc="http://creativecommons.org/ns#"
   xmlns:rdf="http://www.w3.org/1999/02/22-rdf-syntax-ns#"
   xmlns:svg="http://www.w3.org/2000/svg"
   xmlns="http://www.w3.org/2000/svg"
   xmlns:sodipodi="http://sodipodi.sourceforge.net/DTD/sodipodi-0.dtd"
   xmlns:inkscape="http://www.inkscape.org/namespaces/inkscape"
   width="100"
   height="100"
   id="svg2"
   version="1.1"
   inkscape:version="0.48.3.1 r9886"
   sodipodi:docname="logo.icm.couleur.svg">
  <defs
     id="defs4" />
  <sodipodi:namedview
     id="base"
     pagecolor="#ffffff"
     bordercolor="#666666"
     borderopacity="1.0"
     inkscape:pageopacity="0.0"
     inkscape:pageshadow="2"
     inkscape:zoom="1.979899"
     inkscape:cx="115.36024"
     inkscape:cy="-31.624852"
     inkscape:document-units="px"
     inkscape:current-layer="layer1"
     showgrid="false"
     fit-margin-top="0"
     fit-margin-left="0"
     fit-margin-right="0"
     fit-margin-bottom="0"
     inkscape:window-width="911"
     inkscape:window-height="805"
     inkscape:window-x="423"
     inkscape:window-y="419"
     inkscape:window-maximized="0" />
  <metadata
     id="metadata7">
    <rdf:RDF>
      <cc:Work
         rdf:about="">
        <dc:format>image/svg+xml</dc:format>
        <dc:type
           rdf:resource="http://purl.org/dc/dcmitype/StillImage" />
        <dc:title />
      </cc:Work>
    </rdf:RDF>
  </metadata>
  <g
     inkscape:label="Layer 1"
     inkscape:groupmode="layer"
     id="layer1"
     transform="translate(54.602489,-347.19518)">
    <g
       id="g2989"
       transform="matrix(0.24610298,0,0,0.24610298,-103.64606,333.09322)">
      <path
         style="fill:#1e2d4c;fill-opacity:1;fill-rule:evenodd;stroke:none"
         inkscape:connector-curvature="0"
         id="path9"
         d="m 492.34863,362.98678 c 5.559,-17.283 11.126,-34.449 16.551,-51.661 0.623,-1.981 1.587,-2.479 3.454,-2.456 5.746,0.072 11.495,0.111 17.238,-0.031 2.312,-0.059 2.94,0.978 3.265,3.024 4.131,26.114 8.334,52.216 12.503,78.323 0.232,1.457 0.326,2.937 0.513,4.663 -7.006,0 -13.701,0 -20.922,0 -2.679,-17.649 -5.363,-35.346 -8.202,-54.051 -0.638,2.634 -1.006,4.438 -1.513,6.202 -4.363,15.202 -8.771,30.393 -13.106,45.603 -0.527,1.851 -1.42,2.581 -3.411,2.521 -4.743,-0.144 -9.5,0.088 -14.235,-0.146 -1.093,-0.054 -2.778,-1.155 -3.085,-2.126 -5.209,-16.49 -10.244,-33.038 -15.375,-49.755 -2.205,17.163 -4.424,34.418 -6.658,51.805 -6.762,0 -13.207,0 -20.167,0 4.578,-28.604 9.122,-56.987 13.77,-86.023 4.927,0 9.867,10e-4 14.808,-0.001 8.053,-0.002 8.172,-0.038 10.482,7.574 4.592,15.125 9.035,30.295 13.553,45.442 0.13,0.441 0.407,0.836 0.537,1.093 z"
         clip-rule="evenodd" />
      <path
         style="fill:#ea6d2d;fill-opacity:1;fill-rule:evenodd"
         inkscape:connector-curvature="0"
         id="path11"
         d="m 319.33563,201.98678 c -0.723,-4.909 2.497,-4.313 4.933,-4.418 9.456,-0.403 18.48,-2.411 27.097,-6.44 24.568,-11.493 27.593,-44.146 5.525,-59.912 -8.214,-5.869 -17.594,-8.076 -27.379,-9.362 -10.962,-1.44 -21.655,-0.312 -32.158,2.859 -13.77,4.158 -23.148,13.252 -27.201,26.884 -1.405,4.726 -0.267,10.388 0.442,15.521 1.391,10.07 6.664,18.563 12.159,26.828 5.901,8.876 12.138,17.529 18.109,26.36 9.969,14.745 16.975,30.782 18.5,48.608 0.93,10.873 0.19,21.814 -2.387,32.614 -3.146,13.183 -8.004,25.665 -13.839,37.824 -0.95,1.98 -1.933,3.946 -2.989,5.871 -0.73,1.333 -1.377,3.547 -3.37,2.086 -0.77,-0.564 -0.906,-2.896 -0.448,-4.082 2.886,-7.479 6.388,-14.738 8.949,-22.319 1.814,-5.37 2.616,-11.106 3.611,-16.725 3.054,-17.265 2.396,-34.31 -3.545,-50.948 -1.029,-2.882 -2.45,-5.628 -3.74,-8.413 -5.327,-11.492 -12.988,-21.401 -21.007,-31.082 -7.946,-9.593 -16.139,-19.01 -23.562,-28.995 -5.567,-7.489 -9.041,-16.136 -8.582,-25.799 0.584,-12.292 6.894,-21.243 16.458,-28.514 11.767,-8.944 25.313,-13.189 39.576,-15.209 18.674,-2.645 37.113,-1.242 54.737,5.982 12.312,5.047 23.267,11.91 29.819,24.245 5.688,10.709 3.717,24.328 -3.777,33.534 -9.489,11.656 -22.141,17.185 -36.075,20.255 -8.144,1.795 -16.607,2.159 -24.939,3.058 -1.556,0.169 -3.167,-0.186 -4.917,-0.311 z"
         clip-rule="evenodd" />
      <path
         style="fill:#1e2d4c;fill-opacity:1;fill-rule:evenodd;stroke:none"
         inkscape:connector-curvature="0"
         id="path13"
         d="m 431.39663,310.47878 c -0.765,6.026 -1.498,11.801 -2.252,17.745 -3.164,-0.533 -6.178,-1.104 -9.21,-1.542 -17.061,-2.461 -26.818,5.396 -27.845,22.682 -0.227,3.818 0.087,7.766 0.808,11.527 2.567,13.393 12.396,18.189 24.887,16.854 3.805,-0.408 7.535,-1.511 11.748,-2.389 0.656,5.064 1.418,10.334 1.937,15.629 0.073,0.747 -0.896,2.145 -1.626,2.341 -13.79,3.706 -27.561,4.692 -40.896,-1.661 -9.03,-4.303 -14.373,-11.926 -16.859,-21.347 -3.294,-12.478 -2.902,-24.964 1.844,-37.089 6.299,-16.091 18.806,-23.615 35.471,-24.845 7.312,-0.54 14.648,-0.143 21.993,2.095 z"
         clip-rule="evenodd" />
      <path
         style="fill:#1e2d4c;fill-opacity:1;fill-rule:evenodd;stroke:none"
         inkscape:connector-curvature="0"
         id="path15"
         d="m 420.11463,214.06278 c 0,4.872 0,9.96 0,15.048 0,5.123 0.08,10.249 -0.023,15.37 -0.108,5.375 -3.642,8.869 -9.012,8.899 -10.479,0.06 -20.96,0.018 -31.979,0.018 0,3.307 0,6.379 0,9.45 0,8.374 -0.111,16.749 0.055,25.12 0.064,3.24 -1.579,3.764 -4.189,3.682 -2.434,-0.077 -4.773,0.244 -4.735,-3.506 0.13,-12.872 0.075,-25.746 0.035,-38.619 -0.01,-3.444 1.568,-4.991 5.006,-4.976 10.123,0.046 20.247,0.038 30.37,-0.016 4.822,-0.025 5.359,-0.57 5.389,-5.458 0.059,-9.623 0.018,-19.246 0.056,-28.868 0.018,-4.268 1.496,-5.762 5.858,-5.876 3.235,-0.085 6.475,-0.017 10.371,-0.017 -2.913,-7.437 -5.564,-14.23 -8.236,-21.016 -4.608,-11.706 -9.346,-23.362 -13.823,-35.119 -8.448,-22.184 -25.301,-34.556 -47.353,-40.927 -3.225,-0.932 -6.546,-1.526 -9.81,-2.333 -0.864,-0.214 -1.676,-0.639 -2.512,-0.967 0.046,-0.373 0.092,-0.745 0.138,-1.118 2.396,0 4.819,-0.238 7.182,0.038 22.12,2.575 41.211,11.068 54.461,29.644 3.841,5.385 6.317,11.855 8.804,18.074 7.168,17.929 14.04,35.977 20.986,53.994 2.092,5.426 0.368,8.004 -5.448,8.363 -3.487,0.216 -6.976,0.397 -10.462,0.614 -0.224,0.014 -0.438,0.188 -1.129,0.502 z"
         clip-rule="evenodd" />
      <path
         style="fill:#1e2d4c;fill-opacity:1;fill-rule:evenodd;stroke:none"
         inkscape:connector-curvature="0"
         id="path17"
         d="m 358.11863,308.87878 c 0,29.005 0,57.325 0,85.923 -6.573,0 -12.968,0 -19.628,0 -0.082,-1.206 -0.219,-2.297 -0.219,-3.387 -0.01,-26.221 0.054,-52.441 -0.076,-78.66 -0.016,-3.219 0.995,-4.062 4.035,-3.936 5.201,0.215 10.418,0.06 15.888,0.06 z"
         clip-rule="evenodd" />
    </g>
  </g>
</svg>
