<?xml version="1.0" encoding="utf-8"?>
<!-- Generator: Adobe Illustrator 16.0.0, SVG Export Plug-In . SVG Version: 6.00 Build 0)  -->
<!DOCTYPE svg PUBLIC "-//W3C//DTD SVG 1.1//EN" "http://www.w3.org/Graphics/SVG/1.1/DTD/svg11.dtd">
<svg version="1.1" id="Calque_1" xmlns="http://www.w3.org/2000/svg" xmlns:xlink="http://www.w3.org/1999/xlink" x="0px" y="0px"
	 width="100px" height="100px" viewBox="0 0 100 100" enable-background="new 0 0 100 100" xml:space="preserve">
<g>
	<linearGradient id="SVGID_1_" gradientUnits="userSpaceOnUse" x1="51.8477" y1="65.2559" x2="77.012" y2="41.552">
		<stop  offset="0" style="stop-color:#F19824"/>
		<stop  offset="0.1612" style="stop-color:#EE6E25"/>
		<stop  offset="0.3395" style="stop-color:#EB4727"/>
		<stop  offset="0.5157" style="stop-color:#E82828"/>
		<stop  offset="0.687" style="stop-color:#E61228"/>
		<stop  offset="0.851" style="stop-color:#E50429"/>
		<stop  offset="1" style="stop-color:#E50029"/>
	</linearGradient>
	<path fill="url(#SVGID_1_)" d="M94.125,52.363c-2.038-1.829-5.896-1.237-8.342-0.88c-3.119,0.455-6.179,1.278-9.224,2.078
		c-1.446,0.381-2.891,0.768-4.351,1.094c-0.462,0.103-3.368,0.953-3.182-0.157c0.386-2.149,3.398-3.935,2.503-6.244
		c-1.003-2.584-5.135-1.835-7.12-1.153c-0.896,0.308-1.749,0.74-2.561,1.219c-0.275,0.163-2.334,1.904-2.406,1.868
		c-1.73,1.26-3.256,2.684-5.117,3.775c-0.776,0.408-1.634,0.79-2.528,0.795c-1.059,0.01,0.078-1.895,0.38-2.196
		c1.082-1.484,2.271-2.855,3.508-4.213c0.198-0.188,1.643-1.461,1.271-1.704c-0.602-0.392-1.9-0.009-2.481,0.191
		c-0.539-0.27-2.467,1.538-2.565,1.946c-0.069-0.069-2.228,2.786-2.332,2.961c-0.034,0-0.803,0.978-0.878,1.027
		c-0.636,0.422-1.282,0.816-1.967,1.146c-0.905,0.436-3.11,1.666-4.148,0.942c-0.506,0,0.775-1.664,0.838-1.75
		c0.127,0,0.712-0.77,0.795-0.856c0.254,0,0.883-0.913,1.116-1.139c0.702-0.68,1.51-1.447,2.052-2.279
		c1.902-2.918-3.875-2.428-5.36-2.293c-1.499,0.136-2.853,0.602-3.888,1.741c-0.584,0.508-2.825,2.585-1.684,3.439
		c0.273,0.204,2.679-2.228,3.123-2.491c1.39-0.824,3.166-0.503,4.706-0.551c-0.944,1.165-2.27,2.013-3.229,3.184
		c-0.81,0.989-2.109,2.355-1.59,3.771c0.664,1.81,3.176,1.647,4.66,1.234c1.419-0.395,2.54-1.176,3.822-1.784
		c-0.06,0.12-0.06,0.181,0,0.181c-0.088,0,0.053,0.851,0.053,0.853c0.148,0.485,0.557,0.785,1.033,0.911
		c0.684,0.183,1.399,0.183,2.093,0.06c0.347-0.062,0.792-0.274,1.137-0.274c1.703-0.398,3.145-1.505,4.631-2.361
		c0,0.976,0.102,1.828,1.052,2.344c0.818,0.444,1.893,0.403,2.786,0.315c1.162-0.115,2.486-0.614,3.439-1.292
		c0-0.084,1.427-1.111,1.662-1.166c0.149,2.334,2.301,2.599,4.215,2.396c2.973-0.314,5.928-1.213,8.847-1.843
		c3.372-0.729,6.812-1.433,10.274-1.495c1.589-0.029,3.282,0.075,4.758,0.717c0.667,0.29,1.157,0.58,1.038-0.459
		C94.892,53.346,94.596,52.78,94.125,52.363C93.609,51.9,94.684,52.857,94.125,52.363z M64.868,49.292
		c0.18,0.124,1.787-0.75,2.103-0.824c1.015-0.241,1.729-0.072,1.106,1.045c-0.608,1.091-1.384,2.031-2.305,2.729
		c-0.119,0.09-0.824,0.938-0.9,0.899c-0.141,0.036-0.71,0.336-0.672,0.528c-0.425,0.126-0.68,0.472-1.066,0.624
		c-0.593,0.234-1.128,0.59-1.759,0.71c-0.304,0.059-0.733,0.089-0.947-0.192c-0.184-0.241,0.06-0.775-0.095-0.899
		c0.269-0.107,0.393-0.704,0.611-0.934c0.18-0.188,0.724-1.241,0.916-1.241c0.324-0.189,0.5-0.485,0.796-0.688
		c0.237-0.162,0.57-0.454,0.77-0.663c0.121-0.128,1.118-0.994,1.204-0.951C64.757,49.466,64.836,49.417,64.868,49.292
		C64.876,49.297,64.845,49.43,64.868,49.292z"/>
	<path fill="#E50029" d="M20.809,35.373c1.587,0.042,2.898-0.553,4.163-1.465c0.68-0.49,1.329-1.027,1.938-1.604
		c0.665-0.629,0.811-1.015-0.294-1.01c-1.612,0.03-2.75,0.5-3.948,1.523c-0.588,0.503-1.139,1.057-1.665,1.625
		C20.782,34.681,20.029,35.35,20.809,35.373C21.965,35.404,20.776,35.372,20.809,35.373z"/>
	<linearGradient id="SVGID_2_" gradientUnits="userSpaceOnUse" x1="23.0205" y1="56.3623" x2="6.3035" y2="32.6753">
		<stop  offset="0" style="stop-color:#F19824"/>
		<stop  offset="0.0189" style="stop-color:#F08F24"/>
		<stop  offset="0.1136" style="stop-color:#ED6926"/>
		<stop  offset="0.2157" style="stop-color:#EB4927"/>
		<stop  offset="0.325" style="stop-color:#E92E27"/>
		<stop  offset="0.4441" style="stop-color:#E71A28"/>
		<stop  offset="0.5781" style="stop-color:#E60B29"/>
		<stop  offset="0.7391" style="stop-color:#E50329"/>
		<stop  offset="1" style="stop-color:#E50029"/>
	</linearGradient>
	<path fill="url(#SVGID_2_)" d="M34.967,51.85c-0.923,0.897-2.018,1.705-3.18,2.265c-0.578,0.277-1.18,0.536-1.812,0.651
		c-0.316,0.057-0.635,0.113-0.958,0.103c1.315,0.054-1.776-0.169-0.42-0.169c0.11-0.22,0.149-0.578,0.282-0.84
		c0.183,0,1.082-1.399,1.238-1.603c0.261-0.174,0.952-1.464,1.224-1.464c0.449-0.515,0.894-1.087,1.24-1.68
		c0.036-0.062,0.7-1.535,0.438-1.535c-0.094-1.981-3.981-0.756-5.008-0.349c-1.004,0.398-1.849,1.038-2.81,1.496
		c-0.467,0.272-1.591,1.396-2.138,1.411c0.016-0.029,0.017-0.044,0.001-0.044c0.844-1.023,1.765-2.019,2.517-3.113
		c0.418-0.07-0.45-0.414-0.448-0.414c-0.494-0.055-1.102,0.026-1.573,0.153c-0.58,0.157-1.208,0.345-1.648,0.776
		c-0.268,0.263-0.575,0.98-0.879,1.132c-0.931,1.176-2.019,2.23-3.194,3.16c-1.849,1.461-4.366,3.186-6.821,3.286
		c-3.527,0.146,0.493-5.203,1.248-6.257c1.805-2.524,3.822-4.911,5.905-7.208c1.003-1.106,2.036-2.187,3.105-3.229
		c0.209-0.204,1.193-0.893,0.896-1.269c-0.392-0.495-1.67-0.21-2.177-0.114c-2.87,0.547-4.746,3.3-6.617,5.362
		c-1.986,2.188-3.92,4.485-5.467,7.011c-1.288,2.104-3.643,6.925,0.222,7.804c2.881,0.655,5.856-1.11,8.273-2.396
		c-0.162,0.607-1.545,1.529-1.406,2.129c0.121,0.525,1.442,0.252,1.799,0.184c1.102-0.214,1.568-0.754,2.291-1.546
		c0.725-0.795,1.521-1.522,2.352-2.204c1.639-1.345,3.378-2.589,5.266-3.56c0.393-0.202,2.04-1.191,2.436-0.708
		c0.258,0.315-0.748,1.302-0.899,1.479c-1.08,1.261-2.602,2.646-3.025,4.311c-0.592,1.581,0.913,2.312,2.214,2.325
		c1.985,0.021,4.035-0.8,5.693-1.841c0.683-0.43,1.379-0.955,1.901-1.578c0.209-0.249,0.405-0.473,0.435-0.811
		C35.488,52.753,35.444,51.39,34.967,51.85C34.18,52.614,35.127,51.695,34.967,51.85z"/>
	<path fill="#E50029" d="M56.018,45.09c1.476,0.206,2.722-0.565,3.882-1.39c0.786-0.559,1.546-1.156,2.274-1.789
		c0.305-0.265,1.803-1.262,0.903-1.509c-1.55-0.443-3.387,0.453-4.485,1.452c-0.693,0.63-1.385,1.262-2.031,1.94
		C56.35,44.016,55.195,44.973,56.018,45.09C56.356,45.137,55.891,45.072,56.018,45.09z"/>
</g>
</svg>
